<svg xmlns="http://www.w3.org/2000/svg" xmlns:xlink="http://www.w3.org/1999/xlink" width="400" height="220">\n<path  d="M 0 0
L 400 0
L 400 220
L 0 220
L 0 0" style="stroke-width:0;stroke:none;fill:rgba(255,255,255,1.0)"/><text x="10" y="25" style="stroke-width:0;stroke:none;fill:rgba(70,70,70,1.0);font-size:15.3px;font-family:'Roboto Medium',sans-serif">Gigabytes processed per second</text><path  d="M 170 45
L 175 45" style="stroke-width:1;stroke:rgba(110,112,121,1.0);fill:none"/><path  d="M 170 67
L 175 67" style="stroke-width:1;stroke:rgba(110,112,121,1.0);fill:none"/><path  d="M 170 90
L 175 90" style="stroke-width:1;stroke:rgba(110,112,121,1.0);fill:none"/><path  d="M 170 112
L 175 112" style="stroke-width:1;stroke:rgba(110,112,121,1.0);fill:none"/><path  d="M 170 135
L 175 135" style="stroke-width:1;stroke:rgba(110,112,121,1.0);fill:none"/><path  d="M 170 157
L 175 157" style="stroke-width:1;stroke:rgba(110,112,121,1.0);fill:none"/><path  d="M 170 180
L 175 180" style="stroke-width:1;stroke:rgba(110,112,121,1.0);fill:none"/><path  d="M 175 45
L 175 180" style="stroke-width:1;stroke:rgba(110,112,121,1.0);fill:none"/><text x="21" y="63" style="stroke-width:0;stroke:none;fill:rgba(70,70,70,1.0);font-size:15.3px;font-family:'Roboto Medium',sans-serif">samber/slog-zerolog</text><text x="48" y="85" style="stroke-width:0;stroke:none;fill:rgba(70,70,70,1.0);font-size:15.3px;font-family:'Roboto Medium',sans-serif">samber/slog-zap</text><text x="29" y="108" style="stroke-width:0;stroke:none;fill:rgba(70,70,70,1.0);font-size:15.3px;font-family:'Roboto Medium',sans-serif">samber/slog-logrus</text><text x="53" y="130" style="stroke-width:0;stroke:none;fill:rgba(70,70,70,1.0);font-size:15.3px;font-family:'Roboto Medium',sans-serif">phsym/zeroslog</text><text x="10" y="153" style="stroke-width:0;stroke:none;fill:rgba(70,70,70,1.0);font-size:15.3px;font-family:'Roboto Medium',sans-serif">log/slog.JSONHandler</text><text x="16" y="175" style="stroke-width:0;stroke:none;fill:rgba(70,70,70,1.0);font-size:15.3px;font-family:'Roboto Medium',sans-serif">chanchal/ZapHandler</text><text x="171" y="205" style="stroke-width:0;stroke:none;fill:rgba(70,70,70,1.0);font-size:15.3px;font-family:'Roboto Medium',sans-serif">0</text><text x="221" y="205" style="stroke-width:0;stroke:none;fill:rgba(70,70,70,1.0);font-size:15.3px;font-family:'Roboto Medium',sans-serif">2.09M</text><text x="289" y="205" style="stroke-width:0;stroke:none;fill:rgba(70,70,70,1.0);font-size:15.3px;font-family:'Roboto Medium',sans-serif">4.18M</text><text x="358" y="205" style="stroke-width:0;stroke:none;fill:rgba(70,70,70,1.0);font-size:15.3px;font-family:'Roboto Medium',sans-serif">6.28M</text><path  d="M 209 45
L 209 180" style="stroke-width:1;stroke:rgba(224,230,242,1.0);fill:none"/><path  d="M 243 45
L 243 180" style="stroke-width:1;stroke:rgba(224,230,242,1.0);fill:none"/><path  d="M 277 45
L 277 180" style="stroke-width:1;stroke:rgba(224,230,242,1.0);fill:none"/><path  d="M 311 45
L 311 180" style="stroke-width:1;stroke:rgba(224,230,242,1.0);fill:none"/><path  d="M 345 45
L 345 180" style="stroke-width:1;stroke:rgba(224,230,242,1.0);fill:none"/><path  d="M 380 45
L 380 180" style="stroke-width:1;stroke:rgba(224,230,242,1.0);fill:none"/><path  d="M 175 162
L 250 162
L 250 174
L 175 174
L 175 162" style="stroke-width:0;stroke:none;fill:rgba(84,112,198,1.0)"/><path  d="M 175 140
L 299 140
L 299 152
L 175 152
L 175 140" style="stroke-width:0;stroke:none;fill:rgba(84,112,198,1.0)"/><path  d="M 175 117
L 361 117
L 361 129
L 175 129
L 175 117" style="stroke-width:0;stroke:none;fill:rgba(84,112,198,1.0)"/><path  d="M 175 95
L 175 95
L 175 107
L 175 107
L 175 95" style="stroke-width:0;stroke:none;fill:rgba(84,112,198,1.0)"/><path  d="M 175 72
L 175 72
L 175 84
L 175 84
L 175 72" style="stroke-width:0;stroke:none;fill:rgba(84,112,198,1.0)"/><path  d="M 175 50
L 176 50
L 176 62
L 175 62
L 175 50" style="stroke-width:0;stroke:none;fill:rgba(84,112,198,1.0)"/></svg>