<svg xmlns="http://www.w3.org/2000/svg" xmlns:xlink="http://www.w3.org/1999/xlink" width="750" height="600">\n<path  d="M 0 0
L 750 0
L 750 600
L 0 600
L 0 0" style="stroke-width:0;stroke:rgba(255,255,255,1.0);fill:rgba(255,255,255,1.0)"/><path  d="M 12 29
L 631 29
L 631 551
L 12 551
L 12 29" style="stroke-width:0;stroke:rgba(255,255,255,1.0);fill:rgba(255,255,255,1.0)"/><path  d="M 12 551
L 631 551" style="stroke-width:1;stroke:rgba(51,51,51,1.0);fill:none"/><path  d="M 12 551
L 12 556" style="stroke-width:1;stroke:rgba(51,51,51,1.0);fill:none"/><text x="5" y="573" style="stroke-width:0;stroke:none;fill:rgba(51,51,51,1.0);font-size:12.8px;font-family:'Roboto Medium',sans-serif">25</text><path  d="M 54 551
L 54 556" style="stroke-width:1;stroke:rgba(51,51,51,1.0);fill:none"/><text x="47" y="573" style="stroke-width:0;stroke:none;fill:rgba(51,51,51,1.0);font-size:12.8px;font-family:'Roboto Medium',sans-serif">30</text><path  d="M 136 551
L 136 556" style="stroke-width:1;stroke:rgba(51,51,51,1.0);fill:none"/><text x="129" y="573" style="stroke-width:0;stroke:none;fill:rgba(51,51,51,1.0);font-size:12.8px;font-family:'Roboto Medium',sans-serif">40</text><path  d="M 219 551
L 219 556" style="stroke-width:1;stroke:rgba(51,51,51,1.0);fill:none"/><text x="212" y="573" style="stroke-width:0;stroke:none;fill:rgba(51,51,51,1.0);font-size:12.8px;font-family:'Roboto Medium',sans-serif">50</text><path  d="M 301 551
L 301 556" style="stroke-width:1;stroke:rgba(51,51,51,1.0);fill:none"/><text x="294" y="573" style="stroke-width:0;stroke:none;fill:rgba(51,51,51,1.0);font-size:12.8px;font-family:'Roboto Medium',sans-serif">60</text><path  d="M 384 551
L 384 556" style="stroke-width:1;stroke:rgba(51,51,51,1.0);fill:none"/><text x="377" y="573" style="stroke-width:0;stroke:none;fill:rgba(51,51,51,1.0);font-size:12.8px;font-family:'Roboto Medium',sans-serif">70</text><path  d="M 466 551
L 466 556" style="stroke-width:1;stroke:rgba(51,51,51,1.0);fill:none"/><text x="459" y="573" style="stroke-width:0;stroke:none;fill:rgba(51,51,51,1.0);font-size:12.8px;font-family:'Roboto Medium',sans-serif">80</text><path  d="M 549 551
L 549 556" style="stroke-width:1;stroke:rgba(51,51,51,1.0);fill:none"/><text x="542" y="573" style="stroke-width:0;stroke:none;fill:rgba(51,51,51,1.0);font-size:12.8px;font-family:'Roboto Medium',sans-serif">90</text><path  d="M 631 551
L 631 556" style="stroke-width:1;stroke:rgba(51,51,51,1.0);fill:none"/><text x="620" y="573" style="stroke-width:0;stroke:none;fill:rgba(51,51,51,1.0);font-size:12.8px;font-family:'Roboto Medium',sans-serif">100</text><text x="306" y="595" style="stroke-width:0;stroke:none;fill:rgba(51,51,51,1.0);font-size:12.8px;font-family:'Roboto Medium',sans-serif">Large</text><path  d="M 54 551
L 54 29" style="stroke-width:0;stroke:none;fill:none"/><path  d="M 136 551
L 136 29" style="stroke-width:0;stroke:none;fill:none"/><path  d="M 219 551
L 219 29" style="stroke-width:0;stroke:none;fill:none"/><path  d="M 301 551
L 301 29" style="stroke-width:0;stroke:none;fill:none"/><path  d="M 384 551
L 384 29" style="stroke-width:0;stroke:none;fill:none"/><path  d="M 466 551
L 466 29" style="stroke-width:0;stroke:none;fill:none"/><path  d="M 549 551
L 549 29" style="stroke-width:0;stroke:none;fill:none"/><path  d="M 632 551
L 632 29" style="stroke-width:1;stroke:rgba(51,51,51,1.0);fill:none"/><path  d="M 632 551
L 637 551" style="stroke-width:1;stroke:rgba(51,51,51,1.0);fill:none"/><text x="642" y="557" style="stroke-width:0;stroke:none;fill:rgba(51,51,51,1.0);font-size:12.8px;font-family:'Roboto Medium',sans-serif">25</text><path  d="M 632 516
L 637 516" style="stroke-width:1;stroke:rgba(51,51,51,1.0);fill:none"/><text x="642" y="522" style="stroke-width:0;stroke:none;fill:rgba(51,51,51,1.0);font-size:12.8px;font-family:'Roboto Medium',sans-serif">30</text><path  d="M 632 446
L 637 446" style="stroke-width:1;stroke:rgba(51,51,51,1.0);fill:none"/><text x="642" y="452" style="stroke-width:0;stroke:none;fill:rgba(51,51,51,1.0);font-size:12.8px;font-family:'Roboto Medium',sans-serif">40</text><path  d="M 632 377
L 637 377" style="stroke-width:1;stroke:rgba(51,51,51,1.0);fill:none"/><text x="642" y="383" style="stroke-width:0;stroke:none;fill:rgba(51,51,51,1.0);font-size:12.8px;font-family:'Roboto Medium',sans-serif">50</text><path  d="M 632 307
L 637 307" style="stroke-width:1;stroke:rgba(51,51,51,1.0);fill:none"/><text x="642" y="313" style="stroke-width:0;stroke:none;fill:rgba(51,51,51,1.0);font-size:12.8px;font-family:'Roboto Medium',sans-serif">60</text><path  d="M 632 237
L 637 237" style="stroke-width:1;stroke:rgba(51,51,51,1.0);fill:none"/><text x="642" y="243" style="stroke-width:0;stroke:none;fill:rgba(51,51,51,1.0);font-size:12.8px;font-family:'Roboto Medium',sans-serif">70</text><path  d="M 632 168
L 637 168" style="stroke-width:1;stroke:rgba(51,51,51,1.0);fill:none"/><text x="642" y="174" style="stroke-width:0;stroke:none;fill:rgba(51,51,51,1.0);font-size:12.8px;font-family:'Roboto Medium',sans-serif">80</text><path  d="M 632 98
L 637 98" style="stroke-width:1;stroke:rgba(51,51,51,1.0);fill:none"/><text x="642" y="104" style="stroke-width:0;stroke:none;fill:rgba(51,51,51,1.0);font-size:12.8px;font-family:'Roboto Medium',sans-serif">90</text><path  d="M 632 29
L 637 29" style="stroke-width:1;stroke:rgba(51,51,51,1.0);fill:none"/><text x="642" y="35" style="stroke-width:0;stroke:none;fill:rgba(51,51,51,1.0);font-size:12.8px;font-family:'Roboto Medium',sans-serif">100</text><text x="674" y="274" style="stroke-width:0;stroke:none;fill:rgba(51,51,51,1.0);font-size:12.8px;font-family:'Roboto Medium',sans-serif" transform="rotate(90.00,674,274)">Small</text><path  d="M 12 725
L 631 725" style="stroke-width:0;stroke:none;fill:none"/><path  d="M 12 516
L 631 516" style="stroke-width:0;stroke:none;fill:none"/><path  d="M 12 446
L 631 446" style="stroke-width:0;stroke:none;fill:none"/><path  d="M 12 377
L 631 377" style="stroke-width:0;stroke:none;fill:none"/><path  d="M 12 307
L 631 307" style="stroke-width:0;stroke:none;fill:none"/><path  d="M 12 237
L 631 237" style="stroke-width:0;stroke:none;fill:none"/><path  d="M 12 168
L 631 168" style="stroke-width:0;stroke:none;fill:none"/><path  d="M 12 98
L 631 98" style="stroke-width:0;stroke:none;fill:none"/><path  d="M 11 551
L 11 29" style="stroke-width:1;stroke:rgba(51,51,51,1.0);fill:none"/><path  d="M 11 -9223372036854775257
L 6 -9223372036854775257" style="stroke-width:1;stroke:rgba(51,51,51,1.0);fill:none"/><text x="-25" y="-9223372036854775251" style="stroke-width:0;stroke:none;fill:rgba(51,51,51,1.0);font-size:12.8px;font-family:'Roboto Medium',sans-serif">0.00</text><path  d="M 11 -9223372036854775257
L 6 -9223372036854775257" style="stroke-width:1;stroke:rgba(51,51,51,1.0);fill:none"/><text x="-25" y="-9223372036854775251" style="stroke-width:0;stroke:none;fill:rgba(51,51,51,1.0);font-size:12.8px;font-family:'Roboto Medium',sans-serif">0.00</text><path  d="M 11 -9223372036854775257
L 6 -9223372036854775257" style="stroke-width:1;stroke:rgba(51,51,51,1.0);fill:none"/><text x="-25" y="-9223372036854775251" style="stroke-width:0;stroke:none;fill:rgba(51,51,51,1.0);font-size:12.8px;font-family:'Roboto Medium',sans-serif">0.00</text><path  d="M 11 -9223372036854775257
L 6 -9223372036854775257" style="stroke-width:1;stroke:rgba(51,51,51,1.0);fill:none"/><text x="-25" y="-9223372036854775251" style="stroke-width:0;stroke:none;fill:rgba(51,51,51,1.0);font-size:12.8px;font-family:'Roboto Medium',sans-serif">0.00</text><path  d="M 11 -9223372036854775257
L 6 -9223372036854775257" style="stroke-width:1;stroke:rgba(51,51,51,1.0);fill:none"/><text x="-25" y="-9223372036854775251" style="stroke-width:0;stroke:none;fill:rgba(51,51,51,1.0);font-size:12.8px;font-family:'Roboto Medium',sans-serif">0.00</text><path  d="M 11 -9223372036854775257
L 6 -9223372036854775257" style="stroke-width:1;stroke:rgba(51,51,51,1.0);fill:none"/><text x="-25" y="-9223372036854775251" style="stroke-width:0;stroke:none;fill:rgba(51,51,51,1.0);font-size:12.8px;font-family:'Roboto Medium',sans-serif">0.00</text><path  d="M 11 -9223372036854775257
L 6 -9223372036854775257" style="stroke-width:1;stroke:rgba(51,51,51,1.0);fill:none"/><text x="-25" y="-9223372036854775251" style="stroke-width:0;stroke:none;fill:rgba(51,51,51,1.0);font-size:12.8px;font-family:'Roboto Medium',sans-serif">0.00</text><path  d="M 11 -9223372036854775257
L 6 -9223372036854775257" style="stroke-width:1;stroke:rgba(51,51,51,1.0);fill:none"/><text x="-25" y="-9223372036854775251" style="stroke-width:0;stroke:none;fill:rgba(51,51,51,1.0);font-size:12.8px;font-family:'Roboto Medium',sans-serif">0.00</text><path  d="M 11 -9223372036854775257
L 6 -9223372036854775257" style="stroke-width:1;stroke:rgba(51,51,51,1.0);fill:none"/><text x="-25" y="-9223372036854775251" style="stroke-width:0;stroke:none;fill:rgba(51,51,51,1.0);font-size:12.8px;font-family:'Roboto Medium',sans-serif">0.00</text><path  d="M 11 -9223372036854775257
L 6 -9223372036854775257" style="stroke-width:1;stroke:rgba(51,51,51,1.0);fill:none"/><text x="-25" y="-9223372036854775251" style="stroke-width:0;stroke:none;fill:rgba(51,51,51,1.0);font-size:12.8px;font-family:'Roboto Medium',sans-serif">0.00</text><path  d="M 11 -9223372036854775257
L 6 -9223372036854775257" style="stroke-width:1;stroke:rgba(51,51,51,1.0);fill:none"/><text x="-25" y="-9223372036854775251" style="stroke-width:0;stroke:none;fill:rgba(51,51,51,1.0);font-size:12.8px;font-family:'Roboto Medium',sans-serif">0.00</text><path  d="M 11 -9223372036854775257
L 6 -9223372036854775257" style="stroke-width:1;stroke:rgba(51,51,51,1.0);fill:none"/><text x="-25" y="-9223372036854775251" style="stroke-width:0;stroke:none;fill:rgba(51,51,51,1.0);font-size:12.8px;font-family:'Roboto Medium',sans-serif">0.00</text><path  d="M 11 -9223372036854775257
L 6 -9223372036854775257" style="stroke-width:1;stroke:rgba(51,51,51,1.0);fill:none"/><text x="-25" y="-9223372036854775251" style="stroke-width:0;stroke:none;fill:rgba(51,51,51,1.0);font-size:12.8px;font-family:'Roboto Medium',sans-serif">0.00</text><path  d="M 11 -9223372036854775257
L 6 -9223372036854775257" style="stroke-width:1;stroke:rgba(51,51,51,1.0);fill:none"/><text x="-25" y="-9223372036854775251" style="stroke-width:0;stroke:none;fill:rgba(51,51,51,1.0);font-size:12.8px;font-family:'Roboto Medium',sans-serif">0.00</text><path  d="M 11 -9223372036854775257
L 6 -9223372036854775257" style="stroke-width:1;stroke:rgba(51,51,51,1.0);fill:none"/><text x="-25" y="-9223372036854775251" style="stroke-width:0;stroke:none;fill:rgba(51,51,51,1.0);font-size:12.8px;font-family:'Roboto Medium',sans-serif">0.00</text><path  d="M 12 -9223372036854775257
L 631 -9223372036854775257" style="stroke-width:0;stroke:none;fill:none"/><path  d="M 12 -9223372036854775257
L 631 -9223372036854775257" style="stroke-width:0;stroke:none;fill:none"/><path  d="M 12 -9223372036854775257
L 631 -9223372036854775257" style="stroke-width:0;stroke:none;fill:none"/><path  d="M 12 -9223372036854775257
L 631 -9223372036854775257" style="stroke-width:0;stroke:none;fill:none"/><path  d="M 12 -9223372036854775257
L 631 -9223372036854775257" style="stroke-width:0;stroke:none;fill:none"/><path  d="M 12 -9223372036854775257
L 631 -9223372036854775257" style="stroke-width:0;stroke:none;fill:none"/><path  d="M 12 -9223372036854775257
L 631 -9223372036854775257" style="stroke-width:0;stroke:none;fill:none"/><path  d="M 12 -9223372036854775257
L 631 -9223372036854775257" style="stroke-width:0;stroke:none;fill:none"/><path  d="M 12 -9223372036854775257
L 631 -9223372036854775257" style="stroke-width:0;stroke:none;fill:none"/><path  d="M 12 -9223372036854775257
L 631 -9223372036854775257" style="stroke-width:0;stroke:none;fill:none"/><path  d="M 12 -9223372036854775257
L 631 -9223372036854775257" style="stroke-width:0;stroke:none;fill:none"/><path  d="M 12 -9223372036854775257
L 631 -9223372036854775257" style="stroke-width:0;stroke:none;fill:none"/><path  d="M 12 -9223372036854775257
L 631 -9223372036854775257" style="stroke-width:0;stroke:none;fill:none"/><path  d="M 12 -9223372036854775257
L 631 -9223372036854775257" style="stroke-width:0;stroke:none;fill:none"/><path  d="M 219 29
L 219 377
L 631 377" style="stroke-width:1;stroke:rgba(255,0,127,0.2);fill:none"/><path  d="M 425 29
L 425 203
L 631 203" style="stroke-width:1;stroke:rgba(255,0,127,0.2);fill:none"/><path  d="M 549 377
L 559 366
L 593 366
L 593 388
L 559 388
L 549 377
Z" style="stroke-width:1;stroke:rgba(255,0,127,0.2);fill:rgba(255,255,255,1.0)"/><text x="564" y="383" style="stroke-width:0;stroke:none;fill:rgba(51,51,51,1.0);font-size:12.8px;font-family:'Roboto Medium',sans-serif">Half</text><path  d="M 549 203
L 559 192
L 612 192
L 612 214
L 559 214
L 549 203
Z" style="stroke-width:1;stroke:rgba(255,0,127,0.2);fill:rgba(255,255,255,1.0)"/><text x="564" y="209" style="stroke-width:0;stroke:none;fill:rgba(51,51,51,1.0);font-size:12.8px;font-family:'Roboto Medium',sans-serif">Quarter</text><circle cx="565" cy="59" r="5" style="stroke-width:1;stroke:rgba(21,232,0,1.0);fill:rgba(21,232,0,1.0)"/><path  d="" style="stroke-width:1;stroke:rgba(21,232,0,1.0);fill:rgba(21,232,0,1.0)"/><circle cx="537" cy="81" r="5" style="stroke-width:1;stroke:rgba(32,222,0,1.0);fill:rgba(32,222,0,1.0)"/><path  d="" style="stroke-width:1;stroke:rgba(32,222,0,1.0);fill:rgba(32,222,0,1.0)"/><circle cx="454" cy="135" r="5" style="stroke-width:1;stroke:rgba(62,191,0,1.0);fill:rgba(62,191,0,1.0)"/><path  d="" style="stroke-width:1;stroke:rgba(62,191,0,1.0);fill:rgba(62,191,0,1.0)"/><circle cx="627" cy="38" r="5" style="stroke-width:1;stroke:rgba(3,251,0,1.0);fill:rgba(3,251,0,1.0)"/><path  d="" style="stroke-width:1;stroke:rgba(3,251,0,1.0);fill:rgba(3,251,0,1.0)"/><circle cx="631" cy="29" r="5" style="stroke-width:1;stroke:rgba(0,254,0,1.0);fill:rgba(0,254,0,1.0)"/><path  d="" style="stroke-width:1;stroke:rgba(0,254,0,1.0);fill:rgba(0,254,0,1.0)"/><circle cx="83" cy="342" r="5" style="stroke-width:1;stroke:rgba(179,62,0,1.0);fill:rgba(179,62,0,1.0)"/><path  d="" style="stroke-width:1;stroke:rgba(179,62,0,1.0);fill:rgba(179,62,0,1.0)"/><circle cx="588" cy="52" r="5" style="stroke-width:1;stroke:rgba(14,240,0,1.0);fill:rgba(14,240,0,1.0)"/><path  d="" style="stroke-width:1;stroke:rgba(14,240,0,1.0);fill:rgba(14,240,0,1.0)"/><circle cx="606" cy="117" r="5" style="stroke-width:1;stroke:rgba(26,223,0,1.0);fill:rgba(26,223,0,1.0)"/><path  d="" style="stroke-width:1;stroke:rgba(26,223,0,1.0);fill:rgba(26,223,0,1.0)"/><circle cx="587" cy="35" r="5" style="stroke-width:1;stroke:rgba(10,241,0,1.0);fill:rgba(10,241,0,1.0)"/><path  d="" style="stroke-width:1;stroke:rgba(10,241,0,1.0);fill:rgba(10,241,0,1.0)"/><circle cx="106" cy="336" r="5" style="stroke-width:1;stroke:rgba(176,68,0,1.0);fill:rgba(176,68,0,1.0)"/><path  d="" style="stroke-width:1;stroke:rgba(176,68,0,1.0);fill:rgba(176,68,0,1.0)"/><path  d="M 565 59
L 575 48
L 668 48
L 668 70
L 575 70
L 565 59
Z" style="stroke-width:1;stroke:rgba(63,127,255,1.0);fill:rgba(255,255,255,1.0)"/><text x="580" y="65" style="stroke-width:0;stroke:none;fill:rgba(51,51,51,1.0);font-size:12.8px;font-family:'Roboto Medium',sans-serif">madkins/flash</text><path  d="M 537 81
L 547 70
L 653 70
L 653 92
L 547 92
L 537 81
Z" style="stroke-width:1;stroke:rgba(63,127,255,1.0);fill:rgba(255,255,255,1.0)"/><text x="552" y="87" style="stroke-width:0;stroke:none;fill:rgba(51,51,51,1.0);font-size:12.8px;font-family:'Roboto Medium',sans-serif">madkins/replattr</text><path  d="M 454 135
L 464 124
L 566 124
L 566 146
L 464 146
L 454 135
Z" style="stroke-width:1;stroke:rgba(63,127,255,1.0);fill:rgba(255,255,255,1.0)"/><text x="469" y="141" style="stroke-width:0;stroke:none;fill:rgba(51,51,51,1.0);font-size:12.8px;font-family:'Roboto Medium',sans-serif">madkins/sloggy</text><path  d="M 627 38
L 637 27
L 740 27
L 740 49
L 637 49
L 627 38
Z" style="stroke-width:1;stroke:rgba(63,127,255,1.0);fill:rgba(255,255,255,1.0)"/><text x="642" y="44" style="stroke-width:0;stroke:none;fill:rgba(51,51,51,1.0);font-size:12.8px;font-family:'Roboto Medium',sans-serif">phsym/zeroslog</text><path  d="M 631 16
L 641 5
L 719 5
L 719 27
L 641 27
L 631 16
Z" style="stroke-width:1;stroke:rgba(63,127,255,1.0);fill:rgba(255,255,255,1.0)"/><text x="646" y="22" style="stroke-width:0;stroke:none;fill:rgba(51,51,51,1.0);font-size:12.8px;font-family:'Roboto Medium',sans-serif">phuslu/slog</text><path  d="M 83 350
L 93 339
L 201 339
L 201 361
L 93 361
L 83 350
Z" style="stroke-width:1;stroke:rgba(63,127,255,1.0);fill:rgba(255,255,255,1.0)"/><text x="98" y="356" style="stroke-width:0;stroke:none;fill:rgba(51,51,51,1.0);font-size:12.8px;font-family:'Roboto Medium',sans-serif">samber/slog-zap</text><path  d="M 588 60
L 598 49
L 716 49
L 716 71
L 598 71
L 588 60
Z" style="stroke-width:1;stroke:rgba(63,127,255,1.0);fill:rgba(255,255,255,1.0)"/><text x="603" y="66" style="stroke-width:0;stroke:none;fill:rgba(51,51,51,1.0);font-size:12.8px;font-family:'Roboto Medium',sans-serif">slog/JSONHandler</text><path  d="M 606 117
L 616 106
L 747 106
L 747 128
L 616 128
L 606 117
Z" style="stroke-width:1;stroke:rgba(63,127,255,1.0);fill:rgba(255,255,255,1.0)"/><text x="621" y="123" style="stroke-width:0;stroke:none;fill:rgba(51,51,51,1.0);font-size:12.8px;font-family:'Roboto Medium',sans-serif">chanchal/zaphandler</text><path  d="M 587 35
L 597 24
L 711 24
L 711 46
L 597 46
L 587 35
Z" style="stroke-width:1;stroke:rgba(63,127,255,1.0);fill:rgba(255,255,255,1.0)"/><text x="602" y="41" style="stroke-width:0;stroke:none;fill:rgba(51,51,51,1.0);font-size:12.8px;font-family:'Roboto Medium',sans-serif">svcrunner/jsonlog</text><path  d="M 106 328
L 116 317
L 246 317
L 246 339
L 116 339
L 106 328
Z" style="stroke-width:1;stroke:rgba(63,127,255,1.0);fill:rgba(255,255,255,1.0)"/><text x="121" y="334" style="stroke-width:0;stroke:none;fill:rgba(51,51,51,1.0);font-size:12.8px;font-family:'Roboto Medium',sans-serif">samber/slog-zerolog</text></svg>