<svg xmlns="http://www.w3.org/2000/svg" xmlns:xlink="http://www.w3.org/1999/xlink" width="800" height="600">\n<path  d="M 0 0
L 800 0
L 800 600
L 0 600
L 0 0" style="stroke-width:0;stroke:rgba(255,255,255,1.0);fill:rgba(255,255,255,1.0)"/><path  d="M 12 11
L 580 11
L 580 551
L 12 551
L 12 11" style="stroke-width:0;stroke:rgba(255,255,255,1.0);fill:rgba(255,255,255,1.0)"/><path  d="M 12 551
L 580 551" style="stroke-width:1;stroke:rgba(51,51,51,1.0);fill:none"/><path  d="M 12 551
L 12 556" style="stroke-width:1;stroke:rgba(51,51,51,1.0);fill:none"/><text x="5" y="573" style="stroke-width:0;stroke:none;fill:rgba(51,51,51,1.0);font-size:12.8px;font-family:'Roboto Medium',sans-serif">25</text><path  d="M 50 551
L 50 556" style="stroke-width:1;stroke:rgba(51,51,51,1.0);fill:none"/><text x="43" y="573" style="stroke-width:0;stroke:none;fill:rgba(51,51,51,1.0);font-size:12.8px;font-family:'Roboto Medium',sans-serif">30</text><path  d="M 126 551
L 126 556" style="stroke-width:1;stroke:rgba(51,51,51,1.0);fill:none"/><text x="119" y="573" style="stroke-width:0;stroke:none;fill:rgba(51,51,51,1.0);font-size:12.8px;font-family:'Roboto Medium',sans-serif">40</text><path  d="M 202 551
L 202 556" style="stroke-width:1;stroke:rgba(51,51,51,1.0);fill:none"/><text x="195" y="573" style="stroke-width:0;stroke:none;fill:rgba(51,51,51,1.0);font-size:12.8px;font-family:'Roboto Medium',sans-serif">50</text><path  d="M 278 551
L 278 556" style="stroke-width:1;stroke:rgba(51,51,51,1.0);fill:none"/><text x="271" y="573" style="stroke-width:0;stroke:none;fill:rgba(51,51,51,1.0);font-size:12.8px;font-family:'Roboto Medium',sans-serif">60</text><path  d="M 353 551
L 353 556" style="stroke-width:1;stroke:rgba(51,51,51,1.0);fill:none"/><text x="346" y="573" style="stroke-width:0;stroke:none;fill:rgba(51,51,51,1.0);font-size:12.8px;font-family:'Roboto Medium',sans-serif">70</text><path  d="M 429 551
L 429 556" style="stroke-width:1;stroke:rgba(51,51,51,1.0);fill:none"/><text x="422" y="573" style="stroke-width:0;stroke:none;fill:rgba(51,51,51,1.0);font-size:12.8px;font-family:'Roboto Medium',sans-serif">80</text><path  d="M 505 551
L 505 556" style="stroke-width:1;stroke:rgba(51,51,51,1.0);fill:none"/><text x="498" y="573" style="stroke-width:0;stroke:none;fill:rgba(51,51,51,1.0);font-size:12.8px;font-family:'Roboto Medium',sans-serif">90</text><path  d="M 580 551
L 580 556" style="stroke-width:1;stroke:rgba(51,51,51,1.0);fill:none"/><text x="569" y="573" style="stroke-width:0;stroke:none;fill:rgba(51,51,51,1.0);font-size:12.8px;font-family:'Roboto Medium',sans-serif">100</text><text x="280" y="595" style="stroke-width:0;stroke:none;fill:rgba(51,51,51,1.0);font-size:12.8px;font-family:'Roboto Medium',sans-serif">Large</text><path  d="M 50 551
L 50 11" style="stroke-width:0;stroke:none;fill:none"/><path  d="M 126 551
L 126 11" style="stroke-width:0;stroke:none;fill:none"/><path  d="M 202 551
L 202 11" style="stroke-width:0;stroke:none;fill:none"/><path  d="M 278 551
L 278 11" style="stroke-width:0;stroke:none;fill:none"/><path  d="M 353 551
L 353 11" style="stroke-width:0;stroke:none;fill:none"/><path  d="M 429 551
L 429 11" style="stroke-width:0;stroke:none;fill:none"/><path  d="M 505 551
L 505 11" style="stroke-width:0;stroke:none;fill:none"/><path  d="M 581 551
L 581 11" style="stroke-width:1;stroke:rgba(51,51,51,1.0);fill:none"/><path  d="M 581 551
L 586 551" style="stroke-width:1;stroke:rgba(51,51,51,1.0);fill:none"/><text x="591" y="557" style="stroke-width:0;stroke:none;fill:rgba(51,51,51,1.0);font-size:12.8px;font-family:'Roboto Medium',sans-serif">25</text><path  d="M 581 515
L 586 515" style="stroke-width:1;stroke:rgba(51,51,51,1.0);fill:none"/><text x="591" y="521" style="stroke-width:0;stroke:none;fill:rgba(51,51,51,1.0);font-size:12.8px;font-family:'Roboto Medium',sans-serif">30</text><path  d="M 581 443
L 586 443" style="stroke-width:1;stroke:rgba(51,51,51,1.0);fill:none"/><text x="591" y="449" style="stroke-width:0;stroke:none;fill:rgba(51,51,51,1.0);font-size:12.8px;font-family:'Roboto Medium',sans-serif">40</text><path  d="M 581 371
L 586 371" style="stroke-width:1;stroke:rgba(51,51,51,1.0);fill:none"/><text x="591" y="377" style="stroke-width:0;stroke:none;fill:rgba(51,51,51,1.0);font-size:12.8px;font-family:'Roboto Medium',sans-serif">50</text><path  d="M 581 299
L 586 299" style="stroke-width:1;stroke:rgba(51,51,51,1.0);fill:none"/><text x="591" y="305" style="stroke-width:0;stroke:none;fill:rgba(51,51,51,1.0);font-size:12.8px;font-family:'Roboto Medium',sans-serif">60</text><path  d="M 581 227
L 586 227" style="stroke-width:1;stroke:rgba(51,51,51,1.0);fill:none"/><text x="591" y="233" style="stroke-width:0;stroke:none;fill:rgba(51,51,51,1.0);font-size:12.8px;font-family:'Roboto Medium',sans-serif">70</text><path  d="M 581 155
L 586 155" style="stroke-width:1;stroke:rgba(51,51,51,1.0);fill:none"/><text x="591" y="161" style="stroke-width:0;stroke:none;fill:rgba(51,51,51,1.0);font-size:12.8px;font-family:'Roboto Medium',sans-serif">80</text><path  d="M 581 83
L 586 83" style="stroke-width:1;stroke:rgba(51,51,51,1.0);fill:none"/><text x="591" y="89" style="stroke-width:0;stroke:none;fill:rgba(51,51,51,1.0);font-size:12.8px;font-family:'Roboto Medium',sans-serif">90</text><path  d="M 581 11
L 586 11" style="stroke-width:1;stroke:rgba(51,51,51,1.0);fill:none"/><text x="591" y="17" style="stroke-width:0;stroke:none;fill:rgba(51,51,51,1.0);font-size:12.8px;font-family:'Roboto Medium',sans-serif">100</text><text x="623" y="265" style="stroke-width:0;stroke:none;fill:rgba(51,51,51,1.0);font-size:12.8px;font-family:'Roboto Medium',sans-serif" transform="rotate(90.00,623,265)">Small</text><path  d="M 12 731
L 580 731" style="stroke-width:0;stroke:none;fill:none"/><path  d="M 12 515
L 580 515" style="stroke-width:0;stroke:none;fill:none"/><path  d="M 12 443
L 580 443" style="stroke-width:0;stroke:none;fill:none"/><path  d="M 12 371
L 580 371" style="stroke-width:0;stroke:none;fill:none"/><path  d="M 12 299
L 580 299" style="stroke-width:0;stroke:none;fill:none"/><path  d="M 12 227
L 580 227" style="stroke-width:0;stroke:none;fill:none"/><path  d="M 12 155
L 580 155" style="stroke-width:0;stroke:none;fill:none"/><path  d="M 12 83
L 580 83" style="stroke-width:0;stroke:none;fill:none"/><path  d="M 11 551
L 11 11" style="stroke-width:1;stroke:rgba(51,51,51,1.0);fill:none"/><path  d="M 11 -9223372036854775257
L 6 -9223372036854775257" style="stroke-width:1;stroke:rgba(51,51,51,1.0);fill:none"/><text x="-25" y="-9223372036854775251" style="stroke-width:0;stroke:none;fill:rgba(51,51,51,1.0);font-size:12.8px;font-family:'Roboto Medium',sans-serif">0.00</text><path  d="M 11 -9223372036854775257
L 6 -9223372036854775257" style="stroke-width:1;stroke:rgba(51,51,51,1.0);fill:none"/><text x="-25" y="-9223372036854775251" style="stroke-width:0;stroke:none;fill:rgba(51,51,51,1.0);font-size:12.8px;font-family:'Roboto Medium',sans-serif">0.00</text><path  d="M 11 -9223372036854775257
L 6 -9223372036854775257" style="stroke-width:1;stroke:rgba(51,51,51,1.0);fill:none"/><text x="-25" y="-9223372036854775251" style="stroke-width:0;stroke:none;fill:rgba(51,51,51,1.0);font-size:12.8px;font-family:'Roboto Medium',sans-serif">0.00</text><path  d="M 11 -9223372036854775257
L 6 -9223372036854775257" style="stroke-width:1;stroke:rgba(51,51,51,1.0);fill:none"/><text x="-25" y="-9223372036854775251" style="stroke-width:0;stroke:none;fill:rgba(51,51,51,1.0);font-size:12.8px;font-family:'Roboto Medium',sans-serif">0.00</text><path  d="M 11 -9223372036854775257
L 6 -9223372036854775257" style="stroke-width:1;stroke:rgba(51,51,51,1.0);fill:none"/><text x="-25" y="-9223372036854775251" style="stroke-width:0;stroke:none;fill:rgba(51,51,51,1.0);font-size:12.8px;font-family:'Roboto Medium',sans-serif">0.00</text><path  d="M 11 -9223372036854775257
L 6 -9223372036854775257" style="stroke-width:1;stroke:rgba(51,51,51,1.0);fill:none"/><text x="-25" y="-9223372036854775251" style="stroke-width:0;stroke:none;fill:rgba(51,51,51,1.0);font-size:12.8px;font-family:'Roboto Medium',sans-serif">0.00</text><path  d="M 11 -9223372036854775257
L 6 -9223372036854775257" style="stroke-width:1;stroke:rgba(51,51,51,1.0);fill:none"/><text x="-25" y="-9223372036854775251" style="stroke-width:0;stroke:none;fill:rgba(51,51,51,1.0);font-size:12.8px;font-family:'Roboto Medium',sans-serif">0.00</text><path  d="M 11 -9223372036854775257
L 6 -9223372036854775257" style="stroke-width:1;stroke:rgba(51,51,51,1.0);fill:none"/><text x="-25" y="-9223372036854775251" style="stroke-width:0;stroke:none;fill:rgba(51,51,51,1.0);font-size:12.8px;font-family:'Roboto Medium',sans-serif">0.00</text><path  d="M 11 -9223372036854775257
L 6 -9223372036854775257" style="stroke-width:1;stroke:rgba(51,51,51,1.0);fill:none"/><text x="-25" y="-9223372036854775251" style="stroke-width:0;stroke:none;fill:rgba(51,51,51,1.0);font-size:12.8px;font-family:'Roboto Medium',sans-serif">0.00</text><path  d="M 11 -9223372036854775257
L 6 -9223372036854775257" style="stroke-width:1;stroke:rgba(51,51,51,1.0);fill:none"/><text x="-25" y="-9223372036854775251" style="stroke-width:0;stroke:none;fill:rgba(51,51,51,1.0);font-size:12.8px;font-family:'Roboto Medium',sans-serif">0.00</text><path  d="M 11 -9223372036854775257
L 6 -9223372036854775257" style="stroke-width:1;stroke:rgba(51,51,51,1.0);fill:none"/><text x="-25" y="-9223372036854775251" style="stroke-width:0;stroke:none;fill:rgba(51,51,51,1.0);font-size:12.8px;font-family:'Roboto Medium',sans-serif">0.00</text><path  d="M 11 -9223372036854775257
L 6 -9223372036854775257" style="stroke-width:1;stroke:rgba(51,51,51,1.0);fill:none"/><text x="-25" y="-9223372036854775251" style="stroke-width:0;stroke:none;fill:rgba(51,51,51,1.0);font-size:12.8px;font-family:'Roboto Medium',sans-serif">0.00</text><path  d="M 11 -9223372036854775257
L 6 -9223372036854775257" style="stroke-width:1;stroke:rgba(51,51,51,1.0);fill:none"/><text x="-25" y="-9223372036854775251" style="stroke-width:0;stroke:none;fill:rgba(51,51,51,1.0);font-size:12.8px;font-family:'Roboto Medium',sans-serif">0.00</text><path  d="M 11 -9223372036854775257
L 6 -9223372036854775257" style="stroke-width:1;stroke:rgba(51,51,51,1.0);fill:none"/><text x="-25" y="-9223372036854775251" style="stroke-width:0;stroke:none;fill:rgba(51,51,51,1.0);font-size:12.8px;font-family:'Roboto Medium',sans-serif">0.00</text><path  d="M 11 -9223372036854775257
L 6 -9223372036854775257" style="stroke-width:1;stroke:rgba(51,51,51,1.0);fill:none"/><text x="-25" y="-9223372036854775251" style="stroke-width:0;stroke:none;fill:rgba(51,51,51,1.0);font-size:12.8px;font-family:'Roboto Medium',sans-serif">0.00</text><path  d="M 12 -9223372036854775257
L 580 -9223372036854775257" style="stroke-width:0;stroke:none;fill:none"/><path  d="M 12 -9223372036854775257
L 580 -9223372036854775257" style="stroke-width:0;stroke:none;fill:none"/><path  d="M 12 -9223372036854775257
L 580 -9223372036854775257" style="stroke-width:0;stroke:none;fill:none"/><path  d="M 12 -9223372036854775257
L 580 -9223372036854775257" style="stroke-width:0;stroke:none;fill:none"/><path  d="M 12 -9223372036854775257
L 580 -9223372036854775257" style="stroke-width:0;stroke:none;fill:none"/><path  d="M 12 -9223372036854775257
L 580 -9223372036854775257" style="stroke-width:0;stroke:none;fill:none"/><path  d="M 12 -9223372036854775257
L 580 -9223372036854775257" style="stroke-width:0;stroke:none;fill:none"/><path  d="M 12 -9223372036854775257
L 580 -9223372036854775257" style="stroke-width:0;stroke:none;fill:none"/><path  d="M 12 -9223372036854775257
L 580 -9223372036854775257" style="stroke-width:0;stroke:none;fill:none"/><path  d="M 12 -9223372036854775257
L 580 -9223372036854775257" style="stroke-width:0;stroke:none;fill:none"/><path  d="M 12 -9223372036854775257
L 580 -9223372036854775257" style="stroke-width:0;stroke:none;fill:none"/><path  d="M 12 -9223372036854775257
L 580 -9223372036854775257" style="stroke-width:0;stroke:none;fill:none"/><path  d="M 12 -9223372036854775257
L 580 -9223372036854775257" style="stroke-width:0;stroke:none;fill:none"/><path  d="M 12 -9223372036854775257
L 580 -9223372036854775257" style="stroke-width:0;stroke:none;fill:none"/><path  d="M 580 11
L 637 31" style="stroke-width:1;stroke:rgba(63,63,63,0.2);fill:none"/><path  d="M 560 16
L 637 61" style="stroke-width:1;stroke:rgba(63,63,63,0.2);fill:none"/><path  d="M 577 20
L 637 91" style="stroke-width:1;stroke:rgba(63,63,63,0.2);fill:none"/><path  d="M 556 33
L 637 121" style="stroke-width:1;stroke:rgba(63,63,63,0.2);fill:none"/><path  d="M 542 40
L 637 150" style="stroke-width:1;stroke:rgba(63,63,63,0.2);fill:none"/><path  d="M 560 102
L 637 180" style="stroke-width:1;stroke:rgba(63,63,63,0.2);fill:none"/><path  d="M 433 120
L 637 210" style="stroke-width:1;stroke:rgba(63,63,63,0.2);fill:none"/><path  d="M 233 322
L 637 240" style="stroke-width:1;stroke:rgba(63,63,63,0.2);fill:none"/><path  d="M 198 327
L 637 270" style="stroke-width:1;stroke:rgba(63,63,63,0.2);fill:none"/><path  d="M 202 11
L 202 371
L 580 371" style="stroke-width:1;stroke:rgba(255,0,127,0.2);fill:none"/><path  d="M 391 11
L 391 191
L 580 191" style="stroke-width:1;stroke:rgba(255,0,127,0.2);fill:none"/><path  d="M 505 371
L 515 360
L 549 360
L 549 382
L 515 382
L 505 371
Z" style="stroke-width:1;stroke:rgba(255,0,127,0.2);fill:rgba(255,255,255,1.0)"/><text x="520" y="377" style="stroke-width:0;stroke:none;fill:rgba(51,51,51,1.0);font-size:12.8px;font-family:'Roboto Medium',sans-serif">Half</text><path  d="M 505 191
L 515 180
L 568 180
L 568 202
L 515 202
L 505 191
Z" style="stroke-width:1;stroke:rgba(255,0,127,0.2);fill:rgba(255,255,255,1.0)"/><text x="520" y="197" style="stroke-width:0;stroke:none;fill:rgba(51,51,51,1.0);font-size:12.8px;font-family:'Roboto Medium',sans-serif">Quarter</text><circle cx="580" cy="11" r="5" style="stroke-width:1;stroke:rgba(0,255,0,1.0);fill:rgba(0,255,0,1.0)"/><path  d="" style="stroke-width:1;stroke:rgba(0,255,0,1.0);fill:rgba(0,255,0,1.0)"/><circle cx="560" cy="16" r="5" style="stroke-width:1;stroke:rgba(6,248,0,1.0);fill:rgba(6,248,0,1.0)"/><path  d="" style="stroke-width:1;stroke:rgba(6,248,0,1.0);fill:rgba(6,248,0,1.0)"/><circle cx="577" cy="20" r="5" style="stroke-width:1;stroke:rgba(3,251,0,1.0);fill:rgba(3,251,0,1.0)"/><path  d="" style="stroke-width:1;stroke:rgba(3,251,0,1.0);fill:rgba(3,251,0,1.0)"/><circle cx="556" cy="33" r="5" style="stroke-width:1;stroke:rgba(10,244,0,1.0);fill:rgba(10,244,0,1.0)"/><path  d="" style="stroke-width:1;stroke:rgba(10,244,0,1.0);fill:rgba(10,244,0,1.0)"/><circle cx="542" cy="40" r="5" style="stroke-width:1;stroke:rgba(15,239,0,1.0);fill:rgba(15,239,0,1.0)"/><path  d="" style="stroke-width:1;stroke:rgba(15,239,0,1.0);fill:rgba(15,239,0,1.0)"/><circle cx="560" cy="102" r="5" style="stroke-width:1;stroke:rgba(25,223,0,1.0);fill:rgba(25,223,0,1.0)"/><path  d="" style="stroke-width:1;stroke:rgba(25,223,0,1.0);fill:rgba(25,223,0,1.0)"/><circle cx="433" cy="120" r="5" style="stroke-width:1;stroke:rgba(58,195,0,1.0);fill:rgba(58,195,0,1.0)"/><path  d="" style="stroke-width:1;stroke:rgba(58,195,0,1.0);fill:rgba(58,195,0,1.0)"/><circle cx="233" cy="322" r="5" style="stroke-width:1;stroke:rgba(151,103,0,1.0);fill:rgba(151,103,0,1.0)"/><path  d="" style="stroke-width:1;stroke:rgba(151,103,0,1.0);fill:rgba(151,103,0,1.0)"/><circle cx="198" cy="327" r="5" style="stroke-width:1;stroke:rgba(160,93,0,1.0);fill:rgba(160,93,0,1.0)"/><path  d="" style="stroke-width:1;stroke:rgba(160,93,0,1.0);fill:rgba(160,93,0,1.0)"/><path  d="M 637 31
L 647 20
L 725 20
L 725 42
L 647 42
L 637 31
Z" style="stroke-width:1;stroke:rgba(63,127,255,1.0);fill:rgba(255,255,255,1.0)"/><text x="652" y="37" style="stroke-width:0;stroke:none;fill:rgba(51,51,51,1.0);font-size:12.8px;font-family:'Roboto Medium',sans-serif">phuslu/slog</text><path  d="M 637 61
L 647 50
L 761 50
L 761 72
L 647 72
L 637 61
Z" style="stroke-width:1;stroke:rgba(63,127,255,1.0);fill:rgba(255,255,255,1.0)"/><text x="652" y="67" style="stroke-width:0;stroke:none;fill:rgba(51,51,51,1.0);font-size:12.8px;font-family:'Roboto Medium',sans-serif">svcrunner/jsonlog</text><path  d="M 637 91
L 647 80
L 750 80
L 750 102
L 647 102
L 637 91
Z" style="stroke-width:1;stroke:rgba(63,127,255,1.0);fill:rgba(255,255,255,1.0)"/><text x="652" y="97" style="stroke-width:0;stroke:none;fill:rgba(51,51,51,1.0);font-size:12.8px;font-family:'Roboto Medium',sans-serif">phsym/zeroslog</text><path  d="M 637 121
L 647 110
L 765 110
L 765 132
L 647 132
L 637 121
Z" style="stroke-width:1;stroke:rgba(63,127,255,1.0);fill:rgba(255,255,255,1.0)"/><text x="652" y="127" style="stroke-width:0;stroke:none;fill:rgba(51,51,51,1.0);font-size:12.8px;font-family:'Roboto Medium',sans-serif">slog/JSONHandler</text><path  d="M 637 150
L 647 139
L 740 139
L 740 161
L 647 161
L 637 150
Z" style="stroke-width:1;stroke:rgba(63,127,255,1.0);fill:rgba(255,255,255,1.0)"/><text x="652" y="156" style="stroke-width:0;stroke:none;fill:rgba(51,51,51,1.0);font-size:12.8px;font-family:'Roboto Medium',sans-serif">madkins/flash</text><path  d="M 637 180
L 647 169
L 778 169
L 778 191
L 647 191
L 637 180
Z" style="stroke-width:1;stroke:rgba(63,127,255,1.0);fill:rgba(255,255,255,1.0)"/><text x="652" y="186" style="stroke-width:0;stroke:none;fill:rgba(51,51,51,1.0);font-size:12.8px;font-family:'Roboto Medium',sans-serif">chanchal/zaphandler</text><path  d="M 637 210
L 647 199
L 749 199
L 749 221
L 647 221
L 637 210
Z" style="stroke-width:1;stroke:rgba(63,127,255,1.0);fill:rgba(255,255,255,1.0)"/><text x="652" y="216" style="stroke-width:0;stroke:none;fill:rgba(51,51,51,1.0);font-size:12.8px;font-family:'Roboto Medium',sans-serif">madkins/sloggy</text><path  d="M 637 240
L 647 229
L 777 229
L 777 251
L 647 251
L 637 240
Z" style="stroke-width:1;stroke:rgba(63,127,255,1.0);fill:rgba(255,255,255,1.0)"/><text x="652" y="246" style="stroke-width:0;stroke:none;fill:rgba(51,51,51,1.0);font-size:12.8px;font-family:'Roboto Medium',sans-serif">samber/slog-zerolog</text><path  d="M 637 270
L 647 259
L 755 259
L 755 281
L 647 281
L 637 270
Z" style="stroke-width:1;stroke:rgba(63,127,255,1.0);fill:rgba(255,255,255,1.0)"/><text x="652" y="276" style="stroke-width:0;stroke:none;fill:rgba(51,51,51,1.0);font-size:12.8px;font-family:'Roboto Medium',sans-serif">samber/slog-zap</text></svg>