<svg xmlns="http://www.w3.org/2000/svg" xmlns:xlink="http://www.w3.org/1999/xlink" width="800" height="600">\n<path  d="M 0 0
L 800 0
L 800 600
L 0 600
L 0 0" style="stroke-width:0;stroke:rgba(255,255,255,1.0);fill:rgba(255,255,255,1.0)"/><path  d="M 9 11
L 579 11
L 579 551
L 9 551
L 9 11" style="stroke-width:0;stroke:rgba(255,255,255,1.0);fill:rgba(255,255,255,1.0)"/><path  d="M 9 551
L 579 551" style="stroke-width:1;stroke:rgba(51,51,51,1.0);fill:none"/><path  d="M 9 551
L 9 556" style="stroke-width:1;stroke:rgba(51,51,51,1.0);fill:none"/><text x="5" y="573" style="stroke-width:0;stroke:none;fill:rgba(51,51,51,1.0);font-size:12.8px;font-family:'Roboto Medium',sans-serif">0</text><path  d="M 66 551
L 66 556" style="stroke-width:1;stroke:rgba(51,51,51,1.0);fill:none"/><text x="59" y="573" style="stroke-width:0;stroke:none;fill:rgba(51,51,51,1.0);font-size:12.8px;font-family:'Roboto Medium',sans-serif">10</text><path  d="M 123 551
L 123 556" style="stroke-width:1;stroke:rgba(51,51,51,1.0);fill:none"/><text x="116" y="573" style="stroke-width:0;stroke:none;fill:rgba(51,51,51,1.0);font-size:12.8px;font-family:'Roboto Medium',sans-serif">20</text><path  d="M 180 551
L 180 556" style="stroke-width:1;stroke:rgba(51,51,51,1.0);fill:none"/><text x="173" y="573" style="stroke-width:0;stroke:none;fill:rgba(51,51,51,1.0);font-size:12.8px;font-family:'Roboto Medium',sans-serif">30</text><path  d="M 237 551
L 237 556" style="stroke-width:1;stroke:rgba(51,51,51,1.0);fill:none"/><text x="230" y="573" style="stroke-width:0;stroke:none;fill:rgba(51,51,51,1.0);font-size:12.8px;font-family:'Roboto Medium',sans-serif">40</text><path  d="M 294 551
L 294 556" style="stroke-width:1;stroke:rgba(51,51,51,1.0);fill:none"/><text x="287" y="573" style="stroke-width:0;stroke:none;fill:rgba(51,51,51,1.0);font-size:12.8px;font-family:'Roboto Medium',sans-serif">50</text><path  d="M 351 551
L 351 556" style="stroke-width:1;stroke:rgba(51,51,51,1.0);fill:none"/><text x="344" y="573" style="stroke-width:0;stroke:none;fill:rgba(51,51,51,1.0);font-size:12.8px;font-family:'Roboto Medium',sans-serif">60</text><path  d="M 408 551
L 408 556" style="stroke-width:1;stroke:rgba(51,51,51,1.0);fill:none"/><text x="401" y="573" style="stroke-width:0;stroke:none;fill:rgba(51,51,51,1.0);font-size:12.8px;font-family:'Roboto Medium',sans-serif">70</text><path  d="M 465 551
L 465 556" style="stroke-width:1;stroke:rgba(51,51,51,1.0);fill:none"/><text x="458" y="573" style="stroke-width:0;stroke:none;fill:rgba(51,51,51,1.0);font-size:12.8px;font-family:'Roboto Medium',sans-serif">80</text><path  d="M 522 551
L 522 556" style="stroke-width:1;stroke:rgba(51,51,51,1.0);fill:none"/><text x="515" y="573" style="stroke-width:0;stroke:none;fill:rgba(51,51,51,1.0);font-size:12.8px;font-family:'Roboto Medium',sans-serif">90</text><path  d="M 579 551
L 579 556" style="stroke-width:1;stroke:rgba(51,51,51,1.0);fill:none"/><text x="568" y="573" style="stroke-width:0;stroke:none;fill:rgba(51,51,51,1.0);font-size:12.8px;font-family:'Roboto Medium',sans-serif">100</text><text x="278" y="595" style="stroke-width:0;stroke:none;fill:rgba(51,51,51,1.0);font-size:12.8px;font-family:'Roboto Medium',sans-serif">Large</text><path  d="M 66 551
L 66 11" style="stroke-width:0;stroke:none;fill:none"/><path  d="M 123 551
L 123 11" style="stroke-width:0;stroke:none;fill:none"/><path  d="M 180 551
L 180 11" style="stroke-width:0;stroke:none;fill:none"/><path  d="M 237 551
L 237 11" style="stroke-width:0;stroke:none;fill:none"/><path  d="M 294 551
L 294 11" style="stroke-width:0;stroke:none;fill:none"/><path  d="M 351 551
L 351 11" style="stroke-width:0;stroke:none;fill:none"/><path  d="M 408 551
L 408 11" style="stroke-width:0;stroke:none;fill:none"/><path  d="M 465 551
L 465 11" style="stroke-width:0;stroke:none;fill:none"/><path  d="M 522 551
L 522 11" style="stroke-width:0;stroke:none;fill:none"/><path  d="M 580 551
L 580 11" style="stroke-width:1;stroke:rgba(51,51,51,1.0);fill:none"/><path  d="M 580 551
L 585 551" style="stroke-width:1;stroke:rgba(51,51,51,1.0);fill:none"/><text x="590" y="557" style="stroke-width:0;stroke:none;fill:rgba(51,51,51,1.0);font-size:12.8px;font-family:'Roboto Medium',sans-serif">0</text><path  d="M 580 497
L 585 497" style="stroke-width:1;stroke:rgba(51,51,51,1.0);fill:none"/><text x="590" y="503" style="stroke-width:0;stroke:none;fill:rgba(51,51,51,1.0);font-size:12.8px;font-family:'Roboto Medium',sans-serif">10</text><path  d="M 580 443
L 585 443" style="stroke-width:1;stroke:rgba(51,51,51,1.0);fill:none"/><text x="590" y="449" style="stroke-width:0;stroke:none;fill:rgba(51,51,51,1.0);font-size:12.8px;font-family:'Roboto Medium',sans-serif">20</text><path  d="M 580 389
L 585 389" style="stroke-width:1;stroke:rgba(51,51,51,1.0);fill:none"/><text x="590" y="395" style="stroke-width:0;stroke:none;fill:rgba(51,51,51,1.0);font-size:12.8px;font-family:'Roboto Medium',sans-serif">30</text><path  d="M 580 335
L 585 335" style="stroke-width:1;stroke:rgba(51,51,51,1.0);fill:none"/><text x="590" y="341" style="stroke-width:0;stroke:none;fill:rgba(51,51,51,1.0);font-size:12.8px;font-family:'Roboto Medium',sans-serif">40</text><path  d="M 580 281
L 585 281" style="stroke-width:1;stroke:rgba(51,51,51,1.0);fill:none"/><text x="590" y="287" style="stroke-width:0;stroke:none;fill:rgba(51,51,51,1.0);font-size:12.8px;font-family:'Roboto Medium',sans-serif">50</text><path  d="M 580 227
L 585 227" style="stroke-width:1;stroke:rgba(51,51,51,1.0);fill:none"/><text x="590" y="233" style="stroke-width:0;stroke:none;fill:rgba(51,51,51,1.0);font-size:12.8px;font-family:'Roboto Medium',sans-serif">60</text><path  d="M 580 173
L 585 173" style="stroke-width:1;stroke:rgba(51,51,51,1.0);fill:none"/><text x="590" y="179" style="stroke-width:0;stroke:none;fill:rgba(51,51,51,1.0);font-size:12.8px;font-family:'Roboto Medium',sans-serif">70</text><path  d="M 580 119
L 585 119" style="stroke-width:1;stroke:rgba(51,51,51,1.0);fill:none"/><text x="590" y="125" style="stroke-width:0;stroke:none;fill:rgba(51,51,51,1.0);font-size:12.8px;font-family:'Roboto Medium',sans-serif">80</text><path  d="M 580 65
L 585 65" style="stroke-width:1;stroke:rgba(51,51,51,1.0);fill:none"/><text x="590" y="71" style="stroke-width:0;stroke:none;fill:rgba(51,51,51,1.0);font-size:12.8px;font-family:'Roboto Medium',sans-serif">90</text><path  d="M 580 11
L 585 11" style="stroke-width:1;stroke:rgba(51,51,51,1.0);fill:none"/><text x="590" y="17" style="stroke-width:0;stroke:none;fill:rgba(51,51,51,1.0);font-size:12.8px;font-family:'Roboto Medium',sans-serif">100</text><text x="622" y="265" style="stroke-width:0;stroke:none;fill:rgba(51,51,51,1.0);font-size:12.8px;font-family:'Roboto Medium',sans-serif" transform="rotate(90.00,622,265)">Small</text><path  d="M 9 551
L 579 551" style="stroke-width:0;stroke:none;fill:none"/><path  d="M 9 497
L 579 497" style="stroke-width:0;stroke:none;fill:none"/><path  d="M 9 443
L 579 443" style="stroke-width:0;stroke:none;fill:none"/><path  d="M 9 389
L 579 389" style="stroke-width:0;stroke:none;fill:none"/><path  d="M 9 335
L 579 335" style="stroke-width:0;stroke:none;fill:none"/><path  d="M 9 281
L 579 281" style="stroke-width:0;stroke:none;fill:none"/><path  d="M 9 227
L 579 227" style="stroke-width:0;stroke:none;fill:none"/><path  d="M 9 173
L 579 173" style="stroke-width:0;stroke:none;fill:none"/><path  d="M 9 119
L 579 119" style="stroke-width:0;stroke:none;fill:none"/><path  d="M 9 65
L 579 65" style="stroke-width:0;stroke:none;fill:none"/><path  d="M 8 551
L 8 11" style="stroke-width:1;stroke:rgba(51,51,51,1.0);fill:none"/><path  d="M 8 -9223372036854775257
L 3 -9223372036854775257" style="stroke-width:1;stroke:rgba(51,51,51,1.0);fill:none"/><text x="-28" y="-9223372036854775251" style="stroke-width:0;stroke:none;fill:rgba(51,51,51,1.0);font-size:12.8px;font-family:'Roboto Medium',sans-serif">0.00</text><path  d="M 8 -9223372036854775257
L 3 -9223372036854775257" style="stroke-width:1;stroke:rgba(51,51,51,1.0);fill:none"/><text x="-28" y="-9223372036854775251" style="stroke-width:0;stroke:none;fill:rgba(51,51,51,1.0);font-size:12.8px;font-family:'Roboto Medium',sans-serif">0.00</text><path  d="M 8 -9223372036854775257
L 3 -9223372036854775257" style="stroke-width:1;stroke:rgba(51,51,51,1.0);fill:none"/><text x="-28" y="-9223372036854775251" style="stroke-width:0;stroke:none;fill:rgba(51,51,51,1.0);font-size:12.8px;font-family:'Roboto Medium',sans-serif">0.00</text><path  d="M 8 -9223372036854775257
L 3 -9223372036854775257" style="stroke-width:1;stroke:rgba(51,51,51,1.0);fill:none"/><text x="-28" y="-9223372036854775251" style="stroke-width:0;stroke:none;fill:rgba(51,51,51,1.0);font-size:12.8px;font-family:'Roboto Medium',sans-serif">0.00</text><path  d="M 8 -9223372036854775257
L 3 -9223372036854775257" style="stroke-width:1;stroke:rgba(51,51,51,1.0);fill:none"/><text x="-28" y="-9223372036854775251" style="stroke-width:0;stroke:none;fill:rgba(51,51,51,1.0);font-size:12.8px;font-family:'Roboto Medium',sans-serif">0.00</text><path  d="M 8 -9223372036854775257
L 3 -9223372036854775257" style="stroke-width:1;stroke:rgba(51,51,51,1.0);fill:none"/><text x="-28" y="-9223372036854775251" style="stroke-width:0;stroke:none;fill:rgba(51,51,51,1.0);font-size:12.8px;font-family:'Roboto Medium',sans-serif">0.00</text><path  d="M 8 -9223372036854775257
L 3 -9223372036854775257" style="stroke-width:1;stroke:rgba(51,51,51,1.0);fill:none"/><text x="-28" y="-9223372036854775251" style="stroke-width:0;stroke:none;fill:rgba(51,51,51,1.0);font-size:12.8px;font-family:'Roboto Medium',sans-serif">0.00</text><path  d="M 8 -9223372036854775257
L 3 -9223372036854775257" style="stroke-width:1;stroke:rgba(51,51,51,1.0);fill:none"/><text x="-28" y="-9223372036854775251" style="stroke-width:0;stroke:none;fill:rgba(51,51,51,1.0);font-size:12.8px;font-family:'Roboto Medium',sans-serif">0.00</text><path  d="M 8 -9223372036854775257
L 3 -9223372036854775257" style="stroke-width:1;stroke:rgba(51,51,51,1.0);fill:none"/><text x="-28" y="-9223372036854775251" style="stroke-width:0;stroke:none;fill:rgba(51,51,51,1.0);font-size:12.8px;font-family:'Roboto Medium',sans-serif">0.00</text><path  d="M 8 -9223372036854775257
L 3 -9223372036854775257" style="stroke-width:1;stroke:rgba(51,51,51,1.0);fill:none"/><text x="-28" y="-9223372036854775251" style="stroke-width:0;stroke:none;fill:rgba(51,51,51,1.0);font-size:12.8px;font-family:'Roboto Medium',sans-serif">0.00</text><path  d="M 8 -9223372036854775257
L 3 -9223372036854775257" style="stroke-width:1;stroke:rgba(51,51,51,1.0);fill:none"/><text x="-28" y="-9223372036854775251" style="stroke-width:0;stroke:none;fill:rgba(51,51,51,1.0);font-size:12.8px;font-family:'Roboto Medium',sans-serif">0.00</text><path  d="M 8 -9223372036854775257
L 3 -9223372036854775257" style="stroke-width:1;stroke:rgba(51,51,51,1.0);fill:none"/><text x="-28" y="-9223372036854775251" style="stroke-width:0;stroke:none;fill:rgba(51,51,51,1.0);font-size:12.8px;font-family:'Roboto Medium',sans-serif">0.00</text><path  d="M 8 -9223372036854775257
L 3 -9223372036854775257" style="stroke-width:1;stroke:rgba(51,51,51,1.0);fill:none"/><text x="-28" y="-9223372036854775251" style="stroke-width:0;stroke:none;fill:rgba(51,51,51,1.0);font-size:12.8px;font-family:'Roboto Medium',sans-serif">0.00</text><path  d="M 8 -9223372036854775257
L 3 -9223372036854775257" style="stroke-width:1;stroke:rgba(51,51,51,1.0);fill:none"/><text x="-28" y="-9223372036854775251" style="stroke-width:0;stroke:none;fill:rgba(51,51,51,1.0);font-size:12.8px;font-family:'Roboto Medium',sans-serif">0.00</text><path  d="M 8 -9223372036854775257
L 3 -9223372036854775257" style="stroke-width:1;stroke:rgba(51,51,51,1.0);fill:none"/><text x="-28" y="-9223372036854775251" style="stroke-width:0;stroke:none;fill:rgba(51,51,51,1.0);font-size:12.8px;font-family:'Roboto Medium',sans-serif">0.00</text><path  d="M 9 -9223372036854775257
L 579 -9223372036854775257" style="stroke-width:0;stroke:none;fill:none"/><path  d="M 9 -9223372036854775257
L 579 -9223372036854775257" style="stroke-width:0;stroke:none;fill:none"/><path  d="M 9 -9223372036854775257
L 579 -9223372036854775257" style="stroke-width:0;stroke:none;fill:none"/><path  d="M 9 -9223372036854775257
L 579 -9223372036854775257" style="stroke-width:0;stroke:none;fill:none"/><path  d="M 9 -9223372036854775257
L 579 -9223372036854775257" style="stroke-width:0;stroke:none;fill:none"/><path  d="M 9 -9223372036854775257
L 579 -9223372036854775257" style="stroke-width:0;stroke:none;fill:none"/><path  d="M 9 -9223372036854775257
L 579 -9223372036854775257" style="stroke-width:0;stroke:none;fill:none"/><path  d="M 9 -9223372036854775257
L 579 -9223372036854775257" style="stroke-width:0;stroke:none;fill:none"/><path  d="M 9 -9223372036854775257
L 579 -9223372036854775257" style="stroke-width:0;stroke:none;fill:none"/><path  d="M 9 -9223372036854775257
L 579 -9223372036854775257" style="stroke-width:0;stroke:none;fill:none"/><path  d="M 9 -9223372036854775257
L 579 -9223372036854775257" style="stroke-width:0;stroke:none;fill:none"/><path  d="M 9 -9223372036854775257
L 579 -9223372036854775257" style="stroke-width:0;stroke:none;fill:none"/><path  d="M 9 -9223372036854775257
L 579 -9223372036854775257" style="stroke-width:0;stroke:none;fill:none"/><path  d="M 9 -9223372036854775257
L 579 -9223372036854775257" style="stroke-width:0;stroke:none;fill:none"/><path  d="M 579 11
L 636 103" style="stroke-width:1;stroke:rgba(63,63,63,0.2);fill:none"/><path  d="M 563 15
L 636 133" style="stroke-width:1;stroke:rgba(63,63,63,0.2);fill:none"/><path  d="M 577 18
L 636 162" style="stroke-width:1;stroke:rgba(63,63,63,0.2);fill:none"/><path  d="M 568 27
L 636 192" style="stroke-width:1;stroke:rgba(63,63,63,0.2);fill:none"/><path  d="M 553 34
L 636 222" style="stroke-width:1;stroke:rgba(63,63,63,0.2);fill:none"/><path  d="M 565 79
L 636 251" style="stroke-width:1;stroke:rgba(63,63,63,0.2);fill:none"/><path  d="M 470 93
L 636 281" style="stroke-width:1;stroke:rgba(63,63,63,0.2);fill:none"/><path  d="M 329 246
L 636 311" style="stroke-width:1;stroke:rgba(63,63,63,0.2);fill:none"/><path  d="M 309 249
L 636 340" style="stroke-width:1;stroke:rgba(63,63,63,0.2);fill:none"/><path  d="M 98 498
L 636 370" style="stroke-width:1;stroke:rgba(63,63,63,0.2);fill:none"/><path  d="M 152 11
L 152 416
L 579 416" style="stroke-width:1;stroke:rgba(255,0,127,0.2);fill:none"/><path  d="M 294 11
L 294 281
L 579 281" style="stroke-width:1;stroke:rgba(255,0,127,0.2);fill:none"/><path  d="M 437 11
L 437 146
L 579 146" style="stroke-width:1;stroke:rgba(255,0,127,0.2);fill:none"/><path  d="M 494 416
L 504 405
L 534 405
L 534 427
L 504 427
L 494 416
Z" style="stroke-width:1;stroke:rgba(255,0,127,0.2);fill:rgba(255,255,255,1.0)"/><text x="509" y="422" style="stroke-width:0;stroke:none;fill:rgba(51,51,51,1.0);font-size:12.8px;font-family:'Roboto Medium',sans-serif">3/4</text><path  d="M 494 281
L 504 270
L 538 270
L 538 292
L 504 292
L 494 281
Z" style="stroke-width:1;stroke:rgba(255,0,127,0.2);fill:rgba(255,255,255,1.0)"/><text x="509" y="287" style="stroke-width:0;stroke:none;fill:rgba(51,51,51,1.0);font-size:12.8px;font-family:'Roboto Medium',sans-serif">Half</text><path  d="M 494 146
L 504 135
L 557 135
L 557 157
L 504 157
L 494 146
Z" style="stroke-width:1;stroke:rgba(255,0,127,0.2);fill:rgba(255,255,255,1.0)"/><text x="509" y="152" style="stroke-width:0;stroke:none;fill:rgba(51,51,51,1.0);font-size:12.8px;font-family:'Roboto Medium',sans-serif">Quarter</text><circle cx="579" cy="11" r="5" style="stroke-width:1;stroke:rgba(0,255,0,1.0);fill:rgba(0,255,0,1.0)"/><path  d="" style="stroke-width:1;stroke:rgba(0,255,0,1.0);fill:rgba(0,255,0,1.0)"/><circle cx="563" cy="15" r="5" style="stroke-width:1;stroke:rgba(4,249,0,1.0);fill:rgba(4,249,0,1.0)"/><path  d="" style="stroke-width:1;stroke:rgba(4,249,0,1.0);fill:rgba(4,249,0,1.0)"/><circle cx="577" cy="18" r="5" style="stroke-width:1;stroke:rgba(2,252,0,1.0);fill:rgba(2,252,0,1.0)"/><path  d="" style="stroke-width:1;stroke:rgba(2,252,0,1.0);fill:rgba(2,252,0,1.0)"/><circle cx="568" cy="27" r="5" style="stroke-width:1;stroke:rgba(6,248,0,1.0);fill:rgba(6,248,0,1.0)"/><path  d="" style="stroke-width:1;stroke:rgba(6,248,0,1.0);fill:rgba(6,248,0,1.0)"/><circle cx="553" cy="34" r="5" style="stroke-width:1;stroke:rgba(11,243,0,1.0);fill:rgba(11,243,0,1.0)"/><path  d="" style="stroke-width:1;stroke:rgba(11,243,0,1.0);fill:rgba(11,243,0,1.0)"/><circle cx="565" cy="79" r="5" style="stroke-width:1;stroke:rgba(19,231,0,1.0);fill:rgba(19,231,0,1.0)"/><path  d="" style="stroke-width:1;stroke:rgba(19,231,0,1.0);fill:rgba(19,231,0,1.0)"/><circle cx="470" cy="93" r="5" style="stroke-width:1;stroke:rgba(43,210,0,1.0);fill:rgba(43,210,0,1.0)"/><path  d="" style="stroke-width:1;stroke:rgba(43,210,0,1.0);fill:rgba(43,210,0,1.0)"/><circle cx="329" cy="246" r="5" style="stroke-width:1;stroke:rgba(111,143,0,1.0);fill:rgba(111,143,0,1.0)"/><path  d="" style="stroke-width:1;stroke:rgba(111,143,0,1.0);fill:rgba(111,143,0,1.0)"/><circle cx="309" cy="249" r="5" style="stroke-width:1;stroke:rgba(116,138,0,1.0);fill:rgba(116,138,0,1.0)"/><path  d="" style="stroke-width:1;stroke:rgba(116,138,0,1.0);fill:rgba(116,138,0,1.0)"/><circle cx="98" cy="498" r="5" style="stroke-width:1;stroke:rgba(221,32,0,1.0);fill:rgba(221,32,0,1.0)"/><path  d="" style="stroke-width:1;stroke:rgba(221,32,0,1.0);fill:rgba(221,32,0,1.0)"/><path  d="M 636 103
L 646 92
L 724 92
L 724 114
L 646 114
L 636 103
Z" style="stroke-width:1;stroke:rgba(63,127,255,1.0);fill:rgba(255,255,255,1.0)"/><text x="651" y="109" style="stroke-width:0;stroke:none;fill:rgba(51,51,51,1.0);font-size:12.8px;font-family:'Roboto Medium',sans-serif">phuslu/slog</text><path  d="M 636 133
L 646 122
L 760 122
L 760 144
L 646 144
L 636 133
Z" style="stroke-width:1;stroke:rgba(63,127,255,1.0);fill:rgba(255,255,255,1.0)"/><text x="651" y="139" style="stroke-width:0;stroke:none;fill:rgba(51,51,51,1.0);font-size:12.8px;font-family:'Roboto Medium',sans-serif">svcrunner/jsonlog</text><path  d="M 636 162
L 646 151
L 749 151
L 749 173
L 646 173
L 636 162
Z" style="stroke-width:1;stroke:rgba(63,127,255,1.0);fill:rgba(255,255,255,1.0)"/><text x="651" y="168" style="stroke-width:0;stroke:none;fill:rgba(51,51,51,1.0);font-size:12.8px;font-family:'Roboto Medium',sans-serif">phsym/zeroslog</text><path  d="M 636 192
L 646 181
L 764 181
L 764 203
L 646 203
L 636 192
Z" style="stroke-width:1;stroke:rgba(63,127,255,1.0);fill:rgba(255,255,255,1.0)"/><text x="651" y="198" style="stroke-width:0;stroke:none;fill:rgba(51,51,51,1.0);font-size:12.8px;font-family:'Roboto Medium',sans-serif">slog/JSONHandler</text><path  d="M 636 222
L 646 211
L 739 211
L 739 233
L 646 233
L 636 222
Z" style="stroke-width:1;stroke:rgba(63,127,255,1.0);fill:rgba(255,255,255,1.0)"/><text x="651" y="228" style="stroke-width:0;stroke:none;fill:rgba(51,51,51,1.0);font-size:12.8px;font-family:'Roboto Medium',sans-serif">madkins/flash</text><path  d="M 636 251
L 646 240
L 777 240
L 777 262
L 646 262
L 636 251
Z" style="stroke-width:1;stroke:rgba(63,127,255,1.0);fill:rgba(255,255,255,1.0)"/><text x="651" y="257" style="stroke-width:0;stroke:none;fill:rgba(51,51,51,1.0);font-size:12.8px;font-family:'Roboto Medium',sans-serif">chanchal/zaphandler</text><path  d="M 636 281
L 646 270
L 748 270
L 748 292
L 646 292
L 636 281
Z" style="stroke-width:1;stroke:rgba(63,127,255,1.0);fill:rgba(255,255,255,1.0)"/><text x="651" y="287" style="stroke-width:0;stroke:none;fill:rgba(51,51,51,1.0);font-size:12.8px;font-family:'Roboto Medium',sans-serif">madkins/sloggy</text><path  d="M 636 311
L 646 300
L 776 300
L 776 322
L 646 322
L 636 311
Z" style="stroke-width:1;stroke:rgba(63,127,255,1.0);fill:rgba(255,255,255,1.0)"/><text x="651" y="317" style="stroke-width:0;stroke:none;fill:rgba(51,51,51,1.0);font-size:12.8px;font-family:'Roboto Medium',sans-serif">samber/slog-zerolog</text><path  d="M 636 340
L 646 329
L 754 329
L 754 351
L 646 351
L 636 340
Z" style="stroke-width:1;stroke:rgba(63,127,255,1.0);fill:rgba(255,255,255,1.0)"/><text x="651" y="346" style="stroke-width:0;stroke:none;fill:rgba(51,51,51,1.0);font-size:12.8px;font-family:'Roboto Medium',sans-serif">samber/slog-zap</text><path  d="M 636 370
L 646 359
L 769 359
L 769 381
L 646 381
L 636 370
Z" style="stroke-width:1;stroke:rgba(63,127,255,1.0);fill:rgba(255,255,255,1.0)"/><text x="651" y="376" style="stroke-width:0;stroke:none;fill:rgba(51,51,51,1.0);font-size:12.8px;font-family:'Roboto Medium',sans-serif">samber/slog-logrus</text></svg>