<svg xmlns="http://www.w3.org/2000/svg" xmlns:xlink="http://www.w3.org/1999/xlink" width="750" height="600">\n<path  d="M 0 0
L 750 0
L 750 600
L 0 600
L 0 0" style="stroke-width:0;stroke:rgba(255,255,255,1.0);fill:rgba(255,255,255,1.0)"/><path  d="M 9 17
L 624 17
L 624 551
L 9 551
L 9 17" style="stroke-width:0;stroke:rgba(255,255,255,1.0);fill:rgba(255,255,255,1.0)"/><path  d="M 9 551
L 624 551" style="stroke-width:1;stroke:rgba(51,51,51,1.0);fill:none"/><path  d="M 9 551
L 9 556" style="stroke-width:1;stroke:rgba(51,51,51,1.0);fill:none"/><text x="5" y="573" style="stroke-width:0;stroke:none;fill:rgba(51,51,51,1.0);font-size:12.8px;font-family:'Roboto Medium',sans-serif">0</text><path  d="M 71 551
L 71 556" style="stroke-width:1;stroke:rgba(51,51,51,1.0);fill:none"/><text x="64" y="573" style="stroke-width:0;stroke:none;fill:rgba(51,51,51,1.0);font-size:12.8px;font-family:'Roboto Medium',sans-serif">10</text><path  d="M 132 551
L 132 556" style="stroke-width:1;stroke:rgba(51,51,51,1.0);fill:none"/><text x="125" y="573" style="stroke-width:0;stroke:none;fill:rgba(51,51,51,1.0);font-size:12.8px;font-family:'Roboto Medium',sans-serif">20</text><path  d="M 194 551
L 194 556" style="stroke-width:1;stroke:rgba(51,51,51,1.0);fill:none"/><text x="187" y="573" style="stroke-width:0;stroke:none;fill:rgba(51,51,51,1.0);font-size:12.8px;font-family:'Roboto Medium',sans-serif">30</text><path  d="M 255 551
L 255 556" style="stroke-width:1;stroke:rgba(51,51,51,1.0);fill:none"/><text x="248" y="573" style="stroke-width:0;stroke:none;fill:rgba(51,51,51,1.0);font-size:12.8px;font-family:'Roboto Medium',sans-serif">40</text><path  d="M 317 551
L 317 556" style="stroke-width:1;stroke:rgba(51,51,51,1.0);fill:none"/><text x="310" y="573" style="stroke-width:0;stroke:none;fill:rgba(51,51,51,1.0);font-size:12.8px;font-family:'Roboto Medium',sans-serif">50</text><path  d="M 378 551
L 378 556" style="stroke-width:1;stroke:rgba(51,51,51,1.0);fill:none"/><text x="371" y="573" style="stroke-width:0;stroke:none;fill:rgba(51,51,51,1.0);font-size:12.8px;font-family:'Roboto Medium',sans-serif">60</text><path  d="M 440 551
L 440 556" style="stroke-width:1;stroke:rgba(51,51,51,1.0);fill:none"/><text x="433" y="573" style="stroke-width:0;stroke:none;fill:rgba(51,51,51,1.0);font-size:12.8px;font-family:'Roboto Medium',sans-serif">70</text><path  d="M 501 551
L 501 556" style="stroke-width:1;stroke:rgba(51,51,51,1.0);fill:none"/><text x="494" y="573" style="stroke-width:0;stroke:none;fill:rgba(51,51,51,1.0);font-size:12.8px;font-family:'Roboto Medium',sans-serif">80</text><path  d="M 563 551
L 563 556" style="stroke-width:1;stroke:rgba(51,51,51,1.0);fill:none"/><text x="556" y="573" style="stroke-width:0;stroke:none;fill:rgba(51,51,51,1.0);font-size:12.8px;font-family:'Roboto Medium',sans-serif">90</text><path  d="M 624 551
L 624 556" style="stroke-width:1;stroke:rgba(51,51,51,1.0);fill:none"/><text x="613" y="573" style="stroke-width:0;stroke:none;fill:rgba(51,51,51,1.0);font-size:12.8px;font-family:'Roboto Medium',sans-serif">100</text><text x="301" y="595" style="stroke-width:0;stroke:none;fill:rgba(51,51,51,1.0);font-size:12.8px;font-family:'Roboto Medium',sans-serif">Large</text><path  d="M 71 551
L 71 17" style="stroke-width:0;stroke:none;fill:none"/><path  d="M 132 551
L 132 17" style="stroke-width:0;stroke:none;fill:none"/><path  d="M 194 551
L 194 17" style="stroke-width:0;stroke:none;fill:none"/><path  d="M 255 551
L 255 17" style="stroke-width:0;stroke:none;fill:none"/><path  d="M 317 551
L 317 17" style="stroke-width:0;stroke:none;fill:none"/><path  d="M 378 551
L 378 17" style="stroke-width:0;stroke:none;fill:none"/><path  d="M 440 551
L 440 17" style="stroke-width:0;stroke:none;fill:none"/><path  d="M 501 551
L 501 17" style="stroke-width:0;stroke:none;fill:none"/><path  d="M 563 551
L 563 17" style="stroke-width:0;stroke:none;fill:none"/><path  d="M 625 551
L 625 17" style="stroke-width:1;stroke:rgba(51,51,51,1.0);fill:none"/><path  d="M 625 551
L 630 551" style="stroke-width:1;stroke:rgba(51,51,51,1.0);fill:none"/><text x="635" y="557" style="stroke-width:0;stroke:none;fill:rgba(51,51,51,1.0);font-size:12.8px;font-family:'Roboto Medium',sans-serif">0</text><path  d="M 625 497
L 630 497" style="stroke-width:1;stroke:rgba(51,51,51,1.0);fill:none"/><text x="635" y="503" style="stroke-width:0;stroke:none;fill:rgba(51,51,51,1.0);font-size:12.8px;font-family:'Roboto Medium',sans-serif">10</text><path  d="M 625 444
L 630 444" style="stroke-width:1;stroke:rgba(51,51,51,1.0);fill:none"/><text x="635" y="450" style="stroke-width:0;stroke:none;fill:rgba(51,51,51,1.0);font-size:12.8px;font-family:'Roboto Medium',sans-serif">20</text><path  d="M 625 390
L 630 390" style="stroke-width:1;stroke:rgba(51,51,51,1.0);fill:none"/><text x="635" y="396" style="stroke-width:0;stroke:none;fill:rgba(51,51,51,1.0);font-size:12.8px;font-family:'Roboto Medium',sans-serif">30</text><path  d="M 625 337
L 630 337" style="stroke-width:1;stroke:rgba(51,51,51,1.0);fill:none"/><text x="635" y="343" style="stroke-width:0;stroke:none;fill:rgba(51,51,51,1.0);font-size:12.8px;font-family:'Roboto Medium',sans-serif">40</text><path  d="M 625 284
L 630 284" style="stroke-width:1;stroke:rgba(51,51,51,1.0);fill:none"/><text x="635" y="290" style="stroke-width:0;stroke:none;fill:rgba(51,51,51,1.0);font-size:12.8px;font-family:'Roboto Medium',sans-serif">50</text><path  d="M 625 230
L 630 230" style="stroke-width:1;stroke:rgba(51,51,51,1.0);fill:none"/><text x="635" y="236" style="stroke-width:0;stroke:none;fill:rgba(51,51,51,1.0);font-size:12.8px;font-family:'Roboto Medium',sans-serif">60</text><path  d="M 625 177
L 630 177" style="stroke-width:1;stroke:rgba(51,51,51,1.0);fill:none"/><text x="635" y="183" style="stroke-width:0;stroke:none;fill:rgba(51,51,51,1.0);font-size:12.8px;font-family:'Roboto Medium',sans-serif">70</text><path  d="M 625 123
L 630 123" style="stroke-width:1;stroke:rgba(51,51,51,1.0);fill:none"/><text x="635" y="129" style="stroke-width:0;stroke:none;fill:rgba(51,51,51,1.0);font-size:12.8px;font-family:'Roboto Medium',sans-serif">80</text><path  d="M 625 70
L 630 70" style="stroke-width:1;stroke:rgba(51,51,51,1.0);fill:none"/><text x="635" y="76" style="stroke-width:0;stroke:none;fill:rgba(51,51,51,1.0);font-size:12.8px;font-family:'Roboto Medium',sans-serif">90</text><path  d="M 625 17
L 630 17" style="stroke-width:1;stroke:rgba(51,51,51,1.0);fill:none"/><text x="635" y="23" style="stroke-width:0;stroke:none;fill:rgba(51,51,51,1.0);font-size:12.8px;font-family:'Roboto Medium',sans-serif">100</text><text x="667" y="268" style="stroke-width:0;stroke:none;fill:rgba(51,51,51,1.0);font-size:12.8px;font-family:'Roboto Medium',sans-serif" transform="rotate(90.00,667,268)">Small</text><path  d="M 9 551
L 624 551" style="stroke-width:0;stroke:none;fill:none"/><path  d="M 9 497
L 624 497" style="stroke-width:0;stroke:none;fill:none"/><path  d="M 9 444
L 624 444" style="stroke-width:0;stroke:none;fill:none"/><path  d="M 9 390
L 624 390" style="stroke-width:0;stroke:none;fill:none"/><path  d="M 9 337
L 624 337" style="stroke-width:0;stroke:none;fill:none"/><path  d="M 9 284
L 624 284" style="stroke-width:0;stroke:none;fill:none"/><path  d="M 9 230
L 624 230" style="stroke-width:0;stroke:none;fill:none"/><path  d="M 9 177
L 624 177" style="stroke-width:0;stroke:none;fill:none"/><path  d="M 9 123
L 624 123" style="stroke-width:0;stroke:none;fill:none"/><path  d="M 9 70
L 624 70" style="stroke-width:0;stroke:none;fill:none"/><path  d="M 8 551
L 8 17" style="stroke-width:1;stroke:rgba(51,51,51,1.0);fill:none"/><path  d="M 8 -9223372036854775257
L 3 -9223372036854775257" style="stroke-width:1;stroke:rgba(51,51,51,1.0);fill:none"/><text x="-28" y="-9223372036854775251" style="stroke-width:0;stroke:none;fill:rgba(51,51,51,1.0);font-size:12.8px;font-family:'Roboto Medium',sans-serif">0.00</text><path  d="M 8 -9223372036854775257
L 3 -9223372036854775257" style="stroke-width:1;stroke:rgba(51,51,51,1.0);fill:none"/><text x="-28" y="-9223372036854775251" style="stroke-width:0;stroke:none;fill:rgba(51,51,51,1.0);font-size:12.8px;font-family:'Roboto Medium',sans-serif">0.00</text><path  d="M 8 -9223372036854775257
L 3 -9223372036854775257" style="stroke-width:1;stroke:rgba(51,51,51,1.0);fill:none"/><text x="-28" y="-9223372036854775251" style="stroke-width:0;stroke:none;fill:rgba(51,51,51,1.0);font-size:12.8px;font-family:'Roboto Medium',sans-serif">0.00</text><path  d="M 8 -9223372036854775257
L 3 -9223372036854775257" style="stroke-width:1;stroke:rgba(51,51,51,1.0);fill:none"/><text x="-28" y="-9223372036854775251" style="stroke-width:0;stroke:none;fill:rgba(51,51,51,1.0);font-size:12.8px;font-family:'Roboto Medium',sans-serif">0.00</text><path  d="M 8 -9223372036854775257
L 3 -9223372036854775257" style="stroke-width:1;stroke:rgba(51,51,51,1.0);fill:none"/><text x="-28" y="-9223372036854775251" style="stroke-width:0;stroke:none;fill:rgba(51,51,51,1.0);font-size:12.8px;font-family:'Roboto Medium',sans-serif">0.00</text><path  d="M 8 -9223372036854775257
L 3 -9223372036854775257" style="stroke-width:1;stroke:rgba(51,51,51,1.0);fill:none"/><text x="-28" y="-9223372036854775251" style="stroke-width:0;stroke:none;fill:rgba(51,51,51,1.0);font-size:12.8px;font-family:'Roboto Medium',sans-serif">0.00</text><path  d="M 8 -9223372036854775257
L 3 -9223372036854775257" style="stroke-width:1;stroke:rgba(51,51,51,1.0);fill:none"/><text x="-28" y="-9223372036854775251" style="stroke-width:0;stroke:none;fill:rgba(51,51,51,1.0);font-size:12.8px;font-family:'Roboto Medium',sans-serif">0.00</text><path  d="M 8 -9223372036854775257
L 3 -9223372036854775257" style="stroke-width:1;stroke:rgba(51,51,51,1.0);fill:none"/><text x="-28" y="-9223372036854775251" style="stroke-width:0;stroke:none;fill:rgba(51,51,51,1.0);font-size:12.8px;font-family:'Roboto Medium',sans-serif">0.00</text><path  d="M 8 -9223372036854775257
L 3 -9223372036854775257" style="stroke-width:1;stroke:rgba(51,51,51,1.0);fill:none"/><text x="-28" y="-9223372036854775251" style="stroke-width:0;stroke:none;fill:rgba(51,51,51,1.0);font-size:12.8px;font-family:'Roboto Medium',sans-serif">0.00</text><path  d="M 8 -9223372036854775257
L 3 -9223372036854775257" style="stroke-width:1;stroke:rgba(51,51,51,1.0);fill:none"/><text x="-28" y="-9223372036854775251" style="stroke-width:0;stroke:none;fill:rgba(51,51,51,1.0);font-size:12.8px;font-family:'Roboto Medium',sans-serif">0.00</text><path  d="M 8 -9223372036854775257
L 3 -9223372036854775257" style="stroke-width:1;stroke:rgba(51,51,51,1.0);fill:none"/><text x="-28" y="-9223372036854775251" style="stroke-width:0;stroke:none;fill:rgba(51,51,51,1.0);font-size:12.8px;font-family:'Roboto Medium',sans-serif">0.00</text><path  d="M 8 -9223372036854775257
L 3 -9223372036854775257" style="stroke-width:1;stroke:rgba(51,51,51,1.0);fill:none"/><text x="-28" y="-9223372036854775251" style="stroke-width:0;stroke:none;fill:rgba(51,51,51,1.0);font-size:12.8px;font-family:'Roboto Medium',sans-serif">0.00</text><path  d="M 8 -9223372036854775257
L 3 -9223372036854775257" style="stroke-width:1;stroke:rgba(51,51,51,1.0);fill:none"/><text x="-28" y="-9223372036854775251" style="stroke-width:0;stroke:none;fill:rgba(51,51,51,1.0);font-size:12.8px;font-family:'Roboto Medium',sans-serif">0.00</text><path  d="M 8 -9223372036854775257
L 3 -9223372036854775257" style="stroke-width:1;stroke:rgba(51,51,51,1.0);fill:none"/><text x="-28" y="-9223372036854775251" style="stroke-width:0;stroke:none;fill:rgba(51,51,51,1.0);font-size:12.8px;font-family:'Roboto Medium',sans-serif">0.00</text><path  d="M 8 -9223372036854775257
L 3 -9223372036854775257" style="stroke-width:1;stroke:rgba(51,51,51,1.0);fill:none"/><text x="-28" y="-9223372036854775251" style="stroke-width:0;stroke:none;fill:rgba(51,51,51,1.0);font-size:12.8px;font-family:'Roboto Medium',sans-serif">0.00</text><path  d="M 9 -9223372036854775257
L 624 -9223372036854775257" style="stroke-width:0;stroke:none;fill:none"/><path  d="M 9 -9223372036854775257
L 624 -9223372036854775257" style="stroke-width:0;stroke:none;fill:none"/><path  d="M 9 -9223372036854775257
L 624 -9223372036854775257" style="stroke-width:0;stroke:none;fill:none"/><path  d="M 9 -9223372036854775257
L 624 -9223372036854775257" style="stroke-width:0;stroke:none;fill:none"/><path  d="M 9 -9223372036854775257
L 624 -9223372036854775257" style="stroke-width:0;stroke:none;fill:none"/><path  d="M 9 -9223372036854775257
L 624 -9223372036854775257" style="stroke-width:0;stroke:none;fill:none"/><path  d="M 9 -9223372036854775257
L 624 -9223372036854775257" style="stroke-width:0;stroke:none;fill:none"/><path  d="M 9 -9223372036854775257
L 624 -9223372036854775257" style="stroke-width:0;stroke:none;fill:none"/><path  d="M 9 -9223372036854775257
L 624 -9223372036854775257" style="stroke-width:0;stroke:none;fill:none"/><path  d="M 9 -9223372036854775257
L 624 -9223372036854775257" style="stroke-width:0;stroke:none;fill:none"/><path  d="M 9 -9223372036854775257
L 624 -9223372036854775257" style="stroke-width:0;stroke:none;fill:none"/><path  d="M 9 -9223372036854775257
L 624 -9223372036854775257" style="stroke-width:0;stroke:none;fill:none"/><path  d="M 9 -9223372036854775257
L 624 -9223372036854775257" style="stroke-width:0;stroke:none;fill:none"/><path  d="M 9 -9223372036854775257
L 624 -9223372036854775257" style="stroke-width:0;stroke:none;fill:none"/><path  d="M 163 17
L 163 417
L 624 417" style="stroke-width:1;stroke:rgba(255,0,127,0.2);fill:none"/><path  d="M 317 17
L 317 284
L 624 284" style="stroke-width:1;stroke:rgba(255,0,127,0.2);fill:none"/><path  d="M 471 17
L 471 150
L 624 150" style="stroke-width:1;stroke:rgba(255,0,127,0.2);fill:none"/><path  d="M 532 417
L 542 406
L 572 406
L 572 428
L 542 428
L 532 417
Z" style="stroke-width:1;stroke:rgba(255,0,127,0.2);fill:rgba(255,255,255,1.0)"/><text x="547" y="423" style="stroke-width:0;stroke:none;fill:rgba(51,51,51,1.0);font-size:12.8px;font-family:'Roboto Medium',sans-serif">3/4</text><path  d="M 532 284
L 542 273
L 576 273
L 576 295
L 542 295
L 532 284
Z" style="stroke-width:1;stroke:rgba(255,0,127,0.2);fill:rgba(255,255,255,1.0)"/><text x="547" y="290" style="stroke-width:0;stroke:none;fill:rgba(51,51,51,1.0);font-size:12.8px;font-family:'Roboto Medium',sans-serif">Half</text><path  d="M 532 150
L 542 139
L 595 139
L 595 161
L 542 161
L 532 150
Z" style="stroke-width:1;stroke:rgba(255,0,127,0.2);fill:rgba(255,255,255,1.0)"/><text x="547" y="156" style="stroke-width:0;stroke:none;fill:rgba(51,51,51,1.0);font-size:12.8px;font-family:'Roboto Medium',sans-serif">Quarter</text><circle cx="592" cy="34" r="5" style="stroke-width:1;stroke:rgba(10,243,0,1.0);fill:rgba(10,243,0,1.0)"/><path  d="" style="stroke-width:1;stroke:rgba(10,243,0,1.0);fill:rgba(10,243,0,1.0)"/><circle cx="591" cy="21" r="5" style="stroke-width:1;stroke:rgba(7,245,0,1.0);fill:rgba(7,245,0,1.0)"/><path  d="" style="stroke-width:1;stroke:rgba(7,245,0,1.0);fill:rgba(7,245,0,1.0)"/><circle cx="575" cy="40" r="5" style="stroke-width:1;stroke:rgba(15,238,0,1.0);fill:rgba(15,238,0,1.0)"/><path  d="" style="stroke-width:1;stroke:rgba(15,238,0,1.0);fill:rgba(15,238,0,1.0)"/><circle cx="621" cy="24" r="5" style="stroke-width:1;stroke:rgba(2,252,0,1.0);fill:rgba(2,252,0,1.0)"/><path  d="" style="stroke-width:1;stroke:rgba(2,252,0,1.0);fill:rgba(2,252,0,1.0)"/><circle cx="624" cy="17" r="5" style="stroke-width:1;stroke:rgba(0,254,0,1.0);fill:rgba(0,254,0,1.0)"/><path  d="" style="stroke-width:1;stroke:rgba(0,254,0,1.0);fill:rgba(0,254,0,1.0)"/><circle cx="233" cy="252" r="5" style="stroke-width:1;stroke:rgba(134,115,0,1.0);fill:rgba(134,115,0,1.0)"/><path  d="" style="stroke-width:1;stroke:rgba(134,115,0,1.0);fill:rgba(134,115,0,1.0)"/><circle cx="216" cy="257" r="5" style="stroke-width:1;stroke:rgba(138,110,0,1.0);fill:rgba(138,110,0,1.0)"/><path  d="" style="stroke-width:1;stroke:rgba(138,110,0,1.0);fill:rgba(138,110,0,1.0)"/><circle cx="605" cy="84" r="5" style="stroke-width:1;stroke:rgba(19,231,0,1.0);fill:rgba(19,231,0,1.0)"/><path  d="" style="stroke-width:1;stroke:rgba(19,231,0,1.0);fill:rgba(19,231,0,1.0)"/><circle cx="554" cy="56" r="5" style="stroke-width:1;stroke:rgba(24,230,0,1.0);fill:rgba(24,230,0,1.0)"/><path  d="" style="stroke-width:1;stroke:rgba(24,230,0,1.0);fill:rgba(24,230,0,1.0)"/><circle cx="492" cy="99" r="5" style="stroke-width:1;stroke:rgba(46,207,0,1.0);fill:rgba(46,207,0,1.0)"/><path  d="" style="stroke-width:1;stroke:rgba(46,207,0,1.0);fill:rgba(46,207,0,1.0)"/><circle cx="17" cy="499" r="5" style="stroke-width:1;stroke:rgba(237,13,0,1.0);fill:rgba(237,13,0,1.0)"/><path  d="" style="stroke-width:1;stroke:rgba(237,13,0,1.0);fill:rgba(237,13,0,1.0)"/><path  d="M 592 40
L 602 29
L 720 29
L 720 51
L 602 51
L 592 40
Z" style="stroke-width:1;stroke:rgba(63,127,255,1.0);fill:rgba(255,255,255,1.0)"/><text x="607" y="46" style="stroke-width:0;stroke:none;fill:rgba(51,51,51,1.0);font-size:12.8px;font-family:'Roboto Medium',sans-serif">slog/JSONHandler</text><path  d="M 591 16
L 601 5
L 715 5
L 715 27
L 601 27
L 591 16
Z" style="stroke-width:1;stroke:rgba(63,127,255,1.0);fill:rgba(255,255,255,1.0)"/><text x="606" y="22" style="stroke-width:0;stroke:none;fill:rgba(51,51,51,1.0);font-size:12.8px;font-family:'Roboto Medium',sans-serif">svcrunner/jsonlog</text><path  d="M 575 40
L 585 29
L 678 29
L 678 51
L 585 51
L 575 40
Z" style="stroke-width:1;stroke:rgba(63,127,255,1.0);fill:rgba(255,255,255,1.0)"/><text x="590" y="46" style="stroke-width:0;stroke:none;fill:rgba(51,51,51,1.0);font-size:12.8px;font-family:'Roboto Medium',sans-serif">madkins/flash</text><path  d="M 621 16
L 631 5
L 734 5
L 734 27
L 631 27
L 621 16
Z" style="stroke-width:1;stroke:rgba(63,127,255,1.0);fill:rgba(255,255,255,1.0)"/><text x="636" y="22" style="stroke-width:0;stroke:none;fill:rgba(51,51,51,1.0);font-size:12.8px;font-family:'Roboto Medium',sans-serif">phsym/zeroslog</text><path  d="M 624 17
L 634 6
L 712 6
L 712 28
L 634 28
L 624 17
Z" style="stroke-width:1;stroke:rgba(63,127,255,1.0);fill:rgba(255,255,255,1.0)"/><text x="639" y="23" style="stroke-width:0;stroke:none;fill:rgba(51,51,51,1.0);font-size:12.8px;font-family:'Roboto Medium',sans-serif">phuslu/slog</text><path  d="M 233 243
L 243 232
L 373 232
L 373 254
L 243 254
L 233 243
Z" style="stroke-width:1;stroke:rgba(63,127,255,1.0);fill:rgba(255,255,255,1.0)"/><text x="248" y="249" style="stroke-width:0;stroke:none;fill:rgba(51,51,51,1.0);font-size:12.8px;font-family:'Roboto Medium',sans-serif">samber/slog-zerolog</text><path  d="M 216 267
L 226 256
L 334 256
L 334 278
L 226 278
L 216 267
Z" style="stroke-width:1;stroke:rgba(63,127,255,1.0);fill:rgba(255,255,255,1.0)"/><text x="231" y="273" style="stroke-width:0;stroke:none;fill:rgba(51,51,51,1.0);font-size:12.8px;font-family:'Roboto Medium',sans-serif">samber/slog-zap</text><path  d="M 605 79
L 615 68
L 746 68
L 746 90
L 615 90
L 605 79
Z" style="stroke-width:1;stroke:rgba(63,127,255,1.0);fill:rgba(255,255,255,1.0)"/><text x="620" y="85" style="stroke-width:0;stroke:none;fill:rgba(51,51,51,1.0);font-size:12.8px;font-family:'Roboto Medium',sans-serif">chanchal/zaphandler</text><path  d="M 554 64
L 564 53
L 670 53
L 670 75
L 564 75
L 554 64
Z" style="stroke-width:1;stroke:rgba(63,127,255,1.0);fill:rgba(255,255,255,1.0)"/><text x="569" y="70" style="stroke-width:0;stroke:none;fill:rgba(51,51,51,1.0);font-size:12.8px;font-family:'Roboto Medium',sans-serif">madkins/replattr</text><path  d="M 492 104
L 502 93
L 604 93
L 604 115
L 502 115
L 492 104
Z" style="stroke-width:1;stroke:rgba(63,127,255,1.0);fill:rgba(255,255,255,1.0)"/><text x="507" y="110" style="stroke-width:0;stroke:none;fill:rgba(51,51,51,1.0);font-size:12.8px;font-family:'Roboto Medium',sans-serif">madkins/sloggy</text><path  d="M 17 499
L 27 488
L 150 488
L 150 510
L 27 510
L 17 499
Z" style="stroke-width:1;stroke:rgba(63,127,255,1.0);fill:rgba(255,255,255,1.0)"/><text x="32" y="505" style="stroke-width:0;stroke:none;fill:rgba(51,51,51,1.0);font-size:12.8px;font-family:'Roboto Medium',sans-serif">samber/slog-logrus</text></svg>