<svg xmlns="http://www.w3.org/2000/svg" xmlns:xlink="http://www.w3.org/1999/xlink" width="750" height="600">\n<path  d="M 0 0
L 750 0
L 750 600
L 0 600
L 0 0" style="stroke-width:0;stroke:rgba(255,255,255,1.0);fill:rgba(255,255,255,1.0)"/><path  d="M 9 20
L 623 20
L 623 551
L 9 551
L 9 20" style="stroke-width:0;stroke:rgba(255,255,255,1.0);fill:rgba(255,255,255,1.0)"/><path  d="M 9 551
L 623 551" style="stroke-width:1;stroke:rgba(51,51,51,1.0);fill:none"/><path  d="M 9 551
L 9 556" style="stroke-width:1;stroke:rgba(51,51,51,1.0);fill:none"/><text x="5" y="573" style="stroke-width:0;stroke:none;fill:rgba(51,51,51,1.0);font-size:12.8px;font-family:'Roboto Medium',sans-serif">0</text><path  d="M 71 551
L 71 556" style="stroke-width:1;stroke:rgba(51,51,51,1.0);fill:none"/><text x="64" y="573" style="stroke-width:0;stroke:none;fill:rgba(51,51,51,1.0);font-size:12.8px;font-family:'Roboto Medium',sans-serif">10</text><path  d="M 132 551
L 132 556" style="stroke-width:1;stroke:rgba(51,51,51,1.0);fill:none"/><text x="125" y="573" style="stroke-width:0;stroke:none;fill:rgba(51,51,51,1.0);font-size:12.8px;font-family:'Roboto Medium',sans-serif">20</text><path  d="M 194 551
L 194 556" style="stroke-width:1;stroke:rgba(51,51,51,1.0);fill:none"/><text x="187" y="573" style="stroke-width:0;stroke:none;fill:rgba(51,51,51,1.0);font-size:12.8px;font-family:'Roboto Medium',sans-serif">30</text><path  d="M 255 551
L 255 556" style="stroke-width:1;stroke:rgba(51,51,51,1.0);fill:none"/><text x="248" y="573" style="stroke-width:0;stroke:none;fill:rgba(51,51,51,1.0);font-size:12.8px;font-family:'Roboto Medium',sans-serif">40</text><path  d="M 316 551
L 316 556" style="stroke-width:1;stroke:rgba(51,51,51,1.0);fill:none"/><text x="309" y="573" style="stroke-width:0;stroke:none;fill:rgba(51,51,51,1.0);font-size:12.8px;font-family:'Roboto Medium',sans-serif">50</text><path  d="M 378 551
L 378 556" style="stroke-width:1;stroke:rgba(51,51,51,1.0);fill:none"/><text x="371" y="573" style="stroke-width:0;stroke:none;fill:rgba(51,51,51,1.0);font-size:12.8px;font-family:'Roboto Medium',sans-serif">60</text><path  d="M 439 551
L 439 556" style="stroke-width:1;stroke:rgba(51,51,51,1.0);fill:none"/><text x="432" y="573" style="stroke-width:0;stroke:none;fill:rgba(51,51,51,1.0);font-size:12.8px;font-family:'Roboto Medium',sans-serif">70</text><path  d="M 501 551
L 501 556" style="stroke-width:1;stroke:rgba(51,51,51,1.0);fill:none"/><text x="494" y="573" style="stroke-width:0;stroke:none;fill:rgba(51,51,51,1.0);font-size:12.8px;font-family:'Roboto Medium',sans-serif">80</text><path  d="M 562 551
L 562 556" style="stroke-width:1;stroke:rgba(51,51,51,1.0);fill:none"/><text x="555" y="573" style="stroke-width:0;stroke:none;fill:rgba(51,51,51,1.0);font-size:12.8px;font-family:'Roboto Medium',sans-serif">90</text><path  d="M 623 551
L 623 556" style="stroke-width:1;stroke:rgba(51,51,51,1.0);fill:none"/><text x="612" y="573" style="stroke-width:0;stroke:none;fill:rgba(51,51,51,1.0);font-size:12.8px;font-family:'Roboto Medium',sans-serif">100</text><text x="300" y="595" style="stroke-width:0;stroke:none;fill:rgba(51,51,51,1.0);font-size:12.8px;font-family:'Roboto Medium',sans-serif">Large</text><path  d="M 71 551
L 71 20" style="stroke-width:0;stroke:none;fill:none"/><path  d="M 132 551
L 132 20" style="stroke-width:0;stroke:none;fill:none"/><path  d="M 194 551
L 194 20" style="stroke-width:0;stroke:none;fill:none"/><path  d="M 255 551
L 255 20" style="stroke-width:0;stroke:none;fill:none"/><path  d="M 316 551
L 316 20" style="stroke-width:0;stroke:none;fill:none"/><path  d="M 378 551
L 378 20" style="stroke-width:0;stroke:none;fill:none"/><path  d="M 439 551
L 439 20" style="stroke-width:0;stroke:none;fill:none"/><path  d="M 501 551
L 501 20" style="stroke-width:0;stroke:none;fill:none"/><path  d="M 562 551
L 562 20" style="stroke-width:0;stroke:none;fill:none"/><path  d="M 624 551
L 624 20" style="stroke-width:1;stroke:rgba(51,51,51,1.0);fill:none"/><path  d="M 624 551
L 629 551" style="stroke-width:1;stroke:rgba(51,51,51,1.0);fill:none"/><text x="634" y="557" style="stroke-width:0;stroke:none;fill:rgba(51,51,51,1.0);font-size:12.8px;font-family:'Roboto Medium',sans-serif">0</text><path  d="M 624 497
L 629 497" style="stroke-width:1;stroke:rgba(51,51,51,1.0);fill:none"/><text x="634" y="503" style="stroke-width:0;stroke:none;fill:rgba(51,51,51,1.0);font-size:12.8px;font-family:'Roboto Medium',sans-serif">10</text><path  d="M 624 444
L 629 444" style="stroke-width:1;stroke:rgba(51,51,51,1.0);fill:none"/><text x="634" y="450" style="stroke-width:0;stroke:none;fill:rgba(51,51,51,1.0);font-size:12.8px;font-family:'Roboto Medium',sans-serif">20</text><path  d="M 624 391
L 629 391" style="stroke-width:1;stroke:rgba(51,51,51,1.0);fill:none"/><text x="634" y="397" style="stroke-width:0;stroke:none;fill:rgba(51,51,51,1.0);font-size:12.8px;font-family:'Roboto Medium',sans-serif">30</text><path  d="M 624 338
L 629 338" style="stroke-width:1;stroke:rgba(51,51,51,1.0);fill:none"/><text x="634" y="344" style="stroke-width:0;stroke:none;fill:rgba(51,51,51,1.0);font-size:12.8px;font-family:'Roboto Medium',sans-serif">40</text><path  d="M 624 285
L 629 285" style="stroke-width:1;stroke:rgba(51,51,51,1.0);fill:none"/><text x="634" y="291" style="stroke-width:0;stroke:none;fill:rgba(51,51,51,1.0);font-size:12.8px;font-family:'Roboto Medium',sans-serif">50</text><path  d="M 624 232
L 629 232" style="stroke-width:1;stroke:rgba(51,51,51,1.0);fill:none"/><text x="634" y="238" style="stroke-width:0;stroke:none;fill:rgba(51,51,51,1.0);font-size:12.8px;font-family:'Roboto Medium',sans-serif">60</text><path  d="M 624 179
L 629 179" style="stroke-width:1;stroke:rgba(51,51,51,1.0);fill:none"/><text x="634" y="185" style="stroke-width:0;stroke:none;fill:rgba(51,51,51,1.0);font-size:12.8px;font-family:'Roboto Medium',sans-serif">70</text><path  d="M 624 126
L 629 126" style="stroke-width:1;stroke:rgba(51,51,51,1.0);fill:none"/><text x="634" y="132" style="stroke-width:0;stroke:none;fill:rgba(51,51,51,1.0);font-size:12.8px;font-family:'Roboto Medium',sans-serif">80</text><path  d="M 624 73
L 629 73" style="stroke-width:1;stroke:rgba(51,51,51,1.0);fill:none"/><text x="634" y="79" style="stroke-width:0;stroke:none;fill:rgba(51,51,51,1.0);font-size:12.8px;font-family:'Roboto Medium',sans-serif">90</text><path  d="M 624 20
L 629 20" style="stroke-width:1;stroke:rgba(51,51,51,1.0);fill:none"/><text x="634" y="26" style="stroke-width:0;stroke:none;fill:rgba(51,51,51,1.0);font-size:12.8px;font-family:'Roboto Medium',sans-serif">100</text><text x="666" y="269" style="stroke-width:0;stroke:none;fill:rgba(51,51,51,1.0);font-size:12.8px;font-family:'Roboto Medium',sans-serif" transform="rotate(90.00,666,269)">Small</text><path  d="M 9 551
L 623 551" style="stroke-width:0;stroke:none;fill:none"/><path  d="M 9 497
L 623 497" style="stroke-width:0;stroke:none;fill:none"/><path  d="M 9 444
L 623 444" style="stroke-width:0;stroke:none;fill:none"/><path  d="M 9 391
L 623 391" style="stroke-width:0;stroke:none;fill:none"/><path  d="M 9 338
L 623 338" style="stroke-width:0;stroke:none;fill:none"/><path  d="M 9 285
L 623 285" style="stroke-width:0;stroke:none;fill:none"/><path  d="M 9 232
L 623 232" style="stroke-width:0;stroke:none;fill:none"/><path  d="M 9 179
L 623 179" style="stroke-width:0;stroke:none;fill:none"/><path  d="M 9 126
L 623 126" style="stroke-width:0;stroke:none;fill:none"/><path  d="M 9 73
L 623 73" style="stroke-width:0;stroke:none;fill:none"/><path  d="M 8 551
L 8 20" style="stroke-width:1;stroke:rgba(51,51,51,1.0);fill:none"/><path  d="M 8 -9223372036854775257
L 3 -9223372036854775257" style="stroke-width:1;stroke:rgba(51,51,51,1.0);fill:none"/><text x="-28" y="-9223372036854775251" style="stroke-width:0;stroke:none;fill:rgba(51,51,51,1.0);font-size:12.8px;font-family:'Roboto Medium',sans-serif">0.00</text><path  d="M 8 -9223372036854775257
L 3 -9223372036854775257" style="stroke-width:1;stroke:rgba(51,51,51,1.0);fill:none"/><text x="-28" y="-9223372036854775251" style="stroke-width:0;stroke:none;fill:rgba(51,51,51,1.0);font-size:12.8px;font-family:'Roboto Medium',sans-serif">0.00</text><path  d="M 8 -9223372036854775257
L 3 -9223372036854775257" style="stroke-width:1;stroke:rgba(51,51,51,1.0);fill:none"/><text x="-28" y="-9223372036854775251" style="stroke-width:0;stroke:none;fill:rgba(51,51,51,1.0);font-size:12.8px;font-family:'Roboto Medium',sans-serif">0.00</text><path  d="M 8 -9223372036854775257
L 3 -9223372036854775257" style="stroke-width:1;stroke:rgba(51,51,51,1.0);fill:none"/><text x="-28" y="-9223372036854775251" style="stroke-width:0;stroke:none;fill:rgba(51,51,51,1.0);font-size:12.8px;font-family:'Roboto Medium',sans-serif">0.00</text><path  d="M 8 -9223372036854775257
L 3 -9223372036854775257" style="stroke-width:1;stroke:rgba(51,51,51,1.0);fill:none"/><text x="-28" y="-9223372036854775251" style="stroke-width:0;stroke:none;fill:rgba(51,51,51,1.0);font-size:12.8px;font-family:'Roboto Medium',sans-serif">0.00</text><path  d="M 8 -9223372036854775257
L 3 -9223372036854775257" style="stroke-width:1;stroke:rgba(51,51,51,1.0);fill:none"/><text x="-28" y="-9223372036854775251" style="stroke-width:0;stroke:none;fill:rgba(51,51,51,1.0);font-size:12.8px;font-family:'Roboto Medium',sans-serif">0.00</text><path  d="M 8 -9223372036854775257
L 3 -9223372036854775257" style="stroke-width:1;stroke:rgba(51,51,51,1.0);fill:none"/><text x="-28" y="-9223372036854775251" style="stroke-width:0;stroke:none;fill:rgba(51,51,51,1.0);font-size:12.8px;font-family:'Roboto Medium',sans-serif">0.00</text><path  d="M 8 -9223372036854775257
L 3 -9223372036854775257" style="stroke-width:1;stroke:rgba(51,51,51,1.0);fill:none"/><text x="-28" y="-9223372036854775251" style="stroke-width:0;stroke:none;fill:rgba(51,51,51,1.0);font-size:12.8px;font-family:'Roboto Medium',sans-serif">0.00</text><path  d="M 8 -9223372036854775257
L 3 -9223372036854775257" style="stroke-width:1;stroke:rgba(51,51,51,1.0);fill:none"/><text x="-28" y="-9223372036854775251" style="stroke-width:0;stroke:none;fill:rgba(51,51,51,1.0);font-size:12.8px;font-family:'Roboto Medium',sans-serif">0.00</text><path  d="M 8 -9223372036854775257
L 3 -9223372036854775257" style="stroke-width:1;stroke:rgba(51,51,51,1.0);fill:none"/><text x="-28" y="-9223372036854775251" style="stroke-width:0;stroke:none;fill:rgba(51,51,51,1.0);font-size:12.8px;font-family:'Roboto Medium',sans-serif">0.00</text><path  d="M 8 -9223372036854775257
L 3 -9223372036854775257" style="stroke-width:1;stroke:rgba(51,51,51,1.0);fill:none"/><text x="-28" y="-9223372036854775251" style="stroke-width:0;stroke:none;fill:rgba(51,51,51,1.0);font-size:12.8px;font-family:'Roboto Medium',sans-serif">0.00</text><path  d="M 8 -9223372036854775257
L 3 -9223372036854775257" style="stroke-width:1;stroke:rgba(51,51,51,1.0);fill:none"/><text x="-28" y="-9223372036854775251" style="stroke-width:0;stroke:none;fill:rgba(51,51,51,1.0);font-size:12.8px;font-family:'Roboto Medium',sans-serif">0.00</text><path  d="M 8 -9223372036854775257
L 3 -9223372036854775257" style="stroke-width:1;stroke:rgba(51,51,51,1.0);fill:none"/><text x="-28" y="-9223372036854775251" style="stroke-width:0;stroke:none;fill:rgba(51,51,51,1.0);font-size:12.8px;font-family:'Roboto Medium',sans-serif">0.00</text><path  d="M 8 -9223372036854775257
L 3 -9223372036854775257" style="stroke-width:1;stroke:rgba(51,51,51,1.0);fill:none"/><text x="-28" y="-9223372036854775251" style="stroke-width:0;stroke:none;fill:rgba(51,51,51,1.0);font-size:12.8px;font-family:'Roboto Medium',sans-serif">0.00</text><path  d="M 8 -9223372036854775257
L 3 -9223372036854775257" style="stroke-width:1;stroke:rgba(51,51,51,1.0);fill:none"/><text x="-28" y="-9223372036854775251" style="stroke-width:0;stroke:none;fill:rgba(51,51,51,1.0);font-size:12.8px;font-family:'Roboto Medium',sans-serif">0.00</text><path  d="M 9 -9223372036854775257
L 623 -9223372036854775257" style="stroke-width:0;stroke:none;fill:none"/><path  d="M 9 -9223372036854775257
L 623 -9223372036854775257" style="stroke-width:0;stroke:none;fill:none"/><path  d="M 9 -9223372036854775257
L 623 -9223372036854775257" style="stroke-width:0;stroke:none;fill:none"/><path  d="M 9 -9223372036854775257
L 623 -9223372036854775257" style="stroke-width:0;stroke:none;fill:none"/><path  d="M 9 -9223372036854775257
L 623 -9223372036854775257" style="stroke-width:0;stroke:none;fill:none"/><path  d="M 9 -9223372036854775257
L 623 -9223372036854775257" style="stroke-width:0;stroke:none;fill:none"/><path  d="M 9 -9223372036854775257
L 623 -9223372036854775257" style="stroke-width:0;stroke:none;fill:none"/><path  d="M 9 -9223372036854775257
L 623 -9223372036854775257" style="stroke-width:0;stroke:none;fill:none"/><path  d="M 9 -9223372036854775257
L 623 -9223372036854775257" style="stroke-width:0;stroke:none;fill:none"/><path  d="M 9 -9223372036854775257
L 623 -9223372036854775257" style="stroke-width:0;stroke:none;fill:none"/><path  d="M 9 -9223372036854775257
L 623 -9223372036854775257" style="stroke-width:0;stroke:none;fill:none"/><path  d="M 9 -9223372036854775257
L 623 -9223372036854775257" style="stroke-width:0;stroke:none;fill:none"/><path  d="M 9 -9223372036854775257
L 623 -9223372036854775257" style="stroke-width:0;stroke:none;fill:none"/><path  d="M 9 -9223372036854775257
L 623 -9223372036854775257" style="stroke-width:0;stroke:none;fill:none"/><path  d="M 163 20
L 163 418
L 623 418" style="stroke-width:1;stroke:rgba(255,0,127,0.2);fill:none"/><path  d="M 316 20
L 316 285
L 623 285" style="stroke-width:1;stroke:rgba(255,0,127,0.2);fill:none"/><path  d="M 470 20
L 470 152
L 623 152" style="stroke-width:1;stroke:rgba(255,0,127,0.2);fill:none"/><path  d="M 531 418
L 541 407
L 571 407
L 571 429
L 541 429
L 531 418
Z" style="stroke-width:1;stroke:rgba(255,0,127,0.2);fill:rgba(255,255,255,1.0)"/><text x="546" y="424" style="stroke-width:0;stroke:none;fill:rgba(51,51,51,1.0);font-size:12.8px;font-family:'Roboto Medium',sans-serif">3/4</text><path  d="M 531 285
L 541 274
L 575 274
L 575 296
L 541 296
L 531 285
Z" style="stroke-width:1;stroke:rgba(255,0,127,0.2);fill:rgba(255,255,255,1.0)"/><text x="546" y="291" style="stroke-width:0;stroke:none;fill:rgba(51,51,51,1.0);font-size:12.8px;font-family:'Roboto Medium',sans-serif">Half</text><path  d="M 531 152
L 541 141
L 594 141
L 594 163
L 541 163
L 531 152
Z" style="stroke-width:1;stroke:rgba(255,0,127,0.2);fill:rgba(255,255,255,1.0)"/><text x="546" y="158" style="stroke-width:0;stroke:none;fill:rgba(51,51,51,1.0);font-size:12.8px;font-family:'Roboto Medium',sans-serif">Quarter</text><circle cx="605" cy="87" r="5" style="stroke-width:1;stroke:rgba(19,231,0,1.0);fill:rgba(19,231,0,1.0)"/><path  d="" style="stroke-width:1;stroke:rgba(19,231,0,1.0);fill:rgba(19,231,0,1.0)"/><circle cx="576" cy="42" r="5" style="stroke-width:1;stroke:rgba(15,238,0,1.0);fill:rgba(15,238,0,1.0)"/><path  d="" style="stroke-width:1;stroke:rgba(15,238,0,1.0);fill:rgba(15,238,0,1.0)"/><circle cx="620" cy="27" r="5" style="stroke-width:1;stroke:rgba(2,252,0,1.0);fill:rgba(2,252,0,1.0)"/><path  d="" style="stroke-width:1;stroke:rgba(2,252,0,1.0);fill:rgba(2,252,0,1.0)"/><circle cx="15" cy="499" r="5" style="stroke-width:1;stroke:rgba(237,13,0,1.0);fill:rgba(237,13,0,1.0)"/><path  d="" style="stroke-width:1;stroke:rgba(237,13,0,1.0);fill:rgba(237,13,0,1.0)"/><circle cx="213" cy="256" r="5" style="stroke-width:1;stroke:rgba(138,110,0,1.0);fill:rgba(138,110,0,1.0)"/><path  d="" style="stroke-width:1;stroke:rgba(138,110,0,1.0);fill:rgba(138,110,0,1.0)"/><circle cx="554" cy="51" r="5" style="stroke-width:1;stroke:rgba(21,231,0,1.0);fill:rgba(21,231,0,1.0)"/><path  d="" style="stroke-width:1;stroke:rgba(21,231,0,1.0);fill:rgba(21,231,0,1.0)"/><circle cx="490" cy="101" r="5" style="stroke-width:1;stroke:rgba(47,206,0,1.0);fill:rgba(47,206,0,1.0)"/><path  d="" style="stroke-width:1;stroke:rgba(47,206,0,1.0);fill:rgba(47,206,0,1.0)"/><circle cx="623" cy="20" r="5" style="stroke-width:1;stroke:rgba(0,255,0,1.0);fill:rgba(0,255,0,1.0)"/><path  d="" style="stroke-width:1;stroke:rgba(0,255,0,1.0);fill:rgba(0,255,0,1.0)"/><circle cx="233" cy="252" r="5" style="stroke-width:1;stroke:rgba(134,115,0,1.0);fill:rgba(134,115,0,1.0)"/><path  d="" style="stroke-width:1;stroke:rgba(134,115,0,1.0);fill:rgba(134,115,0,1.0)"/><circle cx="591" cy="37" r="5" style="stroke-width:1;stroke:rgba(10,243,0,1.0);fill:rgba(10,243,0,1.0)"/><path  d="" style="stroke-width:1;stroke:rgba(10,243,0,1.0);fill:rgba(10,243,0,1.0)"/><circle cx="591" cy="24" r="5" style="stroke-width:1;stroke:rgba(7,245,0,1.0);fill:rgba(7,245,0,1.0)"/><path  d="" style="stroke-width:1;stroke:rgba(7,245,0,1.0);fill:rgba(7,245,0,1.0)"/><path  d="M 605 82
L 615 71
L 746 71
L 746 93
L 615 93
L 605 82
Z" style="stroke-width:1;stroke:rgba(63,127,255,1.0);fill:rgba(255,255,255,1.0)"/><text x="620" y="88" style="stroke-width:0;stroke:none;fill:rgba(51,51,51,1.0);font-size:12.8px;font-family:'Roboto Medium',sans-serif">chanchal/zaphandler</text><path  d="M 576 42
L 586 31
L 679 31
L 679 53
L 586 53
L 576 42
Z" style="stroke-width:1;stroke:rgba(63,127,255,1.0);fill:rgba(255,255,255,1.0)"/><text x="591" y="48" style="stroke-width:0;stroke:none;fill:rgba(51,51,51,1.0);font-size:12.8px;font-family:'Roboto Medium',sans-serif">madkins/flash</text><path  d="M 620 18
L 630 7
L 733 7
L 733 29
L 630 29
L 620 18
Z" style="stroke-width:1;stroke:rgba(63,127,255,1.0);fill:rgba(255,255,255,1.0)"/><text x="635" y="24" style="stroke-width:0;stroke:none;fill:rgba(51,51,51,1.0);font-size:12.8px;font-family:'Roboto Medium',sans-serif">phsym/zeroslog</text><path  d="M 15 499
L 25 488
L 148 488
L 148 510
L 25 510
L 15 499
Z" style="stroke-width:1;stroke:rgba(63,127,255,1.0);fill:rgba(255,255,255,1.0)"/><text x="30" y="505" style="stroke-width:0;stroke:none;fill:rgba(51,51,51,1.0);font-size:12.8px;font-family:'Roboto Medium',sans-serif">samber/slog-logrus</text><path  d="M 213 266
L 223 255
L 331 255
L 331 277
L 223 277
L 213 266
Z" style="stroke-width:1;stroke:rgba(63,127,255,1.0);fill:rgba(255,255,255,1.0)"/><text x="228" y="272" style="stroke-width:0;stroke:none;fill:rgba(51,51,51,1.0);font-size:12.8px;font-family:'Roboto Medium',sans-serif">samber/slog-zap</text><path  d="M 554 66
L 564 55
L 670 55
L 670 77
L 564 77
L 554 66
Z" style="stroke-width:1;stroke:rgba(63,127,255,1.0);fill:rgba(255,255,255,1.0)"/><text x="569" y="72" style="stroke-width:0;stroke:none;fill:rgba(51,51,51,1.0);font-size:12.8px;font-family:'Roboto Medium',sans-serif">madkins/replattr</text><path  d="M 490 106
L 500 95
L 602 95
L 602 117
L 500 117
L 490 106
Z" style="stroke-width:1;stroke:rgba(63,127,255,1.0);fill:rgba(255,255,255,1.0)"/><text x="505" y="112" style="stroke-width:0;stroke:none;fill:rgba(51,51,51,1.0);font-size:12.8px;font-family:'Roboto Medium',sans-serif">madkins/sloggy</text><path  d="M 623 16
L 633 5
L 711 5
L 711 27
L 633 27
L 623 16
Z" style="stroke-width:1;stroke:rgba(63,127,255,1.0);fill:rgba(255,255,255,1.0)"/><text x="638" y="22" style="stroke-width:0;stroke:none;fill:rgba(51,51,51,1.0);font-size:12.8px;font-family:'Roboto Medium',sans-serif">phuslu/slog</text><path  d="M 233 242
L 243 231
L 373 231
L 373 253
L 243 253
L 233 242
Z" style="stroke-width:1;stroke:rgba(63,127,255,1.0);fill:rgba(255,255,255,1.0)"/><text x="248" y="248" style="stroke-width:0;stroke:none;fill:rgba(51,51,51,1.0);font-size:12.8px;font-family:'Roboto Medium',sans-serif">samber/slog-zerolog</text><path  d="M 591 40
L 601 29
L 719 29
L 719 51
L 601 51
L 591 40
Z" style="stroke-width:1;stroke:rgba(63,127,255,1.0);fill:rgba(255,255,255,1.0)"/><text x="606" y="46" style="stroke-width:0;stroke:none;fill:rgba(51,51,51,1.0);font-size:12.8px;font-family:'Roboto Medium',sans-serif">slog/JSONHandler</text><path  d="M 591 24
L 601 13
L 715 13
L 715 35
L 601 35
L 591 24
Z" style="stroke-width:1;stroke:rgba(63,127,255,1.0);fill:rgba(255,255,255,1.0)"/><text x="606" y="30" style="stroke-width:0;stroke:none;fill:rgba(51,51,51,1.0);font-size:12.8px;font-family:'Roboto Medium',sans-serif">svcrunner/jsonlog</text></svg>