<svg xmlns="http://www.w3.org/2000/svg" xmlns:xlink="http://www.w3.org/1999/xlink" width="750" height="600">\n<path  d="M 0 0
L 750 0
L 750 600
L 0 600
L 0 0" style="stroke-width:0;stroke:rgba(255,255,255,1.0);fill:rgba(255,255,255,1.0)"/><path  d="M 9 26
L 622 26
L 622 551
L 9 551
L 9 26" style="stroke-width:0;stroke:rgba(255,255,255,1.0);fill:rgba(255,255,255,1.0)"/><path  d="M 9 551
L 622 551" style="stroke-width:1;stroke:rgba(51,51,51,1.0);fill:none"/><path  d="M 9 551
L 9 556" style="stroke-width:1;stroke:rgba(51,51,51,1.0);fill:none"/><text x="5" y="573" style="stroke-width:0;stroke:none;fill:rgba(51,51,51,1.0);font-size:12.8px;font-family:'Roboto Medium',sans-serif">0</text><path  d="M 71 551
L 71 556" style="stroke-width:1;stroke:rgba(51,51,51,1.0);fill:none"/><text x="64" y="573" style="stroke-width:0;stroke:none;fill:rgba(51,51,51,1.0);font-size:12.8px;font-family:'Roboto Medium',sans-serif">10</text><path  d="M 132 551
L 132 556" style="stroke-width:1;stroke:rgba(51,51,51,1.0);fill:none"/><text x="125" y="573" style="stroke-width:0;stroke:none;fill:rgba(51,51,51,1.0);font-size:12.8px;font-family:'Roboto Medium',sans-serif">20</text><path  d="M 193 551
L 193 556" style="stroke-width:1;stroke:rgba(51,51,51,1.0);fill:none"/><text x="186" y="573" style="stroke-width:0;stroke:none;fill:rgba(51,51,51,1.0);font-size:12.8px;font-family:'Roboto Medium',sans-serif">30</text><path  d="M 255 551
L 255 556" style="stroke-width:1;stroke:rgba(51,51,51,1.0);fill:none"/><text x="248" y="573" style="stroke-width:0;stroke:none;fill:rgba(51,51,51,1.0);font-size:12.8px;font-family:'Roboto Medium',sans-serif">40</text><path  d="M 316 551
L 316 556" style="stroke-width:1;stroke:rgba(51,51,51,1.0);fill:none"/><text x="309" y="573" style="stroke-width:0;stroke:none;fill:rgba(51,51,51,1.0);font-size:12.8px;font-family:'Roboto Medium',sans-serif">50</text><path  d="M 377 551
L 377 556" style="stroke-width:1;stroke:rgba(51,51,51,1.0);fill:none"/><text x="370" y="573" style="stroke-width:0;stroke:none;fill:rgba(51,51,51,1.0);font-size:12.8px;font-family:'Roboto Medium',sans-serif">60</text><path  d="M 439 551
L 439 556" style="stroke-width:1;stroke:rgba(51,51,51,1.0);fill:none"/><text x="432" y="573" style="stroke-width:0;stroke:none;fill:rgba(51,51,51,1.0);font-size:12.8px;font-family:'Roboto Medium',sans-serif">70</text><path  d="M 500 551
L 500 556" style="stroke-width:1;stroke:rgba(51,51,51,1.0);fill:none"/><text x="493" y="573" style="stroke-width:0;stroke:none;fill:rgba(51,51,51,1.0);font-size:12.8px;font-family:'Roboto Medium',sans-serif">80</text><path  d="M 561 551
L 561 556" style="stroke-width:1;stroke:rgba(51,51,51,1.0);fill:none"/><text x="554" y="573" style="stroke-width:0;stroke:none;fill:rgba(51,51,51,1.0);font-size:12.8px;font-family:'Roboto Medium',sans-serif">90</text><path  d="M 622 551
L 622 556" style="stroke-width:1;stroke:rgba(51,51,51,1.0);fill:none"/><text x="611" y="573" style="stroke-width:0;stroke:none;fill:rgba(51,51,51,1.0);font-size:12.8px;font-family:'Roboto Medium',sans-serif">100</text><text x="300" y="595" style="stroke-width:0;stroke:none;fill:rgba(51,51,51,1.0);font-size:12.8px;font-family:'Roboto Medium',sans-serif">Large</text><path  d="M 71 551
L 71 26" style="stroke-width:0;stroke:none;fill:none"/><path  d="M 132 551
L 132 26" style="stroke-width:0;stroke:none;fill:none"/><path  d="M 193 551
L 193 26" style="stroke-width:0;stroke:none;fill:none"/><path  d="M 255 551
L 255 26" style="stroke-width:0;stroke:none;fill:none"/><path  d="M 316 551
L 316 26" style="stroke-width:0;stroke:none;fill:none"/><path  d="M 377 551
L 377 26" style="stroke-width:0;stroke:none;fill:none"/><path  d="M 439 551
L 439 26" style="stroke-width:0;stroke:none;fill:none"/><path  d="M 500 551
L 500 26" style="stroke-width:0;stroke:none;fill:none"/><path  d="M 561 551
L 561 26" style="stroke-width:0;stroke:none;fill:none"/><path  d="M 623 551
L 623 26" style="stroke-width:1;stroke:rgba(51,51,51,1.0);fill:none"/><path  d="M 623 551
L 628 551" style="stroke-width:1;stroke:rgba(51,51,51,1.0);fill:none"/><text x="633" y="557" style="stroke-width:0;stroke:none;fill:rgba(51,51,51,1.0);font-size:12.8px;font-family:'Roboto Medium',sans-serif">0</text><path  d="M 623 498
L 628 498" style="stroke-width:1;stroke:rgba(51,51,51,1.0);fill:none"/><text x="633" y="504" style="stroke-width:0;stroke:none;fill:rgba(51,51,51,1.0);font-size:12.8px;font-family:'Roboto Medium',sans-serif">10</text><path  d="M 623 446
L 628 446" style="stroke-width:1;stroke:rgba(51,51,51,1.0);fill:none"/><text x="633" y="452" style="stroke-width:0;stroke:none;fill:rgba(51,51,51,1.0);font-size:12.8px;font-family:'Roboto Medium',sans-serif">20</text><path  d="M 623 393
L 628 393" style="stroke-width:1;stroke:rgba(51,51,51,1.0);fill:none"/><text x="633" y="399" style="stroke-width:0;stroke:none;fill:rgba(51,51,51,1.0);font-size:12.8px;font-family:'Roboto Medium',sans-serif">30</text><path  d="M 623 341
L 628 341" style="stroke-width:1;stroke:rgba(51,51,51,1.0);fill:none"/><text x="633" y="347" style="stroke-width:0;stroke:none;fill:rgba(51,51,51,1.0);font-size:12.8px;font-family:'Roboto Medium',sans-serif">40</text><path  d="M 623 288
L 628 288" style="stroke-width:1;stroke:rgba(51,51,51,1.0);fill:none"/><text x="633" y="294" style="stroke-width:0;stroke:none;fill:rgba(51,51,51,1.0);font-size:12.8px;font-family:'Roboto Medium',sans-serif">50</text><path  d="M 623 236
L 628 236" style="stroke-width:1;stroke:rgba(51,51,51,1.0);fill:none"/><text x="633" y="242" style="stroke-width:0;stroke:none;fill:rgba(51,51,51,1.0);font-size:12.8px;font-family:'Roboto Medium',sans-serif">60</text><path  d="M 623 183
L 628 183" style="stroke-width:1;stroke:rgba(51,51,51,1.0);fill:none"/><text x="633" y="189" style="stroke-width:0;stroke:none;fill:rgba(51,51,51,1.0);font-size:12.8px;font-family:'Roboto Medium',sans-serif">70</text><path  d="M 623 131
L 628 131" style="stroke-width:1;stroke:rgba(51,51,51,1.0);fill:none"/><text x="633" y="137" style="stroke-width:0;stroke:none;fill:rgba(51,51,51,1.0);font-size:12.8px;font-family:'Roboto Medium',sans-serif">80</text><path  d="M 623 78
L 628 78" style="stroke-width:1;stroke:rgba(51,51,51,1.0);fill:none"/><text x="633" y="84" style="stroke-width:0;stroke:none;fill:rgba(51,51,51,1.0);font-size:12.8px;font-family:'Roboto Medium',sans-serif">90</text><path  d="M 623 26
L 628 26" style="stroke-width:1;stroke:rgba(51,51,51,1.0);fill:none"/><text x="633" y="32" style="stroke-width:0;stroke:none;fill:rgba(51,51,51,1.0);font-size:12.8px;font-family:'Roboto Medium',sans-serif">100</text><text x="665" y="272" style="stroke-width:0;stroke:none;fill:rgba(51,51,51,1.0);font-size:12.8px;font-family:'Roboto Medium',sans-serif" transform="rotate(90.00,665,272)">Small</text><path  d="M 9 551
L 622 551" style="stroke-width:0;stroke:none;fill:none"/><path  d="M 9 498
L 622 498" style="stroke-width:0;stroke:none;fill:none"/><path  d="M 9 446
L 622 446" style="stroke-width:0;stroke:none;fill:none"/><path  d="M 9 393
L 622 393" style="stroke-width:0;stroke:none;fill:none"/><path  d="M 9 341
L 622 341" style="stroke-width:0;stroke:none;fill:none"/><path  d="M 9 288
L 622 288" style="stroke-width:0;stroke:none;fill:none"/><path  d="M 9 236
L 622 236" style="stroke-width:0;stroke:none;fill:none"/><path  d="M 9 183
L 622 183" style="stroke-width:0;stroke:none;fill:none"/><path  d="M 9 131
L 622 131" style="stroke-width:0;stroke:none;fill:none"/><path  d="M 9 78
L 622 78" style="stroke-width:0;stroke:none;fill:none"/><path  d="M 8 551
L 8 26" style="stroke-width:1;stroke:rgba(51,51,51,1.0);fill:none"/><path  d="M 8 -9223372036854775257
L 3 -9223372036854775257" style="stroke-width:1;stroke:rgba(51,51,51,1.0);fill:none"/><text x="-28" y="-9223372036854775251" style="stroke-width:0;stroke:none;fill:rgba(51,51,51,1.0);font-size:12.8px;font-family:'Roboto Medium',sans-serif">0.00</text><path  d="M 8 -9223372036854775257
L 3 -9223372036854775257" style="stroke-width:1;stroke:rgba(51,51,51,1.0);fill:none"/><text x="-28" y="-9223372036854775251" style="stroke-width:0;stroke:none;fill:rgba(51,51,51,1.0);font-size:12.8px;font-family:'Roboto Medium',sans-serif">0.00</text><path  d="M 8 -9223372036854775257
L 3 -9223372036854775257" style="stroke-width:1;stroke:rgba(51,51,51,1.0);fill:none"/><text x="-28" y="-9223372036854775251" style="stroke-width:0;stroke:none;fill:rgba(51,51,51,1.0);font-size:12.8px;font-family:'Roboto Medium',sans-serif">0.00</text><path  d="M 8 -9223372036854775257
L 3 -9223372036854775257" style="stroke-width:1;stroke:rgba(51,51,51,1.0);fill:none"/><text x="-28" y="-9223372036854775251" style="stroke-width:0;stroke:none;fill:rgba(51,51,51,1.0);font-size:12.8px;font-family:'Roboto Medium',sans-serif">0.00</text><path  d="M 8 -9223372036854775257
L 3 -9223372036854775257" style="stroke-width:1;stroke:rgba(51,51,51,1.0);fill:none"/><text x="-28" y="-9223372036854775251" style="stroke-width:0;stroke:none;fill:rgba(51,51,51,1.0);font-size:12.8px;font-family:'Roboto Medium',sans-serif">0.00</text><path  d="M 8 -9223372036854775257
L 3 -9223372036854775257" style="stroke-width:1;stroke:rgba(51,51,51,1.0);fill:none"/><text x="-28" y="-9223372036854775251" style="stroke-width:0;stroke:none;fill:rgba(51,51,51,1.0);font-size:12.8px;font-family:'Roboto Medium',sans-serif">0.00</text><path  d="M 8 -9223372036854775257
L 3 -9223372036854775257" style="stroke-width:1;stroke:rgba(51,51,51,1.0);fill:none"/><text x="-28" y="-9223372036854775251" style="stroke-width:0;stroke:none;fill:rgba(51,51,51,1.0);font-size:12.8px;font-family:'Roboto Medium',sans-serif">0.00</text><path  d="M 8 -9223372036854775257
L 3 -9223372036854775257" style="stroke-width:1;stroke:rgba(51,51,51,1.0);fill:none"/><text x="-28" y="-9223372036854775251" style="stroke-width:0;stroke:none;fill:rgba(51,51,51,1.0);font-size:12.8px;font-family:'Roboto Medium',sans-serif">0.00</text><path  d="M 8 -9223372036854775257
L 3 -9223372036854775257" style="stroke-width:1;stroke:rgba(51,51,51,1.0);fill:none"/><text x="-28" y="-9223372036854775251" style="stroke-width:0;stroke:none;fill:rgba(51,51,51,1.0);font-size:12.8px;font-family:'Roboto Medium',sans-serif">0.00</text><path  d="M 8 -9223372036854775257
L 3 -9223372036854775257" style="stroke-width:1;stroke:rgba(51,51,51,1.0);fill:none"/><text x="-28" y="-9223372036854775251" style="stroke-width:0;stroke:none;fill:rgba(51,51,51,1.0);font-size:12.8px;font-family:'Roboto Medium',sans-serif">0.00</text><path  d="M 8 -9223372036854775257
L 3 -9223372036854775257" style="stroke-width:1;stroke:rgba(51,51,51,1.0);fill:none"/><text x="-28" y="-9223372036854775251" style="stroke-width:0;stroke:none;fill:rgba(51,51,51,1.0);font-size:12.8px;font-family:'Roboto Medium',sans-serif">0.00</text><path  d="M 8 -9223372036854775257
L 3 -9223372036854775257" style="stroke-width:1;stroke:rgba(51,51,51,1.0);fill:none"/><text x="-28" y="-9223372036854775251" style="stroke-width:0;stroke:none;fill:rgba(51,51,51,1.0);font-size:12.8px;font-family:'Roboto Medium',sans-serif">0.00</text><path  d="M 8 -9223372036854775257
L 3 -9223372036854775257" style="stroke-width:1;stroke:rgba(51,51,51,1.0);fill:none"/><text x="-28" y="-9223372036854775251" style="stroke-width:0;stroke:none;fill:rgba(51,51,51,1.0);font-size:12.8px;font-family:'Roboto Medium',sans-serif">0.00</text><path  d="M 8 -9223372036854775257
L 3 -9223372036854775257" style="stroke-width:1;stroke:rgba(51,51,51,1.0);fill:none"/><text x="-28" y="-9223372036854775251" style="stroke-width:0;stroke:none;fill:rgba(51,51,51,1.0);font-size:12.8px;font-family:'Roboto Medium',sans-serif">0.00</text><path  d="M 8 -9223372036854775257
L 3 -9223372036854775257" style="stroke-width:1;stroke:rgba(51,51,51,1.0);fill:none"/><text x="-28" y="-9223372036854775251" style="stroke-width:0;stroke:none;fill:rgba(51,51,51,1.0);font-size:12.8px;font-family:'Roboto Medium',sans-serif">0.00</text><path  d="M 9 -9223372036854775257
L 622 -9223372036854775257" style="stroke-width:0;stroke:none;fill:none"/><path  d="M 9 -9223372036854775257
L 622 -9223372036854775257" style="stroke-width:0;stroke:none;fill:none"/><path  d="M 9 -9223372036854775257
L 622 -9223372036854775257" style="stroke-width:0;stroke:none;fill:none"/><path  d="M 9 -9223372036854775257
L 622 -9223372036854775257" style="stroke-width:0;stroke:none;fill:none"/><path  d="M 9 -9223372036854775257
L 622 -9223372036854775257" style="stroke-width:0;stroke:none;fill:none"/><path  d="M 9 -9223372036854775257
L 622 -9223372036854775257" style="stroke-width:0;stroke:none;fill:none"/><path  d="M 9 -9223372036854775257
L 622 -9223372036854775257" style="stroke-width:0;stroke:none;fill:none"/><path  d="M 9 -9223372036854775257
L 622 -9223372036854775257" style="stroke-width:0;stroke:none;fill:none"/><path  d="M 9 -9223372036854775257
L 622 -9223372036854775257" style="stroke-width:0;stroke:none;fill:none"/><path  d="M 9 -9223372036854775257
L 622 -9223372036854775257" style="stroke-width:0;stroke:none;fill:none"/><path  d="M 9 -9223372036854775257
L 622 -9223372036854775257" style="stroke-width:0;stroke:none;fill:none"/><path  d="M 9 -9223372036854775257
L 622 -9223372036854775257" style="stroke-width:0;stroke:none;fill:none"/><path  d="M 9 -9223372036854775257
L 622 -9223372036854775257" style="stroke-width:0;stroke:none;fill:none"/><path  d="M 9 -9223372036854775257
L 622 -9223372036854775257" style="stroke-width:0;stroke:none;fill:none"/><path  d="M 163 26
L 163 419
L 622 419" style="stroke-width:1;stroke:rgba(255,0,127,0.2);fill:none"/><path  d="M 316 26
L 316 288
L 622 288" style="stroke-width:1;stroke:rgba(255,0,127,0.2);fill:none"/><path  d="M 469 26
L 469 157
L 622 157" style="stroke-width:1;stroke:rgba(255,0,127,0.2);fill:none"/><path  d="M 531 419
L 541 408
L 571 408
L 571 430
L 541 430
L 531 419
Z" style="stroke-width:1;stroke:rgba(255,0,127,0.2);fill:rgba(255,255,255,1.0)"/><text x="546" y="425" style="stroke-width:0;stroke:none;fill:rgba(51,51,51,1.0);font-size:12.8px;font-family:'Roboto Medium',sans-serif">3/4</text><path  d="M 531 288
L 541 277
L 575 277
L 575 299
L 541 299
L 531 288
Z" style="stroke-width:1;stroke:rgba(255,0,127,0.2);fill:rgba(255,255,255,1.0)"/><text x="546" y="294" style="stroke-width:0;stroke:none;fill:rgba(51,51,51,1.0);font-size:12.8px;font-family:'Roboto Medium',sans-serif">Half</text><path  d="M 531 157
L 541 146
L 594 146
L 594 168
L 541 168
L 531 157
Z" style="stroke-width:1;stroke:rgba(255,0,127,0.2);fill:rgba(255,255,255,1.0)"/><text x="546" y="163" style="stroke-width:0;stroke:none;fill:rgba(51,51,51,1.0);font-size:12.8px;font-family:'Roboto Medium',sans-serif">Quarter</text><circle cx="493" cy="106" r="5" style="stroke-width:1;stroke:rgba(46,208,0,1.0);fill:rgba(46,208,0,1.0)"/><path  d="" style="stroke-width:1;stroke:rgba(46,208,0,1.0);fill:rgba(46,208,0,1.0)"/><circle cx="622" cy="26" r="5" style="stroke-width:1;stroke:rgba(0,255,0,1.0);fill:rgba(0,255,0,1.0)"/><path  d="" style="stroke-width:1;stroke:rgba(0,255,0,1.0);fill:rgba(0,255,0,1.0)"/><circle cx="12" cy="499" r="5" style="stroke-width:1;stroke:rgba(237,12,0,1.0);fill:rgba(237,12,0,1.0)"/><path  d="" style="stroke-width:1;stroke:rgba(237,12,0,1.0);fill:rgba(237,12,0,1.0)"/><circle cx="251" cy="257" r="5" style="stroke-width:1;stroke:rgba(131,119,0,1.0);fill:rgba(131,119,0,1.0)"/><path  d="" style="stroke-width:1;stroke:rgba(131,119,0,1.0);fill:rgba(131,119,0,1.0)"/><circle cx="595" cy="30" r="5" style="stroke-width:1;stroke:rgba(6,246,0,1.0);fill:rgba(6,246,0,1.0)"/><path  d="" style="stroke-width:1;stroke:rgba(6,246,0,1.0);fill:rgba(6,246,0,1.0)"/><circle cx="605" cy="93" r="5" style="stroke-width:1;stroke:rgba(19,231,0,1.0);fill:rgba(19,231,0,1.0)"/><path  d="" style="stroke-width:1;stroke:rgba(19,231,0,1.0);fill:rgba(19,231,0,1.0)"/><circle cx="561" cy="56" r="5" style="stroke-width:1;stroke:rgba(20,233,0,1.0);fill:rgba(20,233,0,1.0)"/><path  d="" style="stroke-width:1;stroke:rgba(20,233,0,1.0);fill:rgba(20,233,0,1.0)"/><circle cx="272" cy="255" r="5" style="stroke-width:1;stroke:rgba(127,125,0,1.0);fill:rgba(127,125,0,1.0)"/><path  d="" style="stroke-width:1;stroke:rgba(127,125,0,1.0);fill:rgba(127,125,0,1.0)"/><circle cx="612" cy="43" r="5" style="stroke-width:1;stroke:rgba(6,248,0,1.0);fill:rgba(6,248,0,1.0)"/><path  d="" style="stroke-width:1;stroke:rgba(6,248,0,1.0);fill:rgba(6,248,0,1.0)"/><circle cx="581" cy="48" r="5" style="stroke-width:1;stroke:rgba(14,240,0,1.0);fill:rgba(14,240,0,1.0)"/><path  d="" style="stroke-width:1;stroke:rgba(14,240,0,1.0);fill:rgba(14,240,0,1.0)"/><circle cx="619" cy="33" r="5" style="stroke-width:1;stroke:rgba(2,252,0,1.0);fill:rgba(2,252,0,1.0)"/><path  d="" style="stroke-width:1;stroke:rgba(2,252,0,1.0);fill:rgba(2,252,0,1.0)"/><path  d="M 493 111
L 503 100
L 605 100
L 605 122
L 503 122
L 493 111
Z" style="stroke-width:1;stroke:rgba(63,127,255,1.0);fill:rgba(255,255,255,1.0)"/><text x="508" y="117" style="stroke-width:0;stroke:none;fill:rgba(51,51,51,1.0);font-size:12.8px;font-family:'Roboto Medium',sans-serif">madkins/sloggy</text><path  d="M 622 16
L 632 5
L 710 5
L 710 27
L 632 27
L 622 16
Z" style="stroke-width:1;stroke:rgba(63,127,255,1.0);fill:rgba(255,255,255,1.0)"/><text x="637" y="22" style="stroke-width:0;stroke:none;fill:rgba(51,51,51,1.0);font-size:12.8px;font-family:'Roboto Medium',sans-serif">phuslu/slog</text><path  d="M 12 499
L 22 488
L 145 488
L 145 510
L 22 510
L 12 499
Z" style="stroke-width:1;stroke:rgba(63,127,255,1.0);fill:rgba(255,255,255,1.0)"/><text x="27" y="505" style="stroke-width:0;stroke:none;fill:rgba(51,51,51,1.0);font-size:12.8px;font-family:'Roboto Medium',sans-serif">samber/slog-logrus</text><path  d="M 251 268
L 261 257
L 369 257
L 369 279
L 261 279
L 251 268
Z" style="stroke-width:1;stroke:rgba(63,127,255,1.0);fill:rgba(255,255,255,1.0)"/><text x="266" y="274" style="stroke-width:0;stroke:none;fill:rgba(51,51,51,1.0);font-size:12.8px;font-family:'Roboto Medium',sans-serif">samber/slog-zap</text><path  d="M 595 39
L 605 28
L 719 28
L 719 50
L 605 50
L 595 39
Z" style="stroke-width:1;stroke:rgba(63,127,255,1.0);fill:rgba(255,255,255,1.0)"/><text x="610" y="45" style="stroke-width:0;stroke:none;fill:rgba(51,51,51,1.0);font-size:12.8px;font-family:'Roboto Medium',sans-serif">svcrunner/jsonlog</text><path  d="M 605 88
L 615 77
L 746 77
L 746 99
L 615 99
L 605 88
Z" style="stroke-width:1;stroke:rgba(63,127,255,1.0);fill:rgba(255,255,255,1.0)"/><text x="620" y="94" style="stroke-width:0;stroke:none;fill:rgba(51,51,51,1.0);font-size:12.8px;font-family:'Roboto Medium',sans-serif">chanchal/zaphandler</text><path  d="M 561 61
L 571 50
L 677 50
L 677 72
L 571 72
L 561 61
Z" style="stroke-width:1;stroke:rgba(63,127,255,1.0);fill:rgba(255,255,255,1.0)"/><text x="576" y="67" style="stroke-width:0;stroke:none;fill:rgba(51,51,51,1.0);font-size:12.8px;font-family:'Roboto Medium',sans-serif">madkins/replattr</text><path  d="M 272 244
L 282 233
L 412 233
L 412 255
L 282 255
L 272 244
Z" style="stroke-width:1;stroke:rgba(63,127,255,1.0);fill:rgba(255,255,255,1.0)"/><text x="287" y="250" style="stroke-width:0;stroke:none;fill:rgba(51,51,51,1.0);font-size:12.8px;font-family:'Roboto Medium',sans-serif">samber/slog-zerolog</text><path  d="M 612 38
L 622 27
L 740 27
L 740 49
L 622 49
L 612 38
Z" style="stroke-width:1;stroke:rgba(63,127,255,1.0);fill:rgba(255,255,255,1.0)"/><text x="627" y="44" style="stroke-width:0;stroke:none;fill:rgba(51,51,51,1.0);font-size:12.8px;font-family:'Roboto Medium',sans-serif">slog/JSONHandler</text><path  d="M 581 52
L 591 41
L 684 41
L 684 63
L 591 63
L 581 52
Z" style="stroke-width:1;stroke:rgba(63,127,255,1.0);fill:rgba(255,255,255,1.0)"/><text x="596" y="58" style="stroke-width:0;stroke:none;fill:rgba(51,51,51,1.0);font-size:12.8px;font-family:'Roboto Medium',sans-serif">madkins/flash</text><path  d="M 619 28
L 629 17
L 732 17
L 732 39
L 629 39
L 619 28
Z" style="stroke-width:1;stroke:rgba(63,127,255,1.0);fill:rgba(255,255,255,1.0)"/><text x="634" y="34" style="stroke-width:0;stroke:none;fill:rgba(51,51,51,1.0);font-size:12.8px;font-family:'Roboto Medium',sans-serif">phsym/zeroslog</text></svg>