<svg version="1.1" viewBox="0.0 0.0 306.8320209973753 134.70603674540683" fill="none" stroke="none" stroke-linecap="square" stroke-miterlimit="10" xmlns:xlink="http://www.w3.org/1999/xlink" xmlns="http://www.w3.org/2000/svg"><clipPath id="p.0"><path d="m0 0l306.83203 0l0 134.70604l-306.83203 0l0 -134.70604z" clip-rule="nonzero"/></clipPath><g clip-path="url(#p.0)"><path fill="#ffffff" d="m0 0l306.83203 0l0 134.70604l-306.83203 0z" fill-rule="evenodd"/><path fill="#cfe2f3" d="m23.637794 23.028872l0 0c0 -2.449768 1.9859295 -4.4356956 4.4356956 -4.4356956l50.75066 0c1.1764145 0 2.3046494 0.46733093 3.1365051 1.2991848c0.8318558 0.83185387 1.2991867 1.9600906 1.2991867 3.1365108l0 17.74278c0 2.449768 -1.9859314 4.4356956 -4.435692 4.4356956l-50.75066 0c-2.4497662 0 -4.4356956 -1.9859276 -4.4356956 -4.4356956z" fill-rule="evenodd"/><path stroke="#000000" stroke-width="1.0" stroke-linejoin="round" stroke-linecap="butt" d="m23.637794 23.028872l0 0c0 -2.449768 1.9859295 -4.4356956 4.4356956 -4.4356956l50.75066 0c1.1764145 0 2.3046494 0.46733093 3.1365051 1.2991848c0.8318558 0.83185387 1.2991867 1.9600906 1.2991867 3.1365108l0 17.74278c0 2.449768 -1.9859314 4.4356956 -4.435692 4.4356956l-50.75066 0c-2.4497662 0 -4.4356956 -1.9859276 -4.4356956 -4.4356956z" fill-rule="evenodd"/><path fill="#000000" d="m33.8121 29.580263l0 -5.734375l2.140625 0q0.65625 0 1.046875 0.1875q0.40625 0.171875 0.625 0.53125q0.234375 0.359375 0.234375 0.75q0 0.375 -0.203125 0.703125q-0.203125 0.3125 -0.609375 0.515625q0.53125 0.15625 0.796875 0.53125q0.28125 0.359375 0.28125 0.859375q0 0.390625 -0.171875 0.75q-0.15625 0.34375 -0.40625 0.53125q-0.25 0.1875 -0.640625 0.28125q-0.375 0.09375 -0.921875 0.09375l-2.171875 0zm0.75 -3.328125l1.234375 0q0.515625 0 0.734375 -0.0625q0.28125 -0.078125 0.421875 -0.28125q0.15625 -0.203125 0.15625 -0.5q0 -0.28125 -0.140625 -0.5q-0.140625 -0.21875 -0.390625 -0.296875q-0.25 -0.078125 -0.875 -0.078125l-1.140625 0l0 1.71875zm0 2.65625l1.421875 0q0.375 0 0.515625 -0.03125q0.265625 -0.046875 0.4375 -0.15625q0.1875 -0.109375 0.296875 -0.3125q0.109375 -0.21875 0.109375 -0.484375q0 -0.328125 -0.171875 -0.5625q-0.15625 -0.234375 -0.453125 -0.328125q-0.28125 -0.09375 -0.828125 -0.09375l-1.328125 0l0 1.96875zm7.3671875 -0.671875l0.71875 0.09375q-0.171875 0.640625 -0.640625 1.0q-0.453125 0.34375 -1.1875 0.34375q-0.90625 0 -1.4375 -0.5625q-0.53125 -0.5625 -0.53125 -1.578125q0 -1.046875 0.53125 -1.625q0.546875 -0.578125 1.40625 -0.578125q0.828125 0 1.359375 0.578125q0.53125 0.5625 0.53125 1.59375q0 0.0625 -0.015625 0.1875l-3.09375 0q0.046875 0.671875 0.390625 1.046875q0.34375 0.359375 0.875 0.359375q0.375 0 0.640625 -0.203125q0.28125 -0.203125 0.453125 -0.65625zm-2.3125 -1.125l2.3125 0q-0.046875 -0.53125 -0.265625 -0.796875q-0.328125 -0.40625 -0.875 -0.40625q-0.484375 0 -0.8125 0.328125q-0.328125 0.328125 -0.359375 0.875zm3.9179688 2.46875l0 -4.15625l0.625 0l0 0.59375q0.46875 -0.6875 1.328125 -0.6875q0.375 0 0.6875 0.140625q0.3125 0.140625 0.46875 0.359375q0.15625 0.21875 0.21875 0.515625q0.046875 0.1875 0.046875 0.6875l0 2.546875l-0.703125 0l0 -2.53125q0 -0.421875 -0.09375 -0.625q-0.078125 -0.21875 -0.296875 -0.34375q-0.203125 -0.140625 -0.484375 -0.140625q-0.4375 0 -0.765625 0.296875q-0.328125 0.28125 -0.328125 1.078125l0 2.265625l-0.703125 0zm7.1523438 -1.515625l0.6875 0.078125q-0.109375 0.71875 -0.578125 1.125q-0.46875 0.40625 -1.140625 0.40625q-0.859375 0 -1.375 -0.546875q-0.515625 -0.5625 -0.515625 -1.609375q0 -0.671875 0.21875 -1.171875q0.234375 -0.5 0.6875 -0.75q0.453125 -0.265625 0.984375 -0.265625q0.671875 0 1.09375 0.34375q0.4375 0.34375 0.5625 0.96875l-0.6875 0.109375q-0.09375 -0.421875 -0.34375 -0.625q-0.25 -0.21875 -0.59375 -0.21875q-0.53125 0 -0.875 0.390625q-0.328125 0.375 -0.328125 1.203125q0 0.828125 0.3125 1.21875q0.328125 0.375 0.84375 0.375q0.421875 0 0.6875 -0.25q0.28125 -0.265625 0.359375 -0.78125zm1.296875 1.515625l0 -5.734375l0.703125 0l0 2.0625q0.484375 -0.578125 1.234375 -0.578125q0.46875 0 0.796875 0.1875q0.34375 0.1875 0.484375 0.515625q0.15625 0.3125 0.15625 0.921875l0 2.625l-0.703125 0l0 -2.625q0 -0.53125 -0.234375 -0.765625q-0.21875 -0.25 -0.640625 -0.25q-0.3125 0 -0.59375 0.171875q-0.265625 0.15625 -0.390625 0.4375q-0.109375 0.265625 -0.109375 0.765625l0 2.265625l-0.703125 0zm4.4492188 0l0 -4.15625l0.625 0l0 0.59375q0.203125 -0.3125 0.515625 -0.5q0.328125 -0.1875 0.75 -0.1875q0.453125 0 0.75 0.203125q0.296875 0.1875 0.421875 0.53125q0.484375 -0.734375 1.28125 -0.734375q0.609375 0 0.9375 0.34375q0.34375 0.34375 0.34375 1.0625l0 2.84375l-0.703125 0l0 -2.609375q0 -0.421875 -0.078125 -0.609375q-0.0625 -0.1875 -0.25 -0.296875q-0.171875 -0.125 -0.40625 -0.125q-0.4375 0 -0.734375 0.296875q-0.28125 0.296875 -0.28125 0.9375l0 2.40625l-0.703125 0l0 -2.703125q0 -0.46875 -0.171875 -0.703125q-0.171875 -0.234375 -0.5625 -0.234375q-0.296875 0 -0.5625 0.15625q-0.25 0.15625 -0.359375 0.46875q-0.109375 0.296875 -0.109375 0.859375l0 2.15625l-0.703125 0zm9.367191 -0.515625q-0.390625 0.328125 -0.75 0.46875q-0.359375 0.140625 -0.78125 0.140625q-0.6718788 0 -1.0468788 -0.328125q-0.359375 -0.34375 -0.359375 -0.859375q0 -0.3125 0.125 -0.5625q0.140625 -0.25 0.359375 -0.390625q0.234375 -0.15625 0.515625 -0.234375q0.20312881 -0.0625 0.6250038 -0.109375q0.859375 -0.109375 1.25 -0.25q0.015625 -0.140625 0.015625 -0.171875q0 -0.4375 -0.203125 -0.609375q-0.265625 -0.234375 -0.796875 -0.234375q-0.5 0 -0.734375 0.171875q-0.23437881 0.171875 -0.3593788 0.609375l-0.6875 -0.09375q0.09375 -0.4375 0.3125 -0.703125q0.21875 -0.28125 0.625 -0.421875q0.4062538 -0.15625 0.9375038 -0.15625q0.53125 0 0.859375 0.125q0.34375 0.125 0.5 0.328125q0.15625 0.1875 0.21875 0.46875q0.03125 0.1875 0.03125 0.65625l0 0.9375q0 0.96875 0.046875 1.234375q0.046875 0.265625 0.171875 0.5l-0.734375 0q-0.109375 -0.21875 -0.140625 -0.515625zm-0.0625 -1.5625q-0.375 0.15625 -1.140625 0.265625q-0.4375 0.0625 -0.6250038 0.140625q-0.171875 0.078125 -0.265625 0.234375q-0.09375 0.140625 -0.09375 0.328125q0 0.28125 0.203125 0.46875q0.21875381 0.1875 0.6250038 0.1875q0.40625 0 0.71875 -0.171875q0.328125 -0.1875 0.46875 -0.5q0.109375 -0.234375 0.109375 -0.703125l0 -0.25zm1.7929688 2.078125l0 -4.15625l0.640625 0l0 0.640625q0.234375 -0.453125 0.4375 -0.59375q0.21875 -0.140625 0.453125 -0.140625q0.359375 0 0.734375 0.234375l-0.25 0.65625q-0.25 -0.15625 -0.515625 -0.15625q-0.234375 0 -0.421875 0.140625q-0.171875 0.140625 -0.25 0.375q-0.125 0.375 -0.125 0.828125l0 2.171875l-0.703125 0zm2.6796875 0l0 -5.734375l0.703125 0l0 3.265625l1.671875 -1.6875l0.90625 0l-1.59375 1.546875l1.75 2.609375l-0.859375 0l-1.375 -2.125l-0.5 0.484375l0 1.640625l-0.703125 0z" fill-rule="nonzero"/><path fill="#000000" d="m46.191006 39.58026l0 -5.046875l-1.890625 0l0 -0.6875l4.546875 0l0 0.6875l-1.90625 0l0 5.046875l-0.75 0zm5.296875 -1.34375l0.71875 0.09375q-0.171875 0.640625 -0.640625 1.0q-0.453125 0.34375 -1.1875 0.34375q-0.90625 0 -1.4375 -0.5625q-0.53125 -0.5625 -0.53125 -1.578125q0 -1.046875 0.53125 -1.625q0.546875 -0.578125 1.40625 -0.578125q0.828125 0 1.359375 0.578125q0.53125 0.5625 0.53125 1.59375q0 0.0625 -0.015625 0.1875l-3.09375 0q0.046875 0.671875 0.390625 1.046875q0.34375 0.359375 0.875 0.359375q0.375 0 0.640625 -0.203125q0.28125 -0.203125 0.453125 -0.65625zm-2.3125 -1.125l2.3125 0q-0.046875 -0.53125 -0.265625 -0.796875q-0.328125 -0.40625 -0.875 -0.40625q-0.484375 0 -0.8125 0.328125q-0.328125 0.328125 -0.359375 0.875zm3.6367188 1.234375l0.6875 -0.109375q0.0625 0.40625 0.328125 0.640625q0.265625 0.21875 0.75 0.21875q0.484375 0 0.71875 -0.1875q0.234375 -0.203125 0.234375 -0.46875q0 -0.25 -0.203125 -0.375q-0.140625 -0.09375 -0.71875 -0.25q-0.78125 -0.1875 -1.078125 -0.328125q-0.296875 -0.140625 -0.453125 -0.390625q-0.15625 -0.265625 -0.15625 -0.5625q0 -0.28125 0.125 -0.515625q0.140625 -0.234375 0.359375 -0.390625q0.15625 -0.125 0.4375 -0.203125q0.28125 -0.09375 0.609375 -0.09375q0.484375 0 0.859375 0.140625q0.375 0.140625 0.546875 0.390625q0.171875 0.234375 0.234375 0.640625l-0.6875 0.09375q-0.046875 -0.328125 -0.265625 -0.5q-0.21875 -0.1875 -0.640625 -0.1875q-0.484375 0 -0.6875 0.171875q-0.203125 0.15625 -0.203125 0.375q0 0.125 0.078125 0.234375q0.09375 0.125 0.28125 0.1875q0.09375 0.046875 0.609375 0.1875q0.75 0.203125 1.046875 0.328125q0.296875 0.125 0.453125 0.375q0.171875 0.234375 0.171875 0.59375q0 0.34375 -0.203125 0.65625q-0.203125 0.3125 -0.59375 0.484375q-0.375 0.171875 -0.875 0.171875q-0.796875 0 -1.234375 -0.328125q-0.421875 -0.34375 -0.53125 -1.0zm5.8125 0.609375l0.109375 0.609375q-0.296875 0.078125 -0.53125 0.078125q-0.390625 0 -0.609375 -0.125q-0.203125 -0.125 -0.296875 -0.3125q-0.078125 -0.203125 -0.078125 -0.84375l0 -2.390625l-0.515625 0l0 -0.546875l0.515625 0l0 -1.015625l0.703125 -0.421875l0 1.4375l0.703125 0l0 0.546875l-0.703125 0l0 2.4375q0 0.296875 0.03125 0.390625q0.046875 0.078125 0.125 0.125q0.078125 0.046875 0.234375 0.046875q0.125 0 0.3125 -0.015625zm0.41015625 -0.609375l0.6875 -0.109375q0.0625 0.40625 0.328125 0.640625q0.265625 0.21875 0.75 0.21875q0.484375 0 0.71875 -0.1875q0.234375 -0.203125 0.234375 -0.46875q0 -0.25 -0.203125 -0.375q-0.140625 -0.09375 -0.71875 -0.25q-0.78125 -0.1875 -1.078125 -0.328125q-0.296875 -0.140625 -0.453125 -0.390625q-0.15625 -0.265625 -0.15625 -0.5625q0 -0.28125 0.125 -0.515625q0.140625 -0.234375 0.359375 -0.390625q0.15625 -0.125 0.4375 -0.203125q0.28125 -0.09375 0.609375 -0.09375q0.484375 0 0.859375 0.140625q0.375 0.140625 0.546875 0.390625q0.171875 0.234375 0.234375 0.640625l-0.6875 0.09375q-0.046875 -0.328125 -0.265625 -0.5q-0.21875 -0.1875 -0.640625 -0.1875q-0.484375 0 -0.6875 0.171875q-0.203125 0.15625 -0.203125 0.375q0 0.125 0.078125 0.234375q0.09375 0.125 0.28125 0.1875q0.09375 0.046875 0.609375 0.1875q0.75 0.203125 1.046875 0.328125q0.296875 0.125 0.453125 0.375q0.171875 0.234375 0.171875 0.59375q0 0.34375 -0.203125 0.65625q-0.203125 0.3125 -0.59375 0.484375q-0.375 0.171875 -0.875 0.171875q-0.796875 0 -1.234375 -0.328125q-0.421875 -0.34375 -0.53125 -1.0z" fill-rule="nonzero"/><path fill="#cfe2f3" d="m23.637794 94.98948l0 0c0 -2.449768 1.9859295 -4.4356995 4.4356956 -4.4356995l50.75066 0c1.1764145 0 2.3046494 0.46733093 3.1365051 1.2991867c0.8318558 0.8318558 1.2991867 1.9600906 1.2991867 3.1365128l0 17.742783c0 2.449768 -1.9859314 4.435692 -4.435692 4.435692l-50.75066 0c-2.4497662 0 -4.4356956 -1.9859238 -4.4356956 -4.435692z" fill-rule="evenodd"/><path stroke="#000000" stroke-width="1.0" stroke-linejoin="round" stroke-linecap="butt" d="m23.637794 94.98948l0 0c0 -2.449768 1.9859295 -4.4356995 4.4356956 -4.4356995l50.75066 0c1.1764145 0 2.3046494 0.46733093 3.1365051 1.2991867c0.8318558 0.8318558 1.2991867 1.9600906 1.2991867 3.1365128l0 17.742783c0 2.449768 -1.9859314 4.435692 -4.435692 4.435692l-50.75066 0c-2.4497662 0 -4.4356956 -1.9859238 -4.4356956 -4.435692z" fill-rule="evenodd"/><path fill="#000000" d="m36.132412 101.54087l-2.21875 -5.734375l0.828125 0l1.484375 4.171875q0.1875 0.5 0.296875 0.9375q0.140625 -0.46875 0.3125 -0.9375l1.546875 -4.171875l0.78125 0l-2.25 5.734375l-0.78125 0zm6.0195312 -1.34375l0.71875 0.09375q-0.171875 0.640625 -0.640625 1.0q-0.453125 0.34375 -1.1875 0.34375q-0.90625 0 -1.4375 -0.5625q-0.53125 -0.5625 -0.53125 -1.578125q0 -1.046875 0.53125 -1.625q0.546875 -0.578125 1.40625 -0.578125q0.828125 0 1.359375 0.578125q0.53125 0.5625 0.53125 1.59375q0 0.0625 -0.015625 0.1875l-3.09375 0q0.046875 0.671875 0.390625 1.046875q0.34375 0.359375 0.875 0.359375q0.375 0 0.640625 -0.203125q0.28125 -0.203125 0.453125 -0.65625zm-2.3125 -1.125l2.3125 0q-0.046875 -0.53125 -0.265625 -0.796875q-0.328125 -0.40625 -0.875 -0.40625q-0.484375 0 -0.8125 0.328125q-0.328125 0.328125 -0.359375 0.875zm3.9023438 2.46875l0 -4.15625l0.640625 0l0 0.640625q0.234375 -0.453125 0.4375 -0.59375q0.21875 -0.140625 0.453125 -0.140625q0.359375 0 0.734375 0.234375l-0.25 0.65625q-0.25 -0.15625 -0.515625 -0.15625q-0.234375 0 -0.421875 0.140625q-0.171875 0.140625 -0.25 0.375q-0.125 0.375 -0.125 0.828125l0 2.171875l-0.703125 0zm2.6796875 -4.921875l0 -0.8125l0.703125 0l0 0.8125l-0.703125 0zm0 4.921875l0 -4.15625l0.703125 0l0 4.15625l-0.703125 0zm1.9492188 0l0 -3.609375l-0.625 0l0 -0.546875l0.625 0l0 -0.4375q0 -0.421875 0.0625 -0.625q0.109375 -0.265625 0.359375 -0.4375q0.265625 -0.171875 0.71875 -0.171875q0.296875 0 0.65625 0.078125l-0.109375 0.609375q-0.21875 -0.046875 -0.40625 -0.046875q-0.328125 0 -0.46875 0.140625q-0.125 0.140625 -0.125 0.515625l0 0.375l0.8125 0l0 0.546875l-0.8125 0l0 3.609375l-0.6875 0zm2.0507812 -4.921875l0 -0.8125l0.703125 0l0 0.8125l-0.703125 0zm0 4.921875l0 -4.15625l0.703125 0l0 4.15625l-0.703125 0zm4.4804688 -1.515625l0.6875 0.078125q-0.109375 0.71875 -0.578125 1.125q-0.46875 0.40625 -1.140625 0.40625q-0.859375 0 -1.375 -0.546875q-0.515625 -0.5625 -0.515625 -1.609375q0 -0.671875 0.21875 -1.171875q0.234375 -0.5 0.6875 -0.75q0.453125 -0.265625 0.984375 -0.265625q0.671875 0 1.09375 0.34375q0.4375 0.34375 0.5625 0.96875l-0.6875 0.109375q-0.09375 -0.421875 -0.34375 -0.625q-0.25 -0.21875 -0.59375 -0.21875q-0.53125 0 -0.875 0.390625q-0.328125 0.375 -0.328125 1.203125q0 0.828125 0.3125 1.21875q0.328125 0.375 0.84375 0.375q0.421875 0 0.6875 -0.25q0.28125 -0.265625 0.359375 -0.78125zm4.0 1.0q-0.390625 0.328125 -0.75 0.46875q-0.359375 0.140625 -0.78125 0.140625q-0.671875 0 -1.046875 -0.328125q-0.359375 -0.34375 -0.359375 -0.859375q0 -0.3125 0.125 -0.5625q0.140625 -0.25 0.359375 -0.390625q0.234375 -0.15625 0.515625 -0.234375q0.203125 -0.0625 0.625 -0.109375q0.859375 -0.109375 1.25 -0.25q0.015625 -0.140625 0.015625 -0.171875q0 -0.4375 -0.203125 -0.609375q-0.265625 -0.234375 -0.796875 -0.234375q-0.5 0 -0.734375 0.171875q-0.234375 0.171875 -0.359375 0.609375l-0.6875 -0.09375q0.09375 -0.4375 0.3125 -0.703125q0.21875 -0.28125 0.625 -0.421875q0.40625 -0.15625 0.9375 -0.15625q0.53125 0 0.859375 0.125q0.34375 0.125 0.5 0.328125q0.15625 0.1875 0.21875 0.46875q0.03125 0.1875 0.03125 0.65625l0 0.9375q0 0.96875 0.046875 1.234375q0.046875 0.265625 0.171875 0.5l-0.734375 0q-0.109375 -0.21875 -0.140625 -0.515625zm-0.0625 -1.5625q-0.375 0.15625 -1.140625 0.265625q-0.4375 0.0625 -0.625 0.140625q-0.171875 0.078125 -0.265625 0.234375q-0.09375 0.140625 -0.09375 0.328125q0 0.28125 0.203125 0.46875q0.21875 0.1875 0.625 0.1875q0.40625 0 0.71875 -0.171875q0.328125 -0.1875 0.46875 -0.5q0.109375 -0.234375 0.109375 -0.703125l0 -0.25zm3.3398438 1.453125l0.109375 0.609375q-0.296875 0.078125 -0.53125 0.078125q-0.390625 0 -0.609375 -0.125q-0.203125 -0.125 -0.296875 -0.3125q-0.078125 -0.203125 -0.078125 -0.84375l0 -2.390625l-0.515625 0l0 -0.546875l0.515625 0l0 -1.015625l0.703125 -0.421875l0 1.4375l0.703125 0l0 0.546875l-0.703125 0l0 2.4375q0 0.296875 0.03125 0.390625q0.046875 0.078125 0.125 0.125q0.078125 0.046875 0.234375 0.046875q0.125 0 0.3125 -0.015625zm0.69140625 -4.296875l0 -0.8125l0.703125 0l0 0.8125l-0.703125 0zm0 4.921875l0 -4.15625l0.703125 0l0 4.15625l-0.703125 0zm1.5117226 -2.078125q0 -1.15625 0.640625 -1.703125q0.53125 -0.46875 1.3125 -0.46875q0.84375 0 1.390625 0.5625q0.546875 0.5625 0.546875 1.546875q0 0.8125 -0.25 1.265625q-0.234375 0.453125 -0.703125 0.71875q-0.453125 0.25 -0.984375 0.25q-0.875 0 -1.421875 -0.5625q-0.53125 -0.5625 -0.53125 -1.609375zm0.71875 0q0 0.796875 0.34375 1.203125q0.359375 0.390625 0.890625 0.390625q0.515625 0 0.859375 -0.390625q0.359375 -0.40625 0.359375 -1.21875q0 -0.78125 -0.359375 -1.171875q-0.34375 -0.390625 -0.859375 -0.390625q-0.53125 0 -0.890625 0.390625q-0.34375 0.390625 -0.34375 1.1875zm3.9960938 2.078125l0 -4.15625l0.625 0l0 0.59375q0.46875 -0.6875 1.328125 -0.6875q0.375 0 0.6875 0.140625q0.3125 0.140625 0.46875 0.359375q0.15625 0.21875 0.21875 0.515625q0.046875 0.1875 0.046875 0.6875l0 2.546875l-0.703125 0l0 -2.53125q0 -0.421875 -0.09375 -0.625q-0.078125 -0.21875 -0.296875 -0.34375q-0.203125 -0.140625 -0.484375 -0.140625q-0.4375 0 -0.765625 0.296875q-0.328125 0.28125 -0.328125 1.078125l0 2.265625l-0.703125 0z" fill-rule="nonzero"/><path fill="#000000" d="m46.191006 111.54087l0 -5.046875l-1.890625 0l0 -0.6875l4.546875 0l0 0.6875l-1.90625 0l0 5.046875l-0.75 0zm5.296875 -1.34375l0.71875 0.09375q-0.171875 0.640625 -0.640625 1.0q-0.453125 0.34375 -1.1875 0.34375q-0.90625 0 -1.4375 -0.5625q-0.53125 -0.5625 -0.53125 -1.578125q0 -1.046875 0.53125 -1.625q0.546875 -0.578125 1.40625 -0.578125q0.828125 0 1.359375 0.578125q0.53125 0.5625 0.53125 1.59375q0 0.0625 -0.015625 0.1875l-3.09375 0q0.046875 0.671875 0.390625 1.046875q0.34375 0.359375 0.875 0.359375q0.375 0 0.640625 -0.203125q0.28125 -0.203125 0.453125 -0.65625zm-2.3125 -1.125l2.3125 0q-0.046875 -0.53125 -0.265625 -0.796875q-0.328125 -0.40625 -0.875 -0.40625q-0.484375 0 -0.8125 0.328125q-0.328125 0.328125 -0.359375 0.875zm3.6367188 1.234375l0.6875 -0.109375q0.0625 0.40625 0.328125 0.640625q0.265625 0.21875 0.75 0.21875q0.484375 0 0.71875 -0.1875q0.234375 -0.203125 0.234375 -0.46875q0 -0.25 -0.203125 -0.375q-0.140625 -0.09375 -0.71875 -0.25q-0.78125 -0.1875 -1.078125 -0.328125q-0.296875 -0.140625 -0.453125 -0.390625q-0.15625 -0.265625 -0.15625 -0.5625q0 -0.28125 0.125 -0.515625q0.140625 -0.234375 0.359375 -0.390625q0.15625 -0.125 0.4375 -0.203125q0.28125 -0.09375 0.609375 -0.09375q0.484375 0 0.859375 0.140625q0.375 0.140625 0.546875 0.390625q0.171875 0.234375 0.234375 0.640625l-0.6875 0.09375q-0.046875 -0.328125 -0.265625 -0.5q-0.21875 -0.1875 -0.640625 -0.1875q-0.484375 0 -0.6875 0.171875q-0.203125 0.15625 -0.203125 0.375q0 0.125 0.078125 0.234375q0.09375 0.125 0.28125 0.1875q0.09375 0.046875 0.609375 0.1875q0.75 0.203125 1.046875 0.328125q0.296875 0.125 0.453125 0.375q0.171875 0.234375 0.171875 0.59375q0 0.34375 -0.203125 0.65625q-0.203125 0.3125 -0.59375 0.484375q-0.375 0.171875 -0.875 0.171875q-0.796875 0 -1.234375 -0.328125q-0.421875 -0.34375 -0.53125 -1.0zm5.8125 0.609375l0.109375 0.609375q-0.296875 0.078125 -0.53125 0.078125q-0.390625 0 -0.609375 -0.125q-0.203125 -0.125 -0.296875 -0.3125q-0.078125 -0.203125 -0.078125 -0.84375l0 -2.390625l-0.515625 0l0 -0.546875l0.515625 0l0 -1.015625l0.703125 -0.421875l0 1.4375l0.703125 0l0 0.546875l-0.703125 0l0 2.4375q0 0.296875 0.03125 0.390625q0.046875 0.078125 0.125 0.125q0.078125 0.046875 0.234375 0.046875q0.125 0 0.3125 -0.015625zm0.41015625 -0.609375l0.6875 -0.109375q0.0625 0.40625 0.328125 0.640625q0.265625 0.21875 0.75 0.21875q0.484375 0 0.71875 -0.1875q0.234375 -0.203125 0.234375 -0.46875q0 -0.25 -0.203125 -0.375q-0.140625 -0.09375 -0.71875 -0.25q-0.78125 -0.1875 -1.078125 -0.328125q-0.296875 -0.140625 -0.453125 -0.390625q-0.15625 -0.265625 -0.15625 -0.5625q0 -0.28125 0.125 -0.515625q0.140625 -0.234375 0.359375 -0.390625q0.15625 -0.125 0.4375 -0.203125q0.28125 -0.09375 0.609375 -0.09375q0.484375 0 0.859375 0.140625q0.375 0.140625 0.546875 0.390625q0.171875 0.234375 0.234375 0.640625l-0.6875 0.09375q-0.046875 -0.328125 -0.265625 -0.5q-0.21875 -0.1875 -0.640625 -0.1875q-0.484375 0 -0.6875 0.171875q-0.203125 0.15625 -0.203125 0.375q0 0.125 0.078125 0.234375q0.09375 0.125 0.28125 0.1875q0.09375 0.046875 0.609375 0.1875q0.75 0.203125 1.046875 0.328125q0.296875 0.125 0.453125 0.375q0.171875 0.234375 0.171875 0.59375q0 0.34375 -0.203125 0.65625q-0.203125 0.3125 -0.59375 0.484375q-0.375 0.171875 -0.875 0.171875q-0.796875 0 -1.234375 -0.328125q-0.421875 -0.34375 -0.53125 -1.0z" fill-rule="nonzero"/><path fill="#cfe2f3" d="m127.637794 13.2338085l55.63276 0l0 30.684038c-27.816376 0 -27.816376 11.691181 -55.63276 5.048462z" fill-rule="evenodd"/><path stroke="#000000" stroke-width="1.0" stroke-linejoin="round" stroke-linecap="butt" d="m127.637794 13.2338085l55.63276 0l0 30.684038c-27.816376 0 -27.816376 11.691181 -55.63276 5.048462z" fill-rule="evenodd"/><path fill="#000000" d="m135.81746 21.255827l0 -5.734376l2.140625 0q0.65625 0 1.046875 0.1875q0.40625 0.171875 0.625 0.53125095q0.234375 0.359375 0.234375 0.75q0 0.375 -0.203125 0.703125q-0.203125 0.3125 -0.609375 0.515625q0.53125 0.15625 0.796875 0.53125q0.28125 0.359375 0.28125 0.859375q0 0.390625 -0.171875 0.75q-0.15625 0.34375 -0.40625 0.53125q-0.25 0.1875 -0.640625 0.28125q-0.375 0.09375 -0.921875 0.09375l-2.171875 0zm0.75 -3.328125l1.234375 0q0.515625 0 0.734375 -0.0625q0.28125 -0.078125 0.421875 -0.28125q0.15625 -0.203125 0.15625 -0.5q0 -0.28125 -0.140625 -0.5q-0.140625 -0.21875 -0.390625 -0.296875q-0.25 -0.078125 -0.875 -0.078125l-1.140625 0l0 1.71875zm0 2.65625l1.421875 0q0.375 0 0.515625 -0.03125q0.265625 -0.046875 0.4375 -0.15625q0.1875 -0.109375 0.296875 -0.3125q0.109375 -0.21875 0.109375 -0.484375q0 -0.328125 -0.171875 -0.5625q-0.15625 -0.234375 -0.453125 -0.328125q-0.28125 -0.09375 -0.828125 -0.09375l-1.328125 0l0 1.96875zm7.3671875 -0.671875l0.71875 0.09375q-0.171875 0.640625 -0.640625 1.0q-0.453125 0.34375 -1.1875 0.34375q-0.90625 0 -1.4375 -0.5625q-0.53125 -0.5625 -0.53125 -1.578125q0 -1.046875 0.53125 -1.625q0.546875 -0.578125 1.40625 -0.578125q0.828125 0 1.359375 0.578125q0.53125 0.5625 0.53125 1.59375q0 0.0625 -0.015625 0.1875l-3.09375 0q0.046875 0.671875 0.390625 1.046875q0.34375 0.359375 0.875 0.359375q0.375 0 0.640625 -0.203125q0.28125 -0.203125 0.453125 -0.65625zm-2.3125 -1.125l2.3125 0q-0.046875 -0.53125 -0.265625 -0.796875q-0.328125 -0.40625 -0.875 -0.40625q-0.484375 0 -0.8125 0.328125q-0.328125 0.328125 -0.359375 0.875zm3.9179688 2.46875l0 -4.15625l0.625 0l0 0.59375q0.46875 -0.6875 1.328125 -0.6875q0.375 0 0.6875 0.140625q0.3125 0.140625 0.46875 0.359375q0.15625 0.21875 0.21875 0.515625q0.046875 0.1875 0.046875 0.6875l0 2.546875l-0.703125 0l0 -2.53125q0 -0.421875 -0.09375 -0.625q-0.078125 -0.21875 -0.296875 -0.34375q-0.203125 -0.140625 -0.484375 -0.140625q-0.4375 0 -0.765625 0.296875q-0.328125 0.28125 -0.328125 1.078125l0 2.265625l-0.703125 0zm7.1523438 -1.515625l0.6875 0.078125q-0.109375 0.71875 -0.578125 1.125q-0.46875 0.40625 -1.140625 0.40625q-0.859375 0 -1.375 -0.546875q-0.515625 -0.5625 -0.515625 -1.609375q0 -0.671875 0.21875 -1.171875q0.234375 -0.5 0.6875 -0.75q0.453125 -0.265625 0.984375 -0.265625q0.671875 0 1.09375 0.34375q0.4375 0.34375 0.5625 0.96875l-0.6875 0.109375q-0.09375 -0.421875 -0.34375 -0.625q-0.25 -0.21875 -0.59375 -0.21875q-0.53125 0 -0.875 0.390625q-0.328125 0.375 -0.328125 1.203125q0 0.828125 0.3125 1.21875q0.328125 0.375 0.84375 0.375q0.421875 0 0.6875 -0.25q0.28125 -0.265625 0.359375 -0.78125zm1.296875 1.515625l0 -5.734376l0.703125 0l0 2.062501q0.484375 -0.578125 1.234375 -0.578125q0.46875 0 0.796875 0.1875q0.34375 0.1875 0.484375 0.515625q0.15625 0.3125 0.15625 0.921875l0 2.625l-0.703125 0l0 -2.625q0 -0.53125 -0.234375 -0.765625q-0.21875 -0.25 -0.640625 -0.25q-0.3125 0 -0.59375 0.171875q-0.265625 0.15625 -0.390625 0.4375q-0.109375 0.265625 -0.109375 0.765625l0 2.265625l-0.703125 0zm4.4492188 0l0 -4.15625l0.625 0l0 0.59375q0.203125 -0.3125 0.515625 -0.5q0.328125 -0.1875 0.75 -0.1875q0.453125 0 0.75 0.203125q0.296875 0.1875 0.421875 0.53125q0.484375 -0.734375 1.28125 -0.734375q0.609375 0 0.9375 0.34375q0.34375 0.34375 0.34375 1.0625l0 2.84375l-0.703125 0l0 -2.609375q0 -0.421875 -0.078125 -0.609375q-0.0625 -0.1875 -0.25 -0.296875q-0.171875 -0.125 -0.40625 -0.125q-0.4375 0 -0.734375 0.296875q-0.28125 0.296875 -0.28125 0.9375l0 2.40625l-0.703125 0l0 -2.703125q0 -0.46875 -0.171875 -0.703125q-0.171875 -0.234375 -0.5625 -0.234375q-0.296875 0 -0.5625 0.15625q-0.25 0.15625 -0.359375 0.46875q-0.109375 0.296875 -0.109375 0.859375l0 2.15625l-0.703125 0zm9.3671875 -0.515625q-0.390625 0.328125 -0.75 0.46875q-0.359375 0.140625 -0.78125 0.140625q-0.671875 0 -1.046875 -0.328125q-0.359375 -0.34375 -0.359375 -0.859375q0 -0.3125 0.125 -0.5625q0.140625 -0.25 0.359375 -0.390625q0.234375 -0.15625 0.515625 -0.234375q0.203125 -0.0625 0.625 -0.109375q0.859375 -0.109375 1.25 -0.25q0.015625 -0.140625 0.015625 -0.171875q0 -0.4375 -0.203125 -0.609375q-0.265625 -0.234375 -0.796875 -0.234375q-0.5 0 -0.734375 0.171875q-0.234375 0.171875 -0.359375 0.609375l-0.6875 -0.09375q0.09375 -0.4375 0.3125 -0.703125q0.21875 -0.28125 0.625 -0.421875q0.40625 -0.15625 0.9375 -0.15625q0.53125 0 0.859375 0.125q0.34375 0.125 0.5 0.328125q0.15625 0.1875 0.21875 0.46875q0.03125 0.1875 0.03125 0.65625l0 0.9375q0 0.96875 0.046875 1.234375q0.046875 0.265625 0.171875 0.5l-0.734375 0q-0.109375 -0.21875 -0.140625 -0.515625zm-0.0625 -1.5625q-0.375 0.15625 -1.140625 0.265625q-0.4375 0.0625 -0.625 0.140625q-0.171875 0.078125 -0.265625 0.234375q-0.09375 0.140625 -0.09375 0.328125q0 0.28125 0.203125 0.46875q0.21875 0.1875 0.625 0.1875q0.40625 0 0.71875 -0.171875q0.328125 -0.1875 0.46875 -0.5q0.109375 -0.234375 0.109375 -0.703125l0 -0.25zm1.7929688 2.078125l0 -4.15625l0.640625 0l0 0.640625q0.234375 -0.453125 0.4375 -0.59375q0.21875 -0.140625 0.453125 -0.140625q0.359375 0 0.734375 0.234375l-0.25 0.65625q-0.25 -0.15625 -0.515625 -0.15625q-0.234375 0 -0.421875 0.140625q-0.171875 0.140625 -0.25 0.375q-0.125 0.375 -0.125 0.828125l0 2.171875l-0.703125 0zm2.6796875 0l0 -5.734376l0.703125 0l0 3.265626l1.671875 -1.6875l0.90625 0l-1.59375 1.546875l1.75 2.609375l-0.859375 0l-1.375 -2.125l-0.5 0.484375l0 1.640625l-0.703125 0z" fill-rule="nonzero"/><path fill="#000000" d="m143.85066 31.255827l0 -5.734375l1.96875 0q0.671875 0 1.015625 0.09375q0.5 0.109375 0.84375 0.40625q0.453125 0.375 0.671875 0.984375q0.234375 0.59375 0.234375 1.359375q0 0.640625 -0.15625 1.15625q-0.15625 0.5 -0.390625 0.828125q-0.234375 0.328125 -0.53125 0.515625q-0.28125 0.1875 -0.6875 0.296875q-0.390625 0.09375 -0.90625 0.09375l-2.0625 0zm0.75 -0.671875l1.21875 0q0.578125 0 0.890625 -0.109375q0.328125 -0.109375 0.515625 -0.296875q0.265625 -0.265625 0.421875 -0.71875q0.15625 -0.46875 0.15625 -1.109375q0 -0.90625 -0.296875 -1.375q-0.296875 -0.484375 -0.71875 -0.65625q-0.3125 -0.109375 -0.984375 -0.109375l-1.203125 0l0 4.375zm7.6367188 0.15625q-0.390625 0.328125 -0.75 0.46875q-0.359375 0.140625 -0.78125 0.140625q-0.671875 0 -1.046875 -0.328125q-0.359375 -0.34375 -0.359375 -0.859375q0 -0.3125 0.125 -0.5625q0.140625 -0.25 0.359375 -0.390625q0.234375 -0.15625 0.515625 -0.234375q0.203125 -0.0625 0.625 -0.109375q0.859375 -0.109375 1.25 -0.25q0.015625 -0.140625 0.015625 -0.171875q0 -0.4375 -0.203125 -0.609375q-0.265625 -0.234375 -0.796875 -0.234375q-0.5 0 -0.734375 0.171875q-0.234375 0.171875 -0.359375 0.609375l-0.6875 -0.09375q0.09375 -0.4375 0.3125 -0.703125q0.21875 -0.28125 0.625 -0.421875q0.40625 -0.15625 0.9375 -0.15625q0.53125 0 0.859375 0.125q0.34375 0.125 0.5 0.328125q0.15625 0.1875 0.21875 0.46875q0.03125 0.1875 0.03125 0.65625l0 0.9375q0 0.96875 0.046875 1.234375q0.046875 0.265625 0.171875 0.5l-0.734375 0q-0.109375 -0.21875 -0.140625 -0.515625zm-0.0625 -1.5625q-0.375 0.15625 -1.140625 0.265625q-0.4375 0.0625 -0.625 0.140625q-0.171875 0.078125 -0.265625 0.234375q-0.09375 0.140625 -0.09375 0.328125q0 0.28125 0.203125 0.46875q0.21875 0.1875 0.625 0.1875q0.40625 0 0.71875 -0.171875q0.328125 -0.1875 0.46875 -0.5q0.109375 -0.234375 0.109375 -0.703125l0 -0.25zm3.3398438 1.453125l0.109375 0.609375q-0.296875 0.078125 -0.53125 0.078125q-0.390625 0 -0.609375 -0.125q-0.203125 -0.125 -0.296875 -0.3125q-0.078125 -0.203125 -0.078125 -0.84375l0 -2.390625l-0.515625 0l0 -0.546875l0.515625 0l0 -1.015625l0.703125 -0.421875l0 1.4375l0.703125 0l0 0.546875l-0.703125 0l0 2.4375q0 0.296875 0.03125 0.390625q0.046875 0.078125 0.125 0.125q0.078125 0.046875 0.234375 0.046875q0.125 0 0.3125 -0.015625zm3.3945312 0.109375q-0.390625 0.328125 -0.75 0.46875q-0.359375 0.140625 -0.78125 0.140625q-0.671875 0 -1.046875 -0.328125q-0.359375 -0.34375 -0.359375 -0.859375q0 -0.3125 0.125 -0.5625q0.140625 -0.25 0.359375 -0.390625q0.234375 -0.15625 0.515625 -0.234375q0.203125 -0.0625 0.625 -0.109375q0.859375 -0.109375 1.25 -0.25q0.015625 -0.140625 0.015625 -0.171875q0 -0.4375 -0.203125 -0.609375q-0.265625 -0.234375 -0.796875 -0.234375q-0.5 0 -0.734375 0.171875q-0.234375 0.171875 -0.359375 0.609375l-0.6875 -0.09375q0.09375 -0.4375 0.3125 -0.703125q0.21875 -0.28125 0.625 -0.421875q0.40625 -0.15625 0.9375 -0.15625q0.53125 0 0.859375 0.125q0.34375 0.125 0.5 0.328125q0.15625 0.1875 0.21875 0.46875q0.03125 0.1875 0.03125 0.65625l0 0.9375q0 0.96875 0.046875 1.234375q0.046875 0.265625 0.171875 0.5l-0.734375 0q-0.109375 -0.21875 -0.140625 -0.515625zm-0.0625 -1.5625q-0.375 0.15625 -1.140625 0.265625q-0.4375 0.0625 -0.625 0.140625q-0.171875 0.078125 -0.265625 0.234375q-0.09375 0.140625 -0.09375 0.328125q0 0.28125 0.203125 0.46875q0.21875 0.1875 0.625 0.1875q0.40625 0 0.71875 -0.171875q0.328125 -0.1875 0.46875 -0.5q0.109375 -0.234375 0.109375 -0.703125l0 -0.25zm7.296875 1.40625q-0.34375 0.375 -0.75 0.578125q-0.40625 0.1875 -0.890625 0.1875q-0.875 0 -1.390625 -0.59375q-0.421875 -0.484375 -0.421875 -1.078125q0 -0.53125 0.34375 -0.953125q0.34375 -0.4375 1.015625 -0.765625q-0.375 -0.4375 -0.515625 -0.71875q-0.125 -0.28125 -0.125 -0.53125q0 -0.515625 0.40625 -0.890625q0.40625 -0.390625 1.015625 -0.390625q0.59375 0 0.953125 0.359375q0.375 0.359375 0.375 0.859375q0 0.828125 -1.078125 1.40625l1.03125 1.296875q0.171875 -0.34375 0.265625 -0.796875l0.734375 0.15625q-0.1875 0.75 -0.5 1.234375q0.390625 0.53125 0.890625 0.890625l-0.46875 0.5625q-0.4375 -0.28125 -0.890625 -0.8125zm-1.421875 -2.984375q0.453125 -0.28125 0.578125 -0.484375q0.140625 -0.203125 0.140625 -0.4375q0 -0.296875 -0.1875 -0.484375q-0.171875 -0.1875 -0.453125 -0.1875q-0.28125 0 -0.484375 0.1875q-0.1875 0.1875 -0.1875 0.453125q0 0.125 0.0625 0.28125q0.078125 0.140625 0.21875 0.296875l0.3125 0.375zm0.984375 2.421875l-1.28125 -1.59375q-0.578125 0.34375 -0.78125 0.640625q-0.1875 0.28125 -0.1875 0.5625q0 0.34375 0.265625 0.71875q0.28125 0.375 0.796875 0.375q0.3125 0 0.640625 -0.1875q0.34375 -0.203125 0.546875 -0.515625z" fill-rule="nonzero"/><path fill="#000000" d="m140.33308 41.25583l-1.53125 -5.734375l0.78125 0l0.875 3.765625q0.140625 0.578125 0.234375 1.171875q0.21875 -0.921875 0.265625 -1.0625l1.09375 -3.875l0.90625 0l0.828125 2.90625q0.296875 1.078125 0.4375 2.03125q0.109375 -0.546875 0.28125 -1.25l0.90625 -3.6875l0.765625 0l-1.578125 5.734375l-0.734375 0l-1.203125 -4.359375q-0.15625 -0.546875 -0.171875 -0.671875q-0.09375 0.390625 -0.171875 0.671875l-1.21875 4.359375l-0.765625 0zm8.863281 -0.515625q-0.390625 0.328125 -0.75 0.46875q-0.359375 0.140625 -0.78125 0.140625q-0.671875 0 -1.046875 -0.328125q-0.359375 -0.34375 -0.359375 -0.859375q0 -0.3125 0.125 -0.5625q0.140625 -0.25 0.359375 -0.390625q0.234375 -0.15625 0.515625 -0.234375q0.203125 -0.0625 0.625 -0.109375q0.859375 -0.109375 1.25 -0.25q0.015625 -0.140625 0.015625 -0.171875q0 -0.4375 -0.203125 -0.609375q-0.265625 -0.234375 -0.796875 -0.234375q-0.5 0 -0.734375 0.171875q-0.234375 0.171875 -0.359375 0.609375l-0.6875 -0.09375q0.09375 -0.4375 0.3125 -0.703125q0.21875 -0.28125 0.625 -0.421875q0.40625 -0.15625 0.9375 -0.15625q0.53125 0 0.859375 0.125q0.34375 0.125 0.5 0.328125q0.15625 0.1875 0.21875 0.46875q0.03125 0.1875 0.03125 0.65625l0 0.9375q0 0.96875 0.046875 1.234375q0.046875 0.265625 0.171875 0.5l-0.734375 0q-0.109375 -0.21875 -0.140625 -0.515625zm-0.0625 -1.5625q-0.375 0.15625 -1.140625 0.265625q-0.4375 0.0625 -0.625 0.140625q-0.171875 0.078125 -0.265625 0.234375q-0.09375 0.140625 -0.09375 0.328125q0 0.28125 0.203125 0.46875q0.21875 0.1875 0.625 0.1875q0.40625 0 0.71875 -0.171875q0.328125 -0.1875 0.46875 -0.5q0.109375 -0.234375 0.109375 -0.703125l0 -0.25zm1.7929688 2.078125l0 -4.15625l0.640625 0l0 0.640625q0.234375 -0.453125 0.4375 -0.59375q0.21875 -0.140625 0.453125 -0.140625q0.359375 0 0.734375 0.234375l-0.25 0.65625q-0.25 -0.15625 -0.515625 -0.15625q-0.234375 0 -0.421875 0.140625q-0.171875 0.140625 -0.25 0.375q-0.125 0.375 -0.125 0.828125l0 2.171875l-0.703125 0zm2.6796875 0l0 -4.15625l0.625 0l0 0.59375q0.46875 -0.6875 1.328125 -0.6875q0.375 0 0.6875 0.140625q0.3125 0.140625 0.46875 0.359375q0.15625 0.21875 0.21875 0.515625q0.046875 0.1875 0.046875 0.6875l0 2.546875l-0.703125 0l0 -2.53125q0 -0.421875 -0.09375 -0.625q-0.078125 -0.21875 -0.296875 -0.34375q-0.203125 -0.140625 -0.484375 -0.140625q-0.4375 0 -0.765625 0.296875q-0.328125 0.28125 -0.328125 1.078125l0 2.265625l-0.703125 0zm4.4492188 -4.921875l0 -0.8125l0.703125 0l0 0.8125l-0.703125 0zm0 4.921875l0 -4.15625l0.703125 0l0 4.15625l-0.703125 0zm1.7773438 0l0 -4.15625l0.625 0l0 0.59375q0.46875 -0.6875 1.328125 -0.6875q0.375 0 0.6875 0.140625q0.3125 0.140625 0.46875 0.359375q0.15625 0.21875 0.21875 0.515625q0.046875 0.1875 0.046875 0.6875l0 2.546875l-0.703125 0l0 -2.53125q0 -0.421875 -0.09375 -0.625q-0.078125 -0.21875 -0.296875 -0.34375q-0.203125 -0.140625 -0.484375 -0.140625q-0.4375 0 -0.765625 0.296875q-0.328125 0.28125 -0.328125 1.078125l0 2.265625l-0.703125 0zm4.3242188 0.34375l0.671875 0.109375q0.046875 0.3125 0.25 0.453125q0.25 0.203125 0.703125 0.203125q0.5 0 0.765625 -0.203125q0.265625 -0.1875 0.359375 -0.546875q0.046875 -0.21875 0.046875 -0.90625q-0.46875 0.546875 -1.15625 0.546875q-0.84375 0 -1.3125 -0.609375q-0.46875 -0.625 -0.46875 -1.484375q0 -0.59375 0.203125 -1.09375q0.21875 -0.515625 0.625 -0.78125q0.40625 -0.28125 0.96875 -0.28125q0.734375 0 1.203125 0.59375l0 -0.5l0.65625 0l0 3.59375q0 0.96875 -0.203125 1.375q-0.203125 0.40625 -0.625 0.640625q-0.421875 0.234375 -1.046875 0.234375q-0.75 0 -1.203125 -0.34375q-0.453125 -0.328125 -0.4375 -1.0zm0.578125 -2.5q0 0.828125 0.3125 1.203125q0.328125 0.375 0.828125 0.375q0.484375 0 0.8125 -0.375q0.328125 -0.375 0.328125 -1.171875q0 -0.765625 -0.34375 -1.140625q-0.34375 -0.390625 -0.8125 -0.390625q-0.46875 0 -0.796875 0.375q-0.328125 0.375 -0.328125 1.125zm3.7148438 0.921875l0.6875 -0.109375q0.0625 0.40625 0.328125 0.640625q0.265625 0.21875 0.75 0.21875q0.484375 0 0.71875 -0.1875q0.234375 -0.203125 0.234375 -0.46875q0 -0.25 -0.203125 -0.375q-0.140625 -0.09375 -0.71875 -0.25q-0.78125 -0.1875 -1.078125 -0.328125q-0.296875 -0.140625 -0.453125 -0.390625q-0.15625 -0.265625 -0.15625 -0.5625q0 -0.28125 0.125 -0.515625q0.140625 -0.234375 0.359375 -0.390625q0.15625 -0.125 0.4375 -0.203125q0.28125 -0.09375 0.609375 -0.09375q0.484375 0 0.859375 0.140625q0.375 0.140625 0.546875 0.390625q0.171875 0.234375 0.234375 0.640625l-0.6875 0.09375q-0.046875 -0.328125 -0.265625 -0.5q-0.21875 -0.1875 -0.640625 -0.1875q-0.484375 0 -0.6875 0.171875q-0.203125 0.15625 -0.203125 0.375q0 0.125 0.078125 0.234375q0.09375 0.125 0.28125 0.1875q0.09375 0.046875 0.609375 0.1875q0.75 0.203125 1.046875 0.328125q0.296875 0.125 0.453125 0.375q0.171875 0.234375 0.171875 0.59375q0 0.34375 -0.203125 0.65625q-0.203125 0.3125 -0.59375 0.484375q-0.375 0.171875 -0.875 0.171875q-0.796875 0 -1.234375 -0.328125q-0.421875 -0.34375 -0.53125 -1.0z" fill-rule="nonzero"/><path fill="#cfe2f3" d="m127.637794 84.87136l55.63276 0l0 30.684036c-27.816376 0 -27.816376 11.691185 -55.63276 5.0484695z" fill-rule="evenodd"/><path stroke="#000000" stroke-width="1.0" stroke-linejoin="round" stroke-linecap="butt" d="m127.637794 84.87136l55.63276 0l0 30.684036c-27.816376 0 -27.816376 11.691185 -55.63276 5.0484695z" fill-rule="evenodd"/><path fill="#000000" d="m138.13777 97.89338l-2.21875 -5.734375l0.828125 0l1.484375 4.171875q0.1875 0.5 0.296875 0.9375q0.140625 -0.46875 0.3125 -0.9375l1.546875 -4.171875l0.78125 0l-2.25 5.734375l-0.78125 0zm6.0195312 -1.34375l0.71875 0.09375q-0.171875 0.640625 -0.640625 1.0q-0.453125 0.34375 -1.1875 0.34375q-0.90625 0 -1.4375 -0.5625q-0.53125 -0.5625 -0.53125 -1.578125q0 -1.046875 0.53125 -1.625q0.546875 -0.578125 1.40625 -0.578125q0.828125 0 1.359375 0.578125q0.53125 0.5625 0.53125 1.59375q0 0.0625 -0.015625 0.1875l-3.09375 0q0.046875 0.671875 0.390625 1.046875q0.34375 0.359375 0.875 0.359375q0.375 0 0.640625 -0.203125q0.28125 -0.203125 0.453125 -0.65625zm-2.3125 -1.125l2.3125 0q-0.046875 -0.53125 -0.265625 -0.796875q-0.328125 -0.40625 -0.875 -0.40625q-0.484375 0 -0.8125 0.328125q-0.328125 0.328125 -0.359375 0.875zm3.9023438 2.46875l0 -4.15625l0.640625 0l0 0.640625q0.234375 -0.453125 0.4375 -0.59375q0.21875 -0.140625 0.453125 -0.140625q0.359375 0 0.734375 0.234375l-0.25 0.65625q-0.25 -0.15625 -0.515625 -0.15625q-0.234375 0 -0.421875 0.140625q-0.171875 0.140625 -0.25 0.375q-0.125 0.375 -0.125 0.828125l0 2.171875l-0.703125 0zm2.6796875 -4.921875l0 -0.8125l0.703125 0l0 0.8125l-0.703125 0zm0 4.921875l0 -4.15625l0.703125 0l0 4.15625l-0.703125 0zm1.9492188 0l0 -3.609375l-0.625 0l0 -0.546875l0.625 0l0 -0.4375q0 -0.421875 0.0625 -0.625q0.109375 -0.265625 0.359375 -0.4375q0.265625 -0.171875 0.71875 -0.171875q0.296875 0 0.65625 0.078125l-0.109375 0.609375q-0.21875 -0.046875 -0.40625 -0.046875q-0.328125 0 -0.46875 0.140625q-0.125 0.140625 -0.125 0.515625l0 0.375l0.8125 0l0 0.546875l-0.8125 0l0 3.609375l-0.6875 0zm2.0507812 -4.921875l0 -0.8125l0.703125 0l0 0.8125l-0.703125 0zm0 4.921875l0 -4.15625l0.703125 0l0 4.15625l-0.703125 0zm4.4804688 -1.515625l0.6875 0.078125q-0.109375 0.71875 -0.578125 1.125q-0.46875 0.40625 -1.140625 0.40625q-0.859375 0 -1.375 -0.546875q-0.515625 -0.5625 -0.515625 -1.609375q0 -0.671875 0.21875 -1.171875q0.234375 -0.5 0.6875 -0.75q0.453125 -0.265625 0.984375 -0.265625q0.671875 0 1.09375 0.34375q0.4375 0.34375 0.5625 0.96875l-0.6875 0.109375q-0.09375 -0.421875 -0.34375 -0.625q-0.25 -0.21875 -0.59375 -0.21875q-0.53125 0 -0.875 0.390625q-0.328125 0.375 -0.328125 1.203125q0 0.828125 0.3125 1.21875q0.328125 0.375 0.84375 0.375q0.421875 0 0.6875 -0.25q0.28125 -0.265625 0.359375 -0.78125zm4.0 1.0q-0.390625 0.328125 -0.75 0.46875q-0.359375 0.140625 -0.78125 0.140625q-0.671875 0 -1.046875 -0.328125q-0.359375 -0.34375 -0.359375 -0.859375q0 -0.3125 0.125 -0.5625q0.140625 -0.25 0.359375 -0.390625q0.234375 -0.15625 0.515625 -0.234375q0.203125 -0.0625 0.625 -0.109375q0.859375 -0.109375 1.25 -0.25q0.015625 -0.140625 0.015625 -0.171875q0 -0.4375 -0.203125 -0.609375q-0.265625 -0.234375 -0.796875 -0.234375q-0.5 0 -0.734375 0.171875q-0.234375 0.171875 -0.359375 0.609375l-0.6875 -0.09375q0.09375 -0.4375 0.3125 -0.703125q0.21875 -0.28125 0.625 -0.421875q0.40625 -0.15625 0.9375 -0.15625q0.53125 0 0.859375 0.125q0.34375 0.125 0.5 0.328125q0.15625 0.1875 0.21875 0.46875q0.03125 0.1875 0.03125 0.65625l0 0.9375q0 0.96875 0.046875 1.234375q0.046875 0.265625 0.171875 0.5l-0.734375 0q-0.109375 -0.21875 -0.140625 -0.515625zm-0.0625 -1.5625q-0.375 0.15625 -1.140625 0.265625q-0.4375 0.0625 -0.625 0.140625q-0.171875 0.078125 -0.265625 0.234375q-0.09375 0.140625 -0.09375 0.328125q0 0.28125 0.203125 0.46875q0.21875 0.1875 0.625 0.1875q0.40625 0 0.71875 -0.171875q0.328125 -0.1875 0.46875 -0.5q0.109375 -0.234375 0.109375 -0.703125l0 -0.25zm3.3398438 1.453125l0.109375 0.609375q-0.296875 0.078125 -0.53125 0.078125q-0.390625 0 -0.609375 -0.125q-0.203125 -0.125 -0.296875 -0.3125q-0.078125 -0.203125 -0.078125 -0.84375l0 -2.390625l-0.515625 0l0 -0.546875l0.515625 0l0 -1.015625l0.703125 -0.421875l0 1.4375l0.703125 0l0 0.546875l-0.703125 0l0 2.4375q0 0.296875 0.03125 0.390625q0.046875 0.078125 0.125 0.125q0.078125 0.046875 0.234375 0.046875q0.125 0 0.3125 -0.015625zm0.69140625 -4.296875l0 -0.8125l0.703125 0l0 0.8125l-0.703125 0zm0 4.921875l0 -4.15625l0.703125 0l0 4.15625l-0.703125 0zm1.5117188 -2.078125q0 -1.15625 0.640625 -1.703125q0.53125 -0.46875 1.3125 -0.46875q0.84375 0 1.390625 0.5625q0.546875 0.5625 0.546875 1.546875q0 0.8125 -0.25 1.265625q-0.234375 0.453125 -0.703125 0.71875q-0.453125 0.25 -0.984375 0.25q-0.875 0 -1.421875 -0.5625q-0.53125 -0.5625 -0.53125 -1.609375zm0.71875 0q0 0.796875 0.34375 1.203125q0.359375 0.390625 0.890625 0.390625q0.515625 0 0.859375 -0.390625q0.359375 -0.40625 0.359375 -1.21875q0 -0.78125 -0.359375 -1.171875q-0.34375 -0.390625 -0.859375 -0.390625q-0.53125 0 -0.890625 0.390625q-0.34375 0.390625 -0.34375 1.1875zm3.9960938 2.078125l0 -4.15625l0.625 0l0 0.59375q0.46875 -0.6875 1.328125 -0.6875q0.375 0 0.6875 0.140625q0.3125 0.140625 0.46875 0.359375q0.15625 0.21875 0.21875 0.515625q0.046875 0.1875 0.046875 0.6875l0 2.546875l-0.703125 0l0 -2.53125q0 -0.421875 -0.09375 -0.625q-0.078125 -0.21875 -0.296875 -0.34375q-0.203125 -0.140625 -0.484375 -0.140625q-0.4375 0 -0.765625 0.296875q-0.328125 0.28125 -0.328125 1.078125l0 2.265625l-0.703125 0z" fill-rule="nonzero"/><path fill="#000000" d="m140.33308 107.89338l-1.53125 -5.734375l0.78125 0l0.875 3.765625q0.140625 0.578125 0.234375 1.171875q0.21875 -0.921875 0.265625 -1.0625l1.09375 -3.875l0.90625 0l0.828125 2.90625q0.296875 1.078125 0.4375 2.03125q0.109375 -0.546875 0.28125 -1.25l0.90625 -3.6875l0.765625 0l-1.578125 5.734375l-0.734375 0l-1.203125 -4.359375q-0.15625 -0.546875 -0.171875 -0.671875q-0.09375 0.390625 -0.171875 0.671875l-1.21875 4.359375l-0.765625 0zm8.863281 -0.515625q-0.390625 0.328125 -0.75 0.46875q-0.359375 0.140625 -0.78125 0.140625q-0.671875 0 -1.046875 -0.328125q-0.359375 -0.34375 -0.359375 -0.859375q0 -0.3125 0.125 -0.5625q0.140625 -0.25 0.359375 -0.390625q0.234375 -0.15625 0.515625 -0.234375q0.203125 -0.0625 0.625 -0.109375q0.859375 -0.109375 1.25 -0.25q0.015625 -0.140625 0.015625 -0.171875q0 -0.4375 -0.203125 -0.609375q-0.265625 -0.234375 -0.796875 -0.234375q-0.5 0 -0.734375 0.171875q-0.234375 0.171875 -0.359375 0.609375l-0.6875 -0.09375q0.09375 -0.4375 0.3125 -0.703125q0.21875 -0.28125 0.625 -0.421875q0.40625 -0.15625 0.9375 -0.15625q0.53125 0 0.859375 0.125q0.34375 0.125 0.5 0.328125q0.15625 0.1875 0.21875 0.46875q0.03125 0.1875 0.03125 0.65625l0 0.9375q0 0.96875 0.046875 1.234375q0.046875 0.265625 0.171875 0.5l-0.734375 0q-0.109375 -0.21875 -0.140625 -0.515625zm-0.0625 -1.5625q-0.375 0.15625 -1.140625 0.265625q-0.4375 0.0625 -0.625 0.140625q-0.171875 0.078125 -0.265625 0.234375q-0.09375 0.140625 -0.09375 0.328125q0 0.28125 0.203125 0.46875q0.21875 0.1875 0.625 0.1875q0.40625 0 0.71875 -0.171875q0.328125 -0.1875 0.46875 -0.5q0.109375 -0.234375 0.109375 -0.703125l0 -0.25zm1.7929688 2.078125l0 -4.15625l0.640625 0l0 0.640625q0.234375 -0.453125 0.4375 -0.59375q0.21875 -0.140625 0.453125 -0.140625q0.359375 0 0.734375 0.234375l-0.25 0.65625q-0.25 -0.15625 -0.515625 -0.15625q-0.234375 0 -0.421875 0.140625q-0.171875 0.140625 -0.25 0.375q-0.125 0.375 -0.125 0.828125l0 2.171875l-0.703125 0zm2.6796875 0l0 -4.15625l0.625 0l0 0.59375q0.46875 -0.6875 1.328125 -0.6875q0.375 0 0.6875 0.140625q0.3125 0.140625 0.46875 0.359375q0.15625 0.21875 0.21875 0.515625q0.046875 0.1875 0.046875 0.6875l0 2.546875l-0.703125 0l0 -2.53125q0 -0.421875 -0.09375 -0.625q-0.078125 -0.21875 -0.296875 -0.34375q-0.203125 -0.140625 -0.484375 -0.140625q-0.4375 0 -0.765625 0.296875q-0.328125 0.28125 -0.328125 1.078125l0 2.265625l-0.703125 0zm4.4492188 -4.921875l0 -0.8125l0.703125 0l0 0.8125l-0.703125 0zm0 4.921875l0 -4.15625l0.703125 0l0 4.15625l-0.703125 0zm1.7773438 0l0 -4.15625l0.625 0l0 0.59375q0.46875 -0.6875 1.328125 -0.6875q0.375 0 0.6875 0.140625q0.3125 0.140625 0.46875 0.359375q0.15625 0.21875 0.21875 0.515625q0.046875 0.1875 0.046875 0.6875l0 2.546875l-0.703125 0l0 -2.53125q0 -0.421875 -0.09375 -0.625q-0.078125 -0.21875 -0.296875 -0.34375q-0.203125 -0.140625 -0.484375 -0.140625q-0.4375 0 -0.765625 0.296875q-0.328125 0.28125 -0.328125 1.078125l0 2.265625l-0.703125 0zm4.3242188 0.34375l0.671875 0.109375q0.046875 0.3125 0.25 0.453125q0.25 0.203125 0.703125 0.203125q0.5 0 0.765625 -0.203125q0.265625 -0.1875 0.359375 -0.546875q0.046875 -0.21875 0.046875 -0.90625q-0.46875 0.546875 -1.15625 0.546875q-0.84375 0 -1.3125 -0.609375q-0.46875 -0.625 -0.46875 -1.484375q0 -0.59375 0.203125 -1.09375q0.21875 -0.515625 0.625 -0.78125q0.40625 -0.28125 0.96875 -0.28125q0.734375 0 1.203125 0.59375l0 -0.5l0.65625 0l0 3.59375q0 0.96875 -0.203125 1.375q-0.203125 0.40625 -0.625 0.640625q-0.421875 0.234375 -1.046875 0.234375q-0.75 0 -1.203125 -0.34375q-0.453125 -0.328125 -0.4375 -1.0zm0.578125 -2.5q0 0.828125 0.3125 1.203125q0.328125 0.375 0.828125 0.375q0.484375 0 0.8125 -0.375q0.328125 -0.375 0.328125 -1.171875q0 -0.765625 -0.34375 -1.140625q-0.34375 -0.390625 -0.8125 -0.390625q-0.46875 0 -0.796875 0.375q-0.328125 0.375 -0.328125 1.125zm3.7148438 0.921875l0.6875 -0.109375q0.0625 0.40625 0.328125 0.640625q0.265625 0.21875 0.75 0.21875q0.484375 0 0.71875 -0.1875q0.234375 -0.203125 0.234375 -0.46875q0 -0.25 -0.203125 -0.375q-0.140625 -0.09375 -0.71875 -0.25q-0.78125 -0.1875 -1.078125 -0.328125q-0.296875 -0.140625 -0.453125 -0.390625q-0.15625 -0.265625 -0.15625 -0.5625q0 -0.28125 0.125 -0.515625q0.140625 -0.234375 0.359375 -0.390625q0.15625 -0.125 0.4375 -0.203125q0.28125 -0.09375 0.609375 -0.09375q0.484375 0 0.859375 0.140625q0.375 0.140625 0.546875 0.390625q0.171875 0.234375 0.234375 0.640625l-0.6875 0.09375q-0.046875 -0.328125 -0.265625 -0.5q-0.21875 -0.1875 -0.640625 -0.1875q-0.484375 0 -0.6875 0.171875q-0.203125 0.15625 -0.203125 0.375q0 0.125 0.078125 0.234375q0.09375 0.125 0.28125 0.1875q0.09375 0.046875 0.609375 0.1875q0.75 0.203125 1.046875 0.328125q0.296875 0.125 0.453125 0.375q0.171875 0.234375 0.171875 0.59375q0 0.34375 -0.203125 0.65625q-0.203125 0.3125 -0.59375 0.484375q-0.375 0.171875 -0.875 0.171875q-0.796875 0 -1.234375 -0.328125q-0.421875 -0.34375 -0.53125 -1.0z" fill-rule="nonzero"/><path fill="#cfe2f3" d="m225.6735 26.465092l0 0c0 -1.6293125 1.320816 -2.9501305 2.9501343 -2.9501305l53.72177 0c0.7824402 0 1.5328064 0.3108158 2.0860596 0.8640728c0.5532532 0.553257 0.8640747 1.3036346 0.8640747 2.0860577l0 11.800526c0 1.6293106 -1.3208008 2.9501305 -2.9501343 2.9501305l-53.72177 0c-1.6293182 0 -2.9501343 -1.3208199 -2.9501343 -2.9501305z" fill-rule="evenodd"/><path stroke="#000000" stroke-width="1.0" stroke-linejoin="round" stroke-linecap="butt" d="m225.6735 26.465092l0 0c0 -1.6293125 1.320816 -2.9501305 2.9501343 -2.9501305l53.72177 0c0.7824402 0 1.5328064 0.3108158 2.0860596 0.8640728c0.5532532 0.553257 0.8640747 1.3036346 0.8640747 2.0860577l0 11.800526c0 1.6293106 -1.3208008 2.9501305 -2.9501343 2.9501305l-53.72177 0c-1.6293182 0 -2.9501343 -1.3208199 -2.9501343 -2.9501305z" fill-rule="evenodd"/><path fill="#000000" d="m240.41615 31.65473l1.78125 0q0.109375 0 0.15625 0.046875q0.0625 0.046875 0.0625 0.125q0 0.078125 -0.0625 0.125q-0.046875 0.046875 -0.15625 0.046875l-1.78125 0l0 2.171873q0 0.296875 0.21875 0.484375q0.234375 0.1875 0.671875 0.1875q0.328125 0 0.71875 -0.09375q0.390625 -0.109375 0.609375 -0.234375q0.078125 -0.046875 0.125 -0.046875q0.0625 0 0.109375 0.046875q0.046875 0.046875 0.046875 0.125q0 0.046875 -0.046875 0.109375q-0.125 0.125 -0.609375 0.28125q-0.484375 0.140625 -0.921875 0.140625q-0.578125 0 -0.921875 -0.265625q-0.34375 -0.265625 -0.34375 -0.734375l0 -2.171873l-0.59375 0q-0.125 0 -0.171875 -0.046875q-0.046875 -0.046875 -0.046875 -0.125q0 -0.078125 0.046875 -0.125q0.046875 -0.046875 0.171875 -0.046875l0.59375 0l0 -0.96875q0 -0.109375 0.046875 -0.15625q0.046875 -0.0625 0.125 -0.0625q0.078125 0 0.125 0.0625q0.046875 0.046875 0.046875 0.15625l0 0.96875zm6.4101562 3.390623l0 -0.46875q-0.71875 0.59375 -1.53125 0.59375q-0.578125 0 -0.921875 -0.296875q-0.328125 -0.296875 -0.328125 -0.734375q0 -0.46875 0.4375 -0.828125q0.4375 -0.359375 1.28125 -0.359375q0.21875 0 0.484375 0.03125q0.265625 0.03125 0.578125 0.09375l0 -0.53125q0 -0.265625 -0.25 -0.46875q-0.25 -0.2031231 -0.75 -0.2031231q-0.375 0 -1.078125 0.2187481q-0.125 0.046875 -0.15625 0.046875q-0.0625 0 -0.109375 -0.046875q-0.046875 -0.046875 -0.046875 -0.12499809q0 -0.0625 0.046875 -0.09375q0.046875 -0.0625 0.4375 -0.171875q0.609375 -0.15625 0.921875 -0.15625q0.625 0 0.96875 0.3125q0.34375 0.2968731 0.34375 0.6874981l0 2.171875l0.4375 0q0.125 0 0.171875 0.046875q0.0625 0.046875 0.0625 0.109375q0 0.078125 -0.0625 0.125q-0.046875 0.046875 -0.171875 0.046875l-0.765625 0zm0 -1.640625q-0.234375 -0.0625 -0.5 -0.09375q-0.25 -0.03125 -0.53125 -0.03125q-0.71875 0 -1.109375 0.3125q-0.3125 0.234375 -0.3125 0.546875q0 0.296875 0.234375 0.5q0.234375 0.203125 0.671875 0.203125q0.4375 0 0.796875 -0.171875q0.359375 -0.171875 0.75 -0.53125l0 -0.734375zm2.6289062 -3.265623l0 2.171873q0.59375 -0.7656231 1.421875 -0.7656231q0.71875 0 1.234375 0.5312481q0.515625 0.515625 0.515625 1.265625q0 0.765625 -0.515625 1.296875q-0.515625 0.53125 -1.234375 0.53125q-0.859375 0 -1.421875 -0.765625l0 0.640625l-0.78125 0q-0.109375 0 -0.171875 -0.046875q-0.046875 -0.046875 -0.046875 -0.125q0 -0.0625 0.046875 -0.109375q0.0625 -0.046875 0.171875 -0.046875l0.453125 0l0 -4.249998l-0.453125 0q-0.109375 0 -0.171875 -0.046875q-0.046875 -0.046875 -0.046875 -0.109375q0 -0.078125 0.046875 -0.125q0.0625 -0.046875 0.171875 -0.046875l0.78125 0zm2.84375 3.218748q0 -0.625 -0.4375 -1.046875q-0.421875 -0.4374981 -0.984375 -0.4374981q-0.578125 0 -1.0 0.4374981q-0.421875 0.421875 -0.421875 1.046875q0 0.625 0.421875 1.0625q0.421875 0.421875 1.0 0.421875q0.5625 0 0.984375 -0.421875q0.4375 -0.4375 0.4375 -1.0625zm4.3164215 1.6875l0 -0.484375q-0.67189026 0.609375 -1.4531403 0.609375q-0.484375 0 -0.734375 -0.265625q-0.328125 -0.34375 -0.328125 -0.796875l0 -2.109373l-0.4375 0q-0.125 0 -0.171875 -0.046875q-0.046875 -0.046875 -0.046875 -0.125q0 -0.078125 0.046875 -0.125q0.046875 -0.046875 0.171875 -0.046875l0.765625 0l0 2.453123q0 0.328125 0.203125 0.53125q0.203125 0.203125 0.515625 0.203125q0.796875 0 1.4687653 -0.734375l0 -2.109373l-0.609375 0q-0.12501526 0 -0.17189026 -0.046875q-0.046875 -0.046875 -0.046875 -0.125q0 -0.078125 0.046875 -0.125q0.046875 -0.046875 0.17189026 -0.046875l0.9375 0l0 3.062498l0.265625 0q0.125 0 0.171875 0.046875q0.046875 0.046875 0.046875 0.109375q0 0.078125 -0.046875 0.125q-0.046875 0.046875 -0.171875 0.046875l-0.59375 0zm3.8320312 -4.906248l0 4.578123l1.296875 0q0.125 0 0.171875 0.046875q0.046875 0.046875 0.046875 0.109375q0 0.078125 -0.046875 0.125q-0.046875 0.046875 -0.171875 0.046875l-2.90625 0q-0.125 0 -0.171875 -0.046875q-0.046875 -0.046875 -0.046875 -0.125q0 -0.0625 0.046875 -0.109375q0.046875 -0.046875 0.171875 -0.046875l1.28125 0l0 -4.249998l-0.9375 0q-0.125 0 -0.171875 -0.046875q-0.046875 -0.046875 -0.046875 -0.109375q0 -0.078125 0.046875 -0.125q0.046875 -0.046875 0.171875 -0.046875l1.265625 0zm5.5820312 4.906248l0 -0.46875q-0.71875 0.59375 -1.53125 0.59375q-0.578125 0 -0.921875 -0.296875q-0.328125 -0.296875 -0.328125 -0.734375q0 -0.46875 0.4375 -0.828125q0.4375 -0.359375 1.28125 -0.359375q0.21875 0 0.484375 0.03125q0.265625 0.03125 0.578125 0.09375l0 -0.53125q0 -0.265625 -0.25 -0.46875q-0.25 -0.2031231 -0.75 -0.2031231q-0.375 0 -1.078125 0.2187481q-0.125 0.046875 -0.15625 0.046875q-0.0625 0 -0.109375 -0.046875q-0.046875 -0.046875 -0.046875 -0.12499809q0 -0.0625 0.046875 -0.09375q0.046875 -0.0625 0.4375 -0.171875q0.609375 -0.15625 0.921875 -0.15625q0.625 0 0.96875 0.3125q0.34375 0.2968731 0.34375 0.6874981l0 2.171875l0.4375 0q0.125 0 0.171875 0.046875q0.0625 0.046875 0.0625 0.109375q0 0.078125 -0.0625 0.125q-0.046875 0.046875 -0.171875 0.046875l-0.765625 0zm0 -1.640625q-0.234375 -0.0625 -0.5 -0.09375q-0.25 -0.03125 -0.53125 -0.03125q-0.71875 0 -1.109375 0.3125q-0.3125 0.234375 -0.3125 0.546875q0 0.296875 0.234375 0.5q0.234375 0.203125 0.671875 0.203125q0.4375 0 0.796875 -0.171875q0.359375 -0.171875 0.75 -0.53125l0 -0.734375zm3.4726562 -1.7499981l0 0.8281231q0.640625 -0.5781231 0.953125 -0.7343731q0.3125 -0.171875 0.59375 -0.171875q0.28125 0 0.53125 0.203125q0.265625 0.1875 0.265625 0.2968731q0 0.078125 -0.0625 0.125q-0.046875 0.046875 -0.109375 0.046875q-0.046875 0 -0.078125 -0.015625q-0.015625 -0.015625 -0.09375 -0.09375q-0.140625 -0.125 -0.25 -0.1718731q-0.09375 -0.0625 -0.1875 -0.0625q-0.21875 0 -0.53125 0.1718731q-0.296875 0.171875 -1.03125 0.84375l0 1.796875l1.453125 0q0.109375 0 0.15625 0.046875q0.0625 0.046875 0.0625 0.109375q0 0.078125 -0.0625 0.125q-0.046875 0.046875 -0.15625 0.046875l-2.578125 0q-0.125 0 -0.171875 -0.046875q-0.046875 -0.046875 -0.046875 -0.109375q0 -0.078125 0.046875 -0.109375q0.046875 -0.046875 0.171875 -0.046875l0.796875 0l0 -2.734373l-0.609375 0q-0.125 0 -0.171875 -0.046875q-0.046875 -0.046875 -0.046875 -0.125q0 -0.078125 0.046875 -0.125q0.046875 -0.046875 0.171875 -0.046875l0.9375 0z" fill-rule="nonzero"/><path fill="#cfe2f3" d="m225.6735 98.10184l0 0c0 -1.6293106 1.320816 -2.9501343 2.9501343 -2.9501343l53.72177 0c0.7824402 0 1.5328064 0.31082153 2.0860596 0.8640747c0.5532532 0.5532608 0.8640747 1.3036346 0.8640747 2.0860596l0 11.800522c0 1.6293182 -1.3208008 2.9501343 -2.9501343 2.9501343l-53.72177 0c-1.6293182 0 -2.9501343 -1.320816 -2.9501343 -2.9501343z" fill-rule="evenodd"/><path stroke="#000000" stroke-width="1.0" stroke-linejoin="round" stroke-linecap="butt" d="m225.6735 98.10184l0 0c0 -1.6293106 1.320816 -2.9501343 2.9501343 -2.9501343l53.72177 0c0.7824402 0 1.5328064 0.31082153 2.0860596 0.8640747c0.5532532 0.5532608 0.8640747 1.3036346 0.8640747 2.0860596l0 11.800522c0 1.6293182 -1.3208008 2.9501343 -2.9501343 2.9501343l-53.72177 0c-1.6293182 0 -2.9501343 -1.320816 -2.9501343 -2.9501343z" fill-rule="evenodd"/><path fill="#000000" d="m244.56654 103.51022q0 -0.109375 0.046875 -0.15625q0.046875 -0.0625 0.125 -0.0625q0.0625 0 0.109375 0.0625q0.046875 0.046875 0.046875 0.171875l0 0.5625q0 0.109375 -0.046875 0.171875q-0.046875 0.046875 -0.109375 0.046875q-0.078125 0 -0.125 -0.046875q-0.03125 -0.046875 -0.046875 -0.140625q-0.015625 -0.234375 -0.234375 -0.390625q-0.328125 -0.21875 -0.859375 -0.21875q-0.546875 0 -0.84375 0.21875q-0.234375 0.171875 -0.234375 0.375q0 0.234375 0.265625 0.390625q0.1875 0.109375 0.71875 0.171875q0.6875 0.078125 0.953125 0.171875q0.375 0.140625 0.5625 0.390625q0.1875 0.234375 0.1875 0.515625q0 0.40625 -0.40625 0.734375q-0.40625 0.328125 -1.1875 0.328125q-0.765625 0 -1.265625 -0.390625q0 0.125 -0.015625 0.171875q-0.015625 0.03125 -0.0625 0.0625q-0.03125 0.03125 -0.09375 0.03125q-0.0625 0 -0.109375 -0.046875q-0.046875 -0.0625 -0.046875 -0.171875l0 -0.671875q0 -0.125 0.046875 -0.171875q0.046875 -0.046875 0.109375 -0.046875q0.078125 0 0.125 0.046875q0.046875 0.046875 0.046875 0.125q0 0.1875 0.09375 0.296875q0.140625 0.1875 0.4375 0.3125q0.296875 0.125 0.734375 0.125q0.640625 0 0.953125 -0.234375q0.3125 -0.234375 0.3125 -0.5q0 -0.3125 -0.328125 -0.5q-0.3125 -0.171875 -0.921875 -0.234375q-0.609375 -0.0625 -0.875 -0.15625q-0.265625 -0.109375 -0.421875 -0.3125q-0.140625 -0.203125 -0.140625 -0.4375q0 -0.421875 0.40625 -0.671875q0.421875 -0.25 0.984375 -0.25q0.6875 0 1.109375 0.328125zm5.4882812 1.5625l-3.34375 0q0.09375 0.625 0.53125 1.015625q0.453125 0.390625 1.109375 0.390625q0.375 0 0.765625 -0.109375q0.40625 -0.125 0.671875 -0.328125q0.0625 -0.0625 0.125 -0.0625q0.0625 0 0.109375 0.046875q0.046875 0.046875 0.046875 0.125q0 0.0625 -0.0625 0.125q-0.1875 0.1875 -0.671875 0.359375q-0.46875 0.171875 -0.984375 0.171875q-0.84375 0 -1.40625 -0.546875q-0.5625 -0.5625 -0.5625 -1.34375q0 -0.71875 0.53125 -1.21875q0.53125 -0.515625 1.3125 -0.515625q0.796875 0 1.3125 0.53125q0.53125 0.515625 0.515625 1.359375zm-0.328125 -0.34375q-0.09375 -0.53125 -0.515625 -0.875q-0.40625 -0.34375 -0.984375 -0.34375q-0.578125 0 -1.0 0.34375q-0.40625 0.328125 -0.5 0.875l3.0 0zm2.9726562 -1.4375l0 0.828125q0.640625 -0.578125 0.953125 -0.734375q0.3125 -0.171875 0.59375 -0.171875q0.28125 0 0.53125 0.203125q0.265625 0.1875 0.265625 0.296875q0 0.078125 -0.0625 0.125q-0.046875 0.046875 -0.109375 0.046875q-0.046875 0 -0.078125 -0.015625q-0.015625 -0.015625 -0.09375 -0.09375q-0.140625 -0.125 -0.25 -0.171875q-0.09375 -0.0625 -0.1875 -0.0625q-0.21875 0 -0.53125 0.171875q-0.296875 0.171875 -1.03125 0.84375l0 1.796875l1.453125 0q0.109375 0 0.15625 0.046875q0.0625 0.046875 0.0625 0.109375q0 0.078125 -0.0625 0.125q-0.046875 0.046875 -0.15625 0.046875l-2.578125 0q-0.125 0 -0.171875 -0.046875q-0.046875 -0.046875 -0.046875 -0.109375q0 -0.078125 0.046875 -0.109375q0.046875 -0.046875 0.171875 -0.046875l0.796875 0l0 -2.734375l-0.609375 0q-0.125 0 -0.171875 -0.046875q-0.046875 -0.046875 -0.046875 -0.125q0 -0.078125 0.046875 -0.125q0.046875 -0.046875 0.171875 -0.046875l0.9375 0zm5.4726715 3.390625l-0.546875 0l-1.359375 -3.046875l-0.32814026 0q-0.125 0 -0.171875 -0.046875q-0.046875 -0.046875 -0.046875 -0.125q0 -0.078125 0.046875 -0.125q0.046875 -0.046875 0.171875 -0.046875l1.2343903 0q0.109375 0 0.15625 0.046875q0.0625 0.046875 0.0625 0.125q0 0.078125 -0.0625 0.125q-0.046875 0.046875 -0.15625 0.046875l-0.546875 0l1.203125 2.71875l0.140625 0l1.1875 -2.71875l-0.546875 0q-0.125 0 -0.171875 -0.046875q-0.046875 -0.046875 -0.046875 -0.125q0 -0.078125 0.046875 -0.125q0.046875 -0.046875 0.171875 -0.046875l1.234375 0q0.109375 0 0.15625 0.046875q0.0625 0.046875 0.0625 0.125q0 0.078125 -0.0625 0.125q-0.046875 0.046875 -0.15625 0.046875l-0.34375 0l-1.328125 3.046875zm6.2851562 -1.609375l-3.34375 0q0.09375 0.625 0.53125 1.015625q0.453125 0.390625 1.109375 0.390625q0.375 0 0.765625 -0.109375q0.40625 -0.125 0.671875 -0.328125q0.0625 -0.0625 0.125 -0.0625q0.0625 0 0.109375 0.046875q0.046875 0.046875 0.046875 0.125q0 0.0625 -0.0625 0.125q-0.1875 0.1875 -0.671875 0.359375q-0.46875 0.171875 -0.984375 0.171875q-0.84375 0 -1.40625 -0.546875q-0.5625 -0.5625 -0.5625 -1.34375q0 -0.71875 0.53125 -1.21875q0.53125 -0.515625 1.3125 -0.515625q0.796875 0 1.3125 0.53125q0.53125 0.515625 0.515625 1.359375zm-0.328125 -0.34375q-0.09375 -0.53125 -0.515625 -0.875q-0.40625 -0.34375 -0.984375 -0.34375q-0.578125 0 -1.0 0.34375q-0.40625 0.328125 -0.5 0.875l3.0 0zm2.9726562 -1.4375l0 0.828125q0.640625 -0.578125 0.953125 -0.734375q0.3125 -0.171875 0.59375 -0.171875q0.28125 0 0.53125 0.203125q0.265625 0.1875 0.265625 0.296875q0 0.078125 -0.0625 0.125q-0.046875 0.046875 -0.109375 0.046875q-0.046875 0 -0.078125 -0.015625q-0.015625 -0.015625 -0.09375 -0.09375q-0.140625 -0.125 -0.25 -0.171875q-0.09375 -0.0625 -0.1875 -0.0625q-0.21875 0 -0.53125 0.171875q-0.296875 0.171875 -1.03125 0.84375l0 1.796875l1.453125 0q0.109375 0 0.15625 0.046875q0.0625 0.046875 0.0625 0.109375q0 0.078125 -0.0625 0.125q-0.046875 0.046875 -0.15625 0.046875l-2.578125 0q-0.125 0 -0.171875 -0.046875q-0.046875 -0.046875 -0.046875 -0.109375q0 -0.078125 0.046875 -0.109375q0.046875 -0.046875 0.171875 -0.046875l0.796875 0l0 -2.734375l-0.609375 0q-0.125 0 -0.171875 -0.046875q-0.046875 -0.046875 -0.046875 -0.125q0 -0.078125 0.046875 -0.125q0.046875 -0.046875 0.171875 -0.046875l0.9375 0z" fill-rule="nonzero"/><path fill="#000000" fill-opacity="0.0" d="m83.25984 31.900263l44.377953 0.47244072" fill-rule="evenodd"/><path stroke="#000000" stroke-width="1.0" stroke-linejoin="round" stroke-linecap="butt" d="m83.25984 31.900263l38.37829 0.40856743" fill-rule="evenodd"/><path fill="#000000" stroke="#000000" stroke-width="1.0" stroke-linecap="butt" d="m121.62055 33.960472l4.5554276 -1.6033325l-4.5202637 -1.6999474z" fill-rule="evenodd"/><path fill="#000000" fill-opacity="0.0" d="m83.25984 103.86087l44.377953 0.12598419" fill-rule="evenodd"/><path stroke="#000000" stroke-width="1.0" stroke-linejoin="round" stroke-linecap="butt" d="m83.25984 103.86087l38.377975 0.10895538" fill-rule="evenodd"/><path fill="#000000" stroke="#000000" stroke-width="1.0" stroke-linecap="butt" d="m121.63313 105.62155l4.5427628 -1.6388474l-4.533386 -1.6646042z" fill-rule="evenodd"/><path fill="#000000" fill-opacity="0.0" d="m183.27055 32.364834l42.393692 0" fill-rule="evenodd"/><path stroke="#000000" stroke-width="1.0" stroke-linejoin="round" stroke-linecap="butt" d="m183.27055 32.364834l36.393692 0" fill-rule="evenodd"/><path fill="#000000" stroke="#000000" stroke-width="1.0" stroke-linecap="butt" d="m219.66425 34.016563l4.538101 -1.6517296l-4.538101 -1.6517334z" fill-rule="evenodd"/><path fill="#000000" fill-opacity="0.0" d="m183.27055 32.364834l42.393692 71.62204" fill-rule="evenodd"/><path stroke="#000000" stroke-width="1.0" stroke-linejoin="round" stroke-linecap="butt" d="m183.27055 32.364834l39.337494 66.458755" fill-rule="evenodd"/><path fill="#000000" stroke="#000000" stroke-width="1.0" stroke-linecap="butt" d="m221.18665 99.66492l3.732956 3.063919l-0.890152 -4.7465973z" fill-rule="evenodd"/><path fill="#000000" fill-opacity="0.0" d="m183.27055 104.00239l42.393692 0" fill-rule="evenodd"/><path stroke="#000000" stroke-width="1.0" stroke-linejoin="round" stroke-linecap="butt" d="m183.27055 104.00239l36.393692 0" fill-rule="evenodd"/><path fill="#000000" stroke="#000000" stroke-width="1.0" stroke-linecap="butt" d="m219.66425 105.65412l4.538101 -1.6517334l-4.538101 -1.6517334z" fill-rule="evenodd"/><path fill="#000000" fill-opacity="0.0" d="m183.27055 104.00239l42.393692 -71.62205" fill-rule="evenodd"/><path stroke="#000000" stroke-width="1.0" stroke-linejoin="round" stroke-linecap="butt" stroke-dasharray="1.0,3.0" d="m183.27055 104.00239l39.337494 -66.45875" fill-rule="evenodd"/><path fill="#000000" stroke="#000000" stroke-width="1.0" stroke-linecap="butt" d="m224.02945 38.384975l0.890152 -4.7465935l-3.732956 3.063919z" fill-rule="evenodd"/><path fill="#ffffff" d="m202.90814 45.21259l33.448807 0l0 13.889763l-33.448807 0z" fill-rule="evenodd"/><path fill="#000000" d="m205.88646 52.959347q0 -1.15625 0.640625 -1.703125q0.53125 -0.46875 1.3125 -0.46875q0.84375 0 1.390625 0.5625q0.546875 0.5625 0.546875 1.546875q0 0.8125 -0.25 1.265625q-0.234375 0.453125 -0.703125 0.71875q-0.453125 0.25 -0.984375 0.25q-0.875 0 -1.421875 -0.5625q-0.53125 -0.5625 -0.53125 -1.609375zm0.71875 0q0 0.796875 0.34375 1.203125q0.359375 0.390625 0.890625 0.390625q0.515625 0 0.859375 -0.390625q0.359375 -0.40625 0.359375 -1.21875q0 -0.78125 -0.359375 -1.171875q-0.34375 -0.390625 -0.859375 -0.390625q-0.53125 0 -0.890625 0.390625q-0.34375 0.390625 -0.34375 1.1875zm3.9960938 3.671875l0 -5.75l0.640625 0l0 0.546875q0.21875 -0.3125 0.5 -0.46875q0.296875 -0.171875 0.703125 -0.171875q0.53125 0 0.9375 0.28125q0.40625 0.265625 0.609375 0.765625q0.203125 0.5 0.203125 1.09375q0 0.640625 -0.234375 1.15625q-0.21875 0.5 -0.65625 0.78125q-0.4375 0.265625 -0.90625 0.265625q-0.359375 0 -0.640625 -0.140625q-0.28125 -0.15625 -0.453125 -0.390625l0 2.03125l-0.703125 0zm0.640625 -3.640625q0 0.796875 0.3125 1.1875q0.328125 0.375 0.796875 0.375q0.46875 0 0.796875 -0.390625q0.328125 -0.40625 0.328125 -1.234375q0 -0.796875 -0.328125 -1.1875q-0.3125 -0.390625 -0.765625 -0.390625q-0.453125 0 -0.796875 0.421875q-0.34375 0.40625 -0.34375 1.21875zm5.3398438 1.421875l0.109375 0.609375q-0.296875 0.078125 -0.53125 0.078125q-0.390625 0 -0.609375 -0.125q-0.203125 -0.125 -0.296875 -0.3125q-0.078125 -0.203125 -0.078125 -0.84375l0 -2.390625l-0.515625 0l0 -0.546875l0.515625 0l0 -1.015625l0.703125 -0.421875l0 1.4375l0.703125 0l0 0.546875l-0.703125 0l0 2.4375q0 0.296875 0.03125 0.390625q0.046875 0.078125 0.125 0.125q0.078125 0.046875 0.234375 0.046875q0.125 0 0.3125 -0.015625zm0.69140625 -4.296875l0 -0.8125l0.703125 0l0 0.8125l-0.703125 0zm0 4.921875l0 -4.15625l0.703125 0l0 4.15625l-0.703125 0zm1.5117188 -2.078125q0 -1.15625 0.640625 -1.703125q0.53125 -0.46875 1.3125 -0.46875q0.84375 0 1.390625 0.5625q0.546875 0.5625 0.546875 1.546875q0 0.8125 -0.25 1.265625q-0.234375 0.453125 -0.703125 0.71875q-0.453125 0.25 -0.984375 0.25q-0.875 0 -1.421875 -0.5625q-0.53125 -0.5625 -0.53125 -1.609375zm0.71875 0q0 0.796875 0.34375 1.203125q0.359375 0.390625 0.890625 0.390625q0.515625 0 0.859375 -0.390625q0.359375 -0.40625 0.359375 -1.21875q0 -0.78125 -0.359375 -1.171875q-0.34375 -0.390625 -0.859375 -0.390625q-0.53125 0 -0.890625 0.390625q-0.34375 0.390625 -0.34375 1.1875zm3.9960938 2.078125l0 -4.15625l0.625 0l0 0.59375q0.46875 -0.6875 1.328125 -0.6875q0.375 0 0.6875 0.140625q0.3125 0.140625 0.46875 0.359375q0.15625 0.21875 0.21875 0.515625q0.046875 0.1875 0.046875 0.6875l0 2.546875l-0.703125 0l0 -2.53125q0 -0.421875 -0.09375 -0.625q-0.078125 -0.21875 -0.296875 -0.34375q-0.203125 -0.140625 -0.484375 -0.140625q-0.4375 0 -0.765625 0.296875q-0.328125 0.28125 -0.328125 1.078125l0 2.265625l-0.703125 0zm7.1523438 -0.515625q-0.390625 0.328125 -0.75 0.46875q-0.359375 0.140625 -0.78125 0.140625q-0.671875 0 -1.046875 -0.328125q-0.359375 -0.34375 -0.359375 -0.859375q0 -0.3125 0.125 -0.5625q0.140625 -0.25 0.359375 -0.390625q0.234375 -0.15625 0.515625 -0.234375q0.203125 -0.0625 0.625 -0.109375q0.859375 -0.109375 1.25 -0.25q0.015625 -0.140625 0.015625 -0.171875q0 -0.4375 -0.203125 -0.609375q-0.265625 -0.234375 -0.796875 -0.234375q-0.5 0 -0.734375 0.171875q-0.234375 0.171875 -0.359375 0.609375l-0.6875 -0.09375q0.09375 -0.4375 0.3125 -0.703125q0.21875 -0.28125 0.625 -0.421875q0.40625 -0.15625 0.9375 -0.15625q0.53125 0 0.859375 0.125q0.34375 0.125 0.5 0.328125q0.15625 0.1875 0.21875 0.46875q0.03125 0.1875 0.03125 0.65625l0 0.9375q0 0.96875 0.046875 1.234375q0.046875 0.265625 0.171875 0.5l-0.734375 0q-0.109375 -0.21875 -0.140625 -0.515625zm-0.0625 -1.5625q-0.375 0.15625 -1.140625 0.265625q-0.4375 0.0625 -0.625 0.140625q-0.171875 0.078125 -0.265625 0.234375q-0.09375 0.140625 -0.09375 0.328125q0 0.28125 0.203125 0.46875q0.21875 0.1875 0.625 0.1875q0.40625 0 0.71875 -0.171875q0.328125 -0.1875 0.46875 -0.5q0.109375 -0.234375 0.109375 -0.703125l0 -0.25zm1.7929688 2.078125l0 -5.734375l0.703125 0l0 5.734375l-0.703125 0z" fill-rule="nonzero"/></g></svg>