<svg xmlns="http://www.w3.org/2000/svg" xmlns:xlink="http://www.w3.org/1999/xlink" width="800" height="600">\n<path  d="M 0 0
L 800 0
L 800 600
L 0 600
L 0 0" style="stroke-width:0;stroke:rgba(255,255,255,1.0);fill:rgba(255,255,255,1.0)"/><path  d="M 9 11
L 557 11
L 557 551
L 9 551
L 9 11" style="stroke-width:0;stroke:rgba(255,255,255,1.0);fill:rgba(255,255,255,1.0)"/><path  d="M 9 551
L 557 551" style="stroke-width:1;stroke:rgba(51,51,51,1.0);fill:none"/><path  d="M 9 551
L 9 556" style="stroke-width:1;stroke:rgba(51,51,51,1.0);fill:none"/><text x="5" y="573" style="stroke-width:0;stroke:none;fill:rgba(51,51,51,1.0);font-size:12.8px;font-family:'Roboto Medium',sans-serif">0</text><path  d="M 64 551
L 64 556" style="stroke-width:1;stroke:rgba(51,51,51,1.0);fill:none"/><text x="57" y="573" style="stroke-width:0;stroke:none;fill:rgba(51,51,51,1.0);font-size:12.8px;font-family:'Roboto Medium',sans-serif">10</text><path  d="M 119 551
L 119 556" style="stroke-width:1;stroke:rgba(51,51,51,1.0);fill:none"/><text x="112" y="573" style="stroke-width:0;stroke:none;fill:rgba(51,51,51,1.0);font-size:12.8px;font-family:'Roboto Medium',sans-serif">20</text><path  d="M 174 551
L 174 556" style="stroke-width:1;stroke:rgba(51,51,51,1.0);fill:none"/><text x="167" y="573" style="stroke-width:0;stroke:none;fill:rgba(51,51,51,1.0);font-size:12.8px;font-family:'Roboto Medium',sans-serif">30</text><path  d="M 229 551
L 229 556" style="stroke-width:1;stroke:rgba(51,51,51,1.0);fill:none"/><text x="222" y="573" style="stroke-width:0;stroke:none;fill:rgba(51,51,51,1.0);font-size:12.8px;font-family:'Roboto Medium',sans-serif">40</text><path  d="M 283 551
L 283 556" style="stroke-width:1;stroke:rgba(51,51,51,1.0);fill:none"/><text x="276" y="573" style="stroke-width:0;stroke:none;fill:rgba(51,51,51,1.0);font-size:12.8px;font-family:'Roboto Medium',sans-serif">50</text><path  d="M 338 551
L 338 556" style="stroke-width:1;stroke:rgba(51,51,51,1.0);fill:none"/><text x="331" y="573" style="stroke-width:0;stroke:none;fill:rgba(51,51,51,1.0);font-size:12.8px;font-family:'Roboto Medium',sans-serif">60</text><path  d="M 393 551
L 393 556" style="stroke-width:1;stroke:rgba(51,51,51,1.0);fill:none"/><text x="386" y="573" style="stroke-width:0;stroke:none;fill:rgba(51,51,51,1.0);font-size:12.8px;font-family:'Roboto Medium',sans-serif">70</text><path  d="M 448 551
L 448 556" style="stroke-width:1;stroke:rgba(51,51,51,1.0);fill:none"/><text x="441" y="573" style="stroke-width:0;stroke:none;fill:rgba(51,51,51,1.0);font-size:12.8px;font-family:'Roboto Medium',sans-serif">80</text><path  d="M 503 551
L 503 556" style="stroke-width:1;stroke:rgba(51,51,51,1.0);fill:none"/><text x="496" y="573" style="stroke-width:0;stroke:none;fill:rgba(51,51,51,1.0);font-size:12.8px;font-family:'Roboto Medium',sans-serif">90</text><path  d="M 557 551
L 557 556" style="stroke-width:1;stroke:rgba(51,51,51,1.0);fill:none"/><text x="546" y="573" style="stroke-width:0;stroke:none;fill:rgba(51,51,51,1.0);font-size:12.8px;font-family:'Roboto Medium',sans-serif">100</text><text x="256" y="595" style="stroke-width:0;stroke:none;fill:rgba(51,51,51,1.0);font-size:12.8px;font-family:'Roboto Medium',sans-serif">Warnings</text><path  d="M 64 551
L 64 11" style="stroke-width:0;stroke:none;fill:none"/><path  d="M 119 551
L 119 11" style="stroke-width:0;stroke:none;fill:none"/><path  d="M 174 551
L 174 11" style="stroke-width:0;stroke:none;fill:none"/><path  d="M 229 551
L 229 11" style="stroke-width:0;stroke:none;fill:none"/><path  d="M 283 551
L 283 11" style="stroke-width:0;stroke:none;fill:none"/><path  d="M 338 551
L 338 11" style="stroke-width:0;stroke:none;fill:none"/><path  d="M 393 551
L 393 11" style="stroke-width:0;stroke:none;fill:none"/><path  d="M 448 551
L 448 11" style="stroke-width:0;stroke:none;fill:none"/><path  d="M 503 551
L 503 11" style="stroke-width:0;stroke:none;fill:none"/><path  d="M 558 551
L 558 11" style="stroke-width:1;stroke:rgba(51,51,51,1.0);fill:none"/><path  d="M 558 551
L 563 551" style="stroke-width:1;stroke:rgba(51,51,51,1.0);fill:none"/><text x="568" y="557" style="stroke-width:0;stroke:none;fill:rgba(51,51,51,1.0);font-size:12.8px;font-family:'Roboto Medium',sans-serif">0</text><path  d="M 558 497
L 563 497" style="stroke-width:1;stroke:rgba(51,51,51,1.0);fill:none"/><text x="568" y="503" style="stroke-width:0;stroke:none;fill:rgba(51,51,51,1.0);font-size:12.8px;font-family:'Roboto Medium',sans-serif">10</text><path  d="M 558 443
L 563 443" style="stroke-width:1;stroke:rgba(51,51,51,1.0);fill:none"/><text x="568" y="449" style="stroke-width:0;stroke:none;fill:rgba(51,51,51,1.0);font-size:12.8px;font-family:'Roboto Medium',sans-serif">20</text><path  d="M 558 389
L 563 389" style="stroke-width:1;stroke:rgba(51,51,51,1.0);fill:none"/><text x="568" y="395" style="stroke-width:0;stroke:none;fill:rgba(51,51,51,1.0);font-size:12.8px;font-family:'Roboto Medium',sans-serif">30</text><path  d="M 558 335
L 563 335" style="stroke-width:1;stroke:rgba(51,51,51,1.0);fill:none"/><text x="568" y="341" style="stroke-width:0;stroke:none;fill:rgba(51,51,51,1.0);font-size:12.8px;font-family:'Roboto Medium',sans-serif">40</text><path  d="M 558 281
L 563 281" style="stroke-width:1;stroke:rgba(51,51,51,1.0);fill:none"/><text x="568" y="287" style="stroke-width:0;stroke:none;fill:rgba(51,51,51,1.0);font-size:12.8px;font-family:'Roboto Medium',sans-serif">50</text><path  d="M 558 227
L 563 227" style="stroke-width:1;stroke:rgba(51,51,51,1.0);fill:none"/><text x="568" y="233" style="stroke-width:0;stroke:none;fill:rgba(51,51,51,1.0);font-size:12.8px;font-family:'Roboto Medium',sans-serif">60</text><path  d="M 558 173
L 563 173" style="stroke-width:1;stroke:rgba(51,51,51,1.0);fill:none"/><text x="568" y="179" style="stroke-width:0;stroke:none;fill:rgba(51,51,51,1.0);font-size:12.8px;font-family:'Roboto Medium',sans-serif">70</text><path  d="M 558 119
L 563 119" style="stroke-width:1;stroke:rgba(51,51,51,1.0);fill:none"/><text x="568" y="125" style="stroke-width:0;stroke:none;fill:rgba(51,51,51,1.0);font-size:12.8px;font-family:'Roboto Medium',sans-serif">80</text><path  d="M 558 65
L 563 65" style="stroke-width:1;stroke:rgba(51,51,51,1.0);fill:none"/><text x="568" y="71" style="stroke-width:0;stroke:none;fill:rgba(51,51,51,1.0);font-size:12.8px;font-family:'Roboto Medium',sans-serif">90</text><path  d="M 558 11
L 563 11" style="stroke-width:1;stroke:rgba(51,51,51,1.0);fill:none"/><text x="568" y="17" style="stroke-width:0;stroke:none;fill:rgba(51,51,51,1.0);font-size:12.8px;font-family:'Roboto Medium',sans-serif">100</text><text x="600" y="245" style="stroke-width:0;stroke:none;fill:rgba(51,51,51,1.0);font-size:12.8px;font-family:'Roboto Medium',sans-serif" transform="rotate(90.00,600,245)">Benchmarks</text><path  d="M 9 551
L 557 551" style="stroke-width:0;stroke:none;fill:none"/><path  d="M 9 497
L 557 497" style="stroke-width:0;stroke:none;fill:none"/><path  d="M 9 443
L 557 443" style="stroke-width:0;stroke:none;fill:none"/><path  d="M 9 389
L 557 389" style="stroke-width:0;stroke:none;fill:none"/><path  d="M 9 335
L 557 335" style="stroke-width:0;stroke:none;fill:none"/><path  d="M 9 281
L 557 281" style="stroke-width:0;stroke:none;fill:none"/><path  d="M 9 227
L 557 227" style="stroke-width:0;stroke:none;fill:none"/><path  d="M 9 173
L 557 173" style="stroke-width:0;stroke:none;fill:none"/><path  d="M 9 119
L 557 119" style="stroke-width:0;stroke:none;fill:none"/><path  d="M 9 65
L 557 65" style="stroke-width:0;stroke:none;fill:none"/><path  d="M 8 551
L 8 11" style="stroke-width:1;stroke:rgba(51,51,51,1.0);fill:none"/><path  d="M 8 -9223372036854775257
L 3 -9223372036854775257" style="stroke-width:1;stroke:rgba(51,51,51,1.0);fill:none"/><text x="-28" y="-9223372036854775251" style="stroke-width:0;stroke:none;fill:rgba(51,51,51,1.0);font-size:12.8px;font-family:'Roboto Medium',sans-serif">0.00</text><path  d="M 8 -9223372036854775257
L 3 -9223372036854775257" style="stroke-width:1;stroke:rgba(51,51,51,1.0);fill:none"/><text x="-28" y="-9223372036854775251" style="stroke-width:0;stroke:none;fill:rgba(51,51,51,1.0);font-size:12.8px;font-family:'Roboto Medium',sans-serif">0.00</text><path  d="M 8 -9223372036854775257
L 3 -9223372036854775257" style="stroke-width:1;stroke:rgba(51,51,51,1.0);fill:none"/><text x="-28" y="-9223372036854775251" style="stroke-width:0;stroke:none;fill:rgba(51,51,51,1.0);font-size:12.8px;font-family:'Roboto Medium',sans-serif">0.00</text><path  d="M 8 -9223372036854775257
L 3 -9223372036854775257" style="stroke-width:1;stroke:rgba(51,51,51,1.0);fill:none"/><text x="-28" y="-9223372036854775251" style="stroke-width:0;stroke:none;fill:rgba(51,51,51,1.0);font-size:12.8px;font-family:'Roboto Medium',sans-serif">0.00</text><path  d="M 8 -9223372036854775257
L 3 -9223372036854775257" style="stroke-width:1;stroke:rgba(51,51,51,1.0);fill:none"/><text x="-28" y="-9223372036854775251" style="stroke-width:0;stroke:none;fill:rgba(51,51,51,1.0);font-size:12.8px;font-family:'Roboto Medium',sans-serif">0.00</text><path  d="M 8 -9223372036854775257
L 3 -9223372036854775257" style="stroke-width:1;stroke:rgba(51,51,51,1.0);fill:none"/><text x="-28" y="-9223372036854775251" style="stroke-width:0;stroke:none;fill:rgba(51,51,51,1.0);font-size:12.8px;font-family:'Roboto Medium',sans-serif">0.00</text><path  d="M 8 -9223372036854775257
L 3 -9223372036854775257" style="stroke-width:1;stroke:rgba(51,51,51,1.0);fill:none"/><text x="-28" y="-9223372036854775251" style="stroke-width:0;stroke:none;fill:rgba(51,51,51,1.0);font-size:12.8px;font-family:'Roboto Medium',sans-serif">0.00</text><path  d="M 8 -9223372036854775257
L 3 -9223372036854775257" style="stroke-width:1;stroke:rgba(51,51,51,1.0);fill:none"/><text x="-28" y="-9223372036854775251" style="stroke-width:0;stroke:none;fill:rgba(51,51,51,1.0);font-size:12.8px;font-family:'Roboto Medium',sans-serif">0.00</text><path  d="M 8 -9223372036854775257
L 3 -9223372036854775257" style="stroke-width:1;stroke:rgba(51,51,51,1.0);fill:none"/><text x="-28" y="-9223372036854775251" style="stroke-width:0;stroke:none;fill:rgba(51,51,51,1.0);font-size:12.8px;font-family:'Roboto Medium',sans-serif">0.00</text><path  d="M 8 -9223372036854775257
L 3 -9223372036854775257" style="stroke-width:1;stroke:rgba(51,51,51,1.0);fill:none"/><text x="-28" y="-9223372036854775251" style="stroke-width:0;stroke:none;fill:rgba(51,51,51,1.0);font-size:12.8px;font-family:'Roboto Medium',sans-serif">0.00</text><path  d="M 8 -9223372036854775257
L 3 -9223372036854775257" style="stroke-width:1;stroke:rgba(51,51,51,1.0);fill:none"/><text x="-28" y="-9223372036854775251" style="stroke-width:0;stroke:none;fill:rgba(51,51,51,1.0);font-size:12.8px;font-family:'Roboto Medium',sans-serif">0.00</text><path  d="M 8 -9223372036854775257
L 3 -9223372036854775257" style="stroke-width:1;stroke:rgba(51,51,51,1.0);fill:none"/><text x="-28" y="-9223372036854775251" style="stroke-width:0;stroke:none;fill:rgba(51,51,51,1.0);font-size:12.8px;font-family:'Roboto Medium',sans-serif">0.00</text><path  d="M 8 -9223372036854775257
L 3 -9223372036854775257" style="stroke-width:1;stroke:rgba(51,51,51,1.0);fill:none"/><text x="-28" y="-9223372036854775251" style="stroke-width:0;stroke:none;fill:rgba(51,51,51,1.0);font-size:12.8px;font-family:'Roboto Medium',sans-serif">0.00</text><path  d="M 8 -9223372036854775257
L 3 -9223372036854775257" style="stroke-width:1;stroke:rgba(51,51,51,1.0);fill:none"/><text x="-28" y="-9223372036854775251" style="stroke-width:0;stroke:none;fill:rgba(51,51,51,1.0);font-size:12.8px;font-family:'Roboto Medium',sans-serif">0.00</text><path  d="M 8 -9223372036854775257
L 3 -9223372036854775257" style="stroke-width:1;stroke:rgba(51,51,51,1.0);fill:none"/><text x="-28" y="-9223372036854775251" style="stroke-width:0;stroke:none;fill:rgba(51,51,51,1.0);font-size:12.8px;font-family:'Roboto Medium',sans-serif">0.00</text><path  d="M 9 -9223372036854775257
L 557 -9223372036854775257" style="stroke-width:0;stroke:none;fill:none"/><path  d="M 9 -9223372036854775257
L 557 -9223372036854775257" style="stroke-width:0;stroke:none;fill:none"/><path  d="M 9 -9223372036854775257
L 557 -9223372036854775257" style="stroke-width:0;stroke:none;fill:none"/><path  d="M 9 -9223372036854775257
L 557 -9223372036854775257" style="stroke-width:0;stroke:none;fill:none"/><path  d="M 9 -9223372036854775257
L 557 -9223372036854775257" style="stroke-width:0;stroke:none;fill:none"/><path  d="M 9 -9223372036854775257
L 557 -9223372036854775257" style="stroke-width:0;stroke:none;fill:none"/><path  d="M 9 -9223372036854775257
L 557 -9223372036854775257" style="stroke-width:0;stroke:none;fill:none"/><path  d="M 9 -9223372036854775257
L 557 -9223372036854775257" style="stroke-width:0;stroke:none;fill:none"/><path  d="M 9 -9223372036854775257
L 557 -9223372036854775257" style="stroke-width:0;stroke:none;fill:none"/><path  d="M 9 -9223372036854775257
L 557 -9223372036854775257" style="stroke-width:0;stroke:none;fill:none"/><path  d="M 9 -9223372036854775257
L 557 -9223372036854775257" style="stroke-width:0;stroke:none;fill:none"/><path  d="M 9 -9223372036854775257
L 557 -9223372036854775257" style="stroke-width:0;stroke:none;fill:none"/><path  d="M 9 -9223372036854775257
L 557 -9223372036854775257" style="stroke-width:0;stroke:none;fill:none"/><path  d="M 9 -9223372036854775257
L 557 -9223372036854775257" style="stroke-width:0;stroke:none;fill:none"/><path  d="M 550 26
L 612 59" style="stroke-width:1;stroke:rgba(63,63,63,0.2);fill:none"/><path  d="M 557 78
L 612 88" style="stroke-width:1;stroke:rgba(63,63,63,0.2);fill:none"/><path  d="M 533 261
L 612 118" style="stroke-width:1;stroke:rgba(63,63,63,0.2);fill:none"/><path  d="M 557 264
L 612 148" style="stroke-width:1;stroke:rgba(63,63,63,0.2);fill:none"/><path  d="M 533 274
L 612 178" style="stroke-width:1;stroke:rgba(63,63,63,0.2);fill:none"/><path  d="M 533 275
L 612 207" style="stroke-width:1;stroke:rgba(63,63,63,0.2);fill:none"/><path  d="M 146 11
L 146 416
L 557 416" style="stroke-width:1;stroke:rgba(255,0,127,0.2);fill:none"/><path  d="M 283 11
L 283 281
L 557 281" style="stroke-width:1;stroke:rgba(255,0,127,0.2);fill:none"/><path  d="M 420 11
L 420 146
L 557 146" style="stroke-width:1;stroke:rgba(255,0,127,0.2);fill:none"/><path  d="M 475 416
L 485 405
L 515 405
L 515 427
L 485 427
L 475 416
Z" style="stroke-width:1;stroke:rgba(255,0,127,0.2);fill:rgba(255,255,255,1.0)"/><text x="490" y="422" style="stroke-width:0;stroke:none;fill:rgba(51,51,51,1.0);font-size:12.8px;font-family:'Roboto Medium',sans-serif">3/4</text><path  d="M 475 281
L 485 270
L 519 270
L 519 292
L 485 292
L 475 281
Z" style="stroke-width:1;stroke:rgba(255,0,127,0.2);fill:rgba(255,255,255,1.0)"/><text x="490" y="287" style="stroke-width:0;stroke:none;fill:rgba(51,51,51,1.0);font-size:12.8px;font-family:'Roboto Medium',sans-serif">Half</text><path  d="M 475 146
L 485 135
L 538 135
L 538 157
L 485 157
L 475 146
Z" style="stroke-width:1;stroke:rgba(255,0,127,0.2);fill:rgba(255,255,255,1.0)"/><text x="490" y="152" style="stroke-width:0;stroke:none;fill:rgba(51,51,51,1.0);font-size:12.8px;font-family:'Roboto Medium',sans-serif">Quarter</text><circle cx="550" cy="26" r="5" style="stroke-width:1;stroke:rgba(5,249,0,1.0);fill:rgba(5,249,0,1.0)"/><path  d="" style="stroke-width:1;stroke:rgba(5,249,0,1.0);fill:rgba(5,249,0,1.0)"/><circle cx="557" cy="78" r="5" style="stroke-width:1;stroke:rgba(15,232,0,1.0);fill:rgba(15,232,0,1.0)"/><path  d="" style="stroke-width:1;stroke:rgba(15,232,0,1.0);fill:rgba(15,232,0,1.0)"/><circle cx="533" cy="261" r="5" style="stroke-width:1;stroke:rgba(57,170,0,1.0);fill:rgba(57,170,0,1.0)"/><path  d="" style="stroke-width:1;stroke:rgba(57,170,0,1.0);fill:rgba(57,170,0,1.0)"/><circle cx="557" cy="264" r="5" style="stroke-width:1;stroke:rgba(50,170,0,1.0);fill:rgba(50,170,0,1.0)"/><path  d="" style="stroke-width:1;stroke:rgba(50,170,0,1.0);fill:rgba(50,170,0,1.0)"/><circle cx="533" cy="274" r="5" style="stroke-width:1;stroke:rgba(59,166,0,1.0);fill:rgba(59,166,0,1.0)"/><path  d="" style="stroke-width:1;stroke:rgba(59,166,0,1.0);fill:rgba(59,166,0,1.0)"/><circle cx="533" cy="275" r="5" style="stroke-width:1;stroke:rgba(59,166,0,1.0);fill:rgba(59,166,0,1.0)"/><path  d="" style="stroke-width:1;stroke:rgba(59,166,0,1.0);fill:rgba(59,166,0,1.0)"/><path  d="M 612 59
L 622 48
L 740 48
L 740 70
L 622 70
L 612 59
Z" style="stroke-width:1;stroke:rgba(63,127,255,1.0);fill:rgba(255,255,255,1.0)"/><text x="627" y="65" style="stroke-width:0;stroke:none;fill:rgba(51,51,51,1.0);font-size:12.8px;font-family:'Roboto Medium',sans-serif">slog/JSONHandler</text><path  d="M 612 88
L 622 77
L 694 77
L 694 99
L 622 99
L 612 88
Z" style="stroke-width:1;stroke:rgba(63,127,255,1.0);fill:rgba(255,255,255,1.0)"/><text x="627" y="94" style="stroke-width:0;stroke:none;fill:rgba(51,51,51,1.0);font-size:12.8px;font-family:'Roboto Medium',sans-serif">snqk/meld</text><path  d="M 612 118
L 622 107
L 753 107
L 753 129
L 622 129
L 612 118
Z" style="stroke-width:1;stroke:rgba(63,127,255,1.0);fill:rgba(255,255,255,1.0)"/><text x="627" y="124" style="stroke-width:0;stroke:none;fill:rgba(51,51,51,1.0);font-size:12.8px;font-family:'Roboto Medium',sans-serif">veqryn/dedup/Ignore</text><path  d="M 612 148
L 622 137
L 771 137
L 771 159
L 622 159
L 612 148
Z" style="stroke-width:1;stroke:rgba(63,127,255,1.0);fill:rgba(255,255,255,1.0)"/><text x="627" y="154" style="stroke-width:0;stroke:none;fill:rgba(51,51,51,1.0);font-size:12.8px;font-family:'Roboto Medium',sans-serif">veqryn/dedup/Overwrite</text><path  d="M 612 178
L 622 167
L 761 167
L 761 189
L 622 189
L 612 178
Z" style="stroke-width:1;stroke:rgba(63,127,255,1.0);fill:rgba(255,255,255,1.0)"/><text x="627" y="184" style="stroke-width:0;stroke:none;fill:rgba(51,51,51,1.0);font-size:12.8px;font-family:'Roboto Medium',sans-serif">veqryn/dedup/Append</text><path  d="M 612 207
L 622 196
L 775 196
L 775 218
L 622 218
L 612 207
Z" style="stroke-width:1;stroke:rgba(63,127,255,1.0);fill:rgba(255,255,255,1.0)"/><text x="627" y="213" style="stroke-width:0;stroke:none;fill:rgba(51,51,51,1.0);font-size:12.8px;font-family:'Roboto Medium',sans-serif">veqryn/dedup/Increment</text></svg>