<svg xmlns="http://www.w3.org/2000/svg" xmlns:xlink="http://www.w3.org/1999/xlink" width="800" height="600">\n<path  d="M 0 0
L 800 0
L 800 600
L 0 600
L 0 0" style="stroke-width:0;stroke:rgba(255,255,255,1.0);fill:rgba(255,255,255,1.0)"/><path  d="M 12 11
L 580 11
L 580 551
L 12 551
L 12 11" style="stroke-width:0;stroke:rgba(255,255,255,1.0);fill:rgba(255,255,255,1.0)"/><path  d="M 12 551
L 580 551" style="stroke-width:1;stroke:rgba(51,51,51,1.0);fill:none"/><path  d="M 12 551
L 12 556" style="stroke-width:1;stroke:rgba(51,51,51,1.0);fill:none"/><text x="5" y="573" style="stroke-width:0;stroke:none;fill:rgba(51,51,51,1.0);font-size:12.8px;font-family:'Roboto Medium',sans-serif">50</text><path  d="M 69 551
L 69 556" style="stroke-width:1;stroke:rgba(51,51,51,1.0);fill:none"/><text x="62" y="573" style="stroke-width:0;stroke:none;fill:rgba(51,51,51,1.0);font-size:12.8px;font-family:'Roboto Medium',sans-serif">55</text><path  d="M 126 551
L 126 556" style="stroke-width:1;stroke:rgba(51,51,51,1.0);fill:none"/><text x="119" y="573" style="stroke-width:0;stroke:none;fill:rgba(51,51,51,1.0);font-size:12.8px;font-family:'Roboto Medium',sans-serif">60</text><path  d="M 183 551
L 183 556" style="stroke-width:1;stroke:rgba(51,51,51,1.0);fill:none"/><text x="176" y="573" style="stroke-width:0;stroke:none;fill:rgba(51,51,51,1.0);font-size:12.8px;font-family:'Roboto Medium',sans-serif">65</text><path  d="M 240 551
L 240 556" style="stroke-width:1;stroke:rgba(51,51,51,1.0);fill:none"/><text x="233" y="573" style="stroke-width:0;stroke:none;fill:rgba(51,51,51,1.0);font-size:12.8px;font-family:'Roboto Medium',sans-serif">70</text><path  d="M 296 551
L 296 556" style="stroke-width:1;stroke:rgba(51,51,51,1.0);fill:none"/><text x="289" y="573" style="stroke-width:0;stroke:none;fill:rgba(51,51,51,1.0);font-size:12.8px;font-family:'Roboto Medium',sans-serif">75</text><path  d="M 353 551
L 353 556" style="stroke-width:1;stroke:rgba(51,51,51,1.0);fill:none"/><text x="346" y="573" style="stroke-width:0;stroke:none;fill:rgba(51,51,51,1.0);font-size:12.8px;font-family:'Roboto Medium',sans-serif">80</text><path  d="M 410 551
L 410 556" style="stroke-width:1;stroke:rgba(51,51,51,1.0);fill:none"/><text x="403" y="573" style="stroke-width:0;stroke:none;fill:rgba(51,51,51,1.0);font-size:12.8px;font-family:'Roboto Medium',sans-serif">85</text><path  d="M 467 551
L 467 556" style="stroke-width:1;stroke:rgba(51,51,51,1.0);fill:none"/><text x="460" y="573" style="stroke-width:0;stroke:none;fill:rgba(51,51,51,1.0);font-size:12.8px;font-family:'Roboto Medium',sans-serif">90</text><path  d="M 524 551
L 524 556" style="stroke-width:1;stroke:rgba(51,51,51,1.0);fill:none"/><text x="517" y="573" style="stroke-width:0;stroke:none;fill:rgba(51,51,51,1.0);font-size:12.8px;font-family:'Roboto Medium',sans-serif">95</text><path  d="M 580 551
L 580 556" style="stroke-width:1;stroke:rgba(51,51,51,1.0);fill:none"/><text x="569" y="573" style="stroke-width:0;stroke:none;fill:rgba(51,51,51,1.0);font-size:12.8px;font-family:'Roboto Medium',sans-serif">100</text><text x="269" y="595" style="stroke-width:0;stroke:none;fill:rgba(51,51,51,1.0);font-size:12.8px;font-family:'Roboto Medium',sans-serif">Warnings</text><path  d="M 69 551
L 69 11" style="stroke-width:0;stroke:none;fill:none"/><path  d="M 126 551
L 126 11" style="stroke-width:0;stroke:none;fill:none"/><path  d="M 183 551
L 183 11" style="stroke-width:0;stroke:none;fill:none"/><path  d="M 240 551
L 240 11" style="stroke-width:0;stroke:none;fill:none"/><path  d="M 296 551
L 296 11" style="stroke-width:0;stroke:none;fill:none"/><path  d="M 353 551
L 353 11" style="stroke-width:0;stroke:none;fill:none"/><path  d="M 410 551
L 410 11" style="stroke-width:0;stroke:none;fill:none"/><path  d="M 467 551
L 467 11" style="stroke-width:0;stroke:none;fill:none"/><path  d="M 524 551
L 524 11" style="stroke-width:0;stroke:none;fill:none"/><path  d="M 581 551
L 581 11" style="stroke-width:1;stroke:rgba(51,51,51,1.0);fill:none"/><path  d="M 581 551
L 586 551" style="stroke-width:1;stroke:rgba(51,51,51,1.0);fill:none"/><text x="591" y="557" style="stroke-width:0;stroke:none;fill:rgba(51,51,51,1.0);font-size:12.8px;font-family:'Roboto Medium',sans-serif">50</text><path  d="M 581 497
L 586 497" style="stroke-width:1;stroke:rgba(51,51,51,1.0);fill:none"/><text x="591" y="503" style="stroke-width:0;stroke:none;fill:rgba(51,51,51,1.0);font-size:12.8px;font-family:'Roboto Medium',sans-serif">55</text><path  d="M 581 443
L 586 443" style="stroke-width:1;stroke:rgba(51,51,51,1.0);fill:none"/><text x="591" y="449" style="stroke-width:0;stroke:none;fill:rgba(51,51,51,1.0);font-size:12.8px;font-family:'Roboto Medium',sans-serif">60</text><path  d="M 581 389
L 586 389" style="stroke-width:1;stroke:rgba(51,51,51,1.0);fill:none"/><text x="591" y="395" style="stroke-width:0;stroke:none;fill:rgba(51,51,51,1.0);font-size:12.8px;font-family:'Roboto Medium',sans-serif">65</text><path  d="M 581 335
L 586 335" style="stroke-width:1;stroke:rgba(51,51,51,1.0);fill:none"/><text x="591" y="341" style="stroke-width:0;stroke:none;fill:rgba(51,51,51,1.0);font-size:12.8px;font-family:'Roboto Medium',sans-serif">70</text><path  d="M 581 281
L 586 281" style="stroke-width:1;stroke:rgba(51,51,51,1.0);fill:none"/><text x="591" y="287" style="stroke-width:0;stroke:none;fill:rgba(51,51,51,1.0);font-size:12.8px;font-family:'Roboto Medium',sans-serif">75</text><path  d="M 581 227
L 586 227" style="stroke-width:1;stroke:rgba(51,51,51,1.0);fill:none"/><text x="591" y="233" style="stroke-width:0;stroke:none;fill:rgba(51,51,51,1.0);font-size:12.8px;font-family:'Roboto Medium',sans-serif">80</text><path  d="M 581 173
L 586 173" style="stroke-width:1;stroke:rgba(51,51,51,1.0);fill:none"/><text x="591" y="179" style="stroke-width:0;stroke:none;fill:rgba(51,51,51,1.0);font-size:12.8px;font-family:'Roboto Medium',sans-serif">85</text><path  d="M 581 119
L 586 119" style="stroke-width:1;stroke:rgba(51,51,51,1.0);fill:none"/><text x="591" y="125" style="stroke-width:0;stroke:none;fill:rgba(51,51,51,1.0);font-size:12.8px;font-family:'Roboto Medium',sans-serif">90</text><path  d="M 581 65
L 586 65" style="stroke-width:1;stroke:rgba(51,51,51,1.0);fill:none"/><text x="591" y="71" style="stroke-width:0;stroke:none;fill:rgba(51,51,51,1.0);font-size:12.8px;font-family:'Roboto Medium',sans-serif">95</text><path  d="M 581 11
L 586 11" style="stroke-width:1;stroke:rgba(51,51,51,1.0);fill:none"/><text x="591" y="17" style="stroke-width:0;stroke:none;fill:rgba(51,51,51,1.0);font-size:12.8px;font-family:'Roboto Medium',sans-serif">100</text><text x="623" y="245" style="stroke-width:0;stroke:none;fill:rgba(51,51,51,1.0);font-size:12.8px;font-family:'Roboto Medium',sans-serif" transform="rotate(90.00,623,245)">Benchmarks</text><path  d="M 12 1091
L 580 1091" style="stroke-width:0;stroke:none;fill:none"/><path  d="M 12 497
L 580 497" style="stroke-width:0;stroke:none;fill:none"/><path  d="M 12 443
L 580 443" style="stroke-width:0;stroke:none;fill:none"/><path  d="M 12 389
L 580 389" style="stroke-width:0;stroke:none;fill:none"/><path  d="M 12 335
L 580 335" style="stroke-width:0;stroke:none;fill:none"/><path  d="M 12 281
L 580 281" style="stroke-width:0;stroke:none;fill:none"/><path  d="M 12 227
L 580 227" style="stroke-width:0;stroke:none;fill:none"/><path  d="M 12 173
L 580 173" style="stroke-width:0;stroke:none;fill:none"/><path  d="M 12 119
L 580 119" style="stroke-width:0;stroke:none;fill:none"/><path  d="M 12 65
L 580 65" style="stroke-width:0;stroke:none;fill:none"/><path  d="M 11 551
L 11 11" style="stroke-width:1;stroke:rgba(51,51,51,1.0);fill:none"/><path  d="M 11 -9223372036854775257
L 6 -9223372036854775257" style="stroke-width:1;stroke:rgba(51,51,51,1.0);fill:none"/><text x="-25" y="-9223372036854775251" style="stroke-width:0;stroke:none;fill:rgba(51,51,51,1.0);font-size:12.8px;font-family:'Roboto Medium',sans-serif">0.00</text><path  d="M 11 -9223372036854775257
L 6 -9223372036854775257" style="stroke-width:1;stroke:rgba(51,51,51,1.0);fill:none"/><text x="-25" y="-9223372036854775251" style="stroke-width:0;stroke:none;fill:rgba(51,51,51,1.0);font-size:12.8px;font-family:'Roboto Medium',sans-serif">0.00</text><path  d="M 11 -9223372036854775257
L 6 -9223372036854775257" style="stroke-width:1;stroke:rgba(51,51,51,1.0);fill:none"/><text x="-25" y="-9223372036854775251" style="stroke-width:0;stroke:none;fill:rgba(51,51,51,1.0);font-size:12.8px;font-family:'Roboto Medium',sans-serif">0.00</text><path  d="M 11 -9223372036854775257
L 6 -9223372036854775257" style="stroke-width:1;stroke:rgba(51,51,51,1.0);fill:none"/><text x="-25" y="-9223372036854775251" style="stroke-width:0;stroke:none;fill:rgba(51,51,51,1.0);font-size:12.8px;font-family:'Roboto Medium',sans-serif">0.00</text><path  d="M 11 -9223372036854775257
L 6 -9223372036854775257" style="stroke-width:1;stroke:rgba(51,51,51,1.0);fill:none"/><text x="-25" y="-9223372036854775251" style="stroke-width:0;stroke:none;fill:rgba(51,51,51,1.0);font-size:12.8px;font-family:'Roboto Medium',sans-serif">0.00</text><path  d="M 11 -9223372036854775257
L 6 -9223372036854775257" style="stroke-width:1;stroke:rgba(51,51,51,1.0);fill:none"/><text x="-25" y="-9223372036854775251" style="stroke-width:0;stroke:none;fill:rgba(51,51,51,1.0);font-size:12.8px;font-family:'Roboto Medium',sans-serif">0.00</text><path  d="M 11 -9223372036854775257
L 6 -9223372036854775257" style="stroke-width:1;stroke:rgba(51,51,51,1.0);fill:none"/><text x="-25" y="-9223372036854775251" style="stroke-width:0;stroke:none;fill:rgba(51,51,51,1.0);font-size:12.8px;font-family:'Roboto Medium',sans-serif">0.00</text><path  d="M 11 -9223372036854775257
L 6 -9223372036854775257" style="stroke-width:1;stroke:rgba(51,51,51,1.0);fill:none"/><text x="-25" y="-9223372036854775251" style="stroke-width:0;stroke:none;fill:rgba(51,51,51,1.0);font-size:12.8px;font-family:'Roboto Medium',sans-serif">0.00</text><path  d="M 11 -9223372036854775257
L 6 -9223372036854775257" style="stroke-width:1;stroke:rgba(51,51,51,1.0);fill:none"/><text x="-25" y="-9223372036854775251" style="stroke-width:0;stroke:none;fill:rgba(51,51,51,1.0);font-size:12.8px;font-family:'Roboto Medium',sans-serif">0.00</text><path  d="M 11 -9223372036854775257
L 6 -9223372036854775257" style="stroke-width:1;stroke:rgba(51,51,51,1.0);fill:none"/><text x="-25" y="-9223372036854775251" style="stroke-width:0;stroke:none;fill:rgba(51,51,51,1.0);font-size:12.8px;font-family:'Roboto Medium',sans-serif">0.00</text><path  d="M 11 -9223372036854775257
L 6 -9223372036854775257" style="stroke-width:1;stroke:rgba(51,51,51,1.0);fill:none"/><text x="-25" y="-9223372036854775251" style="stroke-width:0;stroke:none;fill:rgba(51,51,51,1.0);font-size:12.8px;font-family:'Roboto Medium',sans-serif">0.00</text><path  d="M 11 -9223372036854775257
L 6 -9223372036854775257" style="stroke-width:1;stroke:rgba(51,51,51,1.0);fill:none"/><text x="-25" y="-9223372036854775251" style="stroke-width:0;stroke:none;fill:rgba(51,51,51,1.0);font-size:12.8px;font-family:'Roboto Medium',sans-serif">0.00</text><path  d="M 11 -9223372036854775257
L 6 -9223372036854775257" style="stroke-width:1;stroke:rgba(51,51,51,1.0);fill:none"/><text x="-25" y="-9223372036854775251" style="stroke-width:0;stroke:none;fill:rgba(51,51,51,1.0);font-size:12.8px;font-family:'Roboto Medium',sans-serif">0.00</text><path  d="M 11 -9223372036854775257
L 6 -9223372036854775257" style="stroke-width:1;stroke:rgba(51,51,51,1.0);fill:none"/><text x="-25" y="-9223372036854775251" style="stroke-width:0;stroke:none;fill:rgba(51,51,51,1.0);font-size:12.8px;font-family:'Roboto Medium',sans-serif">0.00</text><path  d="M 11 -9223372036854775257
L 6 -9223372036854775257" style="stroke-width:1;stroke:rgba(51,51,51,1.0);fill:none"/><text x="-25" y="-9223372036854775251" style="stroke-width:0;stroke:none;fill:rgba(51,51,51,1.0);font-size:12.8px;font-family:'Roboto Medium',sans-serif">0.00</text><path  d="M 12 -9223372036854775257
L 580 -9223372036854775257" style="stroke-width:0;stroke:none;fill:none"/><path  d="M 12 -9223372036854775257
L 580 -9223372036854775257" style="stroke-width:0;stroke:none;fill:none"/><path  d="M 12 -9223372036854775257
L 580 -9223372036854775257" style="stroke-width:0;stroke:none;fill:none"/><path  d="M 12 -9223372036854775257
L 580 -9223372036854775257" style="stroke-width:0;stroke:none;fill:none"/><path  d="M 12 -9223372036854775257
L 580 -9223372036854775257" style="stroke-width:0;stroke:none;fill:none"/><path  d="M 12 -9223372036854775257
L 580 -9223372036854775257" style="stroke-width:0;stroke:none;fill:none"/><path  d="M 12 -9223372036854775257
L 580 -9223372036854775257" style="stroke-width:0;stroke:none;fill:none"/><path  d="M 12 -9223372036854775257
L 580 -9223372036854775257" style="stroke-width:0;stroke:none;fill:none"/><path  d="M 12 -9223372036854775257
L 580 -9223372036854775257" style="stroke-width:0;stroke:none;fill:none"/><path  d="M 12 -9223372036854775257
L 580 -9223372036854775257" style="stroke-width:0;stroke:none;fill:none"/><path  d="M 12 -9223372036854775257
L 580 -9223372036854775257" style="stroke-width:0;stroke:none;fill:none"/><path  d="M 12 -9223372036854775257
L 580 -9223372036854775257" style="stroke-width:0;stroke:none;fill:none"/><path  d="M 12 -9223372036854775257
L 580 -9223372036854775257" style="stroke-width:0;stroke:none;fill:none"/><path  d="M 12 -9223372036854775257
L 580 -9223372036854775257" style="stroke-width:0;stroke:none;fill:none"/><path  d="M 563 11
L 637 106" style="stroke-width:1;stroke:rgba(63,63,63,0.2);fill:none"/><path  d="M 286 22
L 637 141" style="stroke-width:1;stroke:rgba(63,63,63,0.2);fill:none"/><path  d="M 563 44
L 637 177" style="stroke-width:1;stroke:rgba(63,63,63,0.2);fill:none"/><path  d="M 563 57
L 637 212" style="stroke-width:1;stroke:rgba(63,63,63,0.2);fill:none"/><path  d="M 147 130
L 637 247" style="stroke-width:1;stroke:rgba(63,63,63,0.2);fill:none"/><path  d="M 563 184
L 637 282" style="stroke-width:1;stroke:rgba(63,63,63,0.2);fill:none"/><path  d="M 173 481
L 637 317" style="stroke-width:1;stroke:rgba(63,63,63,0.2);fill:none"/><path  d="M 138 494
L 637 352" style="stroke-width:1;stroke:rgba(63,63,63,0.2);fill:none"/><path  d="M 296 11
L 296 281
L 580 281" style="stroke-width:1;stroke:rgba(255,0,127,0.2);fill:none"/><path  d="M 501 281
L 511 270
L 564 270
L 564 292
L 511 292
L 501 281
Z" style="stroke-width:1;stroke:rgba(255,0,127,0.2);fill:rgba(255,255,255,1.0)"/><text x="516" y="287" style="stroke-width:0;stroke:none;fill:rgba(51,51,51,1.0);font-size:12.8px;font-family:'Roboto Medium',sans-serif">Quarter</text><circle cx="563" cy="11" r="5" style="stroke-width:1;stroke:rgba(3,249,0,1.0);fill:rgba(3,249,0,1.0)"/><path  d="" style="stroke-width:1;stroke:rgba(3,249,0,1.0);fill:rgba(3,249,0,1.0)"/><circle cx="286" cy="22" r="5" style="stroke-width:1;stroke:rgba(58,161,0,1.0);fill:rgba(58,161,0,1.0)"/><path  d="" style="stroke-width:1;stroke:rgba(58,161,0,1.0);fill:rgba(58,161,0,1.0)"/><circle cx="563" cy="44" r="5" style="stroke-width:1;stroke:rgba(11,242,0,1.0);fill:rgba(11,242,0,1.0)"/><path  d="" style="stroke-width:1;stroke:rgba(11,242,0,1.0);fill:rgba(11,242,0,1.0)"/><circle cx="563" cy="57" r="5" style="stroke-width:1;stroke:rgba(14,238,0,1.0);fill:rgba(14,238,0,1.0)"/><path  d="" style="stroke-width:1;stroke:rgba(14,238,0,1.0);fill:rgba(14,238,0,1.0)"/><circle cx="147" cy="130" r="5" style="stroke-width:1;stroke:rgba(108,111,0,1.0);fill:rgba(108,111,0,1.0)"/><path  d="" style="stroke-width:1;stroke:rgba(108,111,0,1.0);fill:rgba(108,111,0,1.0)"/><circle cx="563" cy="184" r="5" style="stroke-width:1;stroke:rgba(41,196,0,1.0);fill:rgba(41,196,0,1.0)"/><path  d="" style="stroke-width:1;stroke:rgba(41,196,0,1.0);fill:rgba(41,196,0,1.0)"/><circle cx="173" cy="481" r="5" style="stroke-width:1;stroke:rgba(199,51,0,1.0);fill:rgba(199,51,0,1.0)"/><path  d="" style="stroke-width:1;stroke:rgba(199,51,0,1.0);fill:rgba(199,51,0,1.0)"/><circle cx="138" cy="494" r="5" style="stroke-width:1;stroke:rgba(210,41,0,1.0);fill:rgba(210,41,0,1.0)"/><path  d="" style="stroke-width:1;stroke:rgba(210,41,0,1.0);fill:rgba(210,41,0,1.0)"/><path  d="M 637 106
L 647 95
L 725 95
L 725 117
L 647 117
L 637 106
Z" style="stroke-width:1;stroke:rgba(63,127,255,1.0);fill:rgba(255,255,255,1.0)"/><text x="652" y="112" style="stroke-width:0;stroke:none;fill:rgba(51,51,51,1.0);font-size:12.8px;font-family:'Roboto Medium',sans-serif">phuslu/slog</text><path  d="M 637 141
L 647 130
L 761 130
L 761 152
L 647 152
L 637 141
Z" style="stroke-width:1;stroke:rgba(63,127,255,1.0);fill:rgba(255,255,255,1.0)"/><text x="652" y="147" style="stroke-width:0;stroke:none;fill:rgba(51,51,51,1.0);font-size:12.8px;font-family:'Roboto Medium',sans-serif">svcrunner/jsonlog</text><path  d="M 637 177
L 647 166
L 765 166
L 765 188
L 647 188
L 637 177
Z" style="stroke-width:1;stroke:rgba(63,127,255,1.0);fill:rgba(255,255,255,1.0)"/><text x="652" y="183" style="stroke-width:0;stroke:none;fill:rgba(51,51,51,1.0);font-size:12.8px;font-family:'Roboto Medium',sans-serif">slog/JSONHandler</text><path  d="M 637 212
L 647 201
L 740 201
L 740 223
L 647 223
L 637 212
Z" style="stroke-width:1;stroke:rgba(63,127,255,1.0);fill:rgba(255,255,255,1.0)"/><text x="652" y="218" style="stroke-width:0;stroke:none;fill:rgba(51,51,51,1.0);font-size:12.8px;font-family:'Roboto Medium',sans-serif">madkins/flash</text><path  d="M 637 247
L 647 236
L 778 236
L 778 258
L 647 258
L 637 247
Z" style="stroke-width:1;stroke:rgba(63,127,255,1.0);fill:rgba(255,255,255,1.0)"/><text x="652" y="253" style="stroke-width:0;stroke:none;fill:rgba(51,51,51,1.0);font-size:12.8px;font-family:'Roboto Medium',sans-serif">chanchal/zaphandler</text><path  d="M 637 282
L 647 271
L 749 271
L 749 293
L 647 293
L 637 282
Z" style="stroke-width:1;stroke:rgba(63,127,255,1.0);fill:rgba(255,255,255,1.0)"/><text x="652" y="288" style="stroke-width:0;stroke:none;fill:rgba(51,51,51,1.0);font-size:12.8px;font-family:'Roboto Medium',sans-serif">madkins/sloggy</text><path  d="M 637 317
L 647 306
L 777 306
L 777 328
L 647 328
L 637 317
Z" style="stroke-width:1;stroke:rgba(63,127,255,1.0);fill:rgba(255,255,255,1.0)"/><text x="652" y="323" style="stroke-width:0;stroke:none;fill:rgba(51,51,51,1.0);font-size:12.8px;font-family:'Roboto Medium',sans-serif">samber/slog-zerolog</text><path  d="M 637 352
L 647 341
L 755 341
L 755 363
L 647 363
L 637 352
Z" style="stroke-width:1;stroke:rgba(63,127,255,1.0);fill:rgba(255,255,255,1.0)"/><text x="652" y="358" style="stroke-width:0;stroke:none;fill:rgba(51,51,51,1.0);font-size:12.8px;font-family:'Roboto Medium',sans-serif">samber/slog-zap</text></svg>