<svg xmlns="http://www.w3.org/2000/svg" xmlns:xlink="http://www.w3.org/1999/xlink" width="750" height="600">\n<path  d="M 0 0
L 750 0
L 750 600
L 0 600
L 0 0" style="stroke-width:0;stroke:rgba(255,255,255,1.0);fill:rgba(255,255,255,1.0)"/><path  d="M 12 16
L 637 16
L 637 551
L 12 551
L 12 16" style="stroke-width:0;stroke:rgba(255,255,255,1.0);fill:rgba(255,255,255,1.0)"/><path  d="M 12 551
L 637 551" style="stroke-width:1;stroke:rgba(51,51,51,1.0);fill:none"/><path  d="M 12 551
L 12 556" style="stroke-width:1;stroke:rgba(51,51,51,1.0);fill:none"/><text x="5" y="573" style="stroke-width:0;stroke:none;fill:rgba(51,51,51,1.0);font-size:12.8px;font-family:'Roboto Medium',sans-serif">50</text><path  d="M 75 551
L 75 556" style="stroke-width:1;stroke:rgba(51,51,51,1.0);fill:none"/><text x="68" y="573" style="stroke-width:0;stroke:none;fill:rgba(51,51,51,1.0);font-size:12.8px;font-family:'Roboto Medium',sans-serif">55</text><path  d="M 137 551
L 137 556" style="stroke-width:1;stroke:rgba(51,51,51,1.0);fill:none"/><text x="130" y="573" style="stroke-width:0;stroke:none;fill:rgba(51,51,51,1.0);font-size:12.8px;font-family:'Roboto Medium',sans-serif">60</text><path  d="M 200 551
L 200 556" style="stroke-width:1;stroke:rgba(51,51,51,1.0);fill:none"/><text x="193" y="573" style="stroke-width:0;stroke:none;fill:rgba(51,51,51,1.0);font-size:12.8px;font-family:'Roboto Medium',sans-serif">65</text><path  d="M 262 551
L 262 556" style="stroke-width:1;stroke:rgba(51,51,51,1.0);fill:none"/><text x="255" y="573" style="stroke-width:0;stroke:none;fill:rgba(51,51,51,1.0);font-size:12.8px;font-family:'Roboto Medium',sans-serif">70</text><path  d="M 325 551
L 325 556" style="stroke-width:1;stroke:rgba(51,51,51,1.0);fill:none"/><text x="318" y="573" style="stroke-width:0;stroke:none;fill:rgba(51,51,51,1.0);font-size:12.8px;font-family:'Roboto Medium',sans-serif">75</text><path  d="M 387 551
L 387 556" style="stroke-width:1;stroke:rgba(51,51,51,1.0);fill:none"/><text x="380" y="573" style="stroke-width:0;stroke:none;fill:rgba(51,51,51,1.0);font-size:12.8px;font-family:'Roboto Medium',sans-serif">80</text><path  d="M 450 551
L 450 556" style="stroke-width:1;stroke:rgba(51,51,51,1.0);fill:none"/><text x="443" y="573" style="stroke-width:0;stroke:none;fill:rgba(51,51,51,1.0);font-size:12.8px;font-family:'Roboto Medium',sans-serif">85</text><path  d="M 512 551
L 512 556" style="stroke-width:1;stroke:rgba(51,51,51,1.0);fill:none"/><text x="505" y="573" style="stroke-width:0;stroke:none;fill:rgba(51,51,51,1.0);font-size:12.8px;font-family:'Roboto Medium',sans-serif">90</text><path  d="M 575 551
L 575 556" style="stroke-width:1;stroke:rgba(51,51,51,1.0);fill:none"/><text x="568" y="573" style="stroke-width:0;stroke:none;fill:rgba(51,51,51,1.0);font-size:12.8px;font-family:'Roboto Medium',sans-serif">95</text><path  d="M 637 551
L 637 556" style="stroke-width:1;stroke:rgba(51,51,51,1.0);fill:none"/><text x="626" y="573" style="stroke-width:0;stroke:none;fill:rgba(51,51,51,1.0);font-size:12.8px;font-family:'Roboto Medium',sans-serif">100</text><text x="298" y="595" style="stroke-width:0;stroke:none;fill:rgba(51,51,51,1.0);font-size:12.8px;font-family:'Roboto Medium',sans-serif">Warnings</text><path  d="M 75 551
L 75 16" style="stroke-width:0;stroke:none;fill:none"/><path  d="M 137 551
L 137 16" style="stroke-width:0;stroke:none;fill:none"/><path  d="M 200 551
L 200 16" style="stroke-width:0;stroke:none;fill:none"/><path  d="M 262 551
L 262 16" style="stroke-width:0;stroke:none;fill:none"/><path  d="M 325 551
L 325 16" style="stroke-width:0;stroke:none;fill:none"/><path  d="M 387 551
L 387 16" style="stroke-width:0;stroke:none;fill:none"/><path  d="M 450 551
L 450 16" style="stroke-width:0;stroke:none;fill:none"/><path  d="M 512 551
L 512 16" style="stroke-width:0;stroke:none;fill:none"/><path  d="M 575 551
L 575 16" style="stroke-width:0;stroke:none;fill:none"/><path  d="M 638 551
L 638 16" style="stroke-width:1;stroke:rgba(51,51,51,1.0);fill:none"/><path  d="M 638 551
L 643 551" style="stroke-width:1;stroke:rgba(51,51,51,1.0);fill:none"/><text x="648" y="557" style="stroke-width:0;stroke:none;fill:rgba(51,51,51,1.0);font-size:12.8px;font-family:'Roboto Medium',sans-serif">50</text><path  d="M 638 497
L 643 497" style="stroke-width:1;stroke:rgba(51,51,51,1.0);fill:none"/><text x="648" y="503" style="stroke-width:0;stroke:none;fill:rgba(51,51,51,1.0);font-size:12.8px;font-family:'Roboto Medium',sans-serif">55</text><path  d="M 638 444
L 643 444" style="stroke-width:1;stroke:rgba(51,51,51,1.0);fill:none"/><text x="648" y="450" style="stroke-width:0;stroke:none;fill:rgba(51,51,51,1.0);font-size:12.8px;font-family:'Roboto Medium',sans-serif">60</text><path  d="M 638 390
L 643 390" style="stroke-width:1;stroke:rgba(51,51,51,1.0);fill:none"/><text x="648" y="396" style="stroke-width:0;stroke:none;fill:rgba(51,51,51,1.0);font-size:12.8px;font-family:'Roboto Medium',sans-serif">65</text><path  d="M 638 337
L 643 337" style="stroke-width:1;stroke:rgba(51,51,51,1.0);fill:none"/><text x="648" y="343" style="stroke-width:0;stroke:none;fill:rgba(51,51,51,1.0);font-size:12.8px;font-family:'Roboto Medium',sans-serif">70</text><path  d="M 638 283
L 643 283" style="stroke-width:1;stroke:rgba(51,51,51,1.0);fill:none"/><text x="648" y="289" style="stroke-width:0;stroke:none;fill:rgba(51,51,51,1.0);font-size:12.8px;font-family:'Roboto Medium',sans-serif">75</text><path  d="M 638 230
L 643 230" style="stroke-width:1;stroke:rgba(51,51,51,1.0);fill:none"/><text x="648" y="236" style="stroke-width:0;stroke:none;fill:rgba(51,51,51,1.0);font-size:12.8px;font-family:'Roboto Medium',sans-serif">80</text><path  d="M 638 176
L 643 176" style="stroke-width:1;stroke:rgba(51,51,51,1.0);fill:none"/><text x="648" y="182" style="stroke-width:0;stroke:none;fill:rgba(51,51,51,1.0);font-size:12.8px;font-family:'Roboto Medium',sans-serif">85</text><path  d="M 638 123
L 643 123" style="stroke-width:1;stroke:rgba(51,51,51,1.0);fill:none"/><text x="648" y="129" style="stroke-width:0;stroke:none;fill:rgba(51,51,51,1.0);font-size:12.8px;font-family:'Roboto Medium',sans-serif">90</text><path  d="M 638 69
L 643 69" style="stroke-width:1;stroke:rgba(51,51,51,1.0);fill:none"/><text x="648" y="75" style="stroke-width:0;stroke:none;fill:rgba(51,51,51,1.0);font-size:12.8px;font-family:'Roboto Medium',sans-serif">95</text><path  d="M 638 16
L 643 16" style="stroke-width:1;stroke:rgba(51,51,51,1.0);fill:none"/><text x="648" y="22" style="stroke-width:0;stroke:none;fill:rgba(51,51,51,1.0);font-size:12.8px;font-family:'Roboto Medium',sans-serif">100</text><text x="680" y="247" style="stroke-width:0;stroke:none;fill:rgba(51,51,51,1.0);font-size:12.8px;font-family:'Roboto Medium',sans-serif" transform="rotate(90.00,680,247)">Benchmarks</text><path  d="M 12 1086
L 637 1086" style="stroke-width:0;stroke:none;fill:none"/><path  d="M 12 497
L 637 497" style="stroke-width:0;stroke:none;fill:none"/><path  d="M 12 444
L 637 444" style="stroke-width:0;stroke:none;fill:none"/><path  d="M 12 390
L 637 390" style="stroke-width:0;stroke:none;fill:none"/><path  d="M 12 337
L 637 337" style="stroke-width:0;stroke:none;fill:none"/><path  d="M 12 283
L 637 283" style="stroke-width:0;stroke:none;fill:none"/><path  d="M 12 230
L 637 230" style="stroke-width:0;stroke:none;fill:none"/><path  d="M 12 176
L 637 176" style="stroke-width:0;stroke:none;fill:none"/><path  d="M 12 123
L 637 123" style="stroke-width:0;stroke:none;fill:none"/><path  d="M 12 69
L 637 69" style="stroke-width:0;stroke:none;fill:none"/><path  d="M 11 551
L 11 16" style="stroke-width:1;stroke:rgba(51,51,51,1.0);fill:none"/><path  d="M 11 -9223372036854775257
L 6 -9223372036854775257" style="stroke-width:1;stroke:rgba(51,51,51,1.0);fill:none"/><text x="-25" y="-9223372036854775251" style="stroke-width:0;stroke:none;fill:rgba(51,51,51,1.0);font-size:12.8px;font-family:'Roboto Medium',sans-serif">0.00</text><path  d="M 11 -9223372036854775257
L 6 -9223372036854775257" style="stroke-width:1;stroke:rgba(51,51,51,1.0);fill:none"/><text x="-25" y="-9223372036854775251" style="stroke-width:0;stroke:none;fill:rgba(51,51,51,1.0);font-size:12.8px;font-family:'Roboto Medium',sans-serif">0.00</text><path  d="M 11 -9223372036854775257
L 6 -9223372036854775257" style="stroke-width:1;stroke:rgba(51,51,51,1.0);fill:none"/><text x="-25" y="-9223372036854775251" style="stroke-width:0;stroke:none;fill:rgba(51,51,51,1.0);font-size:12.8px;font-family:'Roboto Medium',sans-serif">0.00</text><path  d="M 11 -9223372036854775257
L 6 -9223372036854775257" style="stroke-width:1;stroke:rgba(51,51,51,1.0);fill:none"/><text x="-25" y="-9223372036854775251" style="stroke-width:0;stroke:none;fill:rgba(51,51,51,1.0);font-size:12.8px;font-family:'Roboto Medium',sans-serif">0.00</text><path  d="M 11 -9223372036854775257
L 6 -9223372036854775257" style="stroke-width:1;stroke:rgba(51,51,51,1.0);fill:none"/><text x="-25" y="-9223372036854775251" style="stroke-width:0;stroke:none;fill:rgba(51,51,51,1.0);font-size:12.8px;font-family:'Roboto Medium',sans-serif">0.00</text><path  d="M 11 -9223372036854775257
L 6 -9223372036854775257" style="stroke-width:1;stroke:rgba(51,51,51,1.0);fill:none"/><text x="-25" y="-9223372036854775251" style="stroke-width:0;stroke:none;fill:rgba(51,51,51,1.0);font-size:12.8px;font-family:'Roboto Medium',sans-serif">0.00</text><path  d="M 11 -9223372036854775257
L 6 -9223372036854775257" style="stroke-width:1;stroke:rgba(51,51,51,1.0);fill:none"/><text x="-25" y="-9223372036854775251" style="stroke-width:0;stroke:none;fill:rgba(51,51,51,1.0);font-size:12.8px;font-family:'Roboto Medium',sans-serif">0.00</text><path  d="M 11 -9223372036854775257
L 6 -9223372036854775257" style="stroke-width:1;stroke:rgba(51,51,51,1.0);fill:none"/><text x="-25" y="-9223372036854775251" style="stroke-width:0;stroke:none;fill:rgba(51,51,51,1.0);font-size:12.8px;font-family:'Roboto Medium',sans-serif">0.00</text><path  d="M 11 -9223372036854775257
L 6 -9223372036854775257" style="stroke-width:1;stroke:rgba(51,51,51,1.0);fill:none"/><text x="-25" y="-9223372036854775251" style="stroke-width:0;stroke:none;fill:rgba(51,51,51,1.0);font-size:12.8px;font-family:'Roboto Medium',sans-serif">0.00</text><path  d="M 11 -9223372036854775257
L 6 -9223372036854775257" style="stroke-width:1;stroke:rgba(51,51,51,1.0);fill:none"/><text x="-25" y="-9223372036854775251" style="stroke-width:0;stroke:none;fill:rgba(51,51,51,1.0);font-size:12.8px;font-family:'Roboto Medium',sans-serif">0.00</text><path  d="M 11 -9223372036854775257
L 6 -9223372036854775257" style="stroke-width:1;stroke:rgba(51,51,51,1.0);fill:none"/><text x="-25" y="-9223372036854775251" style="stroke-width:0;stroke:none;fill:rgba(51,51,51,1.0);font-size:12.8px;font-family:'Roboto Medium',sans-serif">0.00</text><path  d="M 11 -9223372036854775257
L 6 -9223372036854775257" style="stroke-width:1;stroke:rgba(51,51,51,1.0);fill:none"/><text x="-25" y="-9223372036854775251" style="stroke-width:0;stroke:none;fill:rgba(51,51,51,1.0);font-size:12.8px;font-family:'Roboto Medium',sans-serif">0.00</text><path  d="M 11 -9223372036854775257
L 6 -9223372036854775257" style="stroke-width:1;stroke:rgba(51,51,51,1.0);fill:none"/><text x="-25" y="-9223372036854775251" style="stroke-width:0;stroke:none;fill:rgba(51,51,51,1.0);font-size:12.8px;font-family:'Roboto Medium',sans-serif">0.00</text><path  d="M 11 -9223372036854775257
L 6 -9223372036854775257" style="stroke-width:1;stroke:rgba(51,51,51,1.0);fill:none"/><text x="-25" y="-9223372036854775251" style="stroke-width:0;stroke:none;fill:rgba(51,51,51,1.0);font-size:12.8px;font-family:'Roboto Medium',sans-serif">0.00</text><path  d="M 11 -9223372036854775257
L 6 -9223372036854775257" style="stroke-width:1;stroke:rgba(51,51,51,1.0);fill:none"/><text x="-25" y="-9223372036854775251" style="stroke-width:0;stroke:none;fill:rgba(51,51,51,1.0);font-size:12.8px;font-family:'Roboto Medium',sans-serif">0.00</text><path  d="M 12 -9223372036854775257
L 637 -9223372036854775257" style="stroke-width:0;stroke:none;fill:none"/><path  d="M 12 -9223372036854775257
L 637 -9223372036854775257" style="stroke-width:0;stroke:none;fill:none"/><path  d="M 12 -9223372036854775257
L 637 -9223372036854775257" style="stroke-width:0;stroke:none;fill:none"/><path  d="M 12 -9223372036854775257
L 637 -9223372036854775257" style="stroke-width:0;stroke:none;fill:none"/><path  d="M 12 -9223372036854775257
L 637 -9223372036854775257" style="stroke-width:0;stroke:none;fill:none"/><path  d="M 12 -9223372036854775257
L 637 -9223372036854775257" style="stroke-width:0;stroke:none;fill:none"/><path  d="M 12 -9223372036854775257
L 637 -9223372036854775257" style="stroke-width:0;stroke:none;fill:none"/><path  d="M 12 -9223372036854775257
L 637 -9223372036854775257" style="stroke-width:0;stroke:none;fill:none"/><path  d="M 12 -9223372036854775257
L 637 -9223372036854775257" style="stroke-width:0;stroke:none;fill:none"/><path  d="M 12 -9223372036854775257
L 637 -9223372036854775257" style="stroke-width:0;stroke:none;fill:none"/><path  d="M 12 -9223372036854775257
L 637 -9223372036854775257" style="stroke-width:0;stroke:none;fill:none"/><path  d="M 12 -9223372036854775257
L 637 -9223372036854775257" style="stroke-width:0;stroke:none;fill:none"/><path  d="M 12 -9223372036854775257
L 637 -9223372036854775257" style="stroke-width:0;stroke:none;fill:none"/><path  d="M 12 -9223372036854775257
L 637 -9223372036854775257" style="stroke-width:0;stroke:none;fill:none"/><path  d="M 325 16
L 325 283
L 637 283" style="stroke-width:1;stroke:rgba(255,0,127,0.2);fill:none"/><path  d="M 550 283
L 560 272
L 613 272
L 613 294
L 560 294
L 550 283
Z" style="stroke-width:1;stroke:rgba(255,0,127,0.2);fill:rgba(255,255,255,1.0)"/><text x="565" y="289" style="stroke-width:0;stroke:none;fill:rgba(51,51,51,1.0);font-size:12.8px;font-family:'Roboto Medium',sans-serif">Quarter</text><circle cx="153" cy="135" r="5" style="stroke-width:1;stroke:rgba(109,109,0,1.0);fill:rgba(109,109,0,1.0)"/><path  d="" style="stroke-width:1;stroke:rgba(109,109,0,1.0);fill:rgba(109,109,0,1.0)"/><circle cx="618" cy="88" r="5" style="stroke-width:1;stroke:rgba(20,229,0,1.0);fill:rgba(20,229,0,1.0)"/><path  d="" style="stroke-width:1;stroke:rgba(20,229,0,1.0);fill:rgba(20,229,0,1.0)"/><circle cx="618" cy="54" r="5" style="stroke-width:1;stroke:rgba(13,240,0,1.0);fill:rgba(13,240,0,1.0)"/><path  d="" style="stroke-width:1;stroke:rgba(13,240,0,1.0);fill:rgba(13,240,0,1.0)"/><circle cx="618" cy="67" r="5" style="stroke-width:1;stroke:rgba(16,236,0,1.0);fill:rgba(16,236,0,1.0)"/><path  d="" style="stroke-width:1;stroke:rgba(16,236,0,1.0);fill:rgba(16,236,0,1.0)"/><circle cx="618" cy="191" r="5" style="stroke-width:1;stroke:rgba(42,195,0,1.0);fill:rgba(42,195,0,1.0)"/><path  d="" style="stroke-width:1;stroke:rgba(42,195,0,1.0);fill:rgba(42,195,0,1.0)"/><circle cx="618" cy="16" r="5" style="stroke-width:1;stroke:rgba(3,249,0,1.0);fill:rgba(3,249,0,1.0)"/><path  d="" style="stroke-width:1;stroke:rgba(3,249,0,1.0);fill:rgba(3,249,0,1.0)"/><circle cx="143" cy="532" r="5" style="stroke-width:1;stroke:rgba(216,30,0,1.0);fill:rgba(216,30,0,1.0)"/><path  d="" style="stroke-width:1;stroke:rgba(216,30,0,1.0);fill:rgba(216,30,0,1.0)"/><circle cx="182" cy="519" r="5" style="stroke-width:1;stroke:rgba(204,40,0,1.0);fill:rgba(204,40,0,1.0)"/><path  d="" style="stroke-width:1;stroke:rgba(204,40,0,1.0);fill:rgba(204,40,0,1.0)"/><circle cx="308" cy="32" r="5" style="stroke-width:1;stroke:rgba(60,159,0,1.0);fill:rgba(60,159,0,1.0)"/><path  d="" style="stroke-width:1;stroke:rgba(60,159,0,1.0);fill:rgba(60,159,0,1.0)"/><path  d="M 153 135
L 163 124
L 294 124
L 294 146
L 163 146
L 153 135
Z" style="stroke-width:1;stroke:rgba(63,127,255,1.0);fill:rgba(255,255,255,1.0)"/><text x="168" y="141" style="stroke-width:0;stroke:none;fill:rgba(51,51,51,1.0);font-size:12.8px;font-family:'Roboto Medium',sans-serif">chanchal/zaphandler</text><path  d="M 618 102
L 628 91
L 734 91
L 734 113
L 628 113
L 618 102
Z" style="stroke-width:1;stroke:rgba(63,127,255,1.0);fill:rgba(255,255,255,1.0)"/><text x="633" y="108" style="stroke-width:0;stroke:none;fill:rgba(51,51,51,1.0);font-size:12.8px;font-family:'Roboto Medium',sans-serif">madkins/replattr</text><path  d="M 618 48
L 628 37
L 746 37
L 746 59
L 628 59
L 618 48
Z" style="stroke-width:1;stroke:rgba(63,127,255,1.0);fill:rgba(255,255,255,1.0)"/><text x="633" y="54" style="stroke-width:0;stroke:none;fill:rgba(51,51,51,1.0);font-size:12.8px;font-family:'Roboto Medium',sans-serif">slog/JSONHandler</text><path  d="M 618 73
L 628 62
L 721 62
L 721 84
L 628 84
L 618 73
Z" style="stroke-width:1;stroke:rgba(63,127,255,1.0);fill:rgba(255,255,255,1.0)"/><text x="633" y="79" style="stroke-width:0;stroke:none;fill:rgba(51,51,51,1.0);font-size:12.8px;font-family:'Roboto Medium',sans-serif">madkins/flash</text><path  d="M 618 191
L 628 180
L 730 180
L 730 202
L 628 202
L 618 191
Z" style="stroke-width:1;stroke:rgba(63,127,255,1.0);fill:rgba(255,255,255,1.0)"/><text x="633" y="197" style="stroke-width:0;stroke:none;fill:rgba(51,51,51,1.0);font-size:12.8px;font-family:'Roboto Medium',sans-serif">madkins/sloggy</text><path  d="M 618 16
L 628 5
L 706 5
L 706 27
L 628 27
L 618 16
Z" style="stroke-width:1;stroke:rgba(63,127,255,1.0);fill:rgba(255,255,255,1.0)"/><text x="633" y="22" style="stroke-width:0;stroke:none;fill:rgba(51,51,51,1.0);font-size:12.8px;font-family:'Roboto Medium',sans-serif">phuslu/slog</text><path  d="M 143 537
L 153 526
L 261 526
L 261 548
L 153 548
L 143 537
Z" style="stroke-width:1;stroke:rgba(63,127,255,1.0);fill:rgba(255,255,255,1.0)"/><text x="158" y="543" style="stroke-width:0;stroke:none;fill:rgba(51,51,51,1.0);font-size:12.8px;font-family:'Roboto Medium',sans-serif">samber/slog-zap</text><path  d="M 182 513
L 192 502
L 322 502
L 322 524
L 192 524
L 182 513
Z" style="stroke-width:1;stroke:rgba(63,127,255,1.0);fill:rgba(255,255,255,1.0)"/><text x="197" y="519" style="stroke-width:0;stroke:none;fill:rgba(51,51,51,1.0);font-size:12.8px;font-family:'Roboto Medium',sans-serif">samber/slog-zerolog</text><path  d="M 308 32
L 318 21
L 432 21
L 432 43
L 318 43
L 308 32
Z" style="stroke-width:1;stroke:rgba(63,127,255,1.0);fill:rgba(255,255,255,1.0)"/><text x="323" y="38" style="stroke-width:0;stroke:none;fill:rgba(51,51,51,1.0);font-size:12.8px;font-family:'Roboto Medium',sans-serif">svcrunner/jsonlog</text></svg>