<svg xmlns="http://www.w3.org/2000/svg" xmlns:xlink="http://www.w3.org/1999/xlink" width="750" height="600">\n<path  d="M 0 0
L 750 0
L 750 600
L 0 600
L 0 0" style="stroke-width:0;stroke:rgba(255,255,255,1.0);fill:rgba(255,255,255,1.0)"/><path  d="M 12 14
L 636 14
L 636 551
L 12 551
L 12 14" style="stroke-width:0;stroke:rgba(255,255,255,1.0);fill:rgba(255,255,255,1.0)"/><path  d="M 12 551
L 636 551" style="stroke-width:1;stroke:rgba(51,51,51,1.0);fill:none"/><path  d="M 12 551
L 12 556" style="stroke-width:1;stroke:rgba(51,51,51,1.0);fill:none"/><text x="5" y="573" style="stroke-width:0;stroke:none;fill:rgba(51,51,51,1.0);font-size:12.8px;font-family:'Roboto Medium',sans-serif">50</text><path  d="M 75 551
L 75 556" style="stroke-width:1;stroke:rgba(51,51,51,1.0);fill:none"/><text x="68" y="573" style="stroke-width:0;stroke:none;fill:rgba(51,51,51,1.0);font-size:12.8px;font-family:'Roboto Medium',sans-serif">55</text><path  d="M 137 551
L 137 556" style="stroke-width:1;stroke:rgba(51,51,51,1.0);fill:none"/><text x="130" y="573" style="stroke-width:0;stroke:none;fill:rgba(51,51,51,1.0);font-size:12.8px;font-family:'Roboto Medium',sans-serif">60</text><path  d="M 200 551
L 200 556" style="stroke-width:1;stroke:rgba(51,51,51,1.0);fill:none"/><text x="193" y="573" style="stroke-width:0;stroke:none;fill:rgba(51,51,51,1.0);font-size:12.8px;font-family:'Roboto Medium',sans-serif">65</text><path  d="M 262 551
L 262 556" style="stroke-width:1;stroke:rgba(51,51,51,1.0);fill:none"/><text x="255" y="573" style="stroke-width:0;stroke:none;fill:rgba(51,51,51,1.0);font-size:12.8px;font-family:'Roboto Medium',sans-serif">70</text><path  d="M 324 551
L 324 556" style="stroke-width:1;stroke:rgba(51,51,51,1.0);fill:none"/><text x="317" y="573" style="stroke-width:0;stroke:none;fill:rgba(51,51,51,1.0);font-size:12.8px;font-family:'Roboto Medium',sans-serif">75</text><path  d="M 387 551
L 387 556" style="stroke-width:1;stroke:rgba(51,51,51,1.0);fill:none"/><text x="380" y="573" style="stroke-width:0;stroke:none;fill:rgba(51,51,51,1.0);font-size:12.8px;font-family:'Roboto Medium',sans-serif">80</text><path  d="M 449 551
L 449 556" style="stroke-width:1;stroke:rgba(51,51,51,1.0);fill:none"/><text x="442" y="573" style="stroke-width:0;stroke:none;fill:rgba(51,51,51,1.0);font-size:12.8px;font-family:'Roboto Medium',sans-serif">85</text><path  d="M 512 551
L 512 556" style="stroke-width:1;stroke:rgba(51,51,51,1.0);fill:none"/><text x="505" y="573" style="stroke-width:0;stroke:none;fill:rgba(51,51,51,1.0);font-size:12.8px;font-family:'Roboto Medium',sans-serif">90</text><path  d="M 574 551
L 574 556" style="stroke-width:1;stroke:rgba(51,51,51,1.0);fill:none"/><text x="567" y="573" style="stroke-width:0;stroke:none;fill:rgba(51,51,51,1.0);font-size:12.8px;font-family:'Roboto Medium',sans-serif">95</text><path  d="M 636 551
L 636 556" style="stroke-width:1;stroke:rgba(51,51,51,1.0);fill:none"/><text x="625" y="573" style="stroke-width:0;stroke:none;fill:rgba(51,51,51,1.0);font-size:12.8px;font-family:'Roboto Medium',sans-serif">100</text><text x="282" y="595" style="stroke-width:0;stroke:none;fill:rgba(51,51,51,1.0);font-size:12.8px;font-family:'Roboto Medium',sans-serif">Warning Score</text><path  d="M 75 551
L 75 14" style="stroke-width:0;stroke:none;fill:none"/><path  d="M 137 551
L 137 14" style="stroke-width:0;stroke:none;fill:none"/><path  d="M 200 551
L 200 14" style="stroke-width:0;stroke:none;fill:none"/><path  d="M 262 551
L 262 14" style="stroke-width:0;stroke:none;fill:none"/><path  d="M 324 551
L 324 14" style="stroke-width:0;stroke:none;fill:none"/><path  d="M 387 551
L 387 14" style="stroke-width:0;stroke:none;fill:none"/><path  d="M 449 551
L 449 14" style="stroke-width:0;stroke:none;fill:none"/><path  d="M 512 551
L 512 14" style="stroke-width:0;stroke:none;fill:none"/><path  d="M 574 551
L 574 14" style="stroke-width:0;stroke:none;fill:none"/><path  d="M 637 551
L 637 14" style="stroke-width:1;stroke:rgba(51,51,51,1.0);fill:none"/><path  d="M 637 551
L 642 551" style="stroke-width:1;stroke:rgba(51,51,51,1.0);fill:none"/><text x="647" y="557" style="stroke-width:0;stroke:none;fill:rgba(51,51,51,1.0);font-size:12.8px;font-family:'Roboto Medium',sans-serif">50</text><path  d="M 637 497
L 642 497" style="stroke-width:1;stroke:rgba(51,51,51,1.0);fill:none"/><text x="647" y="503" style="stroke-width:0;stroke:none;fill:rgba(51,51,51,1.0);font-size:12.8px;font-family:'Roboto Medium',sans-serif">55</text><path  d="M 637 443
L 642 443" style="stroke-width:1;stroke:rgba(51,51,51,1.0);fill:none"/><text x="647" y="449" style="stroke-width:0;stroke:none;fill:rgba(51,51,51,1.0);font-size:12.8px;font-family:'Roboto Medium',sans-serif">60</text><path  d="M 637 389
L 642 389" style="stroke-width:1;stroke:rgba(51,51,51,1.0);fill:none"/><text x="647" y="395" style="stroke-width:0;stroke:none;fill:rgba(51,51,51,1.0);font-size:12.8px;font-family:'Roboto Medium',sans-serif">65</text><path  d="M 637 336
L 642 336" style="stroke-width:1;stroke:rgba(51,51,51,1.0);fill:none"/><text x="647" y="342" style="stroke-width:0;stroke:none;fill:rgba(51,51,51,1.0);font-size:12.8px;font-family:'Roboto Medium',sans-serif">70</text><path  d="M 637 282
L 642 282" style="stroke-width:1;stroke:rgba(51,51,51,1.0);fill:none"/><text x="647" y="288" style="stroke-width:0;stroke:none;fill:rgba(51,51,51,1.0);font-size:12.8px;font-family:'Roboto Medium',sans-serif">75</text><path  d="M 637 228
L 642 228" style="stroke-width:1;stroke:rgba(51,51,51,1.0);fill:none"/><text x="647" y="234" style="stroke-width:0;stroke:none;fill:rgba(51,51,51,1.0);font-size:12.8px;font-family:'Roboto Medium',sans-serif">80</text><path  d="M 637 175
L 642 175" style="stroke-width:1;stroke:rgba(51,51,51,1.0);fill:none"/><text x="647" y="181" style="stroke-width:0;stroke:none;fill:rgba(51,51,51,1.0);font-size:12.8px;font-family:'Roboto Medium',sans-serif">85</text><path  d="M 637 121
L 642 121" style="stroke-width:1;stroke:rgba(51,51,51,1.0);fill:none"/><text x="647" y="127" style="stroke-width:0;stroke:none;fill:rgba(51,51,51,1.0);font-size:12.8px;font-family:'Roboto Medium',sans-serif">90</text><path  d="M 637 67
L 642 67" style="stroke-width:1;stroke:rgba(51,51,51,1.0);fill:none"/><text x="647" y="73" style="stroke-width:0;stroke:none;fill:rgba(51,51,51,1.0);font-size:12.8px;font-family:'Roboto Medium',sans-serif">95</text><path  d="M 637 14
L 642 14" style="stroke-width:1;stroke:rgba(51,51,51,1.0);fill:none"/><text x="647" y="20" style="stroke-width:0;stroke:none;fill:rgba(51,51,51,1.0);font-size:12.8px;font-family:'Roboto Medium',sans-serif">100</text><text x="679" y="231" style="stroke-width:0;stroke:none;fill:rgba(51,51,51,1.0);font-size:12.8px;font-family:'Roboto Medium',sans-serif" transform="rotate(90.00,679,231)">Benchmark Score</text><path  d="M 12 1088
L 636 1088" style="stroke-width:0;stroke:none;fill:none"/><path  d="M 12 497
L 636 497" style="stroke-width:0;stroke:none;fill:none"/><path  d="M 12 443
L 636 443" style="stroke-width:0;stroke:none;fill:none"/><path  d="M 12 389
L 636 389" style="stroke-width:0;stroke:none;fill:none"/><path  d="M 12 336
L 636 336" style="stroke-width:0;stroke:none;fill:none"/><path  d="M 12 282
L 636 282" style="stroke-width:0;stroke:none;fill:none"/><path  d="M 12 228
L 636 228" style="stroke-width:0;stroke:none;fill:none"/><path  d="M 12 175
L 636 175" style="stroke-width:0;stroke:none;fill:none"/><path  d="M 12 121
L 636 121" style="stroke-width:0;stroke:none;fill:none"/><path  d="M 12 67
L 636 67" style="stroke-width:0;stroke:none;fill:none"/><path  d="M 11 551
L 11 14" style="stroke-width:1;stroke:rgba(51,51,51,1.0);fill:none"/><path  d="M 11 -9223372036854775257
L 6 -9223372036854775257" style="stroke-width:1;stroke:rgba(51,51,51,1.0);fill:none"/><text x="-25" y="-9223372036854775251" style="stroke-width:0;stroke:none;fill:rgba(51,51,51,1.0);font-size:12.8px;font-family:'Roboto Medium',sans-serif">0.00</text><path  d="M 11 -9223372036854775257
L 6 -9223372036854775257" style="stroke-width:1;stroke:rgba(51,51,51,1.0);fill:none"/><text x="-25" y="-9223372036854775251" style="stroke-width:0;stroke:none;fill:rgba(51,51,51,1.0);font-size:12.8px;font-family:'Roboto Medium',sans-serif">0.00</text><path  d="M 11 -9223372036854775257
L 6 -9223372036854775257" style="stroke-width:1;stroke:rgba(51,51,51,1.0);fill:none"/><text x="-25" y="-9223372036854775251" style="stroke-width:0;stroke:none;fill:rgba(51,51,51,1.0);font-size:12.8px;font-family:'Roboto Medium',sans-serif">0.00</text><path  d="M 11 -9223372036854775257
L 6 -9223372036854775257" style="stroke-width:1;stroke:rgba(51,51,51,1.0);fill:none"/><text x="-25" y="-9223372036854775251" style="stroke-width:0;stroke:none;fill:rgba(51,51,51,1.0);font-size:12.8px;font-family:'Roboto Medium',sans-serif">0.00</text><path  d="M 11 -9223372036854775257
L 6 -9223372036854775257" style="stroke-width:1;stroke:rgba(51,51,51,1.0);fill:none"/><text x="-25" y="-9223372036854775251" style="stroke-width:0;stroke:none;fill:rgba(51,51,51,1.0);font-size:12.8px;font-family:'Roboto Medium',sans-serif">0.00</text><path  d="M 11 -9223372036854775257
L 6 -9223372036854775257" style="stroke-width:1;stroke:rgba(51,51,51,1.0);fill:none"/><text x="-25" y="-9223372036854775251" style="stroke-width:0;stroke:none;fill:rgba(51,51,51,1.0);font-size:12.8px;font-family:'Roboto Medium',sans-serif">0.00</text><path  d="M 11 -9223372036854775257
L 6 -9223372036854775257" style="stroke-width:1;stroke:rgba(51,51,51,1.0);fill:none"/><text x="-25" y="-9223372036854775251" style="stroke-width:0;stroke:none;fill:rgba(51,51,51,1.0);font-size:12.8px;font-family:'Roboto Medium',sans-serif">0.00</text><path  d="M 11 -9223372036854775257
L 6 -9223372036854775257" style="stroke-width:1;stroke:rgba(51,51,51,1.0);fill:none"/><text x="-25" y="-9223372036854775251" style="stroke-width:0;stroke:none;fill:rgba(51,51,51,1.0);font-size:12.8px;font-family:'Roboto Medium',sans-serif">0.00</text><path  d="M 11 -9223372036854775257
L 6 -9223372036854775257" style="stroke-width:1;stroke:rgba(51,51,51,1.0);fill:none"/><text x="-25" y="-9223372036854775251" style="stroke-width:0;stroke:none;fill:rgba(51,51,51,1.0);font-size:12.8px;font-family:'Roboto Medium',sans-serif">0.00</text><path  d="M 11 -9223372036854775257
L 6 -9223372036854775257" style="stroke-width:1;stroke:rgba(51,51,51,1.0);fill:none"/><text x="-25" y="-9223372036854775251" style="stroke-width:0;stroke:none;fill:rgba(51,51,51,1.0);font-size:12.8px;font-family:'Roboto Medium',sans-serif">0.00</text><path  d="M 11 -9223372036854775257
L 6 -9223372036854775257" style="stroke-width:1;stroke:rgba(51,51,51,1.0);fill:none"/><text x="-25" y="-9223372036854775251" style="stroke-width:0;stroke:none;fill:rgba(51,51,51,1.0);font-size:12.8px;font-family:'Roboto Medium',sans-serif">0.00</text><path  d="M 11 -9223372036854775257
L 6 -9223372036854775257" style="stroke-width:1;stroke:rgba(51,51,51,1.0);fill:none"/><text x="-25" y="-9223372036854775251" style="stroke-width:0;stroke:none;fill:rgba(51,51,51,1.0);font-size:12.8px;font-family:'Roboto Medium',sans-serif">0.00</text><path  d="M 11 -9223372036854775257
L 6 -9223372036854775257" style="stroke-width:1;stroke:rgba(51,51,51,1.0);fill:none"/><text x="-25" y="-9223372036854775251" style="stroke-width:0;stroke:none;fill:rgba(51,51,51,1.0);font-size:12.8px;font-family:'Roboto Medium',sans-serif">0.00</text><path  d="M 11 -9223372036854775257
L 6 -9223372036854775257" style="stroke-width:1;stroke:rgba(51,51,51,1.0);fill:none"/><text x="-25" y="-9223372036854775251" style="stroke-width:0;stroke:none;fill:rgba(51,51,51,1.0);font-size:12.8px;font-family:'Roboto Medium',sans-serif">0.00</text><path  d="M 11 -9223372036854775257
L 6 -9223372036854775257" style="stroke-width:1;stroke:rgba(51,51,51,1.0);fill:none"/><text x="-25" y="-9223372036854775251" style="stroke-width:0;stroke:none;fill:rgba(51,51,51,1.0);font-size:12.8px;font-family:'Roboto Medium',sans-serif">0.00</text><path  d="M 12 -9223372036854775257
L 636 -9223372036854775257" style="stroke-width:0;stroke:none;fill:none"/><path  d="M 12 -9223372036854775257
L 636 -9223372036854775257" style="stroke-width:0;stroke:none;fill:none"/><path  d="M 12 -9223372036854775257
L 636 -9223372036854775257" style="stroke-width:0;stroke:none;fill:none"/><path  d="M 12 -9223372036854775257
L 636 -9223372036854775257" style="stroke-width:0;stroke:none;fill:none"/><path  d="M 12 -9223372036854775257
L 636 -9223372036854775257" style="stroke-width:0;stroke:none;fill:none"/><path  d="M 12 -9223372036854775257
L 636 -9223372036854775257" style="stroke-width:0;stroke:none;fill:none"/><path  d="M 12 -9223372036854775257
L 636 -9223372036854775257" style="stroke-width:0;stroke:none;fill:none"/><path  d="M 12 -9223372036854775257
L 636 -9223372036854775257" style="stroke-width:0;stroke:none;fill:none"/><path  d="M 12 -9223372036854775257
L 636 -9223372036854775257" style="stroke-width:0;stroke:none;fill:none"/><path  d="M 12 -9223372036854775257
L 636 -9223372036854775257" style="stroke-width:0;stroke:none;fill:none"/><path  d="M 12 -9223372036854775257
L 636 -9223372036854775257" style="stroke-width:0;stroke:none;fill:none"/><path  d="M 12 -9223372036854775257
L 636 -9223372036854775257" style="stroke-width:0;stroke:none;fill:none"/><path  d="M 12 -9223372036854775257
L 636 -9223372036854775257" style="stroke-width:0;stroke:none;fill:none"/><path  d="M 12 -9223372036854775257
L 636 -9223372036854775257" style="stroke-width:0;stroke:none;fill:none"/><path  d="M 324 14
L 324 282
L 636 282" style="stroke-width:1;stroke:rgba(255,0,127,0.2);fill:none"/><path  d="M 549 282
L 559 271
L 612 271
L 612 293
L 559 293
L 549 282
Z" style="stroke-width:1;stroke:rgba(255,0,127,0.2);fill:rgba(255,255,255,1.0)"/><text x="564" y="288" style="stroke-width:0;stroke:none;fill:rgba(51,51,51,1.0);font-size:12.8px;font-family:'Roboto Medium',sans-serif">Quarter</text><circle cx="617" cy="204" r="5" style="stroke-width:1;stroke:rgba(45,190,0,1.0);fill:rgba(45,190,0,1.0)"/><path  d="" style="stroke-width:1;stroke:rgba(45,190,0,1.0);fill:rgba(45,190,0,1.0)"/><circle cx="617" cy="16" r="5" style="stroke-width:1;stroke:rgba(4,249,0,1.0);fill:rgba(4,249,0,1.0)"/><path  d="" style="stroke-width:1;stroke:rgba(4,249,0,1.0);fill:rgba(4,249,0,1.0)"/><circle cx="22" cy="494" r="5" style="stroke-width:1;stroke:rgba(235,15,0,1.0);fill:rgba(235,15,0,1.0)"/><path  d="" style="stroke-width:1;stroke:rgba(235,15,0,1.0);fill:rgba(235,15,0,1.0)"/><circle cx="291" cy="31" r="5" style="stroke-width:1;stroke:rgba(62,154,0,1.0);fill:rgba(62,154,0,1.0)"/><path  d="" style="stroke-width:1;stroke:rgba(62,154,0,1.0);fill:rgba(62,154,0,1.0)"/><circle cx="157" cy="134" r="5" style="stroke-width:1;stroke:rgba(109,110,0,1.0);fill:rgba(109,110,0,1.0)"/><path  d="" style="stroke-width:1;stroke:rgba(109,110,0,1.0);fill:rgba(109,110,0,1.0)"/><circle cx="617" cy="71" r="5" style="stroke-width:1;stroke:rgba(17,234,0,1.0);fill:rgba(17,234,0,1.0)"/><path  d="" style="stroke-width:1;stroke:rgba(17,234,0,1.0);fill:rgba(17,234,0,1.0)"/><circle cx="617" cy="93" r="5" style="stroke-width:1;stroke:rgba(22,227,0,1.0);fill:rgba(22,227,0,1.0)"/><path  d="" style="stroke-width:1;stroke:rgba(22,227,0,1.0);fill:rgba(22,227,0,1.0)"/><circle cx="617" cy="47" r="5" style="stroke-width:1;stroke:rgba(11,242,0,1.0);fill:rgba(11,242,0,1.0)"/><path  d="" style="stroke-width:1;stroke:rgba(11,242,0,1.0);fill:rgba(11,242,0,1.0)"/><path  d="M 617 204
L 627 193
L 729 193
L 729 215
L 627 215
L 617 204
Z" style="stroke-width:1;stroke:rgba(63,127,255,1.0);fill:rgba(255,255,255,1.0)"/><text x="632" y="210" style="stroke-width:0;stroke:none;fill:rgba(51,51,51,1.0);font-size:12.8px;font-family:'Roboto Medium',sans-serif">madkins/sloggy</text><path  d="M 617 16
L 627 5
L 705 5
L 705 27
L 627 27
L 617 16
Z" style="stroke-width:1;stroke:rgba(63,127,255,1.0);fill:rgba(255,255,255,1.0)"/><text x="632" y="22" style="stroke-width:0;stroke:none;fill:rgba(51,51,51,1.0);font-size:12.8px;font-family:'Roboto Medium',sans-serif">phuslu/slog</text><path  d="M 22 494
L 32 483
L 140 483
L 140 505
L 32 505
L 22 494
Z" style="stroke-width:1;stroke:rgba(63,127,255,1.0);fill:rgba(255,255,255,1.0)"/><text x="37" y="500" style="stroke-width:0;stroke:none;fill:rgba(51,51,51,1.0);font-size:12.8px;font-family:'Roboto Medium',sans-serif">samber/slog-zap</text><path  d="M 291 31
L 301 20
L 415 20
L 415 42
L 301 42
L 291 31
Z" style="stroke-width:1;stroke:rgba(63,127,255,1.0);fill:rgba(255,255,255,1.0)"/><text x="306" y="37" style="stroke-width:0;stroke:none;fill:rgba(51,51,51,1.0);font-size:12.8px;font-family:'Roboto Medium',sans-serif">svcrunner/jsonlog</text><path  d="M 157 134
L 167 123
L 298 123
L 298 145
L 167 145
L 157 134
Z" style="stroke-width:1;stroke:rgba(63,127,255,1.0);fill:rgba(255,255,255,1.0)"/><text x="172" y="140" style="stroke-width:0;stroke:none;fill:rgba(51,51,51,1.0);font-size:12.8px;font-family:'Roboto Medium',sans-serif">chanchal/zaphandler</text><path  d="M 617 71
L 627 60
L 720 60
L 720 82
L 627 82
L 617 71
Z" style="stroke-width:1;stroke:rgba(63,127,255,1.0);fill:rgba(255,255,255,1.0)"/><text x="632" y="77" style="stroke-width:0;stroke:none;fill:rgba(51,51,51,1.0);font-size:12.8px;font-family:'Roboto Medium',sans-serif">madkins/flash</text><path  d="M 617 96
L 627 85
L 733 85
L 733 107
L 627 107
L 617 96
Z" style="stroke-width:1;stroke:rgba(63,127,255,1.0);fill:rgba(255,255,255,1.0)"/><text x="632" y="102" style="stroke-width:0;stroke:none;fill:rgba(51,51,51,1.0);font-size:12.8px;font-family:'Roboto Medium',sans-serif">madkins/replattr</text><path  d="M 617 47
L 627 36
L 745 36
L 745 58
L 627 58
L 617 47
Z" style="stroke-width:1;stroke:rgba(63,127,255,1.0);fill:rgba(255,255,255,1.0)"/><text x="632" y="53" style="stroke-width:0;stroke:none;fill:rgba(51,51,51,1.0);font-size:12.8px;font-family:'Roboto Medium',sans-serif">slog/JSONHandler</text></svg>