<svg xmlns="http://www.w3.org/2000/svg" xmlns:xlink="http://www.w3.org/1999/xlink" width="750" height="600">\n<path  d="M 0 0
L 750 0
L 750 600
L 0 600
L 0 0" style="stroke-width:0;stroke:rgba(255,255,255,1.0);fill:rgba(255,255,255,1.0)"/><path  d="M 12 16
L 636 16
L 636 551
L 12 551
L 12 16" style="stroke-width:0;stroke:rgba(255,255,255,1.0);fill:rgba(255,255,255,1.0)"/><path  d="M 12 551
L 636 551" style="stroke-width:1;stroke:rgba(51,51,51,1.0);fill:none"/><path  d="M 12 551
L 12 556" style="stroke-width:1;stroke:rgba(51,51,51,1.0);fill:none"/><text x="5" y="573" style="stroke-width:0;stroke:none;fill:rgba(51,51,51,1.0);font-size:12.8px;font-family:'Roboto Medium',sans-serif">50</text><path  d="M 75 551
L 75 556" style="stroke-width:1;stroke:rgba(51,51,51,1.0);fill:none"/><text x="68" y="573" style="stroke-width:0;stroke:none;fill:rgba(51,51,51,1.0);font-size:12.8px;font-family:'Roboto Medium',sans-serif">55</text><path  d="M 137 551
L 137 556" style="stroke-width:1;stroke:rgba(51,51,51,1.0);fill:none"/><text x="130" y="573" style="stroke-width:0;stroke:none;fill:rgba(51,51,51,1.0);font-size:12.8px;font-family:'Roboto Medium',sans-serif">60</text><path  d="M 200 551
L 200 556" style="stroke-width:1;stroke:rgba(51,51,51,1.0);fill:none"/><text x="193" y="573" style="stroke-width:0;stroke:none;fill:rgba(51,51,51,1.0);font-size:12.8px;font-family:'Roboto Medium',sans-serif">65</text><path  d="M 262 551
L 262 556" style="stroke-width:1;stroke:rgba(51,51,51,1.0);fill:none"/><text x="255" y="573" style="stroke-width:0;stroke:none;fill:rgba(51,51,51,1.0);font-size:12.8px;font-family:'Roboto Medium',sans-serif">70</text><path  d="M 324 551
L 324 556" style="stroke-width:1;stroke:rgba(51,51,51,1.0);fill:none"/><text x="317" y="573" style="stroke-width:0;stroke:none;fill:rgba(51,51,51,1.0);font-size:12.8px;font-family:'Roboto Medium',sans-serif">75</text><path  d="M 387 551
L 387 556" style="stroke-width:1;stroke:rgba(51,51,51,1.0);fill:none"/><text x="380" y="573" style="stroke-width:0;stroke:none;fill:rgba(51,51,51,1.0);font-size:12.8px;font-family:'Roboto Medium',sans-serif">80</text><path  d="M 449 551
L 449 556" style="stroke-width:1;stroke:rgba(51,51,51,1.0);fill:none"/><text x="442" y="573" style="stroke-width:0;stroke:none;fill:rgba(51,51,51,1.0);font-size:12.8px;font-family:'Roboto Medium',sans-serif">85</text><path  d="M 512 551
L 512 556" style="stroke-width:1;stroke:rgba(51,51,51,1.0);fill:none"/><text x="505" y="573" style="stroke-width:0;stroke:none;fill:rgba(51,51,51,1.0);font-size:12.8px;font-family:'Roboto Medium',sans-serif">90</text><path  d="M 574 551
L 574 556" style="stroke-width:1;stroke:rgba(51,51,51,1.0);fill:none"/><text x="567" y="573" style="stroke-width:0;stroke:none;fill:rgba(51,51,51,1.0);font-size:12.8px;font-family:'Roboto Medium',sans-serif">95</text><path  d="M 636 551
L 636 556" style="stroke-width:1;stroke:rgba(51,51,51,1.0);fill:none"/><text x="625" y="573" style="stroke-width:0;stroke:none;fill:rgba(51,51,51,1.0);font-size:12.8px;font-family:'Roboto Medium',sans-serif">100</text><text x="282" y="595" style="stroke-width:0;stroke:none;fill:rgba(51,51,51,1.0);font-size:12.8px;font-family:'Roboto Medium',sans-serif">Warning Score</text><path  d="M 75 551
L 75 16" style="stroke-width:0;stroke:none;fill:none"/><path  d="M 137 551
L 137 16" style="stroke-width:0;stroke:none;fill:none"/><path  d="M 200 551
L 200 16" style="stroke-width:0;stroke:none;fill:none"/><path  d="M 262 551
L 262 16" style="stroke-width:0;stroke:none;fill:none"/><path  d="M 324 551
L 324 16" style="stroke-width:0;stroke:none;fill:none"/><path  d="M 387 551
L 387 16" style="stroke-width:0;stroke:none;fill:none"/><path  d="M 449 551
L 449 16" style="stroke-width:0;stroke:none;fill:none"/><path  d="M 512 551
L 512 16" style="stroke-width:0;stroke:none;fill:none"/><path  d="M 574 551
L 574 16" style="stroke-width:0;stroke:none;fill:none"/><path  d="M 637 551
L 637 16" style="stroke-width:1;stroke:rgba(51,51,51,1.0);fill:none"/><path  d="M 637 551
L 642 551" style="stroke-width:1;stroke:rgba(51,51,51,1.0);fill:none"/><text x="647" y="557" style="stroke-width:0;stroke:none;fill:rgba(51,51,51,1.0);font-size:12.8px;font-family:'Roboto Medium',sans-serif">50</text><path  d="M 637 497
L 642 497" style="stroke-width:1;stroke:rgba(51,51,51,1.0);fill:none"/><text x="647" y="503" style="stroke-width:0;stroke:none;fill:rgba(51,51,51,1.0);font-size:12.8px;font-family:'Roboto Medium',sans-serif">55</text><path  d="M 637 444
L 642 444" style="stroke-width:1;stroke:rgba(51,51,51,1.0);fill:none"/><text x="647" y="450" style="stroke-width:0;stroke:none;fill:rgba(51,51,51,1.0);font-size:12.8px;font-family:'Roboto Medium',sans-serif">60</text><path  d="M 637 390
L 642 390" style="stroke-width:1;stroke:rgba(51,51,51,1.0);fill:none"/><text x="647" y="396" style="stroke-width:0;stroke:none;fill:rgba(51,51,51,1.0);font-size:12.8px;font-family:'Roboto Medium',sans-serif">65</text><path  d="M 637 337
L 642 337" style="stroke-width:1;stroke:rgba(51,51,51,1.0);fill:none"/><text x="647" y="343" style="stroke-width:0;stroke:none;fill:rgba(51,51,51,1.0);font-size:12.8px;font-family:'Roboto Medium',sans-serif">70</text><path  d="M 637 283
L 642 283" style="stroke-width:1;stroke:rgba(51,51,51,1.0);fill:none"/><text x="647" y="289" style="stroke-width:0;stroke:none;fill:rgba(51,51,51,1.0);font-size:12.8px;font-family:'Roboto Medium',sans-serif">75</text><path  d="M 637 230
L 642 230" style="stroke-width:1;stroke:rgba(51,51,51,1.0);fill:none"/><text x="647" y="236" style="stroke-width:0;stroke:none;fill:rgba(51,51,51,1.0);font-size:12.8px;font-family:'Roboto Medium',sans-serif">80</text><path  d="M 637 176
L 642 176" style="stroke-width:1;stroke:rgba(51,51,51,1.0);fill:none"/><text x="647" y="182" style="stroke-width:0;stroke:none;fill:rgba(51,51,51,1.0);font-size:12.8px;font-family:'Roboto Medium',sans-serif">85</text><path  d="M 637 123
L 642 123" style="stroke-width:1;stroke:rgba(51,51,51,1.0);fill:none"/><text x="647" y="129" style="stroke-width:0;stroke:none;fill:rgba(51,51,51,1.0);font-size:12.8px;font-family:'Roboto Medium',sans-serif">90</text><path  d="M 637 69
L 642 69" style="stroke-width:1;stroke:rgba(51,51,51,1.0);fill:none"/><text x="647" y="75" style="stroke-width:0;stroke:none;fill:rgba(51,51,51,1.0);font-size:12.8px;font-family:'Roboto Medium',sans-serif">95</text><path  d="M 637 16
L 642 16" style="stroke-width:1;stroke:rgba(51,51,51,1.0);fill:none"/><text x="647" y="22" style="stroke-width:0;stroke:none;fill:rgba(51,51,51,1.0);font-size:12.8px;font-family:'Roboto Medium',sans-serif">100</text><text x="679" y="232" style="stroke-width:0;stroke:none;fill:rgba(51,51,51,1.0);font-size:12.8px;font-family:'Roboto Medium',sans-serif" transform="rotate(90.00,679,232)">Benchmark Score</text><path  d="M 12 1086
L 636 1086" style="stroke-width:0;stroke:none;fill:none"/><path  d="M 12 497
L 636 497" style="stroke-width:0;stroke:none;fill:none"/><path  d="M 12 444
L 636 444" style="stroke-width:0;stroke:none;fill:none"/><path  d="M 12 390
L 636 390" style="stroke-width:0;stroke:none;fill:none"/><path  d="M 12 337
L 636 337" style="stroke-width:0;stroke:none;fill:none"/><path  d="M 12 283
L 636 283" style="stroke-width:0;stroke:none;fill:none"/><path  d="M 12 230
L 636 230" style="stroke-width:0;stroke:none;fill:none"/><path  d="M 12 176
L 636 176" style="stroke-width:0;stroke:none;fill:none"/><path  d="M 12 123
L 636 123" style="stroke-width:0;stroke:none;fill:none"/><path  d="M 12 69
L 636 69" style="stroke-width:0;stroke:none;fill:none"/><path  d="M 11 551
L 11 16" style="stroke-width:1;stroke:rgba(51,51,51,1.0);fill:none"/><path  d="M 11 -9223372036854775257
L 6 -9223372036854775257" style="stroke-width:1;stroke:rgba(51,51,51,1.0);fill:none"/><text x="-25" y="-9223372036854775251" style="stroke-width:0;stroke:none;fill:rgba(51,51,51,1.0);font-size:12.8px;font-family:'Roboto Medium',sans-serif">0.00</text><path  d="M 11 -9223372036854775257
L 6 -9223372036854775257" style="stroke-width:1;stroke:rgba(51,51,51,1.0);fill:none"/><text x="-25" y="-9223372036854775251" style="stroke-width:0;stroke:none;fill:rgba(51,51,51,1.0);font-size:12.8px;font-family:'Roboto Medium',sans-serif">0.00</text><path  d="M 11 -9223372036854775257
L 6 -9223372036854775257" style="stroke-width:1;stroke:rgba(51,51,51,1.0);fill:none"/><text x="-25" y="-9223372036854775251" style="stroke-width:0;stroke:none;fill:rgba(51,51,51,1.0);font-size:12.8px;font-family:'Roboto Medium',sans-serif">0.00</text><path  d="M 11 -9223372036854775257
L 6 -9223372036854775257" style="stroke-width:1;stroke:rgba(51,51,51,1.0);fill:none"/><text x="-25" y="-9223372036854775251" style="stroke-width:0;stroke:none;fill:rgba(51,51,51,1.0);font-size:12.8px;font-family:'Roboto Medium',sans-serif">0.00</text><path  d="M 11 -9223372036854775257
L 6 -9223372036854775257" style="stroke-width:1;stroke:rgba(51,51,51,1.0);fill:none"/><text x="-25" y="-9223372036854775251" style="stroke-width:0;stroke:none;fill:rgba(51,51,51,1.0);font-size:12.8px;font-family:'Roboto Medium',sans-serif">0.00</text><path  d="M 11 -9223372036854775257
L 6 -9223372036854775257" style="stroke-width:1;stroke:rgba(51,51,51,1.0);fill:none"/><text x="-25" y="-9223372036854775251" style="stroke-width:0;stroke:none;fill:rgba(51,51,51,1.0);font-size:12.8px;font-family:'Roboto Medium',sans-serif">0.00</text><path  d="M 11 -9223372036854775257
L 6 -9223372036854775257" style="stroke-width:1;stroke:rgba(51,51,51,1.0);fill:none"/><text x="-25" y="-9223372036854775251" style="stroke-width:0;stroke:none;fill:rgba(51,51,51,1.0);font-size:12.8px;font-family:'Roboto Medium',sans-serif">0.00</text><path  d="M 11 -9223372036854775257
L 6 -9223372036854775257" style="stroke-width:1;stroke:rgba(51,51,51,1.0);fill:none"/><text x="-25" y="-9223372036854775251" style="stroke-width:0;stroke:none;fill:rgba(51,51,51,1.0);font-size:12.8px;font-family:'Roboto Medium',sans-serif">0.00</text><path  d="M 11 -9223372036854775257
L 6 -9223372036854775257" style="stroke-width:1;stroke:rgba(51,51,51,1.0);fill:none"/><text x="-25" y="-9223372036854775251" style="stroke-width:0;stroke:none;fill:rgba(51,51,51,1.0);font-size:12.8px;font-family:'Roboto Medium',sans-serif">0.00</text><path  d="M 11 -9223372036854775257
L 6 -9223372036854775257" style="stroke-width:1;stroke:rgba(51,51,51,1.0);fill:none"/><text x="-25" y="-9223372036854775251" style="stroke-width:0;stroke:none;fill:rgba(51,51,51,1.0);font-size:12.8px;font-family:'Roboto Medium',sans-serif">0.00</text><path  d="M 11 -9223372036854775257
L 6 -9223372036854775257" style="stroke-width:1;stroke:rgba(51,51,51,1.0);fill:none"/><text x="-25" y="-9223372036854775251" style="stroke-width:0;stroke:none;fill:rgba(51,51,51,1.0);font-size:12.8px;font-family:'Roboto Medium',sans-serif">0.00</text><path  d="M 11 -9223372036854775257
L 6 -9223372036854775257" style="stroke-width:1;stroke:rgba(51,51,51,1.0);fill:none"/><text x="-25" y="-9223372036854775251" style="stroke-width:0;stroke:none;fill:rgba(51,51,51,1.0);font-size:12.8px;font-family:'Roboto Medium',sans-serif">0.00</text><path  d="M 11 -9223372036854775257
L 6 -9223372036854775257" style="stroke-width:1;stroke:rgba(51,51,51,1.0);fill:none"/><text x="-25" y="-9223372036854775251" style="stroke-width:0;stroke:none;fill:rgba(51,51,51,1.0);font-size:12.8px;font-family:'Roboto Medium',sans-serif">0.00</text><path  d="M 11 -9223372036854775257
L 6 -9223372036854775257" style="stroke-width:1;stroke:rgba(51,51,51,1.0);fill:none"/><text x="-25" y="-9223372036854775251" style="stroke-width:0;stroke:none;fill:rgba(51,51,51,1.0);font-size:12.8px;font-family:'Roboto Medium',sans-serif">0.00</text><path  d="M 11 -9223372036854775257
L 6 -9223372036854775257" style="stroke-width:1;stroke:rgba(51,51,51,1.0);fill:none"/><text x="-25" y="-9223372036854775251" style="stroke-width:0;stroke:none;fill:rgba(51,51,51,1.0);font-size:12.8px;font-family:'Roboto Medium',sans-serif">0.00</text><path  d="M 12 -9223372036854775257
L 636 -9223372036854775257" style="stroke-width:0;stroke:none;fill:none"/><path  d="M 12 -9223372036854775257
L 636 -9223372036854775257" style="stroke-width:0;stroke:none;fill:none"/><path  d="M 12 -9223372036854775257
L 636 -9223372036854775257" style="stroke-width:0;stroke:none;fill:none"/><path  d="M 12 -9223372036854775257
L 636 -9223372036854775257" style="stroke-width:0;stroke:none;fill:none"/><path  d="M 12 -9223372036854775257
L 636 -9223372036854775257" style="stroke-width:0;stroke:none;fill:none"/><path  d="M 12 -9223372036854775257
L 636 -9223372036854775257" style="stroke-width:0;stroke:none;fill:none"/><path  d="M 12 -9223372036854775257
L 636 -9223372036854775257" style="stroke-width:0;stroke:none;fill:none"/><path  d="M 12 -9223372036854775257
L 636 -9223372036854775257" style="stroke-width:0;stroke:none;fill:none"/><path  d="M 12 -9223372036854775257
L 636 -9223372036854775257" style="stroke-width:0;stroke:none;fill:none"/><path  d="M 12 -9223372036854775257
L 636 -9223372036854775257" style="stroke-width:0;stroke:none;fill:none"/><path  d="M 12 -9223372036854775257
L 636 -9223372036854775257" style="stroke-width:0;stroke:none;fill:none"/><path  d="M 12 -9223372036854775257
L 636 -9223372036854775257" style="stroke-width:0;stroke:none;fill:none"/><path  d="M 12 -9223372036854775257
L 636 -9223372036854775257" style="stroke-width:0;stroke:none;fill:none"/><path  d="M 12 -9223372036854775257
L 636 -9223372036854775257" style="stroke-width:0;stroke:none;fill:none"/><path  d="M 324 16
L 324 283
L 636 283" style="stroke-width:1;stroke:rgba(255,0,127,0.2);fill:none"/><path  d="M 549 283
L 559 272
L 612 272
L 612 294
L 559 294
L 549 283
Z" style="stroke-width:1;stroke:rgba(255,0,127,0.2);fill:rgba(255,255,255,1.0)"/><text x="564" y="289" style="stroke-width:0;stroke:none;fill:rgba(51,51,51,1.0);font-size:12.8px;font-family:'Roboto Medium',sans-serif">Quarter</text><circle cx="617" cy="68" r="5" style="stroke-width:1;stroke:rgba(16,236,0,1.0);fill:rgba(16,236,0,1.0)"/><path  d="" style="stroke-width:1;stroke:rgba(16,236,0,1.0);fill:rgba(16,236,0,1.0)"/><circle cx="617" cy="201" r="5" style="stroke-width:1;stroke:rgba(44,192,0,1.0);fill:rgba(44,192,0,1.0)"/><path  d="" style="stroke-width:1;stroke:rgba(44,192,0,1.0);fill:rgba(44,192,0,1.0)"/><circle cx="617" cy="16" r="5" style="stroke-width:1;stroke:rgba(3,249,0,1.0);fill:rgba(3,249,0,1.0)"/><path  d="" style="stroke-width:1;stroke:rgba(3,249,0,1.0);fill:rgba(3,249,0,1.0)"/><circle cx="617" cy="49" r="5" style="stroke-width:1;stroke:rgba(11,242,0,1.0);fill:rgba(11,242,0,1.0)"/><path  d="" style="stroke-width:1;stroke:rgba(11,242,0,1.0);fill:rgba(11,242,0,1.0)"/><circle cx="291" cy="33" r="5" style="stroke-width:1;stroke:rgba(62,154,0,1.0);fill:rgba(62,154,0,1.0)"/><path  d="" style="stroke-width:1;stroke:rgba(62,154,0,1.0);fill:rgba(62,154,0,1.0)"/><circle cx="157" cy="136" r="5" style="stroke-width:1;stroke:rgba(109,110,0,1.0);fill:rgba(109,110,0,1.0)"/><path  d="" style="stroke-width:1;stroke:rgba(109,110,0,1.0);fill:rgba(109,110,0,1.0)"/><circle cx="22" cy="484" r="5" style="stroke-width:1;stroke:rgba(232,17,0,1.0);fill:rgba(232,17,0,1.0)"/><path  d="" style="stroke-width:1;stroke:rgba(232,17,0,1.0);fill:rgba(232,17,0,1.0)"/><circle cx="617" cy="89" r="5" style="stroke-width:1;stroke:rgba(21,229,0,1.0);fill:rgba(21,229,0,1.0)"/><path  d="" style="stroke-width:1;stroke:rgba(21,229,0,1.0);fill:rgba(21,229,0,1.0)"/><path  d="M 617 71
L 627 60
L 720 60
L 720 82
L 627 82
L 617 71
Z" style="stroke-width:1;stroke:rgba(63,127,255,1.0);fill:rgba(255,255,255,1.0)"/><text x="632" y="77" style="stroke-width:0;stroke:none;fill:rgba(51,51,51,1.0);font-size:12.8px;font-family:'Roboto Medium',sans-serif">madkins/flash</text><path  d="M 617 201
L 627 190
L 729 190
L 729 212
L 627 212
L 617 201
Z" style="stroke-width:1;stroke:rgba(63,127,255,1.0);fill:rgba(255,255,255,1.0)"/><text x="632" y="207" style="stroke-width:0;stroke:none;fill:rgba(51,51,51,1.0);font-size:12.8px;font-family:'Roboto Medium',sans-serif">madkins/sloggy</text><path  d="M 617 16
L 627 5
L 705 5
L 705 27
L 627 27
L 617 16
Z" style="stroke-width:1;stroke:rgba(63,127,255,1.0);fill:rgba(255,255,255,1.0)"/><text x="632" y="22" style="stroke-width:0;stroke:none;fill:rgba(51,51,51,1.0);font-size:12.8px;font-family:'Roboto Medium',sans-serif">phuslu/slog</text><path  d="M 617 46
L 627 35
L 745 35
L 745 57
L 627 57
L 617 46
Z" style="stroke-width:1;stroke:rgba(63,127,255,1.0);fill:rgba(255,255,255,1.0)"/><text x="632" y="52" style="stroke-width:0;stroke:none;fill:rgba(51,51,51,1.0);font-size:12.8px;font-family:'Roboto Medium',sans-serif">slog/JSONHandler</text><path  d="M 291 33
L 301 22
L 415 22
L 415 44
L 301 44
L 291 33
Z" style="stroke-width:1;stroke:rgba(63,127,255,1.0);fill:rgba(255,255,255,1.0)"/><text x="306" y="39" style="stroke-width:0;stroke:none;fill:rgba(51,51,51,1.0);font-size:12.8px;font-family:'Roboto Medium',sans-serif">svcrunner/jsonlog</text><path  d="M 157 136
L 167 125
L 298 125
L 298 147
L 167 147
L 157 136
Z" style="stroke-width:1;stroke:rgba(63,127,255,1.0);fill:rgba(255,255,255,1.0)"/><text x="172" y="142" style="stroke-width:0;stroke:none;fill:rgba(51,51,51,1.0);font-size:12.8px;font-family:'Roboto Medium',sans-serif">chanchal/zaphandler</text><path  d="M 22 484
L 32 473
L 140 473
L 140 495
L 32 495
L 22 484
Z" style="stroke-width:1;stroke:rgba(63,127,255,1.0);fill:rgba(255,255,255,1.0)"/><text x="37" y="490" style="stroke-width:0;stroke:none;fill:rgba(51,51,51,1.0);font-size:12.8px;font-family:'Roboto Medium',sans-serif">samber/slog-zap</text><path  d="M 617 97
L 627 86
L 733 86
L 733 108
L 627 108
L 617 97
Z" style="stroke-width:1;stroke:rgba(63,127,255,1.0);fill:rgba(255,255,255,1.0)"/><text x="632" y="103" style="stroke-width:0;stroke:none;fill:rgba(51,51,51,1.0);font-size:12.8px;font-family:'Roboto Medium',sans-serif">madkins/replattr</text></svg>