<svg xmlns="http://www.w3.org/2000/svg" xmlns:xlink="http://www.w3.org/1999/xlink" width="750" height="600">\n<path  d="M 0 0
L 750 0
L 750 600
L 0 600
L 0 0" style="stroke-width:0;stroke:rgba(255,255,255,1.0);fill:rgba(255,255,255,1.0)"/><path  d="M 12 16
L 629 16
L 629 551
L 12 551
L 12 16" style="stroke-width:0;stroke:rgba(255,255,255,1.0);fill:rgba(255,255,255,1.0)"/><path  d="M 12 551
L 629 551" style="stroke-width:1;stroke:rgba(51,51,51,1.0);fill:none"/><path  d="M 12 551
L 12 556" style="stroke-width:1;stroke:rgba(51,51,51,1.0);fill:none"/><text x="5" y="573" style="stroke-width:0;stroke:none;fill:rgba(51,51,51,1.0);font-size:12.8px;font-family:'Roboto Medium',sans-serif">25</text><path  d="M 54 551
L 54 556" style="stroke-width:1;stroke:rgba(51,51,51,1.0);fill:none"/><text x="47" y="573" style="stroke-width:0;stroke:none;fill:rgba(51,51,51,1.0);font-size:12.8px;font-family:'Roboto Medium',sans-serif">30</text><path  d="M 136 551
L 136 556" style="stroke-width:1;stroke:rgba(51,51,51,1.0);fill:none"/><text x="129" y="573" style="stroke-width:0;stroke:none;fill:rgba(51,51,51,1.0);font-size:12.8px;font-family:'Roboto Medium',sans-serif">40</text><path  d="M 218 551
L 218 556" style="stroke-width:1;stroke:rgba(51,51,51,1.0);fill:none"/><text x="211" y="573" style="stroke-width:0;stroke:none;fill:rgba(51,51,51,1.0);font-size:12.8px;font-family:'Roboto Medium',sans-serif">50</text><path  d="M 300 551
L 300 556" style="stroke-width:1;stroke:rgba(51,51,51,1.0);fill:none"/><text x="293" y="573" style="stroke-width:0;stroke:none;fill:rgba(51,51,51,1.0);font-size:12.8px;font-family:'Roboto Medium',sans-serif">60</text><path  d="M 383 551
L 383 556" style="stroke-width:1;stroke:rgba(51,51,51,1.0);fill:none"/><text x="376" y="573" style="stroke-width:0;stroke:none;fill:rgba(51,51,51,1.0);font-size:12.8px;font-family:'Roboto Medium',sans-serif">70</text><path  d="M 465 551
L 465 556" style="stroke-width:1;stroke:rgba(51,51,51,1.0);fill:none"/><text x="458" y="573" style="stroke-width:0;stroke:none;fill:rgba(51,51,51,1.0);font-size:12.8px;font-family:'Roboto Medium',sans-serif">80</text><path  d="M 547 551
L 547 556" style="stroke-width:1;stroke:rgba(51,51,51,1.0);fill:none"/><text x="540" y="573" style="stroke-width:0;stroke:none;fill:rgba(51,51,51,1.0);font-size:12.8px;font-family:'Roboto Medium',sans-serif">90</text><path  d="M 629 551
L 629 556" style="stroke-width:1;stroke:rgba(51,51,51,1.0);fill:none"/><text x="618" y="573" style="stroke-width:0;stroke:none;fill:rgba(51,51,51,1.0);font-size:12.8px;font-family:'Roboto Medium',sans-serif">100</text><text x="279" y="595" style="stroke-width:0;stroke:none;fill:rgba(51,51,51,1.0);font-size:12.8px;font-family:'Roboto Medium',sans-serif">Warning Score</text><path  d="M 54 551
L 54 16" style="stroke-width:0;stroke:none;fill:none"/><path  d="M 136 551
L 136 16" style="stroke-width:0;stroke:none;fill:none"/><path  d="M 218 551
L 218 16" style="stroke-width:0;stroke:none;fill:none"/><path  d="M 300 551
L 300 16" style="stroke-width:0;stroke:none;fill:none"/><path  d="M 383 551
L 383 16" style="stroke-width:0;stroke:none;fill:none"/><path  d="M 465 551
L 465 16" style="stroke-width:0;stroke:none;fill:none"/><path  d="M 547 551
L 547 16" style="stroke-width:0;stroke:none;fill:none"/><path  d="M 630 551
L 630 16" style="stroke-width:1;stroke:rgba(51,51,51,1.0);fill:none"/><path  d="M 630 551
L 635 551" style="stroke-width:1;stroke:rgba(51,51,51,1.0);fill:none"/><text x="640" y="557" style="stroke-width:0;stroke:none;fill:rgba(51,51,51,1.0);font-size:12.8px;font-family:'Roboto Medium',sans-serif">25</text><path  d="M 630 515
L 635 515" style="stroke-width:1;stroke:rgba(51,51,51,1.0);fill:none"/><text x="640" y="521" style="stroke-width:0;stroke:none;fill:rgba(51,51,51,1.0);font-size:12.8px;font-family:'Roboto Medium',sans-serif">30</text><path  d="M 630 444
L 635 444" style="stroke-width:1;stroke:rgba(51,51,51,1.0);fill:none"/><text x="640" y="450" style="stroke-width:0;stroke:none;fill:rgba(51,51,51,1.0);font-size:12.8px;font-family:'Roboto Medium',sans-serif">40</text><path  d="M 630 372
L 635 372" style="stroke-width:1;stroke:rgba(51,51,51,1.0);fill:none"/><text x="640" y="378" style="stroke-width:0;stroke:none;fill:rgba(51,51,51,1.0);font-size:12.8px;font-family:'Roboto Medium',sans-serif">50</text><path  d="M 630 301
L 635 301" style="stroke-width:1;stroke:rgba(51,51,51,1.0);fill:none"/><text x="640" y="307" style="stroke-width:0;stroke:none;fill:rgba(51,51,51,1.0);font-size:12.8px;font-family:'Roboto Medium',sans-serif">60</text><path  d="M 630 230
L 635 230" style="stroke-width:1;stroke:rgba(51,51,51,1.0);fill:none"/><text x="640" y="236" style="stroke-width:0;stroke:none;fill:rgba(51,51,51,1.0);font-size:12.8px;font-family:'Roboto Medium',sans-serif">70</text><path  d="M 630 158
L 635 158" style="stroke-width:1;stroke:rgba(51,51,51,1.0);fill:none"/><text x="640" y="164" style="stroke-width:0;stroke:none;fill:rgba(51,51,51,1.0);font-size:12.8px;font-family:'Roboto Medium',sans-serif">80</text><path  d="M 630 87
L 635 87" style="stroke-width:1;stroke:rgba(51,51,51,1.0);fill:none"/><text x="640" y="93" style="stroke-width:0;stroke:none;fill:rgba(51,51,51,1.0);font-size:12.8px;font-family:'Roboto Medium',sans-serif">90</text><path  d="M 630 16
L 635 16" style="stroke-width:1;stroke:rgba(51,51,51,1.0);fill:none"/><text x="640" y="22" style="stroke-width:0;stroke:none;fill:rgba(51,51,51,1.0);font-size:12.8px;font-family:'Roboto Medium',sans-serif">100</text><text x="672" y="232" style="stroke-width:0;stroke:none;fill:rgba(51,51,51,1.0);font-size:12.8px;font-family:'Roboto Medium',sans-serif" transform="rotate(90.00,672,232)">Benchmark Score</text><path  d="M 12 729
L 629 729" style="stroke-width:0;stroke:none;fill:none"/><path  d="M 12 515
L 629 515" style="stroke-width:0;stroke:none;fill:none"/><path  d="M 12 444
L 629 444" style="stroke-width:0;stroke:none;fill:none"/><path  d="M 12 372
L 629 372" style="stroke-width:0;stroke:none;fill:none"/><path  d="M 12 301
L 629 301" style="stroke-width:0;stroke:none;fill:none"/><path  d="M 12 230
L 629 230" style="stroke-width:0;stroke:none;fill:none"/><path  d="M 12 158
L 629 158" style="stroke-width:0;stroke:none;fill:none"/><path  d="M 12 87
L 629 87" style="stroke-width:0;stroke:none;fill:none"/><path  d="M 11 551
L 11 16" style="stroke-width:1;stroke:rgba(51,51,51,1.0);fill:none"/><path  d="M 11 -9223372036854775257
L 6 -9223372036854775257" style="stroke-width:1;stroke:rgba(51,51,51,1.0);fill:none"/><text x="-25" y="-9223372036854775251" style="stroke-width:0;stroke:none;fill:rgba(51,51,51,1.0);font-size:12.8px;font-family:'Roboto Medium',sans-serif">0.00</text><path  d="M 11 -9223372036854775257
L 6 -9223372036854775257" style="stroke-width:1;stroke:rgba(51,51,51,1.0);fill:none"/><text x="-25" y="-9223372036854775251" style="stroke-width:0;stroke:none;fill:rgba(51,51,51,1.0);font-size:12.8px;font-family:'Roboto Medium',sans-serif">0.00</text><path  d="M 11 -9223372036854775257
L 6 -9223372036854775257" style="stroke-width:1;stroke:rgba(51,51,51,1.0);fill:none"/><text x="-25" y="-9223372036854775251" style="stroke-width:0;stroke:none;fill:rgba(51,51,51,1.0);font-size:12.8px;font-family:'Roboto Medium',sans-serif">0.00</text><path  d="M 11 -9223372036854775257
L 6 -9223372036854775257" style="stroke-width:1;stroke:rgba(51,51,51,1.0);fill:none"/><text x="-25" y="-9223372036854775251" style="stroke-width:0;stroke:none;fill:rgba(51,51,51,1.0);font-size:12.8px;font-family:'Roboto Medium',sans-serif">0.00</text><path  d="M 11 -9223372036854775257
L 6 -9223372036854775257" style="stroke-width:1;stroke:rgba(51,51,51,1.0);fill:none"/><text x="-25" y="-9223372036854775251" style="stroke-width:0;stroke:none;fill:rgba(51,51,51,1.0);font-size:12.8px;font-family:'Roboto Medium',sans-serif">0.00</text><path  d="M 11 -9223372036854775257
L 6 -9223372036854775257" style="stroke-width:1;stroke:rgba(51,51,51,1.0);fill:none"/><text x="-25" y="-9223372036854775251" style="stroke-width:0;stroke:none;fill:rgba(51,51,51,1.0);font-size:12.8px;font-family:'Roboto Medium',sans-serif">0.00</text><path  d="M 11 -9223372036854775257
L 6 -9223372036854775257" style="stroke-width:1;stroke:rgba(51,51,51,1.0);fill:none"/><text x="-25" y="-9223372036854775251" style="stroke-width:0;stroke:none;fill:rgba(51,51,51,1.0);font-size:12.8px;font-family:'Roboto Medium',sans-serif">0.00</text><path  d="M 11 -9223372036854775257
L 6 -9223372036854775257" style="stroke-width:1;stroke:rgba(51,51,51,1.0);fill:none"/><text x="-25" y="-9223372036854775251" style="stroke-width:0;stroke:none;fill:rgba(51,51,51,1.0);font-size:12.8px;font-family:'Roboto Medium',sans-serif">0.00</text><path  d="M 11 -9223372036854775257
L 6 -9223372036854775257" style="stroke-width:1;stroke:rgba(51,51,51,1.0);fill:none"/><text x="-25" y="-9223372036854775251" style="stroke-width:0;stroke:none;fill:rgba(51,51,51,1.0);font-size:12.8px;font-family:'Roboto Medium',sans-serif">0.00</text><path  d="M 11 -9223372036854775257
L 6 -9223372036854775257" style="stroke-width:1;stroke:rgba(51,51,51,1.0);fill:none"/><text x="-25" y="-9223372036854775251" style="stroke-width:0;stroke:none;fill:rgba(51,51,51,1.0);font-size:12.8px;font-family:'Roboto Medium',sans-serif">0.00</text><path  d="M 11 -9223372036854775257
L 6 -9223372036854775257" style="stroke-width:1;stroke:rgba(51,51,51,1.0);fill:none"/><text x="-25" y="-9223372036854775251" style="stroke-width:0;stroke:none;fill:rgba(51,51,51,1.0);font-size:12.8px;font-family:'Roboto Medium',sans-serif">0.00</text><path  d="M 11 -9223372036854775257
L 6 -9223372036854775257" style="stroke-width:1;stroke:rgba(51,51,51,1.0);fill:none"/><text x="-25" y="-9223372036854775251" style="stroke-width:0;stroke:none;fill:rgba(51,51,51,1.0);font-size:12.8px;font-family:'Roboto Medium',sans-serif">0.00</text><path  d="M 11 -9223372036854775257
L 6 -9223372036854775257" style="stroke-width:1;stroke:rgba(51,51,51,1.0);fill:none"/><text x="-25" y="-9223372036854775251" style="stroke-width:0;stroke:none;fill:rgba(51,51,51,1.0);font-size:12.8px;font-family:'Roboto Medium',sans-serif">0.00</text><path  d="M 11 -9223372036854775257
L 6 -9223372036854775257" style="stroke-width:1;stroke:rgba(51,51,51,1.0);fill:none"/><text x="-25" y="-9223372036854775251" style="stroke-width:0;stroke:none;fill:rgba(51,51,51,1.0);font-size:12.8px;font-family:'Roboto Medium',sans-serif">0.00</text><path  d="M 11 -9223372036854775257
L 6 -9223372036854775257" style="stroke-width:1;stroke:rgba(51,51,51,1.0);fill:none"/><text x="-25" y="-9223372036854775251" style="stroke-width:0;stroke:none;fill:rgba(51,51,51,1.0);font-size:12.8px;font-family:'Roboto Medium',sans-serif">0.00</text><path  d="M 12 -9223372036854775257
L 629 -9223372036854775257" style="stroke-width:0;stroke:none;fill:none"/><path  d="M 12 -9223372036854775257
L 629 -9223372036854775257" style="stroke-width:0;stroke:none;fill:none"/><path  d="M 12 -9223372036854775257
L 629 -9223372036854775257" style="stroke-width:0;stroke:none;fill:none"/><path  d="M 12 -9223372036854775257
L 629 -9223372036854775257" style="stroke-width:0;stroke:none;fill:none"/><path  d="M 12 -9223372036854775257
L 629 -9223372036854775257" style="stroke-width:0;stroke:none;fill:none"/><path  d="M 12 -9223372036854775257
L 629 -9223372036854775257" style="stroke-width:0;stroke:none;fill:none"/><path  d="M 12 -9223372036854775257
L 629 -9223372036854775257" style="stroke-width:0;stroke:none;fill:none"/><path  d="M 12 -9223372036854775257
L 629 -9223372036854775257" style="stroke-width:0;stroke:none;fill:none"/><path  d="M 12 -9223372036854775257
L 629 -9223372036854775257" style="stroke-width:0;stroke:none;fill:none"/><path  d="M 12 -9223372036854775257
L 629 -9223372036854775257" style="stroke-width:0;stroke:none;fill:none"/><path  d="M 12 -9223372036854775257
L 629 -9223372036854775257" style="stroke-width:0;stroke:none;fill:none"/><path  d="M 12 -9223372036854775257
L 629 -9223372036854775257" style="stroke-width:0;stroke:none;fill:none"/><path  d="M 12 -9223372036854775257
L 629 -9223372036854775257" style="stroke-width:0;stroke:none;fill:none"/><path  d="M 12 -9223372036854775257
L 629 -9223372036854775257" style="stroke-width:0;stroke:none;fill:none"/><path  d="M 218 16
L 218 372
L 629 372" style="stroke-width:1;stroke:rgba(255,0,127,0.2);fill:none"/><path  d="M 424 16
L 424 194
L 629 194" style="stroke-width:1;stroke:rgba(255,0,127,0.2);fill:none"/><path  d="M 547 372
L 557 361
L 591 361
L 591 383
L 557 383
L 547 372
Z" style="stroke-width:1;stroke:rgba(255,0,127,0.2);fill:rgba(255,255,255,1.0)"/><text x="562" y="378" style="stroke-width:0;stroke:none;fill:rgba(51,51,51,1.0);font-size:12.8px;font-family:'Roboto Medium',sans-serif">Half</text><path  d="M 547 194
L 557 183
L 610 183
L 610 205
L 557 205
L 547 194
Z" style="stroke-width:1;stroke:rgba(255,0,127,0.2);fill:rgba(255,255,255,1.0)"/><text x="562" y="200" style="stroke-width:0;stroke:none;fill:rgba(51,51,51,1.0);font-size:12.8px;font-family:'Roboto Medium',sans-serif">Quarter</text><circle cx="617" cy="49" r="5" style="stroke-width:1;stroke:rgba(10,243,0,1.0);fill:rgba(10,243,0,1.0)"/><path  d="" style="stroke-width:1;stroke:rgba(10,243,0,1.0);fill:rgba(10,243,0,1.0)"/><circle cx="617" cy="74" r="5" style="stroke-width:1;stroke:rgba(16,235,0,1.0);fill:rgba(16,235,0,1.0)"/><path  d="" style="stroke-width:1;stroke:rgba(16,235,0,1.0);fill:rgba(16,235,0,1.0)"/><circle cx="202" cy="24" r="5" style="stroke-width:1;stroke:rgba(69,130,0,1.0);fill:rgba(69,130,0,1.0)"/><path  d="" style="stroke-width:1;stroke:rgba(69,130,0,1.0);fill:rgba(69,130,0,1.0)"/><circle cx="297" cy="359" r="5" style="stroke-width:1;stroke:rgba(149,103,0,1.0);fill:rgba(149,103,0,1.0)"/><path  d="" style="stroke-width:1;stroke:rgba(149,103,0,1.0);fill:rgba(149,103,0,1.0)"/><circle cx="617" cy="42" r="5" style="stroke-width:1;stroke:rgba(8,245,0,1.0);fill:rgba(8,245,0,1.0)"/><path  d="" style="stroke-width:1;stroke:rgba(8,245,0,1.0);fill:rgba(8,245,0,1.0)"/><circle cx="403" cy="28" r="5" style="stroke-width:1;stroke:rgba(44,188,0,1.0);fill:rgba(44,188,0,1.0)"/><path  d="" style="stroke-width:1;stroke:rgba(44,188,0,1.0);fill:rgba(44,188,0,1.0)"/><circle cx="316" cy="95" r="5" style="stroke-width:1;stroke:rgba(77,159,0,1.0);fill:rgba(77,159,0,1.0)"/><path  d="" style="stroke-width:1;stroke:rgba(77,159,0,1.0);fill:rgba(77,159,0,1.0)"/><circle cx="617" cy="16" r="5" style="stroke-width:1;stroke:rgba(2,251,0,1.0);fill:rgba(2,251,0,1.0)"/><path  d="" style="stroke-width:1;stroke:rgba(2,251,0,1.0);fill:rgba(2,251,0,1.0)"/><circle cx="322" cy="352" r="5" style="stroke-width:1;stroke:rgba(142,110,0,1.0);fill:rgba(142,110,0,1.0)"/><path  d="" style="stroke-width:1;stroke:rgba(142,110,0,1.0);fill:rgba(142,110,0,1.0)"/><circle cx="617" cy="132" r="5" style="stroke-width:1;stroke:rgba(28,215,0,1.0);fill:rgba(28,215,0,1.0)"/><path  d="" style="stroke-width:1;stroke:rgba(28,215,0,1.0);fill:rgba(28,215,0,1.0)"/><path  d="M 617 64
L 627 53
L 720 53
L 720 75
L 627 75
L 617 64
Z" style="stroke-width:1;stroke:rgba(63,127,255,1.0);fill:rgba(255,255,255,1.0)"/><text x="632" y="70" style="stroke-width:0;stroke:none;fill:rgba(51,51,51,1.0);font-size:12.8px;font-family:'Roboto Medium',sans-serif">madkins/flash</text><path  d="M 617 74
L 627 63
L 733 63
L 733 85
L 627 85
L 617 74
Z" style="stroke-width:1;stroke:rgba(63,127,255,1.0);fill:rgba(255,255,255,1.0)"/><text x="632" y="80" style="stroke-width:0;stroke:none;fill:rgba(51,51,51,1.0);font-size:12.8px;font-family:'Roboto Medium',sans-serif">madkins/replattr</text><path  d="M 202 24
L 212 13
L 315 13
L 315 35
L 212 35
L 202 24
Z" style="stroke-width:1;stroke:rgba(63,127,255,1.0);fill:rgba(255,255,255,1.0)"/><text x="217" y="30" style="stroke-width:0;stroke:none;fill:rgba(51,51,51,1.0);font-size:12.8px;font-family:'Roboto Medium',sans-serif">phsym/zeroslog</text><path  d="M 297 367
L 307 356
L 415 356
L 415 378
L 307 378
L 297 367
Z" style="stroke-width:1;stroke:rgba(63,127,255,1.0);fill:rgba(255,255,255,1.0)"/><text x="312" y="373" style="stroke-width:0;stroke:none;fill:rgba(51,51,51,1.0);font-size:12.8px;font-family:'Roboto Medium',sans-serif">samber/slog-zap</text><path  d="M 617 42
L 627 31
L 745 31
L 745 53
L 627 53
L 617 42
Z" style="stroke-width:1;stroke:rgba(63,127,255,1.0);fill:rgba(255,255,255,1.0)"/><text x="632" y="48" style="stroke-width:0;stroke:none;fill:rgba(51,51,51,1.0);font-size:12.8px;font-family:'Roboto Medium',sans-serif">slog/JSONHandler</text><path  d="M 403 28
L 413 17
L 527 17
L 527 39
L 413 39
L 403 28
Z" style="stroke-width:1;stroke:rgba(63,127,255,1.0);fill:rgba(255,255,255,1.0)"/><text x="418" y="34" style="stroke-width:0;stroke:none;fill:rgba(51,51,51,1.0);font-size:12.8px;font-family:'Roboto Medium',sans-serif">svcrunner/jsonlog</text><path  d="M 316 95
L 326 84
L 457 84
L 457 106
L 326 106
L 316 95
Z" style="stroke-width:1;stroke:rgba(63,127,255,1.0);fill:rgba(255,255,255,1.0)"/><text x="331" y="101" style="stroke-width:0;stroke:none;fill:rgba(51,51,51,1.0);font-size:12.8px;font-family:'Roboto Medium',sans-serif">chanchal/zaphandler</text><path  d="M 617 16
L 627 5
L 705 5
L 705 27
L 627 27
L 617 16
Z" style="stroke-width:1;stroke:rgba(63,127,255,1.0);fill:rgba(255,255,255,1.0)"/><text x="632" y="22" style="stroke-width:0;stroke:none;fill:rgba(51,51,51,1.0);font-size:12.8px;font-family:'Roboto Medium',sans-serif">phuslu/slog</text><path  d="M 322 344
L 332 333
L 462 333
L 462 355
L 332 355
L 322 344
Z" style="stroke-width:1;stroke:rgba(63,127,255,1.0);fill:rgba(255,255,255,1.0)"/><text x="337" y="350" style="stroke-width:0;stroke:none;fill:rgba(51,51,51,1.0);font-size:12.8px;font-family:'Roboto Medium',sans-serif">samber/slog-zerolog</text><path  d="M 617 132
L 627 121
L 729 121
L 729 143
L 627 143
L 617 132
Z" style="stroke-width:1;stroke:rgba(63,127,255,1.0);fill:rgba(255,255,255,1.0)"/><text x="632" y="138" style="stroke-width:0;stroke:none;fill:rgba(51,51,51,1.0);font-size:12.8px;font-family:'Roboto Medium',sans-serif">madkins/sloggy</text></svg>