<svg xmlns="http://www.w3.org/2000/svg" xmlns:xlink="http://www.w3.org/1999/xlink" width="750" height="600">\n<path  d="M 0 0
L 750 0
L 750 600
L 0 600
L 0 0" style="stroke-width:0;stroke:rgba(255,255,255,1.0);fill:rgba(255,255,255,1.0)"/><path  d="M 12 23
L 629 23
L 629 551
L 12 551
L 12 23" style="stroke-width:0;stroke:rgba(255,255,255,1.0);fill:rgba(255,255,255,1.0)"/><path  d="M 12 551
L 629 551" style="stroke-width:1;stroke:rgba(51,51,51,1.0);fill:none"/><path  d="M 12 551
L 12 556" style="stroke-width:1;stroke:rgba(51,51,51,1.0);fill:none"/><text x="5" y="573" style="stroke-width:0;stroke:none;fill:rgba(51,51,51,1.0);font-size:12.8px;font-family:'Roboto Medium',sans-serif">25</text><path  d="M 54 551
L 54 556" style="stroke-width:1;stroke:rgba(51,51,51,1.0);fill:none"/><text x="47" y="573" style="stroke-width:0;stroke:none;fill:rgba(51,51,51,1.0);font-size:12.8px;font-family:'Roboto Medium',sans-serif">30</text><path  d="M 136 551
L 136 556" style="stroke-width:1;stroke:rgba(51,51,51,1.0);fill:none"/><text x="129" y="573" style="stroke-width:0;stroke:none;fill:rgba(51,51,51,1.0);font-size:12.8px;font-family:'Roboto Medium',sans-serif">40</text><path  d="M 218 551
L 218 556" style="stroke-width:1;stroke:rgba(51,51,51,1.0);fill:none"/><text x="211" y="573" style="stroke-width:0;stroke:none;fill:rgba(51,51,51,1.0);font-size:12.8px;font-family:'Roboto Medium',sans-serif">50</text><path  d="M 300 551
L 300 556" style="stroke-width:1;stroke:rgba(51,51,51,1.0);fill:none"/><text x="293" y="573" style="stroke-width:0;stroke:none;fill:rgba(51,51,51,1.0);font-size:12.8px;font-family:'Roboto Medium',sans-serif">60</text><path  d="M 383 551
L 383 556" style="stroke-width:1;stroke:rgba(51,51,51,1.0);fill:none"/><text x="376" y="573" style="stroke-width:0;stroke:none;fill:rgba(51,51,51,1.0);font-size:12.8px;font-family:'Roboto Medium',sans-serif">70</text><path  d="M 465 551
L 465 556" style="stroke-width:1;stroke:rgba(51,51,51,1.0);fill:none"/><text x="458" y="573" style="stroke-width:0;stroke:none;fill:rgba(51,51,51,1.0);font-size:12.8px;font-family:'Roboto Medium',sans-serif">80</text><path  d="M 547 551
L 547 556" style="stroke-width:1;stroke:rgba(51,51,51,1.0);fill:none"/><text x="540" y="573" style="stroke-width:0;stroke:none;fill:rgba(51,51,51,1.0);font-size:12.8px;font-family:'Roboto Medium',sans-serif">90</text><path  d="M 629 551
L 629 556" style="stroke-width:1;stroke:rgba(51,51,51,1.0);fill:none"/><text x="618" y="573" style="stroke-width:0;stroke:none;fill:rgba(51,51,51,1.0);font-size:12.8px;font-family:'Roboto Medium',sans-serif">100</text><text x="279" y="595" style="stroke-width:0;stroke:none;fill:rgba(51,51,51,1.0);font-size:12.8px;font-family:'Roboto Medium',sans-serif">Warning Score</text><path  d="M 54 551
L 54 23" style="stroke-width:0;stroke:none;fill:none"/><path  d="M 136 551
L 136 23" style="stroke-width:0;stroke:none;fill:none"/><path  d="M 218 551
L 218 23" style="stroke-width:0;stroke:none;fill:none"/><path  d="M 300 551
L 300 23" style="stroke-width:0;stroke:none;fill:none"/><path  d="M 383 551
L 383 23" style="stroke-width:0;stroke:none;fill:none"/><path  d="M 465 551
L 465 23" style="stroke-width:0;stroke:none;fill:none"/><path  d="M 547 551
L 547 23" style="stroke-width:0;stroke:none;fill:none"/><path  d="M 630 551
L 630 23" style="stroke-width:1;stroke:rgba(51,51,51,1.0);fill:none"/><path  d="M 630 551
L 635 551" style="stroke-width:1;stroke:rgba(51,51,51,1.0);fill:none"/><text x="640" y="557" style="stroke-width:0;stroke:none;fill:rgba(51,51,51,1.0);font-size:12.8px;font-family:'Roboto Medium',sans-serif">25</text><path  d="M 630 515
L 635 515" style="stroke-width:1;stroke:rgba(51,51,51,1.0);fill:none"/><text x="640" y="521" style="stroke-width:0;stroke:none;fill:rgba(51,51,51,1.0);font-size:12.8px;font-family:'Roboto Medium',sans-serif">30</text><path  d="M 630 445
L 635 445" style="stroke-width:1;stroke:rgba(51,51,51,1.0);fill:none"/><text x="640" y="451" style="stroke-width:0;stroke:none;fill:rgba(51,51,51,1.0);font-size:12.8px;font-family:'Roboto Medium',sans-serif">40</text><path  d="M 630 375
L 635 375" style="stroke-width:1;stroke:rgba(51,51,51,1.0);fill:none"/><text x="640" y="381" style="stroke-width:0;stroke:none;fill:rgba(51,51,51,1.0);font-size:12.8px;font-family:'Roboto Medium',sans-serif">50</text><path  d="M 630 304
L 635 304" style="stroke-width:1;stroke:rgba(51,51,51,1.0);fill:none"/><text x="640" y="310" style="stroke-width:0;stroke:none;fill:rgba(51,51,51,1.0);font-size:12.8px;font-family:'Roboto Medium',sans-serif">60</text><path  d="M 630 234
L 635 234" style="stroke-width:1;stroke:rgba(51,51,51,1.0);fill:none"/><text x="640" y="240" style="stroke-width:0;stroke:none;fill:rgba(51,51,51,1.0);font-size:12.8px;font-family:'Roboto Medium',sans-serif">70</text><path  d="M 630 163
L 635 163" style="stroke-width:1;stroke:rgba(51,51,51,1.0);fill:none"/><text x="640" y="169" style="stroke-width:0;stroke:none;fill:rgba(51,51,51,1.0);font-size:12.8px;font-family:'Roboto Medium',sans-serif">80</text><path  d="M 630 93
L 635 93" style="stroke-width:1;stroke:rgba(51,51,51,1.0);fill:none"/><text x="640" y="99" style="stroke-width:0;stroke:none;fill:rgba(51,51,51,1.0);font-size:12.8px;font-family:'Roboto Medium',sans-serif">90</text><path  d="M 630 23
L 635 23" style="stroke-width:1;stroke:rgba(51,51,51,1.0);fill:none"/><text x="640" y="29" style="stroke-width:0;stroke:none;fill:rgba(51,51,51,1.0);font-size:12.8px;font-family:'Roboto Medium',sans-serif">100</text><text x="672" y="236" style="stroke-width:0;stroke:none;fill:rgba(51,51,51,1.0);font-size:12.8px;font-family:'Roboto Medium',sans-serif" transform="rotate(90.00,672,236)">Benchmark Score</text><path  d="M 12 727
L 629 727" style="stroke-width:0;stroke:none;fill:none"/><path  d="M 12 515
L 629 515" style="stroke-width:0;stroke:none;fill:none"/><path  d="M 12 445
L 629 445" style="stroke-width:0;stroke:none;fill:none"/><path  d="M 12 375
L 629 375" style="stroke-width:0;stroke:none;fill:none"/><path  d="M 12 304
L 629 304" style="stroke-width:0;stroke:none;fill:none"/><path  d="M 12 234
L 629 234" style="stroke-width:0;stroke:none;fill:none"/><path  d="M 12 163
L 629 163" style="stroke-width:0;stroke:none;fill:none"/><path  d="M 12 93
L 629 93" style="stroke-width:0;stroke:none;fill:none"/><path  d="M 11 551
L 11 23" style="stroke-width:1;stroke:rgba(51,51,51,1.0);fill:none"/><path  d="M 11 -9223372036854775257
L 6 -9223372036854775257" style="stroke-width:1;stroke:rgba(51,51,51,1.0);fill:none"/><text x="-25" y="-9223372036854775251" style="stroke-width:0;stroke:none;fill:rgba(51,51,51,1.0);font-size:12.8px;font-family:'Roboto Medium',sans-serif">0.00</text><path  d="M 11 -9223372036854775257
L 6 -9223372036854775257" style="stroke-width:1;stroke:rgba(51,51,51,1.0);fill:none"/><text x="-25" y="-9223372036854775251" style="stroke-width:0;stroke:none;fill:rgba(51,51,51,1.0);font-size:12.8px;font-family:'Roboto Medium',sans-serif">0.00</text><path  d="M 11 -9223372036854775257
L 6 -9223372036854775257" style="stroke-width:1;stroke:rgba(51,51,51,1.0);fill:none"/><text x="-25" y="-9223372036854775251" style="stroke-width:0;stroke:none;fill:rgba(51,51,51,1.0);font-size:12.8px;font-family:'Roboto Medium',sans-serif">0.00</text><path  d="M 11 -9223372036854775257
L 6 -9223372036854775257" style="stroke-width:1;stroke:rgba(51,51,51,1.0);fill:none"/><text x="-25" y="-9223372036854775251" style="stroke-width:0;stroke:none;fill:rgba(51,51,51,1.0);font-size:12.8px;font-family:'Roboto Medium',sans-serif">0.00</text><path  d="M 11 -9223372036854775257
L 6 -9223372036854775257" style="stroke-width:1;stroke:rgba(51,51,51,1.0);fill:none"/><text x="-25" y="-9223372036854775251" style="stroke-width:0;stroke:none;fill:rgba(51,51,51,1.0);font-size:12.8px;font-family:'Roboto Medium',sans-serif">0.00</text><path  d="M 11 -9223372036854775257
L 6 -9223372036854775257" style="stroke-width:1;stroke:rgba(51,51,51,1.0);fill:none"/><text x="-25" y="-9223372036854775251" style="stroke-width:0;stroke:none;fill:rgba(51,51,51,1.0);font-size:12.8px;font-family:'Roboto Medium',sans-serif">0.00</text><path  d="M 11 -9223372036854775257
L 6 -9223372036854775257" style="stroke-width:1;stroke:rgba(51,51,51,1.0);fill:none"/><text x="-25" y="-9223372036854775251" style="stroke-width:0;stroke:none;fill:rgba(51,51,51,1.0);font-size:12.8px;font-family:'Roboto Medium',sans-serif">0.00</text><path  d="M 11 -9223372036854775257
L 6 -9223372036854775257" style="stroke-width:1;stroke:rgba(51,51,51,1.0);fill:none"/><text x="-25" y="-9223372036854775251" style="stroke-width:0;stroke:none;fill:rgba(51,51,51,1.0);font-size:12.8px;font-family:'Roboto Medium',sans-serif">0.00</text><path  d="M 11 -9223372036854775257
L 6 -9223372036854775257" style="stroke-width:1;stroke:rgba(51,51,51,1.0);fill:none"/><text x="-25" y="-9223372036854775251" style="stroke-width:0;stroke:none;fill:rgba(51,51,51,1.0);font-size:12.8px;font-family:'Roboto Medium',sans-serif">0.00</text><path  d="M 11 -9223372036854775257
L 6 -9223372036854775257" style="stroke-width:1;stroke:rgba(51,51,51,1.0);fill:none"/><text x="-25" y="-9223372036854775251" style="stroke-width:0;stroke:none;fill:rgba(51,51,51,1.0);font-size:12.8px;font-family:'Roboto Medium',sans-serif">0.00</text><path  d="M 11 -9223372036854775257
L 6 -9223372036854775257" style="stroke-width:1;stroke:rgba(51,51,51,1.0);fill:none"/><text x="-25" y="-9223372036854775251" style="stroke-width:0;stroke:none;fill:rgba(51,51,51,1.0);font-size:12.8px;font-family:'Roboto Medium',sans-serif">0.00</text><path  d="M 11 -9223372036854775257
L 6 -9223372036854775257" style="stroke-width:1;stroke:rgba(51,51,51,1.0);fill:none"/><text x="-25" y="-9223372036854775251" style="stroke-width:0;stroke:none;fill:rgba(51,51,51,1.0);font-size:12.8px;font-family:'Roboto Medium',sans-serif">0.00</text><path  d="M 11 -9223372036854775257
L 6 -9223372036854775257" style="stroke-width:1;stroke:rgba(51,51,51,1.0);fill:none"/><text x="-25" y="-9223372036854775251" style="stroke-width:0;stroke:none;fill:rgba(51,51,51,1.0);font-size:12.8px;font-family:'Roboto Medium',sans-serif">0.00</text><path  d="M 11 -9223372036854775257
L 6 -9223372036854775257" style="stroke-width:1;stroke:rgba(51,51,51,1.0);fill:none"/><text x="-25" y="-9223372036854775251" style="stroke-width:0;stroke:none;fill:rgba(51,51,51,1.0);font-size:12.8px;font-family:'Roboto Medium',sans-serif">0.00</text><path  d="M 11 -9223372036854775257
L 6 -9223372036854775257" style="stroke-width:1;stroke:rgba(51,51,51,1.0);fill:none"/><text x="-25" y="-9223372036854775251" style="stroke-width:0;stroke:none;fill:rgba(51,51,51,1.0);font-size:12.8px;font-family:'Roboto Medium',sans-serif">0.00</text><path  d="M 12 -9223372036854775257
L 629 -9223372036854775257" style="stroke-width:0;stroke:none;fill:none"/><path  d="M 12 -9223372036854775257
L 629 -9223372036854775257" style="stroke-width:0;stroke:none;fill:none"/><path  d="M 12 -9223372036854775257
L 629 -9223372036854775257" style="stroke-width:0;stroke:none;fill:none"/><path  d="M 12 -9223372036854775257
L 629 -9223372036854775257" style="stroke-width:0;stroke:none;fill:none"/><path  d="M 12 -9223372036854775257
L 629 -9223372036854775257" style="stroke-width:0;stroke:none;fill:none"/><path  d="M 12 -9223372036854775257
L 629 -9223372036854775257" style="stroke-width:0;stroke:none;fill:none"/><path  d="M 12 -9223372036854775257
L 629 -9223372036854775257" style="stroke-width:0;stroke:none;fill:none"/><path  d="M 12 -9223372036854775257
L 629 -9223372036854775257" style="stroke-width:0;stroke:none;fill:none"/><path  d="M 12 -9223372036854775257
L 629 -9223372036854775257" style="stroke-width:0;stroke:none;fill:none"/><path  d="M 12 -9223372036854775257
L 629 -9223372036854775257" style="stroke-width:0;stroke:none;fill:none"/><path  d="M 12 -9223372036854775257
L 629 -9223372036854775257" style="stroke-width:0;stroke:none;fill:none"/><path  d="M 12 -9223372036854775257
L 629 -9223372036854775257" style="stroke-width:0;stroke:none;fill:none"/><path  d="M 12 -9223372036854775257
L 629 -9223372036854775257" style="stroke-width:0;stroke:none;fill:none"/><path  d="M 12 -9223372036854775257
L 629 -9223372036854775257" style="stroke-width:0;stroke:none;fill:none"/><path  d="M 218 23
L 218 375
L 629 375" style="stroke-width:1;stroke:rgba(255,0,127,0.2);fill:none"/><path  d="M 424 23
L 424 199
L 629 199" style="stroke-width:1;stroke:rgba(255,0,127,0.2);fill:none"/><path  d="M 547 375
L 557 364
L 591 364
L 591 386
L 557 386
L 547 375
Z" style="stroke-width:1;stroke:rgba(255,0,127,0.2);fill:rgba(255,255,255,1.0)"/><text x="562" y="381" style="stroke-width:0;stroke:none;fill:rgba(51,51,51,1.0);font-size:12.8px;font-family:'Roboto Medium',sans-serif">Half</text><path  d="M 547 199
L 557 188
L 610 188
L 610 210
L 557 210
L 547 199
Z" style="stroke-width:1;stroke:rgba(255,0,127,0.2);fill:rgba(255,255,255,1.0)"/><text x="562" y="205" style="stroke-width:0;stroke:none;fill:rgba(51,51,51,1.0);font-size:12.8px;font-family:'Roboto Medium',sans-serif">Quarter</text><circle cx="617" cy="24" r="5" style="stroke-width:1;stroke:rgba(3,251,0,1.0);fill:rgba(3,251,0,1.0)"/><path  d="" style="stroke-width:1;stroke:rgba(3,251,0,1.0);fill:rgba(3,251,0,1.0)"/><circle cx="224" cy="341" r="5" style="stroke-width:1;stroke:rgba(160,94,0,1.0);fill:rgba(160,94,0,1.0)"/><path  d="" style="stroke-width:1;stroke:rgba(160,94,0,1.0);fill:rgba(160,94,0,1.0)"/><circle cx="199" cy="328" r="5" style="stroke-width:1;stroke:rgba(161,91,0,1.0);fill:rgba(161,91,0,1.0)"/><path  d="" style="stroke-width:1;stroke:rgba(161,91,0,1.0);fill:rgba(161,91,0,1.0)"/><circle cx="617" cy="44" r="5" style="stroke-width:1;stroke:rgba(7,246,0,1.0);fill:rgba(7,246,0,1.0)"/><path  d="" style="stroke-width:1;stroke:rgba(7,246,0,1.0);fill:rgba(7,246,0,1.0)"/><circle cx="313" cy="101" r="5" style="stroke-width:1;stroke:rgba(78,158,0,1.0);fill:rgba(78,158,0,1.0)"/><path  d="" style="stroke-width:1;stroke:rgba(78,158,0,1.0);fill:rgba(78,158,0,1.0)"/><circle cx="617" cy="61" r="5" style="stroke-width:1;stroke:rgba(11,241,0,1.0);fill:rgba(11,241,0,1.0)"/><path  d="" style="stroke-width:1;stroke:rgba(11,241,0,1.0);fill:rgba(11,241,0,1.0)"/><circle cx="617" cy="147" r="5" style="stroke-width:1;stroke:rgba(31,212,0,1.0);fill:rgba(31,212,0,1.0)"/><path  d="" style="stroke-width:1;stroke:rgba(31,212,0,1.0);fill:rgba(31,212,0,1.0)"/><circle cx="199" cy="31" r="5" style="stroke-width:1;stroke:rgba(69,129,0,1.0);fill:rgba(69,129,0,1.0)"/><path  d="" style="stroke-width:1;stroke:rgba(69,129,0,1.0);fill:rgba(69,129,0,1.0)"/><circle cx="402" cy="35" r="5" style="stroke-width:1;stroke:rgba(45,188,0,1.0);fill:rgba(45,188,0,1.0)"/><path  d="" style="stroke-width:1;stroke:rgba(45,188,0,1.0);fill:rgba(45,188,0,1.0)"/><circle cx="617" cy="76" r="5" style="stroke-width:1;stroke:rgba(15,236,0,1.0);fill:rgba(15,236,0,1.0)"/><path  d="" style="stroke-width:1;stroke:rgba(15,236,0,1.0);fill:rgba(15,236,0,1.0)"/><path  d="M 617 17
L 627 6
L 705 6
L 705 28
L 627 28
L 617 17
Z" style="stroke-width:1;stroke:rgba(63,127,255,1.0);fill:rgba(255,255,255,1.0)"/><text x="632" y="23" style="stroke-width:0;stroke:none;fill:rgba(51,51,51,1.0);font-size:12.8px;font-family:'Roboto Medium',sans-serif">phuslu/slog</text><path  d="M 224 346
L 234 335
L 342 335
L 342 357
L 234 357
L 224 346
Z" style="stroke-width:1;stroke:rgba(63,127,255,1.0);fill:rgba(255,255,255,1.0)"/><text x="239" y="352" style="stroke-width:0;stroke:none;fill:rgba(51,51,51,1.0);font-size:12.8px;font-family:'Roboto Medium',sans-serif">samber/slog-zap</text><path  d="M 199 323
L 209 312
L 339 312
L 339 334
L 209 334
L 199 323
Z" style="stroke-width:1;stroke:rgba(63,127,255,1.0);fill:rgba(255,255,255,1.0)"/><text x="214" y="329" style="stroke-width:0;stroke:none;fill:rgba(51,51,51,1.0);font-size:12.8px;font-family:'Roboto Medium',sans-serif">samber/slog-zerolog</text><path  d="M 617 42
L 627 31
L 745 31
L 745 53
L 627 53
L 617 42
Z" style="stroke-width:1;stroke:rgba(63,127,255,1.0);fill:rgba(255,255,255,1.0)"/><text x="632" y="48" style="stroke-width:0;stroke:none;fill:rgba(51,51,51,1.0);font-size:12.8px;font-family:'Roboto Medium',sans-serif">slog/JSONHandler</text><path  d="M 313 101
L 323 90
L 454 90
L 454 112
L 323 112
L 313 101
Z" style="stroke-width:1;stroke:rgba(63,127,255,1.0);fill:rgba(255,255,255,1.0)"/><text x="328" y="107" style="stroke-width:0;stroke:none;fill:rgba(51,51,51,1.0);font-size:12.8px;font-family:'Roboto Medium',sans-serif">chanchal/zaphandler</text><path  d="M 617 64
L 627 53
L 720 53
L 720 75
L 627 75
L 617 64
Z" style="stroke-width:1;stroke:rgba(63,127,255,1.0);fill:rgba(255,255,255,1.0)"/><text x="632" y="70" style="stroke-width:0;stroke:none;fill:rgba(51,51,51,1.0);font-size:12.8px;font-family:'Roboto Medium',sans-serif">madkins/flash</text><path  d="M 617 147
L 627 136
L 729 136
L 729 158
L 627 158
L 617 147
Z" style="stroke-width:1;stroke:rgba(63,127,255,1.0);fill:rgba(255,255,255,1.0)"/><text x="632" y="153" style="stroke-width:0;stroke:none;fill:rgba(51,51,51,1.0);font-size:12.8px;font-family:'Roboto Medium',sans-serif">madkins/sloggy</text><path  d="M 199 31
L 209 20
L 312 20
L 312 42
L 209 42
L 199 31
Z" style="stroke-width:1;stroke:rgba(63,127,255,1.0);fill:rgba(255,255,255,1.0)"/><text x="214" y="37" style="stroke-width:0;stroke:none;fill:rgba(51,51,51,1.0);font-size:12.8px;font-family:'Roboto Medium',sans-serif">phsym/zeroslog</text><path  d="M 402 35
L 412 24
L 526 24
L 526 46
L 412 46
L 402 35
Z" style="stroke-width:1;stroke:rgba(63,127,255,1.0);fill:rgba(255,255,255,1.0)"/><text x="417" y="41" style="stroke-width:0;stroke:none;fill:rgba(51,51,51,1.0);font-size:12.8px;font-family:'Roboto Medium',sans-serif">svcrunner/jsonlog</text><path  d="M 617 89
L 627 78
L 733 78
L 733 100
L 627 100
L 617 89
Z" style="stroke-width:1;stroke:rgba(63,127,255,1.0);fill:rgba(255,255,255,1.0)"/><text x="632" y="95" style="stroke-width:0;stroke:none;fill:rgba(51,51,51,1.0);font-size:12.8px;font-family:'Roboto Medium',sans-serif">madkins/replattr</text></svg>