<svg xmlns="http://www.w3.org/2000/svg" xmlns:xlink="http://www.w3.org/1999/xlink" width="400" height="180">\n<path  d="M 0 0
L 400 0
L 400 180
L 0 180
L 0 0" style="stroke-width:0;stroke:none;fill:rgba(255,255,255,1.0)"/><text x="10" y="25" style="stroke-width:0;stroke:none;fill:rgba(70,70,70,1.0);font-size:15.3px;font-family:'Roboto Medium',sans-serif">Memory allocations per operation</text><path  d="M 170 45
L 175 45" style="stroke-width:1;stroke:rgba(110,112,121,1.0);fill:none"/><path  d="M 170 68
L 175 68" style="stroke-width:1;stroke:rgba(110,112,121,1.0);fill:none"/><path  d="M 170 92
L 175 92" style="stroke-width:1;stroke:rgba(110,112,121,1.0);fill:none"/><path  d="M 170 116
L 175 116" style="stroke-width:1;stroke:rgba(110,112,121,1.0);fill:none"/><path  d="M 170 140
L 175 140" style="stroke-width:1;stroke:rgba(110,112,121,1.0);fill:none"/><path  d="M 175 45
L 175 140" style="stroke-width:1;stroke:rgba(110,112,121,1.0);fill:none"/><text x="21" y="63" style="stroke-width:0;stroke:none;fill:rgba(70,70,70,1.0);font-size:15.3px;font-family:'Roboto Medium',sans-serif">samber/slog-zerolog</text><text x="48" y="87" style="stroke-width:0;stroke:none;fill:rgba(70,70,70,1.0);font-size:15.3px;font-family:'Roboto Medium',sans-serif">samber/slog-zap</text><text x="53" y="111" style="stroke-width:0;stroke:none;fill:rgba(70,70,70,1.0);font-size:15.3px;font-family:'Roboto Medium',sans-serif">phsym/zeroslog</text><text x="10" y="135" style="stroke-width:0;stroke:none;fill:rgba(70,70,70,1.0);font-size:15.3px;font-family:'Roboto Medium',sans-serif">log/slog.JSONHandler</text><text x="171" y="165" style="stroke-width:0;stroke:none;fill:rgba(70,70,70,1.0);font-size:15.3px;font-family:'Roboto Medium',sans-serif">0</text><text x="234" y="165" style="stroke-width:0;stroke:none;fill:rgba(70,70,70,1.0);font-size:15.3px;font-family:'Roboto Medium',sans-serif">40</text><text x="302" y="165" style="stroke-width:0;stroke:none;fill:rgba(70,70,70,1.0);font-size:15.3px;font-family:'Roboto Medium',sans-serif">80</text><text x="367" y="165" style="stroke-width:0;stroke:none;fill:rgba(70,70,70,1.0);font-size:15.3px;font-family:'Roboto Medium',sans-serif">120</text><path  d="M 209 45
L 209 140" style="stroke-width:1;stroke:rgba(224,230,242,1.0);fill:none"/><path  d="M 243 45
L 243 140" style="stroke-width:1;stroke:rgba(224,230,242,1.0);fill:none"/><path  d="M 277 45
L 277 140" style="stroke-width:1;stroke:rgba(224,230,242,1.0);fill:none"/><path  d="M 311 45
L 311 140" style="stroke-width:1;stroke:rgba(224,230,242,1.0);fill:none"/><path  d="M 345 45
L 345 140" style="stroke-width:1;stroke:rgba(224,230,242,1.0);fill:none"/><path  d="M 380 45
L 380 140" style="stroke-width:1;stroke:rgba(224,230,242,1.0);fill:none"/><path  d="M 175 121
L 186 121
L 186 134
L 175 134
L 175 121" style="stroke-width:0;stroke:none;fill:rgba(84,112,198,1.0)"/><path  d="M 175 97
L 180 97
L 180 110
L 175 110
L 175 97" style="stroke-width:0;stroke:none;fill:rgba(84,112,198,1.0)"/><path  d="M 175 73
L 296 73
L 296 86
L 175 86
L 175 73" style="stroke-width:0;stroke:none;fill:rgba(84,112,198,1.0)"/><path  d="M 175 50
L 323 50
L 323 63
L 175 63
L 175 50" style="stroke-width:0;stroke:none;fill:rgba(84,112,198,1.0)"/></svg>