<svg xmlns="http://www.w3.org/2000/svg" xmlns:xlink="http://www.w3.org/1999/xlink" width="400" height="200">\n<path  d="M 0 0
L 400 0
L 400 200
L 0 200
L 0 0" style="stroke-width:0;stroke:none;fill:rgba(255,255,255,1.0)"/><text x="10" y="25" style="stroke-width:0;stroke:none;fill:rgba(70,70,70,1.0);font-size:15.3px;font-family:'Roboto Medium',sans-serif">Nanoseconds per operation</text><path  d="M 170 45
L 175 45" style="stroke-width:1;stroke:rgba(110,112,121,1.0);fill:none"/><path  d="M 170 68
L 175 68" style="stroke-width:1;stroke:rgba(110,112,121,1.0);fill:none"/><path  d="M 170 91
L 175 91" style="stroke-width:1;stroke:rgba(110,112,121,1.0);fill:none"/><path  d="M 170 114
L 175 114" style="stroke-width:1;stroke:rgba(110,112,121,1.0);fill:none"/><path  d="M 170 137
L 175 137" style="stroke-width:1;stroke:rgba(110,112,121,1.0);fill:none"/><path  d="M 170 160
L 175 160" style="stroke-width:1;stroke:rgba(110,112,121,1.0);fill:none"/><path  d="M 175 45
L 175 160" style="stroke-width:1;stroke:rgba(110,112,121,1.0);fill:none"/><text x="21" y="63" style="stroke-width:0;stroke:none;fill:rgba(70,70,70,1.0);font-size:15.3px;font-family:'Roboto Medium',sans-serif">samber/slog-zerolog</text><text x="48" y="86" style="stroke-width:0;stroke:none;fill:rgba(70,70,70,1.0);font-size:15.3px;font-family:'Roboto Medium',sans-serif">samber/slog-zap</text><text x="29" y="109" style="stroke-width:0;stroke:none;fill:rgba(70,70,70,1.0);font-size:15.3px;font-family:'Roboto Medium',sans-serif">samber/slog-logrus</text><text x="53" y="132" style="stroke-width:0;stroke:none;fill:rgba(70,70,70,1.0);font-size:15.3px;font-family:'Roboto Medium',sans-serif">phsym/zeroslog</text><text x="10" y="155" style="stroke-width:0;stroke:none;fill:rgba(70,70,70,1.0);font-size:15.3px;font-family:'Roboto Medium',sans-serif">log/slog.JSONHandler</text><text x="171" y="185" style="stroke-width:0;stroke:none;fill:rgba(70,70,70,1.0);font-size:15.3px;font-family:'Roboto Medium',sans-serif">0</text><text x="228" y="185" style="stroke-width:0;stroke:none;fill:rgba(70,70,70,1.0);font-size:15.3px;font-family:'Roboto Medium',sans-serif">9.4k</text><text x="292" y="185" style="stroke-width:0;stroke:none;fill:rgba(70,70,70,1.0);font-size:15.3px;font-family:'Roboto Medium',sans-serif">18.8k</text><text x="361" y="185" style="stroke-width:0;stroke:none;fill:rgba(70,70,70,1.0);font-size:15.3px;font-family:'Roboto Medium',sans-serif">28.2k</text><path  d="M 209 45
L 209 160" style="stroke-width:1;stroke:rgba(224,230,242,1.0);fill:none"/><path  d="M 243 45
L 243 160" style="stroke-width:1;stroke:rgba(224,230,242,1.0);fill:none"/><path  d="M 277 45
L 277 160" style="stroke-width:1;stroke:rgba(224,230,242,1.0);fill:none"/><path  d="M 311 45
L 311 160" style="stroke-width:1;stroke:rgba(224,230,242,1.0);fill:none"/><path  d="M 345 45
L 345 160" style="stroke-width:1;stroke:rgba(224,230,242,1.0);fill:none"/><path  d="M 380 45
L 380 160" style="stroke-width:1;stroke:rgba(224,230,242,1.0);fill:none"/><path  d="M 175 142
L 187 142
L 187 155
L 175 155
L 175 142" style="stroke-width:0;stroke:none;fill:rgba(84,112,198,1.0)"/><path  d="M 175 119
L 183 119
L 183 132
L 175 132
L 175 119" style="stroke-width:0;stroke:none;fill:rgba(84,112,198,1.0)"/><path  d="M 175 96
L 368 96
L 368 109
L 175 109
L 175 96" style="stroke-width:0;stroke:none;fill:rgba(84,112,198,1.0)"/><path  d="M 175 73
L 234 73
L 234 86
L 175 86
L 175 73" style="stroke-width:0;stroke:none;fill:rgba(84,112,198,1.0)"/><path  d="M 175 50
L 229 50
L 229 63
L 175 63
L 175 50" style="stroke-width:0;stroke:none;fill:rgba(84,112,198,1.0)"/></svg>