<svg xmlns="http://www.w3.org/2000/svg" xmlns:xlink="http://www.w3.org/1999/xlink" width="400" height="220">\n<path  d="M 0 0
L 400 0
L 400 220
L 0 220
L 0 0" style="stroke-width:0;stroke:none;fill:rgba(255,255,255,1.0)"/><text x="10" y="25" style="stroke-width:0;stroke:none;fill:rgba(70,70,70,1.0);font-size:15.3px;font-family:'Roboto Medium',sans-serif">Memory allocations per operation</text><path  d="M 160 45
L 165 45" style="stroke-width:1;stroke:rgba(110,112,121,1.0);fill:none"/><path  d="M 160 67
L 165 67" style="stroke-width:1;stroke:rgba(110,112,121,1.0);fill:none"/><path  d="M 160 90
L 165 90" style="stroke-width:1;stroke:rgba(110,112,121,1.0);fill:none"/><path  d="M 160 112
L 165 112" style="stroke-width:1;stroke:rgba(110,112,121,1.0);fill:none"/><path  d="M 160 135
L 165 135" style="stroke-width:1;stroke:rgba(110,112,121,1.0);fill:none"/><path  d="M 160 157
L 165 157" style="stroke-width:1;stroke:rgba(110,112,121,1.0);fill:none"/><path  d="M 160 180
L 165 180" style="stroke-width:1;stroke:rgba(110,112,121,1.0);fill:none"/><path  d="M 165 45
L 165 180" style="stroke-width:1;stroke:rgba(110,112,121,1.0);fill:none"/><text x="10" y="63" style="stroke-width:0;stroke:none;fill:rgba(70,70,70,1.0);font-size:15.3px;font-family:'Roboto Medium',sans-serif">chanchal/zaphandler</text><text x="43" y="85" style="stroke-width:0;stroke:none;fill:rgba(70,70,70,1.0);font-size:15.3px;font-family:'Roboto Medium',sans-serif">phsym/zeroslog</text><text x="19" y="108" style="stroke-width:0;stroke:none;fill:rgba(70,70,70,1.0);font-size:15.3px;font-family:'Roboto Medium',sans-serif">samber/slog-logrus</text><text x="38" y="130" style="stroke-width:0;stroke:none;fill:rgba(70,70,70,1.0);font-size:15.3px;font-family:'Roboto Medium',sans-serif">samber/slog-zap</text><text x="11" y="153" style="stroke-width:0;stroke:none;fill:rgba(70,70,70,1.0);font-size:15.3px;font-family:'Roboto Medium',sans-serif">samber/slog-zerolog</text><text x="26" y="175" style="stroke-width:0;stroke:none;fill:rgba(70,70,70,1.0);font-size:15.3px;font-family:'Roboto Medium',sans-serif">slog/JSONHandler</text><text x="150" y="205" style="stroke-width:0;stroke:none;fill:rgba(70,70,70,1.0);font-size:15.3px;font-family:'Roboto Medium',sans-serif">2.8k</text><text x="221" y="205" style="stroke-width:0;stroke:none;fill:rgba(70,70,70,1.0);font-size:15.3px;font-family:'Roboto Medium',sans-serif">5.6k</text><text x="293" y="205" style="stroke-width:0;stroke:none;fill:rgba(70,70,70,1.0);font-size:15.3px;font-family:'Roboto Medium',sans-serif">8.4k</text><text x="361" y="205" style="stroke-width:0;stroke:none;fill:rgba(70,70,70,1.0);font-size:15.3px;font-family:'Roboto Medium',sans-serif">11.2k</text><path  d="M 200 45
L 200 180" style="stroke-width:1;stroke:rgba(224,230,242,1.0);fill:none"/><path  d="M 236 45
L 236 180" style="stroke-width:1;stroke:rgba(224,230,242,1.0);fill:none"/><path  d="M 272 45
L 272 180" style="stroke-width:1;stroke:rgba(224,230,242,1.0);fill:none"/><path  d="M 308 45
L 308 180" style="stroke-width:1;stroke:rgba(224,230,242,1.0);fill:none"/><path  d="M 344 45
L 344 180" style="stroke-width:1;stroke:rgba(224,230,242,1.0);fill:none"/><path  d="M 380 45
L 380 180" style="stroke-width:1;stroke:rgba(224,230,242,1.0);fill:none"/><path  d="M 165 162
L 193 162
L 193 174
L 165 174
L 165 162" style="stroke-width:0;stroke:none;fill:rgba(84,112,198,1.0)"/><path  d="M 165 140
L 365 140
L 365 152
L 165 152
L 165 140" style="stroke-width:0;stroke:none;fill:rgba(84,112,198,1.0)"/><path  d="M 165 117
L 366 117
L 366 129
L 165 129
L 165 117" style="stroke-width:0;stroke:none;fill:rgba(84,112,198,1.0)"/><path  d="M 165 95
L 368 95
L 368 107
L 165 107
L 165 95" style="stroke-width:0;stroke:none;fill:rgba(84,112,198,1.0)"/><path  d="M 165 72
L 191 72
L 191 84
L 165 84
L 165 72" style="stroke-width:0;stroke:none;fill:rgba(84,112,198,1.0)"/><path  d="M 165 50
L 202 50
L 202 62
L 165 62
L 165 50" style="stroke-width:0;stroke:none;fill:rgba(84,112,198,1.0)"/></svg>