<svg xmlns="http://www.w3.org/2000/svg" xmlns:xlink="http://www.w3.org/1999/xlink" width="750" height="600">\n<path  d="M 0 0
L 750 0
L 750 600
L 0 600
L 0 0" style="stroke-width:0;stroke:rgba(255,255,255,1.0);fill:rgba(255,255,255,1.0)"/><path  d="M 9 40
L 626 40
L 626 551
L 9 551
L 9 40" style="stroke-width:0;stroke:rgba(255,255,255,1.0);fill:rgba(255,255,255,1.0)"/><path  d="M 9 551
L 626 551" style="stroke-width:1;stroke:rgba(51,51,51,1.0);fill:none"/><path  d="M 9 551
L 9 556" style="stroke-width:1;stroke:rgba(51,51,51,1.0);fill:none"/><text x="5" y="573" style="stroke-width:0;stroke:none;fill:rgba(51,51,51,1.0);font-size:12.8px;font-family:'Roboto Medium',sans-serif">0</text><path  d="M 71 551
L 71 556" style="stroke-width:1;stroke:rgba(51,51,51,1.0);fill:none"/><text x="64" y="573" style="stroke-width:0;stroke:none;fill:rgba(51,51,51,1.0);font-size:12.8px;font-family:'Roboto Medium',sans-serif">10</text><path  d="M 133 551
L 133 556" style="stroke-width:1;stroke:rgba(51,51,51,1.0);fill:none"/><text x="126" y="573" style="stroke-width:0;stroke:none;fill:rgba(51,51,51,1.0);font-size:12.8px;font-family:'Roboto Medium',sans-serif">20</text><path  d="M 195 551
L 195 556" style="stroke-width:1;stroke:rgba(51,51,51,1.0);fill:none"/><text x="188" y="573" style="stroke-width:0;stroke:none;fill:rgba(51,51,51,1.0);font-size:12.8px;font-family:'Roboto Medium',sans-serif">30</text><path  d="M 256 551
L 256 556" style="stroke-width:1;stroke:rgba(51,51,51,1.0);fill:none"/><text x="249" y="573" style="stroke-width:0;stroke:none;fill:rgba(51,51,51,1.0);font-size:12.8px;font-family:'Roboto Medium',sans-serif">40</text><path  d="M 318 551
L 318 556" style="stroke-width:1;stroke:rgba(51,51,51,1.0);fill:none"/><text x="311" y="573" style="stroke-width:0;stroke:none;fill:rgba(51,51,51,1.0);font-size:12.8px;font-family:'Roboto Medium',sans-serif">50</text><path  d="M 380 551
L 380 556" style="stroke-width:1;stroke:rgba(51,51,51,1.0);fill:none"/><text x="373" y="573" style="stroke-width:0;stroke:none;fill:rgba(51,51,51,1.0);font-size:12.8px;font-family:'Roboto Medium',sans-serif">60</text><path  d="M 441 551
L 441 556" style="stroke-width:1;stroke:rgba(51,51,51,1.0);fill:none"/><text x="434" y="573" style="stroke-width:0;stroke:none;fill:rgba(51,51,51,1.0);font-size:12.8px;font-family:'Roboto Medium',sans-serif">70</text><path  d="M 503 551
L 503 556" style="stroke-width:1;stroke:rgba(51,51,51,1.0);fill:none"/><text x="496" y="573" style="stroke-width:0;stroke:none;fill:rgba(51,51,51,1.0);font-size:12.8px;font-family:'Roboto Medium',sans-serif">80</text><path  d="M 565 551
L 565 556" style="stroke-width:1;stroke:rgba(51,51,51,1.0);fill:none"/><text x="558" y="573" style="stroke-width:0;stroke:none;fill:rgba(51,51,51,1.0);font-size:12.8px;font-family:'Roboto Medium',sans-serif">90</text><path  d="M 626 551
L 626 556" style="stroke-width:1;stroke:rgba(51,51,51,1.0);fill:none"/><text x="615" y="573" style="stroke-width:0;stroke:none;fill:rgba(51,51,51,1.0);font-size:12.8px;font-family:'Roboto Medium',sans-serif">100</text><text x="276" y="595" style="stroke-width:0;stroke:none;fill:rgba(51,51,51,1.0);font-size:12.8px;font-family:'Roboto Medium',sans-serif">Warning Score</text><path  d="M 71 551
L 71 40" style="stroke-width:0;stroke:none;fill:none"/><path  d="M 133 551
L 133 40" style="stroke-width:0;stroke:none;fill:none"/><path  d="M 195 551
L 195 40" style="stroke-width:0;stroke:none;fill:none"/><path  d="M 256 551
L 256 40" style="stroke-width:0;stroke:none;fill:none"/><path  d="M 318 551
L 318 40" style="stroke-width:0;stroke:none;fill:none"/><path  d="M 380 551
L 380 40" style="stroke-width:0;stroke:none;fill:none"/><path  d="M 441 551
L 441 40" style="stroke-width:0;stroke:none;fill:none"/><path  d="M 503 551
L 503 40" style="stroke-width:0;stroke:none;fill:none"/><path  d="M 565 551
L 565 40" style="stroke-width:0;stroke:none;fill:none"/><path  d="M 627 551
L 627 40" style="stroke-width:1;stroke:rgba(51,51,51,1.0);fill:none"/><path  d="M 627 551
L 632 551" style="stroke-width:1;stroke:rgba(51,51,51,1.0);fill:none"/><text x="637" y="557" style="stroke-width:0;stroke:none;fill:rgba(51,51,51,1.0);font-size:12.8px;font-family:'Roboto Medium',sans-serif">0</text><path  d="M 627 499
L 632 499" style="stroke-width:1;stroke:rgba(51,51,51,1.0);fill:none"/><text x="637" y="505" style="stroke-width:0;stroke:none;fill:rgba(51,51,51,1.0);font-size:12.8px;font-family:'Roboto Medium',sans-serif">10</text><path  d="M 627 448
L 632 448" style="stroke-width:1;stroke:rgba(51,51,51,1.0);fill:none"/><text x="637" y="454" style="stroke-width:0;stroke:none;fill:rgba(51,51,51,1.0);font-size:12.8px;font-family:'Roboto Medium',sans-serif">20</text><path  d="M 627 397
L 632 397" style="stroke-width:1;stroke:rgba(51,51,51,1.0);fill:none"/><text x="637" y="403" style="stroke-width:0;stroke:none;fill:rgba(51,51,51,1.0);font-size:12.8px;font-family:'Roboto Medium',sans-serif">30</text><path  d="M 627 346
L 632 346" style="stroke-width:1;stroke:rgba(51,51,51,1.0);fill:none"/><text x="637" y="352" style="stroke-width:0;stroke:none;fill:rgba(51,51,51,1.0);font-size:12.8px;font-family:'Roboto Medium',sans-serif">40</text><path  d="M 627 295
L 632 295" style="stroke-width:1;stroke:rgba(51,51,51,1.0);fill:none"/><text x="637" y="301" style="stroke-width:0;stroke:none;fill:rgba(51,51,51,1.0);font-size:12.8px;font-family:'Roboto Medium',sans-serif">50</text><path  d="M 627 244
L 632 244" style="stroke-width:1;stroke:rgba(51,51,51,1.0);fill:none"/><text x="637" y="250" style="stroke-width:0;stroke:none;fill:rgba(51,51,51,1.0);font-size:12.8px;font-family:'Roboto Medium',sans-serif">60</text><path  d="M 627 193
L 632 193" style="stroke-width:1;stroke:rgba(51,51,51,1.0);fill:none"/><text x="637" y="199" style="stroke-width:0;stroke:none;fill:rgba(51,51,51,1.0);font-size:12.8px;font-family:'Roboto Medium',sans-serif">70</text><path  d="M 627 142
L 632 142" style="stroke-width:1;stroke:rgba(51,51,51,1.0);fill:none"/><text x="637" y="148" style="stroke-width:0;stroke:none;fill:rgba(51,51,51,1.0);font-size:12.8px;font-family:'Roboto Medium',sans-serif">80</text><path  d="M 627 91
L 632 91" style="stroke-width:1;stroke:rgba(51,51,51,1.0);fill:none"/><text x="637" y="97" style="stroke-width:0;stroke:none;fill:rgba(51,51,51,1.0);font-size:12.8px;font-family:'Roboto Medium',sans-serif">90</text><path  d="M 627 40
L 632 40" style="stroke-width:1;stroke:rgba(51,51,51,1.0);fill:none"/><text x="637" y="46" style="stroke-width:0;stroke:none;fill:rgba(51,51,51,1.0);font-size:12.8px;font-family:'Roboto Medium',sans-serif">100</text><text x="669" y="244" style="stroke-width:0;stroke:none;fill:rgba(51,51,51,1.0);font-size:12.8px;font-family:'Roboto Medium',sans-serif" transform="rotate(90.00,669,244)">Benchmark Score</text><path  d="M 9 551
L 626 551" style="stroke-width:0;stroke:none;fill:none"/><path  d="M 9 499
L 626 499" style="stroke-width:0;stroke:none;fill:none"/><path  d="M 9 448
L 626 448" style="stroke-width:0;stroke:none;fill:none"/><path  d="M 9 397
L 626 397" style="stroke-width:0;stroke:none;fill:none"/><path  d="M 9 346
L 626 346" style="stroke-width:0;stroke:none;fill:none"/><path  d="M 9 295
L 626 295" style="stroke-width:0;stroke:none;fill:none"/><path  d="M 9 244
L 626 244" style="stroke-width:0;stroke:none;fill:none"/><path  d="M 9 193
L 626 193" style="stroke-width:0;stroke:none;fill:none"/><path  d="M 9 142
L 626 142" style="stroke-width:0;stroke:none;fill:none"/><path  d="M 9 91
L 626 91" style="stroke-width:0;stroke:none;fill:none"/><path  d="M 8 551
L 8 40" style="stroke-width:1;stroke:rgba(51,51,51,1.0);fill:none"/><path  d="M 8 -9223372036854775257
L 3 -9223372036854775257" style="stroke-width:1;stroke:rgba(51,51,51,1.0);fill:none"/><text x="-28" y="-9223372036854775251" style="stroke-width:0;stroke:none;fill:rgba(51,51,51,1.0);font-size:12.8px;font-family:'Roboto Medium',sans-serif">0.00</text><path  d="M 8 -9223372036854775257
L 3 -9223372036854775257" style="stroke-width:1;stroke:rgba(51,51,51,1.0);fill:none"/><text x="-28" y="-9223372036854775251" style="stroke-width:0;stroke:none;fill:rgba(51,51,51,1.0);font-size:12.8px;font-family:'Roboto Medium',sans-serif">0.00</text><path  d="M 8 -9223372036854775257
L 3 -9223372036854775257" style="stroke-width:1;stroke:rgba(51,51,51,1.0);fill:none"/><text x="-28" y="-9223372036854775251" style="stroke-width:0;stroke:none;fill:rgba(51,51,51,1.0);font-size:12.8px;font-family:'Roboto Medium',sans-serif">0.00</text><path  d="M 8 -9223372036854775257
L 3 -9223372036854775257" style="stroke-width:1;stroke:rgba(51,51,51,1.0);fill:none"/><text x="-28" y="-9223372036854775251" style="stroke-width:0;stroke:none;fill:rgba(51,51,51,1.0);font-size:12.8px;font-family:'Roboto Medium',sans-serif">0.00</text><path  d="M 8 -9223372036854775257
L 3 -9223372036854775257" style="stroke-width:1;stroke:rgba(51,51,51,1.0);fill:none"/><text x="-28" y="-9223372036854775251" style="stroke-width:0;stroke:none;fill:rgba(51,51,51,1.0);font-size:12.8px;font-family:'Roboto Medium',sans-serif">0.00</text><path  d="M 8 -9223372036854775257
L 3 -9223372036854775257" style="stroke-width:1;stroke:rgba(51,51,51,1.0);fill:none"/><text x="-28" y="-9223372036854775251" style="stroke-width:0;stroke:none;fill:rgba(51,51,51,1.0);font-size:12.8px;font-family:'Roboto Medium',sans-serif">0.00</text><path  d="M 8 -9223372036854775257
L 3 -9223372036854775257" style="stroke-width:1;stroke:rgba(51,51,51,1.0);fill:none"/><text x="-28" y="-9223372036854775251" style="stroke-width:0;stroke:none;fill:rgba(51,51,51,1.0);font-size:12.8px;font-family:'Roboto Medium',sans-serif">0.00</text><path  d="M 8 -9223372036854775257
L 3 -9223372036854775257" style="stroke-width:1;stroke:rgba(51,51,51,1.0);fill:none"/><text x="-28" y="-9223372036854775251" style="stroke-width:0;stroke:none;fill:rgba(51,51,51,1.0);font-size:12.8px;font-family:'Roboto Medium',sans-serif">0.00</text><path  d="M 8 -9223372036854775257
L 3 -9223372036854775257" style="stroke-width:1;stroke:rgba(51,51,51,1.0);fill:none"/><text x="-28" y="-9223372036854775251" style="stroke-width:0;stroke:none;fill:rgba(51,51,51,1.0);font-size:12.8px;font-family:'Roboto Medium',sans-serif">0.00</text><path  d="M 8 -9223372036854775257
L 3 -9223372036854775257" style="stroke-width:1;stroke:rgba(51,51,51,1.0);fill:none"/><text x="-28" y="-9223372036854775251" style="stroke-width:0;stroke:none;fill:rgba(51,51,51,1.0);font-size:12.8px;font-family:'Roboto Medium',sans-serif">0.00</text><path  d="M 8 -9223372036854775257
L 3 -9223372036854775257" style="stroke-width:1;stroke:rgba(51,51,51,1.0);fill:none"/><text x="-28" y="-9223372036854775251" style="stroke-width:0;stroke:none;fill:rgba(51,51,51,1.0);font-size:12.8px;font-family:'Roboto Medium',sans-serif">0.00</text><path  d="M 8 -9223372036854775257
L 3 -9223372036854775257" style="stroke-width:1;stroke:rgba(51,51,51,1.0);fill:none"/><text x="-28" y="-9223372036854775251" style="stroke-width:0;stroke:none;fill:rgba(51,51,51,1.0);font-size:12.8px;font-family:'Roboto Medium',sans-serif">0.00</text><path  d="M 8 -9223372036854775257
L 3 -9223372036854775257" style="stroke-width:1;stroke:rgba(51,51,51,1.0);fill:none"/><text x="-28" y="-9223372036854775251" style="stroke-width:0;stroke:none;fill:rgba(51,51,51,1.0);font-size:12.8px;font-family:'Roboto Medium',sans-serif">0.00</text><path  d="M 8 -9223372036854775257
L 3 -9223372036854775257" style="stroke-width:1;stroke:rgba(51,51,51,1.0);fill:none"/><text x="-28" y="-9223372036854775251" style="stroke-width:0;stroke:none;fill:rgba(51,51,51,1.0);font-size:12.8px;font-family:'Roboto Medium',sans-serif">0.00</text><path  d="M 9 -9223372036854775257
L 626 -9223372036854775257" style="stroke-width:0;stroke:none;fill:none"/><path  d="M 9 -9223372036854775257
L 626 -9223372036854775257" style="stroke-width:0;stroke:none;fill:none"/><path  d="M 9 -9223372036854775257
L 626 -9223372036854775257" style="stroke-width:0;stroke:none;fill:none"/><path  d="M 9 -9223372036854775257
L 626 -9223372036854775257" style="stroke-width:0;stroke:none;fill:none"/><path  d="M 9 -9223372036854775257
L 626 -9223372036854775257" style="stroke-width:0;stroke:none;fill:none"/><path  d="M 9 -9223372036854775257
L 626 -9223372036854775257" style="stroke-width:0;stroke:none;fill:none"/><path  d="M 9 -9223372036854775257
L 626 -9223372036854775257" style="stroke-width:0;stroke:none;fill:none"/><path  d="M 9 -9223372036854775257
L 626 -9223372036854775257" style="stroke-width:0;stroke:none;fill:none"/><path  d="M 9 -9223372036854775257
L 626 -9223372036854775257" style="stroke-width:0;stroke:none;fill:none"/><path  d="M 9 -9223372036854775257
L 626 -9223372036854775257" style="stroke-width:0;stroke:none;fill:none"/><path  d="M 9 -9223372036854775257
L 626 -9223372036854775257" style="stroke-width:0;stroke:none;fill:none"/><path  d="M 9 -9223372036854775257
L 626 -9223372036854775257" style="stroke-width:0;stroke:none;fill:none"/><path  d="M 9 -9223372036854775257
L 626 -9223372036854775257" style="stroke-width:0;stroke:none;fill:none"/><path  d="M 164 40
L 164 423
L 626 423" style="stroke-width:1;stroke:rgba(255,0,127,0.2);fill:none"/><path  d="M 318 40
L 318 295
L 626 295" style="stroke-width:1;stroke:rgba(255,0,127,0.2);fill:none"/><path  d="M 472 40
L 472 167
L 626 167" style="stroke-width:1;stroke:rgba(255,0,127,0.2);fill:none"/><path  d="M 534 423
L 544 412
L 574 412
L 574 434
L 544 434
L 534 423
Z" style="stroke-width:1;stroke:rgba(255,0,127,0.2);fill:rgba(255,255,255,1.0)"/><text x="549" y="429" style="stroke-width:0;stroke:none;fill:rgba(51,51,51,1.0);font-size:12.8px;font-family:'Roboto Medium',sans-serif">3/4</text><path  d="M 534 295
L 544 284
L 578 284
L 578 306
L 544 306
L 534 295
Z" style="stroke-width:1;stroke:rgba(255,0,127,0.2);fill:rgba(255,255,255,1.0)"/><text x="549" y="301" style="stroke-width:0;stroke:none;fill:rgba(51,51,51,1.0);font-size:12.8px;font-family:'Roboto Medium',sans-serif">Half</text><path  d="M 534 167
L 544 156
L 597 156
L 597 178
L 544 178
L 534 167
Z" style="stroke-width:1;stroke:rgba(255,0,127,0.2);fill:rgba(255,255,255,1.0)"/><text x="549" y="173" style="stroke-width:0;stroke:none;fill:rgba(51,51,51,1.0);font-size:12.8px;font-family:'Roboto Medium',sans-serif">Quarter</text><circle cx="391" cy="97" r="5" style="stroke-width:1;stroke:rgba(59,183,0,1.0);fill:rgba(59,183,0,1.0)"/><path  d="" style="stroke-width:1;stroke:rgba(59,183,0,1.0);fill:rgba(59,183,0,1.0)"/><circle cx="617" cy="64" r="5" style="stroke-width:1;stroke:rgba(7,246,0,1.0);fill:rgba(7,246,0,1.0)"/><path  d="" style="stroke-width:1;stroke:rgba(7,246,0,1.0);fill:rgba(7,246,0,1.0)"/><circle cx="617" cy="81" r="5" style="stroke-width:1;stroke:rgba(12,240,0,1.0);fill:rgba(12,240,0,1.0)"/><path  d="" style="stroke-width:1;stroke:rgba(12,240,0,1.0);fill:rgba(12,240,0,1.0)"/><circle cx="306" cy="46" r="5" style="stroke-width:1;stroke:rgba(56,161,0,1.0);fill:rgba(56,161,0,1.0)"/><path  d="" style="stroke-width:1;stroke:rgba(56,161,0,1.0);fill:rgba(56,161,0,1.0)"/><circle cx="377" cy="286" r="5" style="stroke-width:1;stroke:rgba(112,141,0,1.0);fill:rgba(112,141,0,1.0)"/><path  d="" style="stroke-width:1;stroke:rgba(112,141,0,1.0);fill:rgba(112,141,0,1.0)"/><circle cx="617" cy="123" r="5" style="stroke-width:1;stroke:rgba(21,225,0,1.0);fill:rgba(21,225,0,1.0)"/><path  d="" style="stroke-width:1;stroke:rgba(21,225,0,1.0);fill:rgba(21,225,0,1.0)"/><circle cx="617" cy="40" r="5" style="stroke-width:1;stroke:rgba(1,252,0,1.0);fill:rgba(1,252,0,1.0)"/><path  d="" style="stroke-width:1;stroke:rgba(1,252,0,1.0);fill:rgba(1,252,0,1.0)"/><circle cx="452" cy="508" r="5" style="stroke-width:1;stroke:rgba(124,81,0,1.0);fill:rgba(124,81,0,1.0)"/><path  d="" style="stroke-width:1;stroke:rgba(124,81,0,1.0);fill:rgba(124,81,0,1.0)"/><circle cx="396" cy="280" r="5" style="stroke-width:1;stroke:rgba(107,146,0,1.0);fill:rgba(107,146,0,1.0)"/><path  d="" style="stroke-width:1;stroke:rgba(107,146,0,1.0);fill:rgba(107,146,0,1.0)"/><circle cx="617" cy="58" r="5" style="stroke-width:1;stroke:rgba(6,247,0,1.0);fill:rgba(6,247,0,1.0)"/><path  d="" style="stroke-width:1;stroke:rgba(6,247,0,1.0);fill:rgba(6,247,0,1.0)"/><circle cx="457" cy="48" r="5" style="stroke-width:1;stroke:rgba(34,205,0,1.0);fill:rgba(34,205,0,1.0)"/><path  d="" style="stroke-width:1;stroke:rgba(34,205,0,1.0);fill:rgba(34,205,0,1.0)"/><path  d="M 391 97
L 401 86
L 532 86
L 532 108
L 401 108
L 391 97
Z" style="stroke-width:1;stroke:rgba(63,127,255,1.0);fill:rgba(255,255,255,1.0)"/><text x="406" y="103" style="stroke-width:0;stroke:none;fill:rgba(51,51,51,1.0);font-size:12.8px;font-family:'Roboto Medium',sans-serif">chanchal/zaphandler</text><path  d="M 617 72
L 627 61
L 720 61
L 720 83
L 627 83
L 617 72
Z" style="stroke-width:1;stroke:rgba(63,127,255,1.0);fill:rgba(255,255,255,1.0)"/><text x="632" y="78" style="stroke-width:0;stroke:none;fill:rgba(51,51,51,1.0);font-size:12.8px;font-family:'Roboto Medium',sans-serif">madkins/flash</text><path  d="M 617 104
L 627 93
L 733 93
L 733 115
L 627 115
L 617 104
Z" style="stroke-width:1;stroke:rgba(63,127,255,1.0);fill:rgba(255,255,255,1.0)"/><text x="632" y="110" style="stroke-width:0;stroke:none;fill:rgba(51,51,51,1.0);font-size:12.8px;font-family:'Roboto Medium',sans-serif">madkins/replattr</text><path  d="M 306 46
L 316 35
L 419 35
L 419 57
L 316 57
L 306 46
Z" style="stroke-width:1;stroke:rgba(63,127,255,1.0);fill:rgba(255,255,255,1.0)"/><text x="321" y="52" style="stroke-width:0;stroke:none;fill:rgba(51,51,51,1.0);font-size:12.8px;font-family:'Roboto Medium',sans-serif">phsym/zeroslog</text><path  d="M 377 295
L 387 284
L 495 284
L 495 306
L 387 306
L 377 295
Z" style="stroke-width:1;stroke:rgba(63,127,255,1.0);fill:rgba(255,255,255,1.0)"/><text x="392" y="301" style="stroke-width:0;stroke:none;fill:rgba(51,51,51,1.0);font-size:12.8px;font-family:'Roboto Medium',sans-serif">samber/slog-zap</text><path  d="M 617 123
L 627 112
L 729 112
L 729 134
L 627 134
L 617 123
Z" style="stroke-width:1;stroke:rgba(63,127,255,1.0);fill:rgba(255,255,255,1.0)"/><text x="632" y="129" style="stroke-width:0;stroke:none;fill:rgba(51,51,51,1.0);font-size:12.8px;font-family:'Roboto Medium',sans-serif">madkins/sloggy</text><path  d="M 617 18
L 627 7
L 705 7
L 705 29
L 627 29
L 617 18
Z" style="stroke-width:1;stroke:rgba(63,127,255,1.0);fill:rgba(255,255,255,1.0)"/><text x="632" y="24" style="stroke-width:0;stroke:none;fill:rgba(51,51,51,1.0);font-size:12.8px;font-family:'Roboto Medium',sans-serif">phuslu/slog</text><path  d="M 452 508
L 462 497
L 585 497
L 585 519
L 462 519
L 452 508
Z" style="stroke-width:1;stroke:rgba(63,127,255,1.0);fill:rgba(255,255,255,1.0)"/><text x="467" y="514" style="stroke-width:0;stroke:none;fill:rgba(51,51,51,1.0);font-size:12.8px;font-family:'Roboto Medium',sans-serif">samber/slog-logrus</text><path  d="M 396 272
L 406 261
L 536 261
L 536 283
L 406 283
L 396 272
Z" style="stroke-width:1;stroke:rgba(63,127,255,1.0);fill:rgba(255,255,255,1.0)"/><text x="411" y="278" style="stroke-width:0;stroke:none;fill:rgba(51,51,51,1.0);font-size:12.8px;font-family:'Roboto Medium',sans-serif">samber/slog-zerolog</text><path  d="M 617 49
L 627 38
L 745 38
L 745 60
L 627 60
L 617 49
Z" style="stroke-width:1;stroke:rgba(63,127,255,1.0);fill:rgba(255,255,255,1.0)"/><text x="632" y="55" style="stroke-width:0;stroke:none;fill:rgba(51,51,51,1.0);font-size:12.8px;font-family:'Roboto Medium',sans-serif">slog/JSONHandler</text><path  d="M 457 48
L 467 37
L 581 37
L 581 59
L 467 59
L 457 48
Z" style="stroke-width:1;stroke:rgba(63,127,255,1.0);fill:rgba(255,255,255,1.0)"/><text x="472" y="54" style="stroke-width:0;stroke:none;fill:rgba(51,51,51,1.0);font-size:12.8px;font-family:'Roboto Medium',sans-serif">svcrunner/jsonlog</text></svg>