<svg xmlns="http://www.w3.org/2000/svg" xmlns:xlink="http://www.w3.org/1999/xlink" width="750" height="600">\n<path  d="M 0 0
L 750 0
L 750 600
L 0 600
L 0 0" style="stroke-width:0;stroke:rgba(255,255,255,1.0);fill:rgba(255,255,255,1.0)"/><path  d="M 9 35
L 626 35
L 626 551
L 9 551
L 9 35" style="stroke-width:0;stroke:rgba(255,255,255,1.0);fill:rgba(255,255,255,1.0)"/><path  d="M 9 551
L 626 551" style="stroke-width:1;stroke:rgba(51,51,51,1.0);fill:none"/><path  d="M 9 551
L 9 556" style="stroke-width:1;stroke:rgba(51,51,51,1.0);fill:none"/><text x="5" y="573" style="stroke-width:0;stroke:none;fill:rgba(51,51,51,1.0);font-size:12.8px;font-family:'Roboto Medium',sans-serif">0</text><path  d="M 71 551
L 71 556" style="stroke-width:1;stroke:rgba(51,51,51,1.0);fill:none"/><text x="64" y="573" style="stroke-width:0;stroke:none;fill:rgba(51,51,51,1.0);font-size:12.8px;font-family:'Roboto Medium',sans-serif">10</text><path  d="M 133 551
L 133 556" style="stroke-width:1;stroke:rgba(51,51,51,1.0);fill:none"/><text x="126" y="573" style="stroke-width:0;stroke:none;fill:rgba(51,51,51,1.0);font-size:12.8px;font-family:'Roboto Medium',sans-serif">20</text><path  d="M 195 551
L 195 556" style="stroke-width:1;stroke:rgba(51,51,51,1.0);fill:none"/><text x="188" y="573" style="stroke-width:0;stroke:none;fill:rgba(51,51,51,1.0);font-size:12.8px;font-family:'Roboto Medium',sans-serif">30</text><path  d="M 256 551
L 256 556" style="stroke-width:1;stroke:rgba(51,51,51,1.0);fill:none"/><text x="249" y="573" style="stroke-width:0;stroke:none;fill:rgba(51,51,51,1.0);font-size:12.8px;font-family:'Roboto Medium',sans-serif">40</text><path  d="M 318 551
L 318 556" style="stroke-width:1;stroke:rgba(51,51,51,1.0);fill:none"/><text x="311" y="573" style="stroke-width:0;stroke:none;fill:rgba(51,51,51,1.0);font-size:12.8px;font-family:'Roboto Medium',sans-serif">50</text><path  d="M 380 551
L 380 556" style="stroke-width:1;stroke:rgba(51,51,51,1.0);fill:none"/><text x="373" y="573" style="stroke-width:0;stroke:none;fill:rgba(51,51,51,1.0);font-size:12.8px;font-family:'Roboto Medium',sans-serif">60</text><path  d="M 441 551
L 441 556" style="stroke-width:1;stroke:rgba(51,51,51,1.0);fill:none"/><text x="434" y="573" style="stroke-width:0;stroke:none;fill:rgba(51,51,51,1.0);font-size:12.8px;font-family:'Roboto Medium',sans-serif">70</text><path  d="M 503 551
L 503 556" style="stroke-width:1;stroke:rgba(51,51,51,1.0);fill:none"/><text x="496" y="573" style="stroke-width:0;stroke:none;fill:rgba(51,51,51,1.0);font-size:12.8px;font-family:'Roboto Medium',sans-serif">80</text><path  d="M 565 551
L 565 556" style="stroke-width:1;stroke:rgba(51,51,51,1.0);fill:none"/><text x="558" y="573" style="stroke-width:0;stroke:none;fill:rgba(51,51,51,1.0);font-size:12.8px;font-family:'Roboto Medium',sans-serif">90</text><path  d="M 626 551
L 626 556" style="stroke-width:1;stroke:rgba(51,51,51,1.0);fill:none"/><text x="615" y="573" style="stroke-width:0;stroke:none;fill:rgba(51,51,51,1.0);font-size:12.8px;font-family:'Roboto Medium',sans-serif">100</text><text x="276" y="595" style="stroke-width:0;stroke:none;fill:rgba(51,51,51,1.0);font-size:12.8px;font-family:'Roboto Medium',sans-serif">Warning Score</text><path  d="M 71 551
L 71 35" style="stroke-width:0;stroke:none;fill:none"/><path  d="M 133 551
L 133 35" style="stroke-width:0;stroke:none;fill:none"/><path  d="M 195 551
L 195 35" style="stroke-width:0;stroke:none;fill:none"/><path  d="M 256 551
L 256 35" style="stroke-width:0;stroke:none;fill:none"/><path  d="M 318 551
L 318 35" style="stroke-width:0;stroke:none;fill:none"/><path  d="M 380 551
L 380 35" style="stroke-width:0;stroke:none;fill:none"/><path  d="M 441 551
L 441 35" style="stroke-width:0;stroke:none;fill:none"/><path  d="M 503 551
L 503 35" style="stroke-width:0;stroke:none;fill:none"/><path  d="M 565 551
L 565 35" style="stroke-width:0;stroke:none;fill:none"/><path  d="M 627 551
L 627 35" style="stroke-width:1;stroke:rgba(51,51,51,1.0);fill:none"/><path  d="M 627 551
L 632 551" style="stroke-width:1;stroke:rgba(51,51,51,1.0);fill:none"/><text x="637" y="557" style="stroke-width:0;stroke:none;fill:rgba(51,51,51,1.0);font-size:12.8px;font-family:'Roboto Medium',sans-serif">0</text><path  d="M 627 499
L 632 499" style="stroke-width:1;stroke:rgba(51,51,51,1.0);fill:none"/><text x="637" y="505" style="stroke-width:0;stroke:none;fill:rgba(51,51,51,1.0);font-size:12.8px;font-family:'Roboto Medium',sans-serif">10</text><path  d="M 627 447
L 632 447" style="stroke-width:1;stroke:rgba(51,51,51,1.0);fill:none"/><text x="637" y="453" style="stroke-width:0;stroke:none;fill:rgba(51,51,51,1.0);font-size:12.8px;font-family:'Roboto Medium',sans-serif">20</text><path  d="M 627 396
L 632 396" style="stroke-width:1;stroke:rgba(51,51,51,1.0);fill:none"/><text x="637" y="402" style="stroke-width:0;stroke:none;fill:rgba(51,51,51,1.0);font-size:12.8px;font-family:'Roboto Medium',sans-serif">30</text><path  d="M 627 344
L 632 344" style="stroke-width:1;stroke:rgba(51,51,51,1.0);fill:none"/><text x="637" y="350" style="stroke-width:0;stroke:none;fill:rgba(51,51,51,1.0);font-size:12.8px;font-family:'Roboto Medium',sans-serif">40</text><path  d="M 627 293
L 632 293" style="stroke-width:1;stroke:rgba(51,51,51,1.0);fill:none"/><text x="637" y="299" style="stroke-width:0;stroke:none;fill:rgba(51,51,51,1.0);font-size:12.8px;font-family:'Roboto Medium',sans-serif">50</text><path  d="M 627 241
L 632 241" style="stroke-width:1;stroke:rgba(51,51,51,1.0);fill:none"/><text x="637" y="247" style="stroke-width:0;stroke:none;fill:rgba(51,51,51,1.0);font-size:12.8px;font-family:'Roboto Medium',sans-serif">60</text><path  d="M 627 189
L 632 189" style="stroke-width:1;stroke:rgba(51,51,51,1.0);fill:none"/><text x="637" y="195" style="stroke-width:0;stroke:none;fill:rgba(51,51,51,1.0);font-size:12.8px;font-family:'Roboto Medium',sans-serif">70</text><path  d="M 627 138
L 632 138" style="stroke-width:1;stroke:rgba(51,51,51,1.0);fill:none"/><text x="637" y="144" style="stroke-width:0;stroke:none;fill:rgba(51,51,51,1.0);font-size:12.8px;font-family:'Roboto Medium',sans-serif">80</text><path  d="M 627 86
L 632 86" style="stroke-width:1;stroke:rgba(51,51,51,1.0);fill:none"/><text x="637" y="92" style="stroke-width:0;stroke:none;fill:rgba(51,51,51,1.0);font-size:12.8px;font-family:'Roboto Medium',sans-serif">90</text><path  d="M 627 35
L 632 35" style="stroke-width:1;stroke:rgba(51,51,51,1.0);fill:none"/><text x="637" y="41" style="stroke-width:0;stroke:none;fill:rgba(51,51,51,1.0);font-size:12.8px;font-family:'Roboto Medium',sans-serif">100</text><text x="669" y="242" style="stroke-width:0;stroke:none;fill:rgba(51,51,51,1.0);font-size:12.8px;font-family:'Roboto Medium',sans-serif" transform="rotate(90.00,669,242)">Benchmark Score</text><path  d="M 9 551
L 626 551" style="stroke-width:0;stroke:none;fill:none"/><path  d="M 9 499
L 626 499" style="stroke-width:0;stroke:none;fill:none"/><path  d="M 9 447
L 626 447" style="stroke-width:0;stroke:none;fill:none"/><path  d="M 9 396
L 626 396" style="stroke-width:0;stroke:none;fill:none"/><path  d="M 9 344
L 626 344" style="stroke-width:0;stroke:none;fill:none"/><path  d="M 9 293
L 626 293" style="stroke-width:0;stroke:none;fill:none"/><path  d="M 9 241
L 626 241" style="stroke-width:0;stroke:none;fill:none"/><path  d="M 9 189
L 626 189" style="stroke-width:0;stroke:none;fill:none"/><path  d="M 9 138
L 626 138" style="stroke-width:0;stroke:none;fill:none"/><path  d="M 9 86
L 626 86" style="stroke-width:0;stroke:none;fill:none"/><path  d="M 8 551
L 8 35" style="stroke-width:1;stroke:rgba(51,51,51,1.0);fill:none"/><path  d="M 8 -9223372036854775257
L 3 -9223372036854775257" style="stroke-width:1;stroke:rgba(51,51,51,1.0);fill:none"/><text x="-28" y="-9223372036854775251" style="stroke-width:0;stroke:none;fill:rgba(51,51,51,1.0);font-size:12.8px;font-family:'Roboto Medium',sans-serif">0.00</text><path  d="M 8 -9223372036854775257
L 3 -9223372036854775257" style="stroke-width:1;stroke:rgba(51,51,51,1.0);fill:none"/><text x="-28" y="-9223372036854775251" style="stroke-width:0;stroke:none;fill:rgba(51,51,51,1.0);font-size:12.8px;font-family:'Roboto Medium',sans-serif">0.00</text><path  d="M 8 -9223372036854775257
L 3 -9223372036854775257" style="stroke-width:1;stroke:rgba(51,51,51,1.0);fill:none"/><text x="-28" y="-9223372036854775251" style="stroke-width:0;stroke:none;fill:rgba(51,51,51,1.0);font-size:12.8px;font-family:'Roboto Medium',sans-serif">0.00</text><path  d="M 8 -9223372036854775257
L 3 -9223372036854775257" style="stroke-width:1;stroke:rgba(51,51,51,1.0);fill:none"/><text x="-28" y="-9223372036854775251" style="stroke-width:0;stroke:none;fill:rgba(51,51,51,1.0);font-size:12.8px;font-family:'Roboto Medium',sans-serif">0.00</text><path  d="M 8 -9223372036854775257
L 3 -9223372036854775257" style="stroke-width:1;stroke:rgba(51,51,51,1.0);fill:none"/><text x="-28" y="-9223372036854775251" style="stroke-width:0;stroke:none;fill:rgba(51,51,51,1.0);font-size:12.8px;font-family:'Roboto Medium',sans-serif">0.00</text><path  d="M 8 -9223372036854775257
L 3 -9223372036854775257" style="stroke-width:1;stroke:rgba(51,51,51,1.0);fill:none"/><text x="-28" y="-9223372036854775251" style="stroke-width:0;stroke:none;fill:rgba(51,51,51,1.0);font-size:12.8px;font-family:'Roboto Medium',sans-serif">0.00</text><path  d="M 8 -9223372036854775257
L 3 -9223372036854775257" style="stroke-width:1;stroke:rgba(51,51,51,1.0);fill:none"/><text x="-28" y="-9223372036854775251" style="stroke-width:0;stroke:none;fill:rgba(51,51,51,1.0);font-size:12.8px;font-family:'Roboto Medium',sans-serif">0.00</text><path  d="M 8 -9223372036854775257
L 3 -9223372036854775257" style="stroke-width:1;stroke:rgba(51,51,51,1.0);fill:none"/><text x="-28" y="-9223372036854775251" style="stroke-width:0;stroke:none;fill:rgba(51,51,51,1.0);font-size:12.8px;font-family:'Roboto Medium',sans-serif">0.00</text><path  d="M 8 -9223372036854775257
L 3 -9223372036854775257" style="stroke-width:1;stroke:rgba(51,51,51,1.0);fill:none"/><text x="-28" y="-9223372036854775251" style="stroke-width:0;stroke:none;fill:rgba(51,51,51,1.0);font-size:12.8px;font-family:'Roboto Medium',sans-serif">0.00</text><path  d="M 8 -9223372036854775257
L 3 -9223372036854775257" style="stroke-width:1;stroke:rgba(51,51,51,1.0);fill:none"/><text x="-28" y="-9223372036854775251" style="stroke-width:0;stroke:none;fill:rgba(51,51,51,1.0);font-size:12.8px;font-family:'Roboto Medium',sans-serif">0.00</text><path  d="M 8 -9223372036854775257
L 3 -9223372036854775257" style="stroke-width:1;stroke:rgba(51,51,51,1.0);fill:none"/><text x="-28" y="-9223372036854775251" style="stroke-width:0;stroke:none;fill:rgba(51,51,51,1.0);font-size:12.8px;font-family:'Roboto Medium',sans-serif">0.00</text><path  d="M 8 -9223372036854775257
L 3 -9223372036854775257" style="stroke-width:1;stroke:rgba(51,51,51,1.0);fill:none"/><text x="-28" y="-9223372036854775251" style="stroke-width:0;stroke:none;fill:rgba(51,51,51,1.0);font-size:12.8px;font-family:'Roboto Medium',sans-serif">0.00</text><path  d="M 8 -9223372036854775257
L 3 -9223372036854775257" style="stroke-width:1;stroke:rgba(51,51,51,1.0);fill:none"/><text x="-28" y="-9223372036854775251" style="stroke-width:0;stroke:none;fill:rgba(51,51,51,1.0);font-size:12.8px;font-family:'Roboto Medium',sans-serif">0.00</text><path  d="M 8 -9223372036854775257
L 3 -9223372036854775257" style="stroke-width:1;stroke:rgba(51,51,51,1.0);fill:none"/><text x="-28" y="-9223372036854775251" style="stroke-width:0;stroke:none;fill:rgba(51,51,51,1.0);font-size:12.8px;font-family:'Roboto Medium',sans-serif">0.00</text><path  d="M 8 -9223372036854775257
L 3 -9223372036854775257" style="stroke-width:1;stroke:rgba(51,51,51,1.0);fill:none"/><text x="-28" y="-9223372036854775251" style="stroke-width:0;stroke:none;fill:rgba(51,51,51,1.0);font-size:12.8px;font-family:'Roboto Medium',sans-serif">0.00</text><path  d="M 9 -9223372036854775257
L 626 -9223372036854775257" style="stroke-width:0;stroke:none;fill:none"/><path  d="M 9 -9223372036854775257
L 626 -9223372036854775257" style="stroke-width:0;stroke:none;fill:none"/><path  d="M 9 -9223372036854775257
L 626 -9223372036854775257" style="stroke-width:0;stroke:none;fill:none"/><path  d="M 9 -9223372036854775257
L 626 -9223372036854775257" style="stroke-width:0;stroke:none;fill:none"/><path  d="M 9 -9223372036854775257
L 626 -9223372036854775257" style="stroke-width:0;stroke:none;fill:none"/><path  d="M 9 -9223372036854775257
L 626 -9223372036854775257" style="stroke-width:0;stroke:none;fill:none"/><path  d="M 9 -9223372036854775257
L 626 -9223372036854775257" style="stroke-width:0;stroke:none;fill:none"/><path  d="M 9 -9223372036854775257
L 626 -9223372036854775257" style="stroke-width:0;stroke:none;fill:none"/><path  d="M 9 -9223372036854775257
L 626 -9223372036854775257" style="stroke-width:0;stroke:none;fill:none"/><path  d="M 9 -9223372036854775257
L 626 -9223372036854775257" style="stroke-width:0;stroke:none;fill:none"/><path  d="M 9 -9223372036854775257
L 626 -9223372036854775257" style="stroke-width:0;stroke:none;fill:none"/><path  d="M 9 -9223372036854775257
L 626 -9223372036854775257" style="stroke-width:0;stroke:none;fill:none"/><path  d="M 9 -9223372036854775257
L 626 -9223372036854775257" style="stroke-width:0;stroke:none;fill:none"/><path  d="M 9 -9223372036854775257
L 626 -9223372036854775257" style="stroke-width:0;stroke:none;fill:none"/><path  d="M 164 35
L 164 422
L 626 422" style="stroke-width:1;stroke:rgba(255,0,127,0.2);fill:none"/><path  d="M 318 35
L 318 293
L 626 293" style="stroke-width:1;stroke:rgba(255,0,127,0.2);fill:none"/><path  d="M 472 35
L 472 164
L 626 164" style="stroke-width:1;stroke:rgba(255,0,127,0.2);fill:none"/><path  d="M 534 422
L 544 411
L 574 411
L 574 433
L 544 433
L 534 422
Z" style="stroke-width:1;stroke:rgba(255,0,127,0.2);fill:rgba(255,255,255,1.0)"/><text x="549" y="428" style="stroke-width:0;stroke:none;fill:rgba(51,51,51,1.0);font-size:12.8px;font-family:'Roboto Medium',sans-serif">3/4</text><path  d="M 534 293
L 544 282
L 578 282
L 578 304
L 544 304
L 534 293
Z" style="stroke-width:1;stroke:rgba(255,0,127,0.2);fill:rgba(255,255,255,1.0)"/><text x="549" y="299" style="stroke-width:0;stroke:none;fill:rgba(51,51,51,1.0);font-size:12.8px;font-family:'Roboto Medium',sans-serif">Half</text><path  d="M 534 164
L 544 153
L 597 153
L 597 175
L 544 175
L 534 164
Z" style="stroke-width:1;stroke:rgba(255,0,127,0.2);fill:rgba(255,255,255,1.0)"/><text x="549" y="170" style="stroke-width:0;stroke:none;fill:rgba(51,51,51,1.0);font-size:12.8px;font-family:'Roboto Medium',sans-serif">Quarter</text><circle cx="389" cy="92" r="5" style="stroke-width:1;stroke:rgba(60,182,0,1.0);fill:rgba(60,182,0,1.0)"/><path  d="" style="stroke-width:1;stroke:rgba(60,182,0,1.0);fill:rgba(60,182,0,1.0)"/><circle cx="617" cy="73" r="5" style="stroke-width:1;stroke:rgba(11,241,0,1.0);fill:rgba(11,241,0,1.0)"/><path  d="" style="stroke-width:1;stroke:rgba(11,241,0,1.0);fill:rgba(11,241,0,1.0)"/><circle cx="304" cy="41" r="5" style="stroke-width:1;stroke:rgba(57,160,0,1.0);fill:rgba(57,160,0,1.0)"/><path  d="" style="stroke-width:1;stroke:rgba(57,160,0,1.0);fill:rgba(57,160,0,1.0)"/><circle cx="617" cy="35" r="5" style="stroke-width:1;stroke:rgba(1,252,0,1.0);fill:rgba(1,252,0,1.0)"/><path  d="" style="stroke-width:1;stroke:rgba(1,252,0,1.0);fill:rgba(1,252,0,1.0)"/><circle cx="323" cy="270" r="5" style="stroke-width:1;stroke:rgba(120,133,0,1.0);fill:rgba(120,133,0,1.0)"/><path  d="" style="stroke-width:1;stroke:rgba(120,133,0,1.0);fill:rgba(120,133,0,1.0)"/><circle cx="617" cy="55" r="5" style="stroke-width:1;stroke:rgba(6,247,0,1.0);fill:rgba(6,247,0,1.0)"/><path  d="" style="stroke-width:1;stroke:rgba(6,247,0,1.0);fill:rgba(6,247,0,1.0)"/><circle cx="456" cy="45" r="5" style="stroke-width:1;stroke:rgba(35,204,0,1.0);fill:rgba(35,204,0,1.0)"/><path  d="" style="stroke-width:1;stroke:rgba(35,204,0,1.0);fill:rgba(35,204,0,1.0)"/><circle cx="617" cy="63" r="5" style="stroke-width:1;stroke:rgba(8,244,0,1.0);fill:rgba(8,244,0,1.0)"/><path  d="" style="stroke-width:1;stroke:rgba(8,244,0,1.0);fill:rgba(8,244,0,1.0)"/><circle cx="617" cy="126" r="5" style="stroke-width:1;stroke:rgba(23,223,0,1.0);fill:rgba(23,223,0,1.0)"/><path  d="" style="stroke-width:1;stroke:rgba(23,223,0,1.0);fill:rgba(23,223,0,1.0)"/><circle cx="361" cy="508" r="5" style="stroke-width:1;stroke:rgba(151,72,0,1.0);fill:rgba(151,72,0,1.0)"/><path  d="" style="stroke-width:1;stroke:rgba(151,72,0,1.0);fill:rgba(151,72,0,1.0)"/><circle cx="304" cy="261" r="5" style="stroke-width:1;stroke:rgba(122,131,0,1.0);fill:rgba(122,131,0,1.0)"/><path  d="" style="stroke-width:1;stroke:rgba(122,131,0,1.0);fill:rgba(122,131,0,1.0)"/><path  d="M 389 92
L 399 81
L 530 81
L 530 103
L 399 103
L 389 92
Z" style="stroke-width:1;stroke:rgba(63,127,255,1.0);fill:rgba(255,255,255,1.0)"/><text x="404" y="98" style="stroke-width:0;stroke:none;fill:rgba(51,51,51,1.0);font-size:12.8px;font-family:'Roboto Medium',sans-serif">chanchal/zaphandler</text><path  d="M 617 101
L 627 90
L 733 90
L 733 112
L 627 112
L 617 101
Z" style="stroke-width:1;stroke:rgba(63,127,255,1.0);fill:rgba(255,255,255,1.0)"/><text x="632" y="107" style="stroke-width:0;stroke:none;fill:rgba(51,51,51,1.0);font-size:12.8px;font-family:'Roboto Medium',sans-serif">madkins/replattr</text><path  d="M 304 41
L 314 30
L 417 30
L 417 52
L 314 52
L 304 41
Z" style="stroke-width:1;stroke:rgba(63,127,255,1.0);fill:rgba(255,255,255,1.0)"/><text x="319" y="47" style="stroke-width:0;stroke:none;fill:rgba(51,51,51,1.0);font-size:12.8px;font-family:'Roboto Medium',sans-serif">phsym/zeroslog</text><path  d="M 617 17
L 627 6
L 705 6
L 705 28
L 627 28
L 617 17
Z" style="stroke-width:1;stroke:rgba(63,127,255,1.0);fill:rgba(255,255,255,1.0)"/><text x="632" y="23" style="stroke-width:0;stroke:none;fill:rgba(51,51,51,1.0);font-size:12.8px;font-family:'Roboto Medium',sans-serif">phuslu/slog</text><path  d="M 323 277
L 333 266
L 441 266
L 441 288
L 333 288
L 323 277
Z" style="stroke-width:1;stroke:rgba(63,127,255,1.0);fill:rgba(255,255,255,1.0)"/><text x="338" y="283" style="stroke-width:0;stroke:none;fill:rgba(51,51,51,1.0);font-size:12.8px;font-family:'Roboto Medium',sans-serif">samber/slog-zap</text><path  d="M 617 47
L 627 36
L 745 36
L 745 58
L 627 58
L 617 47
Z" style="stroke-width:1;stroke:rgba(63,127,255,1.0);fill:rgba(255,255,255,1.0)"/><text x="632" y="53" style="stroke-width:0;stroke:none;fill:rgba(51,51,51,1.0);font-size:12.8px;font-family:'Roboto Medium',sans-serif">slog/JSONHandler</text><path  d="M 456 45
L 466 34
L 580 34
L 580 56
L 466 56
L 456 45
Z" style="stroke-width:1;stroke:rgba(63,127,255,1.0);fill:rgba(255,255,255,1.0)"/><text x="471" y="51" style="stroke-width:0;stroke:none;fill:rgba(51,51,51,1.0);font-size:12.8px;font-family:'Roboto Medium',sans-serif">svcrunner/jsonlog</text><path  d="M 617 70
L 627 59
L 720 59
L 720 81
L 627 81
L 617 70
Z" style="stroke-width:1;stroke:rgba(63,127,255,1.0);fill:rgba(255,255,255,1.0)"/><text x="632" y="76" style="stroke-width:0;stroke:none;fill:rgba(51,51,51,1.0);font-size:12.8px;font-family:'Roboto Medium',sans-serif">madkins/flash</text><path  d="M 617 126
L 627 115
L 729 115
L 729 137
L 627 137
L 617 126
Z" style="stroke-width:1;stroke:rgba(63,127,255,1.0);fill:rgba(255,255,255,1.0)"/><text x="632" y="132" style="stroke-width:0;stroke:none;fill:rgba(51,51,51,1.0);font-size:12.8px;font-family:'Roboto Medium',sans-serif">madkins/sloggy</text><path  d="M 361 508
L 371 497
L 494 497
L 494 519
L 371 519
L 361 508
Z" style="stroke-width:1;stroke:rgba(63,127,255,1.0);fill:rgba(255,255,255,1.0)"/><text x="376" y="514" style="stroke-width:0;stroke:none;fill:rgba(51,51,51,1.0);font-size:12.8px;font-family:'Roboto Medium',sans-serif">samber/slog-logrus</text><path  d="M 304 254
L 314 243
L 444 243
L 444 265
L 314 265
L 304 254
Z" style="stroke-width:1;stroke:rgba(63,127,255,1.0);fill:rgba(255,255,255,1.0)"/><text x="319" y="260" style="stroke-width:0;stroke:none;fill:rgba(51,51,51,1.0);font-size:12.8px;font-family:'Roboto Medium',sans-serif">samber/slog-zerolog</text></svg>