<svg xmlns="http://www.w3.org/2000/svg" xmlns:xlink="http://www.w3.org/1999/xlink" width="750" height="600">\n<path  d="M 0 0
L 750 0
L 750 600
L 0 600
L 0 0" style="stroke-width:0;stroke:rgba(255,255,255,1.0);fill:rgba(255,255,255,1.0)"/><path  d="M 9 36
L 626 36
L 626 551
L 9 551
L 9 36" style="stroke-width:0;stroke:rgba(255,255,255,1.0);fill:rgba(255,255,255,1.0)"/><path  d="M 9 551
L 626 551" style="stroke-width:1;stroke:rgba(51,51,51,1.0);fill:none"/><path  d="M 9 551
L 9 556" style="stroke-width:1;stroke:rgba(51,51,51,1.0);fill:none"/><text x="5" y="573" style="stroke-width:0;stroke:none;fill:rgba(51,51,51,1.0);font-size:12.8px;font-family:'Roboto Medium',sans-serif">0</text><path  d="M 71 551
L 71 556" style="stroke-width:1;stroke:rgba(51,51,51,1.0);fill:none"/><text x="64" y="573" style="stroke-width:0;stroke:none;fill:rgba(51,51,51,1.0);font-size:12.8px;font-family:'Roboto Medium',sans-serif">10</text><path  d="M 133 551
L 133 556" style="stroke-width:1;stroke:rgba(51,51,51,1.0);fill:none"/><text x="126" y="573" style="stroke-width:0;stroke:none;fill:rgba(51,51,51,1.0);font-size:12.8px;font-family:'Roboto Medium',sans-serif">20</text><path  d="M 195 551
L 195 556" style="stroke-width:1;stroke:rgba(51,51,51,1.0);fill:none"/><text x="188" y="573" style="stroke-width:0;stroke:none;fill:rgba(51,51,51,1.0);font-size:12.8px;font-family:'Roboto Medium',sans-serif">30</text><path  d="M 256 551
L 256 556" style="stroke-width:1;stroke:rgba(51,51,51,1.0);fill:none"/><text x="249" y="573" style="stroke-width:0;stroke:none;fill:rgba(51,51,51,1.0);font-size:12.8px;font-family:'Roboto Medium',sans-serif">40</text><path  d="M 318 551
L 318 556" style="stroke-width:1;stroke:rgba(51,51,51,1.0);fill:none"/><text x="311" y="573" style="stroke-width:0;stroke:none;fill:rgba(51,51,51,1.0);font-size:12.8px;font-family:'Roboto Medium',sans-serif">50</text><path  d="M 380 551
L 380 556" style="stroke-width:1;stroke:rgba(51,51,51,1.0);fill:none"/><text x="373" y="573" style="stroke-width:0;stroke:none;fill:rgba(51,51,51,1.0);font-size:12.8px;font-family:'Roboto Medium',sans-serif">60</text><path  d="M 441 551
L 441 556" style="stroke-width:1;stroke:rgba(51,51,51,1.0);fill:none"/><text x="434" y="573" style="stroke-width:0;stroke:none;fill:rgba(51,51,51,1.0);font-size:12.8px;font-family:'Roboto Medium',sans-serif">70</text><path  d="M 503 551
L 503 556" style="stroke-width:1;stroke:rgba(51,51,51,1.0);fill:none"/><text x="496" y="573" style="stroke-width:0;stroke:none;fill:rgba(51,51,51,1.0);font-size:12.8px;font-family:'Roboto Medium',sans-serif">80</text><path  d="M 565 551
L 565 556" style="stroke-width:1;stroke:rgba(51,51,51,1.0);fill:none"/><text x="558" y="573" style="stroke-width:0;stroke:none;fill:rgba(51,51,51,1.0);font-size:12.8px;font-family:'Roboto Medium',sans-serif">90</text><path  d="M 626 551
L 626 556" style="stroke-width:1;stroke:rgba(51,51,51,1.0);fill:none"/><text x="615" y="573" style="stroke-width:0;stroke:none;fill:rgba(51,51,51,1.0);font-size:12.8px;font-family:'Roboto Medium',sans-serif">100</text><text x="276" y="595" style="stroke-width:0;stroke:none;fill:rgba(51,51,51,1.0);font-size:12.8px;font-family:'Roboto Medium',sans-serif">Warning Score</text><path  d="M 71 551
L 71 36" style="stroke-width:0;stroke:none;fill:none"/><path  d="M 133 551
L 133 36" style="stroke-width:0;stroke:none;fill:none"/><path  d="M 195 551
L 195 36" style="stroke-width:0;stroke:none;fill:none"/><path  d="M 256 551
L 256 36" style="stroke-width:0;stroke:none;fill:none"/><path  d="M 318 551
L 318 36" style="stroke-width:0;stroke:none;fill:none"/><path  d="M 380 551
L 380 36" style="stroke-width:0;stroke:none;fill:none"/><path  d="M 441 551
L 441 36" style="stroke-width:0;stroke:none;fill:none"/><path  d="M 503 551
L 503 36" style="stroke-width:0;stroke:none;fill:none"/><path  d="M 565 551
L 565 36" style="stroke-width:0;stroke:none;fill:none"/><path  d="M 627 551
L 627 36" style="stroke-width:1;stroke:rgba(51,51,51,1.0);fill:none"/><path  d="M 627 551
L 632 551" style="stroke-width:1;stroke:rgba(51,51,51,1.0);fill:none"/><text x="637" y="557" style="stroke-width:0;stroke:none;fill:rgba(51,51,51,1.0);font-size:12.8px;font-family:'Roboto Medium',sans-serif">0</text><path  d="M 627 499
L 632 499" style="stroke-width:1;stroke:rgba(51,51,51,1.0);fill:none"/><text x="637" y="505" style="stroke-width:0;stroke:none;fill:rgba(51,51,51,1.0);font-size:12.8px;font-family:'Roboto Medium',sans-serif">10</text><path  d="M 627 448
L 632 448" style="stroke-width:1;stroke:rgba(51,51,51,1.0);fill:none"/><text x="637" y="454" style="stroke-width:0;stroke:none;fill:rgba(51,51,51,1.0);font-size:12.8px;font-family:'Roboto Medium',sans-serif">20</text><path  d="M 627 396
L 632 396" style="stroke-width:1;stroke:rgba(51,51,51,1.0);fill:none"/><text x="637" y="402" style="stroke-width:0;stroke:none;fill:rgba(51,51,51,1.0);font-size:12.8px;font-family:'Roboto Medium',sans-serif">30</text><path  d="M 627 345
L 632 345" style="stroke-width:1;stroke:rgba(51,51,51,1.0);fill:none"/><text x="637" y="351" style="stroke-width:0;stroke:none;fill:rgba(51,51,51,1.0);font-size:12.8px;font-family:'Roboto Medium',sans-serif">40</text><path  d="M 627 293
L 632 293" style="stroke-width:1;stroke:rgba(51,51,51,1.0);fill:none"/><text x="637" y="299" style="stroke-width:0;stroke:none;fill:rgba(51,51,51,1.0);font-size:12.8px;font-family:'Roboto Medium',sans-serif">50</text><path  d="M 627 242
L 632 242" style="stroke-width:1;stroke:rgba(51,51,51,1.0);fill:none"/><text x="637" y="248" style="stroke-width:0;stroke:none;fill:rgba(51,51,51,1.0);font-size:12.8px;font-family:'Roboto Medium',sans-serif">60</text><path  d="M 627 190
L 632 190" style="stroke-width:1;stroke:rgba(51,51,51,1.0);fill:none"/><text x="637" y="196" style="stroke-width:0;stroke:none;fill:rgba(51,51,51,1.0);font-size:12.8px;font-family:'Roboto Medium',sans-serif">70</text><path  d="M 627 139
L 632 139" style="stroke-width:1;stroke:rgba(51,51,51,1.0);fill:none"/><text x="637" y="145" style="stroke-width:0;stroke:none;fill:rgba(51,51,51,1.0);font-size:12.8px;font-family:'Roboto Medium',sans-serif">80</text><path  d="M 627 87
L 632 87" style="stroke-width:1;stroke:rgba(51,51,51,1.0);fill:none"/><text x="637" y="93" style="stroke-width:0;stroke:none;fill:rgba(51,51,51,1.0);font-size:12.8px;font-family:'Roboto Medium',sans-serif">90</text><path  d="M 627 36
L 632 36" style="stroke-width:1;stroke:rgba(51,51,51,1.0);fill:none"/><text x="637" y="42" style="stroke-width:0;stroke:none;fill:rgba(51,51,51,1.0);font-size:12.8px;font-family:'Roboto Medium',sans-serif">100</text><text x="669" y="242" style="stroke-width:0;stroke:none;fill:rgba(51,51,51,1.0);font-size:12.8px;font-family:'Roboto Medium',sans-serif" transform="rotate(90.00,669,242)">Benchmark Score</text><path  d="M 9 551
L 626 551" style="stroke-width:0;stroke:none;fill:none"/><path  d="M 9 499
L 626 499" style="stroke-width:0;stroke:none;fill:none"/><path  d="M 9 448
L 626 448" style="stroke-width:0;stroke:none;fill:none"/><path  d="M 9 396
L 626 396" style="stroke-width:0;stroke:none;fill:none"/><path  d="M 9 345
L 626 345" style="stroke-width:0;stroke:none;fill:none"/><path  d="M 9 293
L 626 293" style="stroke-width:0;stroke:none;fill:none"/><path  d="M 9 242
L 626 242" style="stroke-width:0;stroke:none;fill:none"/><path  d="M 9 190
L 626 190" style="stroke-width:0;stroke:none;fill:none"/><path  d="M 9 139
L 626 139" style="stroke-width:0;stroke:none;fill:none"/><path  d="M 9 87
L 626 87" style="stroke-width:0;stroke:none;fill:none"/><path  d="M 8 551
L 8 36" style="stroke-width:1;stroke:rgba(51,51,51,1.0);fill:none"/><path  d="M 8 -9223372036854775257
L 3 -9223372036854775257" style="stroke-width:1;stroke:rgba(51,51,51,1.0);fill:none"/><text x="-28" y="-9223372036854775251" style="stroke-width:0;stroke:none;fill:rgba(51,51,51,1.0);font-size:12.8px;font-family:'Roboto Medium',sans-serif">0.00</text><path  d="M 8 -9223372036854775257
L 3 -9223372036854775257" style="stroke-width:1;stroke:rgba(51,51,51,1.0);fill:none"/><text x="-28" y="-9223372036854775251" style="stroke-width:0;stroke:none;fill:rgba(51,51,51,1.0);font-size:12.8px;font-family:'Roboto Medium',sans-serif">0.00</text><path  d="M 8 -9223372036854775257
L 3 -9223372036854775257" style="stroke-width:1;stroke:rgba(51,51,51,1.0);fill:none"/><text x="-28" y="-9223372036854775251" style="stroke-width:0;stroke:none;fill:rgba(51,51,51,1.0);font-size:12.8px;font-family:'Roboto Medium',sans-serif">0.00</text><path  d="M 8 -9223372036854775257
L 3 -9223372036854775257" style="stroke-width:1;stroke:rgba(51,51,51,1.0);fill:none"/><text x="-28" y="-9223372036854775251" style="stroke-width:0;stroke:none;fill:rgba(51,51,51,1.0);font-size:12.8px;font-family:'Roboto Medium',sans-serif">0.00</text><path  d="M 8 -9223372036854775257
L 3 -9223372036854775257" style="stroke-width:1;stroke:rgba(51,51,51,1.0);fill:none"/><text x="-28" y="-9223372036854775251" style="stroke-width:0;stroke:none;fill:rgba(51,51,51,1.0);font-size:12.8px;font-family:'Roboto Medium',sans-serif">0.00</text><path  d="M 8 -9223372036854775257
L 3 -9223372036854775257" style="stroke-width:1;stroke:rgba(51,51,51,1.0);fill:none"/><text x="-28" y="-9223372036854775251" style="stroke-width:0;stroke:none;fill:rgba(51,51,51,1.0);font-size:12.8px;font-family:'Roboto Medium',sans-serif">0.00</text><path  d="M 8 -9223372036854775257
L 3 -9223372036854775257" style="stroke-width:1;stroke:rgba(51,51,51,1.0);fill:none"/><text x="-28" y="-9223372036854775251" style="stroke-width:0;stroke:none;fill:rgba(51,51,51,1.0);font-size:12.8px;font-family:'Roboto Medium',sans-serif">0.00</text><path  d="M 8 -9223372036854775257
L 3 -9223372036854775257" style="stroke-width:1;stroke:rgba(51,51,51,1.0);fill:none"/><text x="-28" y="-9223372036854775251" style="stroke-width:0;stroke:none;fill:rgba(51,51,51,1.0);font-size:12.8px;font-family:'Roboto Medium',sans-serif">0.00</text><path  d="M 8 -9223372036854775257
L 3 -9223372036854775257" style="stroke-width:1;stroke:rgba(51,51,51,1.0);fill:none"/><text x="-28" y="-9223372036854775251" style="stroke-width:0;stroke:none;fill:rgba(51,51,51,1.0);font-size:12.8px;font-family:'Roboto Medium',sans-serif">0.00</text><path  d="M 8 -9223372036854775257
L 3 -9223372036854775257" style="stroke-width:1;stroke:rgba(51,51,51,1.0);fill:none"/><text x="-28" y="-9223372036854775251" style="stroke-width:0;stroke:none;fill:rgba(51,51,51,1.0);font-size:12.8px;font-family:'Roboto Medium',sans-serif">0.00</text><path  d="M 8 -9223372036854775257
L 3 -9223372036854775257" style="stroke-width:1;stroke:rgba(51,51,51,1.0);fill:none"/><text x="-28" y="-9223372036854775251" style="stroke-width:0;stroke:none;fill:rgba(51,51,51,1.0);font-size:12.8px;font-family:'Roboto Medium',sans-serif">0.00</text><path  d="M 8 -9223372036854775257
L 3 -9223372036854775257" style="stroke-width:1;stroke:rgba(51,51,51,1.0);fill:none"/><text x="-28" y="-9223372036854775251" style="stroke-width:0;stroke:none;fill:rgba(51,51,51,1.0);font-size:12.8px;font-family:'Roboto Medium',sans-serif">0.00</text><path  d="M 8 -9223372036854775257
L 3 -9223372036854775257" style="stroke-width:1;stroke:rgba(51,51,51,1.0);fill:none"/><text x="-28" y="-9223372036854775251" style="stroke-width:0;stroke:none;fill:rgba(51,51,51,1.0);font-size:12.8px;font-family:'Roboto Medium',sans-serif">0.00</text><path  d="M 8 -9223372036854775257
L 3 -9223372036854775257" style="stroke-width:1;stroke:rgba(51,51,51,1.0);fill:none"/><text x="-28" y="-9223372036854775251" style="stroke-width:0;stroke:none;fill:rgba(51,51,51,1.0);font-size:12.8px;font-family:'Roboto Medium',sans-serif">0.00</text><path  d="M 8 -9223372036854775257
L 3 -9223372036854775257" style="stroke-width:1;stroke:rgba(51,51,51,1.0);fill:none"/><text x="-28" y="-9223372036854775251" style="stroke-width:0;stroke:none;fill:rgba(51,51,51,1.0);font-size:12.8px;font-family:'Roboto Medium',sans-serif">0.00</text><path  d="M 9 -9223372036854775257
L 626 -9223372036854775257" style="stroke-width:0;stroke:none;fill:none"/><path  d="M 9 -9223372036854775257
L 626 -9223372036854775257" style="stroke-width:0;stroke:none;fill:none"/><path  d="M 9 -9223372036854775257
L 626 -9223372036854775257" style="stroke-width:0;stroke:none;fill:none"/><path  d="M 9 -9223372036854775257
L 626 -9223372036854775257" style="stroke-width:0;stroke:none;fill:none"/><path  d="M 9 -9223372036854775257
L 626 -9223372036854775257" style="stroke-width:0;stroke:none;fill:none"/><path  d="M 9 -9223372036854775257
L 626 -9223372036854775257" style="stroke-width:0;stroke:none;fill:none"/><path  d="M 9 -9223372036854775257
L 626 -9223372036854775257" style="stroke-width:0;stroke:none;fill:none"/><path  d="M 9 -9223372036854775257
L 626 -9223372036854775257" style="stroke-width:0;stroke:none;fill:none"/><path  d="M 9 -9223372036854775257
L 626 -9223372036854775257" style="stroke-width:0;stroke:none;fill:none"/><path  d="M 9 -9223372036854775257
L 626 -9223372036854775257" style="stroke-width:0;stroke:none;fill:none"/><path  d="M 9 -9223372036854775257
L 626 -9223372036854775257" style="stroke-width:0;stroke:none;fill:none"/><path  d="M 9 -9223372036854775257
L 626 -9223372036854775257" style="stroke-width:0;stroke:none;fill:none"/><path  d="M 9 -9223372036854775257
L 626 -9223372036854775257" style="stroke-width:0;stroke:none;fill:none"/><path  d="M 9 -9223372036854775257
L 626 -9223372036854775257" style="stroke-width:0;stroke:none;fill:none"/><path  d="M 164 36
L 164 422
L 626 422" style="stroke-width:1;stroke:rgba(255,0,127,0.2);fill:none"/><path  d="M 318 36
L 318 293
L 626 293" style="stroke-width:1;stroke:rgba(255,0,127,0.2);fill:none"/><path  d="M 472 36
L 472 164
L 626 164" style="stroke-width:1;stroke:rgba(255,0,127,0.2);fill:none"/><path  d="M 534 422
L 544 411
L 574 411
L 574 433
L 544 433
L 534 422
Z" style="stroke-width:1;stroke:rgba(255,0,127,0.2);fill:rgba(255,255,255,1.0)"/><text x="549" y="428" style="stroke-width:0;stroke:none;fill:rgba(51,51,51,1.0);font-size:12.8px;font-family:'Roboto Medium',sans-serif">3/4</text><path  d="M 534 293
L 544 282
L 578 282
L 578 304
L 544 304
L 534 293
Z" style="stroke-width:1;stroke:rgba(255,0,127,0.2);fill:rgba(255,255,255,1.0)"/><text x="549" y="299" style="stroke-width:0;stroke:none;fill:rgba(51,51,51,1.0);font-size:12.8px;font-family:'Roboto Medium',sans-serif">Half</text><path  d="M 534 164
L 544 153
L 597 153
L 597 175
L 544 175
L 534 164
Z" style="stroke-width:1;stroke:rgba(255,0,127,0.2);fill:rgba(255,255,255,1.0)"/><text x="549" y="170" style="stroke-width:0;stroke:none;fill:rgba(51,51,51,1.0);font-size:12.8px;font-family:'Roboto Medium',sans-serif">Quarter</text><circle cx="323" cy="272" r="5" style="stroke-width:1;stroke:rgba(121,133,0,1.0);fill:rgba(121,133,0,1.0)"/><path  d="" style="stroke-width:1;stroke:rgba(121,133,0,1.0);fill:rgba(121,133,0,1.0)"/><circle cx="304" cy="261" r="5" style="stroke-width:1;stroke:rgba(122,132,0,1.0);fill:rgba(122,132,0,1.0)"/><path  d="" style="stroke-width:1;stroke:rgba(122,132,0,1.0);fill:rgba(122,132,0,1.0)"/><circle cx="617" cy="63" r="5" style="stroke-width:1;stroke:rgba(8,244,0,1.0);fill:rgba(8,244,0,1.0)"/><path  d="" style="stroke-width:1;stroke:rgba(8,244,0,1.0);fill:rgba(8,244,0,1.0)"/><circle cx="617" cy="74" r="5" style="stroke-width:1;stroke:rgba(11,241,0,1.0);fill:rgba(11,241,0,1.0)"/><path  d="" style="stroke-width:1;stroke:rgba(11,241,0,1.0);fill:rgba(11,241,0,1.0)"/><circle cx="617" cy="127" r="5" style="stroke-width:1;stroke:rgba(23,222,0,1.0);fill:rgba(23,222,0,1.0)"/><path  d="" style="stroke-width:1;stroke:rgba(23,222,0,1.0);fill:rgba(23,222,0,1.0)"/><circle cx="304" cy="42" r="5" style="stroke-width:1;stroke:rgba(57,160,0,1.0);fill:rgba(57,160,0,1.0)"/><path  d="" style="stroke-width:1;stroke:rgba(57,160,0,1.0);fill:rgba(57,160,0,1.0)"/><circle cx="617" cy="36" r="5" style="stroke-width:1;stroke:rgba(1,252,0,1.0);fill:rgba(1,252,0,1.0)"/><path  d="" style="stroke-width:1;stroke:rgba(1,252,0,1.0);fill:rgba(1,252,0,1.0)"/><circle cx="361" cy="508" r="5" style="stroke-width:1;stroke:rgba(151,72,0,1.0);fill:rgba(151,72,0,1.0)"/><path  d="" style="stroke-width:1;stroke:rgba(151,72,0,1.0);fill:rgba(151,72,0,1.0)"/><circle cx="456" cy="46" r="5" style="stroke-width:1;stroke:rgba(35,204,0,1.0);fill:rgba(35,204,0,1.0)"/><path  d="" style="stroke-width:1;stroke:rgba(35,204,0,1.0);fill:rgba(35,204,0,1.0)"/><circle cx="389" cy="94" r="5" style="stroke-width:1;stroke:rgba(60,182,0,1.0);fill:rgba(60,182,0,1.0)"/><path  d="" style="stroke-width:1;stroke:rgba(60,182,0,1.0);fill:rgba(60,182,0,1.0)"/><circle cx="617" cy="56" r="5" style="stroke-width:1;stroke:rgba(7,247,0,1.0);fill:rgba(7,247,0,1.0)"/><path  d="" style="stroke-width:1;stroke:rgba(7,247,0,1.0);fill:rgba(7,247,0,1.0)"/><path  d="M 323 278
L 333 267
L 441 267
L 441 289
L 333 289
L 323 278
Z" style="stroke-width:1;stroke:rgba(63,127,255,1.0);fill:rgba(255,255,255,1.0)"/><text x="338" y="284" style="stroke-width:0;stroke:none;fill:rgba(51,51,51,1.0);font-size:12.8px;font-family:'Roboto Medium',sans-serif">samber/slog-zap</text><path  d="M 304 255
L 314 244
L 444 244
L 444 266
L 314 266
L 304 255
Z" style="stroke-width:1;stroke:rgba(63,127,255,1.0);fill:rgba(255,255,255,1.0)"/><text x="319" y="261" style="stroke-width:0;stroke:none;fill:rgba(51,51,51,1.0);font-size:12.8px;font-family:'Roboto Medium',sans-serif">samber/slog-zerolog</text><path  d="M 617 71
L 627 60
L 720 60
L 720 82
L 627 82
L 617 71
Z" style="stroke-width:1;stroke:rgba(63,127,255,1.0);fill:rgba(255,255,255,1.0)"/><text x="632" y="77" style="stroke-width:0;stroke:none;fill:rgba(51,51,51,1.0);font-size:12.8px;font-family:'Roboto Medium',sans-serif">madkins/flash</text><path  d="M 617 103
L 627 92
L 733 92
L 733 114
L 627 114
L 617 103
Z" style="stroke-width:1;stroke:rgba(63,127,255,1.0);fill:rgba(255,255,255,1.0)"/><text x="632" y="109" style="stroke-width:0;stroke:none;fill:rgba(51,51,51,1.0);font-size:12.8px;font-family:'Roboto Medium',sans-serif">madkins/replattr</text><path  d="M 617 127
L 627 116
L 729 116
L 729 138
L 627 138
L 617 127
Z" style="stroke-width:1;stroke:rgba(63,127,255,1.0);fill:rgba(255,255,255,1.0)"/><text x="632" y="133" style="stroke-width:0;stroke:none;fill:rgba(51,51,51,1.0);font-size:12.8px;font-family:'Roboto Medium',sans-serif">madkins/sloggy</text><path  d="M 304 42
L 314 31
L 417 31
L 417 53
L 314 53
L 304 42
Z" style="stroke-width:1;stroke:rgba(63,127,255,1.0);fill:rgba(255,255,255,1.0)"/><text x="319" y="48" style="stroke-width:0;stroke:none;fill:rgba(51,51,51,1.0);font-size:12.8px;font-family:'Roboto Medium',sans-serif">phsym/zeroslog</text><path  d="M 617 17
L 627 6
L 705 6
L 705 28
L 627 28
L 617 17
Z" style="stroke-width:1;stroke:rgba(63,127,255,1.0);fill:rgba(255,255,255,1.0)"/><text x="632" y="23" style="stroke-width:0;stroke:none;fill:rgba(51,51,51,1.0);font-size:12.8px;font-family:'Roboto Medium',sans-serif">phuslu/slog</text><path  d="M 361 508
L 371 497
L 494 497
L 494 519
L 371 519
L 361 508
Z" style="stroke-width:1;stroke:rgba(63,127,255,1.0);fill:rgba(255,255,255,1.0)"/><text x="376" y="514" style="stroke-width:0;stroke:none;fill:rgba(51,51,51,1.0);font-size:12.8px;font-family:'Roboto Medium',sans-serif">samber/slog-logrus</text><path  d="M 456 46
L 466 35
L 580 35
L 580 57
L 466 57
L 456 46
Z" style="stroke-width:1;stroke:rgba(63,127,255,1.0);fill:rgba(255,255,255,1.0)"/><text x="471" y="52" style="stroke-width:0;stroke:none;fill:rgba(51,51,51,1.0);font-size:12.8px;font-family:'Roboto Medium',sans-serif">svcrunner/jsonlog</text><path  d="M 389 94
L 399 83
L 530 83
L 530 105
L 399 105
L 389 94
Z" style="stroke-width:1;stroke:rgba(63,127,255,1.0);fill:rgba(255,255,255,1.0)"/><text x="404" y="100" style="stroke-width:0;stroke:none;fill:rgba(51,51,51,1.0);font-size:12.8px;font-family:'Roboto Medium',sans-serif">chanchal/zaphandler</text><path  d="M 617 48
L 627 37
L 745 37
L 745 59
L 627 59
L 617 48
Z" style="stroke-width:1;stroke:rgba(63,127,255,1.0);fill:rgba(255,255,255,1.0)"/><text x="632" y="54" style="stroke-width:0;stroke:none;fill:rgba(51,51,51,1.0);font-size:12.8px;font-family:'Roboto Medium',sans-serif">slog/JSONHandler</text></svg>