<svg xmlns="http://www.w3.org/2000/svg" xmlns:xlink="http://www.w3.org/1999/xlink" width="800" height="600">\n<path  d="M 0 0
L 800 0
L 800 600
L 0 600
L 0 0" style="stroke-width:0;stroke:rgba(255,255,255,1.0);fill:rgba(255,255,255,1.0)"/><path  d="M 12 11
L 558 11
L 558 551
L 12 551
L 12 11" style="stroke-width:0;stroke:rgba(255,255,255,1.0);fill:rgba(255,255,255,1.0)"/><path  d="M 12 551
L 558 551" style="stroke-width:1;stroke:rgba(51,51,51,1.0);fill:none"/><path  d="M 12 551
L 12 556" style="stroke-width:1;stroke:rgba(51,51,51,1.0);fill:none"/><text x="5" y="573" style="stroke-width:0;stroke:none;fill:rgba(51,51,51,1.0);font-size:12.8px;font-family:'Roboto Medium',sans-serif">25</text><path  d="M 49 551
L 49 556" style="stroke-width:1;stroke:rgba(51,51,51,1.0);fill:none"/><text x="42" y="573" style="stroke-width:0;stroke:none;fill:rgba(51,51,51,1.0);font-size:12.8px;font-family:'Roboto Medium',sans-serif">30</text><path  d="M 122 551
L 122 556" style="stroke-width:1;stroke:rgba(51,51,51,1.0);fill:none"/><text x="115" y="573" style="stroke-width:0;stroke:none;fill:rgba(51,51,51,1.0);font-size:12.8px;font-family:'Roboto Medium',sans-serif">40</text><path  d="M 194 551
L 194 556" style="stroke-width:1;stroke:rgba(51,51,51,1.0);fill:none"/><text x="187" y="573" style="stroke-width:0;stroke:none;fill:rgba(51,51,51,1.0);font-size:12.8px;font-family:'Roboto Medium',sans-serif">50</text><path  d="M 267 551
L 267 556" style="stroke-width:1;stroke:rgba(51,51,51,1.0);fill:none"/><text x="260" y="573" style="stroke-width:0;stroke:none;fill:rgba(51,51,51,1.0);font-size:12.8px;font-family:'Roboto Medium',sans-serif">60</text><path  d="M 340 551
L 340 556" style="stroke-width:1;stroke:rgba(51,51,51,1.0);fill:none"/><text x="333" y="573" style="stroke-width:0;stroke:none;fill:rgba(51,51,51,1.0);font-size:12.8px;font-family:'Roboto Medium',sans-serif">70</text><path  d="M 413 551
L 413 556" style="stroke-width:1;stroke:rgba(51,51,51,1.0);fill:none"/><text x="406" y="573" style="stroke-width:0;stroke:none;fill:rgba(51,51,51,1.0);font-size:12.8px;font-family:'Roboto Medium',sans-serif">80</text><path  d="M 486 551
L 486 556" style="stroke-width:1;stroke:rgba(51,51,51,1.0);fill:none"/><text x="479" y="573" style="stroke-width:0;stroke:none;fill:rgba(51,51,51,1.0);font-size:12.8px;font-family:'Roboto Medium',sans-serif">90</text><path  d="M 558 551
L 558 556" style="stroke-width:1;stroke:rgba(51,51,51,1.0);fill:none"/><text x="547" y="573" style="stroke-width:0;stroke:none;fill:rgba(51,51,51,1.0);font-size:12.8px;font-family:'Roboto Medium',sans-serif">100</text><text x="258" y="595" style="stroke-width:0;stroke:none;fill:rgba(51,51,51,1.0);font-size:12.8px;font-family:'Roboto Medium',sans-serif">Warnings</text><path  d="M 49 551
L 49 11" style="stroke-width:0;stroke:none;fill:none"/><path  d="M 122 551
L 122 11" style="stroke-width:0;stroke:none;fill:none"/><path  d="M 194 551
L 194 11" style="stroke-width:0;stroke:none;fill:none"/><path  d="M 267 551
L 267 11" style="stroke-width:0;stroke:none;fill:none"/><path  d="M 340 551
L 340 11" style="stroke-width:0;stroke:none;fill:none"/><path  d="M 413 551
L 413 11" style="stroke-width:0;stroke:none;fill:none"/><path  d="M 486 551
L 486 11" style="stroke-width:0;stroke:none;fill:none"/><path  d="M 559 551
L 559 11" style="stroke-width:1;stroke:rgba(51,51,51,1.0);fill:none"/><path  d="M 559 551
L 564 551" style="stroke-width:1;stroke:rgba(51,51,51,1.0);fill:none"/><text x="569" y="557" style="stroke-width:0;stroke:none;fill:rgba(51,51,51,1.0);font-size:12.8px;font-family:'Roboto Medium',sans-serif">25</text><path  d="M 559 515
L 564 515" style="stroke-width:1;stroke:rgba(51,51,51,1.0);fill:none"/><text x="569" y="521" style="stroke-width:0;stroke:none;fill:rgba(51,51,51,1.0);font-size:12.8px;font-family:'Roboto Medium',sans-serif">30</text><path  d="M 559 443
L 564 443" style="stroke-width:1;stroke:rgba(51,51,51,1.0);fill:none"/><text x="569" y="449" style="stroke-width:0;stroke:none;fill:rgba(51,51,51,1.0);font-size:12.8px;font-family:'Roboto Medium',sans-serif">40</text><path  d="M 559 371
L 564 371" style="stroke-width:1;stroke:rgba(51,51,51,1.0);fill:none"/><text x="569" y="377" style="stroke-width:0;stroke:none;fill:rgba(51,51,51,1.0);font-size:12.8px;font-family:'Roboto Medium',sans-serif">50</text><path  d="M 559 299
L 564 299" style="stroke-width:1;stroke:rgba(51,51,51,1.0);fill:none"/><text x="569" y="305" style="stroke-width:0;stroke:none;fill:rgba(51,51,51,1.0);font-size:12.8px;font-family:'Roboto Medium',sans-serif">60</text><path  d="M 559 227
L 564 227" style="stroke-width:1;stroke:rgba(51,51,51,1.0);fill:none"/><text x="569" y="233" style="stroke-width:0;stroke:none;fill:rgba(51,51,51,1.0);font-size:12.8px;font-family:'Roboto Medium',sans-serif">70</text><path  d="M 559 155
L 564 155" style="stroke-width:1;stroke:rgba(51,51,51,1.0);fill:none"/><text x="569" y="161" style="stroke-width:0;stroke:none;fill:rgba(51,51,51,1.0);font-size:12.8px;font-family:'Roboto Medium',sans-serif">80</text><path  d="M 559 83
L 564 83" style="stroke-width:1;stroke:rgba(51,51,51,1.0);fill:none"/><text x="569" y="89" style="stroke-width:0;stroke:none;fill:rgba(51,51,51,1.0);font-size:12.8px;font-family:'Roboto Medium',sans-serif">90</text><path  d="M 559 11
L 564 11" style="stroke-width:1;stroke:rgba(51,51,51,1.0);fill:none"/><text x="569" y="17" style="stroke-width:0;stroke:none;fill:rgba(51,51,51,1.0);font-size:12.8px;font-family:'Roboto Medium',sans-serif">100</text><text x="601" y="245" style="stroke-width:0;stroke:none;fill:rgba(51,51,51,1.0);font-size:12.8px;font-family:'Roboto Medium',sans-serif" transform="rotate(90.00,601,245)">Benchmarks</text><path  d="M 12 731
L 558 731" style="stroke-width:0;stroke:none;fill:none"/><path  d="M 12 515
L 558 515" style="stroke-width:0;stroke:none;fill:none"/><path  d="M 12 443
L 558 443" style="stroke-width:0;stroke:none;fill:none"/><path  d="M 12 371
L 558 371" style="stroke-width:0;stroke:none;fill:none"/><path  d="M 12 299
L 558 299" style="stroke-width:0;stroke:none;fill:none"/><path  d="M 12 227
L 558 227" style="stroke-width:0;stroke:none;fill:none"/><path  d="M 12 155
L 558 155" style="stroke-width:0;stroke:none;fill:none"/><path  d="M 12 83
L 558 83" style="stroke-width:0;stroke:none;fill:none"/><path  d="M 11 551
L 11 11" style="stroke-width:1;stroke:rgba(51,51,51,1.0);fill:none"/><path  d="M 11 -9223372036854775257
L 6 -9223372036854775257" style="stroke-width:1;stroke:rgba(51,51,51,1.0);fill:none"/><text x="-25" y="-9223372036854775251" style="stroke-width:0;stroke:none;fill:rgba(51,51,51,1.0);font-size:12.8px;font-family:'Roboto Medium',sans-serif">0.00</text><path  d="M 11 -9223372036854775257
L 6 -9223372036854775257" style="stroke-width:1;stroke:rgba(51,51,51,1.0);fill:none"/><text x="-25" y="-9223372036854775251" style="stroke-width:0;stroke:none;fill:rgba(51,51,51,1.0);font-size:12.8px;font-family:'Roboto Medium',sans-serif">0.00</text><path  d="M 11 -9223372036854775257
L 6 -9223372036854775257" style="stroke-width:1;stroke:rgba(51,51,51,1.0);fill:none"/><text x="-25" y="-9223372036854775251" style="stroke-width:0;stroke:none;fill:rgba(51,51,51,1.0);font-size:12.8px;font-family:'Roboto Medium',sans-serif">0.00</text><path  d="M 11 -9223372036854775257
L 6 -9223372036854775257" style="stroke-width:1;stroke:rgba(51,51,51,1.0);fill:none"/><text x="-25" y="-9223372036854775251" style="stroke-width:0;stroke:none;fill:rgba(51,51,51,1.0);font-size:12.8px;font-family:'Roboto Medium',sans-serif">0.00</text><path  d="M 11 -9223372036854775257
L 6 -9223372036854775257" style="stroke-width:1;stroke:rgba(51,51,51,1.0);fill:none"/><text x="-25" y="-9223372036854775251" style="stroke-width:0;stroke:none;fill:rgba(51,51,51,1.0);font-size:12.8px;font-family:'Roboto Medium',sans-serif">0.00</text><path  d="M 11 -9223372036854775257
L 6 -9223372036854775257" style="stroke-width:1;stroke:rgba(51,51,51,1.0);fill:none"/><text x="-25" y="-9223372036854775251" style="stroke-width:0;stroke:none;fill:rgba(51,51,51,1.0);font-size:12.8px;font-family:'Roboto Medium',sans-serif">0.00</text><path  d="M 11 -9223372036854775257
L 6 -9223372036854775257" style="stroke-width:1;stroke:rgba(51,51,51,1.0);fill:none"/><text x="-25" y="-9223372036854775251" style="stroke-width:0;stroke:none;fill:rgba(51,51,51,1.0);font-size:12.8px;font-family:'Roboto Medium',sans-serif">0.00</text><path  d="M 11 -9223372036854775257
L 6 -9223372036854775257" style="stroke-width:1;stroke:rgba(51,51,51,1.0);fill:none"/><text x="-25" y="-9223372036854775251" style="stroke-width:0;stroke:none;fill:rgba(51,51,51,1.0);font-size:12.8px;font-family:'Roboto Medium',sans-serif">0.00</text><path  d="M 11 -9223372036854775257
L 6 -9223372036854775257" style="stroke-width:1;stroke:rgba(51,51,51,1.0);fill:none"/><text x="-25" y="-9223372036854775251" style="stroke-width:0;stroke:none;fill:rgba(51,51,51,1.0);font-size:12.8px;font-family:'Roboto Medium',sans-serif">0.00</text><path  d="M 11 -9223372036854775257
L 6 -9223372036854775257" style="stroke-width:1;stroke:rgba(51,51,51,1.0);fill:none"/><text x="-25" y="-9223372036854775251" style="stroke-width:0;stroke:none;fill:rgba(51,51,51,1.0);font-size:12.8px;font-family:'Roboto Medium',sans-serif">0.00</text><path  d="M 11 -9223372036854775257
L 6 -9223372036854775257" style="stroke-width:1;stroke:rgba(51,51,51,1.0);fill:none"/><text x="-25" y="-9223372036854775251" style="stroke-width:0;stroke:none;fill:rgba(51,51,51,1.0);font-size:12.8px;font-family:'Roboto Medium',sans-serif">0.00</text><path  d="M 11 -9223372036854775257
L 6 -9223372036854775257" style="stroke-width:1;stroke:rgba(51,51,51,1.0);fill:none"/><text x="-25" y="-9223372036854775251" style="stroke-width:0;stroke:none;fill:rgba(51,51,51,1.0);font-size:12.8px;font-family:'Roboto Medium',sans-serif">0.00</text><path  d="M 11 -9223372036854775257
L 6 -9223372036854775257" style="stroke-width:1;stroke:rgba(51,51,51,1.0);fill:none"/><text x="-25" y="-9223372036854775251" style="stroke-width:0;stroke:none;fill:rgba(51,51,51,1.0);font-size:12.8px;font-family:'Roboto Medium',sans-serif">0.00</text><path  d="M 11 -9223372036854775257
L 6 -9223372036854775257" style="stroke-width:1;stroke:rgba(51,51,51,1.0);fill:none"/><text x="-25" y="-9223372036854775251" style="stroke-width:0;stroke:none;fill:rgba(51,51,51,1.0);font-size:12.8px;font-family:'Roboto Medium',sans-serif">0.00</text><path  d="M 11 -9223372036854775257
L 6 -9223372036854775257" style="stroke-width:1;stroke:rgba(51,51,51,1.0);fill:none"/><text x="-25" y="-9223372036854775251" style="stroke-width:0;stroke:none;fill:rgba(51,51,51,1.0);font-size:12.8px;font-family:'Roboto Medium',sans-serif">0.00</text><path  d="M 12 -9223372036854775257
L 558 -9223372036854775257" style="stroke-width:0;stroke:none;fill:none"/><path  d="M 12 -9223372036854775257
L 558 -9223372036854775257" style="stroke-width:0;stroke:none;fill:none"/><path  d="M 12 -9223372036854775257
L 558 -9223372036854775257" style="stroke-width:0;stroke:none;fill:none"/><path  d="M 12 -9223372036854775257
L 558 -9223372036854775257" style="stroke-width:0;stroke:none;fill:none"/><path  d="M 12 -9223372036854775257
L 558 -9223372036854775257" style="stroke-width:0;stroke:none;fill:none"/><path  d="M 12 -9223372036854775257
L 558 -9223372036854775257" style="stroke-width:0;stroke:none;fill:none"/><path  d="M 12 -9223372036854775257
L 558 -9223372036854775257" style="stroke-width:0;stroke:none;fill:none"/><path  d="M 12 -9223372036854775257
L 558 -9223372036854775257" style="stroke-width:0;stroke:none;fill:none"/><path  d="M 12 -9223372036854775257
L 558 -9223372036854775257" style="stroke-width:0;stroke:none;fill:none"/><path  d="M 12 -9223372036854775257
L 558 -9223372036854775257" style="stroke-width:0;stroke:none;fill:none"/><path  d="M 12 -9223372036854775257
L 558 -9223372036854775257" style="stroke-width:0;stroke:none;fill:none"/><path  d="M 12 -9223372036854775257
L 558 -9223372036854775257" style="stroke-width:0;stroke:none;fill:none"/><path  d="M 12 -9223372036854775257
L 558 -9223372036854775257" style="stroke-width:0;stroke:none;fill:none"/><path  d="M 12 -9223372036854775257
L 558 -9223372036854775257" style="stroke-width:0;stroke:none;fill:none"/><path  d="M 549 32
L 613 102" style="stroke-width:1;stroke:rgba(63,63,63,0.2);fill:none"/><path  d="M 558 101
L 613 132" style="stroke-width:1;stroke:rgba(63,63,63,0.2);fill:none"/><path  d="M 526 341
L 613 162" style="stroke-width:1;stroke:rgba(63,63,63,0.2);fill:none"/><path  d="M 558 342
L 613 192" style="stroke-width:1;stroke:rgba(63,63,63,0.2);fill:none"/><path  d="M 526 358
L 613 221" style="stroke-width:1;stroke:rgba(63,63,63,0.2);fill:none"/><path  d="M 526 358
L 613 251" style="stroke-width:1;stroke:rgba(63,63,63,0.2);fill:none"/><path  d="M 194 11
L 194 371
L 558 371" style="stroke-width:1;stroke:rgba(255,0,127,0.2);fill:none"/><path  d="M 376 11
L 376 191
L 558 191" style="stroke-width:1;stroke:rgba(255,0,127,0.2);fill:none"/><path  d="M 486 371
L 496 360
L 530 360
L 530 382
L 496 382
L 486 371
Z" style="stroke-width:1;stroke:rgba(255,0,127,0.2);fill:rgba(255,255,255,1.0)"/><text x="501" y="377" style="stroke-width:0;stroke:none;fill:rgba(51,51,51,1.0);font-size:12.8px;font-family:'Roboto Medium',sans-serif">Half</text><path  d="M 486 191
L 496 180
L 549 180
L 549 202
L 496 202
L 486 191
Z" style="stroke-width:1;stroke:rgba(255,0,127,0.2);fill:rgba(255,255,255,1.0)"/><text x="501" y="197" style="stroke-width:0;stroke:none;fill:rgba(51,51,51,1.0);font-size:12.8px;font-family:'Roboto Medium',sans-serif">Quarter</text><circle cx="549" cy="32" r="5" style="stroke-width:1;stroke:rgba(7,247,0,1.0);fill:rgba(7,247,0,1.0)"/><path  d="" style="stroke-width:1;stroke:rgba(7,247,0,1.0);fill:rgba(7,247,0,1.0)"/><circle cx="558" cy="101" r="5" style="stroke-width:1;stroke:rgba(20,224,0,1.0);fill:rgba(20,224,0,1.0)"/><path  d="" style="stroke-width:1;stroke:rgba(20,224,0,1.0);fill:rgba(20,224,0,1.0)"/><circle cx="526" cy="341" r="5" style="stroke-width:1;stroke:rgba(71,144,0,1.0);fill:rgba(71,144,0,1.0)"/><path  d="" style="stroke-width:1;stroke:rgba(71,144,0,1.0);fill:rgba(71,144,0,1.0)"/><circle cx="558" cy="342" r="5" style="stroke-width:1;stroke:rgba(61,144,0,1.0);fill:rgba(61,144,0,1.0)"/><path  d="" style="stroke-width:1;stroke:rgba(61,144,0,1.0);fill:rgba(61,144,0,1.0)"/><circle cx="526" cy="358" r="5" style="stroke-width:1;stroke:rgba(73,138,0,1.0);fill:rgba(73,138,0,1.0)"/><path  d="" style="stroke-width:1;stroke:rgba(73,138,0,1.0);fill:rgba(73,138,0,1.0)"/><circle cx="526" cy="358" r="5" style="stroke-width:1;stroke:rgba(73,138,0,1.0);fill:rgba(73,138,0,1.0)"/><path  d="" style="stroke-width:1;stroke:rgba(73,138,0,1.0);fill:rgba(73,138,0,1.0)"/><path  d="M 613 102
L 623 91
L 741 91
L 741 113
L 623 113
L 613 102
Z" style="stroke-width:1;stroke:rgba(63,127,255,1.0);fill:rgba(255,255,255,1.0)"/><text x="628" y="108" style="stroke-width:0;stroke:none;fill:rgba(51,51,51,1.0);font-size:12.8px;font-family:'Roboto Medium',sans-serif">slog/JSONHandler</text><path  d="M 613 132
L 623 121
L 695 121
L 695 143
L 623 143
L 613 132
Z" style="stroke-width:1;stroke:rgba(63,127,255,1.0);fill:rgba(255,255,255,1.0)"/><text x="628" y="138" style="stroke-width:0;stroke:none;fill:rgba(51,51,51,1.0);font-size:12.8px;font-family:'Roboto Medium',sans-serif">snqk/meld</text><path  d="M 613 162
L 623 151
L 754 151
L 754 173
L 623 173
L 613 162
Z" style="stroke-width:1;stroke:rgba(63,127,255,1.0);fill:rgba(255,255,255,1.0)"/><text x="628" y="168" style="stroke-width:0;stroke:none;fill:rgba(51,51,51,1.0);font-size:12.8px;font-family:'Roboto Medium',sans-serif">veqryn/dedup/Ignore</text><path  d="M 613 192
L 623 181
L 772 181
L 772 203
L 623 203
L 613 192
Z" style="stroke-width:1;stroke:rgba(63,127,255,1.0);fill:rgba(255,255,255,1.0)"/><text x="628" y="198" style="stroke-width:0;stroke:none;fill:rgba(51,51,51,1.0);font-size:12.8px;font-family:'Roboto Medium',sans-serif">veqryn/dedup/Overwrite</text><path  d="M 613 221
L 623 210
L 776 210
L 776 232
L 623 232
L 613 221
Z" style="stroke-width:1;stroke:rgba(63,127,255,1.0);fill:rgba(255,255,255,1.0)"/><text x="628" y="227" style="stroke-width:0;stroke:none;fill:rgba(51,51,51,1.0);font-size:12.8px;font-family:'Roboto Medium',sans-serif">veqryn/dedup/Increment</text><path  d="M 613 251
L 623 240
L 762 240
L 762 262
L 623 262
L 613 251
Z" style="stroke-width:1;stroke:rgba(63,127,255,1.0);fill:rgba(255,255,255,1.0)"/><text x="628" y="257" style="stroke-width:0;stroke:none;fill:rgba(51,51,51,1.0);font-size:12.8px;font-family:'Roboto Medium',sans-serif">veqryn/dedup/Append</text></svg>