<svg xmlns="http://www.w3.org/2000/svg" xmlns:xlink="http://www.w3.org/1999/xlink" width="400" height="240">\n<path  d="M 0 0
L 400 0
L 400 240
L 0 240
L 0 0" style="stroke-width:0;stroke:none;fill:rgba(255,255,255,1.0)"/><text x="10" y="25" style="stroke-width:0;stroke:none;fill:rgba(70,70,70,1.0);font-size:15.3px;font-family:'Roboto Medium',sans-serif">Bytes allocated per operation</text><path  d="M 115 45
L 120 45" style="stroke-width:1;stroke:rgba(110,112,121,1.0);fill:none"/><path  d="M 115 67
L 120 67" style="stroke-width:1;stroke:rgba(110,112,121,1.0);fill:none"/><path  d="M 115 89
L 120 89" style="stroke-width:1;stroke:rgba(110,112,121,1.0);fill:none"/><path  d="M 115 111
L 120 111" style="stroke-width:1;stroke:rgba(110,112,121,1.0);fill:none"/><path  d="M 115 133
L 120 133" style="stroke-width:1;stroke:rgba(110,112,121,1.0);fill:none"/><path  d="M 115 155
L 120 155" style="stroke-width:1;stroke:rgba(110,112,121,1.0);fill:none"/><path  d="M 115 177
L 120 177" style="stroke-width:1;stroke:rgba(110,112,121,1.0);fill:none"/><path  d="M 115 200
L 120 200" style="stroke-width:1;stroke:rgba(110,112,121,1.0);fill:none"/><path  d="M 120 45
L 120 200" style="stroke-width:1;stroke:rgba(110,112,121,1.0);fill:none"/><text x="10" y="63" style="stroke-width:0;stroke:none;fill:rgba(70,70,70,1.0);font-size:15.3px;font-family:'Roboto Medium',sans-serif">Simple Source</text><text x="62" y="85" style="stroke-width:0;stroke:none;fill:rgba(70,70,70,1.0);font-size:15.3px;font-family:'Roboto Medium',sans-serif">Simple</text><text x="54" y="107" style="stroke-width:0;stroke:none;fill:rgba(70,70,70,1.0);font-size:15.3px;font-family:'Roboto Medium',sans-serif">Logging</text><text x="34" y="129" style="stroke-width:0;stroke:none;fill:rgba(70,70,70,1.0);font-size:15.3px;font-family:'Roboto Medium',sans-serif">Key Values</text><text x="50" y="151" style="stroke-width:0;stroke:none;fill:rgba(70,70,70,1.0);font-size:15.3px;font-family:'Roboto Medium',sans-serif">Disabled</text><text x="42" y="173" style="stroke-width:0;stroke:none;fill:rgba(70,70,70,1.0);font-size:15.3px;font-family:'Roboto Medium',sans-serif">Big Group</text><text x="41" y="195" style="stroke-width:0;stroke:none;fill:rgba(70,70,70,1.0);font-size:15.3px;font-family:'Roboto Medium',sans-serif">Attributes</text><text x="116" y="225" style="stroke-width:0;stroke:none;fill:rgba(70,70,70,1.0);font-size:15.3px;font-family:'Roboto Medium',sans-serif">0</text><text x="178" y="225" style="stroke-width:0;stroke:none;fill:rgba(70,70,70,1.0);font-size:15.3px;font-family:'Roboto Medium',sans-serif">230.48k</text><text x="265" y="225" style="stroke-width:0;stroke:none;fill:rgba(70,70,70,1.0);font-size:15.3px;font-family:'Roboto Medium',sans-serif">460.96k</text><text x="352" y="225" style="stroke-width:0;stroke:none;fill:rgba(70,70,70,1.0);font-size:15.3px;font-family:'Roboto Medium',sans-serif">691.44k</text><path  d="M 163 45
L 163 200" style="stroke-width:1;stroke:rgba(224,230,242,1.0);fill:none"/><path  d="M 206 45
L 206 200" style="stroke-width:1;stroke:rgba(224,230,242,1.0);fill:none"/><path  d="M 250 45
L 250 200" style="stroke-width:1;stroke:rgba(224,230,242,1.0);fill:none"/><path  d="M 293 45
L 293 200" style="stroke-width:1;stroke:rgba(224,230,242,1.0);fill:none"/><path  d="M 336 45
L 336 200" style="stroke-width:1;stroke:rgba(224,230,242,1.0);fill:none"/><path  d="M 380 45
L 380 200" style="stroke-width:1;stroke:rgba(224,230,242,1.0);fill:none"/><path  d="M 120 182
L 121 182
L 121 194
L 120 194
L 120 182" style="stroke-width:0;stroke:none;fill:rgba(84,112,198,1.0)"/><path  d="M 120 160
L 356 160
L 356 172
L 120 172
L 120 160" style="stroke-width:0;stroke:none;fill:rgba(84,112,198,1.0)"/><path  d="M 120 138
L 120 138
L 120 150
L 120 150
L 120 138" style="stroke-width:0;stroke:none;fill:rgba(84,112,198,1.0)"/><path  d="M 120 116
L 122 116
L 122 128
L 120 128
L 120 116" style="stroke-width:0;stroke:none;fill:rgba(84,112,198,1.0)"/><path  d="M 120 94
L 150 94
L 150 106
L 120 106
L 120 94" style="stroke-width:0;stroke:none;fill:rgba(84,112,198,1.0)"/><path  d="M 120 72
L 120 72
L 120 84
L 120 84
L 120 72" style="stroke-width:0;stroke:none;fill:rgba(84,112,198,1.0)"/><path  d="M 120 50
L 120 50
L 120 62
L 120 62
L 120 50" style="stroke-width:0;stroke:none;fill:rgba(84,112,198,1.0)"/></svg>