<svg xmlns="http://www.w3.org/2000/svg" xmlns:xlink="http://www.w3.org/1999/xlink" width="800" height="600">\n<path  d="M 0 0
L 800 0
L 800 600
L 0 600
L 0 0" style="stroke-width:0;stroke:rgba(255,255,255,1.0);fill:rgba(255,255,255,1.0)"/><path  d="M 12 11
L 593 11
L 593 551
L 12 551
L 12 11" style="stroke-width:0;stroke:rgba(255,255,255,1.0);fill:rgba(255,255,255,1.0)"/><path  d="M 12 551
L 593 551" style="stroke-width:1;stroke:rgba(51,51,51,1.0);fill:none"/><path  d="M 12 551
L 12 556" style="stroke-width:1;stroke:rgba(51,51,51,1.0);fill:none"/><text x="5" y="573" style="stroke-width:0;stroke:none;fill:rgba(51,51,51,1.0);font-size:12.8px;font-family:'Roboto Medium',sans-serif">75</text><path  d="M 36 551
L 36 556" style="stroke-width:1;stroke:rgba(51,51,51,1.0);fill:none"/><text x="29" y="573" style="stroke-width:0;stroke:none;fill:rgba(51,51,51,1.0);font-size:12.8px;font-family:'Roboto Medium',sans-serif">76</text><path  d="M 82 551
L 82 556" style="stroke-width:1;stroke:rgba(51,51,51,1.0);fill:none"/><text x="75" y="573" style="stroke-width:0;stroke:none;fill:rgba(51,51,51,1.0);font-size:12.8px;font-family:'Roboto Medium',sans-serif">78</text><path  d="M 129 551
L 129 556" style="stroke-width:1;stroke:rgba(51,51,51,1.0);fill:none"/><text x="122" y="573" style="stroke-width:0;stroke:none;fill:rgba(51,51,51,1.0);font-size:12.8px;font-family:'Roboto Medium',sans-serif">80</text><path  d="M 175 551
L 175 556" style="stroke-width:1;stroke:rgba(51,51,51,1.0);fill:none"/><text x="168" y="573" style="stroke-width:0;stroke:none;fill:rgba(51,51,51,1.0);font-size:12.8px;font-family:'Roboto Medium',sans-serif">82</text><path  d="M 222 551
L 222 556" style="stroke-width:1;stroke:rgba(51,51,51,1.0);fill:none"/><text x="215" y="573" style="stroke-width:0;stroke:none;fill:rgba(51,51,51,1.0);font-size:12.8px;font-family:'Roboto Medium',sans-serif">84</text><path  d="M 268 551
L 268 556" style="stroke-width:1;stroke:rgba(51,51,51,1.0);fill:none"/><text x="261" y="573" style="stroke-width:0;stroke:none;fill:rgba(51,51,51,1.0);font-size:12.8px;font-family:'Roboto Medium',sans-serif">86</text><path  d="M 315 551
L 315 556" style="stroke-width:1;stroke:rgba(51,51,51,1.0);fill:none"/><text x="308" y="573" style="stroke-width:0;stroke:none;fill:rgba(51,51,51,1.0);font-size:12.8px;font-family:'Roboto Medium',sans-serif">88</text><path  d="M 361 551
L 361 556" style="stroke-width:1;stroke:rgba(51,51,51,1.0);fill:none"/><text x="354" y="573" style="stroke-width:0;stroke:none;fill:rgba(51,51,51,1.0);font-size:12.8px;font-family:'Roboto Medium',sans-serif">90</text><path  d="M 408 551
L 408 556" style="stroke-width:1;stroke:rgba(51,51,51,1.0);fill:none"/><text x="401" y="573" style="stroke-width:0;stroke:none;fill:rgba(51,51,51,1.0);font-size:12.8px;font-family:'Roboto Medium',sans-serif">92</text><path  d="M 454 551
L 454 556" style="stroke-width:1;stroke:rgba(51,51,51,1.0);fill:none"/><text x="447" y="573" style="stroke-width:0;stroke:none;fill:rgba(51,51,51,1.0);font-size:12.8px;font-family:'Roboto Medium',sans-serif">94</text><path  d="M 501 551
L 501 556" style="stroke-width:1;stroke:rgba(51,51,51,1.0);fill:none"/><text x="494" y="573" style="stroke-width:0;stroke:none;fill:rgba(51,51,51,1.0);font-size:12.8px;font-family:'Roboto Medium',sans-serif">96</text><path  d="M 547 551
L 547 556" style="stroke-width:1;stroke:rgba(51,51,51,1.0);fill:none"/><text x="540" y="573" style="stroke-width:0;stroke:none;fill:rgba(51,51,51,1.0);font-size:12.8px;font-family:'Roboto Medium',sans-serif">98</text><path  d="M 593 551
L 593 556" style="stroke-width:1;stroke:rgba(51,51,51,1.0);fill:none"/><text x="582" y="573" style="stroke-width:0;stroke:none;fill:rgba(51,51,51,1.0);font-size:12.8px;font-family:'Roboto Medium',sans-serif">100</text><text x="276" y="595" style="stroke-width:0;stroke:none;fill:rgba(51,51,51,1.0);font-size:12.8px;font-family:'Roboto Medium',sans-serif">Warnings</text><path  d="M 36 551
L 36 11" style="stroke-width:0;stroke:none;fill:none"/><path  d="M 82 551
L 82 11" style="stroke-width:0;stroke:none;fill:none"/><path  d="M 129 551
L 129 11" style="stroke-width:0;stroke:none;fill:none"/><path  d="M 175 551
L 175 11" style="stroke-width:0;stroke:none;fill:none"/><path  d="M 222 551
L 222 11" style="stroke-width:0;stroke:none;fill:none"/><path  d="M 268 551
L 268 11" style="stroke-width:0;stroke:none;fill:none"/><path  d="M 315 551
L 315 11" style="stroke-width:0;stroke:none;fill:none"/><path  d="M 361 551
L 361 11" style="stroke-width:0;stroke:none;fill:none"/><path  d="M 408 551
L 408 11" style="stroke-width:0;stroke:none;fill:none"/><path  d="M 454 551
L 454 11" style="stroke-width:0;stroke:none;fill:none"/><path  d="M 501 551
L 501 11" style="stroke-width:0;stroke:none;fill:none"/><path  d="M 547 551
L 547 11" style="stroke-width:0;stroke:none;fill:none"/><path  d="M 594 551
L 594 11" style="stroke-width:1;stroke:rgba(51,51,51,1.0);fill:none"/><path  d="M 594 551
L 599 551" style="stroke-width:1;stroke:rgba(51,51,51,1.0);fill:none"/><text x="604" y="557" style="stroke-width:0;stroke:none;fill:rgba(51,51,51,1.0);font-size:12.8px;font-family:'Roboto Medium',sans-serif">75</text><path  d="M 594 529
L 599 529" style="stroke-width:1;stroke:rgba(51,51,51,1.0);fill:none"/><text x="604" y="535" style="stroke-width:0;stroke:none;fill:rgba(51,51,51,1.0);font-size:12.8px;font-family:'Roboto Medium',sans-serif">76</text><path  d="M 594 486
L 599 486" style="stroke-width:1;stroke:rgba(51,51,51,1.0);fill:none"/><text x="604" y="492" style="stroke-width:0;stroke:none;fill:rgba(51,51,51,1.0);font-size:12.8px;font-family:'Roboto Medium',sans-serif">78</text><path  d="M 594 443
L 599 443" style="stroke-width:1;stroke:rgba(51,51,51,1.0);fill:none"/><text x="604" y="449" style="stroke-width:0;stroke:none;fill:rgba(51,51,51,1.0);font-size:12.8px;font-family:'Roboto Medium',sans-serif">80</text><path  d="M 594 399
L 599 399" style="stroke-width:1;stroke:rgba(51,51,51,1.0);fill:none"/><text x="604" y="405" style="stroke-width:0;stroke:none;fill:rgba(51,51,51,1.0);font-size:12.8px;font-family:'Roboto Medium',sans-serif">82</text><path  d="M 594 356
L 599 356" style="stroke-width:1;stroke:rgba(51,51,51,1.0);fill:none"/><text x="604" y="362" style="stroke-width:0;stroke:none;fill:rgba(51,51,51,1.0);font-size:12.8px;font-family:'Roboto Medium',sans-serif">84</text><path  d="M 594 313
L 599 313" style="stroke-width:1;stroke:rgba(51,51,51,1.0);fill:none"/><text x="604" y="319" style="stroke-width:0;stroke:none;fill:rgba(51,51,51,1.0);font-size:12.8px;font-family:'Roboto Medium',sans-serif">86</text><path  d="M 594 270
L 599 270" style="stroke-width:1;stroke:rgba(51,51,51,1.0);fill:none"/><text x="604" y="276" style="stroke-width:0;stroke:none;fill:rgba(51,51,51,1.0);font-size:12.8px;font-family:'Roboto Medium',sans-serif">88</text><path  d="M 594 227
L 599 227" style="stroke-width:1;stroke:rgba(51,51,51,1.0);fill:none"/><text x="604" y="233" style="stroke-width:0;stroke:none;fill:rgba(51,51,51,1.0);font-size:12.8px;font-family:'Roboto Medium',sans-serif">90</text><path  d="M 594 183
L 599 183" style="stroke-width:1;stroke:rgba(51,51,51,1.0);fill:none"/><text x="604" y="189" style="stroke-width:0;stroke:none;fill:rgba(51,51,51,1.0);font-size:12.8px;font-family:'Roboto Medium',sans-serif">92</text><path  d="M 594 140
L 599 140" style="stroke-width:1;stroke:rgba(51,51,51,1.0);fill:none"/><text x="604" y="146" style="stroke-width:0;stroke:none;fill:rgba(51,51,51,1.0);font-size:12.8px;font-family:'Roboto Medium',sans-serif">94</text><path  d="M 594 97
L 599 97" style="stroke-width:1;stroke:rgba(51,51,51,1.0);fill:none"/><text x="604" y="103" style="stroke-width:0;stroke:none;fill:rgba(51,51,51,1.0);font-size:12.8px;font-family:'Roboto Medium',sans-serif">96</text><path  d="M 594 54
L 599 54" style="stroke-width:1;stroke:rgba(51,51,51,1.0);fill:none"/><text x="604" y="60" style="stroke-width:0;stroke:none;fill:rgba(51,51,51,1.0);font-size:12.8px;font-family:'Roboto Medium',sans-serif">98</text><path  d="M 594 11
L 599 11" style="stroke-width:1;stroke:rgba(51,51,51,1.0);fill:none"/><text x="604" y="17" style="stroke-width:0;stroke:none;fill:rgba(51,51,51,1.0);font-size:12.8px;font-family:'Roboto Medium',sans-serif">100</text><text x="636" y="245" style="stroke-width:0;stroke:none;fill:rgba(51,51,51,1.0);font-size:12.8px;font-family:'Roboto Medium',sans-serif" transform="rotate(90.00,636,245)">Benchmarks</text><path  d="M 12 2171
L 593 2171" style="stroke-width:0;stroke:none;fill:none"/><path  d="M 12 529
L 593 529" style="stroke-width:0;stroke:none;fill:none"/><path  d="M 12 486
L 593 486" style="stroke-width:0;stroke:none;fill:none"/><path  d="M 12 443
L 593 443" style="stroke-width:0;stroke:none;fill:none"/><path  d="M 12 399
L 593 399" style="stroke-width:0;stroke:none;fill:none"/><path  d="M 12 356
L 593 356" style="stroke-width:0;stroke:none;fill:none"/><path  d="M 12 313
L 593 313" style="stroke-width:0;stroke:none;fill:none"/><path  d="M 12 270
L 593 270" style="stroke-width:0;stroke:none;fill:none"/><path  d="M 12 227
L 593 227" style="stroke-width:0;stroke:none;fill:none"/><path  d="M 12 183
L 593 183" style="stroke-width:0;stroke:none;fill:none"/><path  d="M 12 140
L 593 140" style="stroke-width:0;stroke:none;fill:none"/><path  d="M 12 97
L 593 97" style="stroke-width:0;stroke:none;fill:none"/><path  d="M 12 54
L 593 54" style="stroke-width:0;stroke:none;fill:none"/><path  d="M 11 551
L 11 11" style="stroke-width:1;stroke:rgba(51,51,51,1.0);fill:none"/><path  d="M 11 -9223372036854775257
L 6 -9223372036854775257" style="stroke-width:1;stroke:rgba(51,51,51,1.0);fill:none"/><text x="-25" y="-9223372036854775251" style="stroke-width:0;stroke:none;fill:rgba(51,51,51,1.0);font-size:12.8px;font-family:'Roboto Medium',sans-serif">0.00</text><path  d="M 11 -9223372036854775257
L 6 -9223372036854775257" style="stroke-width:1;stroke:rgba(51,51,51,1.0);fill:none"/><text x="-25" y="-9223372036854775251" style="stroke-width:0;stroke:none;fill:rgba(51,51,51,1.0);font-size:12.8px;font-family:'Roboto Medium',sans-serif">0.00</text><path  d="M 11 -9223372036854775257
L 6 -9223372036854775257" style="stroke-width:1;stroke:rgba(51,51,51,1.0);fill:none"/><text x="-25" y="-9223372036854775251" style="stroke-width:0;stroke:none;fill:rgba(51,51,51,1.0);font-size:12.8px;font-family:'Roboto Medium',sans-serif">0.00</text><path  d="M 11 -9223372036854775257
L 6 -9223372036854775257" style="stroke-width:1;stroke:rgba(51,51,51,1.0);fill:none"/><text x="-25" y="-9223372036854775251" style="stroke-width:0;stroke:none;fill:rgba(51,51,51,1.0);font-size:12.8px;font-family:'Roboto Medium',sans-serif">0.00</text><path  d="M 11 -9223372036854775257
L 6 -9223372036854775257" style="stroke-width:1;stroke:rgba(51,51,51,1.0);fill:none"/><text x="-25" y="-9223372036854775251" style="stroke-width:0;stroke:none;fill:rgba(51,51,51,1.0);font-size:12.8px;font-family:'Roboto Medium',sans-serif">0.00</text><path  d="M 11 -9223372036854775257
L 6 -9223372036854775257" style="stroke-width:1;stroke:rgba(51,51,51,1.0);fill:none"/><text x="-25" y="-9223372036854775251" style="stroke-width:0;stroke:none;fill:rgba(51,51,51,1.0);font-size:12.8px;font-family:'Roboto Medium',sans-serif">0.00</text><path  d="M 11 -9223372036854775257
L 6 -9223372036854775257" style="stroke-width:1;stroke:rgba(51,51,51,1.0);fill:none"/><text x="-25" y="-9223372036854775251" style="stroke-width:0;stroke:none;fill:rgba(51,51,51,1.0);font-size:12.8px;font-family:'Roboto Medium',sans-serif">0.00</text><path  d="M 11 -9223372036854775257
L 6 -9223372036854775257" style="stroke-width:1;stroke:rgba(51,51,51,1.0);fill:none"/><text x="-25" y="-9223372036854775251" style="stroke-width:0;stroke:none;fill:rgba(51,51,51,1.0);font-size:12.8px;font-family:'Roboto Medium',sans-serif">0.00</text><path  d="M 11 -9223372036854775257
L 6 -9223372036854775257" style="stroke-width:1;stroke:rgba(51,51,51,1.0);fill:none"/><text x="-25" y="-9223372036854775251" style="stroke-width:0;stroke:none;fill:rgba(51,51,51,1.0);font-size:12.8px;font-family:'Roboto Medium',sans-serif">0.00</text><path  d="M 11 -9223372036854775257
L 6 -9223372036854775257" style="stroke-width:1;stroke:rgba(51,51,51,1.0);fill:none"/><text x="-25" y="-9223372036854775251" style="stroke-width:0;stroke:none;fill:rgba(51,51,51,1.0);font-size:12.8px;font-family:'Roboto Medium',sans-serif">0.00</text><path  d="M 11 -9223372036854775257
L 6 -9223372036854775257" style="stroke-width:1;stroke:rgba(51,51,51,1.0);fill:none"/><text x="-25" y="-9223372036854775251" style="stroke-width:0;stroke:none;fill:rgba(51,51,51,1.0);font-size:12.8px;font-family:'Roboto Medium',sans-serif">0.00</text><path  d="M 11 -9223372036854775257
L 6 -9223372036854775257" style="stroke-width:1;stroke:rgba(51,51,51,1.0);fill:none"/><text x="-25" y="-9223372036854775251" style="stroke-width:0;stroke:none;fill:rgba(51,51,51,1.0);font-size:12.8px;font-family:'Roboto Medium',sans-serif">0.00</text><path  d="M 11 -9223372036854775257
L 6 -9223372036854775257" style="stroke-width:1;stroke:rgba(51,51,51,1.0);fill:none"/><text x="-25" y="-9223372036854775251" style="stroke-width:0;stroke:none;fill:rgba(51,51,51,1.0);font-size:12.8px;font-family:'Roboto Medium',sans-serif">0.00</text><path  d="M 11 -9223372036854775257
L 6 -9223372036854775257" style="stroke-width:1;stroke:rgba(51,51,51,1.0);fill:none"/><text x="-25" y="-9223372036854775251" style="stroke-width:0;stroke:none;fill:rgba(51,51,51,1.0);font-size:12.8px;font-family:'Roboto Medium',sans-serif">0.00</text><path  d="M 11 -9223372036854775257
L 6 -9223372036854775257" style="stroke-width:1;stroke:rgba(51,51,51,1.0);fill:none"/><text x="-25" y="-9223372036854775251" style="stroke-width:0;stroke:none;fill:rgba(51,51,51,1.0);font-size:12.8px;font-family:'Roboto Medium',sans-serif">0.00</text><path  d="M 12 -9223372036854775257
L 593 -9223372036854775257" style="stroke-width:0;stroke:none;fill:none"/><path  d="M 12 -9223372036854775257
L 593 -9223372036854775257" style="stroke-width:0;stroke:none;fill:none"/><path  d="M 12 -9223372036854775257
L 593 -9223372036854775257" style="stroke-width:0;stroke:none;fill:none"/><path  d="M 12 -9223372036854775257
L 593 -9223372036854775257" style="stroke-width:0;stroke:none;fill:none"/><path  d="M 12 -9223372036854775257
L 593 -9223372036854775257" style="stroke-width:0;stroke:none;fill:none"/><path  d="M 12 -9223372036854775257
L 593 -9223372036854775257" style="stroke-width:0;stroke:none;fill:none"/><path  d="M 12 -9223372036854775257
L 593 -9223372036854775257" style="stroke-width:0;stroke:none;fill:none"/><path  d="M 12 -9223372036854775257
L 593 -9223372036854775257" style="stroke-width:0;stroke:none;fill:none"/><path  d="M 12 -9223372036854775257
L 593 -9223372036854775257" style="stroke-width:0;stroke:none;fill:none"/><path  d="M 12 -9223372036854775257
L 593 -9223372036854775257" style="stroke-width:0;stroke:none;fill:none"/><path  d="M 12 -9223372036854775257
L 593 -9223372036854775257" style="stroke-width:0;stroke:none;fill:none"/><path  d="M 12 -9223372036854775257
L 593 -9223372036854775257" style="stroke-width:0;stroke:none;fill:none"/><path  d="M 12 -9223372036854775257
L 593 -9223372036854775257" style="stroke-width:0;stroke:none;fill:none"/><path  d="M 12 -9223372036854775257
L 593 -9223372036854775257" style="stroke-width:0;stroke:none;fill:none"/><path  d="M 558 11
L 652 52" style="stroke-width:1;stroke:rgba(63,63,63,0.2);fill:none"/><path  d="M 558 74
L 652 112" style="stroke-width:1;stroke:rgba(63,63,63,0.2);fill:none"/><path  d="M 558 107
L 652 173" style="stroke-width:1;stroke:rgba(63,63,63,0.2);fill:none"/><path  d="M 558 356
L 652 233" style="stroke-width:1;stroke:rgba(63,63,63,0.2);fill:none"/><circle cx="558" cy="11" r="5" style="stroke-width:1;stroke:rgba(7,243,0,1.0);fill:rgba(7,243,0,1.0)"/><path  d="" style="stroke-width:1;stroke:rgba(7,243,0,1.0);fill:rgba(7,243,0,1.0)"/><circle cx="558" cy="74" r="5" style="stroke-width:1;stroke:rgba(22,231,0,1.0);fill:rgba(22,231,0,1.0)"/><path  d="" style="stroke-width:1;stroke:rgba(22,231,0,1.0);fill:rgba(22,231,0,1.0)"/><circle cx="558" cy="107" r="5" style="stroke-width:1;stroke:rgba(30,220,0,1.0);fill:rgba(30,220,0,1.0)"/><path  d="" style="stroke-width:1;stroke:rgba(30,220,0,1.0);fill:rgba(30,220,0,1.0)"/><circle cx="558" cy="356" r="5" style="stroke-width:1;stroke:rgba(73,139,0,1.0);fill:rgba(73,139,0,1.0)"/><path  d="" style="stroke-width:1;stroke:rgba(73,139,0,1.0);fill:rgba(73,139,0,1.0)"/><path  d="M 652 52
L 662 41
L 740 41
L 740 63
L 662 63
L 652 52
Z" style="stroke-width:1;stroke:rgba(63,127,255,1.0);fill:rgba(255,255,255,1.0)"/><text x="667" y="58" style="stroke-width:0;stroke:none;fill:rgba(51,51,51,1.0);font-size:12.8px;font-family:'Roboto Medium',sans-serif">phuslu/slog</text><path  d="M 652 112
L 662 101
L 780 101
L 780 123
L 662 123
L 652 112
Z" style="stroke-width:1;stroke:rgba(63,127,255,1.0);fill:rgba(255,255,255,1.0)"/><text x="667" y="118" style="stroke-width:0;stroke:none;fill:rgba(51,51,51,1.0);font-size:12.8px;font-family:'Roboto Medium',sans-serif">slog/JSONHandler</text><path  d="M 652 173
L 662 162
L 755 162
L 755 184
L 662 184
L 652 173
Z" style="stroke-width:1;stroke:rgba(63,127,255,1.0);fill:rgba(255,255,255,1.0)"/><text x="667" y="179" style="stroke-width:0;stroke:none;fill:rgba(51,51,51,1.0);font-size:12.8px;font-family:'Roboto Medium',sans-serif">madkins/flash</text><path  d="M 652 233
L 662 222
L 764 222
L 764 244
L 662 244
L 652 233
Z" style="stroke-width:1;stroke:rgba(63,127,255,1.0);fill:rgba(255,255,255,1.0)"/><text x="667" y="239" style="stroke-width:0;stroke:none;fill:rgba(51,51,51,1.0);font-size:12.8px;font-family:'Roboto Medium',sans-serif">madkins/sloggy</text></svg>