<svg xmlns="http://www.w3.org/2000/svg" xmlns:xlink="http://www.w3.org/1999/xlink" width="750" height="600">\n<path  d="M 0 0
L 750 0
L 750 600
L 0 600
L 0 0" style="stroke-width:0;stroke:rgba(255,255,255,1.0);fill:rgba(255,255,255,1.0)"/><path  d="M 12 16
L 658 16
L 658 551
L 12 551
L 12 16" style="stroke-width:0;stroke:rgba(255,255,255,1.0);fill:rgba(255,255,255,1.0)"/><path  d="M 12 551
L 658 551" style="stroke-width:1;stroke:rgba(51,51,51,1.0);fill:none"/><path  d="M 12 551
L 12 556" style="stroke-width:1;stroke:rgba(51,51,51,1.0);fill:none"/><text x="5" y="573" style="stroke-width:0;stroke:none;fill:rgba(51,51,51,1.0);font-size:12.8px;font-family:'Roboto Medium',sans-serif">75</text><path  d="M 38 551
L 38 556" style="stroke-width:1;stroke:rgba(51,51,51,1.0);fill:none"/><text x="31" y="573" style="stroke-width:0;stroke:none;fill:rgba(51,51,51,1.0);font-size:12.8px;font-family:'Roboto Medium',sans-serif">76</text><path  d="M 90 551
L 90 556" style="stroke-width:1;stroke:rgba(51,51,51,1.0);fill:none"/><text x="83" y="573" style="stroke-width:0;stroke:none;fill:rgba(51,51,51,1.0);font-size:12.8px;font-family:'Roboto Medium',sans-serif">78</text><path  d="M 142 551
L 142 556" style="stroke-width:1;stroke:rgba(51,51,51,1.0);fill:none"/><text x="135" y="573" style="stroke-width:0;stroke:none;fill:rgba(51,51,51,1.0);font-size:12.8px;font-family:'Roboto Medium',sans-serif">80</text><path  d="M 193 551
L 193 556" style="stroke-width:1;stroke:rgba(51,51,51,1.0);fill:none"/><text x="186" y="573" style="stroke-width:0;stroke:none;fill:rgba(51,51,51,1.0);font-size:12.8px;font-family:'Roboto Medium',sans-serif">82</text><path  d="M 245 551
L 245 556" style="stroke-width:1;stroke:rgba(51,51,51,1.0);fill:none"/><text x="238" y="573" style="stroke-width:0;stroke:none;fill:rgba(51,51,51,1.0);font-size:12.8px;font-family:'Roboto Medium',sans-serif">84</text><path  d="M 297 551
L 297 556" style="stroke-width:1;stroke:rgba(51,51,51,1.0);fill:none"/><text x="290" y="573" style="stroke-width:0;stroke:none;fill:rgba(51,51,51,1.0);font-size:12.8px;font-family:'Roboto Medium',sans-serif">86</text><path  d="M 348 551
L 348 556" style="stroke-width:1;stroke:rgba(51,51,51,1.0);fill:none"/><text x="341" y="573" style="stroke-width:0;stroke:none;fill:rgba(51,51,51,1.0);font-size:12.8px;font-family:'Roboto Medium',sans-serif">88</text><path  d="M 400 551
L 400 556" style="stroke-width:1;stroke:rgba(51,51,51,1.0);fill:none"/><text x="393" y="573" style="stroke-width:0;stroke:none;fill:rgba(51,51,51,1.0);font-size:12.8px;font-family:'Roboto Medium',sans-serif">90</text><path  d="M 452 551
L 452 556" style="stroke-width:1;stroke:rgba(51,51,51,1.0);fill:none"/><text x="445" y="573" style="stroke-width:0;stroke:none;fill:rgba(51,51,51,1.0);font-size:12.8px;font-family:'Roboto Medium',sans-serif">92</text><path  d="M 503 551
L 503 556" style="stroke-width:1;stroke:rgba(51,51,51,1.0);fill:none"/><text x="496" y="573" style="stroke-width:0;stroke:none;fill:rgba(51,51,51,1.0);font-size:12.8px;font-family:'Roboto Medium',sans-serif">94</text><path  d="M 555 551
L 555 556" style="stroke-width:1;stroke:rgba(51,51,51,1.0);fill:none"/><text x="548" y="573" style="stroke-width:0;stroke:none;fill:rgba(51,51,51,1.0);font-size:12.8px;font-family:'Roboto Medium',sans-serif">96</text><path  d="M 607 551
L 607 556" style="stroke-width:1;stroke:rgba(51,51,51,1.0);fill:none"/><text x="600" y="573" style="stroke-width:0;stroke:none;fill:rgba(51,51,51,1.0);font-size:12.8px;font-family:'Roboto Medium',sans-serif">98</text><path  d="M 658 551
L 658 556" style="stroke-width:1;stroke:rgba(51,51,51,1.0);fill:none"/><text x="647" y="573" style="stroke-width:0;stroke:none;fill:rgba(51,51,51,1.0);font-size:12.8px;font-family:'Roboto Medium',sans-serif">100</text><text x="308" y="595" style="stroke-width:0;stroke:none;fill:rgba(51,51,51,1.0);font-size:12.8px;font-family:'Roboto Medium',sans-serif">Warnings</text><path  d="M 38 551
L 38 16" style="stroke-width:0;stroke:none;fill:none"/><path  d="M 90 551
L 90 16" style="stroke-width:0;stroke:none;fill:none"/><path  d="M 142 551
L 142 16" style="stroke-width:0;stroke:none;fill:none"/><path  d="M 193 551
L 193 16" style="stroke-width:0;stroke:none;fill:none"/><path  d="M 245 551
L 245 16" style="stroke-width:0;stroke:none;fill:none"/><path  d="M 297 551
L 297 16" style="stroke-width:0;stroke:none;fill:none"/><path  d="M 348 551
L 348 16" style="stroke-width:0;stroke:none;fill:none"/><path  d="M 400 551
L 400 16" style="stroke-width:0;stroke:none;fill:none"/><path  d="M 452 551
L 452 16" style="stroke-width:0;stroke:none;fill:none"/><path  d="M 503 551
L 503 16" style="stroke-width:0;stroke:none;fill:none"/><path  d="M 555 551
L 555 16" style="stroke-width:0;stroke:none;fill:none"/><path  d="M 607 551
L 607 16" style="stroke-width:0;stroke:none;fill:none"/><path  d="M 659 551
L 659 16" style="stroke-width:1;stroke:rgba(51,51,51,1.0);fill:none"/><path  d="M 659 551
L 664 551" style="stroke-width:1;stroke:rgba(51,51,51,1.0);fill:none"/><text x="669" y="557" style="stroke-width:0;stroke:none;fill:rgba(51,51,51,1.0);font-size:12.8px;font-family:'Roboto Medium',sans-serif">75</text><path  d="M 659 529
L 664 529" style="stroke-width:1;stroke:rgba(51,51,51,1.0);fill:none"/><text x="669" y="535" style="stroke-width:0;stroke:none;fill:rgba(51,51,51,1.0);font-size:12.8px;font-family:'Roboto Medium',sans-serif">76</text><path  d="M 659 486
L 664 486" style="stroke-width:1;stroke:rgba(51,51,51,1.0);fill:none"/><text x="669" y="492" style="stroke-width:0;stroke:none;fill:rgba(51,51,51,1.0);font-size:12.8px;font-family:'Roboto Medium',sans-serif">78</text><path  d="M 659 444
L 664 444" style="stroke-width:1;stroke:rgba(51,51,51,1.0);fill:none"/><text x="669" y="450" style="stroke-width:0;stroke:none;fill:rgba(51,51,51,1.0);font-size:12.8px;font-family:'Roboto Medium',sans-serif">80</text><path  d="M 659 401
L 664 401" style="stroke-width:1;stroke:rgba(51,51,51,1.0);fill:none"/><text x="669" y="407" style="stroke-width:0;stroke:none;fill:rgba(51,51,51,1.0);font-size:12.8px;font-family:'Roboto Medium',sans-serif">82</text><path  d="M 659 358
L 664 358" style="stroke-width:1;stroke:rgba(51,51,51,1.0);fill:none"/><text x="669" y="364" style="stroke-width:0;stroke:none;fill:rgba(51,51,51,1.0);font-size:12.8px;font-family:'Roboto Medium',sans-serif">84</text><path  d="M 659 315
L 664 315" style="stroke-width:1;stroke:rgba(51,51,51,1.0);fill:none"/><text x="669" y="321" style="stroke-width:0;stroke:none;fill:rgba(51,51,51,1.0);font-size:12.8px;font-family:'Roboto Medium',sans-serif">86</text><path  d="M 659 272
L 664 272" style="stroke-width:1;stroke:rgba(51,51,51,1.0);fill:none"/><text x="669" y="278" style="stroke-width:0;stroke:none;fill:rgba(51,51,51,1.0);font-size:12.8px;font-family:'Roboto Medium',sans-serif">88</text><path  d="M 659 230
L 664 230" style="stroke-width:1;stroke:rgba(51,51,51,1.0);fill:none"/><text x="669" y="236" style="stroke-width:0;stroke:none;fill:rgba(51,51,51,1.0);font-size:12.8px;font-family:'Roboto Medium',sans-serif">90</text><path  d="M 659 187
L 664 187" style="stroke-width:1;stroke:rgba(51,51,51,1.0);fill:none"/><text x="669" y="193" style="stroke-width:0;stroke:none;fill:rgba(51,51,51,1.0);font-size:12.8px;font-family:'Roboto Medium',sans-serif">92</text><path  d="M 659 144
L 664 144" style="stroke-width:1;stroke:rgba(51,51,51,1.0);fill:none"/><text x="669" y="150" style="stroke-width:0;stroke:none;fill:rgba(51,51,51,1.0);font-size:12.8px;font-family:'Roboto Medium',sans-serif">94</text><path  d="M 659 101
L 664 101" style="stroke-width:1;stroke:rgba(51,51,51,1.0);fill:none"/><text x="669" y="107" style="stroke-width:0;stroke:none;fill:rgba(51,51,51,1.0);font-size:12.8px;font-family:'Roboto Medium',sans-serif">96</text><path  d="M 659 58
L 664 58" style="stroke-width:1;stroke:rgba(51,51,51,1.0);fill:none"/><text x="669" y="64" style="stroke-width:0;stroke:none;fill:rgba(51,51,51,1.0);font-size:12.8px;font-family:'Roboto Medium',sans-serif">98</text><path  d="M 659 16
L 664 16" style="stroke-width:1;stroke:rgba(51,51,51,1.0);fill:none"/><text x="669" y="22" style="stroke-width:0;stroke:none;fill:rgba(51,51,51,1.0);font-size:12.8px;font-family:'Roboto Medium',sans-serif">100</text><text x="701" y="247" style="stroke-width:0;stroke:none;fill:rgba(51,51,51,1.0);font-size:12.8px;font-family:'Roboto Medium',sans-serif" transform="rotate(90.00,701,247)">Benchmarks</text><path  d="M 12 2156
L 658 2156" style="stroke-width:0;stroke:none;fill:none"/><path  d="M 12 529
L 658 529" style="stroke-width:0;stroke:none;fill:none"/><path  d="M 12 486
L 658 486" style="stroke-width:0;stroke:none;fill:none"/><path  d="M 12 444
L 658 444" style="stroke-width:0;stroke:none;fill:none"/><path  d="M 12 401
L 658 401" style="stroke-width:0;stroke:none;fill:none"/><path  d="M 12 358
L 658 358" style="stroke-width:0;stroke:none;fill:none"/><path  d="M 12 315
L 658 315" style="stroke-width:0;stroke:none;fill:none"/><path  d="M 12 272
L 658 272" style="stroke-width:0;stroke:none;fill:none"/><path  d="M 12 230
L 658 230" style="stroke-width:0;stroke:none;fill:none"/><path  d="M 12 187
L 658 187" style="stroke-width:0;stroke:none;fill:none"/><path  d="M 12 144
L 658 144" style="stroke-width:0;stroke:none;fill:none"/><path  d="M 12 101
L 658 101" style="stroke-width:0;stroke:none;fill:none"/><path  d="M 12 58
L 658 58" style="stroke-width:0;stroke:none;fill:none"/><path  d="M 11 551
L 11 16" style="stroke-width:1;stroke:rgba(51,51,51,1.0);fill:none"/><path  d="M 11 -9223372036854775257
L 6 -9223372036854775257" style="stroke-width:1;stroke:rgba(51,51,51,1.0);fill:none"/><text x="-25" y="-9223372036854775251" style="stroke-width:0;stroke:none;fill:rgba(51,51,51,1.0);font-size:12.8px;font-family:'Roboto Medium',sans-serif">0.00</text><path  d="M 11 -9223372036854775257
L 6 -9223372036854775257" style="stroke-width:1;stroke:rgba(51,51,51,1.0);fill:none"/><text x="-25" y="-9223372036854775251" style="stroke-width:0;stroke:none;fill:rgba(51,51,51,1.0);font-size:12.8px;font-family:'Roboto Medium',sans-serif">0.00</text><path  d="M 11 -9223372036854775257
L 6 -9223372036854775257" style="stroke-width:1;stroke:rgba(51,51,51,1.0);fill:none"/><text x="-25" y="-9223372036854775251" style="stroke-width:0;stroke:none;fill:rgba(51,51,51,1.0);font-size:12.8px;font-family:'Roboto Medium',sans-serif">0.00</text><path  d="M 11 -9223372036854775257
L 6 -9223372036854775257" style="stroke-width:1;stroke:rgba(51,51,51,1.0);fill:none"/><text x="-25" y="-9223372036854775251" style="stroke-width:0;stroke:none;fill:rgba(51,51,51,1.0);font-size:12.8px;font-family:'Roboto Medium',sans-serif">0.00</text><path  d="M 11 -9223372036854775257
L 6 -9223372036854775257" style="stroke-width:1;stroke:rgba(51,51,51,1.0);fill:none"/><text x="-25" y="-9223372036854775251" style="stroke-width:0;stroke:none;fill:rgba(51,51,51,1.0);font-size:12.8px;font-family:'Roboto Medium',sans-serif">0.00</text><path  d="M 11 -9223372036854775257
L 6 -9223372036854775257" style="stroke-width:1;stroke:rgba(51,51,51,1.0);fill:none"/><text x="-25" y="-9223372036854775251" style="stroke-width:0;stroke:none;fill:rgba(51,51,51,1.0);font-size:12.8px;font-family:'Roboto Medium',sans-serif">0.00</text><path  d="M 11 -9223372036854775257
L 6 -9223372036854775257" style="stroke-width:1;stroke:rgba(51,51,51,1.0);fill:none"/><text x="-25" y="-9223372036854775251" style="stroke-width:0;stroke:none;fill:rgba(51,51,51,1.0);font-size:12.8px;font-family:'Roboto Medium',sans-serif">0.00</text><path  d="M 11 -9223372036854775257
L 6 -9223372036854775257" style="stroke-width:1;stroke:rgba(51,51,51,1.0);fill:none"/><text x="-25" y="-9223372036854775251" style="stroke-width:0;stroke:none;fill:rgba(51,51,51,1.0);font-size:12.8px;font-family:'Roboto Medium',sans-serif">0.00</text><path  d="M 11 -9223372036854775257
L 6 -9223372036854775257" style="stroke-width:1;stroke:rgba(51,51,51,1.0);fill:none"/><text x="-25" y="-9223372036854775251" style="stroke-width:0;stroke:none;fill:rgba(51,51,51,1.0);font-size:12.8px;font-family:'Roboto Medium',sans-serif">0.00</text><path  d="M 11 -9223372036854775257
L 6 -9223372036854775257" style="stroke-width:1;stroke:rgba(51,51,51,1.0);fill:none"/><text x="-25" y="-9223372036854775251" style="stroke-width:0;stroke:none;fill:rgba(51,51,51,1.0);font-size:12.8px;font-family:'Roboto Medium',sans-serif">0.00</text><path  d="M 11 -9223372036854775257
L 6 -9223372036854775257" style="stroke-width:1;stroke:rgba(51,51,51,1.0);fill:none"/><text x="-25" y="-9223372036854775251" style="stroke-width:0;stroke:none;fill:rgba(51,51,51,1.0);font-size:12.8px;font-family:'Roboto Medium',sans-serif">0.00</text><path  d="M 11 -9223372036854775257
L 6 -9223372036854775257" style="stroke-width:1;stroke:rgba(51,51,51,1.0);fill:none"/><text x="-25" y="-9223372036854775251" style="stroke-width:0;stroke:none;fill:rgba(51,51,51,1.0);font-size:12.8px;font-family:'Roboto Medium',sans-serif">0.00</text><path  d="M 11 -9223372036854775257
L 6 -9223372036854775257" style="stroke-width:1;stroke:rgba(51,51,51,1.0);fill:none"/><text x="-25" y="-9223372036854775251" style="stroke-width:0;stroke:none;fill:rgba(51,51,51,1.0);font-size:12.8px;font-family:'Roboto Medium',sans-serif">0.00</text><path  d="M 11 -9223372036854775257
L 6 -9223372036854775257" style="stroke-width:1;stroke:rgba(51,51,51,1.0);fill:none"/><text x="-25" y="-9223372036854775251" style="stroke-width:0;stroke:none;fill:rgba(51,51,51,1.0);font-size:12.8px;font-family:'Roboto Medium',sans-serif">0.00</text><path  d="M 11 -9223372036854775257
L 6 -9223372036854775257" style="stroke-width:1;stroke:rgba(51,51,51,1.0);fill:none"/><text x="-25" y="-9223372036854775251" style="stroke-width:0;stroke:none;fill:rgba(51,51,51,1.0);font-size:12.8px;font-family:'Roboto Medium',sans-serif">0.00</text><path  d="M 12 -9223372036854775257
L 658 -9223372036854775257" style="stroke-width:0;stroke:none;fill:none"/><path  d="M 12 -9223372036854775257
L 658 -9223372036854775257" style="stroke-width:0;stroke:none;fill:none"/><path  d="M 12 -9223372036854775257
L 658 -9223372036854775257" style="stroke-width:0;stroke:none;fill:none"/><path  d="M 12 -9223372036854775257
L 658 -9223372036854775257" style="stroke-width:0;stroke:none;fill:none"/><path  d="M 12 -9223372036854775257
L 658 -9223372036854775257" style="stroke-width:0;stroke:none;fill:none"/><path  d="M 12 -9223372036854775257
L 658 -9223372036854775257" style="stroke-width:0;stroke:none;fill:none"/><path  d="M 12 -9223372036854775257
L 658 -9223372036854775257" style="stroke-width:0;stroke:none;fill:none"/><path  d="M 12 -9223372036854775257
L 658 -9223372036854775257" style="stroke-width:0;stroke:none;fill:none"/><path  d="M 12 -9223372036854775257
L 658 -9223372036854775257" style="stroke-width:0;stroke:none;fill:none"/><path  d="M 12 -9223372036854775257
L 658 -9223372036854775257" style="stroke-width:0;stroke:none;fill:none"/><path  d="M 12 -9223372036854775257
L 658 -9223372036854775257" style="stroke-width:0;stroke:none;fill:none"/><path  d="M 12 -9223372036854775257
L 658 -9223372036854775257" style="stroke-width:0;stroke:none;fill:none"/><path  d="M 12 -9223372036854775257
L 658 -9223372036854775257" style="stroke-width:0;stroke:none;fill:none"/><path  d="M 12 -9223372036854775257
L 658 -9223372036854775257" style="stroke-width:0;stroke:none;fill:none"/><circle cx="618" cy="119" r="5" style="stroke-width:1;stroke:rgba(31,218,0,1.0);fill:rgba(31,218,0,1.0)"/><path  d="" style="stroke-width:1;stroke:rgba(31,218,0,1.0);fill:rgba(31,218,0,1.0)"/><circle cx="618" cy="161" r="5" style="stroke-width:1;stroke:rgba(40,204,0,1.0);fill:rgba(40,204,0,1.0)"/><path  d="" style="stroke-width:1;stroke:rgba(40,204,0,1.0);fill:rgba(40,204,0,1.0)"/><circle cx="618" cy="367" r="5" style="stroke-width:1;stroke:rgba(74,135,0,1.0);fill:rgba(74,135,0,1.0)"/><path  d="" style="stroke-width:1;stroke:rgba(74,135,0,1.0);fill:rgba(74,135,0,1.0)"/><circle cx="618" cy="16" r="5" style="stroke-width:1;stroke:rgba(7,243,0,1.0);fill:rgba(7,243,0,1.0)"/><path  d="" style="stroke-width:1;stroke:rgba(7,243,0,1.0);fill:rgba(7,243,0,1.0)"/><circle cx="618" cy="92" r="5" style="stroke-width:1;stroke:rgba(25,226,0,1.0);fill:rgba(25,226,0,1.0)"/><path  d="" style="stroke-width:1;stroke:rgba(25,226,0,1.0);fill:rgba(25,226,0,1.0)"/><path  d="M 618 131
L 628 120
L 721 120
L 721 142
L 628 142
L 618 131
Z" style="stroke-width:1;stroke:rgba(63,127,255,1.0);fill:rgba(255,255,255,1.0)"/><text x="633" y="137" style="stroke-width:0;stroke:none;fill:rgba(51,51,51,1.0);font-size:12.8px;font-family:'Roboto Medium',sans-serif">madkins/flash</text><path  d="M 618 161
L 628 150
L 734 150
L 734 172
L 628 172
L 618 161
Z" style="stroke-width:1;stroke:rgba(63,127,255,1.0);fill:rgba(255,255,255,1.0)"/><text x="633" y="167" style="stroke-width:0;stroke:none;fill:rgba(51,51,51,1.0);font-size:12.8px;font-family:'Roboto Medium',sans-serif">madkins/replattr</text><path  d="M 618 367
L 628 356
L 730 356
L 730 378
L 628 378
L 618 367
Z" style="stroke-width:1;stroke:rgba(63,127,255,1.0);fill:rgba(255,255,255,1.0)"/><text x="633" y="373" style="stroke-width:0;stroke:none;fill:rgba(51,51,51,1.0);font-size:12.8px;font-family:'Roboto Medium',sans-serif">madkins/sloggy</text><path  d="M 618 16
L 628 5
L 706 5
L 706 27
L 628 27
L 618 16
Z" style="stroke-width:1;stroke:rgba(63,127,255,1.0);fill:rgba(255,255,255,1.0)"/><text x="633" y="22" style="stroke-width:0;stroke:none;fill:rgba(51,51,51,1.0);font-size:12.8px;font-family:'Roboto Medium',sans-serif">phuslu/slog</text><path  d="M 618 92
L 628 81
L 746 81
L 746 103
L 628 103
L 618 92
Z" style="stroke-width:1;stroke:rgba(63,127,255,1.0);fill:rgba(255,255,255,1.0)"/><text x="633" y="98" style="stroke-width:0;stroke:none;fill:rgba(51,51,51,1.0);font-size:12.8px;font-family:'Roboto Medium',sans-serif">slog/JSONHandler</text></svg>