<svg xmlns="http://www.w3.org/2000/svg" xmlns:xlink="http://www.w3.org/1999/xlink" width="750" height="600">\n<path  d="M 0 0
L 750 0
L 750 600
L 0 600
L 0 0" style="stroke-width:0;stroke:rgba(255,255,255,1.0);fill:rgba(255,255,255,1.0)"/><path  d="M 12 16
L 616 16
L 616 551
L 12 551
L 12 16" style="stroke-width:0;stroke:rgba(255,255,255,1.0);fill:rgba(255,255,255,1.0)"/><path  d="M 12 551
L 616 551" style="stroke-width:1;stroke:rgba(51,51,51,1.0);fill:none"/><path  d="M 12 551
L 12 556" style="stroke-width:1;stroke:rgba(51,51,51,1.0);fill:none"/><text x="5" y="573" style="stroke-width:0;stroke:none;fill:rgba(51,51,51,1.0);font-size:12.8px;font-family:'Roboto Medium',sans-serif">75</text><path  d="M 37 551
L 37 556" style="stroke-width:1;stroke:rgba(51,51,51,1.0);fill:none"/><text x="30" y="573" style="stroke-width:0;stroke:none;fill:rgba(51,51,51,1.0);font-size:12.8px;font-family:'Roboto Medium',sans-serif">76</text><path  d="M 85 551
L 85 556" style="stroke-width:1;stroke:rgba(51,51,51,1.0);fill:none"/><text x="78" y="573" style="stroke-width:0;stroke:none;fill:rgba(51,51,51,1.0);font-size:12.8px;font-family:'Roboto Medium',sans-serif">78</text><path  d="M 133 551
L 133 556" style="stroke-width:1;stroke:rgba(51,51,51,1.0);fill:none"/><text x="126" y="573" style="stroke-width:0;stroke:none;fill:rgba(51,51,51,1.0);font-size:12.8px;font-family:'Roboto Medium',sans-serif">80</text><path  d="M 182 551
L 182 556" style="stroke-width:1;stroke:rgba(51,51,51,1.0);fill:none"/><text x="175" y="573" style="stroke-width:0;stroke:none;fill:rgba(51,51,51,1.0);font-size:12.8px;font-family:'Roboto Medium',sans-serif">82</text><path  d="M 230 551
L 230 556" style="stroke-width:1;stroke:rgba(51,51,51,1.0);fill:none"/><text x="223" y="573" style="stroke-width:0;stroke:none;fill:rgba(51,51,51,1.0);font-size:12.8px;font-family:'Roboto Medium',sans-serif">84</text><path  d="M 278 551
L 278 556" style="stroke-width:1;stroke:rgba(51,51,51,1.0);fill:none"/><text x="271" y="573" style="stroke-width:0;stroke:none;fill:rgba(51,51,51,1.0);font-size:12.8px;font-family:'Roboto Medium',sans-serif">86</text><path  d="M 327 551
L 327 556" style="stroke-width:1;stroke:rgba(51,51,51,1.0);fill:none"/><text x="320" y="573" style="stroke-width:0;stroke:none;fill:rgba(51,51,51,1.0);font-size:12.8px;font-family:'Roboto Medium',sans-serif">88</text><path  d="M 375 551
L 375 556" style="stroke-width:1;stroke:rgba(51,51,51,1.0);fill:none"/><text x="368" y="573" style="stroke-width:0;stroke:none;fill:rgba(51,51,51,1.0);font-size:12.8px;font-family:'Roboto Medium',sans-serif">90</text><path  d="M 423 551
L 423 556" style="stroke-width:1;stroke:rgba(51,51,51,1.0);fill:none"/><text x="416" y="573" style="stroke-width:0;stroke:none;fill:rgba(51,51,51,1.0);font-size:12.8px;font-family:'Roboto Medium',sans-serif">92</text><path  d="M 472 551
L 472 556" style="stroke-width:1;stroke:rgba(51,51,51,1.0);fill:none"/><text x="465" y="573" style="stroke-width:0;stroke:none;fill:rgba(51,51,51,1.0);font-size:12.8px;font-family:'Roboto Medium',sans-serif">94</text><path  d="M 520 551
L 520 556" style="stroke-width:1;stroke:rgba(51,51,51,1.0);fill:none"/><text x="513" y="573" style="stroke-width:0;stroke:none;fill:rgba(51,51,51,1.0);font-size:12.8px;font-family:'Roboto Medium',sans-serif">96</text><path  d="M 568 551
L 568 556" style="stroke-width:1;stroke:rgba(51,51,51,1.0);fill:none"/><text x="561" y="573" style="stroke-width:0;stroke:none;fill:rgba(51,51,51,1.0);font-size:12.8px;font-family:'Roboto Medium',sans-serif">98</text><path  d="M 616 551
L 616 556" style="stroke-width:1;stroke:rgba(51,51,51,1.0);fill:none"/><text x="605" y="573" style="stroke-width:0;stroke:none;fill:rgba(51,51,51,1.0);font-size:12.8px;font-family:'Roboto Medium',sans-serif">100</text><text x="287" y="595" style="stroke-width:0;stroke:none;fill:rgba(51,51,51,1.0);font-size:12.8px;font-family:'Roboto Medium',sans-serif">Warnings</text><path  d="M 37 551
L 37 16" style="stroke-width:0;stroke:none;fill:none"/><path  d="M 85 551
L 85 16" style="stroke-width:0;stroke:none;fill:none"/><path  d="M 133 551
L 133 16" style="stroke-width:0;stroke:none;fill:none"/><path  d="M 182 551
L 182 16" style="stroke-width:0;stroke:none;fill:none"/><path  d="M 230 551
L 230 16" style="stroke-width:0;stroke:none;fill:none"/><path  d="M 278 551
L 278 16" style="stroke-width:0;stroke:none;fill:none"/><path  d="M 327 551
L 327 16" style="stroke-width:0;stroke:none;fill:none"/><path  d="M 375 551
L 375 16" style="stroke-width:0;stroke:none;fill:none"/><path  d="M 423 551
L 423 16" style="stroke-width:0;stroke:none;fill:none"/><path  d="M 472 551
L 472 16" style="stroke-width:0;stroke:none;fill:none"/><path  d="M 520 551
L 520 16" style="stroke-width:0;stroke:none;fill:none"/><path  d="M 568 551
L 568 16" style="stroke-width:0;stroke:none;fill:none"/><path  d="M 617 551
L 617 16" style="stroke-width:1;stroke:rgba(51,51,51,1.0);fill:none"/><path  d="M 617 551
L 622 551" style="stroke-width:1;stroke:rgba(51,51,51,1.0);fill:none"/><text x="627" y="557" style="stroke-width:0;stroke:none;fill:rgba(51,51,51,1.0);font-size:12.8px;font-family:'Roboto Medium',sans-serif">75</text><path  d="M 617 529
L 622 529" style="stroke-width:1;stroke:rgba(51,51,51,1.0);fill:none"/><text x="627" y="535" style="stroke-width:0;stroke:none;fill:rgba(51,51,51,1.0);font-size:12.8px;font-family:'Roboto Medium',sans-serif">76</text><path  d="M 617 486
L 622 486" style="stroke-width:1;stroke:rgba(51,51,51,1.0);fill:none"/><text x="627" y="492" style="stroke-width:0;stroke:none;fill:rgba(51,51,51,1.0);font-size:12.8px;font-family:'Roboto Medium',sans-serif">78</text><path  d="M 617 444
L 622 444" style="stroke-width:1;stroke:rgba(51,51,51,1.0);fill:none"/><text x="627" y="450" style="stroke-width:0;stroke:none;fill:rgba(51,51,51,1.0);font-size:12.8px;font-family:'Roboto Medium',sans-serif">80</text><path  d="M 617 401
L 622 401" style="stroke-width:1;stroke:rgba(51,51,51,1.0);fill:none"/><text x="627" y="407" style="stroke-width:0;stroke:none;fill:rgba(51,51,51,1.0);font-size:12.8px;font-family:'Roboto Medium',sans-serif">82</text><path  d="M 617 358
L 622 358" style="stroke-width:1;stroke:rgba(51,51,51,1.0);fill:none"/><text x="627" y="364" style="stroke-width:0;stroke:none;fill:rgba(51,51,51,1.0);font-size:12.8px;font-family:'Roboto Medium',sans-serif">84</text><path  d="M 617 315
L 622 315" style="stroke-width:1;stroke:rgba(51,51,51,1.0);fill:none"/><text x="627" y="321" style="stroke-width:0;stroke:none;fill:rgba(51,51,51,1.0);font-size:12.8px;font-family:'Roboto Medium',sans-serif">86</text><path  d="M 617 272
L 622 272" style="stroke-width:1;stroke:rgba(51,51,51,1.0);fill:none"/><text x="627" y="278" style="stroke-width:0;stroke:none;fill:rgba(51,51,51,1.0);font-size:12.8px;font-family:'Roboto Medium',sans-serif">88</text><path  d="M 617 230
L 622 230" style="stroke-width:1;stroke:rgba(51,51,51,1.0);fill:none"/><text x="627" y="236" style="stroke-width:0;stroke:none;fill:rgba(51,51,51,1.0);font-size:12.8px;font-family:'Roboto Medium',sans-serif">90</text><path  d="M 617 187
L 622 187" style="stroke-width:1;stroke:rgba(51,51,51,1.0);fill:none"/><text x="627" y="193" style="stroke-width:0;stroke:none;fill:rgba(51,51,51,1.0);font-size:12.8px;font-family:'Roboto Medium',sans-serif">92</text><path  d="M 617 144
L 622 144" style="stroke-width:1;stroke:rgba(51,51,51,1.0);fill:none"/><text x="627" y="150" style="stroke-width:0;stroke:none;fill:rgba(51,51,51,1.0);font-size:12.8px;font-family:'Roboto Medium',sans-serif">94</text><path  d="M 617 101
L 622 101" style="stroke-width:1;stroke:rgba(51,51,51,1.0);fill:none"/><text x="627" y="107" style="stroke-width:0;stroke:none;fill:rgba(51,51,51,1.0);font-size:12.8px;font-family:'Roboto Medium',sans-serif">96</text><path  d="M 617 58
L 622 58" style="stroke-width:1;stroke:rgba(51,51,51,1.0);fill:none"/><text x="627" y="64" style="stroke-width:0;stroke:none;fill:rgba(51,51,51,1.0);font-size:12.8px;font-family:'Roboto Medium',sans-serif">98</text><path  d="M 617 16
L 622 16" style="stroke-width:1;stroke:rgba(51,51,51,1.0);fill:none"/><text x="627" y="22" style="stroke-width:0;stroke:none;fill:rgba(51,51,51,1.0);font-size:12.8px;font-family:'Roboto Medium',sans-serif">100</text><text x="659" y="247" style="stroke-width:0;stroke:none;fill:rgba(51,51,51,1.0);font-size:12.8px;font-family:'Roboto Medium',sans-serif" transform="rotate(90.00,659,247)">Benchmarks</text><path  d="M 12 2156
L 616 2156" style="stroke-width:0;stroke:none;fill:none"/><path  d="M 12 529
L 616 529" style="stroke-width:0;stroke:none;fill:none"/><path  d="M 12 486
L 616 486" style="stroke-width:0;stroke:none;fill:none"/><path  d="M 12 444
L 616 444" style="stroke-width:0;stroke:none;fill:none"/><path  d="M 12 401
L 616 401" style="stroke-width:0;stroke:none;fill:none"/><path  d="M 12 358
L 616 358" style="stroke-width:0;stroke:none;fill:none"/><path  d="M 12 315
L 616 315" style="stroke-width:0;stroke:none;fill:none"/><path  d="M 12 272
L 616 272" style="stroke-width:0;stroke:none;fill:none"/><path  d="M 12 230
L 616 230" style="stroke-width:0;stroke:none;fill:none"/><path  d="M 12 187
L 616 187" style="stroke-width:0;stroke:none;fill:none"/><path  d="M 12 144
L 616 144" style="stroke-width:0;stroke:none;fill:none"/><path  d="M 12 101
L 616 101" style="stroke-width:0;stroke:none;fill:none"/><path  d="M 12 58
L 616 58" style="stroke-width:0;stroke:none;fill:none"/><path  d="M 11 551
L 11 16" style="stroke-width:1;stroke:rgba(51,51,51,1.0);fill:none"/><path  d="M 11 -9223372036854775257
L 6 -9223372036854775257" style="stroke-width:1;stroke:rgba(51,51,51,1.0);fill:none"/><text x="-25" y="-9223372036854775251" style="stroke-width:0;stroke:none;fill:rgba(51,51,51,1.0);font-size:12.8px;font-family:'Roboto Medium',sans-serif">0.00</text><path  d="M 11 -9223372036854775257
L 6 -9223372036854775257" style="stroke-width:1;stroke:rgba(51,51,51,1.0);fill:none"/><text x="-25" y="-9223372036854775251" style="stroke-width:0;stroke:none;fill:rgba(51,51,51,1.0);font-size:12.8px;font-family:'Roboto Medium',sans-serif">0.00</text><path  d="M 11 -9223372036854775257
L 6 -9223372036854775257" style="stroke-width:1;stroke:rgba(51,51,51,1.0);fill:none"/><text x="-25" y="-9223372036854775251" style="stroke-width:0;stroke:none;fill:rgba(51,51,51,1.0);font-size:12.8px;font-family:'Roboto Medium',sans-serif">0.00</text><path  d="M 11 -9223372036854775257
L 6 -9223372036854775257" style="stroke-width:1;stroke:rgba(51,51,51,1.0);fill:none"/><text x="-25" y="-9223372036854775251" style="stroke-width:0;stroke:none;fill:rgba(51,51,51,1.0);font-size:12.8px;font-family:'Roboto Medium',sans-serif">0.00</text><path  d="M 11 -9223372036854775257
L 6 -9223372036854775257" style="stroke-width:1;stroke:rgba(51,51,51,1.0);fill:none"/><text x="-25" y="-9223372036854775251" style="stroke-width:0;stroke:none;fill:rgba(51,51,51,1.0);font-size:12.8px;font-family:'Roboto Medium',sans-serif">0.00</text><path  d="M 11 -9223372036854775257
L 6 -9223372036854775257" style="stroke-width:1;stroke:rgba(51,51,51,1.0);fill:none"/><text x="-25" y="-9223372036854775251" style="stroke-width:0;stroke:none;fill:rgba(51,51,51,1.0);font-size:12.8px;font-family:'Roboto Medium',sans-serif">0.00</text><path  d="M 11 -9223372036854775257
L 6 -9223372036854775257" style="stroke-width:1;stroke:rgba(51,51,51,1.0);fill:none"/><text x="-25" y="-9223372036854775251" style="stroke-width:0;stroke:none;fill:rgba(51,51,51,1.0);font-size:12.8px;font-family:'Roboto Medium',sans-serif">0.00</text><path  d="M 11 -9223372036854775257
L 6 -9223372036854775257" style="stroke-width:1;stroke:rgba(51,51,51,1.0);fill:none"/><text x="-25" y="-9223372036854775251" style="stroke-width:0;stroke:none;fill:rgba(51,51,51,1.0);font-size:12.8px;font-family:'Roboto Medium',sans-serif">0.00</text><path  d="M 11 -9223372036854775257
L 6 -9223372036854775257" style="stroke-width:1;stroke:rgba(51,51,51,1.0);fill:none"/><text x="-25" y="-9223372036854775251" style="stroke-width:0;stroke:none;fill:rgba(51,51,51,1.0);font-size:12.8px;font-family:'Roboto Medium',sans-serif">0.00</text><path  d="M 11 -9223372036854775257
L 6 -9223372036854775257" style="stroke-width:1;stroke:rgba(51,51,51,1.0);fill:none"/><text x="-25" y="-9223372036854775251" style="stroke-width:0;stroke:none;fill:rgba(51,51,51,1.0);font-size:12.8px;font-family:'Roboto Medium',sans-serif">0.00</text><path  d="M 11 -9223372036854775257
L 6 -9223372036854775257" style="stroke-width:1;stroke:rgba(51,51,51,1.0);fill:none"/><text x="-25" y="-9223372036854775251" style="stroke-width:0;stroke:none;fill:rgba(51,51,51,1.0);font-size:12.8px;font-family:'Roboto Medium',sans-serif">0.00</text><path  d="M 11 -9223372036854775257
L 6 -9223372036854775257" style="stroke-width:1;stroke:rgba(51,51,51,1.0);fill:none"/><text x="-25" y="-9223372036854775251" style="stroke-width:0;stroke:none;fill:rgba(51,51,51,1.0);font-size:12.8px;font-family:'Roboto Medium',sans-serif">0.00</text><path  d="M 11 -9223372036854775257
L 6 -9223372036854775257" style="stroke-width:1;stroke:rgba(51,51,51,1.0);fill:none"/><text x="-25" y="-9223372036854775251" style="stroke-width:0;stroke:none;fill:rgba(51,51,51,1.0);font-size:12.8px;font-family:'Roboto Medium',sans-serif">0.00</text><path  d="M 11 -9223372036854775257
L 6 -9223372036854775257" style="stroke-width:1;stroke:rgba(51,51,51,1.0);fill:none"/><text x="-25" y="-9223372036854775251" style="stroke-width:0;stroke:none;fill:rgba(51,51,51,1.0);font-size:12.8px;font-family:'Roboto Medium',sans-serif">0.00</text><path  d="M 11 -9223372036854775257
L 6 -9223372036854775257" style="stroke-width:1;stroke:rgba(51,51,51,1.0);fill:none"/><text x="-25" y="-9223372036854775251" style="stroke-width:0;stroke:none;fill:rgba(51,51,51,1.0);font-size:12.8px;font-family:'Roboto Medium',sans-serif">0.00</text><path  d="M 12 -9223372036854775257
L 616 -9223372036854775257" style="stroke-width:0;stroke:none;fill:none"/><path  d="M 12 -9223372036854775257
L 616 -9223372036854775257" style="stroke-width:0;stroke:none;fill:none"/><path  d="M 12 -9223372036854775257
L 616 -9223372036854775257" style="stroke-width:0;stroke:none;fill:none"/><path  d="M 12 -9223372036854775257
L 616 -9223372036854775257" style="stroke-width:0;stroke:none;fill:none"/><path  d="M 12 -9223372036854775257
L 616 -9223372036854775257" style="stroke-width:0;stroke:none;fill:none"/><path  d="M 12 -9223372036854775257
L 616 -9223372036854775257" style="stroke-width:0;stroke:none;fill:none"/><path  d="M 12 -9223372036854775257
L 616 -9223372036854775257" style="stroke-width:0;stroke:none;fill:none"/><path  d="M 12 -9223372036854775257
L 616 -9223372036854775257" style="stroke-width:0;stroke:none;fill:none"/><path  d="M 12 -9223372036854775257
L 616 -9223372036854775257" style="stroke-width:0;stroke:none;fill:none"/><path  d="M 12 -9223372036854775257
L 616 -9223372036854775257" style="stroke-width:0;stroke:none;fill:none"/><path  d="M 12 -9223372036854775257
L 616 -9223372036854775257" style="stroke-width:0;stroke:none;fill:none"/><path  d="M 12 -9223372036854775257
L 616 -9223372036854775257" style="stroke-width:0;stroke:none;fill:none"/><path  d="M 12 -9223372036854775257
L 616 -9223372036854775257" style="stroke-width:0;stroke:none;fill:none"/><path  d="M 12 -9223372036854775257
L 616 -9223372036854775257" style="stroke-width:0;stroke:none;fill:none"/><circle cx="616" cy="488" r="5" style="stroke-width:1;stroke:rgba(73,95,0,1.0);fill:rgba(73,95,0,1.0)"/><path  d="" style="stroke-width:1;stroke:rgba(73,95,0,1.0);fill:rgba(73,95,0,1.0)"/><circle cx="616" cy="16" r="5" style="stroke-width:1;stroke:rgba(0,255,0,1.0);fill:rgba(0,255,0,1.0)"/><path  d="" style="stroke-width:1;stroke:rgba(0,255,0,1.0);fill:rgba(0,255,0,1.0)"/><circle cx="616" cy="87" r="5" style="stroke-width:1;stroke:rgba(16,230,0,1.0);fill:rgba(16,230,0,1.0)"/><path  d="" style="stroke-width:1;stroke:rgba(16,230,0,1.0);fill:rgba(16,230,0,1.0)"/><circle cx="616" cy="102" r="5" style="stroke-width:1;stroke:rgba(19,225,0,1.0);fill:rgba(19,225,0,1.0)"/><path  d="" style="stroke-width:1;stroke:rgba(19,225,0,1.0);fill:rgba(19,225,0,1.0)"/><circle cx="616" cy="158" r="5" style="stroke-width:1;stroke:rgba(31,206,0,1.0);fill:rgba(31,206,0,1.0)"/><path  d="" style="stroke-width:1;stroke:rgba(31,206,0,1.0);fill:rgba(31,206,0,1.0)"/><path  d="M 616 488
L 626 477
L 728 477
L 728 499
L 626 499
L 616 488
Z" style="stroke-width:1;stroke:rgba(63,127,255,1.0);fill:rgba(255,255,255,1.0)"/><text x="631" y="494" style="stroke-width:0;stroke:none;fill:rgba(51,51,51,1.0);font-size:12.8px;font-family:'Roboto Medium',sans-serif">madkins/sloggy</text><path  d="M 616 16
L 626 5
L 704 5
L 704 27
L 626 27
L 616 16
Z" style="stroke-width:1;stroke:rgba(63,127,255,1.0);fill:rgba(255,255,255,1.0)"/><text x="631" y="22" style="stroke-width:0;stroke:none;fill:rgba(51,51,51,1.0);font-size:12.8px;font-family:'Roboto Medium',sans-serif">phuslu/slog</text><path  d="M 616 87
L 626 76
L 744 76
L 744 98
L 626 98
L 616 87
Z" style="stroke-width:1;stroke:rgba(63,127,255,1.0);fill:rgba(255,255,255,1.0)"/><text x="631" y="93" style="stroke-width:0;stroke:none;fill:rgba(51,51,51,1.0);font-size:12.8px;font-family:'Roboto Medium',sans-serif">slog/JSONHandler</text><path  d="M 616 125
L 626 114
L 719 114
L 719 136
L 626 136
L 616 125
Z" style="stroke-width:1;stroke:rgba(63,127,255,1.0);fill:rgba(255,255,255,1.0)"/><text x="631" y="131" style="stroke-width:0;stroke:none;fill:rgba(51,51,51,1.0);font-size:12.8px;font-family:'Roboto Medium',sans-serif">madkins/flash</text><path  d="M 616 158
L 626 147
L 732 147
L 732 169
L 626 169
L 616 158
Z" style="stroke-width:1;stroke:rgba(63,127,255,1.0);fill:rgba(255,255,255,1.0)"/><text x="631" y="164" style="stroke-width:0;stroke:none;fill:rgba(51,51,51,1.0);font-size:12.8px;font-family:'Roboto Medium',sans-serif">madkins/replattr</text></svg>