<svg xmlns="http://www.w3.org/2000/svg" xmlns:xlink="http://www.w3.org/1999/xlink" width="400" height="340">\n<path  d="M 0 0
L 400 0
L 400 340
L 0 340
L 0 0" style="stroke-width:0;stroke:none;fill:rgba(255,255,255,1.0)"/><text x="10" y="25" style="stroke-width:0;stroke:none;fill:rgba(70,70,70,1.0);font-size:15.3px;font-family:'Roboto Medium',sans-serif">Memory allocations per operation</text><path  d="M 172 45
L 177 45" style="stroke-width:1;stroke:rgba(110,112,121,1.0);fill:none"/><path  d="M 172 66
L 177 66" style="stroke-width:1;stroke:rgba(110,112,121,1.0);fill:none"/><path  d="M 172 87
L 177 87" style="stroke-width:1;stroke:rgba(110,112,121,1.0);fill:none"/><path  d="M 172 108
L 177 108" style="stroke-width:1;stroke:rgba(110,112,121,1.0);fill:none"/><path  d="M 172 130
L 177 130" style="stroke-width:1;stroke:rgba(110,112,121,1.0);fill:none"/><path  d="M 172 151
L 177 151" style="stroke-width:1;stroke:rgba(110,112,121,1.0);fill:none"/><path  d="M 172 172
L 177 172" style="stroke-width:1;stroke:rgba(110,112,121,1.0);fill:none"/><path  d="M 172 193
L 177 193" style="stroke-width:1;stroke:rgba(110,112,121,1.0);fill:none"/><path  d="M 172 215
L 177 215" style="stroke-width:1;stroke:rgba(110,112,121,1.0);fill:none"/><path  d="M 172 236
L 177 236" style="stroke-width:1;stroke:rgba(110,112,121,1.0);fill:none"/><path  d="M 172 257
L 177 257" style="stroke-width:1;stroke:rgba(110,112,121,1.0);fill:none"/><path  d="M 172 278
L 177 278" style="stroke-width:1;stroke:rgba(110,112,121,1.0);fill:none"/><path  d="M 172 300
L 177 300" style="stroke-width:1;stroke:rgba(110,112,121,1.0);fill:none"/><path  d="M 177 45
L 177 300" style="stroke-width:1;stroke:rgba(110,112,121,1.0);fill:none"/><text x="98" y="62" style="stroke-width:0;stroke:none;fill:rgba(70,70,70,1.0);font-size:15.3px;font-family:'Roboto Medium',sans-serif">Attributes</text><text x="99" y="83" style="stroke-width:0;stroke:none;fill:rgba(70,70,70,1.0);font-size:15.3px;font-family:'Roboto Medium',sans-serif">Big Group</text><text x="107" y="104" style="stroke-width:0;stroke:none;fill:rgba(70,70,70,1.0);font-size:15.3px;font-family:'Roboto Medium',sans-serif">Disabled</text><text x="91" y="126" style="stroke-width:0;stroke:none;fill:rgba(70,70,70,1.0);font-size:15.3px;font-family:'Roboto Medium',sans-serif">Key Values</text><text x="111" y="147" style="stroke-width:0;stroke:none;fill:rgba(70,70,70,1.0);font-size:15.3px;font-family:'Roboto Medium',sans-serif">Logging</text><text x="119" y="168" style="stroke-width:0;stroke:none;fill:rgba(70,70,70,1.0);font-size:15.3px;font-family:'Roboto Medium',sans-serif">Simple</text><text x="67" y="189" style="stroke-width:0;stroke:none;fill:rgba(70,70,70,1.0);font-size:15.3px;font-family:'Roboto Medium',sans-serif">Simple Source</text><text x="26" y="211" style="stroke-width:0;stroke:none;fill:rgba(70,70,70,1.0);font-size:15.3px;font-family:'Roboto Medium',sans-serif">With Attrs Attributes</text><text x="18" y="232" style="stroke-width:0;stroke:none;fill:rgba(70,70,70,1.0);font-size:15.3px;font-family:'Roboto Medium',sans-serif">With Attrs Key Values</text><text x="47" y="253" style="stroke-width:0;stroke:none;fill:rgba(70,70,70,1.0);font-size:15.3px;font-family:'Roboto Medium',sans-serif">With Attrs Simple</text><text x="18" y="274" style="stroke-width:0;stroke:none;fill:rgba(70,70,70,1.0);font-size:15.3px;font-family:'Roboto Medium',sans-serif">With Group Attributes</text><text x="10" y="296" style="stroke-width:0;stroke:none;fill:rgba(70,70,70,1.0);font-size:15.3px;font-family:'Roboto Medium',sans-serif">With Group Key Values</text><text x="173" y="325" style="stroke-width:0;stroke:none;fill:rgba(70,70,70,1.0);font-size:15.3px;font-family:'Roboto Medium',sans-serif">0</text><text x="225" y="325" style="stroke-width:0;stroke:none;fill:rgba(70,70,70,1.0);font-size:15.3px;font-family:'Roboto Medium',sans-serif">2.12k</text><text x="293" y="325" style="stroke-width:0;stroke:none;fill:rgba(70,70,70,1.0);font-size:15.3px;font-family:'Roboto Medium',sans-serif">4.24k</text><text x="361" y="325" style="stroke-width:0;stroke:none;fill:rgba(70,70,70,1.0);font-size:15.3px;font-family:'Roboto Medium',sans-serif">6.36k</text><path  d="M 210 45
L 210 300" style="stroke-width:1;stroke:rgba(224,230,242,1.0);fill:none"/><path  d="M 244 45
L 244 300" style="stroke-width:1;stroke:rgba(224,230,242,1.0);fill:none"/><path  d="M 278 45
L 278 300" style="stroke-width:1;stroke:rgba(224,230,242,1.0);fill:none"/><path  d="M 312 45
L 312 300" style="stroke-width:1;stroke:rgba(224,230,242,1.0);fill:none"/><path  d="M 346 45
L 346 300" style="stroke-width:1;stroke:rgba(224,230,242,1.0);fill:none"/><path  d="M 380 45
L 380 300" style="stroke-width:1;stroke:rgba(224,230,242,1.0);fill:none"/><path  d="M 177 283
L 181 283
L 181 294
L 177 294
L 177 283" style="stroke-width:0;stroke:none;fill:rgba(84,112,198,1.0)"/><path  d="M 177 262
L 181 262
L 181 273
L 177 273
L 177 262" style="stroke-width:0;stroke:none;fill:rgba(84,112,198,1.0)"/><path  d="M 177 241
L 178 241
L 178 252
L 177 252
L 177 241" style="stroke-width:0;stroke:none;fill:rgba(84,112,198,1.0)"/><path  d="M 177 220
L 179 220
L 179 231
L 177 231
L 177 220" style="stroke-width:0;stroke:none;fill:rgba(84,112,198,1.0)"/><path  d="M 177 198
L 179 198
L 179 209
L 177 209
L 177 198" style="stroke-width:0;stroke:none;fill:rgba(84,112,198,1.0)"/><path  d="M 177 177
L 178 177
L 178 188
L 177 188
L 177 177" style="stroke-width:0;stroke:none;fill:rgba(84,112,198,1.0)"/><path  d="M 177 156
L 177 156
L 177 167
L 177 167
L 177 156" style="stroke-width:0;stroke:none;fill:rgba(84,112,198,1.0)"/><path  d="M 177 135
L 212 135
L 212 146
L 177 146
L 177 135" style="stroke-width:0;stroke:none;fill:rgba(84,112,198,1.0)"/><path  d="M 177 113
L 178 113
L 178 124
L 177 124
L 177 113" style="stroke-width:0;stroke:none;fill:rgba(84,112,198,1.0)"/><path  d="M 177 92
L 177 92
L 177 103
L 177 103
L 177 92" style="stroke-width:0;stroke:none;fill:rgba(84,112,198,1.0)"/><path  d="M 177 71
L 360 71
L 360 82
L 177 82
L 177 71" style="stroke-width:0;stroke:none;fill:rgba(84,112,198,1.0)"/><path  d="M 177 50
L 178 50
L 178 61
L 177 61
L 177 50" style="stroke-width:0;stroke:none;fill:rgba(84,112,198,1.0)"/></svg>