<svg xmlns="http://www.w3.org/2000/svg" xmlns:xlink="http://www.w3.org/1999/xlink" width="750" height="600">\n<path  d="M 0 0
L 750 0
L 750 600
L 0 600
L 0 0" style="stroke-width:0;stroke:rgba(255,255,255,1.0);fill:rgba(255,255,255,1.0)"/><path  d="M 12 24
L 638 24
L 638 551
L 12 551
L 12 24" style="stroke-width:0;stroke:rgba(255,255,255,1.0);fill:rgba(255,255,255,1.0)"/><path  d="M 12 551
L 638 551" style="stroke-width:1;stroke:rgba(51,51,51,1.0);fill:none"/><path  d="M 12 551
L 12 556" style="stroke-width:1;stroke:rgba(51,51,51,1.0);fill:none"/><text x="5" y="573" style="stroke-width:0;stroke:none;fill:rgba(51,51,51,1.0);font-size:12.8px;font-family:'Roboto Medium',sans-serif">50</text><path  d="M 75 551
L 75 556" style="stroke-width:1;stroke:rgba(51,51,51,1.0);fill:none"/><text x="68" y="573" style="stroke-width:0;stroke:none;fill:rgba(51,51,51,1.0);font-size:12.8px;font-family:'Roboto Medium',sans-serif">55</text><path  d="M 138 551
L 138 556" style="stroke-width:1;stroke:rgba(51,51,51,1.0);fill:none"/><text x="131" y="573" style="stroke-width:0;stroke:none;fill:rgba(51,51,51,1.0);font-size:12.8px;font-family:'Roboto Medium',sans-serif">60</text><path  d="M 200 551
L 200 556" style="stroke-width:1;stroke:rgba(51,51,51,1.0);fill:none"/><text x="193" y="573" style="stroke-width:0;stroke:none;fill:rgba(51,51,51,1.0);font-size:12.8px;font-family:'Roboto Medium',sans-serif">65</text><path  d="M 263 551
L 263 556" style="stroke-width:1;stroke:rgba(51,51,51,1.0);fill:none"/><text x="256" y="573" style="stroke-width:0;stroke:none;fill:rgba(51,51,51,1.0);font-size:12.8px;font-family:'Roboto Medium',sans-serif">70</text><path  d="M 325 551
L 325 556" style="stroke-width:1;stroke:rgba(51,51,51,1.0);fill:none"/><text x="318" y="573" style="stroke-width:0;stroke:none;fill:rgba(51,51,51,1.0);font-size:12.8px;font-family:'Roboto Medium',sans-serif">75</text><path  d="M 388 551
L 388 556" style="stroke-width:1;stroke:rgba(51,51,51,1.0);fill:none"/><text x="381" y="573" style="stroke-width:0;stroke:none;fill:rgba(51,51,51,1.0);font-size:12.8px;font-family:'Roboto Medium',sans-serif">80</text><path  d="M 451 551
L 451 556" style="stroke-width:1;stroke:rgba(51,51,51,1.0);fill:none"/><text x="444" y="573" style="stroke-width:0;stroke:none;fill:rgba(51,51,51,1.0);font-size:12.8px;font-family:'Roboto Medium',sans-serif">85</text><path  d="M 513 551
L 513 556" style="stroke-width:1;stroke:rgba(51,51,51,1.0);fill:none"/><text x="506" y="573" style="stroke-width:0;stroke:none;fill:rgba(51,51,51,1.0);font-size:12.8px;font-family:'Roboto Medium',sans-serif">90</text><path  d="M 576 551
L 576 556" style="stroke-width:1;stroke:rgba(51,51,51,1.0);fill:none"/><text x="569" y="573" style="stroke-width:0;stroke:none;fill:rgba(51,51,51,1.0);font-size:12.8px;font-family:'Roboto Medium',sans-serif">95</text><path  d="M 638 551
L 638 556" style="stroke-width:1;stroke:rgba(51,51,51,1.0);fill:none"/><text x="627" y="573" style="stroke-width:0;stroke:none;fill:rgba(51,51,51,1.0);font-size:12.8px;font-family:'Roboto Medium',sans-serif">100</text><text x="309" y="595" style="stroke-width:0;stroke:none;fill:rgba(51,51,51,1.0);font-size:12.8px;font-family:'Roboto Medium',sans-serif">Large</text><path  d="M 75 551
L 75 24" style="stroke-width:0;stroke:none;fill:none"/><path  d="M 138 551
L 138 24" style="stroke-width:0;stroke:none;fill:none"/><path  d="M 200 551
L 200 24" style="stroke-width:0;stroke:none;fill:none"/><path  d="M 263 551
L 263 24" style="stroke-width:0;stroke:none;fill:none"/><path  d="M 325 551
L 325 24" style="stroke-width:0;stroke:none;fill:none"/><path  d="M 388 551
L 388 24" style="stroke-width:0;stroke:none;fill:none"/><path  d="M 451 551
L 451 24" style="stroke-width:0;stroke:none;fill:none"/><path  d="M 513 551
L 513 24" style="stroke-width:0;stroke:none;fill:none"/><path  d="M 576 551
L 576 24" style="stroke-width:0;stroke:none;fill:none"/><path  d="M 639 551
L 639 24" style="stroke-width:1;stroke:rgba(51,51,51,1.0);fill:none"/><path  d="M 639 551
L 644 551" style="stroke-width:1;stroke:rgba(51,51,51,1.0);fill:none"/><text x="649" y="557" style="stroke-width:0;stroke:none;fill:rgba(51,51,51,1.0);font-size:12.8px;font-family:'Roboto Medium',sans-serif">50</text><path  d="M 639 498
L 644 498" style="stroke-width:1;stroke:rgba(51,51,51,1.0);fill:none"/><text x="649" y="504" style="stroke-width:0;stroke:none;fill:rgba(51,51,51,1.0);font-size:12.8px;font-family:'Roboto Medium',sans-serif">55</text><path  d="M 639 445
L 644 445" style="stroke-width:1;stroke:rgba(51,51,51,1.0);fill:none"/><text x="649" y="451" style="stroke-width:0;stroke:none;fill:rgba(51,51,51,1.0);font-size:12.8px;font-family:'Roboto Medium',sans-serif">60</text><path  d="M 639 392
L 644 392" style="stroke-width:1;stroke:rgba(51,51,51,1.0);fill:none"/><text x="649" y="398" style="stroke-width:0;stroke:none;fill:rgba(51,51,51,1.0);font-size:12.8px;font-family:'Roboto Medium',sans-serif">65</text><path  d="M 639 340
L 644 340" style="stroke-width:1;stroke:rgba(51,51,51,1.0);fill:none"/><text x="649" y="346" style="stroke-width:0;stroke:none;fill:rgba(51,51,51,1.0);font-size:12.8px;font-family:'Roboto Medium',sans-serif">70</text><path  d="M 639 287
L 644 287" style="stroke-width:1;stroke:rgba(51,51,51,1.0);fill:none"/><text x="649" y="293" style="stroke-width:0;stroke:none;fill:rgba(51,51,51,1.0);font-size:12.8px;font-family:'Roboto Medium',sans-serif">75</text><path  d="M 639 234
L 644 234" style="stroke-width:1;stroke:rgba(51,51,51,1.0);fill:none"/><text x="649" y="240" style="stroke-width:0;stroke:none;fill:rgba(51,51,51,1.0);font-size:12.8px;font-family:'Roboto Medium',sans-serif">80</text><path  d="M 639 182
L 644 182" style="stroke-width:1;stroke:rgba(51,51,51,1.0);fill:none"/><text x="649" y="188" style="stroke-width:0;stroke:none;fill:rgba(51,51,51,1.0);font-size:12.8px;font-family:'Roboto Medium',sans-serif">85</text><path  d="M 639 129
L 644 129" style="stroke-width:1;stroke:rgba(51,51,51,1.0);fill:none"/><text x="649" y="135" style="stroke-width:0;stroke:none;fill:rgba(51,51,51,1.0);font-size:12.8px;font-family:'Roboto Medium',sans-serif">90</text><path  d="M 639 76
L 644 76" style="stroke-width:1;stroke:rgba(51,51,51,1.0);fill:none"/><text x="649" y="82" style="stroke-width:0;stroke:none;fill:rgba(51,51,51,1.0);font-size:12.8px;font-family:'Roboto Medium',sans-serif">95</text><path  d="M 639 24
L 644 24" style="stroke-width:1;stroke:rgba(51,51,51,1.0);fill:none"/><text x="649" y="30" style="stroke-width:0;stroke:none;fill:rgba(51,51,51,1.0);font-size:12.8px;font-family:'Roboto Medium',sans-serif">100</text><text x="681" y="271" style="stroke-width:0;stroke:none;fill:rgba(51,51,51,1.0);font-size:12.8px;font-family:'Roboto Medium',sans-serif" transform="rotate(90.00,681,271)">Small</text><path  d="M 12 1078
L 638 1078" style="stroke-width:0;stroke:none;fill:none"/><path  d="M 12 498
L 638 498" style="stroke-width:0;stroke:none;fill:none"/><path  d="M 12 445
L 638 445" style="stroke-width:0;stroke:none;fill:none"/><path  d="M 12 392
L 638 392" style="stroke-width:0;stroke:none;fill:none"/><path  d="M 12 340
L 638 340" style="stroke-width:0;stroke:none;fill:none"/><path  d="M 12 287
L 638 287" style="stroke-width:0;stroke:none;fill:none"/><path  d="M 12 234
L 638 234" style="stroke-width:0;stroke:none;fill:none"/><path  d="M 12 182
L 638 182" style="stroke-width:0;stroke:none;fill:none"/><path  d="M 12 129
L 638 129" style="stroke-width:0;stroke:none;fill:none"/><path  d="M 12 76
L 638 76" style="stroke-width:0;stroke:none;fill:none"/><path  d="M 11 551
L 11 24" style="stroke-width:1;stroke:rgba(51,51,51,1.0);fill:none"/><path  d="M 11 -9223372036854775257
L 6 -9223372036854775257" style="stroke-width:1;stroke:rgba(51,51,51,1.0);fill:none"/><text x="-25" y="-9223372036854775251" style="stroke-width:0;stroke:none;fill:rgba(51,51,51,1.0);font-size:12.8px;font-family:'Roboto Medium',sans-serif">0.00</text><path  d="M 11 -9223372036854775257
L 6 -9223372036854775257" style="stroke-width:1;stroke:rgba(51,51,51,1.0);fill:none"/><text x="-25" y="-9223372036854775251" style="stroke-width:0;stroke:none;fill:rgba(51,51,51,1.0);font-size:12.8px;font-family:'Roboto Medium',sans-serif">0.00</text><path  d="M 11 -9223372036854775257
L 6 -9223372036854775257" style="stroke-width:1;stroke:rgba(51,51,51,1.0);fill:none"/><text x="-25" y="-9223372036854775251" style="stroke-width:0;stroke:none;fill:rgba(51,51,51,1.0);font-size:12.8px;font-family:'Roboto Medium',sans-serif">0.00</text><path  d="M 11 -9223372036854775257
L 6 -9223372036854775257" style="stroke-width:1;stroke:rgba(51,51,51,1.0);fill:none"/><text x="-25" y="-9223372036854775251" style="stroke-width:0;stroke:none;fill:rgba(51,51,51,1.0);font-size:12.8px;font-family:'Roboto Medium',sans-serif">0.00</text><path  d="M 11 -9223372036854775257
L 6 -9223372036854775257" style="stroke-width:1;stroke:rgba(51,51,51,1.0);fill:none"/><text x="-25" y="-9223372036854775251" style="stroke-width:0;stroke:none;fill:rgba(51,51,51,1.0);font-size:12.8px;font-family:'Roboto Medium',sans-serif">0.00</text><path  d="M 11 -9223372036854775257
L 6 -9223372036854775257" style="stroke-width:1;stroke:rgba(51,51,51,1.0);fill:none"/><text x="-25" y="-9223372036854775251" style="stroke-width:0;stroke:none;fill:rgba(51,51,51,1.0);font-size:12.8px;font-family:'Roboto Medium',sans-serif">0.00</text><path  d="M 11 -9223372036854775257
L 6 -9223372036854775257" style="stroke-width:1;stroke:rgba(51,51,51,1.0);fill:none"/><text x="-25" y="-9223372036854775251" style="stroke-width:0;stroke:none;fill:rgba(51,51,51,1.0);font-size:12.8px;font-family:'Roboto Medium',sans-serif">0.00</text><path  d="M 11 -9223372036854775257
L 6 -9223372036854775257" style="stroke-width:1;stroke:rgba(51,51,51,1.0);fill:none"/><text x="-25" y="-9223372036854775251" style="stroke-width:0;stroke:none;fill:rgba(51,51,51,1.0);font-size:12.8px;font-family:'Roboto Medium',sans-serif">0.00</text><path  d="M 11 -9223372036854775257
L 6 -9223372036854775257" style="stroke-width:1;stroke:rgba(51,51,51,1.0);fill:none"/><text x="-25" y="-9223372036854775251" style="stroke-width:0;stroke:none;fill:rgba(51,51,51,1.0);font-size:12.8px;font-family:'Roboto Medium',sans-serif">0.00</text><path  d="M 11 -9223372036854775257
L 6 -9223372036854775257" style="stroke-width:1;stroke:rgba(51,51,51,1.0);fill:none"/><text x="-25" y="-9223372036854775251" style="stroke-width:0;stroke:none;fill:rgba(51,51,51,1.0);font-size:12.8px;font-family:'Roboto Medium',sans-serif">0.00</text><path  d="M 11 -9223372036854775257
L 6 -9223372036854775257" style="stroke-width:1;stroke:rgba(51,51,51,1.0);fill:none"/><text x="-25" y="-9223372036854775251" style="stroke-width:0;stroke:none;fill:rgba(51,51,51,1.0);font-size:12.8px;font-family:'Roboto Medium',sans-serif">0.00</text><path  d="M 11 -9223372036854775257
L 6 -9223372036854775257" style="stroke-width:1;stroke:rgba(51,51,51,1.0);fill:none"/><text x="-25" y="-9223372036854775251" style="stroke-width:0;stroke:none;fill:rgba(51,51,51,1.0);font-size:12.8px;font-family:'Roboto Medium',sans-serif">0.00</text><path  d="M 11 -9223372036854775257
L 6 -9223372036854775257" style="stroke-width:1;stroke:rgba(51,51,51,1.0);fill:none"/><text x="-25" y="-9223372036854775251" style="stroke-width:0;stroke:none;fill:rgba(51,51,51,1.0);font-size:12.8px;font-family:'Roboto Medium',sans-serif">0.00</text><path  d="M 11 -9223372036854775257
L 6 -9223372036854775257" style="stroke-width:1;stroke:rgba(51,51,51,1.0);fill:none"/><text x="-25" y="-9223372036854775251" style="stroke-width:0;stroke:none;fill:rgba(51,51,51,1.0);font-size:12.8px;font-family:'Roboto Medium',sans-serif">0.00</text><path  d="M 11 -9223372036854775257
L 6 -9223372036854775257" style="stroke-width:1;stroke:rgba(51,51,51,1.0);fill:none"/><text x="-25" y="-9223372036854775251" style="stroke-width:0;stroke:none;fill:rgba(51,51,51,1.0);font-size:12.8px;font-family:'Roboto Medium',sans-serif">0.00</text><path  d="M 12 -9223372036854775257
L 638 -9223372036854775257" style="stroke-width:0;stroke:none;fill:none"/><path  d="M 12 -9223372036854775257
L 638 -9223372036854775257" style="stroke-width:0;stroke:none;fill:none"/><path  d="M 12 -9223372036854775257
L 638 -9223372036854775257" style="stroke-width:0;stroke:none;fill:none"/><path  d="M 12 -9223372036854775257
L 638 -9223372036854775257" style="stroke-width:0;stroke:none;fill:none"/><path  d="M 12 -9223372036854775257
L 638 -9223372036854775257" style="stroke-width:0;stroke:none;fill:none"/><path  d="M 12 -9223372036854775257
L 638 -9223372036854775257" style="stroke-width:0;stroke:none;fill:none"/><path  d="M 12 -9223372036854775257
L 638 -9223372036854775257" style="stroke-width:0;stroke:none;fill:none"/><path  d="M 12 -9223372036854775257
L 638 -9223372036854775257" style="stroke-width:0;stroke:none;fill:none"/><path  d="M 12 -9223372036854775257
L 638 -9223372036854775257" style="stroke-width:0;stroke:none;fill:none"/><path  d="M 12 -9223372036854775257
L 638 -9223372036854775257" style="stroke-width:0;stroke:none;fill:none"/><path  d="M 12 -9223372036854775257
L 638 -9223372036854775257" style="stroke-width:0;stroke:none;fill:none"/><path  d="M 12 -9223372036854775257
L 638 -9223372036854775257" style="stroke-width:0;stroke:none;fill:none"/><path  d="M 12 -9223372036854775257
L 638 -9223372036854775257" style="stroke-width:0;stroke:none;fill:none"/><path  d="M 12 -9223372036854775257
L 638 -9223372036854775257" style="stroke-width:0;stroke:none;fill:none"/><path  d="M 325 24
L 325 287
L 638 287" style="stroke-width:1;stroke:rgba(255,0,127,0.2);fill:none"/><path  d="M 551 287
L 561 276
L 614 276
L 614 298
L 561 298
L 551 287
Z" style="stroke-width:1;stroke:rgba(255,0,127,0.2);fill:rgba(255,255,255,1.0)"/><text x="566" y="293" style="stroke-width:0;stroke:none;fill:rgba(51,51,51,1.0);font-size:12.8px;font-family:'Roboto Medium',sans-serif">Quarter</text><circle cx="600" cy="158" r="5" style="stroke-width:1;stroke:rgba(38,207,0,1.0);fill:rgba(38,207,0,1.0)"/><path  d="" style="stroke-width:1;stroke:rgba(38,207,0,1.0);fill:rgba(38,207,0,1.0)"/><circle cx="541" cy="68" r="5" style="stroke-width:1;stroke:rgba(30,222,0,1.0);fill:rgba(30,222,0,1.0)"/><path  d="" style="stroke-width:1;stroke:rgba(30,222,0,1.0);fill:rgba(30,222,0,1.0)"/><circle cx="638" cy="24" r="5" style="stroke-width:1;stroke:rgba(0,255,0,1.0);fill:rgba(0,255,0,1.0)"/><path  d="" style="stroke-width:1;stroke:rgba(0,255,0,1.0);fill:rgba(0,255,0,1.0)"/><circle cx="572" cy="57" r="5" style="stroke-width:1;stroke:rgba(21,232,0,1.0);fill:rgba(21,232,0,1.0)"/><path  d="" style="stroke-width:1;stroke:rgba(21,232,0,1.0);fill:rgba(21,232,0,1.0)"/><circle cx="572" cy="32" r="5" style="stroke-width:1;stroke:rgba(15,235,0,1.0);fill:rgba(15,235,0,1.0)"/><path  d="" style="stroke-width:1;stroke:rgba(15,235,0,1.0);fill:rgba(15,235,0,1.0)"/><circle cx="497" cy="85" r="5" style="stroke-width:1;stroke:rgba(43,208,0,1.0);fill:rgba(43,208,0,1.0)"/><path  d="" style="stroke-width:1;stroke:rgba(43,208,0,1.0);fill:rgba(43,208,0,1.0)"/><circle cx="366" cy="186" r="5" style="stroke-width:1;stroke:rgba(93,158,0,1.0);fill:rgba(93,158,0,1.0)"/><path  d="" style="stroke-width:1;stroke:rgba(93,158,0,1.0);fill:rgba(93,158,0,1.0)"/><circle cx="631" cy="38" r="5" style="stroke-width:1;stroke:rgba(5,249,0,1.0);fill:rgba(5,249,0,1.0)"/><path  d="" style="stroke-width:1;stroke:rgba(5,249,0,1.0);fill:rgba(5,249,0,1.0)"/><path  d="M 600 158
L 610 147
L 741 147
L 741 169
L 610 169
L 600 158
Z" style="stroke-width:1;stroke:rgba(63,127,255,1.0);fill:rgba(255,255,255,1.0)"/><text x="615" y="164" style="stroke-width:0;stroke:none;fill:rgba(51,51,51,1.0);font-size:12.8px;font-family:'Roboto Medium',sans-serif">chanchal/zaphandler</text><path  d="M 541 68
L 551 57
L 644 57
L 644 79
L 551 79
L 541 68
Z" style="stroke-width:1;stroke:rgba(63,127,255,1.0);fill:rgba(255,255,255,1.0)"/><text x="556" y="74" style="stroke-width:0;stroke:none;fill:rgba(51,51,51,1.0);font-size:12.8px;font-family:'Roboto Medium',sans-serif">madkins/flash</text><path  d="M 638 16
L 648 5
L 726 5
L 726 27
L 648 27
L 638 16
Z" style="stroke-width:1;stroke:rgba(63,127,255,1.0);fill:rgba(255,255,255,1.0)"/><text x="653" y="22" style="stroke-width:0;stroke:none;fill:rgba(51,51,51,1.0);font-size:12.8px;font-family:'Roboto Medium',sans-serif">phuslu/slog</text><path  d="M 572 45
L 582 34
L 700 34
L 700 56
L 582 56
L 572 45
Z" style="stroke-width:1;stroke:rgba(63,127,255,1.0);fill:rgba(255,255,255,1.0)"/><text x="587" y="51" style="stroke-width:0;stroke:none;fill:rgba(51,51,51,1.0);font-size:12.8px;font-family:'Roboto Medium',sans-serif">slog/JSONHandler</text><path  d="M 572 40
L 582 29
L 696 29
L 696 51
L 582 51
L 572 40
Z" style="stroke-width:1;stroke:rgba(63,127,255,1.0);fill:rgba(255,255,255,1.0)"/><text x="587" y="46" style="stroke-width:0;stroke:none;fill:rgba(51,51,51,1.0);font-size:12.8px;font-family:'Roboto Medium',sans-serif">svcrunner/jsonlog</text><path  d="M 497 92
L 507 81
L 613 81
L 613 103
L 507 103
L 497 92
Z" style="stroke-width:1;stroke:rgba(63,127,255,1.0);fill:rgba(255,255,255,1.0)"/><text x="512" y="98" style="stroke-width:0;stroke:none;fill:rgba(51,51,51,1.0);font-size:12.8px;font-family:'Roboto Medium',sans-serif">madkins/replattr</text><path  d="M 366 186
L 376 175
L 478 175
L 478 197
L 376 197
L 366 186
Z" style="stroke-width:1;stroke:rgba(63,127,255,1.0);fill:rgba(255,255,255,1.0)"/><text x="381" y="192" style="stroke-width:0;stroke:none;fill:rgba(51,51,51,1.0);font-size:12.8px;font-family:'Roboto Medium',sans-serif">madkins/sloggy</text><path  d="M 631 38
L 641 27
L 744 27
L 744 49
L 641 49
L 631 38
Z" style="stroke-width:1;stroke:rgba(63,127,255,1.0);fill:rgba(255,255,255,1.0)"/><text x="646" y="44" style="stroke-width:0;stroke:none;fill:rgba(51,51,51,1.0);font-size:12.8px;font-family:'Roboto Medium',sans-serif">phsym/zeroslog</text></svg>