<svg xmlns="http://www.w3.org/2000/svg" xmlns:xlink="http://www.w3.org/1999/xlink" width="750" height="600">\n<path  d="M 0 0
L 750 0
L 750 600
L 0 600
L 0 0" style="stroke-width:0;stroke:rgba(255,255,255,1.0);fill:rgba(255,255,255,1.0)"/><path  d="M 12 29
L 639 29
L 639 551
L 12 551
L 12 29" style="stroke-width:0;stroke:rgba(255,255,255,1.0);fill:rgba(255,255,255,1.0)"/><path  d="M 12 551
L 639 551" style="stroke-width:1;stroke:rgba(51,51,51,1.0);fill:none"/><path  d="M 12 551
L 12 556" style="stroke-width:1;stroke:rgba(51,51,51,1.0);fill:none"/><text x="5" y="573" style="stroke-width:0;stroke:none;fill:rgba(51,51,51,1.0);font-size:12.8px;font-family:'Roboto Medium',sans-serif">50</text><path  d="M 75 551
L 75 556" style="stroke-width:1;stroke:rgba(51,51,51,1.0);fill:none"/><text x="68" y="573" style="stroke-width:0;stroke:none;fill:rgba(51,51,51,1.0);font-size:12.8px;font-family:'Roboto Medium',sans-serif">55</text><path  d="M 138 551
L 138 556" style="stroke-width:1;stroke:rgba(51,51,51,1.0);fill:none"/><text x="131" y="573" style="stroke-width:0;stroke:none;fill:rgba(51,51,51,1.0);font-size:12.8px;font-family:'Roboto Medium',sans-serif">60</text><path  d="M 201 551
L 201 556" style="stroke-width:1;stroke:rgba(51,51,51,1.0);fill:none"/><text x="194" y="573" style="stroke-width:0;stroke:none;fill:rgba(51,51,51,1.0);font-size:12.8px;font-family:'Roboto Medium',sans-serif">65</text><path  d="M 263 551
L 263 556" style="stroke-width:1;stroke:rgba(51,51,51,1.0);fill:none"/><text x="256" y="573" style="stroke-width:0;stroke:none;fill:rgba(51,51,51,1.0);font-size:12.8px;font-family:'Roboto Medium',sans-serif">70</text><path  d="M 326 551
L 326 556" style="stroke-width:1;stroke:rgba(51,51,51,1.0);fill:none"/><text x="319" y="573" style="stroke-width:0;stroke:none;fill:rgba(51,51,51,1.0);font-size:12.8px;font-family:'Roboto Medium',sans-serif">75</text><path  d="M 389 551
L 389 556" style="stroke-width:1;stroke:rgba(51,51,51,1.0);fill:none"/><text x="382" y="573" style="stroke-width:0;stroke:none;fill:rgba(51,51,51,1.0);font-size:12.8px;font-family:'Roboto Medium',sans-serif">80</text><path  d="M 451 551
L 451 556" style="stroke-width:1;stroke:rgba(51,51,51,1.0);fill:none"/><text x="444" y="573" style="stroke-width:0;stroke:none;fill:rgba(51,51,51,1.0);font-size:12.8px;font-family:'Roboto Medium',sans-serif">85</text><path  d="M 514 551
L 514 556" style="stroke-width:1;stroke:rgba(51,51,51,1.0);fill:none"/><text x="507" y="573" style="stroke-width:0;stroke:none;fill:rgba(51,51,51,1.0);font-size:12.8px;font-family:'Roboto Medium',sans-serif">90</text><path  d="M 577 551
L 577 556" style="stroke-width:1;stroke:rgba(51,51,51,1.0);fill:none"/><text x="570" y="573" style="stroke-width:0;stroke:none;fill:rgba(51,51,51,1.0);font-size:12.8px;font-family:'Roboto Medium',sans-serif">95</text><path  d="M 639 551
L 639 556" style="stroke-width:1;stroke:rgba(51,51,51,1.0);fill:none"/><text x="628" y="573" style="stroke-width:0;stroke:none;fill:rgba(51,51,51,1.0);font-size:12.8px;font-family:'Roboto Medium',sans-serif">100</text><text x="310" y="595" style="stroke-width:0;stroke:none;fill:rgba(51,51,51,1.0);font-size:12.8px;font-family:'Roboto Medium',sans-serif">Large</text><path  d="M 75 551
L 75 29" style="stroke-width:0;stroke:none;fill:none"/><path  d="M 138 551
L 138 29" style="stroke-width:0;stroke:none;fill:none"/><path  d="M 201 551
L 201 29" style="stroke-width:0;stroke:none;fill:none"/><path  d="M 263 551
L 263 29" style="stroke-width:0;stroke:none;fill:none"/><path  d="M 326 551
L 326 29" style="stroke-width:0;stroke:none;fill:none"/><path  d="M 389 551
L 389 29" style="stroke-width:0;stroke:none;fill:none"/><path  d="M 451 551
L 451 29" style="stroke-width:0;stroke:none;fill:none"/><path  d="M 514 551
L 514 29" style="stroke-width:0;stroke:none;fill:none"/><path  d="M 577 551
L 577 29" style="stroke-width:0;stroke:none;fill:none"/><path  d="M 640 551
L 640 29" style="stroke-width:1;stroke:rgba(51,51,51,1.0);fill:none"/><path  d="M 640 551
L 645 551" style="stroke-width:1;stroke:rgba(51,51,51,1.0);fill:none"/><text x="650" y="557" style="stroke-width:0;stroke:none;fill:rgba(51,51,51,1.0);font-size:12.8px;font-family:'Roboto Medium',sans-serif">50</text><path  d="M 640 498
L 645 498" style="stroke-width:1;stroke:rgba(51,51,51,1.0);fill:none"/><text x="650" y="504" style="stroke-width:0;stroke:none;fill:rgba(51,51,51,1.0);font-size:12.8px;font-family:'Roboto Medium',sans-serif">55</text><path  d="M 640 446
L 645 446" style="stroke-width:1;stroke:rgba(51,51,51,1.0);fill:none"/><text x="650" y="452" style="stroke-width:0;stroke:none;fill:rgba(51,51,51,1.0);font-size:12.8px;font-family:'Roboto Medium',sans-serif">60</text><path  d="M 640 394
L 645 394" style="stroke-width:1;stroke:rgba(51,51,51,1.0);fill:none"/><text x="650" y="400" style="stroke-width:0;stroke:none;fill:rgba(51,51,51,1.0);font-size:12.8px;font-family:'Roboto Medium',sans-serif">65</text><path  d="M 640 342
L 645 342" style="stroke-width:1;stroke:rgba(51,51,51,1.0);fill:none"/><text x="650" y="348" style="stroke-width:0;stroke:none;fill:rgba(51,51,51,1.0);font-size:12.8px;font-family:'Roboto Medium',sans-serif">70</text><path  d="M 640 290
L 645 290" style="stroke-width:1;stroke:rgba(51,51,51,1.0);fill:none"/><text x="650" y="296" style="stroke-width:0;stroke:none;fill:rgba(51,51,51,1.0);font-size:12.8px;font-family:'Roboto Medium',sans-serif">75</text><path  d="M 640 237
L 645 237" style="stroke-width:1;stroke:rgba(51,51,51,1.0);fill:none"/><text x="650" y="243" style="stroke-width:0;stroke:none;fill:rgba(51,51,51,1.0);font-size:12.8px;font-family:'Roboto Medium',sans-serif">80</text><path  d="M 640 185
L 645 185" style="stroke-width:1;stroke:rgba(51,51,51,1.0);fill:none"/><text x="650" y="191" style="stroke-width:0;stroke:none;fill:rgba(51,51,51,1.0);font-size:12.8px;font-family:'Roboto Medium',sans-serif">85</text><path  d="M 640 133
L 645 133" style="stroke-width:1;stroke:rgba(51,51,51,1.0);fill:none"/><text x="650" y="139" style="stroke-width:0;stroke:none;fill:rgba(51,51,51,1.0);font-size:12.8px;font-family:'Roboto Medium',sans-serif">90</text><path  d="M 640 81
L 645 81" style="stroke-width:1;stroke:rgba(51,51,51,1.0);fill:none"/><text x="650" y="87" style="stroke-width:0;stroke:none;fill:rgba(51,51,51,1.0);font-size:12.8px;font-family:'Roboto Medium',sans-serif">95</text><path  d="M 640 29
L 645 29" style="stroke-width:1;stroke:rgba(51,51,51,1.0);fill:none"/><text x="650" y="35" style="stroke-width:0;stroke:none;fill:rgba(51,51,51,1.0);font-size:12.8px;font-family:'Roboto Medium',sans-serif">100</text><text x="682" y="274" style="stroke-width:0;stroke:none;fill:rgba(51,51,51,1.0);font-size:12.8px;font-family:'Roboto Medium',sans-serif" transform="rotate(90.00,682,274)">Small</text><path  d="M 12 1073
L 639 1073" style="stroke-width:0;stroke:none;fill:none"/><path  d="M 12 498
L 639 498" style="stroke-width:0;stroke:none;fill:none"/><path  d="M 12 446
L 639 446" style="stroke-width:0;stroke:none;fill:none"/><path  d="M 12 394
L 639 394" style="stroke-width:0;stroke:none;fill:none"/><path  d="M 12 342
L 639 342" style="stroke-width:0;stroke:none;fill:none"/><path  d="M 12 290
L 639 290" style="stroke-width:0;stroke:none;fill:none"/><path  d="M 12 237
L 639 237" style="stroke-width:0;stroke:none;fill:none"/><path  d="M 12 185
L 639 185" style="stroke-width:0;stroke:none;fill:none"/><path  d="M 12 133
L 639 133" style="stroke-width:0;stroke:none;fill:none"/><path  d="M 12 81
L 639 81" style="stroke-width:0;stroke:none;fill:none"/><path  d="M 11 551
L 11 29" style="stroke-width:1;stroke:rgba(51,51,51,1.0);fill:none"/><path  d="M 11 -9223372036854775257
L 6 -9223372036854775257" style="stroke-width:1;stroke:rgba(51,51,51,1.0);fill:none"/><text x="-25" y="-9223372036854775251" style="stroke-width:0;stroke:none;fill:rgba(51,51,51,1.0);font-size:12.8px;font-family:'Roboto Medium',sans-serif">0.00</text><path  d="M 11 -9223372036854775257
L 6 -9223372036854775257" style="stroke-width:1;stroke:rgba(51,51,51,1.0);fill:none"/><text x="-25" y="-9223372036854775251" style="stroke-width:0;stroke:none;fill:rgba(51,51,51,1.0);font-size:12.8px;font-family:'Roboto Medium',sans-serif">0.00</text><path  d="M 11 -9223372036854775257
L 6 -9223372036854775257" style="stroke-width:1;stroke:rgba(51,51,51,1.0);fill:none"/><text x="-25" y="-9223372036854775251" style="stroke-width:0;stroke:none;fill:rgba(51,51,51,1.0);font-size:12.8px;font-family:'Roboto Medium',sans-serif">0.00</text><path  d="M 11 -9223372036854775257
L 6 -9223372036854775257" style="stroke-width:1;stroke:rgba(51,51,51,1.0);fill:none"/><text x="-25" y="-9223372036854775251" style="stroke-width:0;stroke:none;fill:rgba(51,51,51,1.0);font-size:12.8px;font-family:'Roboto Medium',sans-serif">0.00</text><path  d="M 11 -9223372036854775257
L 6 -9223372036854775257" style="stroke-width:1;stroke:rgba(51,51,51,1.0);fill:none"/><text x="-25" y="-9223372036854775251" style="stroke-width:0;stroke:none;fill:rgba(51,51,51,1.0);font-size:12.8px;font-family:'Roboto Medium',sans-serif">0.00</text><path  d="M 11 -9223372036854775257
L 6 -9223372036854775257" style="stroke-width:1;stroke:rgba(51,51,51,1.0);fill:none"/><text x="-25" y="-9223372036854775251" style="stroke-width:0;stroke:none;fill:rgba(51,51,51,1.0);font-size:12.8px;font-family:'Roboto Medium',sans-serif">0.00</text><path  d="M 11 -9223372036854775257
L 6 -9223372036854775257" style="stroke-width:1;stroke:rgba(51,51,51,1.0);fill:none"/><text x="-25" y="-9223372036854775251" style="stroke-width:0;stroke:none;fill:rgba(51,51,51,1.0);font-size:12.8px;font-family:'Roboto Medium',sans-serif">0.00</text><path  d="M 11 -9223372036854775257
L 6 -9223372036854775257" style="stroke-width:1;stroke:rgba(51,51,51,1.0);fill:none"/><text x="-25" y="-9223372036854775251" style="stroke-width:0;stroke:none;fill:rgba(51,51,51,1.0);font-size:12.8px;font-family:'Roboto Medium',sans-serif">0.00</text><path  d="M 11 -9223372036854775257
L 6 -9223372036854775257" style="stroke-width:1;stroke:rgba(51,51,51,1.0);fill:none"/><text x="-25" y="-9223372036854775251" style="stroke-width:0;stroke:none;fill:rgba(51,51,51,1.0);font-size:12.8px;font-family:'Roboto Medium',sans-serif">0.00</text><path  d="M 11 -9223372036854775257
L 6 -9223372036854775257" style="stroke-width:1;stroke:rgba(51,51,51,1.0);fill:none"/><text x="-25" y="-9223372036854775251" style="stroke-width:0;stroke:none;fill:rgba(51,51,51,1.0);font-size:12.8px;font-family:'Roboto Medium',sans-serif">0.00</text><path  d="M 11 -9223372036854775257
L 6 -9223372036854775257" style="stroke-width:1;stroke:rgba(51,51,51,1.0);fill:none"/><text x="-25" y="-9223372036854775251" style="stroke-width:0;stroke:none;fill:rgba(51,51,51,1.0);font-size:12.8px;font-family:'Roboto Medium',sans-serif">0.00</text><path  d="M 11 -9223372036854775257
L 6 -9223372036854775257" style="stroke-width:1;stroke:rgba(51,51,51,1.0);fill:none"/><text x="-25" y="-9223372036854775251" style="stroke-width:0;stroke:none;fill:rgba(51,51,51,1.0);font-size:12.8px;font-family:'Roboto Medium',sans-serif">0.00</text><path  d="M 11 -9223372036854775257
L 6 -9223372036854775257" style="stroke-width:1;stroke:rgba(51,51,51,1.0);fill:none"/><text x="-25" y="-9223372036854775251" style="stroke-width:0;stroke:none;fill:rgba(51,51,51,1.0);font-size:12.8px;font-family:'Roboto Medium',sans-serif">0.00</text><path  d="M 11 -9223372036854775257
L 6 -9223372036854775257" style="stroke-width:1;stroke:rgba(51,51,51,1.0);fill:none"/><text x="-25" y="-9223372036854775251" style="stroke-width:0;stroke:none;fill:rgba(51,51,51,1.0);font-size:12.8px;font-family:'Roboto Medium',sans-serif">0.00</text><path  d="M 11 -9223372036854775257
L 6 -9223372036854775257" style="stroke-width:1;stroke:rgba(51,51,51,1.0);fill:none"/><text x="-25" y="-9223372036854775251" style="stroke-width:0;stroke:none;fill:rgba(51,51,51,1.0);font-size:12.8px;font-family:'Roboto Medium',sans-serif">0.00</text><path  d="M 12 -9223372036854775257
L 639 -9223372036854775257" style="stroke-width:0;stroke:none;fill:none"/><path  d="M 12 -9223372036854775257
L 639 -9223372036854775257" style="stroke-width:0;stroke:none;fill:none"/><path  d="M 12 -9223372036854775257
L 639 -9223372036854775257" style="stroke-width:0;stroke:none;fill:none"/><path  d="M 12 -9223372036854775257
L 639 -9223372036854775257" style="stroke-width:0;stroke:none;fill:none"/><path  d="M 12 -9223372036854775257
L 639 -9223372036854775257" style="stroke-width:0;stroke:none;fill:none"/><path  d="M 12 -9223372036854775257
L 639 -9223372036854775257" style="stroke-width:0;stroke:none;fill:none"/><path  d="M 12 -9223372036854775257
L 639 -9223372036854775257" style="stroke-width:0;stroke:none;fill:none"/><path  d="M 12 -9223372036854775257
L 639 -9223372036854775257" style="stroke-width:0;stroke:none;fill:none"/><path  d="M 12 -9223372036854775257
L 639 -9223372036854775257" style="stroke-width:0;stroke:none;fill:none"/><path  d="M 12 -9223372036854775257
L 639 -9223372036854775257" style="stroke-width:0;stroke:none;fill:none"/><path  d="M 12 -9223372036854775257
L 639 -9223372036854775257" style="stroke-width:0;stroke:none;fill:none"/><path  d="M 12 -9223372036854775257
L 639 -9223372036854775257" style="stroke-width:0;stroke:none;fill:none"/><path  d="M 12 -9223372036854775257
L 639 -9223372036854775257" style="stroke-width:0;stroke:none;fill:none"/><path  d="M 12 -9223372036854775257
L 639 -9223372036854775257" style="stroke-width:0;stroke:none;fill:none"/><path  d="M 326 29
L 326 290
L 639 290" style="stroke-width:1;stroke:rgba(255,0,127,0.2);fill:none"/><path  d="M 552 290
L 562 279
L 615 279
L 615 301
L 562 301
L 552 290
Z" style="stroke-width:1;stroke:rgba(255,0,127,0.2);fill:rgba(255,255,255,1.0)"/><text x="567" y="296" style="stroke-width:0;stroke:none;fill:rgba(51,51,51,1.0);font-size:12.8px;font-family:'Roboto Medium',sans-serif">Quarter</text><circle cx="632" cy="43" r="5" style="stroke-width:1;stroke:rgba(5,249,0,1.0);fill:rgba(5,249,0,1.0)"/><path  d="" style="stroke-width:1;stroke:rgba(5,249,0,1.0);fill:rgba(5,249,0,1.0)"/><circle cx="639" cy="29" r="5" style="stroke-width:1;stroke:rgba(0,254,0,1.0);fill:rgba(0,254,0,1.0)"/><path  d="" style="stroke-width:1;stroke:rgba(0,254,0,1.0);fill:rgba(0,254,0,1.0)"/><circle cx="574" cy="63" r="5" style="stroke-width:1;stroke:rgba(21,232,0,1.0);fill:rgba(21,232,0,1.0)"/><path  d="" style="stroke-width:1;stroke:rgba(21,232,0,1.0);fill:rgba(21,232,0,1.0)"/><circle cx="496" cy="107" r="5" style="stroke-width:1;stroke:rgba(47,205,0,1.0);fill:rgba(47,205,0,1.0)"/><path  d="" style="stroke-width:1;stroke:rgba(47,205,0,1.0);fill:rgba(47,205,0,1.0)"/><circle cx="370" cy="189" r="5" style="stroke-width:1;stroke:rgba(93,159,0,1.0);fill:rgba(93,159,0,1.0)"/><path  d="" style="stroke-width:1;stroke:rgba(93,159,0,1.0);fill:rgba(93,159,0,1.0)"/><circle cx="571" cy="38" r="5" style="stroke-width:1;stroke:rgba(15,235,0,1.0);fill:rgba(15,235,0,1.0)"/><path  d="" style="stroke-width:1;stroke:rgba(15,235,0,1.0);fill:rgba(15,235,0,1.0)"/><circle cx="601" cy="161" r="5" style="stroke-width:1;stroke:rgba(38,207,0,1.0);fill:rgba(38,207,0,1.0)"/><path  d="" style="stroke-width:1;stroke:rgba(38,207,0,1.0);fill:rgba(38,207,0,1.0)"/><circle cx="538" cy="75" r="5" style="stroke-width:1;stroke:rgba(31,221,0,1.0);fill:rgba(31,221,0,1.0)"/><path  d="" style="stroke-width:1;stroke:rgba(31,221,0,1.0);fill:rgba(31,221,0,1.0)"/><path  d="M 632 41
L 642 30
L 745 30
L 745 52
L 642 52
L 632 41
Z" style="stroke-width:1;stroke:rgba(63,127,255,1.0);fill:rgba(255,255,255,1.0)"/><text x="647" y="47" style="stroke-width:0;stroke:none;fill:rgba(51,51,51,1.0);font-size:12.8px;font-family:'Roboto Medium',sans-serif">phsym/zeroslog</text><path  d="M 639 16
L 649 5
L 727 5
L 727 27
L 649 27
L 639 16
Z" style="stroke-width:1;stroke:rgba(63,127,255,1.0);fill:rgba(255,255,255,1.0)"/><text x="654" y="22" style="stroke-width:0;stroke:none;fill:rgba(51,51,51,1.0);font-size:12.8px;font-family:'Roboto Medium',sans-serif">phuslu/slog</text><path  d="M 574 65
L 584 54
L 702 54
L 702 76
L 584 76
L 574 65
Z" style="stroke-width:1;stroke:rgba(63,127,255,1.0);fill:rgba(255,255,255,1.0)"/><text x="589" y="71" style="stroke-width:0;stroke:none;fill:rgba(51,51,51,1.0);font-size:12.8px;font-family:'Roboto Medium',sans-serif">slog/JSONHandler</text><path  d="M 496 107
L 506 96
L 612 96
L 612 118
L 506 118
L 496 107
Z" style="stroke-width:1;stroke:rgba(63,127,255,1.0);fill:rgba(255,255,255,1.0)"/><text x="511" y="113" style="stroke-width:0;stroke:none;fill:rgba(51,51,51,1.0);font-size:12.8px;font-family:'Roboto Medium',sans-serif">madkins/replattr</text><path  d="M 370 189
L 380 178
L 482 178
L 482 200
L 380 200
L 370 189
Z" style="stroke-width:1;stroke:rgba(63,127,255,1.0);fill:rgba(255,255,255,1.0)"/><text x="385" y="195" style="stroke-width:0;stroke:none;fill:rgba(51,51,51,1.0);font-size:12.8px;font-family:'Roboto Medium',sans-serif">madkins/sloggy</text><path  d="M 571 38
L 581 27
L 695 27
L 695 49
L 581 49
L 571 38
Z" style="stroke-width:1;stroke:rgba(63,127,255,1.0);fill:rgba(255,255,255,1.0)"/><text x="586" y="44" style="stroke-width:0;stroke:none;fill:rgba(51,51,51,1.0);font-size:12.8px;font-family:'Roboto Medium',sans-serif">svcrunner/jsonlog</text><path  d="M 601 161
L 611 150
L 742 150
L 742 172
L 611 172
L 601 161
Z" style="stroke-width:1;stroke:rgba(63,127,255,1.0);fill:rgba(255,255,255,1.0)"/><text x="616" y="167" style="stroke-width:0;stroke:none;fill:rgba(51,51,51,1.0);font-size:12.8px;font-family:'Roboto Medium',sans-serif">chanchal/zaphandler</text><path  d="M 538 90
L 548 79
L 641 79
L 641 101
L 548 101
L 538 90
Z" style="stroke-width:1;stroke:rgba(63,127,255,1.0);fill:rgba(255,255,255,1.0)"/><text x="553" y="96" style="stroke-width:0;stroke:none;fill:rgba(51,51,51,1.0);font-size:12.8px;font-family:'Roboto Medium',sans-serif">madkins/flash</text></svg>