<svg xmlns="http://www.w3.org/2000/svg" xmlns:xlink="http://www.w3.org/1999/xlink" width="800" height="600">\n<path  d="M 0 0
L 800 0
L 800 600
L 0 600
L 0 0" style="stroke-width:0;stroke:rgba(255,255,255,1.0);fill:rgba(255,255,255,1.0)"/><path  d="M 12 11
L 580 11
L 580 551
L 12 551
L 12 11" style="stroke-width:0;stroke:rgba(255,255,255,1.0);fill:rgba(255,255,255,1.0)"/><path  d="M 12 551
L 580 551" style="stroke-width:1;stroke:rgba(51,51,51,1.0);fill:none"/><path  d="M 12 551
L 12 556" style="stroke-width:1;stroke:rgba(51,51,51,1.0);fill:none"/><text x="5" y="573" style="stroke-width:0;stroke:none;fill:rgba(51,51,51,1.0);font-size:12.8px;font-family:'Roboto Medium',sans-serif">50</text><path  d="M 69 551
L 69 556" style="stroke-width:1;stroke:rgba(51,51,51,1.0);fill:none"/><text x="62" y="573" style="stroke-width:0;stroke:none;fill:rgba(51,51,51,1.0);font-size:12.8px;font-family:'Roboto Medium',sans-serif">55</text><path  d="M 126 551
L 126 556" style="stroke-width:1;stroke:rgba(51,51,51,1.0);fill:none"/><text x="119" y="573" style="stroke-width:0;stroke:none;fill:rgba(51,51,51,1.0);font-size:12.8px;font-family:'Roboto Medium',sans-serif">60</text><path  d="M 183 551
L 183 556" style="stroke-width:1;stroke:rgba(51,51,51,1.0);fill:none"/><text x="176" y="573" style="stroke-width:0;stroke:none;fill:rgba(51,51,51,1.0);font-size:12.8px;font-family:'Roboto Medium',sans-serif">65</text><path  d="M 240 551
L 240 556" style="stroke-width:1;stroke:rgba(51,51,51,1.0);fill:none"/><text x="233" y="573" style="stroke-width:0;stroke:none;fill:rgba(51,51,51,1.0);font-size:12.8px;font-family:'Roboto Medium',sans-serif">70</text><path  d="M 296 551
L 296 556" style="stroke-width:1;stroke:rgba(51,51,51,1.0);fill:none"/><text x="289" y="573" style="stroke-width:0;stroke:none;fill:rgba(51,51,51,1.0);font-size:12.8px;font-family:'Roboto Medium',sans-serif">75</text><path  d="M 353 551
L 353 556" style="stroke-width:1;stroke:rgba(51,51,51,1.0);fill:none"/><text x="346" y="573" style="stroke-width:0;stroke:none;fill:rgba(51,51,51,1.0);font-size:12.8px;font-family:'Roboto Medium',sans-serif">80</text><path  d="M 410 551
L 410 556" style="stroke-width:1;stroke:rgba(51,51,51,1.0);fill:none"/><text x="403" y="573" style="stroke-width:0;stroke:none;fill:rgba(51,51,51,1.0);font-size:12.8px;font-family:'Roboto Medium',sans-serif">85</text><path  d="M 467 551
L 467 556" style="stroke-width:1;stroke:rgba(51,51,51,1.0);fill:none"/><text x="460" y="573" style="stroke-width:0;stroke:none;fill:rgba(51,51,51,1.0);font-size:12.8px;font-family:'Roboto Medium',sans-serif">90</text><path  d="M 524 551
L 524 556" style="stroke-width:1;stroke:rgba(51,51,51,1.0);fill:none"/><text x="517" y="573" style="stroke-width:0;stroke:none;fill:rgba(51,51,51,1.0);font-size:12.8px;font-family:'Roboto Medium',sans-serif">95</text><path  d="M 580 551
L 580 556" style="stroke-width:1;stroke:rgba(51,51,51,1.0);fill:none"/><text x="569" y="573" style="stroke-width:0;stroke:none;fill:rgba(51,51,51,1.0);font-size:12.8px;font-family:'Roboto Medium',sans-serif">100</text><text x="269" y="595" style="stroke-width:0;stroke:none;fill:rgba(51,51,51,1.0);font-size:12.8px;font-family:'Roboto Medium',sans-serif">Warnings</text><path  d="M 69 551
L 69 11" style="stroke-width:0;stroke:none;fill:none"/><path  d="M 126 551
L 126 11" style="stroke-width:0;stroke:none;fill:none"/><path  d="M 183 551
L 183 11" style="stroke-width:0;stroke:none;fill:none"/><path  d="M 240 551
L 240 11" style="stroke-width:0;stroke:none;fill:none"/><path  d="M 296 551
L 296 11" style="stroke-width:0;stroke:none;fill:none"/><path  d="M 353 551
L 353 11" style="stroke-width:0;stroke:none;fill:none"/><path  d="M 410 551
L 410 11" style="stroke-width:0;stroke:none;fill:none"/><path  d="M 467 551
L 467 11" style="stroke-width:0;stroke:none;fill:none"/><path  d="M 524 551
L 524 11" style="stroke-width:0;stroke:none;fill:none"/><path  d="M 581 551
L 581 11" style="stroke-width:1;stroke:rgba(51,51,51,1.0);fill:none"/><path  d="M 581 551
L 586 551" style="stroke-width:1;stroke:rgba(51,51,51,1.0);fill:none"/><text x="591" y="557" style="stroke-width:0;stroke:none;fill:rgba(51,51,51,1.0);font-size:12.8px;font-family:'Roboto Medium',sans-serif">50</text><path  d="M 581 497
L 586 497" style="stroke-width:1;stroke:rgba(51,51,51,1.0);fill:none"/><text x="591" y="503" style="stroke-width:0;stroke:none;fill:rgba(51,51,51,1.0);font-size:12.8px;font-family:'Roboto Medium',sans-serif">55</text><path  d="M 581 443
L 586 443" style="stroke-width:1;stroke:rgba(51,51,51,1.0);fill:none"/><text x="591" y="449" style="stroke-width:0;stroke:none;fill:rgba(51,51,51,1.0);font-size:12.8px;font-family:'Roboto Medium',sans-serif">60</text><path  d="M 581 389
L 586 389" style="stroke-width:1;stroke:rgba(51,51,51,1.0);fill:none"/><text x="591" y="395" style="stroke-width:0;stroke:none;fill:rgba(51,51,51,1.0);font-size:12.8px;font-family:'Roboto Medium',sans-serif">65</text><path  d="M 581 335
L 586 335" style="stroke-width:1;stroke:rgba(51,51,51,1.0);fill:none"/><text x="591" y="341" style="stroke-width:0;stroke:none;fill:rgba(51,51,51,1.0);font-size:12.8px;font-family:'Roboto Medium',sans-serif">70</text><path  d="M 581 281
L 586 281" style="stroke-width:1;stroke:rgba(51,51,51,1.0);fill:none"/><text x="591" y="287" style="stroke-width:0;stroke:none;fill:rgba(51,51,51,1.0);font-size:12.8px;font-family:'Roboto Medium',sans-serif">75</text><path  d="M 581 227
L 586 227" style="stroke-width:1;stroke:rgba(51,51,51,1.0);fill:none"/><text x="591" y="233" style="stroke-width:0;stroke:none;fill:rgba(51,51,51,1.0);font-size:12.8px;font-family:'Roboto Medium',sans-serif">80</text><path  d="M 581 173
L 586 173" style="stroke-width:1;stroke:rgba(51,51,51,1.0);fill:none"/><text x="591" y="179" style="stroke-width:0;stroke:none;fill:rgba(51,51,51,1.0);font-size:12.8px;font-family:'Roboto Medium',sans-serif">85</text><path  d="M 581 119
L 586 119" style="stroke-width:1;stroke:rgba(51,51,51,1.0);fill:none"/><text x="591" y="125" style="stroke-width:0;stroke:none;fill:rgba(51,51,51,1.0);font-size:12.8px;font-family:'Roboto Medium',sans-serif">90</text><path  d="M 581 65
L 586 65" style="stroke-width:1;stroke:rgba(51,51,51,1.0);fill:none"/><text x="591" y="71" style="stroke-width:0;stroke:none;fill:rgba(51,51,51,1.0);font-size:12.8px;font-family:'Roboto Medium',sans-serif">95</text><path  d="M 581 11
L 586 11" style="stroke-width:1;stroke:rgba(51,51,51,1.0);fill:none"/><text x="591" y="17" style="stroke-width:0;stroke:none;fill:rgba(51,51,51,1.0);font-size:12.8px;font-family:'Roboto Medium',sans-serif">100</text><text x="623" y="245" style="stroke-width:0;stroke:none;fill:rgba(51,51,51,1.0);font-size:12.8px;font-family:'Roboto Medium',sans-serif" transform="rotate(90.00,623,245)">Benchmarks</text><path  d="M 12 1091
L 580 1091" style="stroke-width:0;stroke:none;fill:none"/><path  d="M 12 497
L 580 497" style="stroke-width:0;stroke:none;fill:none"/><path  d="M 12 443
L 580 443" style="stroke-width:0;stroke:none;fill:none"/><path  d="M 12 389
L 580 389" style="stroke-width:0;stroke:none;fill:none"/><path  d="M 12 335
L 580 335" style="stroke-width:0;stroke:none;fill:none"/><path  d="M 12 281
L 580 281" style="stroke-width:0;stroke:none;fill:none"/><path  d="M 12 227
L 580 227" style="stroke-width:0;stroke:none;fill:none"/><path  d="M 12 173
L 580 173" style="stroke-width:0;stroke:none;fill:none"/><path  d="M 12 119
L 580 119" style="stroke-width:0;stroke:none;fill:none"/><path  d="M 12 65
L 580 65" style="stroke-width:0;stroke:none;fill:none"/><path  d="M 11 551
L 11 11" style="stroke-width:1;stroke:rgba(51,51,51,1.0);fill:none"/><path  d="M 11 -9223372036854775257
L 6 -9223372036854775257" style="stroke-width:1;stroke:rgba(51,51,51,1.0);fill:none"/><text x="-25" y="-9223372036854775251" style="stroke-width:0;stroke:none;fill:rgba(51,51,51,1.0);font-size:12.8px;font-family:'Roboto Medium',sans-serif">0.00</text><path  d="M 11 -9223372036854775257
L 6 -9223372036854775257" style="stroke-width:1;stroke:rgba(51,51,51,1.0);fill:none"/><text x="-25" y="-9223372036854775251" style="stroke-width:0;stroke:none;fill:rgba(51,51,51,1.0);font-size:12.8px;font-family:'Roboto Medium',sans-serif">0.00</text><path  d="M 11 -9223372036854775257
L 6 -9223372036854775257" style="stroke-width:1;stroke:rgba(51,51,51,1.0);fill:none"/><text x="-25" y="-9223372036854775251" style="stroke-width:0;stroke:none;fill:rgba(51,51,51,1.0);font-size:12.8px;font-family:'Roboto Medium',sans-serif">0.00</text><path  d="M 11 -9223372036854775257
L 6 -9223372036854775257" style="stroke-width:1;stroke:rgba(51,51,51,1.0);fill:none"/><text x="-25" y="-9223372036854775251" style="stroke-width:0;stroke:none;fill:rgba(51,51,51,1.0);font-size:12.8px;font-family:'Roboto Medium',sans-serif">0.00</text><path  d="M 11 -9223372036854775257
L 6 -9223372036854775257" style="stroke-width:1;stroke:rgba(51,51,51,1.0);fill:none"/><text x="-25" y="-9223372036854775251" style="stroke-width:0;stroke:none;fill:rgba(51,51,51,1.0);font-size:12.8px;font-family:'Roboto Medium',sans-serif">0.00</text><path  d="M 11 -9223372036854775257
L 6 -9223372036854775257" style="stroke-width:1;stroke:rgba(51,51,51,1.0);fill:none"/><text x="-25" y="-9223372036854775251" style="stroke-width:0;stroke:none;fill:rgba(51,51,51,1.0);font-size:12.8px;font-family:'Roboto Medium',sans-serif">0.00</text><path  d="M 11 -9223372036854775257
L 6 -9223372036854775257" style="stroke-width:1;stroke:rgba(51,51,51,1.0);fill:none"/><text x="-25" y="-9223372036854775251" style="stroke-width:0;stroke:none;fill:rgba(51,51,51,1.0);font-size:12.8px;font-family:'Roboto Medium',sans-serif">0.00</text><path  d="M 11 -9223372036854775257
L 6 -9223372036854775257" style="stroke-width:1;stroke:rgba(51,51,51,1.0);fill:none"/><text x="-25" y="-9223372036854775251" style="stroke-width:0;stroke:none;fill:rgba(51,51,51,1.0);font-size:12.8px;font-family:'Roboto Medium',sans-serif">0.00</text><path  d="M 11 -9223372036854775257
L 6 -9223372036854775257" style="stroke-width:1;stroke:rgba(51,51,51,1.0);fill:none"/><text x="-25" y="-9223372036854775251" style="stroke-width:0;stroke:none;fill:rgba(51,51,51,1.0);font-size:12.8px;font-family:'Roboto Medium',sans-serif">0.00</text><path  d="M 11 -9223372036854775257
L 6 -9223372036854775257" style="stroke-width:1;stroke:rgba(51,51,51,1.0);fill:none"/><text x="-25" y="-9223372036854775251" style="stroke-width:0;stroke:none;fill:rgba(51,51,51,1.0);font-size:12.8px;font-family:'Roboto Medium',sans-serif">0.00</text><path  d="M 11 -9223372036854775257
L 6 -9223372036854775257" style="stroke-width:1;stroke:rgba(51,51,51,1.0);fill:none"/><text x="-25" y="-9223372036854775251" style="stroke-width:0;stroke:none;fill:rgba(51,51,51,1.0);font-size:12.8px;font-family:'Roboto Medium',sans-serif">0.00</text><path  d="M 11 -9223372036854775257
L 6 -9223372036854775257" style="stroke-width:1;stroke:rgba(51,51,51,1.0);fill:none"/><text x="-25" y="-9223372036854775251" style="stroke-width:0;stroke:none;fill:rgba(51,51,51,1.0);font-size:12.8px;font-family:'Roboto Medium',sans-serif">0.00</text><path  d="M 11 -9223372036854775257
L 6 -9223372036854775257" style="stroke-width:1;stroke:rgba(51,51,51,1.0);fill:none"/><text x="-25" y="-9223372036854775251" style="stroke-width:0;stroke:none;fill:rgba(51,51,51,1.0);font-size:12.8px;font-family:'Roboto Medium',sans-serif">0.00</text><path  d="M 11 -9223372036854775257
L 6 -9223372036854775257" style="stroke-width:1;stroke:rgba(51,51,51,1.0);fill:none"/><text x="-25" y="-9223372036854775251" style="stroke-width:0;stroke:none;fill:rgba(51,51,51,1.0);font-size:12.8px;font-family:'Roboto Medium',sans-serif">0.00</text><path  d="M 11 -9223372036854775257
L 6 -9223372036854775257" style="stroke-width:1;stroke:rgba(51,51,51,1.0);fill:none"/><text x="-25" y="-9223372036854775251" style="stroke-width:0;stroke:none;fill:rgba(51,51,51,1.0);font-size:12.8px;font-family:'Roboto Medium',sans-serif">0.00</text><path  d="M 12 -9223372036854775257
L 580 -9223372036854775257" style="stroke-width:0;stroke:none;fill:none"/><path  d="M 12 -9223372036854775257
L 580 -9223372036854775257" style="stroke-width:0;stroke:none;fill:none"/><path  d="M 12 -9223372036854775257
L 580 -9223372036854775257" style="stroke-width:0;stroke:none;fill:none"/><path  d="M 12 -9223372036854775257
L 580 -9223372036854775257" style="stroke-width:0;stroke:none;fill:none"/><path  d="M 12 -9223372036854775257
L 580 -9223372036854775257" style="stroke-width:0;stroke:none;fill:none"/><path  d="M 12 -9223372036854775257
L 580 -9223372036854775257" style="stroke-width:0;stroke:none;fill:none"/><path  d="M 12 -9223372036854775257
L 580 -9223372036854775257" style="stroke-width:0;stroke:none;fill:none"/><path  d="M 12 -9223372036854775257
L 580 -9223372036854775257" style="stroke-width:0;stroke:none;fill:none"/><path  d="M 12 -9223372036854775257
L 580 -9223372036854775257" style="stroke-width:0;stroke:none;fill:none"/><path  d="M 12 -9223372036854775257
L 580 -9223372036854775257" style="stroke-width:0;stroke:none;fill:none"/><path  d="M 12 -9223372036854775257
L 580 -9223372036854775257" style="stroke-width:0;stroke:none;fill:none"/><path  d="M 12 -9223372036854775257
L 580 -9223372036854775257" style="stroke-width:0;stroke:none;fill:none"/><path  d="M 12 -9223372036854775257
L 580 -9223372036854775257" style="stroke-width:0;stroke:none;fill:none"/><path  d="M 12 -9223372036854775257
L 580 -9223372036854775257" style="stroke-width:0;stroke:none;fill:none"/><path  d="M 580 11
L 637 70" style="stroke-width:1;stroke:rgba(63,63,63,0.2);fill:none"/><path  d="M 286 25
L 637 105" style="stroke-width:1;stroke:rgba(63,63,63,0.2);fill:none"/><path  d="M 34 25
L 637 140" style="stroke-width:1;stroke:rgba(63,63,63,0.2);fill:none"/><path  d="M 580 48
L 637 175" style="stroke-width:1;stroke:rgba(63,63,63,0.2);fill:none"/><path  d="M 580 56
L 637 210" style="stroke-width:1;stroke:rgba(63,63,63,0.2);fill:none"/><path  d="M 160 120
L 637 245" style="stroke-width:1;stroke:rgba(63,63,63,0.2);fill:none"/><path  d="M 580 257
L 637 280" style="stroke-width:1;stroke:rgba(63,63,63,0.2);fill:none"/><path  d="M 160 428
L 637 315" style="stroke-width:1;stroke:rgba(63,63,63,0.2);fill:none"/><path  d="M 202 456
L 637 351" style="stroke-width:1;stroke:rgba(63,63,63,0.2);fill:none"/><path  d="M 296 11
L 296 281
L 580 281" style="stroke-width:1;stroke:rgba(255,0,127,0.2);fill:none"/><path  d="M 501 281
L 511 270
L 564 270
L 564 292
L 511 292
L 501 281
Z" style="stroke-width:1;stroke:rgba(255,0,127,0.2);fill:rgba(255,255,255,1.0)"/><text x="516" y="287" style="stroke-width:0;stroke:none;fill:rgba(51,51,51,1.0);font-size:12.8px;font-family:'Roboto Medium',sans-serif">Quarter</text><circle cx="580" cy="11" r="5" style="stroke-width:1;stroke:rgba(0,255,0,1.0);fill:rgba(0,255,0,1.0)"/><path  d="" style="stroke-width:1;stroke:rgba(0,255,0,1.0);fill:rgba(0,255,0,1.0)"/><circle cx="286" cy="25" r="5" style="stroke-width:1;stroke:rgba(59,161,0,1.0);fill:rgba(59,161,0,1.0)"/><path  d="" style="stroke-width:1;stroke:rgba(59,161,0,1.0);fill:rgba(59,161,0,1.0)"/><circle cx="34" cy="25" r="5" style="stroke-width:1;stroke:rgba(79,81,0,1.0);fill:rgba(79,81,0,1.0)"/><path  d="" style="stroke-width:1;stroke:rgba(79,81,0,1.0);fill:rgba(79,81,0,1.0)"/><circle cx="580" cy="48" r="5" style="stroke-width:1;stroke:rgba(8,242,0,1.0);fill:rgba(8,242,0,1.0)"/><path  d="" style="stroke-width:1;stroke:rgba(8,242,0,1.0);fill:rgba(8,242,0,1.0)"/><circle cx="580" cy="56" r="5" style="stroke-width:1;stroke:rgba(10,239,0,1.0);fill:rgba(10,239,0,1.0)"/><path  d="" style="stroke-width:1;stroke:rgba(10,239,0,1.0);fill:rgba(10,239,0,1.0)"/><circle cx="160" cy="120" r="5" style="stroke-width:1;stroke:rgba(103,116,0,1.0);fill:rgba(103,116,0,1.0)"/><path  d="" style="stroke-width:1;stroke:rgba(103,116,0,1.0);fill:rgba(103,116,0,1.0)"/><circle cx="580" cy="257" r="5" style="stroke-width:1;stroke:rgba(49,172,0,1.0);fill:rgba(49,172,0,1.0)"/><path  d="" style="stroke-width:1;stroke:rgba(49,172,0,1.0);fill:rgba(49,172,0,1.0)"/><circle cx="160" cy="428" r="5" style="stroke-width:1;stroke:rgba(192,61,0,1.0);fill:rgba(192,61,0,1.0)"/><path  d="" style="stroke-width:1;stroke:rgba(192,61,0,1.0);fill:rgba(192,61,0,1.0)"/><circle cx="202" cy="456" r="5" style="stroke-width:1;stroke:rgba(187,63,0,1.0);fill:rgba(187,63,0,1.0)"/><path  d="" style="stroke-width:1;stroke:rgba(187,63,0,1.0);fill:rgba(187,63,0,1.0)"/><path  d="M 637 70
L 647 59
L 725 59
L 725 81
L 647 81
L 637 70
Z" style="stroke-width:1;stroke:rgba(63,127,255,1.0);fill:rgba(255,255,255,1.0)"/><text x="652" y="76" style="stroke-width:0;stroke:none;fill:rgba(51,51,51,1.0);font-size:12.8px;font-family:'Roboto Medium',sans-serif">phuslu/slog</text><path  d="M 637 105
L 647 94
L 761 94
L 761 116
L 647 116
L 637 105
Z" style="stroke-width:1;stroke:rgba(63,127,255,1.0);fill:rgba(255,255,255,1.0)"/><text x="652" y="111" style="stroke-width:0;stroke:none;fill:rgba(51,51,51,1.0);font-size:12.8px;font-family:'Roboto Medium',sans-serif">svcrunner/jsonlog</text><path  d="M 637 140
L 647 129
L 750 129
L 750 151
L 647 151
L 637 140
Z" style="stroke-width:1;stroke:rgba(63,127,255,1.0);fill:rgba(255,255,255,1.0)"/><text x="652" y="146" style="stroke-width:0;stroke:none;fill:rgba(51,51,51,1.0);font-size:12.8px;font-family:'Roboto Medium',sans-serif">phsym/zeroslog</text><path  d="M 637 175
L 647 164
L 765 164
L 765 186
L 647 186
L 637 175
Z" style="stroke-width:1;stroke:rgba(63,127,255,1.0);fill:rgba(255,255,255,1.0)"/><text x="652" y="181" style="stroke-width:0;stroke:none;fill:rgba(51,51,51,1.0);font-size:12.8px;font-family:'Roboto Medium',sans-serif">slog/JSONHandler</text><path  d="M 637 210
L 647 199
L 740 199
L 740 221
L 647 221
L 637 210
Z" style="stroke-width:1;stroke:rgba(63,127,255,1.0);fill:rgba(255,255,255,1.0)"/><text x="652" y="216" style="stroke-width:0;stroke:none;fill:rgba(51,51,51,1.0);font-size:12.8px;font-family:'Roboto Medium',sans-serif">madkins/flash</text><path  d="M 637 245
L 647 234
L 778 234
L 778 256
L 647 256
L 637 245
Z" style="stroke-width:1;stroke:rgba(63,127,255,1.0);fill:rgba(255,255,255,1.0)"/><text x="652" y="251" style="stroke-width:0;stroke:none;fill:rgba(51,51,51,1.0);font-size:12.8px;font-family:'Roboto Medium',sans-serif">chanchal/zaphandler</text><path  d="M 637 280
L 647 269
L 749 269
L 749 291
L 647 291
L 637 280
Z" style="stroke-width:1;stroke:rgba(63,127,255,1.0);fill:rgba(255,255,255,1.0)"/><text x="652" y="286" style="stroke-width:0;stroke:none;fill:rgba(51,51,51,1.0);font-size:12.8px;font-family:'Roboto Medium',sans-serif">madkins/sloggy</text><path  d="M 637 315
L 647 304
L 755 304
L 755 326
L 647 326
L 637 315
Z" style="stroke-width:1;stroke:rgba(63,127,255,1.0);fill:rgba(255,255,255,1.0)"/><text x="652" y="321" style="stroke-width:0;stroke:none;fill:rgba(51,51,51,1.0);font-size:12.8px;font-family:'Roboto Medium',sans-serif">samber/slog-zap</text><path  d="M 637 351
L 647 340
L 777 340
L 777 362
L 647 362
L 637 351
Z" style="stroke-width:1;stroke:rgba(63,127,255,1.0);fill:rgba(255,255,255,1.0)"/><text x="652" y="357" style="stroke-width:0;stroke:none;fill:rgba(51,51,51,1.0);font-size:12.8px;font-family:'Roboto Medium',sans-serif">samber/slog-zerolog</text></svg>