<svg xmlns="http://www.w3.org/2000/svg" xmlns:xlink="http://www.w3.org/1999/xlink" width="800" height="600">\n<path  d="M 0 0
L 800 0
L 800 600
L 0 600
L 0 0" style="stroke-width:0;stroke:rgba(255,255,255,1.0);fill:rgba(255,255,255,1.0)"/><path  d="M 12 11
L 605 11
L 605 551
L 12 551
L 12 11" style="stroke-width:0;stroke:rgba(255,255,255,1.0);fill:rgba(255,255,255,1.0)"/><path  d="M 12 551
L 605 551" style="stroke-width:1;stroke:rgba(51,51,51,1.0);fill:none"/><path  d="M 12 551
L 12 556" style="stroke-width:1;stroke:rgba(51,51,51,1.0);fill:none"/><text x="5" y="573" style="stroke-width:0;stroke:none;fill:rgba(51,51,51,1.0);font-size:12.8px;font-family:'Roboto Medium',sans-serif">75</text><path  d="M 36 551
L 36 556" style="stroke-width:1;stroke:rgba(51,51,51,1.0);fill:none"/><text x="29" y="573" style="stroke-width:0;stroke:none;fill:rgba(51,51,51,1.0);font-size:12.8px;font-family:'Roboto Medium',sans-serif">76</text><path  d="M 84 551
L 84 556" style="stroke-width:1;stroke:rgba(51,51,51,1.0);fill:none"/><text x="77" y="573" style="stroke-width:0;stroke:none;fill:rgba(51,51,51,1.0);font-size:12.8px;font-family:'Roboto Medium',sans-serif">78</text><path  d="M 131 551
L 131 556" style="stroke-width:1;stroke:rgba(51,51,51,1.0);fill:none"/><text x="124" y="573" style="stroke-width:0;stroke:none;fill:rgba(51,51,51,1.0);font-size:12.8px;font-family:'Roboto Medium',sans-serif">80</text><path  d="M 179 551
L 179 556" style="stroke-width:1;stroke:rgba(51,51,51,1.0);fill:none"/><text x="172" y="573" style="stroke-width:0;stroke:none;fill:rgba(51,51,51,1.0);font-size:12.8px;font-family:'Roboto Medium',sans-serif">82</text><path  d="M 226 551
L 226 556" style="stroke-width:1;stroke:rgba(51,51,51,1.0);fill:none"/><text x="219" y="573" style="stroke-width:0;stroke:none;fill:rgba(51,51,51,1.0);font-size:12.8px;font-family:'Roboto Medium',sans-serif">84</text><path  d="M 273 551
L 273 556" style="stroke-width:1;stroke:rgba(51,51,51,1.0);fill:none"/><text x="266" y="573" style="stroke-width:0;stroke:none;fill:rgba(51,51,51,1.0);font-size:12.8px;font-family:'Roboto Medium',sans-serif">86</text><path  d="M 321 551
L 321 556" style="stroke-width:1;stroke:rgba(51,51,51,1.0);fill:none"/><text x="314" y="573" style="stroke-width:0;stroke:none;fill:rgba(51,51,51,1.0);font-size:12.8px;font-family:'Roboto Medium',sans-serif">88</text><path  d="M 368 551
L 368 556" style="stroke-width:1;stroke:rgba(51,51,51,1.0);fill:none"/><text x="361" y="573" style="stroke-width:0;stroke:none;fill:rgba(51,51,51,1.0);font-size:12.8px;font-family:'Roboto Medium',sans-serif">90</text><path  d="M 416 551
L 416 556" style="stroke-width:1;stroke:rgba(51,51,51,1.0);fill:none"/><text x="409" y="573" style="stroke-width:0;stroke:none;fill:rgba(51,51,51,1.0);font-size:12.8px;font-family:'Roboto Medium',sans-serif">92</text><path  d="M 463 551
L 463 556" style="stroke-width:1;stroke:rgba(51,51,51,1.0);fill:none"/><text x="456" y="573" style="stroke-width:0;stroke:none;fill:rgba(51,51,51,1.0);font-size:12.8px;font-family:'Roboto Medium',sans-serif">94</text><path  d="M 511 551
L 511 556" style="stroke-width:1;stroke:rgba(51,51,51,1.0);fill:none"/><text x="504" y="573" style="stroke-width:0;stroke:none;fill:rgba(51,51,51,1.0);font-size:12.8px;font-family:'Roboto Medium',sans-serif">96</text><path  d="M 558 551
L 558 556" style="stroke-width:1;stroke:rgba(51,51,51,1.0);fill:none"/><text x="551" y="573" style="stroke-width:0;stroke:none;fill:rgba(51,51,51,1.0);font-size:12.8px;font-family:'Roboto Medium',sans-serif">98</text><path  d="M 605 551
L 605 556" style="stroke-width:1;stroke:rgba(51,51,51,1.0);fill:none"/><text x="594" y="573" style="stroke-width:0;stroke:none;fill:rgba(51,51,51,1.0);font-size:12.8px;font-family:'Roboto Medium',sans-serif">100</text><text x="282" y="595" style="stroke-width:0;stroke:none;fill:rgba(51,51,51,1.0);font-size:12.8px;font-family:'Roboto Medium',sans-serif">Warnings</text><path  d="M 36 551
L 36 11" style="stroke-width:0;stroke:none;fill:none"/><path  d="M 84 551
L 84 11" style="stroke-width:0;stroke:none;fill:none"/><path  d="M 131 551
L 131 11" style="stroke-width:0;stroke:none;fill:none"/><path  d="M 179 551
L 179 11" style="stroke-width:0;stroke:none;fill:none"/><path  d="M 226 551
L 226 11" style="stroke-width:0;stroke:none;fill:none"/><path  d="M 273 551
L 273 11" style="stroke-width:0;stroke:none;fill:none"/><path  d="M 321 551
L 321 11" style="stroke-width:0;stroke:none;fill:none"/><path  d="M 368 551
L 368 11" style="stroke-width:0;stroke:none;fill:none"/><path  d="M 416 551
L 416 11" style="stroke-width:0;stroke:none;fill:none"/><path  d="M 463 551
L 463 11" style="stroke-width:0;stroke:none;fill:none"/><path  d="M 511 551
L 511 11" style="stroke-width:0;stroke:none;fill:none"/><path  d="M 558 551
L 558 11" style="stroke-width:0;stroke:none;fill:none"/><path  d="M 606 551
L 606 11" style="stroke-width:1;stroke:rgba(51,51,51,1.0);fill:none"/><path  d="M 606 551
L 611 551" style="stroke-width:1;stroke:rgba(51,51,51,1.0);fill:none"/><text x="616" y="557" style="stroke-width:0;stroke:none;fill:rgba(51,51,51,1.0);font-size:12.8px;font-family:'Roboto Medium',sans-serif">75</text><path  d="M 606 529
L 611 529" style="stroke-width:1;stroke:rgba(51,51,51,1.0);fill:none"/><text x="616" y="535" style="stroke-width:0;stroke:none;fill:rgba(51,51,51,1.0);font-size:12.8px;font-family:'Roboto Medium',sans-serif">76</text><path  d="M 606 486
L 611 486" style="stroke-width:1;stroke:rgba(51,51,51,1.0);fill:none"/><text x="616" y="492" style="stroke-width:0;stroke:none;fill:rgba(51,51,51,1.0);font-size:12.8px;font-family:'Roboto Medium',sans-serif">78</text><path  d="M 606 443
L 611 443" style="stroke-width:1;stroke:rgba(51,51,51,1.0);fill:none"/><text x="616" y="449" style="stroke-width:0;stroke:none;fill:rgba(51,51,51,1.0);font-size:12.8px;font-family:'Roboto Medium',sans-serif">80</text><path  d="M 606 399
L 611 399" style="stroke-width:1;stroke:rgba(51,51,51,1.0);fill:none"/><text x="616" y="405" style="stroke-width:0;stroke:none;fill:rgba(51,51,51,1.0);font-size:12.8px;font-family:'Roboto Medium',sans-serif">82</text><path  d="M 606 356
L 611 356" style="stroke-width:1;stroke:rgba(51,51,51,1.0);fill:none"/><text x="616" y="362" style="stroke-width:0;stroke:none;fill:rgba(51,51,51,1.0);font-size:12.8px;font-family:'Roboto Medium',sans-serif">84</text><path  d="M 606 313
L 611 313" style="stroke-width:1;stroke:rgba(51,51,51,1.0);fill:none"/><text x="616" y="319" style="stroke-width:0;stroke:none;fill:rgba(51,51,51,1.0);font-size:12.8px;font-family:'Roboto Medium',sans-serif">86</text><path  d="M 606 270
L 611 270" style="stroke-width:1;stroke:rgba(51,51,51,1.0);fill:none"/><text x="616" y="276" style="stroke-width:0;stroke:none;fill:rgba(51,51,51,1.0);font-size:12.8px;font-family:'Roboto Medium',sans-serif">88</text><path  d="M 606 227
L 611 227" style="stroke-width:1;stroke:rgba(51,51,51,1.0);fill:none"/><text x="616" y="233" style="stroke-width:0;stroke:none;fill:rgba(51,51,51,1.0);font-size:12.8px;font-family:'Roboto Medium',sans-serif">90</text><path  d="M 606 183
L 611 183" style="stroke-width:1;stroke:rgba(51,51,51,1.0);fill:none"/><text x="616" y="189" style="stroke-width:0;stroke:none;fill:rgba(51,51,51,1.0);font-size:12.8px;font-family:'Roboto Medium',sans-serif">92</text><path  d="M 606 140
L 611 140" style="stroke-width:1;stroke:rgba(51,51,51,1.0);fill:none"/><text x="616" y="146" style="stroke-width:0;stroke:none;fill:rgba(51,51,51,1.0);font-size:12.8px;font-family:'Roboto Medium',sans-serif">94</text><path  d="M 606 97
L 611 97" style="stroke-width:1;stroke:rgba(51,51,51,1.0);fill:none"/><text x="616" y="103" style="stroke-width:0;stroke:none;fill:rgba(51,51,51,1.0);font-size:12.8px;font-family:'Roboto Medium',sans-serif">96</text><path  d="M 606 54
L 611 54" style="stroke-width:1;stroke:rgba(51,51,51,1.0);fill:none"/><text x="616" y="60" style="stroke-width:0;stroke:none;fill:rgba(51,51,51,1.0);font-size:12.8px;font-family:'Roboto Medium',sans-serif">98</text><path  d="M 606 11
L 611 11" style="stroke-width:1;stroke:rgba(51,51,51,1.0);fill:none"/><text x="616" y="17" style="stroke-width:0;stroke:none;fill:rgba(51,51,51,1.0);font-size:12.8px;font-family:'Roboto Medium',sans-serif">100</text><text x="648" y="245" style="stroke-width:0;stroke:none;fill:rgba(51,51,51,1.0);font-size:12.8px;font-family:'Roboto Medium',sans-serif" transform="rotate(90.00,648,245)">Benchmarks</text><path  d="M 12 2171
L 605 2171" style="stroke-width:0;stroke:none;fill:none"/><path  d="M 12 529
L 605 529" style="stroke-width:0;stroke:none;fill:none"/><path  d="M 12 486
L 605 486" style="stroke-width:0;stroke:none;fill:none"/><path  d="M 12 443
L 605 443" style="stroke-width:0;stroke:none;fill:none"/><path  d="M 12 399
L 605 399" style="stroke-width:0;stroke:none;fill:none"/><path  d="M 12 356
L 605 356" style="stroke-width:0;stroke:none;fill:none"/><path  d="M 12 313
L 605 313" style="stroke-width:0;stroke:none;fill:none"/><path  d="M 12 270
L 605 270" style="stroke-width:0;stroke:none;fill:none"/><path  d="M 12 227
L 605 227" style="stroke-width:0;stroke:none;fill:none"/><path  d="M 12 183
L 605 183" style="stroke-width:0;stroke:none;fill:none"/><path  d="M 12 140
L 605 140" style="stroke-width:0;stroke:none;fill:none"/><path  d="M 12 97
L 605 97" style="stroke-width:0;stroke:none;fill:none"/><path  d="M 12 54
L 605 54" style="stroke-width:0;stroke:none;fill:none"/><path  d="M 11 551
L 11 11" style="stroke-width:1;stroke:rgba(51,51,51,1.0);fill:none"/><path  d="M 11 -9223372036854775257
L 6 -9223372036854775257" style="stroke-width:1;stroke:rgba(51,51,51,1.0);fill:none"/><text x="-25" y="-9223372036854775251" style="stroke-width:0;stroke:none;fill:rgba(51,51,51,1.0);font-size:12.8px;font-family:'Roboto Medium',sans-serif">0.00</text><path  d="M 11 -9223372036854775257
L 6 -9223372036854775257" style="stroke-width:1;stroke:rgba(51,51,51,1.0);fill:none"/><text x="-25" y="-9223372036854775251" style="stroke-width:0;stroke:none;fill:rgba(51,51,51,1.0);font-size:12.8px;font-family:'Roboto Medium',sans-serif">0.00</text><path  d="M 11 -9223372036854775257
L 6 -9223372036854775257" style="stroke-width:1;stroke:rgba(51,51,51,1.0);fill:none"/><text x="-25" y="-9223372036854775251" style="stroke-width:0;stroke:none;fill:rgba(51,51,51,1.0);font-size:12.8px;font-family:'Roboto Medium',sans-serif">0.00</text><path  d="M 11 -9223372036854775257
L 6 -9223372036854775257" style="stroke-width:1;stroke:rgba(51,51,51,1.0);fill:none"/><text x="-25" y="-9223372036854775251" style="stroke-width:0;stroke:none;fill:rgba(51,51,51,1.0);font-size:12.8px;font-family:'Roboto Medium',sans-serif">0.00</text><path  d="M 11 -9223372036854775257
L 6 -9223372036854775257" style="stroke-width:1;stroke:rgba(51,51,51,1.0);fill:none"/><text x="-25" y="-9223372036854775251" style="stroke-width:0;stroke:none;fill:rgba(51,51,51,1.0);font-size:12.8px;font-family:'Roboto Medium',sans-serif">0.00</text><path  d="M 11 -9223372036854775257
L 6 -9223372036854775257" style="stroke-width:1;stroke:rgba(51,51,51,1.0);fill:none"/><text x="-25" y="-9223372036854775251" style="stroke-width:0;stroke:none;fill:rgba(51,51,51,1.0);font-size:12.8px;font-family:'Roboto Medium',sans-serif">0.00</text><path  d="M 11 -9223372036854775257
L 6 -9223372036854775257" style="stroke-width:1;stroke:rgba(51,51,51,1.0);fill:none"/><text x="-25" y="-9223372036854775251" style="stroke-width:0;stroke:none;fill:rgba(51,51,51,1.0);font-size:12.8px;font-family:'Roboto Medium',sans-serif">0.00</text><path  d="M 11 -9223372036854775257
L 6 -9223372036854775257" style="stroke-width:1;stroke:rgba(51,51,51,1.0);fill:none"/><text x="-25" y="-9223372036854775251" style="stroke-width:0;stroke:none;fill:rgba(51,51,51,1.0);font-size:12.8px;font-family:'Roboto Medium',sans-serif">0.00</text><path  d="M 11 -9223372036854775257
L 6 -9223372036854775257" style="stroke-width:1;stroke:rgba(51,51,51,1.0);fill:none"/><text x="-25" y="-9223372036854775251" style="stroke-width:0;stroke:none;fill:rgba(51,51,51,1.0);font-size:12.8px;font-family:'Roboto Medium',sans-serif">0.00</text><path  d="M 11 -9223372036854775257
L 6 -9223372036854775257" style="stroke-width:1;stroke:rgba(51,51,51,1.0);fill:none"/><text x="-25" y="-9223372036854775251" style="stroke-width:0;stroke:none;fill:rgba(51,51,51,1.0);font-size:12.8px;font-family:'Roboto Medium',sans-serif">0.00</text><path  d="M 11 -9223372036854775257
L 6 -9223372036854775257" style="stroke-width:1;stroke:rgba(51,51,51,1.0);fill:none"/><text x="-25" y="-9223372036854775251" style="stroke-width:0;stroke:none;fill:rgba(51,51,51,1.0);font-size:12.8px;font-family:'Roboto Medium',sans-serif">0.00</text><path  d="M 11 -9223372036854775257
L 6 -9223372036854775257" style="stroke-width:1;stroke:rgba(51,51,51,1.0);fill:none"/><text x="-25" y="-9223372036854775251" style="stroke-width:0;stroke:none;fill:rgba(51,51,51,1.0);font-size:12.8px;font-family:'Roboto Medium',sans-serif">0.00</text><path  d="M 11 -9223372036854775257
L 6 -9223372036854775257" style="stroke-width:1;stroke:rgba(51,51,51,1.0);fill:none"/><text x="-25" y="-9223372036854775251" style="stroke-width:0;stroke:none;fill:rgba(51,51,51,1.0);font-size:12.8px;font-family:'Roboto Medium',sans-serif">0.00</text><path  d="M 11 -9223372036854775257
L 6 -9223372036854775257" style="stroke-width:1;stroke:rgba(51,51,51,1.0);fill:none"/><text x="-25" y="-9223372036854775251" style="stroke-width:0;stroke:none;fill:rgba(51,51,51,1.0);font-size:12.8px;font-family:'Roboto Medium',sans-serif">0.00</text><path  d="M 11 -9223372036854775257
L 6 -9223372036854775257" style="stroke-width:1;stroke:rgba(51,51,51,1.0);fill:none"/><text x="-25" y="-9223372036854775251" style="stroke-width:0;stroke:none;fill:rgba(51,51,51,1.0);font-size:12.8px;font-family:'Roboto Medium',sans-serif">0.00</text><path  d="M 12 -9223372036854775257
L 605 -9223372036854775257" style="stroke-width:0;stroke:none;fill:none"/><path  d="M 12 -9223372036854775257
L 605 -9223372036854775257" style="stroke-width:0;stroke:none;fill:none"/><path  d="M 12 -9223372036854775257
L 605 -9223372036854775257" style="stroke-width:0;stroke:none;fill:none"/><path  d="M 12 -9223372036854775257
L 605 -9223372036854775257" style="stroke-width:0;stroke:none;fill:none"/><path  d="M 12 -9223372036854775257
L 605 -9223372036854775257" style="stroke-width:0;stroke:none;fill:none"/><path  d="M 12 -9223372036854775257
L 605 -9223372036854775257" style="stroke-width:0;stroke:none;fill:none"/><path  d="M 12 -9223372036854775257
L 605 -9223372036854775257" style="stroke-width:0;stroke:none;fill:none"/><path  d="M 12 -9223372036854775257
L 605 -9223372036854775257" style="stroke-width:0;stroke:none;fill:none"/><path  d="M 12 -9223372036854775257
L 605 -9223372036854775257" style="stroke-width:0;stroke:none;fill:none"/><path  d="M 12 -9223372036854775257
L 605 -9223372036854775257" style="stroke-width:0;stroke:none;fill:none"/><path  d="M 12 -9223372036854775257
L 605 -9223372036854775257" style="stroke-width:0;stroke:none;fill:none"/><path  d="M 12 -9223372036854775257
L 605 -9223372036854775257" style="stroke-width:0;stroke:none;fill:none"/><path  d="M 12 -9223372036854775257
L 605 -9223372036854775257" style="stroke-width:0;stroke:none;fill:none"/><path  d="M 12 -9223372036854775257
L 605 -9223372036854775257" style="stroke-width:0;stroke:none;fill:none"/><path  d="M 574 105
L 665 66" style="stroke-width:1;stroke:rgba(63,63,63,0.2);fill:none"/><path  d="M 574 170
L 665 127" style="stroke-width:1;stroke:rgba(63,63,63,0.2);fill:none"/><circle cx="574" cy="105" r="5" style="stroke-width:1;stroke:rgba(28,221,0,1.0);fill:rgba(28,221,0,1.0)"/><path  d="" style="stroke-width:1;stroke:rgba(28,221,0,1.0);fill:rgba(28,221,0,1.0)"/><circle cx="574" cy="170" r="5" style="stroke-width:1;stroke:rgba(42,200,0,1.0);fill:rgba(42,200,0,1.0)"/><path  d="" style="stroke-width:1;stroke:rgba(42,200,0,1.0);fill:rgba(42,200,0,1.0)"/><path  d="M 665 66
L 675 55
L 768 55
L 768 77
L 675 77
L 665 66
Z" style="stroke-width:1;stroke:rgba(63,127,255,1.0);fill:rgba(255,255,255,1.0)"/><text x="680" y="72" style="stroke-width:0;stroke:none;fill:rgba(51,51,51,1.0);font-size:12.8px;font-family:'Roboto Medium',sans-serif">madkins/flash</text><path  d="M 665 127
L 675 116
L 781 116
L 781 138
L 675 138
L 665 127
Z" style="stroke-width:1;stroke:rgba(63,127,255,1.0);fill:rgba(255,255,255,1.0)"/><text x="680" y="133" style="stroke-width:0;stroke:none;fill:rgba(51,51,51,1.0);font-size:12.8px;font-family:'Roboto Medium',sans-serif">madkins/replattr</text></svg>