<svg xmlns="http://www.w3.org/2000/svg" xmlns:xlink="http://www.w3.org/1999/xlink" width="800" height="600">\n<path  d="M 0 0
L 800 0
L 800 600
L 0 600
L 0 0" style="stroke-width:0;stroke:rgba(255,255,255,1.0);fill:rgba(255,255,255,1.0)"/><path  d="M 12 11
L 580 11
L 580 551
L 12 551
L 12 11" style="stroke-width:0;stroke:rgba(255,255,255,1.0);fill:rgba(255,255,255,1.0)"/><path  d="M 12 551
L 580 551" style="stroke-width:1;stroke:rgba(51,51,51,1.0);fill:none"/><path  d="M 12 551
L 12 556" style="stroke-width:1;stroke:rgba(51,51,51,1.0);fill:none"/><text x="5" y="573" style="stroke-width:0;stroke:none;fill:rgba(51,51,51,1.0);font-size:12.8px;font-family:'Roboto Medium',sans-serif">25</text><path  d="M 50 551
L 50 556" style="stroke-width:1;stroke:rgba(51,51,51,1.0);fill:none"/><text x="43" y="573" style="stroke-width:0;stroke:none;fill:rgba(51,51,51,1.0);font-size:12.8px;font-family:'Roboto Medium',sans-serif">30</text><path  d="M 126 551
L 126 556" style="stroke-width:1;stroke:rgba(51,51,51,1.0);fill:none"/><text x="119" y="573" style="stroke-width:0;stroke:none;fill:rgba(51,51,51,1.0);font-size:12.8px;font-family:'Roboto Medium',sans-serif">40</text><path  d="M 202 551
L 202 556" style="stroke-width:1;stroke:rgba(51,51,51,1.0);fill:none"/><text x="195" y="573" style="stroke-width:0;stroke:none;fill:rgba(51,51,51,1.0);font-size:12.8px;font-family:'Roboto Medium',sans-serif">50</text><path  d="M 278 551
L 278 556" style="stroke-width:1;stroke:rgba(51,51,51,1.0);fill:none"/><text x="271" y="573" style="stroke-width:0;stroke:none;fill:rgba(51,51,51,1.0);font-size:12.8px;font-family:'Roboto Medium',sans-serif">60</text><path  d="M 353 551
L 353 556" style="stroke-width:1;stroke:rgba(51,51,51,1.0);fill:none"/><text x="346" y="573" style="stroke-width:0;stroke:none;fill:rgba(51,51,51,1.0);font-size:12.8px;font-family:'Roboto Medium',sans-serif">70</text><path  d="M 429 551
L 429 556" style="stroke-width:1;stroke:rgba(51,51,51,1.0);fill:none"/><text x="422" y="573" style="stroke-width:0;stroke:none;fill:rgba(51,51,51,1.0);font-size:12.8px;font-family:'Roboto Medium',sans-serif">80</text><path  d="M 505 551
L 505 556" style="stroke-width:1;stroke:rgba(51,51,51,1.0);fill:none"/><text x="498" y="573" style="stroke-width:0;stroke:none;fill:rgba(51,51,51,1.0);font-size:12.8px;font-family:'Roboto Medium',sans-serif">90</text><path  d="M 580 551
L 580 556" style="stroke-width:1;stroke:rgba(51,51,51,1.0);fill:none"/><text x="569" y="573" style="stroke-width:0;stroke:none;fill:rgba(51,51,51,1.0);font-size:12.8px;font-family:'Roboto Medium',sans-serif">100</text><text x="269" y="595" style="stroke-width:0;stroke:none;fill:rgba(51,51,51,1.0);font-size:12.8px;font-family:'Roboto Medium',sans-serif">Warnings</text><path  d="M 50 551
L 50 11" style="stroke-width:0;stroke:none;fill:none"/><path  d="M 126 551
L 126 11" style="stroke-width:0;stroke:none;fill:none"/><path  d="M 202 551
L 202 11" style="stroke-width:0;stroke:none;fill:none"/><path  d="M 278 551
L 278 11" style="stroke-width:0;stroke:none;fill:none"/><path  d="M 353 551
L 353 11" style="stroke-width:0;stroke:none;fill:none"/><path  d="M 429 551
L 429 11" style="stroke-width:0;stroke:none;fill:none"/><path  d="M 505 551
L 505 11" style="stroke-width:0;stroke:none;fill:none"/><path  d="M 581 551
L 581 11" style="stroke-width:1;stroke:rgba(51,51,51,1.0);fill:none"/><path  d="M 581 551
L 586 551" style="stroke-width:1;stroke:rgba(51,51,51,1.0);fill:none"/><text x="591" y="557" style="stroke-width:0;stroke:none;fill:rgba(51,51,51,1.0);font-size:12.8px;font-family:'Roboto Medium',sans-serif">25</text><path  d="M 581 515
L 586 515" style="stroke-width:1;stroke:rgba(51,51,51,1.0);fill:none"/><text x="591" y="521" style="stroke-width:0;stroke:none;fill:rgba(51,51,51,1.0);font-size:12.8px;font-family:'Roboto Medium',sans-serif">30</text><path  d="M 581 443
L 586 443" style="stroke-width:1;stroke:rgba(51,51,51,1.0);fill:none"/><text x="591" y="449" style="stroke-width:0;stroke:none;fill:rgba(51,51,51,1.0);font-size:12.8px;font-family:'Roboto Medium',sans-serif">40</text><path  d="M 581 371
L 586 371" style="stroke-width:1;stroke:rgba(51,51,51,1.0);fill:none"/><text x="591" y="377" style="stroke-width:0;stroke:none;fill:rgba(51,51,51,1.0);font-size:12.8px;font-family:'Roboto Medium',sans-serif">50</text><path  d="M 581 299
L 586 299" style="stroke-width:1;stroke:rgba(51,51,51,1.0);fill:none"/><text x="591" y="305" style="stroke-width:0;stroke:none;fill:rgba(51,51,51,1.0);font-size:12.8px;font-family:'Roboto Medium',sans-serif">60</text><path  d="M 581 227
L 586 227" style="stroke-width:1;stroke:rgba(51,51,51,1.0);fill:none"/><text x="591" y="233" style="stroke-width:0;stroke:none;fill:rgba(51,51,51,1.0);font-size:12.8px;font-family:'Roboto Medium',sans-serif">70</text><path  d="M 581 155
L 586 155" style="stroke-width:1;stroke:rgba(51,51,51,1.0);fill:none"/><text x="591" y="161" style="stroke-width:0;stroke:none;fill:rgba(51,51,51,1.0);font-size:12.8px;font-family:'Roboto Medium',sans-serif">80</text><path  d="M 581 83
L 586 83" style="stroke-width:1;stroke:rgba(51,51,51,1.0);fill:none"/><text x="591" y="89" style="stroke-width:0;stroke:none;fill:rgba(51,51,51,1.0);font-size:12.8px;font-family:'Roboto Medium',sans-serif">90</text><path  d="M 581 11
L 586 11" style="stroke-width:1;stroke:rgba(51,51,51,1.0);fill:none"/><text x="591" y="17" style="stroke-width:0;stroke:none;fill:rgba(51,51,51,1.0);font-size:12.8px;font-family:'Roboto Medium',sans-serif">100</text><text x="623" y="245" style="stroke-width:0;stroke:none;fill:rgba(51,51,51,1.0);font-size:12.8px;font-family:'Roboto Medium',sans-serif" transform="rotate(90.00,623,245)">Benchmarks</text><path  d="M 12 731
L 580 731" style="stroke-width:0;stroke:none;fill:none"/><path  d="M 12 515
L 580 515" style="stroke-width:0;stroke:none;fill:none"/><path  d="M 12 443
L 580 443" style="stroke-width:0;stroke:none;fill:none"/><path  d="M 12 371
L 580 371" style="stroke-width:0;stroke:none;fill:none"/><path  d="M 12 299
L 580 299" style="stroke-width:0;stroke:none;fill:none"/><path  d="M 12 227
L 580 227" style="stroke-width:0;stroke:none;fill:none"/><path  d="M 12 155
L 580 155" style="stroke-width:0;stroke:none;fill:none"/><path  d="M 12 83
L 580 83" style="stroke-width:0;stroke:none;fill:none"/><path  d="M 11 551
L 11 11" style="stroke-width:1;stroke:rgba(51,51,51,1.0);fill:none"/><path  d="M 11 -9223372036854775257
L 6 -9223372036854775257" style="stroke-width:1;stroke:rgba(51,51,51,1.0);fill:none"/><text x="-25" y="-9223372036854775251" style="stroke-width:0;stroke:none;fill:rgba(51,51,51,1.0);font-size:12.8px;font-family:'Roboto Medium',sans-serif">0.00</text><path  d="M 11 -9223372036854775257
L 6 -9223372036854775257" style="stroke-width:1;stroke:rgba(51,51,51,1.0);fill:none"/><text x="-25" y="-9223372036854775251" style="stroke-width:0;stroke:none;fill:rgba(51,51,51,1.0);font-size:12.8px;font-family:'Roboto Medium',sans-serif">0.00</text><path  d="M 11 -9223372036854775257
L 6 -9223372036854775257" style="stroke-width:1;stroke:rgba(51,51,51,1.0);fill:none"/><text x="-25" y="-9223372036854775251" style="stroke-width:0;stroke:none;fill:rgba(51,51,51,1.0);font-size:12.8px;font-family:'Roboto Medium',sans-serif">0.00</text><path  d="M 11 -9223372036854775257
L 6 -9223372036854775257" style="stroke-width:1;stroke:rgba(51,51,51,1.0);fill:none"/><text x="-25" y="-9223372036854775251" style="stroke-width:0;stroke:none;fill:rgba(51,51,51,1.0);font-size:12.8px;font-family:'Roboto Medium',sans-serif">0.00</text><path  d="M 11 -9223372036854775257
L 6 -9223372036854775257" style="stroke-width:1;stroke:rgba(51,51,51,1.0);fill:none"/><text x="-25" y="-9223372036854775251" style="stroke-width:0;stroke:none;fill:rgba(51,51,51,1.0);font-size:12.8px;font-family:'Roboto Medium',sans-serif">0.00</text><path  d="M 11 -9223372036854775257
L 6 -9223372036854775257" style="stroke-width:1;stroke:rgba(51,51,51,1.0);fill:none"/><text x="-25" y="-9223372036854775251" style="stroke-width:0;stroke:none;fill:rgba(51,51,51,1.0);font-size:12.8px;font-family:'Roboto Medium',sans-serif">0.00</text><path  d="M 11 -9223372036854775257
L 6 -9223372036854775257" style="stroke-width:1;stroke:rgba(51,51,51,1.0);fill:none"/><text x="-25" y="-9223372036854775251" style="stroke-width:0;stroke:none;fill:rgba(51,51,51,1.0);font-size:12.8px;font-family:'Roboto Medium',sans-serif">0.00</text><path  d="M 11 -9223372036854775257
L 6 -9223372036854775257" style="stroke-width:1;stroke:rgba(51,51,51,1.0);fill:none"/><text x="-25" y="-9223372036854775251" style="stroke-width:0;stroke:none;fill:rgba(51,51,51,1.0);font-size:12.8px;font-family:'Roboto Medium',sans-serif">0.00</text><path  d="M 11 -9223372036854775257
L 6 -9223372036854775257" style="stroke-width:1;stroke:rgba(51,51,51,1.0);fill:none"/><text x="-25" y="-9223372036854775251" style="stroke-width:0;stroke:none;fill:rgba(51,51,51,1.0);font-size:12.8px;font-family:'Roboto Medium',sans-serif">0.00</text><path  d="M 11 -9223372036854775257
L 6 -9223372036854775257" style="stroke-width:1;stroke:rgba(51,51,51,1.0);fill:none"/><text x="-25" y="-9223372036854775251" style="stroke-width:0;stroke:none;fill:rgba(51,51,51,1.0);font-size:12.8px;font-family:'Roboto Medium',sans-serif">0.00</text><path  d="M 11 -9223372036854775257
L 6 -9223372036854775257" style="stroke-width:1;stroke:rgba(51,51,51,1.0);fill:none"/><text x="-25" y="-9223372036854775251" style="stroke-width:0;stroke:none;fill:rgba(51,51,51,1.0);font-size:12.8px;font-family:'Roboto Medium',sans-serif">0.00</text><path  d="M 11 -9223372036854775257
L 6 -9223372036854775257" style="stroke-width:1;stroke:rgba(51,51,51,1.0);fill:none"/><text x="-25" y="-9223372036854775251" style="stroke-width:0;stroke:none;fill:rgba(51,51,51,1.0);font-size:12.8px;font-family:'Roboto Medium',sans-serif">0.00</text><path  d="M 11 -9223372036854775257
L 6 -9223372036854775257" style="stroke-width:1;stroke:rgba(51,51,51,1.0);fill:none"/><text x="-25" y="-9223372036854775251" style="stroke-width:0;stroke:none;fill:rgba(51,51,51,1.0);font-size:12.8px;font-family:'Roboto Medium',sans-serif">0.00</text><path  d="M 11 -9223372036854775257
L 6 -9223372036854775257" style="stroke-width:1;stroke:rgba(51,51,51,1.0);fill:none"/><text x="-25" y="-9223372036854775251" style="stroke-width:0;stroke:none;fill:rgba(51,51,51,1.0);font-size:12.8px;font-family:'Roboto Medium',sans-serif">0.00</text><path  d="M 11 -9223372036854775257
L 6 -9223372036854775257" style="stroke-width:1;stroke:rgba(51,51,51,1.0);fill:none"/><text x="-25" y="-9223372036854775251" style="stroke-width:0;stroke:none;fill:rgba(51,51,51,1.0);font-size:12.8px;font-family:'Roboto Medium',sans-serif">0.00</text><path  d="M 12 -9223372036854775257
L 580 -9223372036854775257" style="stroke-width:0;stroke:none;fill:none"/><path  d="M 12 -9223372036854775257
L 580 -9223372036854775257" style="stroke-width:0;stroke:none;fill:none"/><path  d="M 12 -9223372036854775257
L 580 -9223372036854775257" style="stroke-width:0;stroke:none;fill:none"/><path  d="M 12 -9223372036854775257
L 580 -9223372036854775257" style="stroke-width:0;stroke:none;fill:none"/><path  d="M 12 -9223372036854775257
L 580 -9223372036854775257" style="stroke-width:0;stroke:none;fill:none"/><path  d="M 12 -9223372036854775257
L 580 -9223372036854775257" style="stroke-width:0;stroke:none;fill:none"/><path  d="M 12 -9223372036854775257
L 580 -9223372036854775257" style="stroke-width:0;stroke:none;fill:none"/><path  d="M 12 -9223372036854775257
L 580 -9223372036854775257" style="stroke-width:0;stroke:none;fill:none"/><path  d="M 12 -9223372036854775257
L 580 -9223372036854775257" style="stroke-width:0;stroke:none;fill:none"/><path  d="M 12 -9223372036854775257
L 580 -9223372036854775257" style="stroke-width:0;stroke:none;fill:none"/><path  d="M 12 -9223372036854775257
L 580 -9223372036854775257" style="stroke-width:0;stroke:none;fill:none"/><path  d="M 12 -9223372036854775257
L 580 -9223372036854775257" style="stroke-width:0;stroke:none;fill:none"/><path  d="M 12 -9223372036854775257
L 580 -9223372036854775257" style="stroke-width:0;stroke:none;fill:none"/><path  d="M 12 -9223372036854775257
L 580 -9223372036854775257" style="stroke-width:0;stroke:none;fill:none"/><path  d="M 580 11
L 637 23" style="stroke-width:1;stroke:rgba(63,63,63,0.2);fill:none"/><path  d="M 160 19
L 637 53" style="stroke-width:1;stroke:rgba(63,63,63,0.2);fill:none"/><path  d="M 384 20
L 637 82" style="stroke-width:1;stroke:rgba(63,63,63,0.2);fill:none"/><path  d="M 580 35
L 637 112" style="stroke-width:1;stroke:rgba(63,63,63,0.2);fill:none"/><path  d="M 580 41
L 637 142" style="stroke-width:1;stroke:rgba(63,63,63,0.2);fill:none"/><path  d="M 300 84
L 637 172" style="stroke-width:1;stroke:rgba(63,63,63,0.2);fill:none"/><path  d="M 580 173
L 637 202" style="stroke-width:1;stroke:rgba(63,63,63,0.2);fill:none"/><path  d="M 300 295
L 637 232" style="stroke-width:1;stroke:rgba(63,63,63,0.2);fill:none"/><path  d="M 328 311
L 637 262" style="stroke-width:1;stroke:rgba(63,63,63,0.2);fill:none"/><path  d="M 202 11
L 202 371
L 580 371" style="stroke-width:1;stroke:rgba(255,0,127,0.2);fill:none"/><path  d="M 391 11
L 391 191
L 580 191" style="stroke-width:1;stroke:rgba(255,0,127,0.2);fill:none"/><path  d="M 505 371
L 515 360
L 549 360
L 549 382
L 515 382
L 505 371
Z" style="stroke-width:1;stroke:rgba(255,0,127,0.2);fill:rgba(255,255,255,1.0)"/><text x="520" y="377" style="stroke-width:0;stroke:none;fill:rgba(51,51,51,1.0);font-size:12.8px;font-family:'Roboto Medium',sans-serif">Half</text><path  d="M 505 191
L 515 180
L 568 180
L 568 202
L 515 202
L 505 191
Z" style="stroke-width:1;stroke:rgba(255,0,127,0.2);fill:rgba(255,255,255,1.0)"/><text x="520" y="197" style="stroke-width:0;stroke:none;fill:rgba(51,51,51,1.0);font-size:12.8px;font-family:'Roboto Medium',sans-serif">Quarter</text><circle cx="580" cy="11" r="5" style="stroke-width:1;stroke:rgba(0,255,0,1.0);fill:rgba(0,255,0,1.0)"/><path  d="" style="stroke-width:1;stroke:rgba(0,255,0,1.0);fill:rgba(0,255,0,1.0)"/><circle cx="160" cy="19" r="5" style="stroke-width:1;stroke:rgba(71,121,0,1.0);fill:rgba(71,121,0,1.0)"/><path  d="" style="stroke-width:1;stroke:rgba(71,121,0,1.0);fill:rgba(71,121,0,1.0)"/><circle cx="384" cy="20" r="5" style="stroke-width:1;stroke:rgba(42,192,0,1.0);fill:rgba(42,192,0,1.0)"/><path  d="" style="stroke-width:1;stroke:rgba(42,192,0,1.0);fill:rgba(42,192,0,1.0)"/><circle cx="580" cy="35" r="5" style="stroke-width:1;stroke:rgba(5,246,0,1.0);fill:rgba(5,246,0,1.0)"/><path  d="" style="stroke-width:1;stroke:rgba(5,246,0,1.0);fill:rgba(5,246,0,1.0)"/><circle cx="580" cy="41" r="5" style="stroke-width:1;stroke:rgba(6,244,0,1.0);fill:rgba(6,244,0,1.0)"/><path  d="" style="stroke-width:1;stroke:rgba(6,244,0,1.0);fill:rgba(6,244,0,1.0)"/><circle cx="300" cy="84" r="5" style="stroke-width:1;stroke:rgba(74,162,0,1.0);fill:rgba(74,162,0,1.0)"/><path  d="" style="stroke-width:1;stroke:rgba(74,162,0,1.0);fill:rgba(74,162,0,1.0)"/><circle cx="580" cy="173" r="5" style="stroke-width:1;stroke:rgba(34,200,0,1.0);fill:rgba(34,200,0,1.0)"/><path  d="" style="stroke-width:1;stroke:rgba(34,200,0,1.0);fill:rgba(34,200,0,1.0)"/><circle cx="300" cy="295" r="5" style="stroke-width:1;stroke:rgba(130,124,0,1.0);fill:rgba(130,124,0,1.0)"/><path  d="" style="stroke-width:1;stroke:rgba(130,124,0,1.0);fill:rgba(130,124,0,1.0)"/><circle cx="328" cy="311" r="5" style="stroke-width:1;stroke:rgba(126,126,0,1.0);fill:rgba(126,126,0,1.0)"/><path  d="" style="stroke-width:1;stroke:rgba(126,126,0,1.0);fill:rgba(126,126,0,1.0)"/><path  d="M 637 23
L 647 12
L 725 12
L 725 34
L 647 34
L 637 23
Z" style="stroke-width:1;stroke:rgba(63,127,255,1.0);fill:rgba(255,255,255,1.0)"/><text x="652" y="29" style="stroke-width:0;stroke:none;fill:rgba(51,51,51,1.0);font-size:12.8px;font-family:'Roboto Medium',sans-serif">phuslu/slog</text><path  d="M 637 53
L 647 42
L 750 42
L 750 64
L 647 64
L 637 53
Z" style="stroke-width:1;stroke:rgba(63,127,255,1.0);fill:rgba(255,255,255,1.0)"/><text x="652" y="59" style="stroke-width:0;stroke:none;fill:rgba(51,51,51,1.0);font-size:12.8px;font-family:'Roboto Medium',sans-serif">phsym/zeroslog</text><path  d="M 637 82
L 647 71
L 761 71
L 761 93
L 647 93
L 637 82
Z" style="stroke-width:1;stroke:rgba(63,127,255,1.0);fill:rgba(255,255,255,1.0)"/><text x="652" y="88" style="stroke-width:0;stroke:none;fill:rgba(51,51,51,1.0);font-size:12.8px;font-family:'Roboto Medium',sans-serif">svcrunner/jsonlog</text><path  d="M 637 112
L 647 101
L 765 101
L 765 123
L 647 123
L 637 112
Z" style="stroke-width:1;stroke:rgba(63,127,255,1.0);fill:rgba(255,255,255,1.0)"/><text x="652" y="118" style="stroke-width:0;stroke:none;fill:rgba(51,51,51,1.0);font-size:12.8px;font-family:'Roboto Medium',sans-serif">slog/JSONHandler</text><path  d="M 637 142
L 647 131
L 740 131
L 740 153
L 647 153
L 637 142
Z" style="stroke-width:1;stroke:rgba(63,127,255,1.0);fill:rgba(255,255,255,1.0)"/><text x="652" y="148" style="stroke-width:0;stroke:none;fill:rgba(51,51,51,1.0);font-size:12.8px;font-family:'Roboto Medium',sans-serif">madkins/flash</text><path  d="M 637 172
L 647 161
L 778 161
L 778 183
L 647 183
L 637 172
Z" style="stroke-width:1;stroke:rgba(63,127,255,1.0);fill:rgba(255,255,255,1.0)"/><text x="652" y="178" style="stroke-width:0;stroke:none;fill:rgba(51,51,51,1.0);font-size:12.8px;font-family:'Roboto Medium',sans-serif">chanchal/zaphandler</text><path  d="M 637 202
L 647 191
L 749 191
L 749 213
L 647 213
L 637 202
Z" style="stroke-width:1;stroke:rgba(63,127,255,1.0);fill:rgba(255,255,255,1.0)"/><text x="652" y="208" style="stroke-width:0;stroke:none;fill:rgba(51,51,51,1.0);font-size:12.8px;font-family:'Roboto Medium',sans-serif">madkins/sloggy</text><path  d="M 637 232
L 647 221
L 755 221
L 755 243
L 647 243
L 637 232
Z" style="stroke-width:1;stroke:rgba(63,127,255,1.0);fill:rgba(255,255,255,1.0)"/><text x="652" y="238" style="stroke-width:0;stroke:none;fill:rgba(51,51,51,1.0);font-size:12.8px;font-family:'Roboto Medium',sans-serif">samber/slog-zap</text><path  d="M 637 262
L 647 251
L 777 251
L 777 273
L 647 273
L 637 262
Z" style="stroke-width:1;stroke:rgba(63,127,255,1.0);fill:rgba(255,255,255,1.0)"/><text x="652" y="268" style="stroke-width:0;stroke:none;fill:rgba(51,51,51,1.0);font-size:12.8px;font-family:'Roboto Medium',sans-serif">samber/slog-zerolog</text></svg>