<svg xmlns="http://www.w3.org/2000/svg" xmlns:xlink="http://www.w3.org/1999/xlink" width="750" height="600">\n<path  d="M 0 0
L 750 0
L 750 600
L 0 600
L 0 0" style="stroke-width:0;stroke:rgba(255,255,255,1.0);fill:rgba(255,255,255,1.0)"/><path  d="M 14 13
L 628 13
L 628 551
L 14 551
L 14 13" style="stroke-width:0;stroke:rgba(255,255,255,1.0);fill:rgba(255,255,255,1.0)"/><path  d="M 14 551
L 628 551" style="stroke-width:1;stroke:rgba(51,51,51,1.0);fill:none"/><path  d="M 14 551
L 14 556" style="stroke-width:1;stroke:rgba(51,51,51,1.0);fill:none"/><text x="5" y="573" style="stroke-width:0;stroke:none;fill:rgba(51,51,51,1.0);font-size:12.8px;font-family:'Roboto Medium',sans-serif">0.0</text><path  d="M 76 551
L 76 556" style="stroke-width:1;stroke:rgba(51,51,51,1.0);fill:none"/><text x="63" y="573" style="stroke-width:0;stroke:none;fill:rgba(51,51,51,1.0);font-size:12.8px;font-family:'Roboto Medium',sans-serif">10.0</text><path  d="M 137 551
L 137 556" style="stroke-width:1;stroke:rgba(51,51,51,1.0);fill:none"/><text x="124" y="573" style="stroke-width:0;stroke:none;fill:rgba(51,51,51,1.0);font-size:12.8px;font-family:'Roboto Medium',sans-serif">20.0</text><path  d="M 199 551
L 199 556" style="stroke-width:1;stroke:rgba(51,51,51,1.0);fill:none"/><text x="186" y="573" style="stroke-width:0;stroke:none;fill:rgba(51,51,51,1.0);font-size:12.8px;font-family:'Roboto Medium',sans-serif">30.0</text><path  d="M 260 551
L 260 556" style="stroke-width:1;stroke:rgba(51,51,51,1.0);fill:none"/><text x="247" y="573" style="stroke-width:0;stroke:none;fill:rgba(51,51,51,1.0);font-size:12.8px;font-family:'Roboto Medium',sans-serif">40.0</text><path  d="M 321 551
L 321 556" style="stroke-width:1;stroke:rgba(51,51,51,1.0);fill:none"/><text x="308" y="573" style="stroke-width:0;stroke:none;fill:rgba(51,51,51,1.0);font-size:12.8px;font-family:'Roboto Medium',sans-serif">50.0</text><path  d="M 383 551
L 383 556" style="stroke-width:1;stroke:rgba(51,51,51,1.0);fill:none"/><text x="370" y="573" style="stroke-width:0;stroke:none;fill:rgba(51,51,51,1.0);font-size:12.8px;font-family:'Roboto Medium',sans-serif">60.0</text><path  d="M 444 551
L 444 556" style="stroke-width:1;stroke:rgba(51,51,51,1.0);fill:none"/><text x="431" y="573" style="stroke-width:0;stroke:none;fill:rgba(51,51,51,1.0);font-size:12.8px;font-family:'Roboto Medium',sans-serif">70.0</text><path  d="M 506 551
L 506 556" style="stroke-width:1;stroke:rgba(51,51,51,1.0);fill:none"/><text x="493" y="573" style="stroke-width:0;stroke:none;fill:rgba(51,51,51,1.0);font-size:12.8px;font-family:'Roboto Medium',sans-serif">80.0</text><path  d="M 567 551
L 567 556" style="stroke-width:1;stroke:rgba(51,51,51,1.0);fill:none"/><text x="554" y="573" style="stroke-width:0;stroke:none;fill:rgba(51,51,51,1.0);font-size:12.8px;font-family:'Roboto Medium',sans-serif">90.0</text><path  d="M 628 551
L 628 556" style="stroke-width:1;stroke:rgba(51,51,51,1.0);fill:none"/><text x="612" y="573" style="stroke-width:0;stroke:none;fill:rgba(51,51,51,1.0);font-size:12.8px;font-family:'Roboto Medium',sans-serif">100.0</text><text x="279" y="595" style="stroke-width:0;stroke:none;fill:rgba(51,51,51,1.0);font-size:12.8px;font-family:'Roboto Medium',sans-serif">Warning Score</text><path  d="M 76 551
L 76 13" style="stroke-width:0;stroke:none;fill:none"/><path  d="M 137 551
L 137 13" style="stroke-width:0;stroke:none;fill:none"/><path  d="M 199 551
L 199 13" style="stroke-width:0;stroke:none;fill:none"/><path  d="M 260 551
L 260 13" style="stroke-width:0;stroke:none;fill:none"/><path  d="M 321 551
L 321 13" style="stroke-width:0;stroke:none;fill:none"/><path  d="M 383 551
L 383 13" style="stroke-width:0;stroke:none;fill:none"/><path  d="M 444 551
L 444 13" style="stroke-width:0;stroke:none;fill:none"/><path  d="M 506 551
L 506 13" style="stroke-width:0;stroke:none;fill:none"/><path  d="M 567 551
L 567 13" style="stroke-width:0;stroke:none;fill:none"/><path  d="M 629 551
L 629 13" style="stroke-width:1;stroke:rgba(51,51,51,1.0);fill:none"/><path  d="M 629 551
L 634 551" style="stroke-width:1;stroke:rgba(51,51,51,1.0);fill:none"/><text x="639" y="557" style="stroke-width:0;stroke:none;fill:rgba(51,51,51,1.0);font-size:12.8px;font-family:'Roboto Medium',sans-serif">0.0</text><path  d="M 629 497
L 634 497" style="stroke-width:1;stroke:rgba(51,51,51,1.0);fill:none"/><text x="639" y="503" style="stroke-width:0;stroke:none;fill:rgba(51,51,51,1.0);font-size:12.8px;font-family:'Roboto Medium',sans-serif">10.0</text><path  d="M 629 443
L 634 443" style="stroke-width:1;stroke:rgba(51,51,51,1.0);fill:none"/><text x="639" y="449" style="stroke-width:0;stroke:none;fill:rgba(51,51,51,1.0);font-size:12.8px;font-family:'Roboto Medium',sans-serif">20.0</text><path  d="M 629 389
L 634 389" style="stroke-width:1;stroke:rgba(51,51,51,1.0);fill:none"/><text x="639" y="395" style="stroke-width:0;stroke:none;fill:rgba(51,51,51,1.0);font-size:12.8px;font-family:'Roboto Medium',sans-serif">30.0</text><path  d="M 629 335
L 634 335" style="stroke-width:1;stroke:rgba(51,51,51,1.0);fill:none"/><text x="639" y="341" style="stroke-width:0;stroke:none;fill:rgba(51,51,51,1.0);font-size:12.8px;font-family:'Roboto Medium',sans-serif">40.0</text><path  d="M 629 282
L 634 282" style="stroke-width:1;stroke:rgba(51,51,51,1.0);fill:none"/><text x="639" y="288" style="stroke-width:0;stroke:none;fill:rgba(51,51,51,1.0);font-size:12.8px;font-family:'Roboto Medium',sans-serif">50.0</text><path  d="M 629 228
L 634 228" style="stroke-width:1;stroke:rgba(51,51,51,1.0);fill:none"/><text x="639" y="234" style="stroke-width:0;stroke:none;fill:rgba(51,51,51,1.0);font-size:12.8px;font-family:'Roboto Medium',sans-serif">60.0</text><path  d="M 629 174
L 634 174" style="stroke-width:1;stroke:rgba(51,51,51,1.0);fill:none"/><text x="639" y="180" style="stroke-width:0;stroke:none;fill:rgba(51,51,51,1.0);font-size:12.8px;font-family:'Roboto Medium',sans-serif">70.0</text><path  d="M 629 120
L 634 120" style="stroke-width:1;stroke:rgba(51,51,51,1.0);fill:none"/><text x="639" y="126" style="stroke-width:0;stroke:none;fill:rgba(51,51,51,1.0);font-size:12.8px;font-family:'Roboto Medium',sans-serif">80.0</text><path  d="M 629 66
L 634 66" style="stroke-width:1;stroke:rgba(51,51,51,1.0);fill:none"/><text x="639" y="72" style="stroke-width:0;stroke:none;fill:rgba(51,51,51,1.0);font-size:12.8px;font-family:'Roboto Medium',sans-serif">90.0</text><path  d="M 629 13
L 634 13" style="stroke-width:1;stroke:rgba(51,51,51,1.0);fill:none"/><text x="639" y="19" style="stroke-width:0;stroke:none;fill:rgba(51,51,51,1.0);font-size:12.8px;font-family:'Roboto Medium',sans-serif">100.0</text><text x="682" y="231" style="stroke-width:0;stroke:none;fill:rgba(51,51,51,1.0);font-size:12.8px;font-family:'Roboto Medium',sans-serif" transform="rotate(90.00,682,231)">Benchmark Score</text><path  d="M 14 551
L 628 551" style="stroke-width:0;stroke:none;fill:none"/><path  d="M 14 497
L 628 497" style="stroke-width:0;stroke:none;fill:none"/><path  d="M 14 443
L 628 443" style="stroke-width:0;stroke:none;fill:none"/><path  d="M 14 389
L 628 389" style="stroke-width:0;stroke:none;fill:none"/><path  d="M 14 335
L 628 335" style="stroke-width:0;stroke:none;fill:none"/><path  d="M 14 282
L 628 282" style="stroke-width:0;stroke:none;fill:none"/><path  d="M 14 228
L 628 228" style="stroke-width:0;stroke:none;fill:none"/><path  d="M 14 174
L 628 174" style="stroke-width:0;stroke:none;fill:none"/><path  d="M 14 120
L 628 120" style="stroke-width:0;stroke:none;fill:none"/><path  d="M 14 66
L 628 66" style="stroke-width:0;stroke:none;fill:none"/><path  d="M 13 551
L 13 13" style="stroke-width:1;stroke:rgba(51,51,51,1.0);fill:none"/><path  d="M 13 -9223372036854775257
L 8 -9223372036854775257" style="stroke-width:1;stroke:rgba(51,51,51,1.0);fill:none"/><text x="-23" y="-9223372036854775251" style="stroke-width:0;stroke:none;fill:rgba(51,51,51,1.0);font-size:12.8px;font-family:'Roboto Medium',sans-serif">0.00</text><path  d="M 13 -9223372036854775257
L 8 -9223372036854775257" style="stroke-width:1;stroke:rgba(51,51,51,1.0);fill:none"/><text x="-23" y="-9223372036854775251" style="stroke-width:0;stroke:none;fill:rgba(51,51,51,1.0);font-size:12.8px;font-family:'Roboto Medium',sans-serif">0.00</text><path  d="M 13 -9223372036854775257
L 8 -9223372036854775257" style="stroke-width:1;stroke:rgba(51,51,51,1.0);fill:none"/><text x="-23" y="-9223372036854775251" style="stroke-width:0;stroke:none;fill:rgba(51,51,51,1.0);font-size:12.8px;font-family:'Roboto Medium',sans-serif">0.00</text><path  d="M 13 -9223372036854775257
L 8 -9223372036854775257" style="stroke-width:1;stroke:rgba(51,51,51,1.0);fill:none"/><text x="-23" y="-9223372036854775251" style="stroke-width:0;stroke:none;fill:rgba(51,51,51,1.0);font-size:12.8px;font-family:'Roboto Medium',sans-serif">0.00</text><path  d="M 13 -9223372036854775257
L 8 -9223372036854775257" style="stroke-width:1;stroke:rgba(51,51,51,1.0);fill:none"/><text x="-23" y="-9223372036854775251" style="stroke-width:0;stroke:none;fill:rgba(51,51,51,1.0);font-size:12.8px;font-family:'Roboto Medium',sans-serif">0.00</text><path  d="M 13 -9223372036854775257
L 8 -9223372036854775257" style="stroke-width:1;stroke:rgba(51,51,51,1.0);fill:none"/><text x="-23" y="-9223372036854775251" style="stroke-width:0;stroke:none;fill:rgba(51,51,51,1.0);font-size:12.8px;font-family:'Roboto Medium',sans-serif">0.00</text><path  d="M 13 -9223372036854775257
L 8 -9223372036854775257" style="stroke-width:1;stroke:rgba(51,51,51,1.0);fill:none"/><text x="-23" y="-9223372036854775251" style="stroke-width:0;stroke:none;fill:rgba(51,51,51,1.0);font-size:12.8px;font-family:'Roboto Medium',sans-serif">0.00</text><path  d="M 13 -9223372036854775257
L 8 -9223372036854775257" style="stroke-width:1;stroke:rgba(51,51,51,1.0);fill:none"/><text x="-23" y="-9223372036854775251" style="stroke-width:0;stroke:none;fill:rgba(51,51,51,1.0);font-size:12.8px;font-family:'Roboto Medium',sans-serif">0.00</text><path  d="M 13 -9223372036854775257
L 8 -9223372036854775257" style="stroke-width:1;stroke:rgba(51,51,51,1.0);fill:none"/><text x="-23" y="-9223372036854775251" style="stroke-width:0;stroke:none;fill:rgba(51,51,51,1.0);font-size:12.8px;font-family:'Roboto Medium',sans-serif">0.00</text><path  d="M 13 -9223372036854775257
L 8 -9223372036854775257" style="stroke-width:1;stroke:rgba(51,51,51,1.0);fill:none"/><text x="-23" y="-9223372036854775251" style="stroke-width:0;stroke:none;fill:rgba(51,51,51,1.0);font-size:12.8px;font-family:'Roboto Medium',sans-serif">0.00</text><path  d="M 13 -9223372036854775257
L 8 -9223372036854775257" style="stroke-width:1;stroke:rgba(51,51,51,1.0);fill:none"/><text x="-23" y="-9223372036854775251" style="stroke-width:0;stroke:none;fill:rgba(51,51,51,1.0);font-size:12.8px;font-family:'Roboto Medium',sans-serif">0.00</text><path  d="M 13 -9223372036854775257
L 8 -9223372036854775257" style="stroke-width:1;stroke:rgba(51,51,51,1.0);fill:none"/><text x="-23" y="-9223372036854775251" style="stroke-width:0;stroke:none;fill:rgba(51,51,51,1.0);font-size:12.8px;font-family:'Roboto Medium',sans-serif">0.00</text><path  d="M 13 -9223372036854775257
L 8 -9223372036854775257" style="stroke-width:1;stroke:rgba(51,51,51,1.0);fill:none"/><text x="-23" y="-9223372036854775251" style="stroke-width:0;stroke:none;fill:rgba(51,51,51,1.0);font-size:12.8px;font-family:'Roboto Medium',sans-serif">0.00</text><path  d="M 13 -9223372036854775257
L 8 -9223372036854775257" style="stroke-width:1;stroke:rgba(51,51,51,1.0);fill:none"/><text x="-23" y="-9223372036854775251" style="stroke-width:0;stroke:none;fill:rgba(51,51,51,1.0);font-size:12.8px;font-family:'Roboto Medium',sans-serif">0.00</text><path  d="M 13 -9223372036854775257
L 8 -9223372036854775257" style="stroke-width:1;stroke:rgba(51,51,51,1.0);fill:none"/><text x="-23" y="-9223372036854775251" style="stroke-width:0;stroke:none;fill:rgba(51,51,51,1.0);font-size:12.8px;font-family:'Roboto Medium',sans-serif">0.00</text><path  d="M 14 -9223372036854775257
L 628 -9223372036854775257" style="stroke-width:0;stroke:none;fill:none"/><path  d="M 14 -9223372036854775257
L 628 -9223372036854775257" style="stroke-width:0;stroke:none;fill:none"/><path  d="M 14 -9223372036854775257
L 628 -9223372036854775257" style="stroke-width:0;stroke:none;fill:none"/><path  d="M 14 -9223372036854775257
L 628 -9223372036854775257" style="stroke-width:0;stroke:none;fill:none"/><path  d="M 14 -9223372036854775257
L 628 -9223372036854775257" style="stroke-width:0;stroke:none;fill:none"/><path  d="M 14 -9223372036854775257
L 628 -9223372036854775257" style="stroke-width:0;stroke:none;fill:none"/><path  d="M 14 -9223372036854775257
L 628 -9223372036854775257" style="stroke-width:0;stroke:none;fill:none"/><path  d="M 14 -9223372036854775257
L 628 -9223372036854775257" style="stroke-width:0;stroke:none;fill:none"/><path  d="M 14 -9223372036854775257
L 628 -9223372036854775257" style="stroke-width:0;stroke:none;fill:none"/><path  d="M 14 -9223372036854775257
L 628 -9223372036854775257" style="stroke-width:0;stroke:none;fill:none"/><path  d="M 14 -9223372036854775257
L 628 -9223372036854775257" style="stroke-width:0;stroke:none;fill:none"/><path  d="M 14 -9223372036854775257
L 628 -9223372036854775257" style="stroke-width:0;stroke:none;fill:none"/><path  d="M 14 -9223372036854775257
L 628 -9223372036854775257" style="stroke-width:0;stroke:none;fill:none"/><path  d="M 14 -9223372036854775257
L 628 -9223372036854775257" style="stroke-width:0;stroke:none;fill:none"/><circle cx="377" cy="69" r="5" style="stroke-width:1;stroke:rgba(61,178,0,1.0);fill:rgba(61,178,0,1.0)"/><path  d="" style="stroke-width:1;stroke:rgba(61,178,0,1.0);fill:rgba(61,178,0,1.0)"/><circle cx="306" cy="195" r="5" style="stroke-width:1;stroke:rgba(108,142,0,1.0);fill:rgba(108,142,0,1.0)"/><path  d="" style="stroke-width:1;stroke:rgba(108,142,0,1.0);fill:rgba(108,142,0,1.0)"/><circle cx="286" cy="185" r="5" style="stroke-width:1;stroke:rgba(108,139,0,1.0);fill:rgba(108,139,0,1.0)"/><path  d="" style="stroke-width:1;stroke:rgba(108,139,0,1.0);fill:rgba(108,139,0,1.0)"/><circle cx="618" cy="30" r="5" style="stroke-width:1;stroke:rgba(6,248,0,1.0);fill:rgba(6,248,0,1.0)"/><path  d="" style="stroke-width:1;stroke:rgba(6,248,0,1.0);fill:rgba(6,248,0,1.0)"/><circle cx="618" cy="45" r="5" style="stroke-width:1;stroke:rgba(9,243,0,1.0);fill:rgba(9,243,0,1.0)"/><path  d="" style="stroke-width:1;stroke:rgba(9,243,0,1.0);fill:rgba(9,243,0,1.0)"/><circle cx="618" cy="47" r="5" style="stroke-width:1;stroke:rgba(10,243,0,1.0);fill:rgba(10,243,0,1.0)"/><path  d="" style="stroke-width:1;stroke:rgba(10,243,0,1.0);fill:rgba(10,243,0,1.0)"/><circle cx="618" cy="93" r="5" style="stroke-width:1;stroke:rgba(20,227,0,1.0);fill:rgba(20,227,0,1.0)"/><path  d="" style="stroke-width:1;stroke:rgba(20,227,0,1.0);fill:rgba(20,227,0,1.0)"/><circle cx="286" cy="16" r="5" style="stroke-width:1;stroke:rgba(59,154,0,1.0);fill:rgba(59,154,0,1.0)"/><path  d="" style="stroke-width:1;stroke:rgba(59,154,0,1.0);fill:rgba(59,154,0,1.0)"/><circle cx="508" cy="121" r="5" style="stroke-width:1;stroke:rgba(50,204,0,1.0);fill:rgba(50,204,0,1.0)"/><path  d="" style="stroke-width:1;stroke:rgba(50,204,0,1.0);fill:rgba(50,204,0,1.0)"/><circle cx="347" cy="417" r="5" style="stroke-width:1;stroke:rgba(147,96,0,1.0);fill:rgba(147,96,0,1.0)"/><path  d="" style="stroke-width:1;stroke:rgba(147,96,0,1.0);fill:rgba(147,96,0,1.0)"/><path  d="M 377 69
L 387 58
L 518 58
L 518 80
L 387 80
L 377 69
Z" style="stroke-width:-1;stroke:rgba(0,217,101,1.0);fill:rgba(255,255,255,1.0)"/><text x="392" y="75" style="stroke-width:0;stroke:none;fill:rgba(51,51,51,1.0);font-size:12.8px;font-family:'Roboto Medium',sans-serif">chanchal/zaphandler</text><path  d="M 306 202
L 316 191
L 424 191
L 424 213
L 316 213
L 306 202
Z" style="stroke-width:-1;stroke:rgba(0,217,101,1.0);fill:rgba(255,255,255,1.0)"/><text x="321" y="208" style="stroke-width:0;stroke:none;fill:rgba(51,51,51,1.0);font-size:12.8px;font-family:'Roboto Medium',sans-serif">samber/slog-zap</text><path  d="M 286 178
L 296 167
L 426 167
L 426 189
L 296 189
L 286 178
Z" style="stroke-width:-1;stroke:rgba(0,217,101,1.0);fill:rgba(255,255,255,1.0)"/><text x="301" y="184" style="stroke-width:0;stroke:none;fill:rgba(51,51,51,1.0);font-size:12.8px;font-family:'Roboto Medium',sans-serif">samber/slog-zerolog</text><path  d="M 618 20
L 628 9
L 746 9
L 746 31
L 628 31
L 618 20
Z" style="stroke-width:-1;stroke:rgba(0,217,101,1.0);fill:rgba(255,255,255,1.0)"/><text x="633" y="26" style="stroke-width:0;stroke:none;fill:rgba(51,51,51,1.0);font-size:12.8px;font-family:'Roboto Medium',sans-serif">slog/JSONHandler</text><path  d="M 618 45
L 628 34
L 721 34
L 721 56
L 628 56
L 618 45
Z" style="stroke-width:-1;stroke:rgba(0,217,101,1.0);fill:rgba(255,255,255,1.0)"/><text x="633" y="51" style="stroke-width:0;stroke:none;fill:rgba(51,51,51,1.0);font-size:12.8px;font-family:'Roboto Medium',sans-serif">madkins/flash</text><path  d="M 618 69
L 628 58
L 734 58
L 734 80
L 628 80
L 618 69
Z" style="stroke-width:-1;stroke:rgba(0,217,101,1.0);fill:rgba(255,255,255,1.0)"/><text x="633" y="75" style="stroke-width:0;stroke:none;fill:rgba(51,51,51,1.0);font-size:12.8px;font-family:'Roboto Medium',sans-serif">madkins/replattr</text><path  d="M 618 93
L 628 82
L 730 82
L 730 104
L 628 104
L 618 93
Z" style="stroke-width:-1;stroke:rgba(0,217,101,1.0);fill:rgba(255,255,255,1.0)"/><text x="633" y="99" style="stroke-width:0;stroke:none;fill:rgba(51,51,51,1.0);font-size:12.8px;font-family:'Roboto Medium',sans-serif">madkins/sloggy</text><path  d="M 286 16
L 296 5
L 399 5
L 399 27
L 296 27
L 286 16
Z" style="stroke-width:-1;stroke:rgba(0,217,101,1.0);fill:rgba(255,255,255,1.0)"/><text x="301" y="22" style="stroke-width:0;stroke:none;fill:rgba(51,51,51,1.0);font-size:12.8px;font-family:'Roboto Medium',sans-serif">phsym/zeroslog</text><path  d="M 508 121
L 518 110
L 596 110
L 596 132
L 518 132
L 508 121
Z" style="stroke-width:-1;stroke:rgba(0,217,101,1.0);fill:rgba(255,255,255,1.0)"/><text x="523" y="127" style="stroke-width:0;stroke:none;fill:rgba(51,51,51,1.0);font-size:12.8px;font-family:'Roboto Medium',sans-serif">phuslu/slog</text><path  d="M 347 417
L 357 406
L 480 406
L 480 428
L 357 428
L 347 417
Z" style="stroke-width:-1;stroke:rgba(0,217,101,1.0);fill:rgba(255,255,255,1.0)"/><text x="362" y="423" style="stroke-width:0;stroke:none;fill:rgba(51,51,51,1.0);font-size:12.8px;font-family:'Roboto Medium',sans-serif">samber/slog-logrus</text></svg>