<svg xmlns="http://www.w3.org/2000/svg" xmlns:xlink="http://www.w3.org/1999/xlink" width="750" height="600">\n<path  d="M 0 0
L 750 0
L 750 600
L 0 600
L 0 0" style="stroke-width:0;stroke:rgba(255,255,255,1.0);fill:rgba(255,255,255,1.0)"/><path  d="M 14 37
L 629 37
L 629 551
L 14 551
L 14 37" style="stroke-width:0;stroke:rgba(255,255,255,1.0);fill:rgba(255,255,255,1.0)"/><path  d="M 14 551
L 629 551" style="stroke-width:1;stroke:rgba(51,51,51,1.0);fill:none"/><path  d="M 14 551
L 14 556" style="stroke-width:1;stroke:rgba(51,51,51,1.0);fill:none"/><text x="5" y="573" style="stroke-width:0;stroke:none;fill:rgba(51,51,51,1.0);font-size:12.8px;font-family:'Roboto Medium',sans-serif">0.0</text><path  d="M 76 551
L 76 556" style="stroke-width:1;stroke:rgba(51,51,51,1.0);fill:none"/><text x="63" y="573" style="stroke-width:0;stroke:none;fill:rgba(51,51,51,1.0);font-size:12.8px;font-family:'Roboto Medium',sans-serif">10.0</text><path  d="M 137 551
L 137 556" style="stroke-width:1;stroke:rgba(51,51,51,1.0);fill:none"/><text x="124" y="573" style="stroke-width:0;stroke:none;fill:rgba(51,51,51,1.0);font-size:12.8px;font-family:'Roboto Medium',sans-serif">20.0</text><path  d="M 199 551
L 199 556" style="stroke-width:1;stroke:rgba(51,51,51,1.0);fill:none"/><text x="186" y="573" style="stroke-width:0;stroke:none;fill:rgba(51,51,51,1.0);font-size:12.8px;font-family:'Roboto Medium',sans-serif">30.0</text><path  d="M 260 551
L 260 556" style="stroke-width:1;stroke:rgba(51,51,51,1.0);fill:none"/><text x="247" y="573" style="stroke-width:0;stroke:none;fill:rgba(51,51,51,1.0);font-size:12.8px;font-family:'Roboto Medium',sans-serif">40.0</text><path  d="M 322 551
L 322 556" style="stroke-width:1;stroke:rgba(51,51,51,1.0);fill:none"/><text x="309" y="573" style="stroke-width:0;stroke:none;fill:rgba(51,51,51,1.0);font-size:12.8px;font-family:'Roboto Medium',sans-serif">50.0</text><path  d="M 383 551
L 383 556" style="stroke-width:1;stroke:rgba(51,51,51,1.0);fill:none"/><text x="370" y="573" style="stroke-width:0;stroke:none;fill:rgba(51,51,51,1.0);font-size:12.8px;font-family:'Roboto Medium',sans-serif">60.0</text><path  d="M 445 551
L 445 556" style="stroke-width:1;stroke:rgba(51,51,51,1.0);fill:none"/><text x="432" y="573" style="stroke-width:0;stroke:none;fill:rgba(51,51,51,1.0);font-size:12.8px;font-family:'Roboto Medium',sans-serif">70.0</text><path  d="M 506 551
L 506 556" style="stroke-width:1;stroke:rgba(51,51,51,1.0);fill:none"/><text x="493" y="573" style="stroke-width:0;stroke:none;fill:rgba(51,51,51,1.0);font-size:12.8px;font-family:'Roboto Medium',sans-serif">80.0</text><path  d="M 568 551
L 568 556" style="stroke-width:1;stroke:rgba(51,51,51,1.0);fill:none"/><text x="555" y="573" style="stroke-width:0;stroke:none;fill:rgba(51,51,51,1.0);font-size:12.8px;font-family:'Roboto Medium',sans-serif">90.0</text><path  d="M 629 551
L 629 556" style="stroke-width:1;stroke:rgba(51,51,51,1.0);fill:none"/><text x="613" y="573" style="stroke-width:0;stroke:none;fill:rgba(51,51,51,1.0);font-size:12.8px;font-family:'Roboto Medium',sans-serif">100.0</text><text x="280" y="595" style="stroke-width:0;stroke:none;fill:rgba(51,51,51,1.0);font-size:12.8px;font-family:'Roboto Medium',sans-serif">Warning Score</text><path  d="M 76 551
L 76 37" style="stroke-width:0;stroke:none;fill:none"/><path  d="M 137 551
L 137 37" style="stroke-width:0;stroke:none;fill:none"/><path  d="M 199 551
L 199 37" style="stroke-width:0;stroke:none;fill:none"/><path  d="M 260 551
L 260 37" style="stroke-width:0;stroke:none;fill:none"/><path  d="M 322 551
L 322 37" style="stroke-width:0;stroke:none;fill:none"/><path  d="M 383 551
L 383 37" style="stroke-width:0;stroke:none;fill:none"/><path  d="M 445 551
L 445 37" style="stroke-width:0;stroke:none;fill:none"/><path  d="M 506 551
L 506 37" style="stroke-width:0;stroke:none;fill:none"/><path  d="M 568 551
L 568 37" style="stroke-width:0;stroke:none;fill:none"/><path  d="M 630 551
L 630 37" style="stroke-width:1;stroke:rgba(51,51,51,1.0);fill:none"/><path  d="M 630 551
L 635 551" style="stroke-width:1;stroke:rgba(51,51,51,1.0);fill:none"/><text x="640" y="557" style="stroke-width:0;stroke:none;fill:rgba(51,51,51,1.0);font-size:12.8px;font-family:'Roboto Medium',sans-serif">0.0</text><path  d="M 630 499
L 635 499" style="stroke-width:1;stroke:rgba(51,51,51,1.0);fill:none"/><text x="640" y="505" style="stroke-width:0;stroke:none;fill:rgba(51,51,51,1.0);font-size:12.8px;font-family:'Roboto Medium',sans-serif">10.0</text><path  d="M 630 448
L 635 448" style="stroke-width:1;stroke:rgba(51,51,51,1.0);fill:none"/><text x="640" y="454" style="stroke-width:0;stroke:none;fill:rgba(51,51,51,1.0);font-size:12.8px;font-family:'Roboto Medium',sans-serif">20.0</text><path  d="M 630 396
L 635 396" style="stroke-width:1;stroke:rgba(51,51,51,1.0);fill:none"/><text x="640" y="402" style="stroke-width:0;stroke:none;fill:rgba(51,51,51,1.0);font-size:12.8px;font-family:'Roboto Medium',sans-serif">30.0</text><path  d="M 630 345
L 635 345" style="stroke-width:1;stroke:rgba(51,51,51,1.0);fill:none"/><text x="640" y="351" style="stroke-width:0;stroke:none;fill:rgba(51,51,51,1.0);font-size:12.8px;font-family:'Roboto Medium',sans-serif">40.0</text><path  d="M 630 294
L 635 294" style="stroke-width:1;stroke:rgba(51,51,51,1.0);fill:none"/><text x="640" y="300" style="stroke-width:0;stroke:none;fill:rgba(51,51,51,1.0);font-size:12.8px;font-family:'Roboto Medium',sans-serif">50.0</text><path  d="M 630 242
L 635 242" style="stroke-width:1;stroke:rgba(51,51,51,1.0);fill:none"/><text x="640" y="248" style="stroke-width:0;stroke:none;fill:rgba(51,51,51,1.0);font-size:12.8px;font-family:'Roboto Medium',sans-serif">60.0</text><path  d="M 630 191
L 635 191" style="stroke-width:1;stroke:rgba(51,51,51,1.0);fill:none"/><text x="640" y="197" style="stroke-width:0;stroke:none;fill:rgba(51,51,51,1.0);font-size:12.8px;font-family:'Roboto Medium',sans-serif">70.0</text><path  d="M 630 139
L 635 139" style="stroke-width:1;stroke:rgba(51,51,51,1.0);fill:none"/><text x="640" y="145" style="stroke-width:0;stroke:none;fill:rgba(51,51,51,1.0);font-size:12.8px;font-family:'Roboto Medium',sans-serif">80.0</text><path  d="M 630 88
L 635 88" style="stroke-width:1;stroke:rgba(51,51,51,1.0);fill:none"/><text x="640" y="94" style="stroke-width:0;stroke:none;fill:rgba(51,51,51,1.0);font-size:12.8px;font-family:'Roboto Medium',sans-serif">90.0</text><path  d="M 630 37
L 635 37" style="stroke-width:1;stroke:rgba(51,51,51,1.0);fill:none"/><text x="640" y="43" style="stroke-width:0;stroke:none;fill:rgba(51,51,51,1.0);font-size:12.8px;font-family:'Roboto Medium',sans-serif">100.0</text><text x="683" y="243" style="stroke-width:0;stroke:none;fill:rgba(51,51,51,1.0);font-size:12.8px;font-family:'Roboto Medium',sans-serif" transform="rotate(90.00,683,243)">Benchmark Score</text><path  d="M 14 551
L 629 551" style="stroke-width:0;stroke:none;fill:none"/><path  d="M 14 499
L 629 499" style="stroke-width:0;stroke:none;fill:none"/><path  d="M 14 448
L 629 448" style="stroke-width:0;stroke:none;fill:none"/><path  d="M 14 396
L 629 396" style="stroke-width:0;stroke:none;fill:none"/><path  d="M 14 345
L 629 345" style="stroke-width:0;stroke:none;fill:none"/><path  d="M 14 294
L 629 294" style="stroke-width:0;stroke:none;fill:none"/><path  d="M 14 242
L 629 242" style="stroke-width:0;stroke:none;fill:none"/><path  d="M 14 191
L 629 191" style="stroke-width:0;stroke:none;fill:none"/><path  d="M 14 139
L 629 139" style="stroke-width:0;stroke:none;fill:none"/><path  d="M 14 88
L 629 88" style="stroke-width:0;stroke:none;fill:none"/><path  d="M 13 551
L 13 37" style="stroke-width:1;stroke:rgba(51,51,51,1.0);fill:none"/><path  d="M 13 -9223372036854775257
L 8 -9223372036854775257" style="stroke-width:1;stroke:rgba(51,51,51,1.0);fill:none"/><text x="-23" y="-9223372036854775251" style="stroke-width:0;stroke:none;fill:rgba(51,51,51,1.0);font-size:12.8px;font-family:'Roboto Medium',sans-serif">0.00</text><path  d="M 13 -9223372036854775257
L 8 -9223372036854775257" style="stroke-width:1;stroke:rgba(51,51,51,1.0);fill:none"/><text x="-23" y="-9223372036854775251" style="stroke-width:0;stroke:none;fill:rgba(51,51,51,1.0);font-size:12.8px;font-family:'Roboto Medium',sans-serif">0.00</text><path  d="M 13 -9223372036854775257
L 8 -9223372036854775257" style="stroke-width:1;stroke:rgba(51,51,51,1.0);fill:none"/><text x="-23" y="-9223372036854775251" style="stroke-width:0;stroke:none;fill:rgba(51,51,51,1.0);font-size:12.8px;font-family:'Roboto Medium',sans-serif">0.00</text><path  d="M 13 -9223372036854775257
L 8 -9223372036854775257" style="stroke-width:1;stroke:rgba(51,51,51,1.0);fill:none"/><text x="-23" y="-9223372036854775251" style="stroke-width:0;stroke:none;fill:rgba(51,51,51,1.0);font-size:12.8px;font-family:'Roboto Medium',sans-serif">0.00</text><path  d="M 13 -9223372036854775257
L 8 -9223372036854775257" style="stroke-width:1;stroke:rgba(51,51,51,1.0);fill:none"/><text x="-23" y="-9223372036854775251" style="stroke-width:0;stroke:none;fill:rgba(51,51,51,1.0);font-size:12.8px;font-family:'Roboto Medium',sans-serif">0.00</text><path  d="M 13 -9223372036854775257
L 8 -9223372036854775257" style="stroke-width:1;stroke:rgba(51,51,51,1.0);fill:none"/><text x="-23" y="-9223372036854775251" style="stroke-width:0;stroke:none;fill:rgba(51,51,51,1.0);font-size:12.8px;font-family:'Roboto Medium',sans-serif">0.00</text><path  d="M 13 -9223372036854775257
L 8 -9223372036854775257" style="stroke-width:1;stroke:rgba(51,51,51,1.0);fill:none"/><text x="-23" y="-9223372036854775251" style="stroke-width:0;stroke:none;fill:rgba(51,51,51,1.0);font-size:12.8px;font-family:'Roboto Medium',sans-serif">0.00</text><path  d="M 13 -9223372036854775257
L 8 -9223372036854775257" style="stroke-width:1;stroke:rgba(51,51,51,1.0);fill:none"/><text x="-23" y="-9223372036854775251" style="stroke-width:0;stroke:none;fill:rgba(51,51,51,1.0);font-size:12.8px;font-family:'Roboto Medium',sans-serif">0.00</text><path  d="M 13 -9223372036854775257
L 8 -9223372036854775257" style="stroke-width:1;stroke:rgba(51,51,51,1.0);fill:none"/><text x="-23" y="-9223372036854775251" style="stroke-width:0;stroke:none;fill:rgba(51,51,51,1.0);font-size:12.8px;font-family:'Roboto Medium',sans-serif">0.00</text><path  d="M 13 -9223372036854775257
L 8 -9223372036854775257" style="stroke-width:1;stroke:rgba(51,51,51,1.0);fill:none"/><text x="-23" y="-9223372036854775251" style="stroke-width:0;stroke:none;fill:rgba(51,51,51,1.0);font-size:12.8px;font-family:'Roboto Medium',sans-serif">0.00</text><path  d="M 13 -9223372036854775257
L 8 -9223372036854775257" style="stroke-width:1;stroke:rgba(51,51,51,1.0);fill:none"/><text x="-23" y="-9223372036854775251" style="stroke-width:0;stroke:none;fill:rgba(51,51,51,1.0);font-size:12.8px;font-family:'Roboto Medium',sans-serif">0.00</text><path  d="M 13 -9223372036854775257
L 8 -9223372036854775257" style="stroke-width:1;stroke:rgba(51,51,51,1.0);fill:none"/><text x="-23" y="-9223372036854775251" style="stroke-width:0;stroke:none;fill:rgba(51,51,51,1.0);font-size:12.8px;font-family:'Roboto Medium',sans-serif">0.00</text><path  d="M 13 -9223372036854775257
L 8 -9223372036854775257" style="stroke-width:1;stroke:rgba(51,51,51,1.0);fill:none"/><text x="-23" y="-9223372036854775251" style="stroke-width:0;stroke:none;fill:rgba(51,51,51,1.0);font-size:12.8px;font-family:'Roboto Medium',sans-serif">0.00</text><path  d="M 13 -9223372036854775257
L 8 -9223372036854775257" style="stroke-width:1;stroke:rgba(51,51,51,1.0);fill:none"/><text x="-23" y="-9223372036854775251" style="stroke-width:0;stroke:none;fill:rgba(51,51,51,1.0);font-size:12.8px;font-family:'Roboto Medium',sans-serif">0.00</text><path  d="M 13 -9223372036854775257
L 8 -9223372036854775257" style="stroke-width:1;stroke:rgba(51,51,51,1.0);fill:none"/><text x="-23" y="-9223372036854775251" style="stroke-width:0;stroke:none;fill:rgba(51,51,51,1.0);font-size:12.8px;font-family:'Roboto Medium',sans-serif">0.00</text><path  d="M 14 -9223372036854775257
L 629 -9223372036854775257" style="stroke-width:0;stroke:none;fill:none"/><path  d="M 14 -9223372036854775257
L 629 -9223372036854775257" style="stroke-width:0;stroke:none;fill:none"/><path  d="M 14 -9223372036854775257
L 629 -9223372036854775257" style="stroke-width:0;stroke:none;fill:none"/><path  d="M 14 -9223372036854775257
L 629 -9223372036854775257" style="stroke-width:0;stroke:none;fill:none"/><path  d="M 14 -9223372036854775257
L 629 -9223372036854775257" style="stroke-width:0;stroke:none;fill:none"/><path  d="M 14 -9223372036854775257
L 629 -9223372036854775257" style="stroke-width:0;stroke:none;fill:none"/><path  d="M 14 -9223372036854775257
L 629 -9223372036854775257" style="stroke-width:0;stroke:none;fill:none"/><path  d="M 14 -9223372036854775257
L 629 -9223372036854775257" style="stroke-width:0;stroke:none;fill:none"/><path  d="M 14 -9223372036854775257
L 629 -9223372036854775257" style="stroke-width:0;stroke:none;fill:none"/><path  d="M 14 -9223372036854775257
L 629 -9223372036854775257" style="stroke-width:0;stroke:none;fill:none"/><path  d="M 14 -9223372036854775257
L 629 -9223372036854775257" style="stroke-width:0;stroke:none;fill:none"/><path  d="M 14 -9223372036854775257
L 629 -9223372036854775257" style="stroke-width:0;stroke:none;fill:none"/><path  d="M 14 -9223372036854775257
L 629 -9223372036854775257" style="stroke-width:0;stroke:none;fill:none"/><path  d="M 14 -9223372036854775257
L 629 -9223372036854775257" style="stroke-width:0;stroke:none;fill:none"/><circle cx="619" cy="74" r="5" style="stroke-width:1;stroke:rgba(11,241,0,1.0);fill:rgba(11,241,0,1.0)"/><path  d="" style="stroke-width:1;stroke:rgba(11,241,0,1.0);fill:rgba(11,241,0,1.0)"/><circle cx="619" cy="126" r="5" style="stroke-width:1;stroke:rgba(23,223,0,1.0);fill:rgba(23,223,0,1.0)"/><path  d="" style="stroke-width:1;stroke:rgba(23,223,0,1.0);fill:rgba(23,223,0,1.0)"/><circle cx="256" cy="41" r="5" style="stroke-width:1;stroke:rgba(62,145,0,1.0);fill:rgba(62,145,0,1.0)"/><path  d="" style="stroke-width:1;stroke:rgba(62,145,0,1.0);fill:rgba(62,145,0,1.0)"/><circle cx="278" cy="267" r="5" style="stroke-width:1;stroke:rgba(129,123,0,1.0);fill:rgba(129,123,0,1.0)"/><path  d="" style="stroke-width:1;stroke:rgba(129,123,0,1.0);fill:rgba(129,123,0,1.0)"/><circle cx="355" cy="94" r="5" style="stroke-width:1;stroke:rgba(66,172,0,1.0);fill:rgba(66,172,0,1.0)"/><path  d="" style="stroke-width:1;stroke:rgba(66,172,0,1.0);fill:rgba(66,172,0,1.0)"/><circle cx="619" cy="63" r="5" style="stroke-width:1;stroke:rgba(8,245,0,1.0);fill:rgba(8,245,0,1.0)"/><path  d="" style="stroke-width:1;stroke:rgba(8,245,0,1.0);fill:rgba(8,245,0,1.0)"/><circle cx="256" cy="257" r="5" style="stroke-width:1;stroke:rgba(130,120,0,1.0);fill:rgba(130,120,0,1.0)"/><path  d="" style="stroke-width:1;stroke:rgba(130,120,0,1.0);fill:rgba(130,120,0,1.0)"/><circle cx="619" cy="52" r="5" style="stroke-width:1;stroke:rgba(5,248,0,1.0);fill:rgba(5,248,0,1.0)"/><path  d="" style="stroke-width:1;stroke:rgba(5,248,0,1.0);fill:rgba(5,248,0,1.0)"/><circle cx="619" cy="37" r="5" style="stroke-width:1;stroke:rgba(2,251,0,1.0);fill:rgba(2,251,0,1.0)"/><path  d="" style="stroke-width:1;stroke:rgba(2,251,0,1.0);fill:rgba(2,251,0,1.0)"/><circle cx="322" cy="507" r="5" style="stroke-width:1;stroke:rgba(163,66,0,1.0);fill:rgba(163,66,0,1.0)"/><path  d="" style="stroke-width:1;stroke:rgba(163,66,0,1.0);fill:rgba(163,66,0,1.0)"/><path  d="M 619 98
L 629 87
L 735 87
L 735 109
L 629 109
L 619 98
Z" style="stroke-width:-1;stroke:rgba(0,217,101,1.0);fill:rgba(255,255,255,1.0)"/><text x="634" y="104" style="stroke-width:0;stroke:none;fill:rgba(51,51,51,1.0);font-size:12.8px;font-family:'Roboto Medium',sans-serif">madkins/replattr</text><path  d="M 619 126
L 629 115
L 731 115
L 731 137
L 629 137
L 619 126
Z" style="stroke-width:-1;stroke:rgba(0,217,101,1.0);fill:rgba(255,255,255,1.0)"/><text x="634" y="132" style="stroke-width:0;stroke:none;fill:rgba(51,51,51,1.0);font-size:12.8px;font-family:'Roboto Medium',sans-serif">madkins/sloggy</text><path  d="M 256 41
L 266 30
L 369 30
L 369 52
L 266 52
L 256 41
Z" style="stroke-width:-1;stroke:rgba(0,217,101,1.0);fill:rgba(255,255,255,1.0)"/><text x="271" y="47" style="stroke-width:0;stroke:none;fill:rgba(51,51,51,1.0);font-size:12.8px;font-family:'Roboto Medium',sans-serif">phsym/zeroslog</text><path  d="M 278 274
L 288 263
L 396 263
L 396 285
L 288 285
L 278 274
Z" style="stroke-width:-1;stroke:rgba(0,217,101,1.0);fill:rgba(255,255,255,1.0)"/><text x="293" y="280" style="stroke-width:0;stroke:none;fill:rgba(51,51,51,1.0);font-size:12.8px;font-family:'Roboto Medium',sans-serif">samber/slog-zap</text><path  d="M 355 94
L 365 83
L 496 83
L 496 105
L 365 105
L 355 94
Z" style="stroke-width:-1;stroke:rgba(0,217,101,1.0);fill:rgba(255,255,255,1.0)"/><text x="370" y="100" style="stroke-width:0;stroke:none;fill:rgba(51,51,51,1.0);font-size:12.8px;font-family:'Roboto Medium',sans-serif">chanchal/zaphandler</text><path  d="M 619 69
L 629 58
L 722 58
L 722 80
L 629 80
L 619 69
Z" style="stroke-width:-1;stroke:rgba(0,217,101,1.0);fill:rgba(255,255,255,1.0)"/><text x="634" y="75" style="stroke-width:0;stroke:none;fill:rgba(51,51,51,1.0);font-size:12.8px;font-family:'Roboto Medium',sans-serif">madkins/flash</text><path  d="M 256 251
L 266 240
L 396 240
L 396 262
L 266 262
L 256 251
Z" style="stroke-width:-1;stroke:rgba(0,217,101,1.0);fill:rgba(255,255,255,1.0)"/><text x="271" y="257" style="stroke-width:0;stroke:none;fill:rgba(51,51,51,1.0);font-size:12.8px;font-family:'Roboto Medium',sans-serif">samber/slog-zerolog</text><path  d="M 619 46
L 629 35
L 747 35
L 747 57
L 629 57
L 619 46
Z" style="stroke-width:-1;stroke:rgba(0,217,101,1.0);fill:rgba(255,255,255,1.0)"/><text x="634" y="52" style="stroke-width:0;stroke:none;fill:rgba(51,51,51,1.0);font-size:12.8px;font-family:'Roboto Medium',sans-serif">slog/JSONHandler</text><path  d="M 619 17
L 629 6
L 707 6
L 707 28
L 629 28
L 619 17
Z" style="stroke-width:-1;stroke:rgba(0,217,101,1.0);fill:rgba(255,255,255,1.0)"/><text x="634" y="23" style="stroke-width:0;stroke:none;fill:rgba(51,51,51,1.0);font-size:12.8px;font-family:'Roboto Medium',sans-serif">phuslu/slog</text><path  d="M 322 507
L 332 496
L 455 496
L 455 518
L 332 518
L 322 507
Z" style="stroke-width:-1;stroke:rgba(0,217,101,1.0);fill:rgba(255,255,255,1.0)"/><text x="337" y="513" style="stroke-width:0;stroke:none;fill:rgba(51,51,51,1.0);font-size:12.8px;font-family:'Roboto Medium',sans-serif">samber/slog-logrus</text></svg>