<svg xmlns="http://www.w3.org/2000/svg" xmlns:xlink="http://www.w3.org/1999/xlink" width="750" height="600">\n<path  d="M 0 0
L 750 0
L 750 600
L 0 600
L 0 0" style="stroke-width:0;stroke:rgba(255,255,255,1.0);fill:rgba(255,255,255,1.0)"/><path  d="M 14 16
L 623 16
L 623 551
L 14 551
L 14 16" style="stroke-width:0;stroke:rgba(255,255,255,1.0);fill:rgba(255,255,255,1.0)"/><path  d="M 14 551
L 623 551" style="stroke-width:1;stroke:rgba(51,51,51,1.0);fill:none"/><path  d="M 14 551
L 14 556" style="stroke-width:1;stroke:rgba(51,51,51,1.0);fill:none"/><text x="5" y="573" style="stroke-width:0;stroke:none;fill:rgba(51,51,51,1.0);font-size:12.8px;font-family:'Roboto Medium',sans-serif">0.0</text><path  d="M 75 551
L 75 556" style="stroke-width:1;stroke:rgba(51,51,51,1.0);fill:none"/><text x="62" y="573" style="stroke-width:0;stroke:none;fill:rgba(51,51,51,1.0);font-size:12.8px;font-family:'Roboto Medium',sans-serif">10.0</text><path  d="M 136 551
L 136 556" style="stroke-width:1;stroke:rgba(51,51,51,1.0);fill:none"/><text x="123" y="573" style="stroke-width:0;stroke:none;fill:rgba(51,51,51,1.0);font-size:12.8px;font-family:'Roboto Medium',sans-serif">20.0</text><path  d="M 197 551
L 197 556" style="stroke-width:1;stroke:rgba(51,51,51,1.0);fill:none"/><text x="184" y="573" style="stroke-width:0;stroke:none;fill:rgba(51,51,51,1.0);font-size:12.8px;font-family:'Roboto Medium',sans-serif">30.0</text><path  d="M 258 551
L 258 556" style="stroke-width:1;stroke:rgba(51,51,51,1.0);fill:none"/><text x="245" y="573" style="stroke-width:0;stroke:none;fill:rgba(51,51,51,1.0);font-size:12.8px;font-family:'Roboto Medium',sans-serif">40.0</text><path  d="M 319 551
L 319 556" style="stroke-width:1;stroke:rgba(51,51,51,1.0);fill:none"/><text x="306" y="573" style="stroke-width:0;stroke:none;fill:rgba(51,51,51,1.0);font-size:12.8px;font-family:'Roboto Medium',sans-serif">50.0</text><path  d="M 380 551
L 380 556" style="stroke-width:1;stroke:rgba(51,51,51,1.0);fill:none"/><text x="367" y="573" style="stroke-width:0;stroke:none;fill:rgba(51,51,51,1.0);font-size:12.8px;font-family:'Roboto Medium',sans-serif">60.0</text><path  d="M 441 551
L 441 556" style="stroke-width:1;stroke:rgba(51,51,51,1.0);fill:none"/><text x="428" y="573" style="stroke-width:0;stroke:none;fill:rgba(51,51,51,1.0);font-size:12.8px;font-family:'Roboto Medium',sans-serif">70.0</text><path  d="M 502 551
L 502 556" style="stroke-width:1;stroke:rgba(51,51,51,1.0);fill:none"/><text x="489" y="573" style="stroke-width:0;stroke:none;fill:rgba(51,51,51,1.0);font-size:12.8px;font-family:'Roboto Medium',sans-serif">80.0</text><path  d="M 563 551
L 563 556" style="stroke-width:1;stroke:rgba(51,51,51,1.0);fill:none"/><text x="550" y="573" style="stroke-width:0;stroke:none;fill:rgba(51,51,51,1.0);font-size:12.8px;font-family:'Roboto Medium',sans-serif">90.0</text><path  d="M 623 551
L 623 556" style="stroke-width:1;stroke:rgba(51,51,51,1.0);fill:none"/><text x="607" y="573" style="stroke-width:0;stroke:none;fill:rgba(51,51,51,1.0);font-size:12.8px;font-family:'Roboto Medium',sans-serif">100.0</text><text x="277" y="595" style="stroke-width:0;stroke:none;fill:rgba(51,51,51,1.0);font-size:12.8px;font-family:'Roboto Medium',sans-serif">Warning Score</text><path  d="M 75 551
L 75 16" style="stroke-width:0;stroke:none;fill:none"/><path  d="M 136 551
L 136 16" style="stroke-width:0;stroke:none;fill:none"/><path  d="M 197 551
L 197 16" style="stroke-width:0;stroke:none;fill:none"/><path  d="M 258 551
L 258 16" style="stroke-width:0;stroke:none;fill:none"/><path  d="M 319 551
L 319 16" style="stroke-width:0;stroke:none;fill:none"/><path  d="M 380 551
L 380 16" style="stroke-width:0;stroke:none;fill:none"/><path  d="M 441 551
L 441 16" style="stroke-width:0;stroke:none;fill:none"/><path  d="M 502 551
L 502 16" style="stroke-width:0;stroke:none;fill:none"/><path  d="M 563 551
L 563 16" style="stroke-width:0;stroke:none;fill:none"/><path  d="M 624 551
L 624 16" style="stroke-width:1;stroke:rgba(51,51,51,1.0);fill:none"/><path  d="M 624 551
L 629 551" style="stroke-width:1;stroke:rgba(51,51,51,1.0);fill:none"/><text x="634" y="557" style="stroke-width:0;stroke:none;fill:rgba(51,51,51,1.0);font-size:12.8px;font-family:'Roboto Medium',sans-serif">0.0</text><path  d="M 624 497
L 629 497" style="stroke-width:1;stroke:rgba(51,51,51,1.0);fill:none"/><text x="634" y="503" style="stroke-width:0;stroke:none;fill:rgba(51,51,51,1.0);font-size:12.8px;font-family:'Roboto Medium',sans-serif">10.0</text><path  d="M 624 444
L 629 444" style="stroke-width:1;stroke:rgba(51,51,51,1.0);fill:none"/><text x="634" y="450" style="stroke-width:0;stroke:none;fill:rgba(51,51,51,1.0);font-size:12.8px;font-family:'Roboto Medium',sans-serif">20.0</text><path  d="M 624 390
L 629 390" style="stroke-width:1;stroke:rgba(51,51,51,1.0);fill:none"/><text x="634" y="396" style="stroke-width:0;stroke:none;fill:rgba(51,51,51,1.0);font-size:12.8px;font-family:'Roboto Medium',sans-serif">30.0</text><path  d="M 624 337
L 629 337" style="stroke-width:1;stroke:rgba(51,51,51,1.0);fill:none"/><text x="634" y="343" style="stroke-width:0;stroke:none;fill:rgba(51,51,51,1.0);font-size:12.8px;font-family:'Roboto Medium',sans-serif">40.0</text><path  d="M 624 283
L 629 283" style="stroke-width:1;stroke:rgba(51,51,51,1.0);fill:none"/><text x="634" y="289" style="stroke-width:0;stroke:none;fill:rgba(51,51,51,1.0);font-size:12.8px;font-family:'Roboto Medium',sans-serif">50.0</text><path  d="M 624 230
L 629 230" style="stroke-width:1;stroke:rgba(51,51,51,1.0);fill:none"/><text x="634" y="236" style="stroke-width:0;stroke:none;fill:rgba(51,51,51,1.0);font-size:12.8px;font-family:'Roboto Medium',sans-serif">60.0</text><path  d="M 624 176
L 629 176" style="stroke-width:1;stroke:rgba(51,51,51,1.0);fill:none"/><text x="634" y="182" style="stroke-width:0;stroke:none;fill:rgba(51,51,51,1.0);font-size:12.8px;font-family:'Roboto Medium',sans-serif">70.0</text><path  d="M 624 123
L 629 123" style="stroke-width:1;stroke:rgba(51,51,51,1.0);fill:none"/><text x="634" y="129" style="stroke-width:0;stroke:none;fill:rgba(51,51,51,1.0);font-size:12.8px;font-family:'Roboto Medium',sans-serif">80.0</text><path  d="M 624 69
L 629 69" style="stroke-width:1;stroke:rgba(51,51,51,1.0);fill:none"/><text x="634" y="75" style="stroke-width:0;stroke:none;fill:rgba(51,51,51,1.0);font-size:12.8px;font-family:'Roboto Medium',sans-serif">90.0</text><path  d="M 624 16
L 629 16" style="stroke-width:1;stroke:rgba(51,51,51,1.0);fill:none"/><text x="634" y="22" style="stroke-width:0;stroke:none;fill:rgba(51,51,51,1.0);font-size:12.8px;font-family:'Roboto Medium',sans-serif">100.0</text><text x="677" y="232" style="stroke-width:0;stroke:none;fill:rgba(51,51,51,1.0);font-size:12.8px;font-family:'Roboto Medium',sans-serif" transform="rotate(90.00,677,232)">Benchmark Score</text><path  d="M 14 551
L 623 551" style="stroke-width:0;stroke:none;fill:none"/><path  d="M 14 497
L 623 497" style="stroke-width:0;stroke:none;fill:none"/><path  d="M 14 444
L 623 444" style="stroke-width:0;stroke:none;fill:none"/><path  d="M 14 390
L 623 390" style="stroke-width:0;stroke:none;fill:none"/><path  d="M 14 337
L 623 337" style="stroke-width:0;stroke:none;fill:none"/><path  d="M 14 283
L 623 283" style="stroke-width:0;stroke:none;fill:none"/><path  d="M 14 230
L 623 230" style="stroke-width:0;stroke:none;fill:none"/><path  d="M 14 176
L 623 176" style="stroke-width:0;stroke:none;fill:none"/><path  d="M 14 123
L 623 123" style="stroke-width:0;stroke:none;fill:none"/><path  d="M 14 69
L 623 69" style="stroke-width:0;stroke:none;fill:none"/><path  d="M 13 551
L 13 16" style="stroke-width:1;stroke:rgba(51,51,51,1.0);fill:none"/><path  d="M 13 -9223372036854775257
L 8 -9223372036854775257" style="stroke-width:1;stroke:rgba(51,51,51,1.0);fill:none"/><text x="-23" y="-9223372036854775251" style="stroke-width:0;stroke:none;fill:rgba(51,51,51,1.0);font-size:12.8px;font-family:'Roboto Medium',sans-serif">0.00</text><path  d="M 13 -9223372036854775257
L 8 -9223372036854775257" style="stroke-width:1;stroke:rgba(51,51,51,1.0);fill:none"/><text x="-23" y="-9223372036854775251" style="stroke-width:0;stroke:none;fill:rgba(51,51,51,1.0);font-size:12.8px;font-family:'Roboto Medium',sans-serif">0.00</text><path  d="M 13 -9223372036854775257
L 8 -9223372036854775257" style="stroke-width:1;stroke:rgba(51,51,51,1.0);fill:none"/><text x="-23" y="-9223372036854775251" style="stroke-width:0;stroke:none;fill:rgba(51,51,51,1.0);font-size:12.8px;font-family:'Roboto Medium',sans-serif">0.00</text><path  d="M 13 -9223372036854775257
L 8 -9223372036854775257" style="stroke-width:1;stroke:rgba(51,51,51,1.0);fill:none"/><text x="-23" y="-9223372036854775251" style="stroke-width:0;stroke:none;fill:rgba(51,51,51,1.0);font-size:12.8px;font-family:'Roboto Medium',sans-serif">0.00</text><path  d="M 13 -9223372036854775257
L 8 -9223372036854775257" style="stroke-width:1;stroke:rgba(51,51,51,1.0);fill:none"/><text x="-23" y="-9223372036854775251" style="stroke-width:0;stroke:none;fill:rgba(51,51,51,1.0);font-size:12.8px;font-family:'Roboto Medium',sans-serif">0.00</text><path  d="M 13 -9223372036854775257
L 8 -9223372036854775257" style="stroke-width:1;stroke:rgba(51,51,51,1.0);fill:none"/><text x="-23" y="-9223372036854775251" style="stroke-width:0;stroke:none;fill:rgba(51,51,51,1.0);font-size:12.8px;font-family:'Roboto Medium',sans-serif">0.00</text><path  d="M 13 -9223372036854775257
L 8 -9223372036854775257" style="stroke-width:1;stroke:rgba(51,51,51,1.0);fill:none"/><text x="-23" y="-9223372036854775251" style="stroke-width:0;stroke:none;fill:rgba(51,51,51,1.0);font-size:12.8px;font-family:'Roboto Medium',sans-serif">0.00</text><path  d="M 13 -9223372036854775257
L 8 -9223372036854775257" style="stroke-width:1;stroke:rgba(51,51,51,1.0);fill:none"/><text x="-23" y="-9223372036854775251" style="stroke-width:0;stroke:none;fill:rgba(51,51,51,1.0);font-size:12.8px;font-family:'Roboto Medium',sans-serif">0.00</text><path  d="M 13 -9223372036854775257
L 8 -9223372036854775257" style="stroke-width:1;stroke:rgba(51,51,51,1.0);fill:none"/><text x="-23" y="-9223372036854775251" style="stroke-width:0;stroke:none;fill:rgba(51,51,51,1.0);font-size:12.8px;font-family:'Roboto Medium',sans-serif">0.00</text><path  d="M 13 -9223372036854775257
L 8 -9223372036854775257" style="stroke-width:1;stroke:rgba(51,51,51,1.0);fill:none"/><text x="-23" y="-9223372036854775251" style="stroke-width:0;stroke:none;fill:rgba(51,51,51,1.0);font-size:12.8px;font-family:'Roboto Medium',sans-serif">0.00</text><path  d="M 13 -9223372036854775257
L 8 -9223372036854775257" style="stroke-width:1;stroke:rgba(51,51,51,1.0);fill:none"/><text x="-23" y="-9223372036854775251" style="stroke-width:0;stroke:none;fill:rgba(51,51,51,1.0);font-size:12.8px;font-family:'Roboto Medium',sans-serif">0.00</text><path  d="M 13 -9223372036854775257
L 8 -9223372036854775257" style="stroke-width:1;stroke:rgba(51,51,51,1.0);fill:none"/><text x="-23" y="-9223372036854775251" style="stroke-width:0;stroke:none;fill:rgba(51,51,51,1.0);font-size:12.8px;font-family:'Roboto Medium',sans-serif">0.00</text><path  d="M 13 -9223372036854775257
L 8 -9223372036854775257" style="stroke-width:1;stroke:rgba(51,51,51,1.0);fill:none"/><text x="-23" y="-9223372036854775251" style="stroke-width:0;stroke:none;fill:rgba(51,51,51,1.0);font-size:12.8px;font-family:'Roboto Medium',sans-serif">0.00</text><path  d="M 13 -9223372036854775257
L 8 -9223372036854775257" style="stroke-width:1;stroke:rgba(51,51,51,1.0);fill:none"/><text x="-23" y="-9223372036854775251" style="stroke-width:0;stroke:none;fill:rgba(51,51,51,1.0);font-size:12.8px;font-family:'Roboto Medium',sans-serif">0.00</text><path  d="M 13 -9223372036854775257
L 8 -9223372036854775257" style="stroke-width:1;stroke:rgba(51,51,51,1.0);fill:none"/><text x="-23" y="-9223372036854775251" style="stroke-width:0;stroke:none;fill:rgba(51,51,51,1.0);font-size:12.8px;font-family:'Roboto Medium',sans-serif">0.00</text><path  d="M 14 -9223372036854775257
L 623 -9223372036854775257" style="stroke-width:0;stroke:none;fill:none"/><path  d="M 14 -9223372036854775257
L 623 -9223372036854775257" style="stroke-width:0;stroke:none;fill:none"/><path  d="M 14 -9223372036854775257
L 623 -9223372036854775257" style="stroke-width:0;stroke:none;fill:none"/><path  d="M 14 -9223372036854775257
L 623 -9223372036854775257" style="stroke-width:0;stroke:none;fill:none"/><path  d="M 14 -9223372036854775257
L 623 -9223372036854775257" style="stroke-width:0;stroke:none;fill:none"/><path  d="M 14 -9223372036854775257
L 623 -9223372036854775257" style="stroke-width:0;stroke:none;fill:none"/><path  d="M 14 -9223372036854775257
L 623 -9223372036854775257" style="stroke-width:0;stroke:none;fill:none"/><path  d="M 14 -9223372036854775257
L 623 -9223372036854775257" style="stroke-width:0;stroke:none;fill:none"/><path  d="M 14 -9223372036854775257
L 623 -9223372036854775257" style="stroke-width:0;stroke:none;fill:none"/><path  d="M 14 -9223372036854775257
L 623 -9223372036854775257" style="stroke-width:0;stroke:none;fill:none"/><path  d="M 14 -9223372036854775257
L 623 -9223372036854775257" style="stroke-width:0;stroke:none;fill:none"/><path  d="M 14 -9223372036854775257
L 623 -9223372036854775257" style="stroke-width:0;stroke:none;fill:none"/><path  d="M 14 -9223372036854775257
L 623 -9223372036854775257" style="stroke-width:0;stroke:none;fill:none"/><path  d="M 14 -9223372036854775257
L 623 -9223372036854775257" style="stroke-width:0;stroke:none;fill:none"/><circle cx="254" cy="16" r="5" style="stroke-width:1;stroke:rgba(61,145,0,1.0);fill:rgba(61,145,0,1.0)"/><path  d="" style="stroke-width:1;stroke:rgba(61,145,0,1.0);fill:rgba(61,145,0,1.0)"/><circle cx="319" cy="505" r="5" style="stroke-width:1;stroke:rgba(163,66,0,1.0);fill:rgba(163,66,0,1.0)"/><path  d="" style="stroke-width:1;stroke:rgba(163,66,0,1.0);fill:rgba(163,66,0,1.0)"/><circle cx="275" cy="237" r="5" style="stroke-width:1;stroke:rgba(123,127,0,1.0);fill:rgba(123,127,0,1.0)"/><path  d="" style="stroke-width:1;stroke:rgba(123,127,0,1.0);fill:rgba(123,127,0,1.0)"/><circle cx="254" cy="226" r="5" style="stroke-width:1;stroke:rgba(124,124,0,1.0);fill:rgba(124,124,0,1.0)"/><path  d="" style="stroke-width:1;stroke:rgba(124,124,0,1.0);fill:rgba(124,124,0,1.0)"/><circle cx="613" cy="27" r="5" style="stroke-width:1;stroke:rgba(4,250,0,1.0);fill:rgba(4,250,0,1.0)"/><path  d="" style="stroke-width:1;stroke:rgba(4,250,0,1.0);fill:rgba(4,250,0,1.0)"/><circle cx="352" cy="71" r="5" style="stroke-width:1;stroke:rgba(65,172,0,1.0);fill:rgba(65,172,0,1.0)"/><path  d="" style="stroke-width:1;stroke:rgba(65,172,0,1.0);fill:rgba(65,172,0,1.0)"/><circle cx="613" cy="30" r="5" style="stroke-width:1;stroke:rgba(5,249,0,1.0);fill:rgba(5,249,0,1.0)"/><path  d="" style="stroke-width:1;stroke:rgba(5,249,0,1.0);fill:rgba(5,249,0,1.0)"/><circle cx="613" cy="111" r="5" style="stroke-width:1;stroke:rgba(24,222,0,1.0);fill:rgba(24,222,0,1.0)"/><path  d="" style="stroke-width:1;stroke:rgba(24,222,0,1.0);fill:rgba(24,222,0,1.0)"/><path  d="M 260 16
L 270 5
L 373 5
L 373 27
L 270 27
L 260 16
Z" style="stroke-width:-1;stroke:rgba(0,217,101,1.0);fill:rgba(255,255,255,1.0)"/><text x="275" y="22" style="stroke-width:0;stroke:none;fill:rgba(51,51,51,1.0);font-size:12.8px;font-family:'Roboto Medium',sans-serif">phsym/zeroslog</text><path  d="M 325 505
L 335 494
L 458 494
L 458 516
L 335 516
L 325 505
Z" style="stroke-width:-1;stroke:rgba(0,217,101,1.0);fill:rgba(255,255,255,1.0)"/><text x="340" y="511" style="stroke-width:0;stroke:none;fill:rgba(51,51,51,1.0);font-size:12.8px;font-family:'Roboto Medium',sans-serif">samber/slog-logrus</text><path  d="M 282 247
L 292 236
L 400 236
L 400 258
L 292 258
L 282 247
Z" style="stroke-width:-1;stroke:rgba(0,217,101,1.0);fill:rgba(255,255,255,1.0)"/><text x="297" y="253" style="stroke-width:0;stroke:none;fill:rgba(51,51,51,1.0);font-size:12.8px;font-family:'Roboto Medium',sans-serif">samber/slog-zap</text><path  d="M 260 215
L 270 204
L 400 204
L 400 226
L 270 226
L 260 215
Z" style="stroke-width:-1;stroke:rgba(0,217,101,1.0);fill:rgba(255,255,255,1.0)"/><text x="275" y="221" style="stroke-width:0;stroke:none;fill:rgba(51,51,51,1.0);font-size:12.8px;font-family:'Roboto Medium',sans-serif">samber/slog-zerolog</text><path  d="M 619 16
L 629 5
L 747 5
L 747 27
L 629 27
L 619 16
Z" style="stroke-width:-1;stroke:rgba(0,217,101,1.0);fill:rgba(255,255,255,1.0)"/><text x="634" y="22" style="stroke-width:0;stroke:none;fill:rgba(51,51,51,1.0);font-size:12.8px;font-family:'Roboto Medium',sans-serif">slog/JSONHandler</text><path  d="M 358 71
L 368 60
L 499 60
L 499 82
L 368 82
L 358 71
Z" style="stroke-width:-1;stroke:rgba(0,217,101,1.0);fill:rgba(255,255,255,1.0)"/><text x="373" y="77" style="stroke-width:0;stroke:none;fill:rgba(51,51,51,1.0);font-size:12.8px;font-family:'Roboto Medium',sans-serif">chanchal/zaphandler</text><path  d="M 619 41
L 629 30
L 722 30
L 722 52
L 629 52
L 619 41
Z" style="stroke-width:-1;stroke:rgba(0,217,101,1.0);fill:rgba(255,255,255,1.0)"/><text x="634" y="47" style="stroke-width:0;stroke:none;fill:rgba(51,51,51,1.0);font-size:12.8px;font-family:'Roboto Medium',sans-serif">madkins/flash</text><path  d="M 619 111
L 629 100
L 731 100
L 731 122
L 629 122
L 619 111
Z" style="stroke-width:-1;stroke:rgba(0,217,101,1.0);fill:rgba(255,255,255,1.0)"/><text x="634" y="117" style="stroke-width:0;stroke:none;fill:rgba(51,51,51,1.0);font-size:12.8px;font-family:'Roboto Medium',sans-serif">madkins/sloggy</text></svg>