<svg xmlns="http://www.w3.org/2000/svg" xmlns:xlink="http://www.w3.org/1999/xlink" width="400" height="200">\n<path  d="M 0 0
L 400 0
L 400 200
L 0 200
L 0 0" style="stroke-width:0;stroke:none;fill:rgba(255,255,255,1.0)"/><text x="10" y="25" style="stroke-width:0;stroke:none;fill:rgba(70,70,70,1.0);font-size:15.3px;font-family:'Roboto Medium',sans-serif">Nanoseconds per operation</text><path  d="M 143 45
L 148 45" style="stroke-width:1;stroke:rgba(110,112,121,1.0);fill:none"/><path  d="M 143 68
L 148 68" style="stroke-width:1;stroke:rgba(110,112,121,1.0);fill:none"/><path  d="M 143 91
L 148 91" style="stroke-width:1;stroke:rgba(110,112,121,1.0);fill:none"/><path  d="M 143 114
L 148 114" style="stroke-width:1;stroke:rgba(110,112,121,1.0);fill:none"/><path  d="M 143 137
L 148 137" style="stroke-width:1;stroke:rgba(110,112,121,1.0);fill:none"/><path  d="M 143 160
L 148 160" style="stroke-width:1;stroke:rgba(110,112,121,1.0);fill:none"/><path  d="M 148 45
L 148 160" style="stroke-width:1;stroke:rgba(110,112,121,1.0);fill:none"/><text x="10" y="63" style="stroke-width:0;stroke:none;fill:rgba(70,70,70,1.0);font-size:15.3px;font-family:'Roboto Medium',sans-serif">Slog JSONHandler</text><text x="28" y="86" style="stroke-width:0;stroke:none;fill:rgba(70,70,70,1.0);font-size:15.3px;font-family:'Roboto Medium',sans-serif">Samber Zerolog</text><text x="54" y="109" style="stroke-width:0;stroke:none;fill:rgba(70,70,70,1.0);font-size:15.3px;font-family:'Roboto Medium',sans-serif">Samber Zap</text><text x="34" y="132" style="stroke-width:0;stroke:none;fill:rgba(70,70,70,1.0);font-size:15.3px;font-family:'Roboto Medium',sans-serif">Phsym Zerolog</text><text x="25" y="155" style="stroke-width:0;stroke:none;fill:rgba(70,70,70,1.0);font-size:15.3px;font-family:'Roboto Medium',sans-serif">Darvaza Zerolog</text><text x="120" y="185" style="stroke-width:0;stroke:none;fill:rgba(70,70,70,1.0);font-size:15.3px;font-family:'Roboto Medium',sans-serif">174.48k</text><text x="197" y="185" style="stroke-width:0;stroke:none;fill:rgba(70,70,70,1.0);font-size:15.3px;font-family:'Roboto Medium',sans-serif">348.96k</text><text x="274" y="185" style="stroke-width:0;stroke:none;fill:rgba(70,70,70,1.0);font-size:15.3px;font-family:'Roboto Medium',sans-serif">523.44k</text><text x="352" y="185" style="stroke-width:0;stroke:none;fill:rgba(70,70,70,1.0);font-size:15.3px;font-family:'Roboto Medium',sans-serif">697.92k</text><path  d="M 186 45
L 186 160" style="stroke-width:1;stroke:rgba(224,230,242,1.0);fill:none"/><path  d="M 225 45
L 225 160" style="stroke-width:1;stroke:rgba(224,230,242,1.0);fill:none"/><path  d="M 264 45
L 264 160" style="stroke-width:1;stroke:rgba(224,230,242,1.0);fill:none"/><path  d="M 302 45
L 302 160" style="stroke-width:1;stroke:rgba(224,230,242,1.0);fill:none"/><path  d="M 341 45
L 341 160" style="stroke-width:1;stroke:rgba(224,230,242,1.0);fill:none"/><path  d="M 380 45
L 380 160" style="stroke-width:1;stroke:rgba(224,230,242,1.0);fill:none"/><path  d="M 148 142
L 361 142
L 361 155
L 148 155
L 148 142" style="stroke-width:0;stroke:none;fill:rgba(84,112,198,1.0)"/><path  d="M 148 119
L 170 119
L 170 132
L 148 132
L 148 119" style="stroke-width:0;stroke:none;fill:rgba(84,112,198,1.0)"/><path  d="M 148 96
L 350 96
L 350 109
L 148 109
L 148 96" style="stroke-width:0;stroke:none;fill:rgba(84,112,198,1.0)"/><path  d="M 148 73
L 363 73
L 363 86
L 148 86
L 148 73" style="stroke-width:0;stroke:none;fill:rgba(84,112,198,1.0)"/><path  d="M 148 50
L 183 50
L 183 63
L 148 63
L 148 50" style="stroke-width:0;stroke:none;fill:rgba(84,112,198,1.0)"/></svg>