<svg xmlns="http://www.w3.org/2000/svg" xmlns:xlink="http://www.w3.org/1999/xlink" width="800" height="600">\n<path  d="M 0 0
L 800 0
L 800 600
L 0 600
L 0 0" style="stroke-width:0;stroke:rgba(255,255,255,1.0);fill:rgba(255,255,255,1.0)"/><path  d="M 9 11
L 579 11
L 579 551
L 9 551
L 9 11" style="stroke-width:0;stroke:rgba(255,255,255,1.0);fill:rgba(255,255,255,1.0)"/><path  d="M 9 551
L 579 551" style="stroke-width:1;stroke:rgba(51,51,51,1.0);fill:none"/><path  d="M 9 551
L 9 556" style="stroke-width:1;stroke:rgba(51,51,51,1.0);fill:none"/><text x="5" y="573" style="stroke-width:0;stroke:none;fill:rgba(51,51,51,1.0);font-size:12.8px;font-family:'Roboto Medium',sans-serif">0</text><path  d="M 66 551
L 66 556" style="stroke-width:1;stroke:rgba(51,51,51,1.0);fill:none"/><text x="59" y="573" style="stroke-width:0;stroke:none;fill:rgba(51,51,51,1.0);font-size:12.8px;font-family:'Roboto Medium',sans-serif">10</text><path  d="M 123 551
L 123 556" style="stroke-width:1;stroke:rgba(51,51,51,1.0);fill:none"/><text x="116" y="573" style="stroke-width:0;stroke:none;fill:rgba(51,51,51,1.0);font-size:12.8px;font-family:'Roboto Medium',sans-serif">20</text><path  d="M 180 551
L 180 556" style="stroke-width:1;stroke:rgba(51,51,51,1.0);fill:none"/><text x="173" y="573" style="stroke-width:0;stroke:none;fill:rgba(51,51,51,1.0);font-size:12.8px;font-family:'Roboto Medium',sans-serif">30</text><path  d="M 237 551
L 237 556" style="stroke-width:1;stroke:rgba(51,51,51,1.0);fill:none"/><text x="230" y="573" style="stroke-width:0;stroke:none;fill:rgba(51,51,51,1.0);font-size:12.8px;font-family:'Roboto Medium',sans-serif">40</text><path  d="M 294 551
L 294 556" style="stroke-width:1;stroke:rgba(51,51,51,1.0);fill:none"/><text x="287" y="573" style="stroke-width:0;stroke:none;fill:rgba(51,51,51,1.0);font-size:12.8px;font-family:'Roboto Medium',sans-serif">50</text><path  d="M 351 551
L 351 556" style="stroke-width:1;stroke:rgba(51,51,51,1.0);fill:none"/><text x="344" y="573" style="stroke-width:0;stroke:none;fill:rgba(51,51,51,1.0);font-size:12.8px;font-family:'Roboto Medium',sans-serif">60</text><path  d="M 408 551
L 408 556" style="stroke-width:1;stroke:rgba(51,51,51,1.0);fill:none"/><text x="401" y="573" style="stroke-width:0;stroke:none;fill:rgba(51,51,51,1.0);font-size:12.8px;font-family:'Roboto Medium',sans-serif">70</text><path  d="M 465 551
L 465 556" style="stroke-width:1;stroke:rgba(51,51,51,1.0);fill:none"/><text x="458" y="573" style="stroke-width:0;stroke:none;fill:rgba(51,51,51,1.0);font-size:12.8px;font-family:'Roboto Medium',sans-serif">80</text><path  d="M 522 551
L 522 556" style="stroke-width:1;stroke:rgba(51,51,51,1.0);fill:none"/><text x="515" y="573" style="stroke-width:0;stroke:none;fill:rgba(51,51,51,1.0);font-size:12.8px;font-family:'Roboto Medium',sans-serif">90</text><path  d="M 579 551
L 579 556" style="stroke-width:1;stroke:rgba(51,51,51,1.0);fill:none"/><text x="568" y="573" style="stroke-width:0;stroke:none;fill:rgba(51,51,51,1.0);font-size:12.8px;font-family:'Roboto Medium',sans-serif">100</text><text x="267" y="595" style="stroke-width:0;stroke:none;fill:rgba(51,51,51,1.0);font-size:12.8px;font-family:'Roboto Medium',sans-serif">Warnings</text><path  d="M 66 551
L 66 11" style="stroke-width:0;stroke:none;fill:none"/><path  d="M 123 551
L 123 11" style="stroke-width:0;stroke:none;fill:none"/><path  d="M 180 551
L 180 11" style="stroke-width:0;stroke:none;fill:none"/><path  d="M 237 551
L 237 11" style="stroke-width:0;stroke:none;fill:none"/><path  d="M 294 551
L 294 11" style="stroke-width:0;stroke:none;fill:none"/><path  d="M 351 551
L 351 11" style="stroke-width:0;stroke:none;fill:none"/><path  d="M 408 551
L 408 11" style="stroke-width:0;stroke:none;fill:none"/><path  d="M 465 551
L 465 11" style="stroke-width:0;stroke:none;fill:none"/><path  d="M 522 551
L 522 11" style="stroke-width:0;stroke:none;fill:none"/><path  d="M 580 551
L 580 11" style="stroke-width:1;stroke:rgba(51,51,51,1.0);fill:none"/><path  d="M 580 551
L 585 551" style="stroke-width:1;stroke:rgba(51,51,51,1.0);fill:none"/><text x="590" y="557" style="stroke-width:0;stroke:none;fill:rgba(51,51,51,1.0);font-size:12.8px;font-family:'Roboto Medium',sans-serif">0</text><path  d="M 580 497
L 585 497" style="stroke-width:1;stroke:rgba(51,51,51,1.0);fill:none"/><text x="590" y="503" style="stroke-width:0;stroke:none;fill:rgba(51,51,51,1.0);font-size:12.8px;font-family:'Roboto Medium',sans-serif">10</text><path  d="M 580 443
L 585 443" style="stroke-width:1;stroke:rgba(51,51,51,1.0);fill:none"/><text x="590" y="449" style="stroke-width:0;stroke:none;fill:rgba(51,51,51,1.0);font-size:12.8px;font-family:'Roboto Medium',sans-serif">20</text><path  d="M 580 389
L 585 389" style="stroke-width:1;stroke:rgba(51,51,51,1.0);fill:none"/><text x="590" y="395" style="stroke-width:0;stroke:none;fill:rgba(51,51,51,1.0);font-size:12.8px;font-family:'Roboto Medium',sans-serif">30</text><path  d="M 580 335
L 585 335" style="stroke-width:1;stroke:rgba(51,51,51,1.0);fill:none"/><text x="590" y="341" style="stroke-width:0;stroke:none;fill:rgba(51,51,51,1.0);font-size:12.8px;font-family:'Roboto Medium',sans-serif">40</text><path  d="M 580 281
L 585 281" style="stroke-width:1;stroke:rgba(51,51,51,1.0);fill:none"/><text x="590" y="287" style="stroke-width:0;stroke:none;fill:rgba(51,51,51,1.0);font-size:12.8px;font-family:'Roboto Medium',sans-serif">50</text><path  d="M 580 227
L 585 227" style="stroke-width:1;stroke:rgba(51,51,51,1.0);fill:none"/><text x="590" y="233" style="stroke-width:0;stroke:none;fill:rgba(51,51,51,1.0);font-size:12.8px;font-family:'Roboto Medium',sans-serif">60</text><path  d="M 580 173
L 585 173" style="stroke-width:1;stroke:rgba(51,51,51,1.0);fill:none"/><text x="590" y="179" style="stroke-width:0;stroke:none;fill:rgba(51,51,51,1.0);font-size:12.8px;font-family:'Roboto Medium',sans-serif">70</text><path  d="M 580 119
L 585 119" style="stroke-width:1;stroke:rgba(51,51,51,1.0);fill:none"/><text x="590" y="125" style="stroke-width:0;stroke:none;fill:rgba(51,51,51,1.0);font-size:12.8px;font-family:'Roboto Medium',sans-serif">80</text><path  d="M 580 65
L 585 65" style="stroke-width:1;stroke:rgba(51,51,51,1.0);fill:none"/><text x="590" y="71" style="stroke-width:0;stroke:none;fill:rgba(51,51,51,1.0);font-size:12.8px;font-family:'Roboto Medium',sans-serif">90</text><path  d="M 580 11
L 585 11" style="stroke-width:1;stroke:rgba(51,51,51,1.0);fill:none"/><text x="590" y="17" style="stroke-width:0;stroke:none;fill:rgba(51,51,51,1.0);font-size:12.8px;font-family:'Roboto Medium',sans-serif">100</text><text x="622" y="245" style="stroke-width:0;stroke:none;fill:rgba(51,51,51,1.0);font-size:12.8px;font-family:'Roboto Medium',sans-serif" transform="rotate(90.00,622,245)">Benchmarks</text><path  d="M 9 551
L 579 551" style="stroke-width:0;stroke:none;fill:none"/><path  d="M 9 497
L 579 497" style="stroke-width:0;stroke:none;fill:none"/><path  d="M 9 443
L 579 443" style="stroke-width:0;stroke:none;fill:none"/><path  d="M 9 389
L 579 389" style="stroke-width:0;stroke:none;fill:none"/><path  d="M 9 335
L 579 335" style="stroke-width:0;stroke:none;fill:none"/><path  d="M 9 281
L 579 281" style="stroke-width:0;stroke:none;fill:none"/><path  d="M 9 227
L 579 227" style="stroke-width:0;stroke:none;fill:none"/><path  d="M 9 173
L 579 173" style="stroke-width:0;stroke:none;fill:none"/><path  d="M 9 119
L 579 119" style="stroke-width:0;stroke:none;fill:none"/><path  d="M 9 65
L 579 65" style="stroke-width:0;stroke:none;fill:none"/><path  d="M 8 551
L 8 11" style="stroke-width:1;stroke:rgba(51,51,51,1.0);fill:none"/><path  d="M 8 -9223372036854775257
L 3 -9223372036854775257" style="stroke-width:1;stroke:rgba(51,51,51,1.0);fill:none"/><text x="-28" y="-9223372036854775251" style="stroke-width:0;stroke:none;fill:rgba(51,51,51,1.0);font-size:12.8px;font-family:'Roboto Medium',sans-serif">0.00</text><path  d="M 8 -9223372036854775257
L 3 -9223372036854775257" style="stroke-width:1;stroke:rgba(51,51,51,1.0);fill:none"/><text x="-28" y="-9223372036854775251" style="stroke-width:0;stroke:none;fill:rgba(51,51,51,1.0);font-size:12.8px;font-family:'Roboto Medium',sans-serif">0.00</text><path  d="M 8 -9223372036854775257
L 3 -9223372036854775257" style="stroke-width:1;stroke:rgba(51,51,51,1.0);fill:none"/><text x="-28" y="-9223372036854775251" style="stroke-width:0;stroke:none;fill:rgba(51,51,51,1.0);font-size:12.8px;font-family:'Roboto Medium',sans-serif">0.00</text><path  d="M 8 -9223372036854775257
L 3 -9223372036854775257" style="stroke-width:1;stroke:rgba(51,51,51,1.0);fill:none"/><text x="-28" y="-9223372036854775251" style="stroke-width:0;stroke:none;fill:rgba(51,51,51,1.0);font-size:12.8px;font-family:'Roboto Medium',sans-serif">0.00</text><path  d="M 8 -9223372036854775257
L 3 -9223372036854775257" style="stroke-width:1;stroke:rgba(51,51,51,1.0);fill:none"/><text x="-28" y="-9223372036854775251" style="stroke-width:0;stroke:none;fill:rgba(51,51,51,1.0);font-size:12.8px;font-family:'Roboto Medium',sans-serif">0.00</text><path  d="M 8 -9223372036854775257
L 3 -9223372036854775257" style="stroke-width:1;stroke:rgba(51,51,51,1.0);fill:none"/><text x="-28" y="-9223372036854775251" style="stroke-width:0;stroke:none;fill:rgba(51,51,51,1.0);font-size:12.8px;font-family:'Roboto Medium',sans-serif">0.00</text><path  d="M 8 -9223372036854775257
L 3 -9223372036854775257" style="stroke-width:1;stroke:rgba(51,51,51,1.0);fill:none"/><text x="-28" y="-9223372036854775251" style="stroke-width:0;stroke:none;fill:rgba(51,51,51,1.0);font-size:12.8px;font-family:'Roboto Medium',sans-serif">0.00</text><path  d="M 8 -9223372036854775257
L 3 -9223372036854775257" style="stroke-width:1;stroke:rgba(51,51,51,1.0);fill:none"/><text x="-28" y="-9223372036854775251" style="stroke-width:0;stroke:none;fill:rgba(51,51,51,1.0);font-size:12.8px;font-family:'Roboto Medium',sans-serif">0.00</text><path  d="M 8 -9223372036854775257
L 3 -9223372036854775257" style="stroke-width:1;stroke:rgba(51,51,51,1.0);fill:none"/><text x="-28" y="-9223372036854775251" style="stroke-width:0;stroke:none;fill:rgba(51,51,51,1.0);font-size:12.8px;font-family:'Roboto Medium',sans-serif">0.00</text><path  d="M 8 -9223372036854775257
L 3 -9223372036854775257" style="stroke-width:1;stroke:rgba(51,51,51,1.0);fill:none"/><text x="-28" y="-9223372036854775251" style="stroke-width:0;stroke:none;fill:rgba(51,51,51,1.0);font-size:12.8px;font-family:'Roboto Medium',sans-serif">0.00</text><path  d="M 8 -9223372036854775257
L 3 -9223372036854775257" style="stroke-width:1;stroke:rgba(51,51,51,1.0);fill:none"/><text x="-28" y="-9223372036854775251" style="stroke-width:0;stroke:none;fill:rgba(51,51,51,1.0);font-size:12.8px;font-family:'Roboto Medium',sans-serif">0.00</text><path  d="M 8 -9223372036854775257
L 3 -9223372036854775257" style="stroke-width:1;stroke:rgba(51,51,51,1.0);fill:none"/><text x="-28" y="-9223372036854775251" style="stroke-width:0;stroke:none;fill:rgba(51,51,51,1.0);font-size:12.8px;font-family:'Roboto Medium',sans-serif">0.00</text><path  d="M 8 -9223372036854775257
L 3 -9223372036854775257" style="stroke-width:1;stroke:rgba(51,51,51,1.0);fill:none"/><text x="-28" y="-9223372036854775251" style="stroke-width:0;stroke:none;fill:rgba(51,51,51,1.0);font-size:12.8px;font-family:'Roboto Medium',sans-serif">0.00</text><path  d="M 8 -9223372036854775257
L 3 -9223372036854775257" style="stroke-width:1;stroke:rgba(51,51,51,1.0);fill:none"/><text x="-28" y="-9223372036854775251" style="stroke-width:0;stroke:none;fill:rgba(51,51,51,1.0);font-size:12.8px;font-family:'Roboto Medium',sans-serif">0.00</text><path  d="M 8 -9223372036854775257
L 3 -9223372036854775257" style="stroke-width:1;stroke:rgba(51,51,51,1.0);fill:none"/><text x="-28" y="-9223372036854775251" style="stroke-width:0;stroke:none;fill:rgba(51,51,51,1.0);font-size:12.8px;font-family:'Roboto Medium',sans-serif">0.00</text><path  d="M 9 -9223372036854775257
L 579 -9223372036854775257" style="stroke-width:0;stroke:none;fill:none"/><path  d="M 9 -9223372036854775257
L 579 -9223372036854775257" style="stroke-width:0;stroke:none;fill:none"/><path  d="M 9 -9223372036854775257
L 579 -9223372036854775257" style="stroke-width:0;stroke:none;fill:none"/><path  d="M 9 -9223372036854775257
L 579 -9223372036854775257" style="stroke-width:0;stroke:none;fill:none"/><path  d="M 9 -9223372036854775257
L 579 -9223372036854775257" style="stroke-width:0;stroke:none;fill:none"/><path  d="M 9 -9223372036854775257
L 579 -9223372036854775257" style="stroke-width:0;stroke:none;fill:none"/><path  d="M 9 -9223372036854775257
L 579 -9223372036854775257" style="stroke-width:0;stroke:none;fill:none"/><path  d="M 9 -9223372036854775257
L 579 -9223372036854775257" style="stroke-width:0;stroke:none;fill:none"/><path  d="M 9 -9223372036854775257
L 579 -9223372036854775257" style="stroke-width:0;stroke:none;fill:none"/><path  d="M 9 -9223372036854775257
L 579 -9223372036854775257" style="stroke-width:0;stroke:none;fill:none"/><path  d="M 9 -9223372036854775257
L 579 -9223372036854775257" style="stroke-width:0;stroke:none;fill:none"/><path  d="M 9 -9223372036854775257
L 579 -9223372036854775257" style="stroke-width:0;stroke:none;fill:none"/><path  d="M 9 -9223372036854775257
L 579 -9223372036854775257" style="stroke-width:0;stroke:none;fill:none"/><path  d="M 9 -9223372036854775257
L 579 -9223372036854775257" style="stroke-width:0;stroke:none;fill:none"/><path  d="M 579 11
L 636 111" style="stroke-width:1;stroke:rgba(63,63,63,0.2);fill:none"/><path  d="M 305 18
L 636 141" style="stroke-width:1;stroke:rgba(63,63,63,0.2);fill:none"/><path  d="M 432 18
L 636 170" style="stroke-width:1;stroke:rgba(63,63,63,0.2);fill:none"/><path  d="M 579 29
L 636 200" style="stroke-width:1;stroke:rgba(63,63,63,0.2);fill:none"/><path  d="M 579 33
L 636 230" style="stroke-width:1;stroke:rgba(63,63,63,0.2);fill:none"/><path  d="M 368 65
L 636 260" style="stroke-width:1;stroke:rgba(63,63,63,0.2);fill:none"/><path  d="M 579 133
L 636 289" style="stroke-width:1;stroke:rgba(63,63,63,0.2);fill:none"/><path  d="M 368 219
L 636 319" style="stroke-width:1;stroke:rgba(63,63,63,0.2);fill:none"/><path  d="M 390 234
L 636 349" style="stroke-width:1;stroke:rgba(63,63,63,0.2);fill:none"/><path  d="M 432 514
L 636 378" style="stroke-width:1;stroke:rgba(63,63,63,0.2);fill:none"/><path  d="M 152 11
L 152 416
L 579 416" style="stroke-width:1;stroke:rgba(255,0,127,0.2);fill:none"/><path  d="M 294 11
L 294 281
L 579 281" style="stroke-width:1;stroke:rgba(255,0,127,0.2);fill:none"/><path  d="M 437 11
L 437 146
L 579 146" style="stroke-width:1;stroke:rgba(255,0,127,0.2);fill:none"/><path  d="M 494 416
L 504 405
L 534 405
L 534 427
L 504 427
L 494 416
Z" style="stroke-width:1;stroke:rgba(255,0,127,0.2);fill:rgba(255,255,255,1.0)"/><text x="509" y="422" style="stroke-width:0;stroke:none;fill:rgba(51,51,51,1.0);font-size:12.8px;font-family:'Roboto Medium',sans-serif">3/4</text><path  d="M 494 281
L 504 270
L 538 270
L 538 292
L 504 292
L 494 281
Z" style="stroke-width:1;stroke:rgba(255,0,127,0.2);fill:rgba(255,255,255,1.0)"/><text x="509" y="287" style="stroke-width:0;stroke:none;fill:rgba(51,51,51,1.0);font-size:12.8px;font-family:'Roboto Medium',sans-serif">Half</text><path  d="M 494 146
L 504 135
L 557 135
L 557 157
L 504 157
L 494 146
Z" style="stroke-width:1;stroke:rgba(255,0,127,0.2);fill:rgba(255,255,255,1.0)"/><text x="509" y="152" style="stroke-width:0;stroke:none;fill:rgba(51,51,51,1.0);font-size:12.8px;font-family:'Roboto Medium',sans-serif">Quarter</text><circle cx="579" cy="11" r="5" style="stroke-width:1;stroke:rgba(0,254,0,1.0);fill:rgba(0,254,0,1.0)"/><path  d="" style="stroke-width:1;stroke:rgba(0,254,0,1.0);fill:rgba(0,254,0,1.0)"/><circle cx="305" cy="18" r="5" style="stroke-width:1;stroke:rgba(54,168,0,1.0);fill:rgba(54,168,0,1.0)"/><path  d="" style="stroke-width:1;stroke:rgba(54,168,0,1.0);fill:rgba(54,168,0,1.0)"/><circle cx="432" cy="18" r="5" style="stroke-width:1;stroke:rgba(32,208,0,1.0);fill:rgba(32,208,0,1.0)"/><path  d="" style="stroke-width:1;stroke:rgba(32,208,0,1.0);fill:rgba(32,208,0,1.0)"/><circle cx="579" cy="29" r="5" style="stroke-width:1;stroke:rgba(4,248,0,1.0);fill:rgba(4,248,0,1.0)"/><path  d="" style="stroke-width:1;stroke:rgba(4,248,0,1.0);fill:rgba(4,248,0,1.0)"/><circle cx="579" cy="33" r="5" style="stroke-width:1;stroke:rgba(5,247,0,1.0);fill:rgba(5,247,0,1.0)"/><path  d="" style="stroke-width:1;stroke:rgba(5,247,0,1.0);fill:rgba(5,247,0,1.0)"/><circle cx="368" cy="65" r="5" style="stroke-width:1;stroke:rgba(57,185,0,1.0);fill:rgba(57,185,0,1.0)"/><path  d="" style="stroke-width:1;stroke:rgba(57,185,0,1.0);fill:rgba(57,185,0,1.0)"/><circle cx="579" cy="133" r="5" style="stroke-width:1;stroke:rgba(26,214,0,1.0);fill:rgba(26,214,0,1.0)"/><path  d="" style="stroke-width:1;stroke:rgba(26,214,0,1.0);fill:rgba(26,214,0,1.0)"/><circle cx="368" cy="219" r="5" style="stroke-width:1;stroke:rgba(96,158,0,1.0);fill:rgba(96,158,0,1.0)"/><path  d="" style="stroke-width:1;stroke:rgba(96,158,0,1.0);fill:rgba(96,158,0,1.0)"/><circle cx="390" cy="234" r="5" style="stroke-width:1;stroke:rgba(94,159,0,1.0);fill:rgba(94,159,0,1.0)"/><path  d="" style="stroke-width:1;stroke:rgba(94,159,0,1.0);fill:rgba(94,159,0,1.0)"/><circle cx="432" cy="514" r="5" style="stroke-width:1;stroke:rgba(120,80,0,1.0);fill:rgba(120,80,0,1.0)"/><path  d="" style="stroke-width:1;stroke:rgba(120,80,0,1.0);fill:rgba(120,80,0,1.0)"/><path  d="M 636 111
L 646 100
L 724 100
L 724 122
L 646 122
L 636 111
Z" style="stroke-width:1;stroke:rgba(63,127,255,1.0);fill:rgba(255,255,255,1.0)"/><text x="651" y="117" style="stroke-width:0;stroke:none;fill:rgba(51,51,51,1.0);font-size:12.8px;font-family:'Roboto Medium',sans-serif">phuslu/slog</text><path  d="M 636 141
L 646 130
L 749 130
L 749 152
L 646 152
L 636 141
Z" style="stroke-width:1;stroke:rgba(63,127,255,1.0);fill:rgba(255,255,255,1.0)"/><text x="651" y="147" style="stroke-width:0;stroke:none;fill:rgba(51,51,51,1.0);font-size:12.8px;font-family:'Roboto Medium',sans-serif">phsym/zeroslog</text><path  d="M 636 170
L 646 159
L 760 159
L 760 181
L 646 181
L 636 170
Z" style="stroke-width:1;stroke:rgba(63,127,255,1.0);fill:rgba(255,255,255,1.0)"/><text x="651" y="176" style="stroke-width:0;stroke:none;fill:rgba(51,51,51,1.0);font-size:12.8px;font-family:'Roboto Medium',sans-serif">svcrunner/jsonlog</text><path  d="M 636 200
L 646 189
L 764 189
L 764 211
L 646 211
L 636 200
Z" style="stroke-width:1;stroke:rgba(63,127,255,1.0);fill:rgba(255,255,255,1.0)"/><text x="651" y="206" style="stroke-width:0;stroke:none;fill:rgba(51,51,51,1.0);font-size:12.8px;font-family:'Roboto Medium',sans-serif">slog/JSONHandler</text><path  d="M 636 230
L 646 219
L 739 219
L 739 241
L 646 241
L 636 230
Z" style="stroke-width:1;stroke:rgba(63,127,255,1.0);fill:rgba(255,255,255,1.0)"/><text x="651" y="236" style="stroke-width:0;stroke:none;fill:rgba(51,51,51,1.0);font-size:12.8px;font-family:'Roboto Medium',sans-serif">madkins/flash</text><path  d="M 636 260
L 646 249
L 777 249
L 777 271
L 646 271
L 636 260
Z" style="stroke-width:1;stroke:rgba(63,127,255,1.0);fill:rgba(255,255,255,1.0)"/><text x="651" y="266" style="stroke-width:0;stroke:none;fill:rgba(51,51,51,1.0);font-size:12.8px;font-family:'Roboto Medium',sans-serif">chanchal/zaphandler</text><path  d="M 636 289
L 646 278
L 748 278
L 748 300
L 646 300
L 636 289
Z" style="stroke-width:1;stroke:rgba(63,127,255,1.0);fill:rgba(255,255,255,1.0)"/><text x="651" y="295" style="stroke-width:0;stroke:none;fill:rgba(51,51,51,1.0);font-size:12.8px;font-family:'Roboto Medium',sans-serif">madkins/sloggy</text><path  d="M 636 319
L 646 308
L 754 308
L 754 330
L 646 330
L 636 319
Z" style="stroke-width:1;stroke:rgba(63,127,255,1.0);fill:rgba(255,255,255,1.0)"/><text x="651" y="325" style="stroke-width:0;stroke:none;fill:rgba(51,51,51,1.0);font-size:12.8px;font-family:'Roboto Medium',sans-serif">samber/slog-zap</text><path  d="M 636 349
L 646 338
L 776 338
L 776 360
L 646 360
L 636 349
Z" style="stroke-width:1;stroke:rgba(63,127,255,1.0);fill:rgba(255,255,255,1.0)"/><text x="651" y="355" style="stroke-width:0;stroke:none;fill:rgba(51,51,51,1.0);font-size:12.8px;font-family:'Roboto Medium',sans-serif">samber/slog-zerolog</text><path  d="M 636 378
L 646 367
L 769 367
L 769 389
L 646 389
L 636 378
Z" style="stroke-width:1;stroke:rgba(63,127,255,1.0);fill:rgba(255,255,255,1.0)"/><text x="651" y="384" style="stroke-width:0;stroke:none;fill:rgba(51,51,51,1.0);font-size:12.8px;font-family:'Roboto Medium',sans-serif">samber/slog-logrus</text></svg>