<svg xmlns="http://www.w3.org/2000/svg" xmlns:xlink="http://www.w3.org/1999/xlink" width="750" height="600">\n<path  d="M 0 0
L 750 0
L 750 600
L 0 600
L 0 0" style="stroke-width:0;stroke:rgba(255,255,255,1.0);fill:rgba(255,255,255,1.0)"/><path  d="M 9 38
L 626 38
L 626 551
L 9 551
L 9 38" style="stroke-width:0;stroke:rgba(255,255,255,1.0);fill:rgba(255,255,255,1.0)"/><path  d="M 9 551
L 626 551" style="stroke-width:1;stroke:rgba(51,51,51,1.0);fill:none"/><path  d="M 9 551
L 9 556" style="stroke-width:1;stroke:rgba(51,51,51,1.0);fill:none"/><text x="5" y="573" style="stroke-width:0;stroke:none;fill:rgba(51,51,51,1.0);font-size:12.8px;font-family:'Roboto Medium',sans-serif">0</text><path  d="M 71 551
L 71 556" style="stroke-width:1;stroke:rgba(51,51,51,1.0);fill:none"/><text x="64" y="573" style="stroke-width:0;stroke:none;fill:rgba(51,51,51,1.0);font-size:12.8px;font-family:'Roboto Medium',sans-serif">10</text><path  d="M 133 551
L 133 556" style="stroke-width:1;stroke:rgba(51,51,51,1.0);fill:none"/><text x="126" y="573" style="stroke-width:0;stroke:none;fill:rgba(51,51,51,1.0);font-size:12.8px;font-family:'Roboto Medium',sans-serif">20</text><path  d="M 195 551
L 195 556" style="stroke-width:1;stroke:rgba(51,51,51,1.0);fill:none"/><text x="188" y="573" style="stroke-width:0;stroke:none;fill:rgba(51,51,51,1.0);font-size:12.8px;font-family:'Roboto Medium',sans-serif">30</text><path  d="M 256 551
L 256 556" style="stroke-width:1;stroke:rgba(51,51,51,1.0);fill:none"/><text x="249" y="573" style="stroke-width:0;stroke:none;fill:rgba(51,51,51,1.0);font-size:12.8px;font-family:'Roboto Medium',sans-serif">40</text><path  d="M 318 551
L 318 556" style="stroke-width:1;stroke:rgba(51,51,51,1.0);fill:none"/><text x="311" y="573" style="stroke-width:0;stroke:none;fill:rgba(51,51,51,1.0);font-size:12.8px;font-family:'Roboto Medium',sans-serif">50</text><path  d="M 380 551
L 380 556" style="stroke-width:1;stroke:rgba(51,51,51,1.0);fill:none"/><text x="373" y="573" style="stroke-width:0;stroke:none;fill:rgba(51,51,51,1.0);font-size:12.8px;font-family:'Roboto Medium',sans-serif">60</text><path  d="M 441 551
L 441 556" style="stroke-width:1;stroke:rgba(51,51,51,1.0);fill:none"/><text x="434" y="573" style="stroke-width:0;stroke:none;fill:rgba(51,51,51,1.0);font-size:12.8px;font-family:'Roboto Medium',sans-serif">70</text><path  d="M 503 551
L 503 556" style="stroke-width:1;stroke:rgba(51,51,51,1.0);fill:none"/><text x="496" y="573" style="stroke-width:0;stroke:none;fill:rgba(51,51,51,1.0);font-size:12.8px;font-family:'Roboto Medium',sans-serif">80</text><path  d="M 565 551
L 565 556" style="stroke-width:1;stroke:rgba(51,51,51,1.0);fill:none"/><text x="558" y="573" style="stroke-width:0;stroke:none;fill:rgba(51,51,51,1.0);font-size:12.8px;font-family:'Roboto Medium',sans-serif">90</text><path  d="M 626 551
L 626 556" style="stroke-width:1;stroke:rgba(51,51,51,1.0);fill:none"/><text x="615" y="573" style="stroke-width:0;stroke:none;fill:rgba(51,51,51,1.0);font-size:12.8px;font-family:'Roboto Medium',sans-serif">100</text><text x="291" y="595" style="stroke-width:0;stroke:none;fill:rgba(51,51,51,1.0);font-size:12.8px;font-family:'Roboto Medium',sans-serif">Warnings</text><path  d="M 71 551
L 71 38" style="stroke-width:0;stroke:none;fill:none"/><path  d="M 133 551
L 133 38" style="stroke-width:0;stroke:none;fill:none"/><path  d="M 195 551
L 195 38" style="stroke-width:0;stroke:none;fill:none"/><path  d="M 256 551
L 256 38" style="stroke-width:0;stroke:none;fill:none"/><path  d="M 318 551
L 318 38" style="stroke-width:0;stroke:none;fill:none"/><path  d="M 380 551
L 380 38" style="stroke-width:0;stroke:none;fill:none"/><path  d="M 441 551
L 441 38" style="stroke-width:0;stroke:none;fill:none"/><path  d="M 503 551
L 503 38" style="stroke-width:0;stroke:none;fill:none"/><path  d="M 565 551
L 565 38" style="stroke-width:0;stroke:none;fill:none"/><path  d="M 627 551
L 627 38" style="stroke-width:1;stroke:rgba(51,51,51,1.0);fill:none"/><path  d="M 627 551
L 632 551" style="stroke-width:1;stroke:rgba(51,51,51,1.0);fill:none"/><text x="637" y="557" style="stroke-width:0;stroke:none;fill:rgba(51,51,51,1.0);font-size:12.8px;font-family:'Roboto Medium',sans-serif">0</text><path  d="M 627 499
L 632 499" style="stroke-width:1;stroke:rgba(51,51,51,1.0);fill:none"/><text x="637" y="505" style="stroke-width:0;stroke:none;fill:rgba(51,51,51,1.0);font-size:12.8px;font-family:'Roboto Medium',sans-serif">10</text><path  d="M 627 448
L 632 448" style="stroke-width:1;stroke:rgba(51,51,51,1.0);fill:none"/><text x="637" y="454" style="stroke-width:0;stroke:none;fill:rgba(51,51,51,1.0);font-size:12.8px;font-family:'Roboto Medium',sans-serif">20</text><path  d="M 627 397
L 632 397" style="stroke-width:1;stroke:rgba(51,51,51,1.0);fill:none"/><text x="637" y="403" style="stroke-width:0;stroke:none;fill:rgba(51,51,51,1.0);font-size:12.8px;font-family:'Roboto Medium',sans-serif">30</text><path  d="M 627 345
L 632 345" style="stroke-width:1;stroke:rgba(51,51,51,1.0);fill:none"/><text x="637" y="351" style="stroke-width:0;stroke:none;fill:rgba(51,51,51,1.0);font-size:12.8px;font-family:'Roboto Medium',sans-serif">40</text><path  d="M 627 294
L 632 294" style="stroke-width:1;stroke:rgba(51,51,51,1.0);fill:none"/><text x="637" y="300" style="stroke-width:0;stroke:none;fill:rgba(51,51,51,1.0);font-size:12.8px;font-family:'Roboto Medium',sans-serif">50</text><path  d="M 627 243
L 632 243" style="stroke-width:1;stroke:rgba(51,51,51,1.0);fill:none"/><text x="637" y="249" style="stroke-width:0;stroke:none;fill:rgba(51,51,51,1.0);font-size:12.8px;font-family:'Roboto Medium',sans-serif">60</text><path  d="M 627 191
L 632 191" style="stroke-width:1;stroke:rgba(51,51,51,1.0);fill:none"/><text x="637" y="197" style="stroke-width:0;stroke:none;fill:rgba(51,51,51,1.0);font-size:12.8px;font-family:'Roboto Medium',sans-serif">70</text><path  d="M 627 140
L 632 140" style="stroke-width:1;stroke:rgba(51,51,51,1.0);fill:none"/><text x="637" y="146" style="stroke-width:0;stroke:none;fill:rgba(51,51,51,1.0);font-size:12.8px;font-family:'Roboto Medium',sans-serif">80</text><path  d="M 627 89
L 632 89" style="stroke-width:1;stroke:rgba(51,51,51,1.0);fill:none"/><text x="637" y="95" style="stroke-width:0;stroke:none;fill:rgba(51,51,51,1.0);font-size:12.8px;font-family:'Roboto Medium',sans-serif">90</text><path  d="M 627 38
L 632 38" style="stroke-width:1;stroke:rgba(51,51,51,1.0);fill:none"/><text x="637" y="44" style="stroke-width:0;stroke:none;fill:rgba(51,51,51,1.0);font-size:12.8px;font-family:'Roboto Medium',sans-serif">100</text><text x="669" y="258" style="stroke-width:0;stroke:none;fill:rgba(51,51,51,1.0);font-size:12.8px;font-family:'Roboto Medium',sans-serif" transform="rotate(90.00,669,258)">Benchmarks</text><path  d="M 9 551
L 626 551" style="stroke-width:0;stroke:none;fill:none"/><path  d="M 9 499
L 626 499" style="stroke-width:0;stroke:none;fill:none"/><path  d="M 9 448
L 626 448" style="stroke-width:0;stroke:none;fill:none"/><path  d="M 9 397
L 626 397" style="stroke-width:0;stroke:none;fill:none"/><path  d="M 9 345
L 626 345" style="stroke-width:0;stroke:none;fill:none"/><path  d="M 9 294
L 626 294" style="stroke-width:0;stroke:none;fill:none"/><path  d="M 9 243
L 626 243" style="stroke-width:0;stroke:none;fill:none"/><path  d="M 9 191
L 626 191" style="stroke-width:0;stroke:none;fill:none"/><path  d="M 9 140
L 626 140" style="stroke-width:0;stroke:none;fill:none"/><path  d="M 9 89
L 626 89" style="stroke-width:0;stroke:none;fill:none"/><path  d="M 8 551
L 8 38" style="stroke-width:1;stroke:rgba(51,51,51,1.0);fill:none"/><path  d="M 8 -9223372036854775257
L 3 -9223372036854775257" style="stroke-width:1;stroke:rgba(51,51,51,1.0);fill:none"/><text x="-28" y="-9223372036854775251" style="stroke-width:0;stroke:none;fill:rgba(51,51,51,1.0);font-size:12.8px;font-family:'Roboto Medium',sans-serif">0.00</text><path  d="M 8 -9223372036854775257
L 3 -9223372036854775257" style="stroke-width:1;stroke:rgba(51,51,51,1.0);fill:none"/><text x="-28" y="-9223372036854775251" style="stroke-width:0;stroke:none;fill:rgba(51,51,51,1.0);font-size:12.8px;font-family:'Roboto Medium',sans-serif">0.00</text><path  d="M 8 -9223372036854775257
L 3 -9223372036854775257" style="stroke-width:1;stroke:rgba(51,51,51,1.0);fill:none"/><text x="-28" y="-9223372036854775251" style="stroke-width:0;stroke:none;fill:rgba(51,51,51,1.0);font-size:12.8px;font-family:'Roboto Medium',sans-serif">0.00</text><path  d="M 8 -9223372036854775257
L 3 -9223372036854775257" style="stroke-width:1;stroke:rgba(51,51,51,1.0);fill:none"/><text x="-28" y="-9223372036854775251" style="stroke-width:0;stroke:none;fill:rgba(51,51,51,1.0);font-size:12.8px;font-family:'Roboto Medium',sans-serif">0.00</text><path  d="M 8 -9223372036854775257
L 3 -9223372036854775257" style="stroke-width:1;stroke:rgba(51,51,51,1.0);fill:none"/><text x="-28" y="-9223372036854775251" style="stroke-width:0;stroke:none;fill:rgba(51,51,51,1.0);font-size:12.8px;font-family:'Roboto Medium',sans-serif">0.00</text><path  d="M 8 -9223372036854775257
L 3 -9223372036854775257" style="stroke-width:1;stroke:rgba(51,51,51,1.0);fill:none"/><text x="-28" y="-9223372036854775251" style="stroke-width:0;stroke:none;fill:rgba(51,51,51,1.0);font-size:12.8px;font-family:'Roboto Medium',sans-serif">0.00</text><path  d="M 8 -9223372036854775257
L 3 -9223372036854775257" style="stroke-width:1;stroke:rgba(51,51,51,1.0);fill:none"/><text x="-28" y="-9223372036854775251" style="stroke-width:0;stroke:none;fill:rgba(51,51,51,1.0);font-size:12.8px;font-family:'Roboto Medium',sans-serif">0.00</text><path  d="M 8 -9223372036854775257
L 3 -9223372036854775257" style="stroke-width:1;stroke:rgba(51,51,51,1.0);fill:none"/><text x="-28" y="-9223372036854775251" style="stroke-width:0;stroke:none;fill:rgba(51,51,51,1.0);font-size:12.8px;font-family:'Roboto Medium',sans-serif">0.00</text><path  d="M 8 -9223372036854775257
L 3 -9223372036854775257" style="stroke-width:1;stroke:rgba(51,51,51,1.0);fill:none"/><text x="-28" y="-9223372036854775251" style="stroke-width:0;stroke:none;fill:rgba(51,51,51,1.0);font-size:12.8px;font-family:'Roboto Medium',sans-serif">0.00</text><path  d="M 8 -9223372036854775257
L 3 -9223372036854775257" style="stroke-width:1;stroke:rgba(51,51,51,1.0);fill:none"/><text x="-28" y="-9223372036854775251" style="stroke-width:0;stroke:none;fill:rgba(51,51,51,1.0);font-size:12.8px;font-family:'Roboto Medium',sans-serif">0.00</text><path  d="M 8 -9223372036854775257
L 3 -9223372036854775257" style="stroke-width:1;stroke:rgba(51,51,51,1.0);fill:none"/><text x="-28" y="-9223372036854775251" style="stroke-width:0;stroke:none;fill:rgba(51,51,51,1.0);font-size:12.8px;font-family:'Roboto Medium',sans-serif">0.00</text><path  d="M 8 -9223372036854775257
L 3 -9223372036854775257" style="stroke-width:1;stroke:rgba(51,51,51,1.0);fill:none"/><text x="-28" y="-9223372036854775251" style="stroke-width:0;stroke:none;fill:rgba(51,51,51,1.0);font-size:12.8px;font-family:'Roboto Medium',sans-serif">0.00</text><path  d="M 8 -9223372036854775257
L 3 -9223372036854775257" style="stroke-width:1;stroke:rgba(51,51,51,1.0);fill:none"/><text x="-28" y="-9223372036854775251" style="stroke-width:0;stroke:none;fill:rgba(51,51,51,1.0);font-size:12.8px;font-family:'Roboto Medium',sans-serif">0.00</text><path  d="M 8 -9223372036854775257
L 3 -9223372036854775257" style="stroke-width:1;stroke:rgba(51,51,51,1.0);fill:none"/><text x="-28" y="-9223372036854775251" style="stroke-width:0;stroke:none;fill:rgba(51,51,51,1.0);font-size:12.8px;font-family:'Roboto Medium',sans-serif">0.00</text><path  d="M 8 -9223372036854775257
L 3 -9223372036854775257" style="stroke-width:1;stroke:rgba(51,51,51,1.0);fill:none"/><text x="-28" y="-9223372036854775251" style="stroke-width:0;stroke:none;fill:rgba(51,51,51,1.0);font-size:12.8px;font-family:'Roboto Medium',sans-serif">0.00</text><path  d="M 9 -9223372036854775257
L 626 -9223372036854775257" style="stroke-width:0;stroke:none;fill:none"/><path  d="M 9 -9223372036854775257
L 626 -9223372036854775257" style="stroke-width:0;stroke:none;fill:none"/><path  d="M 9 -9223372036854775257
L 626 -9223372036854775257" style="stroke-width:0;stroke:none;fill:none"/><path  d="M 9 -9223372036854775257
L 626 -9223372036854775257" style="stroke-width:0;stroke:none;fill:none"/><path  d="M 9 -9223372036854775257
L 626 -9223372036854775257" style="stroke-width:0;stroke:none;fill:none"/><path  d="M 9 -9223372036854775257
L 626 -9223372036854775257" style="stroke-width:0;stroke:none;fill:none"/><path  d="M 9 -9223372036854775257
L 626 -9223372036854775257" style="stroke-width:0;stroke:none;fill:none"/><path  d="M 9 -9223372036854775257
L 626 -9223372036854775257" style="stroke-width:0;stroke:none;fill:none"/><path  d="M 9 -9223372036854775257
L 626 -9223372036854775257" style="stroke-width:0;stroke:none;fill:none"/><path  d="M 9 -9223372036854775257
L 626 -9223372036854775257" style="stroke-width:0;stroke:none;fill:none"/><path  d="M 9 -9223372036854775257
L 626 -9223372036854775257" style="stroke-width:0;stroke:none;fill:none"/><path  d="M 9 -9223372036854775257
L 626 -9223372036854775257" style="stroke-width:0;stroke:none;fill:none"/><path  d="M 9 -9223372036854775257
L 626 -9223372036854775257" style="stroke-width:0;stroke:none;fill:none"/><path  d="M 9 -9223372036854775257
L 626 -9223372036854775257" style="stroke-width:0;stroke:none;fill:none"/><path  d="M 164 38
L 164 422
L 626 422" style="stroke-width:1;stroke:rgba(255,0,127,0.2);fill:none"/><path  d="M 318 38
L 318 294
L 626 294" style="stroke-width:1;stroke:rgba(255,0,127,0.2);fill:none"/><path  d="M 472 38
L 472 166
L 626 166" style="stroke-width:1;stroke:rgba(255,0,127,0.2);fill:none"/><path  d="M 534 422
L 544 411
L 574 411
L 574 433
L 544 433
L 534 422
Z" style="stroke-width:1;stroke:rgba(255,0,127,0.2);fill:rgba(255,255,255,1.0)"/><text x="549" y="428" style="stroke-width:0;stroke:none;fill:rgba(51,51,51,1.0);font-size:12.8px;font-family:'Roboto Medium',sans-serif">3/4</text><path  d="M 534 294
L 544 283
L 578 283
L 578 305
L 544 305
L 534 294
Z" style="stroke-width:1;stroke:rgba(255,0,127,0.2);fill:rgba(255,255,255,1.0)"/><text x="549" y="300" style="stroke-width:0;stroke:none;fill:rgba(51,51,51,1.0);font-size:12.8px;font-family:'Roboto Medium',sans-serif">Half</text><path  d="M 534 166
L 544 155
L 597 155
L 597 177
L 544 177
L 534 166
Z" style="stroke-width:1;stroke:rgba(255,0,127,0.2);fill:rgba(255,255,255,1.0)"/><text x="549" y="172" style="stroke-width:0;stroke:none;fill:rgba(51,51,51,1.0);font-size:12.8px;font-family:'Roboto Medium',sans-serif">Quarter</text><circle cx="617" cy="63" r="5" style="stroke-width:1;stroke:rgba(8,245,0,1.0);fill:rgba(8,245,0,1.0)"/><path  d="" style="stroke-width:1;stroke:rgba(8,245,0,1.0);fill:rgba(8,245,0,1.0)"/><circle cx="617" cy="79" r="5" style="stroke-width:1;stroke:rgba(12,240,0,1.0);fill:rgba(12,240,0,1.0)"/><path  d="" style="stroke-width:1;stroke:rgba(12,240,0,1.0);fill:rgba(12,240,0,1.0)"/><circle cx="617" cy="122" r="5" style="stroke-width:1;stroke:rgba(22,225,0,1.0);fill:rgba(22,225,0,1.0)"/><path  d="" style="stroke-width:1;stroke:rgba(22,225,0,1.0);fill:rgba(22,225,0,1.0)"/><circle cx="383" cy="287" r="5" style="stroke-width:1;stroke:rgba(111,142,0,1.0);fill:rgba(111,142,0,1.0)"/><path  d="" style="stroke-width:1;stroke:rgba(111,142,0,1.0);fill:rgba(111,142,0,1.0)"/><circle cx="402" cy="281" r="5" style="stroke-width:1;stroke:rgba(106,147,0,1.0);fill:rgba(106,147,0,1.0)"/><path  d="" style="stroke-width:1;stroke:rgba(106,147,0,1.0);fill:rgba(106,147,0,1.0)"/><circle cx="617" cy="56" r="5" style="stroke-width:1;stroke:rgba(6,247,0,1.0);fill:rgba(6,247,0,1.0)"/><path  d="" style="stroke-width:1;stroke:rgba(6,247,0,1.0);fill:rgba(6,247,0,1.0)"/><circle cx="464" cy="46" r="5" style="stroke-width:1;stroke:rgba(33,207,0,1.0);fill:rgba(33,207,0,1.0)"/><path  d="" style="stroke-width:1;stroke:rgba(33,207,0,1.0);fill:rgba(33,207,0,1.0)"/><circle cx="387" cy="95" r="5" style="stroke-width:1;stroke:rgba(60,182,0,1.0);fill:rgba(60,182,0,1.0)"/><path  d="" style="stroke-width:1;stroke:rgba(60,182,0,1.0);fill:rgba(60,182,0,1.0)"/><circle cx="301" cy="44" r="5" style="stroke-width:1;stroke:rgba(57,159,0,1.0);fill:rgba(57,159,0,1.0)"/><path  d="" style="stroke-width:1;stroke:rgba(57,159,0,1.0);fill:rgba(57,159,0,1.0)"/><circle cx="617" cy="38" r="5" style="stroke-width:1;stroke:rgba(1,252,0,1.0);fill:rgba(1,252,0,1.0)"/><path  d="" style="stroke-width:1;stroke:rgba(1,252,0,1.0);fill:rgba(1,252,0,1.0)"/><circle cx="459" cy="508" r="5" style="stroke-width:1;stroke:rgba(122,82,0,1.0);fill:rgba(122,82,0,1.0)"/><path  d="" style="stroke-width:1;stroke:rgba(122,82,0,1.0);fill:rgba(122,82,0,1.0)"/><path  d="M 617 71
L 627 60
L 720 60
L 720 82
L 627 82
L 617 71
Z" style="stroke-width:1;stroke:rgba(63,127,255,1.0);fill:rgba(255,255,255,1.0)"/><text x="632" y="77" style="stroke-width:0;stroke:none;fill:rgba(51,51,51,1.0);font-size:12.8px;font-family:'Roboto Medium',sans-serif">madkins/flash</text><path  d="M 617 102
L 627 91
L 733 91
L 733 113
L 627 113
L 617 102
Z" style="stroke-width:1;stroke:rgba(63,127,255,1.0);fill:rgba(255,255,255,1.0)"/><text x="632" y="108" style="stroke-width:0;stroke:none;fill:rgba(51,51,51,1.0);font-size:12.8px;font-family:'Roboto Medium',sans-serif">madkins/replattr</text><path  d="M 617 122
L 627 111
L 729 111
L 729 133
L 627 133
L 617 122
Z" style="stroke-width:1;stroke:rgba(63,127,255,1.0);fill:rgba(255,255,255,1.0)"/><text x="632" y="128" style="stroke-width:0;stroke:none;fill:rgba(51,51,51,1.0);font-size:12.8px;font-family:'Roboto Medium',sans-serif">madkins/sloggy</text><path  d="M 383 295
L 393 284
L 501 284
L 501 306
L 393 306
L 383 295
Z" style="stroke-width:1;stroke:rgba(63,127,255,1.0);fill:rgba(255,255,255,1.0)"/><text x="398" y="301" style="stroke-width:0;stroke:none;fill:rgba(51,51,51,1.0);font-size:12.8px;font-family:'Roboto Medium',sans-serif">samber/slog-zap</text><path  d="M 402 272
L 412 261
L 542 261
L 542 283
L 412 283
L 402 272
Z" style="stroke-width:1;stroke:rgba(63,127,255,1.0);fill:rgba(255,255,255,1.0)"/><text x="417" y="278" style="stroke-width:0;stroke:none;fill:rgba(51,51,51,1.0);font-size:12.8px;font-family:'Roboto Medium',sans-serif">samber/slog-zerolog</text><path  d="M 617 48
L 627 37
L 745 37
L 745 59
L 627 59
L 617 48
Z" style="stroke-width:1;stroke:rgba(63,127,255,1.0);fill:rgba(255,255,255,1.0)"/><text x="632" y="54" style="stroke-width:0;stroke:none;fill:rgba(51,51,51,1.0);font-size:12.8px;font-family:'Roboto Medium',sans-serif">slog/JSONHandler</text><path  d="M 464 46
L 474 35
L 588 35
L 588 57
L 474 57
L 464 46
Z" style="stroke-width:1;stroke:rgba(63,127,255,1.0);fill:rgba(255,255,255,1.0)"/><text x="479" y="52" style="stroke-width:0;stroke:none;fill:rgba(51,51,51,1.0);font-size:12.8px;font-family:'Roboto Medium',sans-serif">svcrunner/jsonlog</text><path  d="M 387 95
L 397 84
L 528 84
L 528 106
L 397 106
L 387 95
Z" style="stroke-width:1;stroke:rgba(63,127,255,1.0);fill:rgba(255,255,255,1.0)"/><text x="402" y="101" style="stroke-width:0;stroke:none;fill:rgba(51,51,51,1.0);font-size:12.8px;font-family:'Roboto Medium',sans-serif">chanchal/zaphandler</text><path  d="M 301 44
L 311 33
L 414 33
L 414 55
L 311 55
L 301 44
Z" style="stroke-width:1;stroke:rgba(63,127,255,1.0);fill:rgba(255,255,255,1.0)"/><text x="316" y="50" style="stroke-width:0;stroke:none;fill:rgba(51,51,51,1.0);font-size:12.8px;font-family:'Roboto Medium',sans-serif">phsym/zeroslog</text><path  d="M 617 17
L 627 6
L 705 6
L 705 28
L 627 28
L 617 17
Z" style="stroke-width:1;stroke:rgba(63,127,255,1.0);fill:rgba(255,255,255,1.0)"/><text x="632" y="23" style="stroke-width:0;stroke:none;fill:rgba(51,51,51,1.0);font-size:12.8px;font-family:'Roboto Medium',sans-serif">phuslu/slog</text><path  d="M 459 508
L 469 497
L 592 497
L 592 519
L 469 519
L 459 508
Z" style="stroke-width:1;stroke:rgba(63,127,255,1.0);fill:rgba(255,255,255,1.0)"/><text x="474" y="514" style="stroke-width:0;stroke:none;fill:rgba(51,51,51,1.0);font-size:12.8px;font-family:'Roboto Medium',sans-serif">samber/slog-logrus</text></svg>