<svg xmlns="http://www.w3.org/2000/svg" xmlns:xlink="http://www.w3.org/1999/xlink" width="800" height="600">\n<path  d="M 0 0
L 800 0
L 800 600
L 0 600
L 0 0" style="stroke-width:0;stroke:rgba(255,255,255,1.0);fill:rgba(255,255,255,1.0)"/><path  d="M 9 11
L 579 11
L 579 551
L 9 551
L 9 11" style="stroke-width:0;stroke:rgba(255,255,255,1.0);fill:rgba(255,255,255,1.0)"/><path  d="M 9 551
L 579 551" style="stroke-width:1;stroke:rgba(51,51,51,1.0);fill:none"/><path  d="M 9 551
L 9 556" style="stroke-width:1;stroke:rgba(51,51,51,1.0);fill:none"/><text x="5" y="573" style="stroke-width:0;stroke:none;fill:rgba(51,51,51,1.0);font-size:12.8px;font-family:'Roboto Medium',sans-serif">0</text><path  d="M 66 551
L 66 556" style="stroke-width:1;stroke:rgba(51,51,51,1.0);fill:none"/><text x="59" y="573" style="stroke-width:0;stroke:none;fill:rgba(51,51,51,1.0);font-size:12.8px;font-family:'Roboto Medium',sans-serif">10</text><path  d="M 123 551
L 123 556" style="stroke-width:1;stroke:rgba(51,51,51,1.0);fill:none"/><text x="116" y="573" style="stroke-width:0;stroke:none;fill:rgba(51,51,51,1.0);font-size:12.8px;font-family:'Roboto Medium',sans-serif">20</text><path  d="M 180 551
L 180 556" style="stroke-width:1;stroke:rgba(51,51,51,1.0);fill:none"/><text x="173" y="573" style="stroke-width:0;stroke:none;fill:rgba(51,51,51,1.0);font-size:12.8px;font-family:'Roboto Medium',sans-serif">30</text><path  d="M 237 551
L 237 556" style="stroke-width:1;stroke:rgba(51,51,51,1.0);fill:none"/><text x="230" y="573" style="stroke-width:0;stroke:none;fill:rgba(51,51,51,1.0);font-size:12.8px;font-family:'Roboto Medium',sans-serif">40</text><path  d="M 294 551
L 294 556" style="stroke-width:1;stroke:rgba(51,51,51,1.0);fill:none"/><text x="287" y="573" style="stroke-width:0;stroke:none;fill:rgba(51,51,51,1.0);font-size:12.8px;font-family:'Roboto Medium',sans-serif">50</text><path  d="M 351 551
L 351 556" style="stroke-width:1;stroke:rgba(51,51,51,1.0);fill:none"/><text x="344" y="573" style="stroke-width:0;stroke:none;fill:rgba(51,51,51,1.0);font-size:12.8px;font-family:'Roboto Medium',sans-serif">60</text><path  d="M 408 551
L 408 556" style="stroke-width:1;stroke:rgba(51,51,51,1.0);fill:none"/><text x="401" y="573" style="stroke-width:0;stroke:none;fill:rgba(51,51,51,1.0);font-size:12.8px;font-family:'Roboto Medium',sans-serif">70</text><path  d="M 465 551
L 465 556" style="stroke-width:1;stroke:rgba(51,51,51,1.0);fill:none"/><text x="458" y="573" style="stroke-width:0;stroke:none;fill:rgba(51,51,51,1.0);font-size:12.8px;font-family:'Roboto Medium',sans-serif">80</text><path  d="M 522 551
L 522 556" style="stroke-width:1;stroke:rgba(51,51,51,1.0);fill:none"/><text x="515" y="573" style="stroke-width:0;stroke:none;fill:rgba(51,51,51,1.0);font-size:12.8px;font-family:'Roboto Medium',sans-serif">90</text><path  d="M 579 551
L 579 556" style="stroke-width:1;stroke:rgba(51,51,51,1.0);fill:none"/><text x="568" y="573" style="stroke-width:0;stroke:none;fill:rgba(51,51,51,1.0);font-size:12.8px;font-family:'Roboto Medium',sans-serif">100</text><text x="267" y="595" style="stroke-width:0;stroke:none;fill:rgba(51,51,51,1.0);font-size:12.8px;font-family:'Roboto Medium',sans-serif">Warnings</text><path  d="M 66 551
L 66 11" style="stroke-width:0;stroke:none;fill:none"/><path  d="M 123 551
L 123 11" style="stroke-width:0;stroke:none;fill:none"/><path  d="M 180 551
L 180 11" style="stroke-width:0;stroke:none;fill:none"/><path  d="M 237 551
L 237 11" style="stroke-width:0;stroke:none;fill:none"/><path  d="M 294 551
L 294 11" style="stroke-width:0;stroke:none;fill:none"/><path  d="M 351 551
L 351 11" style="stroke-width:0;stroke:none;fill:none"/><path  d="M 408 551
L 408 11" style="stroke-width:0;stroke:none;fill:none"/><path  d="M 465 551
L 465 11" style="stroke-width:0;stroke:none;fill:none"/><path  d="M 522 551
L 522 11" style="stroke-width:0;stroke:none;fill:none"/><path  d="M 580 551
L 580 11" style="stroke-width:1;stroke:rgba(51,51,51,1.0);fill:none"/><path  d="M 580 551
L 585 551" style="stroke-width:1;stroke:rgba(51,51,51,1.0);fill:none"/><text x="590" y="557" style="stroke-width:0;stroke:none;fill:rgba(51,51,51,1.0);font-size:12.8px;font-family:'Roboto Medium',sans-serif">0</text><path  d="M 580 497
L 585 497" style="stroke-width:1;stroke:rgba(51,51,51,1.0);fill:none"/><text x="590" y="503" style="stroke-width:0;stroke:none;fill:rgba(51,51,51,1.0);font-size:12.8px;font-family:'Roboto Medium',sans-serif">10</text><path  d="M 580 443
L 585 443" style="stroke-width:1;stroke:rgba(51,51,51,1.0);fill:none"/><text x="590" y="449" style="stroke-width:0;stroke:none;fill:rgba(51,51,51,1.0);font-size:12.8px;font-family:'Roboto Medium',sans-serif">20</text><path  d="M 580 389
L 585 389" style="stroke-width:1;stroke:rgba(51,51,51,1.0);fill:none"/><text x="590" y="395" style="stroke-width:0;stroke:none;fill:rgba(51,51,51,1.0);font-size:12.8px;font-family:'Roboto Medium',sans-serif">30</text><path  d="M 580 335
L 585 335" style="stroke-width:1;stroke:rgba(51,51,51,1.0);fill:none"/><text x="590" y="341" style="stroke-width:0;stroke:none;fill:rgba(51,51,51,1.0);font-size:12.8px;font-family:'Roboto Medium',sans-serif">40</text><path  d="M 580 281
L 585 281" style="stroke-width:1;stroke:rgba(51,51,51,1.0);fill:none"/><text x="590" y="287" style="stroke-width:0;stroke:none;fill:rgba(51,51,51,1.0);font-size:12.8px;font-family:'Roboto Medium',sans-serif">50</text><path  d="M 580 227
L 585 227" style="stroke-width:1;stroke:rgba(51,51,51,1.0);fill:none"/><text x="590" y="233" style="stroke-width:0;stroke:none;fill:rgba(51,51,51,1.0);font-size:12.8px;font-family:'Roboto Medium',sans-serif">60</text><path  d="M 580 173
L 585 173" style="stroke-width:1;stroke:rgba(51,51,51,1.0);fill:none"/><text x="590" y="179" style="stroke-width:0;stroke:none;fill:rgba(51,51,51,1.0);font-size:12.8px;font-family:'Roboto Medium',sans-serif">70</text><path  d="M 580 119
L 585 119" style="stroke-width:1;stroke:rgba(51,51,51,1.0);fill:none"/><text x="590" y="125" style="stroke-width:0;stroke:none;fill:rgba(51,51,51,1.0);font-size:12.8px;font-family:'Roboto Medium',sans-serif">80</text><path  d="M 580 65
L 585 65" style="stroke-width:1;stroke:rgba(51,51,51,1.0);fill:none"/><text x="590" y="71" style="stroke-width:0;stroke:none;fill:rgba(51,51,51,1.0);font-size:12.8px;font-family:'Roboto Medium',sans-serif">90</text><path  d="M 580 11
L 585 11" style="stroke-width:1;stroke:rgba(51,51,51,1.0);fill:none"/><text x="590" y="17" style="stroke-width:0;stroke:none;fill:rgba(51,51,51,1.0);font-size:12.8px;font-family:'Roboto Medium',sans-serif">100</text><text x="622" y="245" style="stroke-width:0;stroke:none;fill:rgba(51,51,51,1.0);font-size:12.8px;font-family:'Roboto Medium',sans-serif" transform="rotate(90.00,622,245)">Benchmarks</text><path  d="M 9 551
L 579 551" style="stroke-width:0;stroke:none;fill:none"/><path  d="M 9 497
L 579 497" style="stroke-width:0;stroke:none;fill:none"/><path  d="M 9 443
L 579 443" style="stroke-width:0;stroke:none;fill:none"/><path  d="M 9 389
L 579 389" style="stroke-width:0;stroke:none;fill:none"/><path  d="M 9 335
L 579 335" style="stroke-width:0;stroke:none;fill:none"/><path  d="M 9 281
L 579 281" style="stroke-width:0;stroke:none;fill:none"/><path  d="M 9 227
L 579 227" style="stroke-width:0;stroke:none;fill:none"/><path  d="M 9 173
L 579 173" style="stroke-width:0;stroke:none;fill:none"/><path  d="M 9 119
L 579 119" style="stroke-width:0;stroke:none;fill:none"/><path  d="M 9 65
L 579 65" style="stroke-width:0;stroke:none;fill:none"/><path  d="M 8 551
L 8 11" style="stroke-width:1;stroke:rgba(51,51,51,1.0);fill:none"/><path  d="M 8 -9223372036854775257
L 3 -9223372036854775257" style="stroke-width:1;stroke:rgba(51,51,51,1.0);fill:none"/><text x="-28" y="-9223372036854775251" style="stroke-width:0;stroke:none;fill:rgba(51,51,51,1.0);font-size:12.8px;font-family:'Roboto Medium',sans-serif">0.00</text><path  d="M 8 -9223372036854775257
L 3 -9223372036854775257" style="stroke-width:1;stroke:rgba(51,51,51,1.0);fill:none"/><text x="-28" y="-9223372036854775251" style="stroke-width:0;stroke:none;fill:rgba(51,51,51,1.0);font-size:12.8px;font-family:'Roboto Medium',sans-serif">0.00</text><path  d="M 8 -9223372036854775257
L 3 -9223372036854775257" style="stroke-width:1;stroke:rgba(51,51,51,1.0);fill:none"/><text x="-28" y="-9223372036854775251" style="stroke-width:0;stroke:none;fill:rgba(51,51,51,1.0);font-size:12.8px;font-family:'Roboto Medium',sans-serif">0.00</text><path  d="M 8 -9223372036854775257
L 3 -9223372036854775257" style="stroke-width:1;stroke:rgba(51,51,51,1.0);fill:none"/><text x="-28" y="-9223372036854775251" style="stroke-width:0;stroke:none;fill:rgba(51,51,51,1.0);font-size:12.8px;font-family:'Roboto Medium',sans-serif">0.00</text><path  d="M 8 -9223372036854775257
L 3 -9223372036854775257" style="stroke-width:1;stroke:rgba(51,51,51,1.0);fill:none"/><text x="-28" y="-9223372036854775251" style="stroke-width:0;stroke:none;fill:rgba(51,51,51,1.0);font-size:12.8px;font-family:'Roboto Medium',sans-serif">0.00</text><path  d="M 8 -9223372036854775257
L 3 -9223372036854775257" style="stroke-width:1;stroke:rgba(51,51,51,1.0);fill:none"/><text x="-28" y="-9223372036854775251" style="stroke-width:0;stroke:none;fill:rgba(51,51,51,1.0);font-size:12.8px;font-family:'Roboto Medium',sans-serif">0.00</text><path  d="M 8 -9223372036854775257
L 3 -9223372036854775257" style="stroke-width:1;stroke:rgba(51,51,51,1.0);fill:none"/><text x="-28" y="-9223372036854775251" style="stroke-width:0;stroke:none;fill:rgba(51,51,51,1.0);font-size:12.8px;font-family:'Roboto Medium',sans-serif">0.00</text><path  d="M 8 -9223372036854775257
L 3 -9223372036854775257" style="stroke-width:1;stroke:rgba(51,51,51,1.0);fill:none"/><text x="-28" y="-9223372036854775251" style="stroke-width:0;stroke:none;fill:rgba(51,51,51,1.0);font-size:12.8px;font-family:'Roboto Medium',sans-serif">0.00</text><path  d="M 8 -9223372036854775257
L 3 -9223372036854775257" style="stroke-width:1;stroke:rgba(51,51,51,1.0);fill:none"/><text x="-28" y="-9223372036854775251" style="stroke-width:0;stroke:none;fill:rgba(51,51,51,1.0);font-size:12.8px;font-family:'Roboto Medium',sans-serif">0.00</text><path  d="M 8 -9223372036854775257
L 3 -9223372036854775257" style="stroke-width:1;stroke:rgba(51,51,51,1.0);fill:none"/><text x="-28" y="-9223372036854775251" style="stroke-width:0;stroke:none;fill:rgba(51,51,51,1.0);font-size:12.8px;font-family:'Roboto Medium',sans-serif">0.00</text><path  d="M 8 -9223372036854775257
L 3 -9223372036854775257" style="stroke-width:1;stroke:rgba(51,51,51,1.0);fill:none"/><text x="-28" y="-9223372036854775251" style="stroke-width:0;stroke:none;fill:rgba(51,51,51,1.0);font-size:12.8px;font-family:'Roboto Medium',sans-serif">0.00</text><path  d="M 8 -9223372036854775257
L 3 -9223372036854775257" style="stroke-width:1;stroke:rgba(51,51,51,1.0);fill:none"/><text x="-28" y="-9223372036854775251" style="stroke-width:0;stroke:none;fill:rgba(51,51,51,1.0);font-size:12.8px;font-family:'Roboto Medium',sans-serif">0.00</text><path  d="M 8 -9223372036854775257
L 3 -9223372036854775257" style="stroke-width:1;stroke:rgba(51,51,51,1.0);fill:none"/><text x="-28" y="-9223372036854775251" style="stroke-width:0;stroke:none;fill:rgba(51,51,51,1.0);font-size:12.8px;font-family:'Roboto Medium',sans-serif">0.00</text><path  d="M 8 -9223372036854775257
L 3 -9223372036854775257" style="stroke-width:1;stroke:rgba(51,51,51,1.0);fill:none"/><text x="-28" y="-9223372036854775251" style="stroke-width:0;stroke:none;fill:rgba(51,51,51,1.0);font-size:12.8px;font-family:'Roboto Medium',sans-serif">0.00</text><path  d="M 8 -9223372036854775257
L 3 -9223372036854775257" style="stroke-width:1;stroke:rgba(51,51,51,1.0);fill:none"/><text x="-28" y="-9223372036854775251" style="stroke-width:0;stroke:none;fill:rgba(51,51,51,1.0);font-size:12.8px;font-family:'Roboto Medium',sans-serif">0.00</text><path  d="M 9 -9223372036854775257
L 579 -9223372036854775257" style="stroke-width:0;stroke:none;fill:none"/><path  d="M 9 -9223372036854775257
L 579 -9223372036854775257" style="stroke-width:0;stroke:none;fill:none"/><path  d="M 9 -9223372036854775257
L 579 -9223372036854775257" style="stroke-width:0;stroke:none;fill:none"/><path  d="M 9 -9223372036854775257
L 579 -9223372036854775257" style="stroke-width:0;stroke:none;fill:none"/><path  d="M 9 -9223372036854775257
L 579 -9223372036854775257" style="stroke-width:0;stroke:none;fill:none"/><path  d="M 9 -9223372036854775257
L 579 -9223372036854775257" style="stroke-width:0;stroke:none;fill:none"/><path  d="M 9 -9223372036854775257
L 579 -9223372036854775257" style="stroke-width:0;stroke:none;fill:none"/><path  d="M 9 -9223372036854775257
L 579 -9223372036854775257" style="stroke-width:0;stroke:none;fill:none"/><path  d="M 9 -9223372036854775257
L 579 -9223372036854775257" style="stroke-width:0;stroke:none;fill:none"/><path  d="M 9 -9223372036854775257
L 579 -9223372036854775257" style="stroke-width:0;stroke:none;fill:none"/><path  d="M 9 -9223372036854775257
L 579 -9223372036854775257" style="stroke-width:0;stroke:none;fill:none"/><path  d="M 9 -9223372036854775257
L 579 -9223372036854775257" style="stroke-width:0;stroke:none;fill:none"/><path  d="M 9 -9223372036854775257
L 579 -9223372036854775257" style="stroke-width:0;stroke:none;fill:none"/><path  d="M 9 -9223372036854775257
L 579 -9223372036854775257" style="stroke-width:0;stroke:none;fill:none"/><path  d="M 572 11
L 636 106" style="stroke-width:1;stroke:rgba(63,63,63,0.2);fill:none"/><path  d="M 438 16
L 636 135" style="stroke-width:1;stroke:rgba(63,63,63,0.2);fill:none"/><path  d="M 317 18
L 636 165" style="stroke-width:1;stroke:rgba(63,63,63,0.2);fill:none"/><path  d="M 572 26
L 636 195" style="stroke-width:1;stroke:rgba(63,63,63,0.2);fill:none"/><path  d="M 572 34
L 636 224" style="stroke-width:1;stroke:rgba(63,63,63,0.2);fill:none"/><path  d="M 373 59
L 636 254" style="stroke-width:1;stroke:rgba(63,63,63,0.2);fill:none"/><path  d="M 572 100
L 636 284" style="stroke-width:1;stroke:rgba(63,63,63,0.2);fill:none"/><path  d="M 377 257
L 636 313" style="stroke-width:1;stroke:rgba(63,63,63,0.2);fill:none"/><path  d="M 360 261
L 636 343" style="stroke-width:1;stroke:rgba(63,63,63,0.2);fill:none"/><path  d="M 426 503
L 636 373" style="stroke-width:1;stroke:rgba(63,63,63,0.2);fill:none"/><path  d="M 152 11
L 152 416
L 579 416" style="stroke-width:1;stroke:rgba(255,0,127,0.2);fill:none"/><path  d="M 294 11
L 294 281
L 579 281" style="stroke-width:1;stroke:rgba(255,0,127,0.2);fill:none"/><path  d="M 437 11
L 437 146
L 579 146" style="stroke-width:1;stroke:rgba(255,0,127,0.2);fill:none"/><path  d="M 494 416
L 504 405
L 534 405
L 534 427
L 504 427
L 494 416
Z" style="stroke-width:1;stroke:rgba(255,0,127,0.2);fill:rgba(255,255,255,1.0)"/><text x="509" y="422" style="stroke-width:0;stroke:none;fill:rgba(51,51,51,1.0);font-size:12.8px;font-family:'Roboto Medium',sans-serif">3/4</text><path  d="M 494 281
L 504 270
L 538 270
L 538 292
L 504 292
L 494 281
Z" style="stroke-width:1;stroke:rgba(255,0,127,0.2);fill:rgba(255,255,255,1.0)"/><text x="509" y="287" style="stroke-width:0;stroke:none;fill:rgba(51,51,51,1.0);font-size:12.8px;font-family:'Roboto Medium',sans-serif">Half</text><path  d="M 494 146
L 504 135
L 557 135
L 557 157
L 504 157
L 494 146
Z" style="stroke-width:1;stroke:rgba(255,0,127,0.2);fill:rgba(255,255,255,1.0)"/><text x="509" y="152" style="stroke-width:0;stroke:none;fill:rgba(51,51,51,1.0);font-size:12.8px;font-family:'Roboto Medium',sans-serif">Quarter</text><circle cx="572" cy="11" r="5" style="stroke-width:1;stroke:rgba(1,252,0,1.0);fill:rgba(1,252,0,1.0)"/><path  d="" style="stroke-width:1;stroke:rgba(1,252,0,1.0);fill:rgba(1,252,0,1.0)"/><circle cx="438" cy="16" r="5" style="stroke-width:1;stroke:rgba(30,210,0,1.0);fill:rgba(30,210,0,1.0)"/><path  d="" style="stroke-width:1;stroke:rgba(30,210,0,1.0);fill:rgba(30,210,0,1.0)"/><circle cx="317" cy="18" r="5" style="stroke-width:1;stroke:rgba(52,171,0,1.0);fill:rgba(52,171,0,1.0)"/><path  d="" style="stroke-width:1;stroke:rgba(52,171,0,1.0);fill:rgba(52,171,0,1.0)"/><circle cx="572" cy="26" r="5" style="stroke-width:1;stroke:rgba(5,249,0,1.0);fill:rgba(5,249,0,1.0)"/><path  d="" style="stroke-width:1;stroke:rgba(5,249,0,1.0);fill:rgba(5,249,0,1.0)"/><circle cx="572" cy="34" r="5" style="stroke-width:1;stroke:rgba(7,246,0,1.0);fill:rgba(7,246,0,1.0)"/><path  d="" style="stroke-width:1;stroke:rgba(7,246,0,1.0);fill:rgba(7,246,0,1.0)"/><circle cx="373" cy="59" r="5" style="stroke-width:1;stroke:rgba(54,187,0,1.0);fill:rgba(54,187,0,1.0)"/><path  d="" style="stroke-width:1;stroke:rgba(54,187,0,1.0);fill:rgba(54,187,0,1.0)"/><circle cx="572" cy="100" r="5" style="stroke-width:1;stroke:rgba(21,225,0,1.0);fill:rgba(21,225,0,1.0)"/><path  d="" style="stroke-width:1;stroke:rgba(21,225,0,1.0);fill:rgba(21,225,0,1.0)"/><circle cx="377" cy="257" r="5" style="stroke-width:1;stroke:rgba(102,150,0,1.0);fill:rgba(102,150,0,1.0)"/><path  d="" style="stroke-width:1;stroke:rgba(102,150,0,1.0);fill:rgba(102,150,0,1.0)"/><circle cx="360" cy="261" r="5" style="stroke-width:1;stroke:rgba(107,146,0,1.0);fill:rgba(107,146,0,1.0)"/><path  d="" style="stroke-width:1;stroke:rgba(107,146,0,1.0);fill:rgba(107,146,0,1.0)"/><circle cx="426" cy="503" r="5" style="stroke-width:1;stroke:rgba(122,83,0,1.0);fill:rgba(122,83,0,1.0)"/><path  d="" style="stroke-width:1;stroke:rgba(122,83,0,1.0);fill:rgba(122,83,0,1.0)"/><path  d="M 636 106
L 646 95
L 724 95
L 724 117
L 646 117
L 636 106
Z" style="stroke-width:1;stroke:rgba(63,127,255,1.0);fill:rgba(255,255,255,1.0)"/><text x="651" y="112" style="stroke-width:0;stroke:none;fill:rgba(51,51,51,1.0);font-size:12.8px;font-family:'Roboto Medium',sans-serif">phuslu/slog</text><path  d="M 636 135
L 646 124
L 760 124
L 760 146
L 646 146
L 636 135
Z" style="stroke-width:1;stroke:rgba(63,127,255,1.0);fill:rgba(255,255,255,1.0)"/><text x="651" y="141" style="stroke-width:0;stroke:none;fill:rgba(51,51,51,1.0);font-size:12.8px;font-family:'Roboto Medium',sans-serif">svcrunner/jsonlog</text><path  d="M 636 165
L 646 154
L 749 154
L 749 176
L 646 176
L 636 165
Z" style="stroke-width:1;stroke:rgba(63,127,255,1.0);fill:rgba(255,255,255,1.0)"/><text x="651" y="171" style="stroke-width:0;stroke:none;fill:rgba(51,51,51,1.0);font-size:12.8px;font-family:'Roboto Medium',sans-serif">phsym/zeroslog</text><path  d="M 636 195
L 646 184
L 764 184
L 764 206
L 646 206
L 636 195
Z" style="stroke-width:1;stroke:rgba(63,127,255,1.0);fill:rgba(255,255,255,1.0)"/><text x="651" y="201" style="stroke-width:0;stroke:none;fill:rgba(51,51,51,1.0);font-size:12.8px;font-family:'Roboto Medium',sans-serif">slog/JSONHandler</text><path  d="M 636 224
L 646 213
L 739 213
L 739 235
L 646 235
L 636 224
Z" style="stroke-width:1;stroke:rgba(63,127,255,1.0);fill:rgba(255,255,255,1.0)"/><text x="651" y="230" style="stroke-width:0;stroke:none;fill:rgba(51,51,51,1.0);font-size:12.8px;font-family:'Roboto Medium',sans-serif">madkins/flash</text><path  d="M 636 254
L 646 243
L 777 243
L 777 265
L 646 265
L 636 254
Z" style="stroke-width:1;stroke:rgba(63,127,255,1.0);fill:rgba(255,255,255,1.0)"/><text x="651" y="260" style="stroke-width:0;stroke:none;fill:rgba(51,51,51,1.0);font-size:12.8px;font-family:'Roboto Medium',sans-serif">chanchal/zaphandler</text><path  d="M 636 284
L 646 273
L 748 273
L 748 295
L 646 295
L 636 284
Z" style="stroke-width:1;stroke:rgba(63,127,255,1.0);fill:rgba(255,255,255,1.0)"/><text x="651" y="290" style="stroke-width:0;stroke:none;fill:rgba(51,51,51,1.0);font-size:12.8px;font-family:'Roboto Medium',sans-serif">madkins/sloggy</text><path  d="M 636 313
L 646 302
L 776 302
L 776 324
L 646 324
L 636 313
Z" style="stroke-width:1;stroke:rgba(63,127,255,1.0);fill:rgba(255,255,255,1.0)"/><text x="651" y="319" style="stroke-width:0;stroke:none;fill:rgba(51,51,51,1.0);font-size:12.8px;font-family:'Roboto Medium',sans-serif">samber/slog-zerolog</text><path  d="M 636 343
L 646 332
L 754 332
L 754 354
L 646 354
L 636 343
Z" style="stroke-width:1;stroke:rgba(63,127,255,1.0);fill:rgba(255,255,255,1.0)"/><text x="651" y="349" style="stroke-width:0;stroke:none;fill:rgba(51,51,51,1.0);font-size:12.8px;font-family:'Roboto Medium',sans-serif">samber/slog-zap</text><path  d="M 636 373
L 646 362
L 769 362
L 769 384
L 646 384
L 636 373
Z" style="stroke-width:1;stroke:rgba(63,127,255,1.0);fill:rgba(255,255,255,1.0)"/><text x="651" y="379" style="stroke-width:0;stroke:none;fill:rgba(51,51,51,1.0);font-size:12.8px;font-family:'Roboto Medium',sans-serif">samber/slog-logrus</text></svg>