<svg xmlns="http://www.w3.org/2000/svg" xmlns:xlink="http://www.w3.org/1999/xlink" width="800" height="600">\n<path  d="M 0 0
L 800 0
L 800 600
L 0 600
L 0 0" style="stroke-width:0;stroke:rgba(255,255,255,1.0);fill:rgba(255,255,255,1.0)"/><path  d="M 12 11
L 558 11
L 558 551
L 12 551
L 12 11" style="stroke-width:0;stroke:rgba(255,255,255,1.0);fill:rgba(255,255,255,1.0)"/><path  d="M 12 551
L 558 551" style="stroke-width:1;stroke:rgba(51,51,51,1.0);fill:none"/><path  d="M 12 551
L 12 556" style="stroke-width:1;stroke:rgba(51,51,51,1.0);fill:none"/><text x="5" y="573" style="stroke-width:0;stroke:none;fill:rgba(51,51,51,1.0);font-size:12.8px;font-family:'Roboto Medium',sans-serif">50</text><path  d="M 67 551
L 67 556" style="stroke-width:1;stroke:rgba(51,51,51,1.0);fill:none"/><text x="60" y="573" style="stroke-width:0;stroke:none;fill:rgba(51,51,51,1.0);font-size:12.8px;font-family:'Roboto Medium',sans-serif">55</text><path  d="M 122 551
L 122 556" style="stroke-width:1;stroke:rgba(51,51,51,1.0);fill:none"/><text x="115" y="573" style="stroke-width:0;stroke:none;fill:rgba(51,51,51,1.0);font-size:12.8px;font-family:'Roboto Medium',sans-serif">60</text><path  d="M 176 551
L 176 556" style="stroke-width:1;stroke:rgba(51,51,51,1.0);fill:none"/><text x="169" y="573" style="stroke-width:0;stroke:none;fill:rgba(51,51,51,1.0);font-size:12.8px;font-family:'Roboto Medium',sans-serif">65</text><path  d="M 231 551
L 231 556" style="stroke-width:1;stroke:rgba(51,51,51,1.0);fill:none"/><text x="224" y="573" style="stroke-width:0;stroke:none;fill:rgba(51,51,51,1.0);font-size:12.8px;font-family:'Roboto Medium',sans-serif">70</text><path  d="M 285 551
L 285 556" style="stroke-width:1;stroke:rgba(51,51,51,1.0);fill:none"/><text x="278" y="573" style="stroke-width:0;stroke:none;fill:rgba(51,51,51,1.0);font-size:12.8px;font-family:'Roboto Medium',sans-serif">75</text><path  d="M 340 551
L 340 556" style="stroke-width:1;stroke:rgba(51,51,51,1.0);fill:none"/><text x="333" y="573" style="stroke-width:0;stroke:none;fill:rgba(51,51,51,1.0);font-size:12.8px;font-family:'Roboto Medium',sans-serif">80</text><path  d="M 395 551
L 395 556" style="stroke-width:1;stroke:rgba(51,51,51,1.0);fill:none"/><text x="388" y="573" style="stroke-width:0;stroke:none;fill:rgba(51,51,51,1.0);font-size:12.8px;font-family:'Roboto Medium',sans-serif">85</text><path  d="M 449 551
L 449 556" style="stroke-width:1;stroke:rgba(51,51,51,1.0);fill:none"/><text x="442" y="573" style="stroke-width:0;stroke:none;fill:rgba(51,51,51,1.0);font-size:12.8px;font-family:'Roboto Medium',sans-serif">90</text><path  d="M 504 551
L 504 556" style="stroke-width:1;stroke:rgba(51,51,51,1.0);fill:none"/><text x="497" y="573" style="stroke-width:0;stroke:none;fill:rgba(51,51,51,1.0);font-size:12.8px;font-family:'Roboto Medium',sans-serif">95</text><path  d="M 558 551
L 558 556" style="stroke-width:1;stroke:rgba(51,51,51,1.0);fill:none"/><text x="547" y="573" style="stroke-width:0;stroke:none;fill:rgba(51,51,51,1.0);font-size:12.8px;font-family:'Roboto Medium',sans-serif">100</text><text x="258" y="595" style="stroke-width:0;stroke:none;fill:rgba(51,51,51,1.0);font-size:12.8px;font-family:'Roboto Medium',sans-serif">Warnings</text><path  d="M 67 551
L 67 11" style="stroke-width:0;stroke:none;fill:none"/><path  d="M 122 551
L 122 11" style="stroke-width:0;stroke:none;fill:none"/><path  d="M 176 551
L 176 11" style="stroke-width:0;stroke:none;fill:none"/><path  d="M 231 551
L 231 11" style="stroke-width:0;stroke:none;fill:none"/><path  d="M 285 551
L 285 11" style="stroke-width:0;stroke:none;fill:none"/><path  d="M 340 551
L 340 11" style="stroke-width:0;stroke:none;fill:none"/><path  d="M 395 551
L 395 11" style="stroke-width:0;stroke:none;fill:none"/><path  d="M 449 551
L 449 11" style="stroke-width:0;stroke:none;fill:none"/><path  d="M 504 551
L 504 11" style="stroke-width:0;stroke:none;fill:none"/><path  d="M 559 551
L 559 11" style="stroke-width:1;stroke:rgba(51,51,51,1.0);fill:none"/><path  d="M 559 551
L 564 551" style="stroke-width:1;stroke:rgba(51,51,51,1.0);fill:none"/><text x="569" y="557" style="stroke-width:0;stroke:none;fill:rgba(51,51,51,1.0);font-size:12.8px;font-family:'Roboto Medium',sans-serif">50</text><path  d="M 559 497
L 564 497" style="stroke-width:1;stroke:rgba(51,51,51,1.0);fill:none"/><text x="569" y="503" style="stroke-width:0;stroke:none;fill:rgba(51,51,51,1.0);font-size:12.8px;font-family:'Roboto Medium',sans-serif">55</text><path  d="M 559 443
L 564 443" style="stroke-width:1;stroke:rgba(51,51,51,1.0);fill:none"/><text x="569" y="449" style="stroke-width:0;stroke:none;fill:rgba(51,51,51,1.0);font-size:12.8px;font-family:'Roboto Medium',sans-serif">60</text><path  d="M 559 389
L 564 389" style="stroke-width:1;stroke:rgba(51,51,51,1.0);fill:none"/><text x="569" y="395" style="stroke-width:0;stroke:none;fill:rgba(51,51,51,1.0);font-size:12.8px;font-family:'Roboto Medium',sans-serif">65</text><path  d="M 559 335
L 564 335" style="stroke-width:1;stroke:rgba(51,51,51,1.0);fill:none"/><text x="569" y="341" style="stroke-width:0;stroke:none;fill:rgba(51,51,51,1.0);font-size:12.8px;font-family:'Roboto Medium',sans-serif">70</text><path  d="M 559 281
L 564 281" style="stroke-width:1;stroke:rgba(51,51,51,1.0);fill:none"/><text x="569" y="287" style="stroke-width:0;stroke:none;fill:rgba(51,51,51,1.0);font-size:12.8px;font-family:'Roboto Medium',sans-serif">75</text><path  d="M 559 227
L 564 227" style="stroke-width:1;stroke:rgba(51,51,51,1.0);fill:none"/><text x="569" y="233" style="stroke-width:0;stroke:none;fill:rgba(51,51,51,1.0);font-size:12.8px;font-family:'Roboto Medium',sans-serif">80</text><path  d="M 559 173
L 564 173" style="stroke-width:1;stroke:rgba(51,51,51,1.0);fill:none"/><text x="569" y="179" style="stroke-width:0;stroke:none;fill:rgba(51,51,51,1.0);font-size:12.8px;font-family:'Roboto Medium',sans-serif">85</text><path  d="M 559 119
L 564 119" style="stroke-width:1;stroke:rgba(51,51,51,1.0);fill:none"/><text x="569" y="125" style="stroke-width:0;stroke:none;fill:rgba(51,51,51,1.0);font-size:12.8px;font-family:'Roboto Medium',sans-serif">90</text><path  d="M 559 65
L 564 65" style="stroke-width:1;stroke:rgba(51,51,51,1.0);fill:none"/><text x="569" y="71" style="stroke-width:0;stroke:none;fill:rgba(51,51,51,1.0);font-size:12.8px;font-family:'Roboto Medium',sans-serif">95</text><path  d="M 559 11
L 564 11" style="stroke-width:1;stroke:rgba(51,51,51,1.0);fill:none"/><text x="569" y="17" style="stroke-width:0;stroke:none;fill:rgba(51,51,51,1.0);font-size:12.8px;font-family:'Roboto Medium',sans-serif">100</text><text x="601" y="245" style="stroke-width:0;stroke:none;fill:rgba(51,51,51,1.0);font-size:12.8px;font-family:'Roboto Medium',sans-serif" transform="rotate(90.00,601,245)">Benchmarks</text><path  d="M 12 1091
L 558 1091" style="stroke-width:0;stroke:none;fill:none"/><path  d="M 12 497
L 558 497" style="stroke-width:0;stroke:none;fill:none"/><path  d="M 12 443
L 558 443" style="stroke-width:0;stroke:none;fill:none"/><path  d="M 12 389
L 558 389" style="stroke-width:0;stroke:none;fill:none"/><path  d="M 12 335
L 558 335" style="stroke-width:0;stroke:none;fill:none"/><path  d="M 12 281
L 558 281" style="stroke-width:0;stroke:none;fill:none"/><path  d="M 12 227
L 558 227" style="stroke-width:0;stroke:none;fill:none"/><path  d="M 12 173
L 558 173" style="stroke-width:0;stroke:none;fill:none"/><path  d="M 12 119
L 558 119" style="stroke-width:0;stroke:none;fill:none"/><path  d="M 12 65
L 558 65" style="stroke-width:0;stroke:none;fill:none"/><path  d="M 11 551
L 11 11" style="stroke-width:1;stroke:rgba(51,51,51,1.0);fill:none"/><path  d="M 11 -9223372036854775257
L 6 -9223372036854775257" style="stroke-width:1;stroke:rgba(51,51,51,1.0);fill:none"/><text x="-25" y="-9223372036854775251" style="stroke-width:0;stroke:none;fill:rgba(51,51,51,1.0);font-size:12.8px;font-family:'Roboto Medium',sans-serif">0.00</text><path  d="M 11 -9223372036854775257
L 6 -9223372036854775257" style="stroke-width:1;stroke:rgba(51,51,51,1.0);fill:none"/><text x="-25" y="-9223372036854775251" style="stroke-width:0;stroke:none;fill:rgba(51,51,51,1.0);font-size:12.8px;font-family:'Roboto Medium',sans-serif">0.00</text><path  d="M 11 -9223372036854775257
L 6 -9223372036854775257" style="stroke-width:1;stroke:rgba(51,51,51,1.0);fill:none"/><text x="-25" y="-9223372036854775251" style="stroke-width:0;stroke:none;fill:rgba(51,51,51,1.0);font-size:12.8px;font-family:'Roboto Medium',sans-serif">0.00</text><path  d="M 11 -9223372036854775257
L 6 -9223372036854775257" style="stroke-width:1;stroke:rgba(51,51,51,1.0);fill:none"/><text x="-25" y="-9223372036854775251" style="stroke-width:0;stroke:none;fill:rgba(51,51,51,1.0);font-size:12.8px;font-family:'Roboto Medium',sans-serif">0.00</text><path  d="M 11 -9223372036854775257
L 6 -9223372036854775257" style="stroke-width:1;stroke:rgba(51,51,51,1.0);fill:none"/><text x="-25" y="-9223372036854775251" style="stroke-width:0;stroke:none;fill:rgba(51,51,51,1.0);font-size:12.8px;font-family:'Roboto Medium',sans-serif">0.00</text><path  d="M 11 -9223372036854775257
L 6 -9223372036854775257" style="stroke-width:1;stroke:rgba(51,51,51,1.0);fill:none"/><text x="-25" y="-9223372036854775251" style="stroke-width:0;stroke:none;fill:rgba(51,51,51,1.0);font-size:12.8px;font-family:'Roboto Medium',sans-serif">0.00</text><path  d="M 11 -9223372036854775257
L 6 -9223372036854775257" style="stroke-width:1;stroke:rgba(51,51,51,1.0);fill:none"/><text x="-25" y="-9223372036854775251" style="stroke-width:0;stroke:none;fill:rgba(51,51,51,1.0);font-size:12.8px;font-family:'Roboto Medium',sans-serif">0.00</text><path  d="M 11 -9223372036854775257
L 6 -9223372036854775257" style="stroke-width:1;stroke:rgba(51,51,51,1.0);fill:none"/><text x="-25" y="-9223372036854775251" style="stroke-width:0;stroke:none;fill:rgba(51,51,51,1.0);font-size:12.8px;font-family:'Roboto Medium',sans-serif">0.00</text><path  d="M 11 -9223372036854775257
L 6 -9223372036854775257" style="stroke-width:1;stroke:rgba(51,51,51,1.0);fill:none"/><text x="-25" y="-9223372036854775251" style="stroke-width:0;stroke:none;fill:rgba(51,51,51,1.0);font-size:12.8px;font-family:'Roboto Medium',sans-serif">0.00</text><path  d="M 11 -9223372036854775257
L 6 -9223372036854775257" style="stroke-width:1;stroke:rgba(51,51,51,1.0);fill:none"/><text x="-25" y="-9223372036854775251" style="stroke-width:0;stroke:none;fill:rgba(51,51,51,1.0);font-size:12.8px;font-family:'Roboto Medium',sans-serif">0.00</text><path  d="M 11 -9223372036854775257
L 6 -9223372036854775257" style="stroke-width:1;stroke:rgba(51,51,51,1.0);fill:none"/><text x="-25" y="-9223372036854775251" style="stroke-width:0;stroke:none;fill:rgba(51,51,51,1.0);font-size:12.8px;font-family:'Roboto Medium',sans-serif">0.00</text><path  d="M 11 -9223372036854775257
L 6 -9223372036854775257" style="stroke-width:1;stroke:rgba(51,51,51,1.0);fill:none"/><text x="-25" y="-9223372036854775251" style="stroke-width:0;stroke:none;fill:rgba(51,51,51,1.0);font-size:12.8px;font-family:'Roboto Medium',sans-serif">0.00</text><path  d="M 11 -9223372036854775257
L 6 -9223372036854775257" style="stroke-width:1;stroke:rgba(51,51,51,1.0);fill:none"/><text x="-25" y="-9223372036854775251" style="stroke-width:0;stroke:none;fill:rgba(51,51,51,1.0);font-size:12.8px;font-family:'Roboto Medium',sans-serif">0.00</text><path  d="M 11 -9223372036854775257
L 6 -9223372036854775257" style="stroke-width:1;stroke:rgba(51,51,51,1.0);fill:none"/><text x="-25" y="-9223372036854775251" style="stroke-width:0;stroke:none;fill:rgba(51,51,51,1.0);font-size:12.8px;font-family:'Roboto Medium',sans-serif">0.00</text><path  d="M 11 -9223372036854775257
L 6 -9223372036854775257" style="stroke-width:1;stroke:rgba(51,51,51,1.0);fill:none"/><text x="-25" y="-9223372036854775251" style="stroke-width:0;stroke:none;fill:rgba(51,51,51,1.0);font-size:12.8px;font-family:'Roboto Medium',sans-serif">0.00</text><path  d="M 12 -9223372036854775257
L 558 -9223372036854775257" style="stroke-width:0;stroke:none;fill:none"/><path  d="M 12 -9223372036854775257
L 558 -9223372036854775257" style="stroke-width:0;stroke:none;fill:none"/><path  d="M 12 -9223372036854775257
L 558 -9223372036854775257" style="stroke-width:0;stroke:none;fill:none"/><path  d="M 12 -9223372036854775257
L 558 -9223372036854775257" style="stroke-width:0;stroke:none;fill:none"/><path  d="M 12 -9223372036854775257
L 558 -9223372036854775257" style="stroke-width:0;stroke:none;fill:none"/><path  d="M 12 -9223372036854775257
L 558 -9223372036854775257" style="stroke-width:0;stroke:none;fill:none"/><path  d="M 12 -9223372036854775257
L 558 -9223372036854775257" style="stroke-width:0;stroke:none;fill:none"/><path  d="M 12 -9223372036854775257
L 558 -9223372036854775257" style="stroke-width:0;stroke:none;fill:none"/><path  d="M 12 -9223372036854775257
L 558 -9223372036854775257" style="stroke-width:0;stroke:none;fill:none"/><path  d="M 12 -9223372036854775257
L 558 -9223372036854775257" style="stroke-width:0;stroke:none;fill:none"/><path  d="M 12 -9223372036854775257
L 558 -9223372036854775257" style="stroke-width:0;stroke:none;fill:none"/><path  d="M 12 -9223372036854775257
L 558 -9223372036854775257" style="stroke-width:0;stroke:none;fill:none"/><path  d="M 12 -9223372036854775257
L 558 -9223372036854775257" style="stroke-width:0;stroke:none;fill:none"/><path  d="M 12 -9223372036854775257
L 558 -9223372036854775257" style="stroke-width:0;stroke:none;fill:none"/><path  d="M 544 42
L 613 176" style="stroke-width:1;stroke:rgba(63,63,63,0.2);fill:none"/><path  d="M 558 145
L 613 211" style="stroke-width:1;stroke:rgba(63,63,63,0.2);fill:none"/><path  d="M 510 503
L 613 246" style="stroke-width:1;stroke:rgba(63,63,63,0.2);fill:none"/><path  d="M 558 504
L 613 281" style="stroke-width:1;stroke:rgba(63,63,63,0.2);fill:none"/><path  d="M 510 528
L 613 316" style="stroke-width:1;stroke:rgba(63,63,63,0.2);fill:none"/><path  d="M 510 531
L 613 351" style="stroke-width:1;stroke:rgba(63,63,63,0.2);fill:none"/><path  d="M 285 11
L 285 281
L 558 281" style="stroke-width:1;stroke:rgba(255,0,127,0.2);fill:none"/><path  d="M 482 281
L 492 270
L 545 270
L 545 292
L 492 292
L 482 281
Z" style="stroke-width:1;stroke:rgba(255,0,127,0.2);fill:rgba(255,255,255,1.0)"/><text x="497" y="287" style="stroke-width:0;stroke:none;fill:rgba(51,51,51,1.0);font-size:12.8px;font-family:'Roboto Medium',sans-serif">Quarter</text><circle cx="544" cy="42" r="5" style="stroke-width:1;stroke:rgba(10,243,0,1.0);fill:rgba(10,243,0,1.0)"/><path  d="" style="stroke-width:1;stroke:rgba(10,243,0,1.0);fill:rgba(10,243,0,1.0)"/><circle cx="558" cy="145" r="5" style="stroke-width:1;stroke:rgba(29,209,0,1.0);fill:rgba(29,209,0,1.0)"/><path  d="" style="stroke-width:1;stroke:rgba(29,209,0,1.0);fill:rgba(29,209,0,1.0)"/><circle cx="510" cy="503" r="5" style="stroke-width:1;stroke:rgba(89,89,0,1.0);fill:rgba(89,89,0,1.0)"/><path  d="" style="stroke-width:1;stroke:rgba(89,89,0,1.0);fill:rgba(89,89,0,1.0)"/><circle cx="558" cy="504" r="5" style="stroke-width:1;stroke:rgba(74,90,0,1.0);fill:rgba(74,90,0,1.0)"/><path  d="" style="stroke-width:1;stroke:rgba(74,90,0,1.0);fill:rgba(74,90,0,1.0)"/><circle cx="510" cy="528" r="5" style="stroke-width:1;stroke:rgba(90,81,0,1.0);fill:rgba(90,81,0,1.0)"/><path  d="" style="stroke-width:1;stroke:rgba(90,81,0,1.0);fill:rgba(90,81,0,1.0)"/><circle cx="510" cy="531" r="5" style="stroke-width:1;stroke:rgba(90,80,0,1.0);fill:rgba(90,80,0,1.0)"/><path  d="" style="stroke-width:1;stroke:rgba(90,80,0,1.0);fill:rgba(90,80,0,1.0)"/><path  d="M 613 176
L 623 165
L 741 165
L 741 187
L 623 187
L 613 176
Z" style="stroke-width:1;stroke:rgba(63,127,255,1.0);fill:rgba(255,255,255,1.0)"/><text x="628" y="182" style="stroke-width:0;stroke:none;fill:rgba(51,51,51,1.0);font-size:12.8px;font-family:'Roboto Medium',sans-serif">slog/JSONHandler</text><path  d="M 613 211
L 623 200
L 695 200
L 695 222
L 623 222
L 613 211
Z" style="stroke-width:1;stroke:rgba(63,127,255,1.0);fill:rgba(255,255,255,1.0)"/><text x="628" y="217" style="stroke-width:0;stroke:none;fill:rgba(51,51,51,1.0);font-size:12.8px;font-family:'Roboto Medium',sans-serif">snqk/meld</text><path  d="M 613 246
L 623 235
L 754 235
L 754 257
L 623 257
L 613 246
Z" style="stroke-width:1;stroke:rgba(63,127,255,1.0);fill:rgba(255,255,255,1.0)"/><text x="628" y="252" style="stroke-width:0;stroke:none;fill:rgba(51,51,51,1.0);font-size:12.8px;font-family:'Roboto Medium',sans-serif">veqryn/dedup/Ignore</text><path  d="M 613 281
L 623 270
L 772 270
L 772 292
L 623 292
L 613 281
Z" style="stroke-width:1;stroke:rgba(63,127,255,1.0);fill:rgba(255,255,255,1.0)"/><text x="628" y="287" style="stroke-width:0;stroke:none;fill:rgba(51,51,51,1.0);font-size:12.8px;font-family:'Roboto Medium',sans-serif">veqryn/dedup/Overwrite</text><path  d="M 613 316
L 623 305
L 776 305
L 776 327
L 623 327
L 613 316
Z" style="stroke-width:1;stroke:rgba(63,127,255,1.0);fill:rgba(255,255,255,1.0)"/><text x="628" y="322" style="stroke-width:0;stroke:none;fill:rgba(51,51,51,1.0);font-size:12.8px;font-family:'Roboto Medium',sans-serif">veqryn/dedup/Increment</text><path  d="M 613 351
L 623 340
L 762 340
L 762 362
L 623 362
L 613 351
Z" style="stroke-width:1;stroke:rgba(63,127,255,1.0);fill:rgba(255,255,255,1.0)"/><text x="628" y="357" style="stroke-width:0;stroke:none;fill:rgba(51,51,51,1.0);font-size:12.8px;font-family:'Roboto Medium',sans-serif">veqryn/dedup/Append</text></svg>