<svg xmlns="http://www.w3.org/2000/svg" xmlns:xlink="http://www.w3.org/1999/xlink" width="750" height="600">\n<path  d="M 0 0
L 750 0
L 750 600
L 0 600
L 0 0" style="stroke-width:0;stroke:rgba(255,255,255,1.0);fill:rgba(255,255,255,1.0)"/><path  d="M 12 26
L 630 26
L 630 551
L 12 551
L 12 26" style="stroke-width:0;stroke:rgba(255,255,255,1.0);fill:rgba(255,255,255,1.0)"/><path  d="M 12 551
L 630 551" style="stroke-width:1;stroke:rgba(51,51,51,1.0);fill:none"/><path  d="M 12 551
L 12 556" style="stroke-width:1;stroke:rgba(51,51,51,1.0);fill:none"/><text x="5" y="573" style="stroke-width:0;stroke:none;fill:rgba(51,51,51,1.0);font-size:12.8px;font-family:'Roboto Medium',sans-serif">25</text><path  d="M 54 551
L 54 556" style="stroke-width:1;stroke:rgba(51,51,51,1.0);fill:none"/><text x="47" y="573" style="stroke-width:0;stroke:none;fill:rgba(51,51,51,1.0);font-size:12.8px;font-family:'Roboto Medium',sans-serif">30</text><path  d="M 136 551
L 136 556" style="stroke-width:1;stroke:rgba(51,51,51,1.0);fill:none"/><text x="129" y="573" style="stroke-width:0;stroke:none;fill:rgba(51,51,51,1.0);font-size:12.8px;font-family:'Roboto Medium',sans-serif">40</text><path  d="M 218 551
L 218 556" style="stroke-width:1;stroke:rgba(51,51,51,1.0);fill:none"/><text x="211" y="573" style="stroke-width:0;stroke:none;fill:rgba(51,51,51,1.0);font-size:12.8px;font-family:'Roboto Medium',sans-serif">50</text><path  d="M 301 551
L 301 556" style="stroke-width:1;stroke:rgba(51,51,51,1.0);fill:none"/><text x="294" y="573" style="stroke-width:0;stroke:none;fill:rgba(51,51,51,1.0);font-size:12.8px;font-family:'Roboto Medium',sans-serif">60</text><path  d="M 383 551
L 383 556" style="stroke-width:1;stroke:rgba(51,51,51,1.0);fill:none"/><text x="376" y="573" style="stroke-width:0;stroke:none;fill:rgba(51,51,51,1.0);font-size:12.8px;font-family:'Roboto Medium',sans-serif">70</text><path  d="M 466 551
L 466 556" style="stroke-width:1;stroke:rgba(51,51,51,1.0);fill:none"/><text x="459" y="573" style="stroke-width:0;stroke:none;fill:rgba(51,51,51,1.0);font-size:12.8px;font-family:'Roboto Medium',sans-serif">80</text><path  d="M 548 551
L 548 556" style="stroke-width:1;stroke:rgba(51,51,51,1.0);fill:none"/><text x="541" y="573" style="stroke-width:0;stroke:none;fill:rgba(51,51,51,1.0);font-size:12.8px;font-family:'Roboto Medium',sans-serif">90</text><path  d="M 630 551
L 630 556" style="stroke-width:1;stroke:rgba(51,51,51,1.0);fill:none"/><text x="619" y="573" style="stroke-width:0;stroke:none;fill:rgba(51,51,51,1.0);font-size:12.8px;font-family:'Roboto Medium',sans-serif">100</text><text x="294" y="595" style="stroke-width:0;stroke:none;fill:rgba(51,51,51,1.0);font-size:12.8px;font-family:'Roboto Medium',sans-serif">Warnings</text><path  d="M 54 551
L 54 26" style="stroke-width:0;stroke:none;fill:none"/><path  d="M 136 551
L 136 26" style="stroke-width:0;stroke:none;fill:none"/><path  d="M 218 551
L 218 26" style="stroke-width:0;stroke:none;fill:none"/><path  d="M 301 551
L 301 26" style="stroke-width:0;stroke:none;fill:none"/><path  d="M 383 551
L 383 26" style="stroke-width:0;stroke:none;fill:none"/><path  d="M 466 551
L 466 26" style="stroke-width:0;stroke:none;fill:none"/><path  d="M 548 551
L 548 26" style="stroke-width:0;stroke:none;fill:none"/><path  d="M 631 551
L 631 26" style="stroke-width:1;stroke:rgba(51,51,51,1.0);fill:none"/><path  d="M 631 551
L 636 551" style="stroke-width:1;stroke:rgba(51,51,51,1.0);fill:none"/><text x="641" y="557" style="stroke-width:0;stroke:none;fill:rgba(51,51,51,1.0);font-size:12.8px;font-family:'Roboto Medium',sans-serif">25</text><path  d="M 631 516
L 636 516" style="stroke-width:1;stroke:rgba(51,51,51,1.0);fill:none"/><text x="641" y="522" style="stroke-width:0;stroke:none;fill:rgba(51,51,51,1.0);font-size:12.8px;font-family:'Roboto Medium',sans-serif">30</text><path  d="M 631 446
L 636 446" style="stroke-width:1;stroke:rgba(51,51,51,1.0);fill:none"/><text x="641" y="452" style="stroke-width:0;stroke:none;fill:rgba(51,51,51,1.0);font-size:12.8px;font-family:'Roboto Medium',sans-serif">40</text><path  d="M 631 376
L 636 376" style="stroke-width:1;stroke:rgba(51,51,51,1.0);fill:none"/><text x="641" y="382" style="stroke-width:0;stroke:none;fill:rgba(51,51,51,1.0);font-size:12.8px;font-family:'Roboto Medium',sans-serif">50</text><path  d="M 631 306
L 636 306" style="stroke-width:1;stroke:rgba(51,51,51,1.0);fill:none"/><text x="641" y="312" style="stroke-width:0;stroke:none;fill:rgba(51,51,51,1.0);font-size:12.8px;font-family:'Roboto Medium',sans-serif">60</text><path  d="M 631 236
L 636 236" style="stroke-width:1;stroke:rgba(51,51,51,1.0);fill:none"/><text x="641" y="242" style="stroke-width:0;stroke:none;fill:rgba(51,51,51,1.0);font-size:12.8px;font-family:'Roboto Medium',sans-serif">70</text><path  d="M 631 166
L 636 166" style="stroke-width:1;stroke:rgba(51,51,51,1.0);fill:none"/><text x="641" y="172" style="stroke-width:0;stroke:none;fill:rgba(51,51,51,1.0);font-size:12.8px;font-family:'Roboto Medium',sans-serif">80</text><path  d="M 631 96
L 636 96" style="stroke-width:1;stroke:rgba(51,51,51,1.0);fill:none"/><text x="641" y="102" style="stroke-width:0;stroke:none;fill:rgba(51,51,51,1.0);font-size:12.8px;font-family:'Roboto Medium',sans-serif">90</text><path  d="M 631 26
L 636 26" style="stroke-width:1;stroke:rgba(51,51,51,1.0);fill:none"/><text x="641" y="32" style="stroke-width:0;stroke:none;fill:rgba(51,51,51,1.0);font-size:12.8px;font-family:'Roboto Medium',sans-serif">100</text><text x="673" y="252" style="stroke-width:0;stroke:none;fill:rgba(51,51,51,1.0);font-size:12.8px;font-family:'Roboto Medium',sans-serif" transform="rotate(90.00,673,252)">Benchmarks</text><path  d="M 12 726
L 630 726" style="stroke-width:0;stroke:none;fill:none"/><path  d="M 12 516
L 630 516" style="stroke-width:0;stroke:none;fill:none"/><path  d="M 12 446
L 630 446" style="stroke-width:0;stroke:none;fill:none"/><path  d="M 12 376
L 630 376" style="stroke-width:0;stroke:none;fill:none"/><path  d="M 12 306
L 630 306" style="stroke-width:0;stroke:none;fill:none"/><path  d="M 12 236
L 630 236" style="stroke-width:0;stroke:none;fill:none"/><path  d="M 12 166
L 630 166" style="stroke-width:0;stroke:none;fill:none"/><path  d="M 12 96
L 630 96" style="stroke-width:0;stroke:none;fill:none"/><path  d="M 11 551
L 11 26" style="stroke-width:1;stroke:rgba(51,51,51,1.0);fill:none"/><path  d="M 11 -9223372036854775257
L 6 -9223372036854775257" style="stroke-width:1;stroke:rgba(51,51,51,1.0);fill:none"/><text x="-25" y="-9223372036854775251" style="stroke-width:0;stroke:none;fill:rgba(51,51,51,1.0);font-size:12.8px;font-family:'Roboto Medium',sans-serif">0.00</text><path  d="M 11 -9223372036854775257
L 6 -9223372036854775257" style="stroke-width:1;stroke:rgba(51,51,51,1.0);fill:none"/><text x="-25" y="-9223372036854775251" style="stroke-width:0;stroke:none;fill:rgba(51,51,51,1.0);font-size:12.8px;font-family:'Roboto Medium',sans-serif">0.00</text><path  d="M 11 -9223372036854775257
L 6 -9223372036854775257" style="stroke-width:1;stroke:rgba(51,51,51,1.0);fill:none"/><text x="-25" y="-9223372036854775251" style="stroke-width:0;stroke:none;fill:rgba(51,51,51,1.0);font-size:12.8px;font-family:'Roboto Medium',sans-serif">0.00</text><path  d="M 11 -9223372036854775257
L 6 -9223372036854775257" style="stroke-width:1;stroke:rgba(51,51,51,1.0);fill:none"/><text x="-25" y="-9223372036854775251" style="stroke-width:0;stroke:none;fill:rgba(51,51,51,1.0);font-size:12.8px;font-family:'Roboto Medium',sans-serif">0.00</text><path  d="M 11 -9223372036854775257
L 6 -9223372036854775257" style="stroke-width:1;stroke:rgba(51,51,51,1.0);fill:none"/><text x="-25" y="-9223372036854775251" style="stroke-width:0;stroke:none;fill:rgba(51,51,51,1.0);font-size:12.8px;font-family:'Roboto Medium',sans-serif">0.00</text><path  d="M 11 -9223372036854775257
L 6 -9223372036854775257" style="stroke-width:1;stroke:rgba(51,51,51,1.0);fill:none"/><text x="-25" y="-9223372036854775251" style="stroke-width:0;stroke:none;fill:rgba(51,51,51,1.0);font-size:12.8px;font-family:'Roboto Medium',sans-serif">0.00</text><path  d="M 11 -9223372036854775257
L 6 -9223372036854775257" style="stroke-width:1;stroke:rgba(51,51,51,1.0);fill:none"/><text x="-25" y="-9223372036854775251" style="stroke-width:0;stroke:none;fill:rgba(51,51,51,1.0);font-size:12.8px;font-family:'Roboto Medium',sans-serif">0.00</text><path  d="M 11 -9223372036854775257
L 6 -9223372036854775257" style="stroke-width:1;stroke:rgba(51,51,51,1.0);fill:none"/><text x="-25" y="-9223372036854775251" style="stroke-width:0;stroke:none;fill:rgba(51,51,51,1.0);font-size:12.8px;font-family:'Roboto Medium',sans-serif">0.00</text><path  d="M 11 -9223372036854775257
L 6 -9223372036854775257" style="stroke-width:1;stroke:rgba(51,51,51,1.0);fill:none"/><text x="-25" y="-9223372036854775251" style="stroke-width:0;stroke:none;fill:rgba(51,51,51,1.0);font-size:12.8px;font-family:'Roboto Medium',sans-serif">0.00</text><path  d="M 11 -9223372036854775257
L 6 -9223372036854775257" style="stroke-width:1;stroke:rgba(51,51,51,1.0);fill:none"/><text x="-25" y="-9223372036854775251" style="stroke-width:0;stroke:none;fill:rgba(51,51,51,1.0);font-size:12.8px;font-family:'Roboto Medium',sans-serif">0.00</text><path  d="M 11 -9223372036854775257
L 6 -9223372036854775257" style="stroke-width:1;stroke:rgba(51,51,51,1.0);fill:none"/><text x="-25" y="-9223372036854775251" style="stroke-width:0;stroke:none;fill:rgba(51,51,51,1.0);font-size:12.8px;font-family:'Roboto Medium',sans-serif">0.00</text><path  d="M 11 -9223372036854775257
L 6 -9223372036854775257" style="stroke-width:1;stroke:rgba(51,51,51,1.0);fill:none"/><text x="-25" y="-9223372036854775251" style="stroke-width:0;stroke:none;fill:rgba(51,51,51,1.0);font-size:12.8px;font-family:'Roboto Medium',sans-serif">0.00</text><path  d="M 11 -9223372036854775257
L 6 -9223372036854775257" style="stroke-width:1;stroke:rgba(51,51,51,1.0);fill:none"/><text x="-25" y="-9223372036854775251" style="stroke-width:0;stroke:none;fill:rgba(51,51,51,1.0);font-size:12.8px;font-family:'Roboto Medium',sans-serif">0.00</text><path  d="M 11 -9223372036854775257
L 6 -9223372036854775257" style="stroke-width:1;stroke:rgba(51,51,51,1.0);fill:none"/><text x="-25" y="-9223372036854775251" style="stroke-width:0;stroke:none;fill:rgba(51,51,51,1.0);font-size:12.8px;font-family:'Roboto Medium',sans-serif">0.00</text><path  d="M 11 -9223372036854775257
L 6 -9223372036854775257" style="stroke-width:1;stroke:rgba(51,51,51,1.0);fill:none"/><text x="-25" y="-9223372036854775251" style="stroke-width:0;stroke:none;fill:rgba(51,51,51,1.0);font-size:12.8px;font-family:'Roboto Medium',sans-serif">0.00</text><path  d="M 12 -9223372036854775257
L 630 -9223372036854775257" style="stroke-width:0;stroke:none;fill:none"/><path  d="M 12 -9223372036854775257
L 630 -9223372036854775257" style="stroke-width:0;stroke:none;fill:none"/><path  d="M 12 -9223372036854775257
L 630 -9223372036854775257" style="stroke-width:0;stroke:none;fill:none"/><path  d="M 12 -9223372036854775257
L 630 -9223372036854775257" style="stroke-width:0;stroke:none;fill:none"/><path  d="M 12 -9223372036854775257
L 630 -9223372036854775257" style="stroke-width:0;stroke:none;fill:none"/><path  d="M 12 -9223372036854775257
L 630 -9223372036854775257" style="stroke-width:0;stroke:none;fill:none"/><path  d="M 12 -9223372036854775257
L 630 -9223372036854775257" style="stroke-width:0;stroke:none;fill:none"/><path  d="M 12 -9223372036854775257
L 630 -9223372036854775257" style="stroke-width:0;stroke:none;fill:none"/><path  d="M 12 -9223372036854775257
L 630 -9223372036854775257" style="stroke-width:0;stroke:none;fill:none"/><path  d="M 12 -9223372036854775257
L 630 -9223372036854775257" style="stroke-width:0;stroke:none;fill:none"/><path  d="M 12 -9223372036854775257
L 630 -9223372036854775257" style="stroke-width:0;stroke:none;fill:none"/><path  d="M 12 -9223372036854775257
L 630 -9223372036854775257" style="stroke-width:0;stroke:none;fill:none"/><path  d="M 12 -9223372036854775257
L 630 -9223372036854775257" style="stroke-width:0;stroke:none;fill:none"/><path  d="M 12 -9223372036854775257
L 630 -9223372036854775257" style="stroke-width:0;stroke:none;fill:none"/><path  d="M 218 26
L 218 376
L 630 376" style="stroke-width:1;stroke:rgba(255,0,127,0.2);fill:none"/><path  d="M 424 26
L 424 201
L 630 201" style="stroke-width:1;stroke:rgba(255,0,127,0.2);fill:none"/><path  d="M 548 376
L 558 365
L 592 365
L 592 387
L 558 387
L 548 376
Z" style="stroke-width:1;stroke:rgba(255,0,127,0.2);fill:rgba(255,255,255,1.0)"/><text x="563" y="382" style="stroke-width:0;stroke:none;fill:rgba(51,51,51,1.0);font-size:12.8px;font-family:'Roboto Medium',sans-serif">Half</text><path  d="M 548 201
L 558 190
L 611 190
L 611 212
L 558 212
L 548 201
Z" style="stroke-width:1;stroke:rgba(255,0,127,0.2);fill:rgba(255,255,255,1.0)"/><text x="563" y="207" style="stroke-width:0;stroke:none;fill:rgba(51,51,51,1.0);font-size:12.8px;font-family:'Roboto Medium',sans-serif">Quarter</text><circle cx="196" cy="34" r="5" style="stroke-width:1;stroke:rgba(69,128,0,1.0);fill:rgba(69,128,0,1.0)"/><path  d="" style="stroke-width:1;stroke:rgba(69,128,0,1.0);fill:rgba(69,128,0,1.0)"/><circle cx="305" cy="365" r="5" style="stroke-width:1;stroke:rgba(148,104,0,1.0);fill:rgba(148,104,0,1.0)"/><path  d="" style="stroke-width:1;stroke:rgba(148,104,0,1.0);fill:rgba(148,104,0,1.0)"/><circle cx="618" cy="51" r="5" style="stroke-width:1;stroke:rgba(8,245,0,1.0);fill:rgba(8,245,0,1.0)"/><path  d="" style="stroke-width:1;stroke:rgba(8,245,0,1.0);fill:rgba(8,245,0,1.0)"/><circle cx="413" cy="37" r="5" style="stroke-width:1;stroke:rgba(43,191,0,1.0);fill:rgba(43,191,0,1.0)"/><path  d="" style="stroke-width:1;stroke:rgba(43,191,0,1.0);fill:rgba(43,191,0,1.0)"/><circle cx="618" cy="61" r="5" style="stroke-width:1;stroke:rgba(11,242,0,1.0);fill:rgba(11,242,0,1.0)"/><path  d="" style="stroke-width:1;stroke:rgba(11,242,0,1.0);fill:rgba(11,242,0,1.0)"/><circle cx="618" cy="82" r="5" style="stroke-width:1;stroke:rgba(16,235,0,1.0);fill:rgba(16,235,0,1.0)"/><path  d="" style="stroke-width:1;stroke:rgba(16,235,0,1.0);fill:rgba(16,235,0,1.0)"/><circle cx="618" cy="26" r="5" style="stroke-width:1;stroke:rgba(2,251,0,1.0);fill:rgba(2,251,0,1.0)"/><path  d="" style="stroke-width:1;stroke:rgba(2,251,0,1.0);fill:rgba(2,251,0,1.0)"/><circle cx="330" cy="357" r="5" style="stroke-width:1;stroke:rgba(141,111,0,1.0);fill:rgba(141,111,0,1.0)"/><path  d="" style="stroke-width:1;stroke:rgba(141,111,0,1.0);fill:rgba(141,111,0,1.0)"/><circle cx="311" cy="103" r="5" style="stroke-width:1;stroke:rgba(78,158,0,1.0);fill:rgba(78,158,0,1.0)"/><path  d="" style="stroke-width:1;stroke:rgba(78,158,0,1.0);fill:rgba(78,158,0,1.0)"/><circle cx="618" cy="140" r="5" style="stroke-width:1;stroke:rgba(29,215,0,1.0);fill:rgba(29,215,0,1.0)"/><path  d="" style="stroke-width:1;stroke:rgba(29,215,0,1.0);fill:rgba(29,215,0,1.0)"/><path  d="M 196 34
L 206 23
L 309 23
L 309 45
L 206 45
L 196 34
Z" style="stroke-width:1;stroke:rgba(63,127,255,1.0);fill:rgba(255,255,255,1.0)"/><text x="211" y="40" style="stroke-width:0;stroke:none;fill:rgba(51,51,51,1.0);font-size:12.8px;font-family:'Roboto Medium',sans-serif">phsym/zeroslog</text><path  d="M 305 372
L 315 361
L 423 361
L 423 383
L 315 383
L 305 372
Z" style="stroke-width:1;stroke:rgba(63,127,255,1.0);fill:rgba(255,255,255,1.0)"/><text x="320" y="378" style="stroke-width:0;stroke:none;fill:rgba(51,51,51,1.0);font-size:12.8px;font-family:'Roboto Medium',sans-serif">samber/slog-zap</text><path  d="M 618 45
L 628 34
L 746 34
L 746 56
L 628 56
L 618 45
Z" style="stroke-width:1;stroke:rgba(63,127,255,1.0);fill:rgba(255,255,255,1.0)"/><text x="633" y="51" style="stroke-width:0;stroke:none;fill:rgba(51,51,51,1.0);font-size:12.8px;font-family:'Roboto Medium',sans-serif">slog/JSONHandler</text><path  d="M 413 37
L 423 26
L 537 26
L 537 48
L 423 48
L 413 37
Z" style="stroke-width:1;stroke:rgba(63,127,255,1.0);fill:rgba(255,255,255,1.0)"/><text x="428" y="43" style="stroke-width:0;stroke:none;fill:rgba(51,51,51,1.0);font-size:12.8px;font-family:'Roboto Medium',sans-serif">svcrunner/jsonlog</text><path  d="M 618 67
L 628 56
L 721 56
L 721 78
L 628 78
L 618 67
Z" style="stroke-width:1;stroke:rgba(63,127,255,1.0);fill:rgba(255,255,255,1.0)"/><text x="633" y="73" style="stroke-width:0;stroke:none;fill:rgba(51,51,51,1.0);font-size:12.8px;font-family:'Roboto Medium',sans-serif">madkins/flash</text><path  d="M 618 95
L 628 84
L 734 84
L 734 106
L 628 106
L 618 95
Z" style="stroke-width:1;stroke:rgba(63,127,255,1.0);fill:rgba(255,255,255,1.0)"/><text x="633" y="101" style="stroke-width:0;stroke:none;fill:rgba(51,51,51,1.0);font-size:12.8px;font-family:'Roboto Medium',sans-serif">madkins/replattr</text><path  d="M 618 17
L 628 6
L 706 6
L 706 28
L 628 28
L 618 17
Z" style="stroke-width:1;stroke:rgba(63,127,255,1.0);fill:rgba(255,255,255,1.0)"/><text x="633" y="23" style="stroke-width:0;stroke:none;fill:rgba(51,51,51,1.0);font-size:12.8px;font-family:'Roboto Medium',sans-serif">phuslu/slog</text><path  d="M 330 350
L 340 339
L 470 339
L 470 361
L 340 361
L 330 350
Z" style="stroke-width:1;stroke:rgba(63,127,255,1.0);fill:rgba(255,255,255,1.0)"/><text x="345" y="356" style="stroke-width:0;stroke:none;fill:rgba(51,51,51,1.0);font-size:12.8px;font-family:'Roboto Medium',sans-serif">samber/slog-zerolog</text><path  d="M 311 103
L 321 92
L 452 92
L 452 114
L 321 114
L 311 103
Z" style="stroke-width:1;stroke:rgba(63,127,255,1.0);fill:rgba(255,255,255,1.0)"/><text x="326" y="109" style="stroke-width:0;stroke:none;fill:rgba(51,51,51,1.0);font-size:12.8px;font-family:'Roboto Medium',sans-serif">chanchal/zaphandler</text><path  d="M 618 140
L 628 129
L 730 129
L 730 151
L 628 151
L 618 140
Z" style="stroke-width:1;stroke:rgba(63,127,255,1.0);fill:rgba(255,255,255,1.0)"/><text x="633" y="146" style="stroke-width:0;stroke:none;fill:rgba(51,51,51,1.0);font-size:12.8px;font-family:'Roboto Medium',sans-serif">madkins/sloggy</text></svg>