<svg xmlns="http://www.w3.org/2000/svg" xmlns:xlink="http://www.w3.org/1999/xlink" width="800" height="600">\n<path  d="M 0 0
L 800 0
L 800 600
L 0 600
L 0 0" style="stroke-width:0;stroke:rgba(255,255,255,1.0);fill:rgba(255,255,255,1.0)"/><path  d="M 12 11
L 580 11
L 580 551
L 12 551
L 12 11" style="stroke-width:0;stroke:rgba(255,255,255,1.0);fill:rgba(255,255,255,1.0)"/><path  d="M 12 551
L 580 551" style="stroke-width:1;stroke:rgba(51,51,51,1.0);fill:none"/><path  d="M 12 551
L 12 556" style="stroke-width:1;stroke:rgba(51,51,51,1.0);fill:none"/><text x="5" y="573" style="stroke-width:0;stroke:none;fill:rgba(51,51,51,1.0);font-size:12.8px;font-family:'Roboto Medium',sans-serif">25</text><path  d="M 50 551
L 50 556" style="stroke-width:1;stroke:rgba(51,51,51,1.0);fill:none"/><text x="43" y="573" style="stroke-width:0;stroke:none;fill:rgba(51,51,51,1.0);font-size:12.8px;font-family:'Roboto Medium',sans-serif">30</text><path  d="M 126 551
L 126 556" style="stroke-width:1;stroke:rgba(51,51,51,1.0);fill:none"/><text x="119" y="573" style="stroke-width:0;stroke:none;fill:rgba(51,51,51,1.0);font-size:12.8px;font-family:'Roboto Medium',sans-serif">40</text><path  d="M 202 551
L 202 556" style="stroke-width:1;stroke:rgba(51,51,51,1.0);fill:none"/><text x="195" y="573" style="stroke-width:0;stroke:none;fill:rgba(51,51,51,1.0);font-size:12.8px;font-family:'Roboto Medium',sans-serif">50</text><path  d="M 278 551
L 278 556" style="stroke-width:1;stroke:rgba(51,51,51,1.0);fill:none"/><text x="271" y="573" style="stroke-width:0;stroke:none;fill:rgba(51,51,51,1.0);font-size:12.8px;font-family:'Roboto Medium',sans-serif">60</text><path  d="M 353 551
L 353 556" style="stroke-width:1;stroke:rgba(51,51,51,1.0);fill:none"/><text x="346" y="573" style="stroke-width:0;stroke:none;fill:rgba(51,51,51,1.0);font-size:12.8px;font-family:'Roboto Medium',sans-serif">70</text><path  d="M 429 551
L 429 556" style="stroke-width:1;stroke:rgba(51,51,51,1.0);fill:none"/><text x="422" y="573" style="stroke-width:0;stroke:none;fill:rgba(51,51,51,1.0);font-size:12.8px;font-family:'Roboto Medium',sans-serif">80</text><path  d="M 505 551
L 505 556" style="stroke-width:1;stroke:rgba(51,51,51,1.0);fill:none"/><text x="498" y="573" style="stroke-width:0;stroke:none;fill:rgba(51,51,51,1.0);font-size:12.8px;font-family:'Roboto Medium',sans-serif">90</text><path  d="M 580 551
L 580 556" style="stroke-width:1;stroke:rgba(51,51,51,1.0);fill:none"/><text x="569" y="573" style="stroke-width:0;stroke:none;fill:rgba(51,51,51,1.0);font-size:12.8px;font-family:'Roboto Medium',sans-serif">100</text><text x="269" y="595" style="stroke-width:0;stroke:none;fill:rgba(51,51,51,1.0);font-size:12.8px;font-family:'Roboto Medium',sans-serif">Warnings</text><path  d="M 50 551
L 50 11" style="stroke-width:0;stroke:none;fill:none"/><path  d="M 126 551
L 126 11" style="stroke-width:0;stroke:none;fill:none"/><path  d="M 202 551
L 202 11" style="stroke-width:0;stroke:none;fill:none"/><path  d="M 278 551
L 278 11" style="stroke-width:0;stroke:none;fill:none"/><path  d="M 353 551
L 353 11" style="stroke-width:0;stroke:none;fill:none"/><path  d="M 429 551
L 429 11" style="stroke-width:0;stroke:none;fill:none"/><path  d="M 505 551
L 505 11" style="stroke-width:0;stroke:none;fill:none"/><path  d="M 581 551
L 581 11" style="stroke-width:1;stroke:rgba(51,51,51,1.0);fill:none"/><path  d="M 581 551
L 586 551" style="stroke-width:1;stroke:rgba(51,51,51,1.0);fill:none"/><text x="591" y="557" style="stroke-width:0;stroke:none;fill:rgba(51,51,51,1.0);font-size:12.8px;font-family:'Roboto Medium',sans-serif">25</text><path  d="M 581 515
L 586 515" style="stroke-width:1;stroke:rgba(51,51,51,1.0);fill:none"/><text x="591" y="521" style="stroke-width:0;stroke:none;fill:rgba(51,51,51,1.0);font-size:12.8px;font-family:'Roboto Medium',sans-serif">30</text><path  d="M 581 443
L 586 443" style="stroke-width:1;stroke:rgba(51,51,51,1.0);fill:none"/><text x="591" y="449" style="stroke-width:0;stroke:none;fill:rgba(51,51,51,1.0);font-size:12.8px;font-family:'Roboto Medium',sans-serif">40</text><path  d="M 581 371
L 586 371" style="stroke-width:1;stroke:rgba(51,51,51,1.0);fill:none"/><text x="591" y="377" style="stroke-width:0;stroke:none;fill:rgba(51,51,51,1.0);font-size:12.8px;font-family:'Roboto Medium',sans-serif">50</text><path  d="M 581 299
L 586 299" style="stroke-width:1;stroke:rgba(51,51,51,1.0);fill:none"/><text x="591" y="305" style="stroke-width:0;stroke:none;fill:rgba(51,51,51,1.0);font-size:12.8px;font-family:'Roboto Medium',sans-serif">60</text><path  d="M 581 227
L 586 227" style="stroke-width:1;stroke:rgba(51,51,51,1.0);fill:none"/><text x="591" y="233" style="stroke-width:0;stroke:none;fill:rgba(51,51,51,1.0);font-size:12.8px;font-family:'Roboto Medium',sans-serif">70</text><path  d="M 581 155
L 586 155" style="stroke-width:1;stroke:rgba(51,51,51,1.0);fill:none"/><text x="591" y="161" style="stroke-width:0;stroke:none;fill:rgba(51,51,51,1.0);font-size:12.8px;font-family:'Roboto Medium',sans-serif">80</text><path  d="M 581 83
L 586 83" style="stroke-width:1;stroke:rgba(51,51,51,1.0);fill:none"/><text x="591" y="89" style="stroke-width:0;stroke:none;fill:rgba(51,51,51,1.0);font-size:12.8px;font-family:'Roboto Medium',sans-serif">90</text><path  d="M 581 11
L 586 11" style="stroke-width:1;stroke:rgba(51,51,51,1.0);fill:none"/><text x="591" y="17" style="stroke-width:0;stroke:none;fill:rgba(51,51,51,1.0);font-size:12.8px;font-family:'Roboto Medium',sans-serif">100</text><text x="623" y="245" style="stroke-width:0;stroke:none;fill:rgba(51,51,51,1.0);font-size:12.8px;font-family:'Roboto Medium',sans-serif" transform="rotate(90.00,623,245)">Benchmarks</text><path  d="M 12 731
L 580 731" style="stroke-width:0;stroke:none;fill:none"/><path  d="M 12 515
L 580 515" style="stroke-width:0;stroke:none;fill:none"/><path  d="M 12 443
L 580 443" style="stroke-width:0;stroke:none;fill:none"/><path  d="M 12 371
L 580 371" style="stroke-width:0;stroke:none;fill:none"/><path  d="M 12 299
L 580 299" style="stroke-width:0;stroke:none;fill:none"/><path  d="M 12 227
L 580 227" style="stroke-width:0;stroke:none;fill:none"/><path  d="M 12 155
L 580 155" style="stroke-width:0;stroke:none;fill:none"/><path  d="M 12 83
L 580 83" style="stroke-width:0;stroke:none;fill:none"/><path  d="M 11 551
L 11 11" style="stroke-width:1;stroke:rgba(51,51,51,1.0);fill:none"/><path  d="M 11 -9223372036854775257
L 6 -9223372036854775257" style="stroke-width:1;stroke:rgba(51,51,51,1.0);fill:none"/><text x="-25" y="-9223372036854775251" style="stroke-width:0;stroke:none;fill:rgba(51,51,51,1.0);font-size:12.8px;font-family:'Roboto Medium',sans-serif">0.00</text><path  d="M 11 -9223372036854775257
L 6 -9223372036854775257" style="stroke-width:1;stroke:rgba(51,51,51,1.0);fill:none"/><text x="-25" y="-9223372036854775251" style="stroke-width:0;stroke:none;fill:rgba(51,51,51,1.0);font-size:12.8px;font-family:'Roboto Medium',sans-serif">0.00</text><path  d="M 11 -9223372036854775257
L 6 -9223372036854775257" style="stroke-width:1;stroke:rgba(51,51,51,1.0);fill:none"/><text x="-25" y="-9223372036854775251" style="stroke-width:0;stroke:none;fill:rgba(51,51,51,1.0);font-size:12.8px;font-family:'Roboto Medium',sans-serif">0.00</text><path  d="M 11 -9223372036854775257
L 6 -9223372036854775257" style="stroke-width:1;stroke:rgba(51,51,51,1.0);fill:none"/><text x="-25" y="-9223372036854775251" style="stroke-width:0;stroke:none;fill:rgba(51,51,51,1.0);font-size:12.8px;font-family:'Roboto Medium',sans-serif">0.00</text><path  d="M 11 -9223372036854775257
L 6 -9223372036854775257" style="stroke-width:1;stroke:rgba(51,51,51,1.0);fill:none"/><text x="-25" y="-9223372036854775251" style="stroke-width:0;stroke:none;fill:rgba(51,51,51,1.0);font-size:12.8px;font-family:'Roboto Medium',sans-serif">0.00</text><path  d="M 11 -9223372036854775257
L 6 -9223372036854775257" style="stroke-width:1;stroke:rgba(51,51,51,1.0);fill:none"/><text x="-25" y="-9223372036854775251" style="stroke-width:0;stroke:none;fill:rgba(51,51,51,1.0);font-size:12.8px;font-family:'Roboto Medium',sans-serif">0.00</text><path  d="M 11 -9223372036854775257
L 6 -9223372036854775257" style="stroke-width:1;stroke:rgba(51,51,51,1.0);fill:none"/><text x="-25" y="-9223372036854775251" style="stroke-width:0;stroke:none;fill:rgba(51,51,51,1.0);font-size:12.8px;font-family:'Roboto Medium',sans-serif">0.00</text><path  d="M 11 -9223372036854775257
L 6 -9223372036854775257" style="stroke-width:1;stroke:rgba(51,51,51,1.0);fill:none"/><text x="-25" y="-9223372036854775251" style="stroke-width:0;stroke:none;fill:rgba(51,51,51,1.0);font-size:12.8px;font-family:'Roboto Medium',sans-serif">0.00</text><path  d="M 11 -9223372036854775257
L 6 -9223372036854775257" style="stroke-width:1;stroke:rgba(51,51,51,1.0);fill:none"/><text x="-25" y="-9223372036854775251" style="stroke-width:0;stroke:none;fill:rgba(51,51,51,1.0);font-size:12.8px;font-family:'Roboto Medium',sans-serif">0.00</text><path  d="M 11 -9223372036854775257
L 6 -9223372036854775257" style="stroke-width:1;stroke:rgba(51,51,51,1.0);fill:none"/><text x="-25" y="-9223372036854775251" style="stroke-width:0;stroke:none;fill:rgba(51,51,51,1.0);font-size:12.8px;font-family:'Roboto Medium',sans-serif">0.00</text><path  d="M 11 -9223372036854775257
L 6 -9223372036854775257" style="stroke-width:1;stroke:rgba(51,51,51,1.0);fill:none"/><text x="-25" y="-9223372036854775251" style="stroke-width:0;stroke:none;fill:rgba(51,51,51,1.0);font-size:12.8px;font-family:'Roboto Medium',sans-serif">0.00</text><path  d="M 11 -9223372036854775257
L 6 -9223372036854775257" style="stroke-width:1;stroke:rgba(51,51,51,1.0);fill:none"/><text x="-25" y="-9223372036854775251" style="stroke-width:0;stroke:none;fill:rgba(51,51,51,1.0);font-size:12.8px;font-family:'Roboto Medium',sans-serif">0.00</text><path  d="M 11 -9223372036854775257
L 6 -9223372036854775257" style="stroke-width:1;stroke:rgba(51,51,51,1.0);fill:none"/><text x="-25" y="-9223372036854775251" style="stroke-width:0;stroke:none;fill:rgba(51,51,51,1.0);font-size:12.8px;font-family:'Roboto Medium',sans-serif">0.00</text><path  d="M 11 -9223372036854775257
L 6 -9223372036854775257" style="stroke-width:1;stroke:rgba(51,51,51,1.0);fill:none"/><text x="-25" y="-9223372036854775251" style="stroke-width:0;stroke:none;fill:rgba(51,51,51,1.0);font-size:12.8px;font-family:'Roboto Medium',sans-serif">0.00</text><path  d="M 11 -9223372036854775257
L 6 -9223372036854775257" style="stroke-width:1;stroke:rgba(51,51,51,1.0);fill:none"/><text x="-25" y="-9223372036854775251" style="stroke-width:0;stroke:none;fill:rgba(51,51,51,1.0);font-size:12.8px;font-family:'Roboto Medium',sans-serif">0.00</text><path  d="M 12 -9223372036854775257
L 580 -9223372036854775257" style="stroke-width:0;stroke:none;fill:none"/><path  d="M 12 -9223372036854775257
L 580 -9223372036854775257" style="stroke-width:0;stroke:none;fill:none"/><path  d="M 12 -9223372036854775257
L 580 -9223372036854775257" style="stroke-width:0;stroke:none;fill:none"/><path  d="M 12 -9223372036854775257
L 580 -9223372036854775257" style="stroke-width:0;stroke:none;fill:none"/><path  d="M 12 -9223372036854775257
L 580 -9223372036854775257" style="stroke-width:0;stroke:none;fill:none"/><path  d="M 12 -9223372036854775257
L 580 -9223372036854775257" style="stroke-width:0;stroke:none;fill:none"/><path  d="M 12 -9223372036854775257
L 580 -9223372036854775257" style="stroke-width:0;stroke:none;fill:none"/><path  d="M 12 -9223372036854775257
L 580 -9223372036854775257" style="stroke-width:0;stroke:none;fill:none"/><path  d="M 12 -9223372036854775257
L 580 -9223372036854775257" style="stroke-width:0;stroke:none;fill:none"/><path  d="M 12 -9223372036854775257
L 580 -9223372036854775257" style="stroke-width:0;stroke:none;fill:none"/><path  d="M 12 -9223372036854775257
L 580 -9223372036854775257" style="stroke-width:0;stroke:none;fill:none"/><path  d="M 12 -9223372036854775257
L 580 -9223372036854775257" style="stroke-width:0;stroke:none;fill:none"/><path  d="M 12 -9223372036854775257
L 580 -9223372036854775257" style="stroke-width:0;stroke:none;fill:none"/><path  d="M 12 -9223372036854775257
L 580 -9223372036854775257" style="stroke-width:0;stroke:none;fill:none"/><path  d="M 570 11
L 637 42" style="stroke-width:1;stroke:rgba(63,63,63,0.2);fill:none"/><path  d="M 393 18
L 637 72" style="stroke-width:1;stroke:rgba(63,63,63,0.2);fill:none"/><path  d="M 232 20
L 637 102" style="stroke-width:1;stroke:rgba(63,63,63,0.2);fill:none"/><path  d="M 570 33
L 637 132" style="stroke-width:1;stroke:rgba(63,63,63,0.2);fill:none"/><path  d="M 570 43
L 637 162" style="stroke-width:1;stroke:rgba(63,63,63,0.2);fill:none"/><path  d="M 306 75
L 637 192" style="stroke-width:1;stroke:rgba(63,63,63,0.2);fill:none"/><path  d="M 570 129
L 637 222" style="stroke-width:1;stroke:rgba(63,63,63,0.2);fill:none"/><path  d="M 311 347
L 637 252" style="stroke-width:1;stroke:rgba(63,63,63,0.2);fill:none"/><path  d="M 289 350
L 637 281" style="stroke-width:1;stroke:rgba(63,63,63,0.2);fill:none"/><path  d="M 202 11
L 202 371
L 580 371" style="stroke-width:1;stroke:rgba(255,0,127,0.2);fill:none"/><path  d="M 391 11
L 391 191
L 580 191" style="stroke-width:1;stroke:rgba(255,0,127,0.2);fill:none"/><path  d="M 505 371
L 515 360
L 549 360
L 549 382
L 515 382
L 505 371
Z" style="stroke-width:1;stroke:rgba(255,0,127,0.2);fill:rgba(255,255,255,1.0)"/><text x="520" y="377" style="stroke-width:0;stroke:none;fill:rgba(51,51,51,1.0);font-size:12.8px;font-family:'Roboto Medium',sans-serif">Half</text><path  d="M 505 191
L 515 180
L 568 180
L 568 202
L 515 202
L 505 191
Z" style="stroke-width:1;stroke:rgba(255,0,127,0.2);fill:rgba(255,255,255,1.0)"/><text x="520" y="197" style="stroke-width:0;stroke:none;fill:rgba(51,51,51,1.0);font-size:12.8px;font-family:'Roboto Medium',sans-serif">Quarter</text><circle cx="570" cy="11" r="5" style="stroke-width:1;stroke:rgba(2,251,0,1.0);fill:rgba(2,251,0,1.0)"/><path  d="" style="stroke-width:1;stroke:rgba(2,251,0,1.0);fill:rgba(2,251,0,1.0)"/><circle cx="393" cy="18" r="5" style="stroke-width:1;stroke:rgba(40,195,0,1.0);fill:rgba(40,195,0,1.0)"/><path  d="" style="stroke-width:1;stroke:rgba(40,195,0,1.0);fill:rgba(40,195,0,1.0)"/><circle cx="232" cy="20" r="5" style="stroke-width:1;stroke:rgba(64,144,0,1.0);fill:rgba(64,144,0,1.0)"/><path  d="" style="stroke-width:1;stroke:rgba(64,144,0,1.0);fill:rgba(64,144,0,1.0)"/><circle cx="570" cy="33" r="5" style="stroke-width:1;stroke:rgba(7,246,0,1.0);fill:rgba(7,246,0,1.0)"/><path  d="" style="stroke-width:1;stroke:rgba(7,246,0,1.0);fill:rgba(7,246,0,1.0)"/><circle cx="570" cy="43" r="5" style="stroke-width:1;stroke:rgba(9,243,0,1.0);fill:rgba(9,243,0,1.0)"/><path  d="" style="stroke-width:1;stroke:rgba(9,243,0,1.0);fill:rgba(9,243,0,1.0)"/><circle cx="306" cy="75" r="5" style="stroke-width:1;stroke:rgba(71,165,0,1.0);fill:rgba(71,165,0,1.0)"/><path  d="" style="stroke-width:1;stroke:rgba(71,165,0,1.0);fill:rgba(71,165,0,1.0)"/><circle cx="570" cy="129" r="5" style="stroke-width:1;stroke:rgba(28,215,0,1.0);fill:rgba(28,215,0,1.0)"/><path  d="" style="stroke-width:1;stroke:rgba(28,215,0,1.0);fill:rgba(28,215,0,1.0)"/><circle cx="311" cy="347" r="5" style="stroke-width:1;stroke:rgba(138,113,0,1.0);fill:rgba(138,113,0,1.0)"/><path  d="" style="stroke-width:1;stroke:rgba(138,113,0,1.0);fill:rgba(138,113,0,1.0)"/><circle cx="289" cy="350" r="5" style="stroke-width:1;stroke:rgba(144,108,0,1.0);fill:rgba(144,108,0,1.0)"/><path  d="" style="stroke-width:1;stroke:rgba(144,108,0,1.0);fill:rgba(144,108,0,1.0)"/><path  d="M 637 42
L 647 31
L 725 31
L 725 53
L 647 53
L 637 42
Z" style="stroke-width:1;stroke:rgba(63,127,255,1.0);fill:rgba(255,255,255,1.0)"/><text x="652" y="48" style="stroke-width:0;stroke:none;fill:rgba(51,51,51,1.0);font-size:12.8px;font-family:'Roboto Medium',sans-serif">phuslu/slog</text><path  d="M 637 72
L 647 61
L 761 61
L 761 83
L 647 83
L 637 72
Z" style="stroke-width:1;stroke:rgba(63,127,255,1.0);fill:rgba(255,255,255,1.0)"/><text x="652" y="78" style="stroke-width:0;stroke:none;fill:rgba(51,51,51,1.0);font-size:12.8px;font-family:'Roboto Medium',sans-serif">svcrunner/jsonlog</text><path  d="M 637 102
L 647 91
L 750 91
L 750 113
L 647 113
L 637 102
Z" style="stroke-width:1;stroke:rgba(63,127,255,1.0);fill:rgba(255,255,255,1.0)"/><text x="652" y="108" style="stroke-width:0;stroke:none;fill:rgba(51,51,51,1.0);font-size:12.8px;font-family:'Roboto Medium',sans-serif">phsym/zeroslog</text><path  d="M 637 132
L 647 121
L 765 121
L 765 143
L 647 143
L 637 132
Z" style="stroke-width:1;stroke:rgba(63,127,255,1.0);fill:rgba(255,255,255,1.0)"/><text x="652" y="138" style="stroke-width:0;stroke:none;fill:rgba(51,51,51,1.0);font-size:12.8px;font-family:'Roboto Medium',sans-serif">slog/JSONHandler</text><path  d="M 637 162
L 647 151
L 740 151
L 740 173
L 647 173
L 637 162
Z" style="stroke-width:1;stroke:rgba(63,127,255,1.0);fill:rgba(255,255,255,1.0)"/><text x="652" y="168" style="stroke-width:0;stroke:none;fill:rgba(51,51,51,1.0);font-size:12.8px;font-family:'Roboto Medium',sans-serif">madkins/flash</text><path  d="M 637 192
L 647 181
L 778 181
L 778 203
L 647 203
L 637 192
Z" style="stroke-width:1;stroke:rgba(63,127,255,1.0);fill:rgba(255,255,255,1.0)"/><text x="652" y="198" style="stroke-width:0;stroke:none;fill:rgba(51,51,51,1.0);font-size:12.8px;font-family:'Roboto Medium',sans-serif">chanchal/zaphandler</text><path  d="M 637 222
L 647 211
L 749 211
L 749 233
L 647 233
L 637 222
Z" style="stroke-width:1;stroke:rgba(63,127,255,1.0);fill:rgba(255,255,255,1.0)"/><text x="652" y="228" style="stroke-width:0;stroke:none;fill:rgba(51,51,51,1.0);font-size:12.8px;font-family:'Roboto Medium',sans-serif">madkins/sloggy</text><path  d="M 637 252
L 647 241
L 777 241
L 777 263
L 647 263
L 637 252
Z" style="stroke-width:1;stroke:rgba(63,127,255,1.0);fill:rgba(255,255,255,1.0)"/><text x="652" y="258" style="stroke-width:0;stroke:none;fill:rgba(51,51,51,1.0);font-size:12.8px;font-family:'Roboto Medium',sans-serif">samber/slog-zerolog</text><path  d="M 637 281
L 647 270
L 755 270
L 755 292
L 647 292
L 637 281
Z" style="stroke-width:1;stroke:rgba(63,127,255,1.0);fill:rgba(255,255,255,1.0)"/><text x="652" y="287" style="stroke-width:0;stroke:none;fill:rgba(51,51,51,1.0);font-size:12.8px;font-family:'Roboto Medium',sans-serif">samber/slog-zap</text></svg>