<svg xmlns="http://www.w3.org/2000/svg" xmlns:xlink="http://www.w3.org/1999/xlink" width="400" height="300">\n<path  d="M 0 0
L 400 0
L 400 300
L 0 300
L 0 0" style="stroke-width:0;stroke:none;fill:rgba(255,255,255,1.0)"/><text x="10" y="25" style="stroke-width:0;stroke:none;fill:rgba(70,70,70,1.0);font-size:15.3px;font-family:'Roboto Medium',sans-serif">Nanoseconds per operation</text><path  d="M 160 45
L 165 45" style="stroke-width:1;stroke:rgba(110,112,121,1.0);fill:none"/><path  d="M 160 66
L 165 66" style="stroke-width:1;stroke:rgba(110,112,121,1.0);fill:none"/><path  d="M 160 88
L 165 88" style="stroke-width:1;stroke:rgba(110,112,121,1.0);fill:none"/><path  d="M 160 109
L 165 109" style="stroke-width:1;stroke:rgba(110,112,121,1.0);fill:none"/><path  d="M 160 131
L 165 131" style="stroke-width:1;stroke:rgba(110,112,121,1.0);fill:none"/><path  d="M 160 152
L 165 152" style="stroke-width:1;stroke:rgba(110,112,121,1.0);fill:none"/><path  d="M 160 174
L 165 174" style="stroke-width:1;stroke:rgba(110,112,121,1.0);fill:none"/><path  d="M 160 195
L 165 195" style="stroke-width:1;stroke:rgba(110,112,121,1.0);fill:none"/><path  d="M 160 217
L 165 217" style="stroke-width:1;stroke:rgba(110,112,121,1.0);fill:none"/><path  d="M 160 238
L 165 238" style="stroke-width:1;stroke:rgba(110,112,121,1.0);fill:none"/><path  d="M 160 260
L 165 260" style="stroke-width:1;stroke:rgba(110,112,121,1.0);fill:none"/><path  d="M 165 45
L 165 260" style="stroke-width:1;stroke:rgba(110,112,121,1.0);fill:none"/><text x="10" y="62" style="stroke-width:0;stroke:none;fill:rgba(70,70,70,1.0);font-size:15.3px;font-family:'Roboto Medium',sans-serif">chanchal/zaphandler</text><text x="56" y="84" style="stroke-width:0;stroke:none;fill:rgba(70,70,70,1.0);font-size:15.3px;font-family:'Roboto Medium',sans-serif">madkins/flash</text><text x="40" y="105" style="stroke-width:0;stroke:none;fill:rgba(70,70,70,1.0);font-size:15.3px;font-family:'Roboto Medium',sans-serif">madkins/replattr</text><text x="44" y="127" style="stroke-width:0;stroke:none;fill:rgba(70,70,70,1.0);font-size:15.3px;font-family:'Roboto Medium',sans-serif">madkins/sloggy</text><text x="43" y="148" style="stroke-width:0;stroke:none;fill:rgba(70,70,70,1.0);font-size:15.3px;font-family:'Roboto Medium',sans-serif">phsym/zeroslog</text><text x="73" y="170" style="stroke-width:0;stroke:none;fill:rgba(70,70,70,1.0);font-size:15.3px;font-family:'Roboto Medium',sans-serif">phuslu/slog</text><text x="19" y="191" style="stroke-width:0;stroke:none;fill:rgba(70,70,70,1.0);font-size:15.3px;font-family:'Roboto Medium',sans-serif">samber/slog-logrus</text><text x="38" y="213" style="stroke-width:0;stroke:none;fill:rgba(70,70,70,1.0);font-size:15.3px;font-family:'Roboto Medium',sans-serif">samber/slog-zap</text><text x="11" y="234" style="stroke-width:0;stroke:none;fill:rgba(70,70,70,1.0);font-size:15.3px;font-family:'Roboto Medium',sans-serif">samber/slog-zerolog</text><text x="26" y="256" style="stroke-width:0;stroke:none;fill:rgba(70,70,70,1.0);font-size:15.3px;font-family:'Roboto Medium',sans-serif">slog/JSONHandler</text><text x="161" y="285" style="stroke-width:0;stroke:none;fill:rgba(70,70,70,1.0);font-size:15.3px;font-family:'Roboto Medium',sans-serif">0</text><text x="217" y="285" style="stroke-width:0;stroke:none;fill:rgba(70,70,70,1.0);font-size:15.3px;font-family:'Roboto Medium',sans-serif">2.56k</text><text x="289" y="285" style="stroke-width:0;stroke:none;fill:rgba(70,70,70,1.0);font-size:15.3px;font-family:'Roboto Medium',sans-serif">5.12k</text><text x="361" y="285" style="stroke-width:0;stroke:none;fill:rgba(70,70,70,1.0);font-size:15.3px;font-family:'Roboto Medium',sans-serif">7.68k</text><path  d="M 200 45
L 200 260" style="stroke-width:1;stroke:rgba(224,230,242,1.0);fill:none"/><path  d="M 236 45
L 236 260" style="stroke-width:1;stroke:rgba(224,230,242,1.0);fill:none"/><path  d="M 272 45
L 272 260" style="stroke-width:1;stroke:rgba(224,230,242,1.0);fill:none"/><path  d="M 308 45
L 308 260" style="stroke-width:1;stroke:rgba(224,230,242,1.0);fill:none"/><path  d="M 344 45
L 344 260" style="stroke-width:1;stroke:rgba(224,230,242,1.0);fill:none"/><path  d="M 380 45
L 380 260" style="stroke-width:1;stroke:rgba(224,230,242,1.0);fill:none"/><path  d="M 165 243
L 188 243
L 188 254
L 165 254
L 165 243" style="stroke-width:0;stroke:none;fill:rgba(84,112,198,1.0)"/><path  d="M 165 222
L 225 222
L 225 233
L 165 233
L 165 222" style="stroke-width:0;stroke:none;fill:rgba(84,112,198,1.0)"/><path  d="M 165 200
L 184 200
L 184 211
L 165 211
L 165 200" style="stroke-width:0;stroke:none;fill:rgba(84,112,198,1.0)"/><path  d="M 165 179
L 364 179
L 364 190
L 165 190
L 165 179" style="stroke-width:0;stroke:none;fill:rgba(84,112,198,1.0)"/><path  d="M 165 157
L 172 157
L 172 168
L 165 168
L 165 157" style="stroke-width:0;stroke:none;fill:rgba(84,112,198,1.0)"/><path  d="M 165 136
L 178 136
L 178 147
L 165 147
L 165 136" style="stroke-width:0;stroke:none;fill:rgba(84,112,198,1.0)"/><path  d="M 165 114
L 212 114
L 212 125
L 165 125
L 165 114" style="stroke-width:0;stroke:none;fill:rgba(84,112,198,1.0)"/><path  d="M 165 93
L 196 93
L 196 104
L 165 104
L 165 93" style="stroke-width:0;stroke:none;fill:rgba(84,112,198,1.0)"/><path  d="M 165 71
L 190 71
L 190 82
L 165 82
L 165 71" style="stroke-width:0;stroke:none;fill:rgba(84,112,198,1.0)"/><path  d="M 165 50
L 181 50
L 181 61
L 165 61
L 165 50" style="stroke-width:0;stroke:none;fill:rgba(84,112,198,1.0)"/></svg>