<svg xmlns="http://www.w3.org/2000/svg" xmlns:xlink="http://www.w3.org/1999/xlink" width="400" height="180">\n<path  d="M 0 0
L 400 0
L 400 180
L 0 180
L 0 0" style="stroke-width:0;stroke:none;fill:rgba(255,255,255,1.0)"/><text x="10" y="25" style="stroke-width:0;stroke:none;fill:rgba(70,70,70,1.0);font-size:15.3px;font-family:'Roboto Medium',sans-serif">Nanoseconds per operation</text><path  d="M 143 45
L 148 45" style="stroke-width:1;stroke:rgba(110,112,121,1.0);fill:none"/><path  d="M 143 68
L 148 68" style="stroke-width:1;stroke:rgba(110,112,121,1.0);fill:none"/><path  d="M 143 92
L 148 92" style="stroke-width:1;stroke:rgba(110,112,121,1.0);fill:none"/><path  d="M 143 116
L 148 116" style="stroke-width:1;stroke:rgba(110,112,121,1.0);fill:none"/><path  d="M 143 140
L 148 140" style="stroke-width:1;stroke:rgba(110,112,121,1.0);fill:none"/><path  d="M 148 45
L 148 140" style="stroke-width:1;stroke:rgba(110,112,121,1.0);fill:none"/><text x="10" y="63" style="stroke-width:0;stroke:none;fill:rgba(70,70,70,1.0);font-size:15.3px;font-family:'Roboto Medium',sans-serif">Slog JSONHandler</text><text x="28" y="87" style="stroke-width:0;stroke:none;fill:rgba(70,70,70,1.0);font-size:15.3px;font-family:'Roboto Medium',sans-serif">Samber Zerolog</text><text x="54" y="111" style="stroke-width:0;stroke:none;fill:rgba(70,70,70,1.0);font-size:15.3px;font-family:'Roboto Medium',sans-serif">Samber Zap</text><text x="34" y="135" style="stroke-width:0;stroke:none;fill:rgba(70,70,70,1.0);font-size:15.3px;font-family:'Roboto Medium',sans-serif">Phsym Zerolog</text><text x="144" y="165" style="stroke-width:0;stroke:none;fill:rgba(70,70,70,1.0);font-size:15.3px;font-family:'Roboto Medium',sans-serif">0</text><text x="210" y="165" style="stroke-width:0;stroke:none;fill:rgba(70,70,70,1.0);font-size:15.3px;font-family:'Roboto Medium',sans-serif">2.8k</text><text x="287" y="165" style="stroke-width:0;stroke:none;fill:rgba(70,70,70,1.0);font-size:15.3px;font-family:'Roboto Medium',sans-serif">5.6k</text><text x="365" y="165" style="stroke-width:0;stroke:none;fill:rgba(70,70,70,1.0);font-size:15.3px;font-family:'Roboto Medium',sans-serif">8.4k</text><path  d="M 186 45
L 186 140" style="stroke-width:1;stroke:rgba(224,230,242,1.0);fill:none"/><path  d="M 225 45
L 225 140" style="stroke-width:1;stroke:rgba(224,230,242,1.0);fill:none"/><path  d="M 264 45
L 264 140" style="stroke-width:1;stroke:rgba(224,230,242,1.0);fill:none"/><path  d="M 302 45
L 302 140" style="stroke-width:1;stroke:rgba(224,230,242,1.0);fill:none"/><path  d="M 341 45
L 341 140" style="stroke-width:1;stroke:rgba(224,230,242,1.0);fill:none"/><path  d="M 380 45
L 380 140" style="stroke-width:1;stroke:rgba(224,230,242,1.0);fill:none"/><path  d="M 148 121
L 180 121
L 180 134
L 148 134
L 148 121" style="stroke-width:0;stroke:none;fill:rgba(84,112,198,1.0)"/><path  d="M 148 97
L 384 97
L 384 110
L 148 110
L 148 97" style="stroke-width:0;stroke:none;fill:rgba(84,112,198,1.0)"/><path  d="M 148 73
L 385 73
L 385 86
L 148 86
L 148 73" style="stroke-width:0;stroke:none;fill:rgba(84,112,198,1.0)"/><path  d="M 148 50
L 190 50
L 190 63
L 148 63
L 148 50" style="stroke-width:0;stroke:none;fill:rgba(84,112,198,1.0)"/></svg>