<svg xmlns="http://www.w3.org/2000/svg" xmlns:xlink="http://www.w3.org/1999/xlink" width="800" height="600">\n<path  d="M 0 0
L 800 0
L 800 600
L 0 600
L 0 0" style="stroke-width:0;stroke:rgba(255,255,255,1.0);fill:rgba(255,255,255,1.0)"/><path  d="M 12 16
L 580 16
L 580 551
L 12 551
L 12 16" style="stroke-width:0;stroke:rgba(255,255,255,1.0);fill:rgba(255,255,255,1.0)"/><path  d="M 12 551
L 580 551" style="stroke-width:1;stroke:rgba(51,51,51,1.0);fill:none"/><path  d="M 12 551
L 12 556" style="stroke-width:1;stroke:rgba(51,51,51,1.0);fill:none"/><text x="5" y="573" style="stroke-width:0;stroke:none;fill:rgba(51,51,51,1.0);font-size:12.8px;font-family:'Roboto Medium',sans-serif">75</text><path  d="M 35 551
L 35 556" style="stroke-width:1;stroke:rgba(51,51,51,1.0);fill:none"/><text x="28" y="573" style="stroke-width:0;stroke:none;fill:rgba(51,51,51,1.0);font-size:12.8px;font-family:'Roboto Medium',sans-serif">76</text><path  d="M 81 551
L 81 556" style="stroke-width:1;stroke:rgba(51,51,51,1.0);fill:none"/><text x="74" y="573" style="stroke-width:0;stroke:none;fill:rgba(51,51,51,1.0);font-size:12.8px;font-family:'Roboto Medium',sans-serif">78</text><path  d="M 126 551
L 126 556" style="stroke-width:1;stroke:rgba(51,51,51,1.0);fill:none"/><text x="119" y="573" style="stroke-width:0;stroke:none;fill:rgba(51,51,51,1.0);font-size:12.8px;font-family:'Roboto Medium',sans-serif">80</text><path  d="M 172 551
L 172 556" style="stroke-width:1;stroke:rgba(51,51,51,1.0);fill:none"/><text x="165" y="573" style="stroke-width:0;stroke:none;fill:rgba(51,51,51,1.0);font-size:12.8px;font-family:'Roboto Medium',sans-serif">82</text><path  d="M 217 551
L 217 556" style="stroke-width:1;stroke:rgba(51,51,51,1.0);fill:none"/><text x="210" y="573" style="stroke-width:0;stroke:none;fill:rgba(51,51,51,1.0);font-size:12.8px;font-family:'Roboto Medium',sans-serif">84</text><path  d="M 262 551
L 262 556" style="stroke-width:1;stroke:rgba(51,51,51,1.0);fill:none"/><text x="255" y="573" style="stroke-width:0;stroke:none;fill:rgba(51,51,51,1.0);font-size:12.8px;font-family:'Roboto Medium',sans-serif">86</text><path  d="M 308 551
L 308 556" style="stroke-width:1;stroke:rgba(51,51,51,1.0);fill:none"/><text x="301" y="573" style="stroke-width:0;stroke:none;fill:rgba(51,51,51,1.0);font-size:12.8px;font-family:'Roboto Medium',sans-serif">88</text><path  d="M 353 551
L 353 556" style="stroke-width:1;stroke:rgba(51,51,51,1.0);fill:none"/><text x="346" y="573" style="stroke-width:0;stroke:none;fill:rgba(51,51,51,1.0);font-size:12.8px;font-family:'Roboto Medium',sans-serif">90</text><path  d="M 399 551
L 399 556" style="stroke-width:1;stroke:rgba(51,51,51,1.0);fill:none"/><text x="392" y="573" style="stroke-width:0;stroke:none;fill:rgba(51,51,51,1.0);font-size:12.8px;font-family:'Roboto Medium',sans-serif">92</text><path  d="M 444 551
L 444 556" style="stroke-width:1;stroke:rgba(51,51,51,1.0);fill:none"/><text x="437" y="573" style="stroke-width:0;stroke:none;fill:rgba(51,51,51,1.0);font-size:12.8px;font-family:'Roboto Medium',sans-serif">94</text><path  d="M 490 551
L 490 556" style="stroke-width:1;stroke:rgba(51,51,51,1.0);fill:none"/><text x="483" y="573" style="stroke-width:0;stroke:none;fill:rgba(51,51,51,1.0);font-size:12.8px;font-family:'Roboto Medium',sans-serif">96</text><path  d="M 535 551
L 535 556" style="stroke-width:1;stroke:rgba(51,51,51,1.0);fill:none"/><text x="528" y="573" style="stroke-width:0;stroke:none;fill:rgba(51,51,51,1.0);font-size:12.8px;font-family:'Roboto Medium',sans-serif">98</text><path  d="M 580 551
L 580 556" style="stroke-width:1;stroke:rgba(51,51,51,1.0);fill:none"/><text x="569" y="573" style="stroke-width:0;stroke:none;fill:rgba(51,51,51,1.0);font-size:12.8px;font-family:'Roboto Medium',sans-serif">100</text><text x="280" y="595" style="stroke-width:0;stroke:none;fill:rgba(51,51,51,1.0);font-size:12.8px;font-family:'Roboto Medium',sans-serif">Large</text><path  d="M 35 551
L 35 16" style="stroke-width:0;stroke:none;fill:none"/><path  d="M 81 551
L 81 16" style="stroke-width:0;stroke:none;fill:none"/><path  d="M 126 551
L 126 16" style="stroke-width:0;stroke:none;fill:none"/><path  d="M 172 551
L 172 16" style="stroke-width:0;stroke:none;fill:none"/><path  d="M 217 551
L 217 16" style="stroke-width:0;stroke:none;fill:none"/><path  d="M 262 551
L 262 16" style="stroke-width:0;stroke:none;fill:none"/><path  d="M 308 551
L 308 16" style="stroke-width:0;stroke:none;fill:none"/><path  d="M 353 551
L 353 16" style="stroke-width:0;stroke:none;fill:none"/><path  d="M 399 551
L 399 16" style="stroke-width:0;stroke:none;fill:none"/><path  d="M 444 551
L 444 16" style="stroke-width:0;stroke:none;fill:none"/><path  d="M 490 551
L 490 16" style="stroke-width:0;stroke:none;fill:none"/><path  d="M 535 551
L 535 16" style="stroke-width:0;stroke:none;fill:none"/><path  d="M 581 551
L 581 16" style="stroke-width:1;stroke:rgba(51,51,51,1.0);fill:none"/><path  d="M 581 551
L 586 551" style="stroke-width:1;stroke:rgba(51,51,51,1.0);fill:none"/><text x="591" y="557" style="stroke-width:0;stroke:none;fill:rgba(51,51,51,1.0);font-size:12.8px;font-family:'Roboto Medium',sans-serif">75</text><path  d="M 581 529
L 586 529" style="stroke-width:1;stroke:rgba(51,51,51,1.0);fill:none"/><text x="591" y="535" style="stroke-width:0;stroke:none;fill:rgba(51,51,51,1.0);font-size:12.8px;font-family:'Roboto Medium',sans-serif">76</text><path  d="M 581 486
L 586 486" style="stroke-width:1;stroke:rgba(51,51,51,1.0);fill:none"/><text x="591" y="492" style="stroke-width:0;stroke:none;fill:rgba(51,51,51,1.0);font-size:12.8px;font-family:'Roboto Medium',sans-serif">78</text><path  d="M 581 444
L 586 444" style="stroke-width:1;stroke:rgba(51,51,51,1.0);fill:none"/><text x="591" y="450" style="stroke-width:0;stroke:none;fill:rgba(51,51,51,1.0);font-size:12.8px;font-family:'Roboto Medium',sans-serif">80</text><path  d="M 581 401
L 586 401" style="stroke-width:1;stroke:rgba(51,51,51,1.0);fill:none"/><text x="591" y="407" style="stroke-width:0;stroke:none;fill:rgba(51,51,51,1.0);font-size:12.8px;font-family:'Roboto Medium',sans-serif">82</text><path  d="M 581 358
L 586 358" style="stroke-width:1;stroke:rgba(51,51,51,1.0);fill:none"/><text x="591" y="364" style="stroke-width:0;stroke:none;fill:rgba(51,51,51,1.0);font-size:12.8px;font-family:'Roboto Medium',sans-serif">84</text><path  d="M 581 315
L 586 315" style="stroke-width:1;stroke:rgba(51,51,51,1.0);fill:none"/><text x="591" y="321" style="stroke-width:0;stroke:none;fill:rgba(51,51,51,1.0);font-size:12.8px;font-family:'Roboto Medium',sans-serif">86</text><path  d="M 581 272
L 586 272" style="stroke-width:1;stroke:rgba(51,51,51,1.0);fill:none"/><text x="591" y="278" style="stroke-width:0;stroke:none;fill:rgba(51,51,51,1.0);font-size:12.8px;font-family:'Roboto Medium',sans-serif">88</text><path  d="M 581 230
L 586 230" style="stroke-width:1;stroke:rgba(51,51,51,1.0);fill:none"/><text x="591" y="236" style="stroke-width:0;stroke:none;fill:rgba(51,51,51,1.0);font-size:12.8px;font-family:'Roboto Medium',sans-serif">90</text><path  d="M 581 187
L 586 187" style="stroke-width:1;stroke:rgba(51,51,51,1.0);fill:none"/><text x="591" y="193" style="stroke-width:0;stroke:none;fill:rgba(51,51,51,1.0);font-size:12.8px;font-family:'Roboto Medium',sans-serif">92</text><path  d="M 581 144
L 586 144" style="stroke-width:1;stroke:rgba(51,51,51,1.0);fill:none"/><text x="591" y="150" style="stroke-width:0;stroke:none;fill:rgba(51,51,51,1.0);font-size:12.8px;font-family:'Roboto Medium',sans-serif">94</text><path  d="M 581 101
L 586 101" style="stroke-width:1;stroke:rgba(51,51,51,1.0);fill:none"/><text x="591" y="107" style="stroke-width:0;stroke:none;fill:rgba(51,51,51,1.0);font-size:12.8px;font-family:'Roboto Medium',sans-serif">96</text><path  d="M 581 58
L 586 58" style="stroke-width:1;stroke:rgba(51,51,51,1.0);fill:none"/><text x="591" y="64" style="stroke-width:0;stroke:none;fill:rgba(51,51,51,1.0);font-size:12.8px;font-family:'Roboto Medium',sans-serif">98</text><path  d="M 581 16
L 586 16" style="stroke-width:1;stroke:rgba(51,51,51,1.0);fill:none"/><text x="591" y="22" style="stroke-width:0;stroke:none;fill:rgba(51,51,51,1.0);font-size:12.8px;font-family:'Roboto Medium',sans-serif">100</text><text x="623" y="267" style="stroke-width:0;stroke:none;fill:rgba(51,51,51,1.0);font-size:12.8px;font-family:'Roboto Medium',sans-serif" transform="rotate(90.00,623,267)">Small</text><path  d="M 12 2156
L 580 2156" style="stroke-width:0;stroke:none;fill:none"/><path  d="M 12 529
L 580 529" style="stroke-width:0;stroke:none;fill:none"/><path  d="M 12 486
L 580 486" style="stroke-width:0;stroke:none;fill:none"/><path  d="M 12 444
L 580 444" style="stroke-width:0;stroke:none;fill:none"/><path  d="M 12 401
L 580 401" style="stroke-width:0;stroke:none;fill:none"/><path  d="M 12 358
L 580 358" style="stroke-width:0;stroke:none;fill:none"/><path  d="M 12 315
L 580 315" style="stroke-width:0;stroke:none;fill:none"/><path  d="M 12 272
L 580 272" style="stroke-width:0;stroke:none;fill:none"/><path  d="M 12 230
L 580 230" style="stroke-width:0;stroke:none;fill:none"/><path  d="M 12 187
L 580 187" style="stroke-width:0;stroke:none;fill:none"/><path  d="M 12 144
L 580 144" style="stroke-width:0;stroke:none;fill:none"/><path  d="M 12 101
L 580 101" style="stroke-width:0;stroke:none;fill:none"/><path  d="M 12 58
L 580 58" style="stroke-width:0;stroke:none;fill:none"/><path  d="M 11 551
L 11 16" style="stroke-width:1;stroke:rgba(51,51,51,1.0);fill:none"/><path  d="M 11 -9223372036854775257
L 6 -9223372036854775257" style="stroke-width:1;stroke:rgba(51,51,51,1.0);fill:none"/><text x="-25" y="-9223372036854775251" style="stroke-width:0;stroke:none;fill:rgba(51,51,51,1.0);font-size:12.8px;font-family:'Roboto Medium',sans-serif">0.00</text><path  d="M 11 -9223372036854775257
L 6 -9223372036854775257" style="stroke-width:1;stroke:rgba(51,51,51,1.0);fill:none"/><text x="-25" y="-9223372036854775251" style="stroke-width:0;stroke:none;fill:rgba(51,51,51,1.0);font-size:12.8px;font-family:'Roboto Medium',sans-serif">0.00</text><path  d="M 11 -9223372036854775257
L 6 -9223372036854775257" style="stroke-width:1;stroke:rgba(51,51,51,1.0);fill:none"/><text x="-25" y="-9223372036854775251" style="stroke-width:0;stroke:none;fill:rgba(51,51,51,1.0);font-size:12.8px;font-family:'Roboto Medium',sans-serif">0.00</text><path  d="M 11 -9223372036854775257
L 6 -9223372036854775257" style="stroke-width:1;stroke:rgba(51,51,51,1.0);fill:none"/><text x="-25" y="-9223372036854775251" style="stroke-width:0;stroke:none;fill:rgba(51,51,51,1.0);font-size:12.8px;font-family:'Roboto Medium',sans-serif">0.00</text><path  d="M 11 -9223372036854775257
L 6 -9223372036854775257" style="stroke-width:1;stroke:rgba(51,51,51,1.0);fill:none"/><text x="-25" y="-9223372036854775251" style="stroke-width:0;stroke:none;fill:rgba(51,51,51,1.0);font-size:12.8px;font-family:'Roboto Medium',sans-serif">0.00</text><path  d="M 11 -9223372036854775257
L 6 -9223372036854775257" style="stroke-width:1;stroke:rgba(51,51,51,1.0);fill:none"/><text x="-25" y="-9223372036854775251" style="stroke-width:0;stroke:none;fill:rgba(51,51,51,1.0);font-size:12.8px;font-family:'Roboto Medium',sans-serif">0.00</text><path  d="M 11 -9223372036854775257
L 6 -9223372036854775257" style="stroke-width:1;stroke:rgba(51,51,51,1.0);fill:none"/><text x="-25" y="-9223372036854775251" style="stroke-width:0;stroke:none;fill:rgba(51,51,51,1.0);font-size:12.8px;font-family:'Roboto Medium',sans-serif">0.00</text><path  d="M 11 -9223372036854775257
L 6 -9223372036854775257" style="stroke-width:1;stroke:rgba(51,51,51,1.0);fill:none"/><text x="-25" y="-9223372036854775251" style="stroke-width:0;stroke:none;fill:rgba(51,51,51,1.0);font-size:12.8px;font-family:'Roboto Medium',sans-serif">0.00</text><path  d="M 11 -9223372036854775257
L 6 -9223372036854775257" style="stroke-width:1;stroke:rgba(51,51,51,1.0);fill:none"/><text x="-25" y="-9223372036854775251" style="stroke-width:0;stroke:none;fill:rgba(51,51,51,1.0);font-size:12.8px;font-family:'Roboto Medium',sans-serif">0.00</text><path  d="M 11 -9223372036854775257
L 6 -9223372036854775257" style="stroke-width:1;stroke:rgba(51,51,51,1.0);fill:none"/><text x="-25" y="-9223372036854775251" style="stroke-width:0;stroke:none;fill:rgba(51,51,51,1.0);font-size:12.8px;font-family:'Roboto Medium',sans-serif">0.00</text><path  d="M 11 -9223372036854775257
L 6 -9223372036854775257" style="stroke-width:1;stroke:rgba(51,51,51,1.0);fill:none"/><text x="-25" y="-9223372036854775251" style="stroke-width:0;stroke:none;fill:rgba(51,51,51,1.0);font-size:12.8px;font-family:'Roboto Medium',sans-serif">0.00</text><path  d="M 11 -9223372036854775257
L 6 -9223372036854775257" style="stroke-width:1;stroke:rgba(51,51,51,1.0);fill:none"/><text x="-25" y="-9223372036854775251" style="stroke-width:0;stroke:none;fill:rgba(51,51,51,1.0);font-size:12.8px;font-family:'Roboto Medium',sans-serif">0.00</text><path  d="M 11 -9223372036854775257
L 6 -9223372036854775257" style="stroke-width:1;stroke:rgba(51,51,51,1.0);fill:none"/><text x="-25" y="-9223372036854775251" style="stroke-width:0;stroke:none;fill:rgba(51,51,51,1.0);font-size:12.8px;font-family:'Roboto Medium',sans-serif">0.00</text><path  d="M 11 -9223372036854775257
L 6 -9223372036854775257" style="stroke-width:1;stroke:rgba(51,51,51,1.0);fill:none"/><text x="-25" y="-9223372036854775251" style="stroke-width:0;stroke:none;fill:rgba(51,51,51,1.0);font-size:12.8px;font-family:'Roboto Medium',sans-serif">0.00</text><path  d="M 11 -9223372036854775257
L 6 -9223372036854775257" style="stroke-width:1;stroke:rgba(51,51,51,1.0);fill:none"/><text x="-25" y="-9223372036854775251" style="stroke-width:0;stroke:none;fill:rgba(51,51,51,1.0);font-size:12.8px;font-family:'Roboto Medium',sans-serif">0.00</text><path  d="M 12 -9223372036854775257
L 580 -9223372036854775257" style="stroke-width:0;stroke:none;fill:none"/><path  d="M 12 -9223372036854775257
L 580 -9223372036854775257" style="stroke-width:0;stroke:none;fill:none"/><path  d="M 12 -9223372036854775257
L 580 -9223372036854775257" style="stroke-width:0;stroke:none;fill:none"/><path  d="M 12 -9223372036854775257
L 580 -9223372036854775257" style="stroke-width:0;stroke:none;fill:none"/><path  d="M 12 -9223372036854775257
L 580 -9223372036854775257" style="stroke-width:0;stroke:none;fill:none"/><path  d="M 12 -9223372036854775257
L 580 -9223372036854775257" style="stroke-width:0;stroke:none;fill:none"/><path  d="M 12 -9223372036854775257
L 580 -9223372036854775257" style="stroke-width:0;stroke:none;fill:none"/><path  d="M 12 -9223372036854775257
L 580 -9223372036854775257" style="stroke-width:0;stroke:none;fill:none"/><path  d="M 12 -9223372036854775257
L 580 -9223372036854775257" style="stroke-width:0;stroke:none;fill:none"/><path  d="M 12 -9223372036854775257
L 580 -9223372036854775257" style="stroke-width:0;stroke:none;fill:none"/><path  d="M 12 -9223372036854775257
L 580 -9223372036854775257" style="stroke-width:0;stroke:none;fill:none"/><path  d="M 12 -9223372036854775257
L 580 -9223372036854775257" style="stroke-width:0;stroke:none;fill:none"/><path  d="M 12 -9223372036854775257
L 580 -9223372036854775257" style="stroke-width:0;stroke:none;fill:none"/><path  d="M 12 -9223372036854775257
L 580 -9223372036854775257" style="stroke-width:0;stroke:none;fill:none"/><path  d="M 580 16
L 637 16" style="stroke-width:1;stroke:rgba(63,63,63,0.2);fill:none"/><path  d="M 518 32
L 637 75" style="stroke-width:1;stroke:rgba(63,63,63,0.2);fill:none"/><path  d="M 569 49
L 637 135" style="stroke-width:1;stroke:rgba(63,63,63,0.2);fill:none"/><path  d="M 510 84
L 637 195" style="stroke-width:1;stroke:rgba(63,63,63,0.2);fill:none"/><path  d="M 463 109
L 637 255" style="stroke-width:1;stroke:rgba(63,63,63,0.2);fill:none"/><path  d="M 523 234
L 637 315" style="stroke-width:1;stroke:rgba(63,63,63,0.2);fill:none"/><path  d="M 138 357
L 637 375" style="stroke-width:1;stroke:rgba(63,63,63,0.2);fill:none"/><circle cx="580" cy="16" r="5" style="stroke-width:1;stroke:rgba(0,255,0,1.0);fill:rgba(0,255,0,1.0)"/><path  d="" style="stroke-width:1;stroke:rgba(0,255,0,1.0);fill:rgba(0,255,0,1.0)"/><circle cx="518" cy="32" r="5" style="stroke-width:1;stroke:rgba(17,234,0,1.0);fill:rgba(17,234,0,1.0)"/><path  d="" style="stroke-width:1;stroke:rgba(17,234,0,1.0);fill:rgba(17,234,0,1.0)"/><circle cx="569" cy="49" r="5" style="stroke-width:1;stroke:rgba(10,243,0,1.0);fill:rgba(10,243,0,1.0)"/><path  d="" style="stroke-width:1;stroke:rgba(10,243,0,1.0);fill:rgba(10,243,0,1.0)"/><circle cx="510" cy="84" r="5" style="stroke-width:1;stroke:rgba(32,222,0,1.0);fill:rgba(32,222,0,1.0)"/><path  d="" style="stroke-width:1;stroke:rgba(32,222,0,1.0);fill:rgba(32,222,0,1.0)"/><circle cx="463" cy="109" r="5" style="stroke-width:1;stroke:rgba(48,206,0,1.0);fill:rgba(48,206,0,1.0)"/><path  d="" style="stroke-width:1;stroke:rgba(48,206,0,1.0);fill:rgba(48,206,0,1.0)"/><circle cx="523" cy="234" r="5" style="stroke-width:1;stroke:rgba(60,179,0,1.0);fill:rgba(60,179,0,1.0)"/><path  d="" style="stroke-width:1;stroke:rgba(60,179,0,1.0);fill:rgba(60,179,0,1.0)"/><circle cx="138" cy="357" r="5" style="stroke-width:1;stroke:rgba(178,73,0,1.0);fill:rgba(178,73,0,1.0)"/><path  d="" style="stroke-width:1;stroke:rgba(178,73,0,1.0);fill:rgba(178,73,0,1.0)"/><path  d="M 637 16
L 647 5
L 725 5
L 725 27
L 647 27
L 637 16
Z" style="stroke-width:1;stroke:rgba(63,127,255,1.0);fill:rgba(255,255,255,1.0)"/><text x="652" y="22" style="stroke-width:0;stroke:none;fill:rgba(51,51,51,1.0);font-size:12.8px;font-family:'Roboto Medium',sans-serif">phuslu/slog</text><path  d="M 637 75
L 647 64
L 761 64
L 761 86
L 647 86
L 637 75
Z" style="stroke-width:1;stroke:rgba(63,127,255,1.0);fill:rgba(255,255,255,1.0)"/><text x="652" y="81" style="stroke-width:0;stroke:none;fill:rgba(51,51,51,1.0);font-size:12.8px;font-family:'Roboto Medium',sans-serif">svcrunner/jsonlog</text><path  d="M 637 135
L 647 124
L 750 124
L 750 146
L 647 146
L 637 135
Z" style="stroke-width:1;stroke:rgba(63,127,255,1.0);fill:rgba(255,255,255,1.0)"/><text x="652" y="141" style="stroke-width:0;stroke:none;fill:rgba(51,51,51,1.0);font-size:12.8px;font-family:'Roboto Medium',sans-serif">phsym/zeroslog</text><path  d="M 637 195
L 647 184
L 765 184
L 765 206
L 647 206
L 637 195
Z" style="stroke-width:1;stroke:rgba(63,127,255,1.0);fill:rgba(255,255,255,1.0)"/><text x="652" y="201" style="stroke-width:0;stroke:none;fill:rgba(51,51,51,1.0);font-size:12.8px;font-family:'Roboto Medium',sans-serif">slog/JSONHandler</text><path  d="M 637 255
L 647 244
L 740 244
L 740 266
L 647 266
L 637 255
Z" style="stroke-width:1;stroke:rgba(63,127,255,1.0);fill:rgba(255,255,255,1.0)"/><text x="652" y="261" style="stroke-width:0;stroke:none;fill:rgba(51,51,51,1.0);font-size:12.8px;font-family:'Roboto Medium',sans-serif">madkins/flash</text><path  d="M 637 315
L 647 304
L 778 304
L 778 326
L 647 326
L 637 315
Z" style="stroke-width:1;stroke:rgba(63,127,255,1.0);fill:rgba(255,255,255,1.0)"/><text x="652" y="321" style="stroke-width:0;stroke:none;fill:rgba(51,51,51,1.0);font-size:12.8px;font-family:'Roboto Medium',sans-serif">chanchal/zaphandler</text><path  d="M 637 375
L 647 364
L 749 364
L 749 386
L 647 386
L 637 375
Z" style="stroke-width:1;stroke:rgba(63,127,255,1.0);fill:rgba(255,255,255,1.0)"/><text x="652" y="381" style="stroke-width:0;stroke:none;fill:rgba(51,51,51,1.0);font-size:12.8px;font-family:'Roboto Medium',sans-serif">madkins/sloggy</text></svg>