<svg xmlns="http://www.w3.org/2000/svg" xmlns:xlink="http://www.w3.org/1999/xlink" width="750" height="600">\n<path  d="M 0 0
L 750 0
L 750 600
L 0 600
L 0 0" style="stroke-width:0;stroke:rgba(255,255,255,1.0);fill:rgba(255,255,255,1.0)"/><path  d="M 12 16
L 646 16
L 646 551
L 12 551
L 12 16" style="stroke-width:0;stroke:rgba(255,255,255,1.0);fill:rgba(255,255,255,1.0)"/><path  d="M 12 551
L 646 551" style="stroke-width:1;stroke:rgba(51,51,51,1.0);fill:none"/><path  d="M 12 551
L 12 556" style="stroke-width:1;stroke:rgba(51,51,51,1.0);fill:none"/><text x="5" y="573" style="stroke-width:0;stroke:none;fill:rgba(51,51,51,1.0);font-size:12.8px;font-family:'Roboto Medium',sans-serif">75</text><path  d="M 38 551
L 38 556" style="stroke-width:1;stroke:rgba(51,51,51,1.0);fill:none"/><text x="31" y="573" style="stroke-width:0;stroke:none;fill:rgba(51,51,51,1.0);font-size:12.8px;font-family:'Roboto Medium',sans-serif">76</text><path  d="M 89 551
L 89 556" style="stroke-width:1;stroke:rgba(51,51,51,1.0);fill:none"/><text x="82" y="573" style="stroke-width:0;stroke:none;fill:rgba(51,51,51,1.0);font-size:12.8px;font-family:'Roboto Medium',sans-serif">78</text><path  d="M 139 551
L 139 556" style="stroke-width:1;stroke:rgba(51,51,51,1.0);fill:none"/><text x="132" y="573" style="stroke-width:0;stroke:none;fill:rgba(51,51,51,1.0);font-size:12.8px;font-family:'Roboto Medium',sans-serif">80</text><path  d="M 190 551
L 190 556" style="stroke-width:1;stroke:rgba(51,51,51,1.0);fill:none"/><text x="183" y="573" style="stroke-width:0;stroke:none;fill:rgba(51,51,51,1.0);font-size:12.8px;font-family:'Roboto Medium',sans-serif">82</text><path  d="M 241 551
L 241 556" style="stroke-width:1;stroke:rgba(51,51,51,1.0);fill:none"/><text x="234" y="573" style="stroke-width:0;stroke:none;fill:rgba(51,51,51,1.0);font-size:12.8px;font-family:'Roboto Medium',sans-serif">84</text><path  d="M 291 551
L 291 556" style="stroke-width:1;stroke:rgba(51,51,51,1.0);fill:none"/><text x="284" y="573" style="stroke-width:0;stroke:none;fill:rgba(51,51,51,1.0);font-size:12.8px;font-family:'Roboto Medium',sans-serif">86</text><path  d="M 342 551
L 342 556" style="stroke-width:1;stroke:rgba(51,51,51,1.0);fill:none"/><text x="335" y="573" style="stroke-width:0;stroke:none;fill:rgba(51,51,51,1.0);font-size:12.8px;font-family:'Roboto Medium',sans-serif">88</text><path  d="M 393 551
L 393 556" style="stroke-width:1;stroke:rgba(51,51,51,1.0);fill:none"/><text x="386" y="573" style="stroke-width:0;stroke:none;fill:rgba(51,51,51,1.0);font-size:12.8px;font-family:'Roboto Medium',sans-serif">90</text><path  d="M 444 551
L 444 556" style="stroke-width:1;stroke:rgba(51,51,51,1.0);fill:none"/><text x="437" y="573" style="stroke-width:0;stroke:none;fill:rgba(51,51,51,1.0);font-size:12.8px;font-family:'Roboto Medium',sans-serif">92</text><path  d="M 494 551
L 494 556" style="stroke-width:1;stroke:rgba(51,51,51,1.0);fill:none"/><text x="487" y="573" style="stroke-width:0;stroke:none;fill:rgba(51,51,51,1.0);font-size:12.8px;font-family:'Roboto Medium',sans-serif">94</text><path  d="M 545 551
L 545 556" style="stroke-width:1;stroke:rgba(51,51,51,1.0);fill:none"/><text x="538" y="573" style="stroke-width:0;stroke:none;fill:rgba(51,51,51,1.0);font-size:12.8px;font-family:'Roboto Medium',sans-serif">96</text><path  d="M 596 551
L 596 556" style="stroke-width:1;stroke:rgba(51,51,51,1.0);fill:none"/><text x="589" y="573" style="stroke-width:0;stroke:none;fill:rgba(51,51,51,1.0);font-size:12.8px;font-family:'Roboto Medium',sans-serif">98</text><path  d="M 646 551
L 646 556" style="stroke-width:1;stroke:rgba(51,51,51,1.0);fill:none"/><text x="635" y="573" style="stroke-width:0;stroke:none;fill:rgba(51,51,51,1.0);font-size:12.8px;font-family:'Roboto Medium',sans-serif">100</text><text x="313" y="595" style="stroke-width:0;stroke:none;fill:rgba(51,51,51,1.0);font-size:12.8px;font-family:'Roboto Medium',sans-serif">Large</text><path  d="M 38 551
L 38 16" style="stroke-width:0;stroke:none;fill:none"/><path  d="M 89 551
L 89 16" style="stroke-width:0;stroke:none;fill:none"/><path  d="M 139 551
L 139 16" style="stroke-width:0;stroke:none;fill:none"/><path  d="M 190 551
L 190 16" style="stroke-width:0;stroke:none;fill:none"/><path  d="M 241 551
L 241 16" style="stroke-width:0;stroke:none;fill:none"/><path  d="M 291 551
L 291 16" style="stroke-width:0;stroke:none;fill:none"/><path  d="M 342 551
L 342 16" style="stroke-width:0;stroke:none;fill:none"/><path  d="M 393 551
L 393 16" style="stroke-width:0;stroke:none;fill:none"/><path  d="M 444 551
L 444 16" style="stroke-width:0;stroke:none;fill:none"/><path  d="M 494 551
L 494 16" style="stroke-width:0;stroke:none;fill:none"/><path  d="M 545 551
L 545 16" style="stroke-width:0;stroke:none;fill:none"/><path  d="M 596 551
L 596 16" style="stroke-width:0;stroke:none;fill:none"/><path  d="M 647 551
L 647 16" style="stroke-width:1;stroke:rgba(51,51,51,1.0);fill:none"/><path  d="M 647 551
L 652 551" style="stroke-width:1;stroke:rgba(51,51,51,1.0);fill:none"/><text x="657" y="557" style="stroke-width:0;stroke:none;fill:rgba(51,51,51,1.0);font-size:12.8px;font-family:'Roboto Medium',sans-serif">75</text><path  d="M 647 529
L 652 529" style="stroke-width:1;stroke:rgba(51,51,51,1.0);fill:none"/><text x="657" y="535" style="stroke-width:0;stroke:none;fill:rgba(51,51,51,1.0);font-size:12.8px;font-family:'Roboto Medium',sans-serif">76</text><path  d="M 647 486
L 652 486" style="stroke-width:1;stroke:rgba(51,51,51,1.0);fill:none"/><text x="657" y="492" style="stroke-width:0;stroke:none;fill:rgba(51,51,51,1.0);font-size:12.8px;font-family:'Roboto Medium',sans-serif">78</text><path  d="M 647 444
L 652 444" style="stroke-width:1;stroke:rgba(51,51,51,1.0);fill:none"/><text x="657" y="450" style="stroke-width:0;stroke:none;fill:rgba(51,51,51,1.0);font-size:12.8px;font-family:'Roboto Medium',sans-serif">80</text><path  d="M 647 401
L 652 401" style="stroke-width:1;stroke:rgba(51,51,51,1.0);fill:none"/><text x="657" y="407" style="stroke-width:0;stroke:none;fill:rgba(51,51,51,1.0);font-size:12.8px;font-family:'Roboto Medium',sans-serif">82</text><path  d="M 647 358
L 652 358" style="stroke-width:1;stroke:rgba(51,51,51,1.0);fill:none"/><text x="657" y="364" style="stroke-width:0;stroke:none;fill:rgba(51,51,51,1.0);font-size:12.8px;font-family:'Roboto Medium',sans-serif">84</text><path  d="M 647 315
L 652 315" style="stroke-width:1;stroke:rgba(51,51,51,1.0);fill:none"/><text x="657" y="321" style="stroke-width:0;stroke:none;fill:rgba(51,51,51,1.0);font-size:12.8px;font-family:'Roboto Medium',sans-serif">86</text><path  d="M 647 272
L 652 272" style="stroke-width:1;stroke:rgba(51,51,51,1.0);fill:none"/><text x="657" y="278" style="stroke-width:0;stroke:none;fill:rgba(51,51,51,1.0);font-size:12.8px;font-family:'Roboto Medium',sans-serif">88</text><path  d="M 647 230
L 652 230" style="stroke-width:1;stroke:rgba(51,51,51,1.0);fill:none"/><text x="657" y="236" style="stroke-width:0;stroke:none;fill:rgba(51,51,51,1.0);font-size:12.8px;font-family:'Roboto Medium',sans-serif">90</text><path  d="M 647 187
L 652 187" style="stroke-width:1;stroke:rgba(51,51,51,1.0);fill:none"/><text x="657" y="193" style="stroke-width:0;stroke:none;fill:rgba(51,51,51,1.0);font-size:12.8px;font-family:'Roboto Medium',sans-serif">92</text><path  d="M 647 144
L 652 144" style="stroke-width:1;stroke:rgba(51,51,51,1.0);fill:none"/><text x="657" y="150" style="stroke-width:0;stroke:none;fill:rgba(51,51,51,1.0);font-size:12.8px;font-family:'Roboto Medium',sans-serif">94</text><path  d="M 647 101
L 652 101" style="stroke-width:1;stroke:rgba(51,51,51,1.0);fill:none"/><text x="657" y="107" style="stroke-width:0;stroke:none;fill:rgba(51,51,51,1.0);font-size:12.8px;font-family:'Roboto Medium',sans-serif">96</text><path  d="M 647 58
L 652 58" style="stroke-width:1;stroke:rgba(51,51,51,1.0);fill:none"/><text x="657" y="64" style="stroke-width:0;stroke:none;fill:rgba(51,51,51,1.0);font-size:12.8px;font-family:'Roboto Medium',sans-serif">98</text><path  d="M 647 16
L 652 16" style="stroke-width:1;stroke:rgba(51,51,51,1.0);fill:none"/><text x="657" y="22" style="stroke-width:0;stroke:none;fill:rgba(51,51,51,1.0);font-size:12.8px;font-family:'Roboto Medium',sans-serif">100</text><text x="689" y="267" style="stroke-width:0;stroke:none;fill:rgba(51,51,51,1.0);font-size:12.8px;font-family:'Roboto Medium',sans-serif" transform="rotate(90.00,689,267)">Small</text><path  d="M 12 2156
L 646 2156" style="stroke-width:0;stroke:none;fill:none"/><path  d="M 12 529
L 646 529" style="stroke-width:0;stroke:none;fill:none"/><path  d="M 12 486
L 646 486" style="stroke-width:0;stroke:none;fill:none"/><path  d="M 12 444
L 646 444" style="stroke-width:0;stroke:none;fill:none"/><path  d="M 12 401
L 646 401" style="stroke-width:0;stroke:none;fill:none"/><path  d="M 12 358
L 646 358" style="stroke-width:0;stroke:none;fill:none"/><path  d="M 12 315
L 646 315" style="stroke-width:0;stroke:none;fill:none"/><path  d="M 12 272
L 646 272" style="stroke-width:0;stroke:none;fill:none"/><path  d="M 12 230
L 646 230" style="stroke-width:0;stroke:none;fill:none"/><path  d="M 12 187
L 646 187" style="stroke-width:0;stroke:none;fill:none"/><path  d="M 12 144
L 646 144" style="stroke-width:0;stroke:none;fill:none"/><path  d="M 12 101
L 646 101" style="stroke-width:0;stroke:none;fill:none"/><path  d="M 12 58
L 646 58" style="stroke-width:0;stroke:none;fill:none"/><path  d="M 11 551
L 11 16" style="stroke-width:1;stroke:rgba(51,51,51,1.0);fill:none"/><path  d="M 11 -9223372036854775257
L 6 -9223372036854775257" style="stroke-width:1;stroke:rgba(51,51,51,1.0);fill:none"/><text x="-25" y="-9223372036854775251" style="stroke-width:0;stroke:none;fill:rgba(51,51,51,1.0);font-size:12.8px;font-family:'Roboto Medium',sans-serif">0.00</text><path  d="M 11 -9223372036854775257
L 6 -9223372036854775257" style="stroke-width:1;stroke:rgba(51,51,51,1.0);fill:none"/><text x="-25" y="-9223372036854775251" style="stroke-width:0;stroke:none;fill:rgba(51,51,51,1.0);font-size:12.8px;font-family:'Roboto Medium',sans-serif">0.00</text><path  d="M 11 -9223372036854775257
L 6 -9223372036854775257" style="stroke-width:1;stroke:rgba(51,51,51,1.0);fill:none"/><text x="-25" y="-9223372036854775251" style="stroke-width:0;stroke:none;fill:rgba(51,51,51,1.0);font-size:12.8px;font-family:'Roboto Medium',sans-serif">0.00</text><path  d="M 11 -9223372036854775257
L 6 -9223372036854775257" style="stroke-width:1;stroke:rgba(51,51,51,1.0);fill:none"/><text x="-25" y="-9223372036854775251" style="stroke-width:0;stroke:none;fill:rgba(51,51,51,1.0);font-size:12.8px;font-family:'Roboto Medium',sans-serif">0.00</text><path  d="M 11 -9223372036854775257
L 6 -9223372036854775257" style="stroke-width:1;stroke:rgba(51,51,51,1.0);fill:none"/><text x="-25" y="-9223372036854775251" style="stroke-width:0;stroke:none;fill:rgba(51,51,51,1.0);font-size:12.8px;font-family:'Roboto Medium',sans-serif">0.00</text><path  d="M 11 -9223372036854775257
L 6 -9223372036854775257" style="stroke-width:1;stroke:rgba(51,51,51,1.0);fill:none"/><text x="-25" y="-9223372036854775251" style="stroke-width:0;stroke:none;fill:rgba(51,51,51,1.0);font-size:12.8px;font-family:'Roboto Medium',sans-serif">0.00</text><path  d="M 11 -9223372036854775257
L 6 -9223372036854775257" style="stroke-width:1;stroke:rgba(51,51,51,1.0);fill:none"/><text x="-25" y="-9223372036854775251" style="stroke-width:0;stroke:none;fill:rgba(51,51,51,1.0);font-size:12.8px;font-family:'Roboto Medium',sans-serif">0.00</text><path  d="M 11 -9223372036854775257
L 6 -9223372036854775257" style="stroke-width:1;stroke:rgba(51,51,51,1.0);fill:none"/><text x="-25" y="-9223372036854775251" style="stroke-width:0;stroke:none;fill:rgba(51,51,51,1.0);font-size:12.8px;font-family:'Roboto Medium',sans-serif">0.00</text><path  d="M 11 -9223372036854775257
L 6 -9223372036854775257" style="stroke-width:1;stroke:rgba(51,51,51,1.0);fill:none"/><text x="-25" y="-9223372036854775251" style="stroke-width:0;stroke:none;fill:rgba(51,51,51,1.0);font-size:12.8px;font-family:'Roboto Medium',sans-serif">0.00</text><path  d="M 11 -9223372036854775257
L 6 -9223372036854775257" style="stroke-width:1;stroke:rgba(51,51,51,1.0);fill:none"/><text x="-25" y="-9223372036854775251" style="stroke-width:0;stroke:none;fill:rgba(51,51,51,1.0);font-size:12.8px;font-family:'Roboto Medium',sans-serif">0.00</text><path  d="M 11 -9223372036854775257
L 6 -9223372036854775257" style="stroke-width:1;stroke:rgba(51,51,51,1.0);fill:none"/><text x="-25" y="-9223372036854775251" style="stroke-width:0;stroke:none;fill:rgba(51,51,51,1.0);font-size:12.8px;font-family:'Roboto Medium',sans-serif">0.00</text><path  d="M 11 -9223372036854775257
L 6 -9223372036854775257" style="stroke-width:1;stroke:rgba(51,51,51,1.0);fill:none"/><text x="-25" y="-9223372036854775251" style="stroke-width:0;stroke:none;fill:rgba(51,51,51,1.0);font-size:12.8px;font-family:'Roboto Medium',sans-serif">0.00</text><path  d="M 11 -9223372036854775257
L 6 -9223372036854775257" style="stroke-width:1;stroke:rgba(51,51,51,1.0);fill:none"/><text x="-25" y="-9223372036854775251" style="stroke-width:0;stroke:none;fill:rgba(51,51,51,1.0);font-size:12.8px;font-family:'Roboto Medium',sans-serif">0.00</text><path  d="M 11 -9223372036854775257
L 6 -9223372036854775257" style="stroke-width:1;stroke:rgba(51,51,51,1.0);fill:none"/><text x="-25" y="-9223372036854775251" style="stroke-width:0;stroke:none;fill:rgba(51,51,51,1.0);font-size:12.8px;font-family:'Roboto Medium',sans-serif">0.00</text><path  d="M 11 -9223372036854775257
L 6 -9223372036854775257" style="stroke-width:1;stroke:rgba(51,51,51,1.0);fill:none"/><text x="-25" y="-9223372036854775251" style="stroke-width:0;stroke:none;fill:rgba(51,51,51,1.0);font-size:12.8px;font-family:'Roboto Medium',sans-serif">0.00</text><path  d="M 12 -9223372036854775257
L 646 -9223372036854775257" style="stroke-width:0;stroke:none;fill:none"/><path  d="M 12 -9223372036854775257
L 646 -9223372036854775257" style="stroke-width:0;stroke:none;fill:none"/><path  d="M 12 -9223372036854775257
L 646 -9223372036854775257" style="stroke-width:0;stroke:none;fill:none"/><path  d="M 12 -9223372036854775257
L 646 -9223372036854775257" style="stroke-width:0;stroke:none;fill:none"/><path  d="M 12 -9223372036854775257
L 646 -9223372036854775257" style="stroke-width:0;stroke:none;fill:none"/><path  d="M 12 -9223372036854775257
L 646 -9223372036854775257" style="stroke-width:0;stroke:none;fill:none"/><path  d="M 12 -9223372036854775257
L 646 -9223372036854775257" style="stroke-width:0;stroke:none;fill:none"/><path  d="M 12 -9223372036854775257
L 646 -9223372036854775257" style="stroke-width:0;stroke:none;fill:none"/><path  d="M 12 -9223372036854775257
L 646 -9223372036854775257" style="stroke-width:0;stroke:none;fill:none"/><path  d="M 12 -9223372036854775257
L 646 -9223372036854775257" style="stroke-width:0;stroke:none;fill:none"/><path  d="M 12 -9223372036854775257
L 646 -9223372036854775257" style="stroke-width:0;stroke:none;fill:none"/><path  d="M 12 -9223372036854775257
L 646 -9223372036854775257" style="stroke-width:0;stroke:none;fill:none"/><path  d="M 12 -9223372036854775257
L 646 -9223372036854775257" style="stroke-width:0;stroke:none;fill:none"/><path  d="M 12 -9223372036854775257
L 646 -9223372036854775257" style="stroke-width:0;stroke:none;fill:none"/><circle cx="513" cy="33" r="5" style="stroke-width:1;stroke:rgba(29,216,0,1.0);fill:rgba(29,216,0,1.0)"/><path  d="" style="stroke-width:1;stroke:rgba(29,216,0,1.0);fill:rgba(29,216,0,1.0)"/><circle cx="569" cy="289" r="5" style="stroke-width:1;stroke:rgba(73,160,0,1.0);fill:rgba(73,160,0,1.0)"/><path  d="" style="stroke-width:1;stroke:rgba(73,160,0,1.0);fill:rgba(73,160,0,1.0)"/><circle cx="449" cy="106" r="5" style="stroke-width:1;stroke:rgba(60,190,0,1.0);fill:rgba(60,190,0,1.0)"/><path  d="" style="stroke-width:1;stroke:rgba(60,190,0,1.0);fill:rgba(60,190,0,1.0)"/><circle cx="359" cy="141" r="5" style="stroke-width:1;stroke:rgba(85,162,0,1.0);fill:rgba(85,162,0,1.0)"/><path  d="" style="stroke-width:1;stroke:rgba(85,162,0,1.0);fill:rgba(85,162,0,1.0)"/><circle cx="96" cy="345" r="5" style="stroke-width:1;stroke:rgba(181,62,0,1.0);fill:rgba(181,62,0,1.0)"/><path  d="" style="stroke-width:1;stroke:rgba(181,62,0,1.0);fill:rgba(181,62,0,1.0)"/><circle cx="632" cy="45" r="5" style="stroke-width:1;stroke:rgba(10,244,0,1.0);fill:rgba(10,244,0,1.0)"/><path  d="" style="stroke-width:1;stroke:rgba(10,244,0,1.0);fill:rgba(10,244,0,1.0)"/><circle cx="646" cy="16" r="5" style="stroke-width:1;stroke:rgba(0,255,0,1.0);fill:rgba(0,255,0,1.0)"/><path  d="" style="stroke-width:1;stroke:rgba(0,255,0,1.0);fill:rgba(0,255,0,1.0)"/><circle cx="511" cy="84" r="5" style="stroke-width:1;stroke:rgba(43,209,0,1.0);fill:rgba(43,209,0,1.0)"/><path  d="" style="stroke-width:1;stroke:rgba(43,209,0,1.0);fill:rgba(43,209,0,1.0)"/><path  d="M 513 20
L 523 9
L 637 9
L 637 31
L 523 31
L 513 20
Z" style="stroke-width:1;stroke:rgba(63,127,255,1.0);fill:rgba(255,255,255,1.0)"/><text x="528" y="26" style="stroke-width:0;stroke:none;fill:rgba(51,51,51,1.0);font-size:12.8px;font-family:'Roboto Medium',sans-serif">svcrunner/jsonlog</text><path  d="M 569 289
L 579 278
L 710 278
L 710 300
L 579 300
L 569 289
Z" style="stroke-width:1;stroke:rgba(63,127,255,1.0);fill:rgba(255,255,255,1.0)"/><text x="584" y="295" style="stroke-width:0;stroke:none;fill:rgba(51,51,51,1.0);font-size:12.8px;font-family:'Roboto Medium',sans-serif">chanchal/zaphandler</text><path  d="M 449 105
L 459 94
L 552 94
L 552 116
L 459 116
L 449 105
Z" style="stroke-width:1;stroke:rgba(63,127,255,1.0);fill:rgba(255,255,255,1.0)"/><text x="464" y="111" style="stroke-width:0;stroke:none;fill:rgba(51,51,51,1.0);font-size:12.8px;font-family:'Roboto Medium',sans-serif">madkins/flash</text><path  d="M 359 143
L 369 132
L 475 132
L 475 154
L 369 154
L 359 143
Z" style="stroke-width:1;stroke:rgba(63,127,255,1.0);fill:rgba(255,255,255,1.0)"/><text x="374" y="149" style="stroke-width:0;stroke:none;fill:rgba(51,51,51,1.0);font-size:12.8px;font-family:'Roboto Medium',sans-serif">madkins/replattr</text><path  d="M 96 345
L 106 334
L 208 334
L 208 356
L 106 356
L 96 345
Z" style="stroke-width:1;stroke:rgba(63,127,255,1.0);fill:rgba(255,255,255,1.0)"/><text x="111" y="351" style="stroke-width:0;stroke:none;fill:rgba(51,51,51,1.0);font-size:12.8px;font-family:'Roboto Medium',sans-serif">madkins/sloggy</text><path  d="M 632 58
L 642 47
L 745 47
L 745 69
L 642 69
L 632 58
Z" style="stroke-width:1;stroke:rgba(63,127,255,1.0);fill:rgba(255,255,255,1.0)"/><text x="647" y="64" style="stroke-width:0;stroke:none;fill:rgba(51,51,51,1.0);font-size:12.8px;font-family:'Roboto Medium',sans-serif">phsym/zeroslog</text><path  d="M 646 16
L 656 5
L 734 5
L 734 27
L 656 27
L 646 16
Z" style="stroke-width:1;stroke:rgba(63,127,255,1.0);fill:rgba(255,255,255,1.0)"/><text x="661" y="22" style="stroke-width:0;stroke:none;fill:rgba(51,51,51,1.0);font-size:12.8px;font-family:'Roboto Medium',sans-serif">phuslu/slog</text><path  d="M 511 84
L 521 73
L 639 73
L 639 95
L 521 95
L 511 84
Z" style="stroke-width:1;stroke:rgba(63,127,255,1.0);fill:rgba(255,255,255,1.0)"/><text x="526" y="90" style="stroke-width:0;stroke:none;fill:rgba(51,51,51,1.0);font-size:12.8px;font-family:'Roboto Medium',sans-serif">slog/JSONHandler</text></svg>