<svg xmlns="http://www.w3.org/2000/svg" xmlns:xlink="http://www.w3.org/1999/xlink" width="750" height="600">\n<path  d="M 0 0
L 750 0
L 750 600
L 0 600
L 0 0" style="stroke-width:0;stroke:rgba(255,255,255,1.0);fill:rgba(255,255,255,1.0)"/><path  d="M 12 27
L 647 27
L 647 551
L 12 551
L 12 27" style="stroke-width:0;stroke:rgba(255,255,255,1.0);fill:rgba(255,255,255,1.0)"/><path  d="M 12 551
L 647 551" style="stroke-width:1;stroke:rgba(51,51,51,1.0);fill:none"/><path  d="M 12 551
L 12 556" style="stroke-width:1;stroke:rgba(51,51,51,1.0);fill:none"/><text x="5" y="573" style="stroke-width:0;stroke:none;fill:rgba(51,51,51,1.0);font-size:12.8px;font-family:'Roboto Medium',sans-serif">75</text><path  d="M 38 551
L 38 556" style="stroke-width:1;stroke:rgba(51,51,51,1.0);fill:none"/><text x="31" y="573" style="stroke-width:0;stroke:none;fill:rgba(51,51,51,1.0);font-size:12.8px;font-family:'Roboto Medium',sans-serif">76</text><path  d="M 89 551
L 89 556" style="stroke-width:1;stroke:rgba(51,51,51,1.0);fill:none"/><text x="82" y="573" style="stroke-width:0;stroke:none;fill:rgba(51,51,51,1.0);font-size:12.8px;font-family:'Roboto Medium',sans-serif">78</text><path  d="M 139 551
L 139 556" style="stroke-width:1;stroke:rgba(51,51,51,1.0);fill:none"/><text x="132" y="573" style="stroke-width:0;stroke:none;fill:rgba(51,51,51,1.0);font-size:12.8px;font-family:'Roboto Medium',sans-serif">80</text><path  d="M 190 551
L 190 556" style="stroke-width:1;stroke:rgba(51,51,51,1.0);fill:none"/><text x="183" y="573" style="stroke-width:0;stroke:none;fill:rgba(51,51,51,1.0);font-size:12.8px;font-family:'Roboto Medium',sans-serif">82</text><path  d="M 241 551
L 241 556" style="stroke-width:1;stroke:rgba(51,51,51,1.0);fill:none"/><text x="234" y="573" style="stroke-width:0;stroke:none;fill:rgba(51,51,51,1.0);font-size:12.8px;font-family:'Roboto Medium',sans-serif">84</text><path  d="M 292 551
L 292 556" style="stroke-width:1;stroke:rgba(51,51,51,1.0);fill:none"/><text x="285" y="573" style="stroke-width:0;stroke:none;fill:rgba(51,51,51,1.0);font-size:12.8px;font-family:'Roboto Medium',sans-serif">86</text><path  d="M 343 551
L 343 556" style="stroke-width:1;stroke:rgba(51,51,51,1.0);fill:none"/><text x="336" y="573" style="stroke-width:0;stroke:none;fill:rgba(51,51,51,1.0);font-size:12.8px;font-family:'Roboto Medium',sans-serif">88</text><path  d="M 393 551
L 393 556" style="stroke-width:1;stroke:rgba(51,51,51,1.0);fill:none"/><text x="386" y="573" style="stroke-width:0;stroke:none;fill:rgba(51,51,51,1.0);font-size:12.8px;font-family:'Roboto Medium',sans-serif">90</text><path  d="M 444 551
L 444 556" style="stroke-width:1;stroke:rgba(51,51,51,1.0);fill:none"/><text x="437" y="573" style="stroke-width:0;stroke:none;fill:rgba(51,51,51,1.0);font-size:12.8px;font-family:'Roboto Medium',sans-serif">92</text><path  d="M 495 551
L 495 556" style="stroke-width:1;stroke:rgba(51,51,51,1.0);fill:none"/><text x="488" y="573" style="stroke-width:0;stroke:none;fill:rgba(51,51,51,1.0);font-size:12.8px;font-family:'Roboto Medium',sans-serif">94</text><path  d="M 546 551
L 546 556" style="stroke-width:1;stroke:rgba(51,51,51,1.0);fill:none"/><text x="539" y="573" style="stroke-width:0;stroke:none;fill:rgba(51,51,51,1.0);font-size:12.8px;font-family:'Roboto Medium',sans-serif">96</text><path  d="M 597 551
L 597 556" style="stroke-width:1;stroke:rgba(51,51,51,1.0);fill:none"/><text x="590" y="573" style="stroke-width:0;stroke:none;fill:rgba(51,51,51,1.0);font-size:12.8px;font-family:'Roboto Medium',sans-serif">98</text><path  d="M 647 551
L 647 556" style="stroke-width:1;stroke:rgba(51,51,51,1.0);fill:none"/><text x="636" y="573" style="stroke-width:0;stroke:none;fill:rgba(51,51,51,1.0);font-size:12.8px;font-family:'Roboto Medium',sans-serif">100</text><text x="314" y="595" style="stroke-width:0;stroke:none;fill:rgba(51,51,51,1.0);font-size:12.8px;font-family:'Roboto Medium',sans-serif">Large</text><path  d="M 38 551
L 38 27" style="stroke-width:0;stroke:none;fill:none"/><path  d="M 89 551
L 89 27" style="stroke-width:0;stroke:none;fill:none"/><path  d="M 139 551
L 139 27" style="stroke-width:0;stroke:none;fill:none"/><path  d="M 190 551
L 190 27" style="stroke-width:0;stroke:none;fill:none"/><path  d="M 241 551
L 241 27" style="stroke-width:0;stroke:none;fill:none"/><path  d="M 292 551
L 292 27" style="stroke-width:0;stroke:none;fill:none"/><path  d="M 343 551
L 343 27" style="stroke-width:0;stroke:none;fill:none"/><path  d="M 393 551
L 393 27" style="stroke-width:0;stroke:none;fill:none"/><path  d="M 444 551
L 444 27" style="stroke-width:0;stroke:none;fill:none"/><path  d="M 495 551
L 495 27" style="stroke-width:0;stroke:none;fill:none"/><path  d="M 546 551
L 546 27" style="stroke-width:0;stroke:none;fill:none"/><path  d="M 597 551
L 597 27" style="stroke-width:0;stroke:none;fill:none"/><path  d="M 648 551
L 648 27" style="stroke-width:1;stroke:rgba(51,51,51,1.0);fill:none"/><path  d="M 648 551
L 653 551" style="stroke-width:1;stroke:rgba(51,51,51,1.0);fill:none"/><text x="658" y="557" style="stroke-width:0;stroke:none;fill:rgba(51,51,51,1.0);font-size:12.8px;font-family:'Roboto Medium',sans-serif">75</text><path  d="M 648 530
L 653 530" style="stroke-width:1;stroke:rgba(51,51,51,1.0);fill:none"/><text x="658" y="536" style="stroke-width:0;stroke:none;fill:rgba(51,51,51,1.0);font-size:12.8px;font-family:'Roboto Medium',sans-serif">76</text><path  d="M 648 488
L 653 488" style="stroke-width:1;stroke:rgba(51,51,51,1.0);fill:none"/><text x="658" y="494" style="stroke-width:0;stroke:none;fill:rgba(51,51,51,1.0);font-size:12.8px;font-family:'Roboto Medium',sans-serif">78</text><path  d="M 648 446
L 653 446" style="stroke-width:1;stroke:rgba(51,51,51,1.0);fill:none"/><text x="658" y="452" style="stroke-width:0;stroke:none;fill:rgba(51,51,51,1.0);font-size:12.8px;font-family:'Roboto Medium',sans-serif">80</text><path  d="M 648 404
L 653 404" style="stroke-width:1;stroke:rgba(51,51,51,1.0);fill:none"/><text x="658" y="410" style="stroke-width:0;stroke:none;fill:rgba(51,51,51,1.0);font-size:12.8px;font-family:'Roboto Medium',sans-serif">82</text><path  d="M 648 362
L 653 362" style="stroke-width:1;stroke:rgba(51,51,51,1.0);fill:none"/><text x="658" y="368" style="stroke-width:0;stroke:none;fill:rgba(51,51,51,1.0);font-size:12.8px;font-family:'Roboto Medium',sans-serif">84</text><path  d="M 648 320
L 653 320" style="stroke-width:1;stroke:rgba(51,51,51,1.0);fill:none"/><text x="658" y="326" style="stroke-width:0;stroke:none;fill:rgba(51,51,51,1.0);font-size:12.8px;font-family:'Roboto Medium',sans-serif">86</text><path  d="M 648 278
L 653 278" style="stroke-width:1;stroke:rgba(51,51,51,1.0);fill:none"/><text x="658" y="284" style="stroke-width:0;stroke:none;fill:rgba(51,51,51,1.0);font-size:12.8px;font-family:'Roboto Medium',sans-serif">88</text><path  d="M 648 236
L 653 236" style="stroke-width:1;stroke:rgba(51,51,51,1.0);fill:none"/><text x="658" y="242" style="stroke-width:0;stroke:none;fill:rgba(51,51,51,1.0);font-size:12.8px;font-family:'Roboto Medium',sans-serif">90</text><path  d="M 648 194
L 653 194" style="stroke-width:1;stroke:rgba(51,51,51,1.0);fill:none"/><text x="658" y="200" style="stroke-width:0;stroke:none;fill:rgba(51,51,51,1.0);font-size:12.8px;font-family:'Roboto Medium',sans-serif">92</text><path  d="M 648 152
L 653 152" style="stroke-width:1;stroke:rgba(51,51,51,1.0);fill:none"/><text x="658" y="158" style="stroke-width:0;stroke:none;fill:rgba(51,51,51,1.0);font-size:12.8px;font-family:'Roboto Medium',sans-serif">94</text><path  d="M 648 110
L 653 110" style="stroke-width:1;stroke:rgba(51,51,51,1.0);fill:none"/><text x="658" y="116" style="stroke-width:0;stroke:none;fill:rgba(51,51,51,1.0);font-size:12.8px;font-family:'Roboto Medium',sans-serif">96</text><path  d="M 648 68
L 653 68" style="stroke-width:1;stroke:rgba(51,51,51,1.0);fill:none"/><text x="658" y="74" style="stroke-width:0;stroke:none;fill:rgba(51,51,51,1.0);font-size:12.8px;font-family:'Roboto Medium',sans-serif">98</text><path  d="M 648 27
L 653 27" style="stroke-width:1;stroke:rgba(51,51,51,1.0);fill:none"/><text x="658" y="33" style="stroke-width:0;stroke:none;fill:rgba(51,51,51,1.0);font-size:12.8px;font-family:'Roboto Medium',sans-serif">100</text><text x="690" y="273" style="stroke-width:0;stroke:none;fill:rgba(51,51,51,1.0);font-size:12.8px;font-family:'Roboto Medium',sans-serif" transform="rotate(90.00,690,273)">Small</text><path  d="M 12 2123
L 647 2123" style="stroke-width:0;stroke:none;fill:none"/><path  d="M 12 530
L 647 530" style="stroke-width:0;stroke:none;fill:none"/><path  d="M 12 488
L 647 488" style="stroke-width:0;stroke:none;fill:none"/><path  d="M 12 446
L 647 446" style="stroke-width:0;stroke:none;fill:none"/><path  d="M 12 404
L 647 404" style="stroke-width:0;stroke:none;fill:none"/><path  d="M 12 362
L 647 362" style="stroke-width:0;stroke:none;fill:none"/><path  d="M 12 320
L 647 320" style="stroke-width:0;stroke:none;fill:none"/><path  d="M 12 278
L 647 278" style="stroke-width:0;stroke:none;fill:none"/><path  d="M 12 236
L 647 236" style="stroke-width:0;stroke:none;fill:none"/><path  d="M 12 194
L 647 194" style="stroke-width:0;stroke:none;fill:none"/><path  d="M 12 152
L 647 152" style="stroke-width:0;stroke:none;fill:none"/><path  d="M 12 110
L 647 110" style="stroke-width:0;stroke:none;fill:none"/><path  d="M 12 68
L 647 68" style="stroke-width:0;stroke:none;fill:none"/><path  d="M 11 551
L 11 27" style="stroke-width:1;stroke:rgba(51,51,51,1.0);fill:none"/><path  d="M 11 -9223372036854775257
L 6 -9223372036854775257" style="stroke-width:1;stroke:rgba(51,51,51,1.0);fill:none"/><text x="-25" y="-9223372036854775251" style="stroke-width:0;stroke:none;fill:rgba(51,51,51,1.0);font-size:12.8px;font-family:'Roboto Medium',sans-serif">0.00</text><path  d="M 11 -9223372036854775257
L 6 -9223372036854775257" style="stroke-width:1;stroke:rgba(51,51,51,1.0);fill:none"/><text x="-25" y="-9223372036854775251" style="stroke-width:0;stroke:none;fill:rgba(51,51,51,1.0);font-size:12.8px;font-family:'Roboto Medium',sans-serif">0.00</text><path  d="M 11 -9223372036854775257
L 6 -9223372036854775257" style="stroke-width:1;stroke:rgba(51,51,51,1.0);fill:none"/><text x="-25" y="-9223372036854775251" style="stroke-width:0;stroke:none;fill:rgba(51,51,51,1.0);font-size:12.8px;font-family:'Roboto Medium',sans-serif">0.00</text><path  d="M 11 -9223372036854775257
L 6 -9223372036854775257" style="stroke-width:1;stroke:rgba(51,51,51,1.0);fill:none"/><text x="-25" y="-9223372036854775251" style="stroke-width:0;stroke:none;fill:rgba(51,51,51,1.0);font-size:12.8px;font-family:'Roboto Medium',sans-serif">0.00</text><path  d="M 11 -9223372036854775257
L 6 -9223372036854775257" style="stroke-width:1;stroke:rgba(51,51,51,1.0);fill:none"/><text x="-25" y="-9223372036854775251" style="stroke-width:0;stroke:none;fill:rgba(51,51,51,1.0);font-size:12.8px;font-family:'Roboto Medium',sans-serif">0.00</text><path  d="M 11 -9223372036854775257
L 6 -9223372036854775257" style="stroke-width:1;stroke:rgba(51,51,51,1.0);fill:none"/><text x="-25" y="-9223372036854775251" style="stroke-width:0;stroke:none;fill:rgba(51,51,51,1.0);font-size:12.8px;font-family:'Roboto Medium',sans-serif">0.00</text><path  d="M 11 -9223372036854775257
L 6 -9223372036854775257" style="stroke-width:1;stroke:rgba(51,51,51,1.0);fill:none"/><text x="-25" y="-9223372036854775251" style="stroke-width:0;stroke:none;fill:rgba(51,51,51,1.0);font-size:12.8px;font-family:'Roboto Medium',sans-serif">0.00</text><path  d="M 11 -9223372036854775257
L 6 -9223372036854775257" style="stroke-width:1;stroke:rgba(51,51,51,1.0);fill:none"/><text x="-25" y="-9223372036854775251" style="stroke-width:0;stroke:none;fill:rgba(51,51,51,1.0);font-size:12.8px;font-family:'Roboto Medium',sans-serif">0.00</text><path  d="M 11 -9223372036854775257
L 6 -9223372036854775257" style="stroke-width:1;stroke:rgba(51,51,51,1.0);fill:none"/><text x="-25" y="-9223372036854775251" style="stroke-width:0;stroke:none;fill:rgba(51,51,51,1.0);font-size:12.8px;font-family:'Roboto Medium',sans-serif">0.00</text><path  d="M 11 -9223372036854775257
L 6 -9223372036854775257" style="stroke-width:1;stroke:rgba(51,51,51,1.0);fill:none"/><text x="-25" y="-9223372036854775251" style="stroke-width:0;stroke:none;fill:rgba(51,51,51,1.0);font-size:12.8px;font-family:'Roboto Medium',sans-serif">0.00</text><path  d="M 11 -9223372036854775257
L 6 -9223372036854775257" style="stroke-width:1;stroke:rgba(51,51,51,1.0);fill:none"/><text x="-25" y="-9223372036854775251" style="stroke-width:0;stroke:none;fill:rgba(51,51,51,1.0);font-size:12.8px;font-family:'Roboto Medium',sans-serif">0.00</text><path  d="M 11 -9223372036854775257
L 6 -9223372036854775257" style="stroke-width:1;stroke:rgba(51,51,51,1.0);fill:none"/><text x="-25" y="-9223372036854775251" style="stroke-width:0;stroke:none;fill:rgba(51,51,51,1.0);font-size:12.8px;font-family:'Roboto Medium',sans-serif">0.00</text><path  d="M 11 -9223372036854775257
L 6 -9223372036854775257" style="stroke-width:1;stroke:rgba(51,51,51,1.0);fill:none"/><text x="-25" y="-9223372036854775251" style="stroke-width:0;stroke:none;fill:rgba(51,51,51,1.0);font-size:12.8px;font-family:'Roboto Medium',sans-serif">0.00</text><path  d="M 11 -9223372036854775257
L 6 -9223372036854775257" style="stroke-width:1;stroke:rgba(51,51,51,1.0);fill:none"/><text x="-25" y="-9223372036854775251" style="stroke-width:0;stroke:none;fill:rgba(51,51,51,1.0);font-size:12.8px;font-family:'Roboto Medium',sans-serif">0.00</text><path  d="M 11 -9223372036854775257
L 6 -9223372036854775257" style="stroke-width:1;stroke:rgba(51,51,51,1.0);fill:none"/><text x="-25" y="-9223372036854775251" style="stroke-width:0;stroke:none;fill:rgba(51,51,51,1.0);font-size:12.8px;font-family:'Roboto Medium',sans-serif">0.00</text><path  d="M 12 -9223372036854775257
L 647 -9223372036854775257" style="stroke-width:0;stroke:none;fill:none"/><path  d="M 12 -9223372036854775257
L 647 -9223372036854775257" style="stroke-width:0;stroke:none;fill:none"/><path  d="M 12 -9223372036854775257
L 647 -9223372036854775257" style="stroke-width:0;stroke:none;fill:none"/><path  d="M 12 -9223372036854775257
L 647 -9223372036854775257" style="stroke-width:0;stroke:none;fill:none"/><path  d="M 12 -9223372036854775257
L 647 -9223372036854775257" style="stroke-width:0;stroke:none;fill:none"/><path  d="M 12 -9223372036854775257
L 647 -9223372036854775257" style="stroke-width:0;stroke:none;fill:none"/><path  d="M 12 -9223372036854775257
L 647 -9223372036854775257" style="stroke-width:0;stroke:none;fill:none"/><path  d="M 12 -9223372036854775257
L 647 -9223372036854775257" style="stroke-width:0;stroke:none;fill:none"/><path  d="M 12 -9223372036854775257
L 647 -9223372036854775257" style="stroke-width:0;stroke:none;fill:none"/><path  d="M 12 -9223372036854775257
L 647 -9223372036854775257" style="stroke-width:0;stroke:none;fill:none"/><path  d="M 12 -9223372036854775257
L 647 -9223372036854775257" style="stroke-width:0;stroke:none;fill:none"/><path  d="M 12 -9223372036854775257
L 647 -9223372036854775257" style="stroke-width:0;stroke:none;fill:none"/><path  d="M 12 -9223372036854775257
L 647 -9223372036854775257" style="stroke-width:0;stroke:none;fill:none"/><path  d="M 12 -9223372036854775257
L 647 -9223372036854775257" style="stroke-width:0;stroke:none;fill:none"/><circle cx="647" cy="27" r="5" style="stroke-width:1;stroke:rgba(0,254,0,1.0);fill:rgba(0,254,0,1.0)"/><path  d="" style="stroke-width:1;stroke:rgba(0,254,0,1.0);fill:rgba(0,254,0,1.0)"/><circle cx="514" cy="96" r="5" style="stroke-width:1;stroke:rgba(43,210,0,1.0);fill:rgba(43,210,0,1.0)"/><path  d="" style="stroke-width:1;stroke:rgba(43,210,0,1.0);fill:rgba(43,210,0,1.0)"/><circle cx="510" cy="45" r="5" style="stroke-width:1;stroke:rgba(30,215,0,1.0);fill:rgba(30,215,0,1.0)"/><path  d="" style="stroke-width:1;stroke:rgba(30,215,0,1.0);fill:rgba(30,215,0,1.0)"/><circle cx="569" cy="293" r="5" style="stroke-width:1;stroke:rgba(73,160,0,1.0);fill:rgba(73,160,0,1.0)"/><path  d="" style="stroke-width:1;stroke:rgba(73,160,0,1.0);fill:rgba(73,160,0,1.0)"/><circle cx="442" cy="119" r="5" style="stroke-width:1;stroke:rgba(62,188,0,1.0);fill:rgba(62,188,0,1.0)"/><path  d="" style="stroke-width:1;stroke:rgba(62,188,0,1.0);fill:rgba(62,188,0,1.0)"/><circle cx="357" cy="183" r="5" style="stroke-width:1;stroke:rgba(95,156,0,1.0);fill:rgba(95,156,0,1.0)"/><path  d="" style="stroke-width:1;stroke:rgba(95,156,0,1.0);fill:rgba(95,156,0,1.0)"/><circle cx="101" cy="348" r="5" style="stroke-width:1;stroke:rgba(181,64,0,1.0);fill:rgba(181,64,0,1.0)"/><path  d="" style="stroke-width:1;stroke:rgba(181,64,0,1.0);fill:rgba(181,64,0,1.0)"/><circle cx="633" cy="56" r="5" style="stroke-width:1;stroke:rgba(10,244,0,1.0);fill:rgba(10,244,0,1.0)"/><path  d="" style="stroke-width:1;stroke:rgba(10,244,0,1.0);fill:rgba(10,244,0,1.0)"/><path  d="M 647 17
L 657 6
L 735 6
L 735 28
L 657 28
L 647 17
Z" style="stroke-width:1;stroke:rgba(63,127,255,1.0);fill:rgba(255,255,255,1.0)"/><text x="662" y="23" style="stroke-width:0;stroke:none;fill:rgba(51,51,51,1.0);font-size:12.8px;font-family:'Roboto Medium',sans-serif">phuslu/slog</text><path  d="M 514 89
L 524 78
L 642 78
L 642 100
L 524 100
L 514 89
Z" style="stroke-width:1;stroke:rgba(63,127,255,1.0);fill:rgba(255,255,255,1.0)"/><text x="529" y="95" style="stroke-width:0;stroke:none;fill:rgba(51,51,51,1.0);font-size:12.8px;font-family:'Roboto Medium',sans-serif">slog/JSONHandler</text><path  d="M 510 54
L 520 43
L 634 43
L 634 65
L 520 65
L 510 54
Z" style="stroke-width:1;stroke:rgba(63,127,255,1.0);fill:rgba(255,255,255,1.0)"/><text x="525" y="60" style="stroke-width:0;stroke:none;fill:rgba(51,51,51,1.0);font-size:12.8px;font-family:'Roboto Medium',sans-serif">svcrunner/jsonlog</text><path  d="M 569 293
L 579 282
L 710 282
L 710 304
L 579 304
L 569 293
Z" style="stroke-width:1;stroke:rgba(63,127,255,1.0);fill:rgba(255,255,255,1.0)"/><text x="584" y="299" style="stroke-width:0;stroke:none;fill:rgba(51,51,51,1.0);font-size:12.8px;font-family:'Roboto Medium',sans-serif">chanchal/zaphandler</text><path  d="M 442 126
L 452 115
L 545 115
L 545 137
L 452 137
L 442 126
Z" style="stroke-width:1;stroke:rgba(63,127,255,1.0);fill:rgba(255,255,255,1.0)"/><text x="457" y="132" style="stroke-width:0;stroke:none;fill:rgba(51,51,51,1.0);font-size:12.8px;font-family:'Roboto Medium',sans-serif">madkins/flash</text><path  d="M 357 183
L 367 172
L 473 172
L 473 194
L 367 194
L 357 183
Z" style="stroke-width:1;stroke:rgba(63,127,255,1.0);fill:rgba(255,255,255,1.0)"/><text x="372" y="189" style="stroke-width:0;stroke:none;fill:rgba(51,51,51,1.0);font-size:12.8px;font-family:'Roboto Medium',sans-serif">madkins/replattr</text><path  d="M 101 348
L 111 337
L 213 337
L 213 359
L 111 359
L 101 348
Z" style="stroke-width:1;stroke:rgba(63,127,255,1.0);fill:rgba(255,255,255,1.0)"/><text x="116" y="354" style="stroke-width:0;stroke:none;fill:rgba(51,51,51,1.0);font-size:12.8px;font-family:'Roboto Medium',sans-serif">madkins/sloggy</text><path  d="M 633 56
L 643 45
L 746 45
L 746 67
L 643 67
L 633 56
Z" style="stroke-width:1;stroke:rgba(63,127,255,1.0);fill:rgba(255,255,255,1.0)"/><text x="648" y="62" style="stroke-width:0;stroke:none;fill:rgba(51,51,51,1.0);font-size:12.8px;font-family:'Roboto Medium',sans-serif">phsym/zeroslog</text></svg>