<svg xmlns="http://www.w3.org/2000/svg" xmlns:xlink="http://www.w3.org/1999/xlink" width="750" height="600">\n<path  d="M 0 0
L 750 0
L 750 600
L 0 600
L 0 0" style="stroke-width:0;stroke:rgba(255,255,255,1.0);fill:rgba(255,255,255,1.0)"/><path  d="M 12 38
L 645 38
L 645 551
L 12 551
L 12 38" style="stroke-width:0;stroke:rgba(255,255,255,1.0);fill:rgba(255,255,255,1.0)"/><path  d="M 12 551
L 645 551" style="stroke-width:1;stroke:rgba(51,51,51,1.0);fill:none"/><path  d="M 12 551
L 12 556" style="stroke-width:1;stroke:rgba(51,51,51,1.0);fill:none"/><text x="5" y="573" style="stroke-width:0;stroke:none;fill:rgba(51,51,51,1.0);font-size:12.8px;font-family:'Roboto Medium',sans-serif">75</text><path  d="M 38 551
L 38 556" style="stroke-width:1;stroke:rgba(51,51,51,1.0);fill:none"/><text x="31" y="573" style="stroke-width:0;stroke:none;fill:rgba(51,51,51,1.0);font-size:12.8px;font-family:'Roboto Medium',sans-serif">76</text><path  d="M 88 551
L 88 556" style="stroke-width:1;stroke:rgba(51,51,51,1.0);fill:none"/><text x="81" y="573" style="stroke-width:0;stroke:none;fill:rgba(51,51,51,1.0);font-size:12.8px;font-family:'Roboto Medium',sans-serif">78</text><path  d="M 139 551
L 139 556" style="stroke-width:1;stroke:rgba(51,51,51,1.0);fill:none"/><text x="132" y="573" style="stroke-width:0;stroke:none;fill:rgba(51,51,51,1.0);font-size:12.8px;font-family:'Roboto Medium',sans-serif">80</text><path  d="M 190 551
L 190 556" style="stroke-width:1;stroke:rgba(51,51,51,1.0);fill:none"/><text x="183" y="573" style="stroke-width:0;stroke:none;fill:rgba(51,51,51,1.0);font-size:12.8px;font-family:'Roboto Medium',sans-serif">82</text><path  d="M 240 551
L 240 556" style="stroke-width:1;stroke:rgba(51,51,51,1.0);fill:none"/><text x="233" y="573" style="stroke-width:0;stroke:none;fill:rgba(51,51,51,1.0);font-size:12.8px;font-family:'Roboto Medium',sans-serif">84</text><path  d="M 291 551
L 291 556" style="stroke-width:1;stroke:rgba(51,51,51,1.0);fill:none"/><text x="284" y="573" style="stroke-width:0;stroke:none;fill:rgba(51,51,51,1.0);font-size:12.8px;font-family:'Roboto Medium',sans-serif">86</text><path  d="M 342 551
L 342 556" style="stroke-width:1;stroke:rgba(51,51,51,1.0);fill:none"/><text x="335" y="573" style="stroke-width:0;stroke:none;fill:rgba(51,51,51,1.0);font-size:12.8px;font-family:'Roboto Medium',sans-serif">88</text><path  d="M 392 551
L 392 556" style="stroke-width:1;stroke:rgba(51,51,51,1.0);fill:none"/><text x="385" y="573" style="stroke-width:0;stroke:none;fill:rgba(51,51,51,1.0);font-size:12.8px;font-family:'Roboto Medium',sans-serif">90</text><path  d="M 443 551
L 443 556" style="stroke-width:1;stroke:rgba(51,51,51,1.0);fill:none"/><text x="436" y="573" style="stroke-width:0;stroke:none;fill:rgba(51,51,51,1.0);font-size:12.8px;font-family:'Roboto Medium',sans-serif">92</text><path  d="M 494 551
L 494 556" style="stroke-width:1;stroke:rgba(51,51,51,1.0);fill:none"/><text x="487" y="573" style="stroke-width:0;stroke:none;fill:rgba(51,51,51,1.0);font-size:12.8px;font-family:'Roboto Medium',sans-serif">94</text><path  d="M 544 551
L 544 556" style="stroke-width:1;stroke:rgba(51,51,51,1.0);fill:none"/><text x="537" y="573" style="stroke-width:0;stroke:none;fill:rgba(51,51,51,1.0);font-size:12.8px;font-family:'Roboto Medium',sans-serif">96</text><path  d="M 595 551
L 595 556" style="stroke-width:1;stroke:rgba(51,51,51,1.0);fill:none"/><text x="588" y="573" style="stroke-width:0;stroke:none;fill:rgba(51,51,51,1.0);font-size:12.8px;font-family:'Roboto Medium',sans-serif">98</text><path  d="M 645 551
L 645 556" style="stroke-width:1;stroke:rgba(51,51,51,1.0);fill:none"/><text x="634" y="573" style="stroke-width:0;stroke:none;fill:rgba(51,51,51,1.0);font-size:12.8px;font-family:'Roboto Medium',sans-serif">100</text><text x="313" y="595" style="stroke-width:0;stroke:none;fill:rgba(51,51,51,1.0);font-size:12.8px;font-family:'Roboto Medium',sans-serif">Large</text><path  d="M 38 551
L 38 38" style="stroke-width:0;stroke:none;fill:none"/><path  d="M 88 551
L 88 38" style="stroke-width:0;stroke:none;fill:none"/><path  d="M 139 551
L 139 38" style="stroke-width:0;stroke:none;fill:none"/><path  d="M 190 551
L 190 38" style="stroke-width:0;stroke:none;fill:none"/><path  d="M 240 551
L 240 38" style="stroke-width:0;stroke:none;fill:none"/><path  d="M 291 551
L 291 38" style="stroke-width:0;stroke:none;fill:none"/><path  d="M 342 551
L 342 38" style="stroke-width:0;stroke:none;fill:none"/><path  d="M 392 551
L 392 38" style="stroke-width:0;stroke:none;fill:none"/><path  d="M 443 551
L 443 38" style="stroke-width:0;stroke:none;fill:none"/><path  d="M 494 551
L 494 38" style="stroke-width:0;stroke:none;fill:none"/><path  d="M 544 551
L 544 38" style="stroke-width:0;stroke:none;fill:none"/><path  d="M 595 551
L 595 38" style="stroke-width:0;stroke:none;fill:none"/><path  d="M 646 551
L 646 38" style="stroke-width:1;stroke:rgba(51,51,51,1.0);fill:none"/><path  d="M 646 551
L 651 551" style="stroke-width:1;stroke:rgba(51,51,51,1.0);fill:none"/><text x="656" y="557" style="stroke-width:0;stroke:none;fill:rgba(51,51,51,1.0);font-size:12.8px;font-family:'Roboto Medium',sans-serif">75</text><path  d="M 646 530
L 651 530" style="stroke-width:1;stroke:rgba(51,51,51,1.0);fill:none"/><text x="656" y="536" style="stroke-width:0;stroke:none;fill:rgba(51,51,51,1.0);font-size:12.8px;font-family:'Roboto Medium',sans-serif">76</text><path  d="M 646 489
L 651 489" style="stroke-width:1;stroke:rgba(51,51,51,1.0);fill:none"/><text x="656" y="495" style="stroke-width:0;stroke:none;fill:rgba(51,51,51,1.0);font-size:12.8px;font-family:'Roboto Medium',sans-serif">78</text><path  d="M 646 448
L 651 448" style="stroke-width:1;stroke:rgba(51,51,51,1.0);fill:none"/><text x="656" y="454" style="stroke-width:0;stroke:none;fill:rgba(51,51,51,1.0);font-size:12.8px;font-family:'Roboto Medium',sans-serif">80</text><path  d="M 646 407
L 651 407" style="stroke-width:1;stroke:rgba(51,51,51,1.0);fill:none"/><text x="656" y="413" style="stroke-width:0;stroke:none;fill:rgba(51,51,51,1.0);font-size:12.8px;font-family:'Roboto Medium',sans-serif">82</text><path  d="M 646 366
L 651 366" style="stroke-width:1;stroke:rgba(51,51,51,1.0);fill:none"/><text x="656" y="372" style="stroke-width:0;stroke:none;fill:rgba(51,51,51,1.0);font-size:12.8px;font-family:'Roboto Medium',sans-serif">84</text><path  d="M 646 325
L 651 325" style="stroke-width:1;stroke:rgba(51,51,51,1.0);fill:none"/><text x="656" y="331" style="stroke-width:0;stroke:none;fill:rgba(51,51,51,1.0);font-size:12.8px;font-family:'Roboto Medium',sans-serif">86</text><path  d="M 646 284
L 651 284" style="stroke-width:1;stroke:rgba(51,51,51,1.0);fill:none"/><text x="656" y="290" style="stroke-width:0;stroke:none;fill:rgba(51,51,51,1.0);font-size:12.8px;font-family:'Roboto Medium',sans-serif">88</text><path  d="M 646 243
L 651 243" style="stroke-width:1;stroke:rgba(51,51,51,1.0);fill:none"/><text x="656" y="249" style="stroke-width:0;stroke:none;fill:rgba(51,51,51,1.0);font-size:12.8px;font-family:'Roboto Medium',sans-serif">90</text><path  d="M 646 202
L 651 202" style="stroke-width:1;stroke:rgba(51,51,51,1.0);fill:none"/><text x="656" y="208" style="stroke-width:0;stroke:none;fill:rgba(51,51,51,1.0);font-size:12.8px;font-family:'Roboto Medium',sans-serif">92</text><path  d="M 646 161
L 651 161" style="stroke-width:1;stroke:rgba(51,51,51,1.0);fill:none"/><text x="656" y="167" style="stroke-width:0;stroke:none;fill:rgba(51,51,51,1.0);font-size:12.8px;font-family:'Roboto Medium',sans-serif">94</text><path  d="M 646 120
L 651 120" style="stroke-width:1;stroke:rgba(51,51,51,1.0);fill:none"/><text x="656" y="126" style="stroke-width:0;stroke:none;fill:rgba(51,51,51,1.0);font-size:12.8px;font-family:'Roboto Medium',sans-serif">96</text><path  d="M 646 79
L 651 79" style="stroke-width:1;stroke:rgba(51,51,51,1.0);fill:none"/><text x="656" y="85" style="stroke-width:0;stroke:none;fill:rgba(51,51,51,1.0);font-size:12.8px;font-family:'Roboto Medium',sans-serif">98</text><path  d="M 646 38
L 651 38" style="stroke-width:1;stroke:rgba(51,51,51,1.0);fill:none"/><text x="656" y="44" style="stroke-width:0;stroke:none;fill:rgba(51,51,51,1.0);font-size:12.8px;font-family:'Roboto Medium',sans-serif">100</text><text x="688" y="278" style="stroke-width:0;stroke:none;fill:rgba(51,51,51,1.0);font-size:12.8px;font-family:'Roboto Medium',sans-serif" transform="rotate(90.00,688,278)">Small</text><path  d="M 12 2090
L 645 2090" style="stroke-width:0;stroke:none;fill:none"/><path  d="M 12 530
L 645 530" style="stroke-width:0;stroke:none;fill:none"/><path  d="M 12 489
L 645 489" style="stroke-width:0;stroke:none;fill:none"/><path  d="M 12 448
L 645 448" style="stroke-width:0;stroke:none;fill:none"/><path  d="M 12 407
L 645 407" style="stroke-width:0;stroke:none;fill:none"/><path  d="M 12 366
L 645 366" style="stroke-width:0;stroke:none;fill:none"/><path  d="M 12 325
L 645 325" style="stroke-width:0;stroke:none;fill:none"/><path  d="M 12 284
L 645 284" style="stroke-width:0;stroke:none;fill:none"/><path  d="M 12 243
L 645 243" style="stroke-width:0;stroke:none;fill:none"/><path  d="M 12 202
L 645 202" style="stroke-width:0;stroke:none;fill:none"/><path  d="M 12 161
L 645 161" style="stroke-width:0;stroke:none;fill:none"/><path  d="M 12 120
L 645 120" style="stroke-width:0;stroke:none;fill:none"/><path  d="M 12 79
L 645 79" style="stroke-width:0;stroke:none;fill:none"/><path  d="M 11 551
L 11 38" style="stroke-width:1;stroke:rgba(51,51,51,1.0);fill:none"/><path  d="M 11 -9223372036854775257
L 6 -9223372036854775257" style="stroke-width:1;stroke:rgba(51,51,51,1.0);fill:none"/><text x="-25" y="-9223372036854775251" style="stroke-width:0;stroke:none;fill:rgba(51,51,51,1.0);font-size:12.8px;font-family:'Roboto Medium',sans-serif">0.00</text><path  d="M 11 -9223372036854775257
L 6 -9223372036854775257" style="stroke-width:1;stroke:rgba(51,51,51,1.0);fill:none"/><text x="-25" y="-9223372036854775251" style="stroke-width:0;stroke:none;fill:rgba(51,51,51,1.0);font-size:12.8px;font-family:'Roboto Medium',sans-serif">0.00</text><path  d="M 11 -9223372036854775257
L 6 -9223372036854775257" style="stroke-width:1;stroke:rgba(51,51,51,1.0);fill:none"/><text x="-25" y="-9223372036854775251" style="stroke-width:0;stroke:none;fill:rgba(51,51,51,1.0);font-size:12.8px;font-family:'Roboto Medium',sans-serif">0.00</text><path  d="M 11 -9223372036854775257
L 6 -9223372036854775257" style="stroke-width:1;stroke:rgba(51,51,51,1.0);fill:none"/><text x="-25" y="-9223372036854775251" style="stroke-width:0;stroke:none;fill:rgba(51,51,51,1.0);font-size:12.8px;font-family:'Roboto Medium',sans-serif">0.00</text><path  d="M 11 -9223372036854775257
L 6 -9223372036854775257" style="stroke-width:1;stroke:rgba(51,51,51,1.0);fill:none"/><text x="-25" y="-9223372036854775251" style="stroke-width:0;stroke:none;fill:rgba(51,51,51,1.0);font-size:12.8px;font-family:'Roboto Medium',sans-serif">0.00</text><path  d="M 11 -9223372036854775257
L 6 -9223372036854775257" style="stroke-width:1;stroke:rgba(51,51,51,1.0);fill:none"/><text x="-25" y="-9223372036854775251" style="stroke-width:0;stroke:none;fill:rgba(51,51,51,1.0);font-size:12.8px;font-family:'Roboto Medium',sans-serif">0.00</text><path  d="M 11 -9223372036854775257
L 6 -9223372036854775257" style="stroke-width:1;stroke:rgba(51,51,51,1.0);fill:none"/><text x="-25" y="-9223372036854775251" style="stroke-width:0;stroke:none;fill:rgba(51,51,51,1.0);font-size:12.8px;font-family:'Roboto Medium',sans-serif">0.00</text><path  d="M 11 -9223372036854775257
L 6 -9223372036854775257" style="stroke-width:1;stroke:rgba(51,51,51,1.0);fill:none"/><text x="-25" y="-9223372036854775251" style="stroke-width:0;stroke:none;fill:rgba(51,51,51,1.0);font-size:12.8px;font-family:'Roboto Medium',sans-serif">0.00</text><path  d="M 11 -9223372036854775257
L 6 -9223372036854775257" style="stroke-width:1;stroke:rgba(51,51,51,1.0);fill:none"/><text x="-25" y="-9223372036854775251" style="stroke-width:0;stroke:none;fill:rgba(51,51,51,1.0);font-size:12.8px;font-family:'Roboto Medium',sans-serif">0.00</text><path  d="M 11 -9223372036854775257
L 6 -9223372036854775257" style="stroke-width:1;stroke:rgba(51,51,51,1.0);fill:none"/><text x="-25" y="-9223372036854775251" style="stroke-width:0;stroke:none;fill:rgba(51,51,51,1.0);font-size:12.8px;font-family:'Roboto Medium',sans-serif">0.00</text><path  d="M 11 -9223372036854775257
L 6 -9223372036854775257" style="stroke-width:1;stroke:rgba(51,51,51,1.0);fill:none"/><text x="-25" y="-9223372036854775251" style="stroke-width:0;stroke:none;fill:rgba(51,51,51,1.0);font-size:12.8px;font-family:'Roboto Medium',sans-serif">0.00</text><path  d="M 11 -9223372036854775257
L 6 -9223372036854775257" style="stroke-width:1;stroke:rgba(51,51,51,1.0);fill:none"/><text x="-25" y="-9223372036854775251" style="stroke-width:0;stroke:none;fill:rgba(51,51,51,1.0);font-size:12.8px;font-family:'Roboto Medium',sans-serif">0.00</text><path  d="M 11 -9223372036854775257
L 6 -9223372036854775257" style="stroke-width:1;stroke:rgba(51,51,51,1.0);fill:none"/><text x="-25" y="-9223372036854775251" style="stroke-width:0;stroke:none;fill:rgba(51,51,51,1.0);font-size:12.8px;font-family:'Roboto Medium',sans-serif">0.00</text><path  d="M 11 -9223372036854775257
L 6 -9223372036854775257" style="stroke-width:1;stroke:rgba(51,51,51,1.0);fill:none"/><text x="-25" y="-9223372036854775251" style="stroke-width:0;stroke:none;fill:rgba(51,51,51,1.0);font-size:12.8px;font-family:'Roboto Medium',sans-serif">0.00</text><path  d="M 11 -9223372036854775257
L 6 -9223372036854775257" style="stroke-width:1;stroke:rgba(51,51,51,1.0);fill:none"/><text x="-25" y="-9223372036854775251" style="stroke-width:0;stroke:none;fill:rgba(51,51,51,1.0);font-size:12.8px;font-family:'Roboto Medium',sans-serif">0.00</text><path  d="M 12 -9223372036854775257
L 645 -9223372036854775257" style="stroke-width:0;stroke:none;fill:none"/><path  d="M 12 -9223372036854775257
L 645 -9223372036854775257" style="stroke-width:0;stroke:none;fill:none"/><path  d="M 12 -9223372036854775257
L 645 -9223372036854775257" style="stroke-width:0;stroke:none;fill:none"/><path  d="M 12 -9223372036854775257
L 645 -9223372036854775257" style="stroke-width:0;stroke:none;fill:none"/><path  d="M 12 -9223372036854775257
L 645 -9223372036854775257" style="stroke-width:0;stroke:none;fill:none"/><path  d="M 12 -9223372036854775257
L 645 -9223372036854775257" style="stroke-width:0;stroke:none;fill:none"/><path  d="M 12 -9223372036854775257
L 645 -9223372036854775257" style="stroke-width:0;stroke:none;fill:none"/><path  d="M 12 -9223372036854775257
L 645 -9223372036854775257" style="stroke-width:0;stroke:none;fill:none"/><path  d="M 12 -9223372036854775257
L 645 -9223372036854775257" style="stroke-width:0;stroke:none;fill:none"/><path  d="M 12 -9223372036854775257
L 645 -9223372036854775257" style="stroke-width:0;stroke:none;fill:none"/><path  d="M 12 -9223372036854775257
L 645 -9223372036854775257" style="stroke-width:0;stroke:none;fill:none"/><path  d="M 12 -9223372036854775257
L 645 -9223372036854775257" style="stroke-width:0;stroke:none;fill:none"/><path  d="M 12 -9223372036854775257
L 645 -9223372036854775257" style="stroke-width:0;stroke:none;fill:none"/><path  d="M 12 -9223372036854775257
L 645 -9223372036854775257" style="stroke-width:0;stroke:none;fill:none"/><circle cx="473" cy="124" r="5" style="stroke-width:1;stroke:rgba(55,197,0,1.0);fill:rgba(55,197,0,1.0)"/><path  d="" style="stroke-width:1;stroke:rgba(55,197,0,1.0);fill:rgba(55,197,0,1.0)"/><circle cx="390" cy="158" r="5" style="stroke-width:1;stroke:rgba(80,170,0,1.0);fill:rgba(80,170,0,1.0)"/><path  d="" style="stroke-width:1;stroke:rgba(80,170,0,1.0);fill:rgba(80,170,0,1.0)"/><circle cx="112" cy="352" r="5" style="stroke-width:1;stroke:rgba(179,67,0,1.0);fill:rgba(179,67,0,1.0)"/><path  d="" style="stroke-width:1;stroke:rgba(179,67,0,1.0);fill:rgba(179,67,0,1.0)"/><circle cx="632" cy="66" r="5" style="stroke-width:1;stroke:rgba(9,244,0,1.0);fill:rgba(9,244,0,1.0)"/><path  d="" style="stroke-width:1;stroke:rgba(9,244,0,1.0);fill:rgba(9,244,0,1.0)"/><circle cx="645" cy="38" r="5" style="stroke-width:1;stroke:rgba(0,255,0,1.0);fill:rgba(0,255,0,1.0)"/><path  d="" style="stroke-width:1;stroke:rgba(0,255,0,1.0);fill:rgba(0,255,0,1.0)"/><circle cx="603" cy="104" r="5" style="stroke-width:1;stroke:rgba(25,228,0,1.0);fill:rgba(25,228,0,1.0)"/><path  d="" style="stroke-width:1;stroke:rgba(25,228,0,1.0);fill:rgba(25,228,0,1.0)"/><circle cx="532" cy="54" r="5" style="stroke-width:1;stroke:rgba(26,222,0,1.0);fill:rgba(26,222,0,1.0)"/><path  d="" style="stroke-width:1;stroke:rgba(26,222,0,1.0);fill:rgba(26,222,0,1.0)"/><circle cx="571" cy="300" r="5" style="stroke-width:1;stroke:rgba(73,160,0,1.0);fill:rgba(73,160,0,1.0)"/><path  d="" style="stroke-width:1;stroke:rgba(73,160,0,1.0);fill:rgba(73,160,0,1.0)"/><path  d="M 473 122
L 483 111
L 576 111
L 576 133
L 483 133
L 473 122
Z" style="stroke-width:1;stroke:rgba(63,127,255,1.0);fill:rgba(255,255,255,1.0)"/><text x="488" y="128" style="stroke-width:0;stroke:none;fill:rgba(51,51,51,1.0);font-size:12.8px;font-family:'Roboto Medium',sans-serif">madkins/flash</text><path  d="M 390 159
L 400 148
L 506 148
L 506 170
L 400 170
L 390 159
Z" style="stroke-width:1;stroke:rgba(63,127,255,1.0);fill:rgba(255,255,255,1.0)"/><text x="405" y="165" style="stroke-width:0;stroke:none;fill:rgba(51,51,51,1.0);font-size:12.8px;font-family:'Roboto Medium',sans-serif">madkins/replattr</text><path  d="M 112 352
L 122 341
L 224 341
L 224 363
L 122 363
L 112 352
Z" style="stroke-width:1;stroke:rgba(63,127,255,1.0);fill:rgba(255,255,255,1.0)"/><text x="127" y="358" style="stroke-width:0;stroke:none;fill:rgba(51,51,51,1.0);font-size:12.8px;font-family:'Roboto Medium',sans-serif">madkins/sloggy</text><path  d="M 632 91
L 642 80
L 745 80
L 745 102
L 642 102
L 632 91
Z" style="stroke-width:1;stroke:rgba(63,127,255,1.0);fill:rgba(255,255,255,1.0)"/><text x="647" y="97" style="stroke-width:0;stroke:none;fill:rgba(51,51,51,1.0);font-size:12.8px;font-family:'Roboto Medium',sans-serif">phsym/zeroslog</text><path  d="M 645 17
L 655 6
L 733 6
L 733 28
L 655 28
L 645 17
Z" style="stroke-width:1;stroke:rgba(63,127,255,1.0);fill:rgba(255,255,255,1.0)"/><text x="660" y="23" style="stroke-width:0;stroke:none;fill:rgba(51,51,51,1.0);font-size:12.8px;font-family:'Roboto Medium',sans-serif">phuslu/slog</text><path  d="M 603 104
L 613 93
L 731 93
L 731 115
L 613 115
L 603 104
Z" style="stroke-width:1;stroke:rgba(63,127,255,1.0);fill:rgba(255,255,255,1.0)"/><text x="618" y="110" style="stroke-width:0;stroke:none;fill:rgba(51,51,51,1.0);font-size:12.8px;font-family:'Roboto Medium',sans-serif">slog/JSONHandler</text><path  d="M 532 54
L 542 43
L 656 43
L 656 65
L 542 65
L 532 54
Z" style="stroke-width:1;stroke:rgba(63,127,255,1.0);fill:rgba(255,255,255,1.0)"/><text x="547" y="60" style="stroke-width:0;stroke:none;fill:rgba(51,51,51,1.0);font-size:12.8px;font-family:'Roboto Medium',sans-serif">svcrunner/jsonlog</text><path  d="M 571 300
L 581 289
L 712 289
L 712 311
L 581 311
L 571 300
Z" style="stroke-width:1;stroke:rgba(63,127,255,1.0);fill:rgba(255,255,255,1.0)"/><text x="586" y="306" style="stroke-width:0;stroke:none;fill:rgba(51,51,51,1.0);font-size:12.8px;font-family:'Roboto Medium',sans-serif">chanchal/zaphandler</text></svg>