<svg xmlns="http://www.w3.org/2000/svg" xmlns:xlink="http://www.w3.org/1999/xlink" width="750" height="600">\n<path  d="M 0 0
L 750 0
L 750 600
L 0 600
L 0 0" style="stroke-width:0;stroke:rgba(255,255,255,1.0);fill:rgba(255,255,255,1.0)"/><path  d="M 12 16
L 657 16
L 657 551
L 12 551
L 12 16" style="stroke-width:0;stroke:rgba(255,255,255,1.0);fill:rgba(255,255,255,1.0)"/><path  d="M 12 551
L 657 551" style="stroke-width:1;stroke:rgba(51,51,51,1.0);fill:none"/><path  d="M 12 551
L 12 556" style="stroke-width:1;stroke:rgba(51,51,51,1.0);fill:none"/><text x="5" y="573" style="stroke-width:0;stroke:none;fill:rgba(51,51,51,1.0);font-size:12.8px;font-family:'Roboto Medium',sans-serif">75</text><path  d="M 38 551
L 38 556" style="stroke-width:1;stroke:rgba(51,51,51,1.0);fill:none"/><text x="31" y="573" style="stroke-width:0;stroke:none;fill:rgba(51,51,51,1.0);font-size:12.8px;font-family:'Roboto Medium',sans-serif">76</text><path  d="M 90 551
L 90 556" style="stroke-width:1;stroke:rgba(51,51,51,1.0);fill:none"/><text x="83" y="573" style="stroke-width:0;stroke:none;fill:rgba(51,51,51,1.0);font-size:12.8px;font-family:'Roboto Medium',sans-serif">78</text><path  d="M 141 551
L 141 556" style="stroke-width:1;stroke:rgba(51,51,51,1.0);fill:none"/><text x="134" y="573" style="stroke-width:0;stroke:none;fill:rgba(51,51,51,1.0);font-size:12.8px;font-family:'Roboto Medium',sans-serif">80</text><path  d="M 193 551
L 193 556" style="stroke-width:1;stroke:rgba(51,51,51,1.0);fill:none"/><text x="186" y="573" style="stroke-width:0;stroke:none;fill:rgba(51,51,51,1.0);font-size:12.8px;font-family:'Roboto Medium',sans-serif">82</text><path  d="M 245 551
L 245 556" style="stroke-width:1;stroke:rgba(51,51,51,1.0);fill:none"/><text x="238" y="573" style="stroke-width:0;stroke:none;fill:rgba(51,51,51,1.0);font-size:12.8px;font-family:'Roboto Medium',sans-serif">84</text><path  d="M 296 551
L 296 556" style="stroke-width:1;stroke:rgba(51,51,51,1.0);fill:none"/><text x="289" y="573" style="stroke-width:0;stroke:none;fill:rgba(51,51,51,1.0);font-size:12.8px;font-family:'Roboto Medium',sans-serif">86</text><path  d="M 348 551
L 348 556" style="stroke-width:1;stroke:rgba(51,51,51,1.0);fill:none"/><text x="341" y="573" style="stroke-width:0;stroke:none;fill:rgba(51,51,51,1.0);font-size:12.8px;font-family:'Roboto Medium',sans-serif">88</text><path  d="M 399 551
L 399 556" style="stroke-width:1;stroke:rgba(51,51,51,1.0);fill:none"/><text x="392" y="573" style="stroke-width:0;stroke:none;fill:rgba(51,51,51,1.0);font-size:12.8px;font-family:'Roboto Medium',sans-serif">90</text><path  d="M 451 551
L 451 556" style="stroke-width:1;stroke:rgba(51,51,51,1.0);fill:none"/><text x="444" y="573" style="stroke-width:0;stroke:none;fill:rgba(51,51,51,1.0);font-size:12.8px;font-family:'Roboto Medium',sans-serif">92</text><path  d="M 503 551
L 503 556" style="stroke-width:1;stroke:rgba(51,51,51,1.0);fill:none"/><text x="496" y="573" style="stroke-width:0;stroke:none;fill:rgba(51,51,51,1.0);font-size:12.8px;font-family:'Roboto Medium',sans-serif">94</text><path  d="M 554 551
L 554 556" style="stroke-width:1;stroke:rgba(51,51,51,1.0);fill:none"/><text x="547" y="573" style="stroke-width:0;stroke:none;fill:rgba(51,51,51,1.0);font-size:12.8px;font-family:'Roboto Medium',sans-serif">96</text><path  d="M 606 551
L 606 556" style="stroke-width:1;stroke:rgba(51,51,51,1.0);fill:none"/><text x="599" y="573" style="stroke-width:0;stroke:none;fill:rgba(51,51,51,1.0);font-size:12.8px;font-family:'Roboto Medium',sans-serif">98</text><path  d="M 657 551
L 657 556" style="stroke-width:1;stroke:rgba(51,51,51,1.0);fill:none"/><text x="646" y="573" style="stroke-width:0;stroke:none;fill:rgba(51,51,51,1.0);font-size:12.8px;font-family:'Roboto Medium',sans-serif">100</text><text x="293" y="595" style="stroke-width:0;stroke:none;fill:rgba(51,51,51,1.0);font-size:12.8px;font-family:'Roboto Medium',sans-serif">Warning Score</text><path  d="M 38 551
L 38 16" style="stroke-width:0;stroke:none;fill:none"/><path  d="M 90 551
L 90 16" style="stroke-width:0;stroke:none;fill:none"/><path  d="M 141 551
L 141 16" style="stroke-width:0;stroke:none;fill:none"/><path  d="M 193 551
L 193 16" style="stroke-width:0;stroke:none;fill:none"/><path  d="M 245 551
L 245 16" style="stroke-width:0;stroke:none;fill:none"/><path  d="M 296 551
L 296 16" style="stroke-width:0;stroke:none;fill:none"/><path  d="M 348 551
L 348 16" style="stroke-width:0;stroke:none;fill:none"/><path  d="M 399 551
L 399 16" style="stroke-width:0;stroke:none;fill:none"/><path  d="M 451 551
L 451 16" style="stroke-width:0;stroke:none;fill:none"/><path  d="M 503 551
L 503 16" style="stroke-width:0;stroke:none;fill:none"/><path  d="M 554 551
L 554 16" style="stroke-width:0;stroke:none;fill:none"/><path  d="M 606 551
L 606 16" style="stroke-width:0;stroke:none;fill:none"/><path  d="M 658 551
L 658 16" style="stroke-width:1;stroke:rgba(51,51,51,1.0);fill:none"/><path  d="M 658 551
L 663 551" style="stroke-width:1;stroke:rgba(51,51,51,1.0);fill:none"/><text x="668" y="557" style="stroke-width:0;stroke:none;fill:rgba(51,51,51,1.0);font-size:12.8px;font-family:'Roboto Medium',sans-serif">75</text><path  d="M 658 529
L 663 529" style="stroke-width:1;stroke:rgba(51,51,51,1.0);fill:none"/><text x="668" y="535" style="stroke-width:0;stroke:none;fill:rgba(51,51,51,1.0);font-size:12.8px;font-family:'Roboto Medium',sans-serif">76</text><path  d="M 658 486
L 663 486" style="stroke-width:1;stroke:rgba(51,51,51,1.0);fill:none"/><text x="668" y="492" style="stroke-width:0;stroke:none;fill:rgba(51,51,51,1.0);font-size:12.8px;font-family:'Roboto Medium',sans-serif">78</text><path  d="M 658 444
L 663 444" style="stroke-width:1;stroke:rgba(51,51,51,1.0);fill:none"/><text x="668" y="450" style="stroke-width:0;stroke:none;fill:rgba(51,51,51,1.0);font-size:12.8px;font-family:'Roboto Medium',sans-serif">80</text><path  d="M 658 401
L 663 401" style="stroke-width:1;stroke:rgba(51,51,51,1.0);fill:none"/><text x="668" y="407" style="stroke-width:0;stroke:none;fill:rgba(51,51,51,1.0);font-size:12.8px;font-family:'Roboto Medium',sans-serif">82</text><path  d="M 658 358
L 663 358" style="stroke-width:1;stroke:rgba(51,51,51,1.0);fill:none"/><text x="668" y="364" style="stroke-width:0;stroke:none;fill:rgba(51,51,51,1.0);font-size:12.8px;font-family:'Roboto Medium',sans-serif">84</text><path  d="M 658 315
L 663 315" style="stroke-width:1;stroke:rgba(51,51,51,1.0);fill:none"/><text x="668" y="321" style="stroke-width:0;stroke:none;fill:rgba(51,51,51,1.0);font-size:12.8px;font-family:'Roboto Medium',sans-serif">86</text><path  d="M 658 272
L 663 272" style="stroke-width:1;stroke:rgba(51,51,51,1.0);fill:none"/><text x="668" y="278" style="stroke-width:0;stroke:none;fill:rgba(51,51,51,1.0);font-size:12.8px;font-family:'Roboto Medium',sans-serif">88</text><path  d="M 658 230
L 663 230" style="stroke-width:1;stroke:rgba(51,51,51,1.0);fill:none"/><text x="668" y="236" style="stroke-width:0;stroke:none;fill:rgba(51,51,51,1.0);font-size:12.8px;font-family:'Roboto Medium',sans-serif">90</text><path  d="M 658 187
L 663 187" style="stroke-width:1;stroke:rgba(51,51,51,1.0);fill:none"/><text x="668" y="193" style="stroke-width:0;stroke:none;fill:rgba(51,51,51,1.0);font-size:12.8px;font-family:'Roboto Medium',sans-serif">92</text><path  d="M 658 144
L 663 144" style="stroke-width:1;stroke:rgba(51,51,51,1.0);fill:none"/><text x="668" y="150" style="stroke-width:0;stroke:none;fill:rgba(51,51,51,1.0);font-size:12.8px;font-family:'Roboto Medium',sans-serif">94</text><path  d="M 658 101
L 663 101" style="stroke-width:1;stroke:rgba(51,51,51,1.0);fill:none"/><text x="668" y="107" style="stroke-width:0;stroke:none;fill:rgba(51,51,51,1.0);font-size:12.8px;font-family:'Roboto Medium',sans-serif">96</text><path  d="M 658 58
L 663 58" style="stroke-width:1;stroke:rgba(51,51,51,1.0);fill:none"/><text x="668" y="64" style="stroke-width:0;stroke:none;fill:rgba(51,51,51,1.0);font-size:12.8px;font-family:'Roboto Medium',sans-serif">98</text><path  d="M 658 16
L 663 16" style="stroke-width:1;stroke:rgba(51,51,51,1.0);fill:none"/><text x="668" y="22" style="stroke-width:0;stroke:none;fill:rgba(51,51,51,1.0);font-size:12.8px;font-family:'Roboto Medium',sans-serif">100</text><text x="700" y="232" style="stroke-width:0;stroke:none;fill:rgba(51,51,51,1.0);font-size:12.8px;font-family:'Roboto Medium',sans-serif" transform="rotate(90.00,700,232)">Benchmark Score</text><path  d="M 12 2156
L 657 2156" style="stroke-width:0;stroke:none;fill:none"/><path  d="M 12 529
L 657 529" style="stroke-width:0;stroke:none;fill:none"/><path  d="M 12 486
L 657 486" style="stroke-width:0;stroke:none;fill:none"/><path  d="M 12 444
L 657 444" style="stroke-width:0;stroke:none;fill:none"/><path  d="M 12 401
L 657 401" style="stroke-width:0;stroke:none;fill:none"/><path  d="M 12 358
L 657 358" style="stroke-width:0;stroke:none;fill:none"/><path  d="M 12 315
L 657 315" style="stroke-width:0;stroke:none;fill:none"/><path  d="M 12 272
L 657 272" style="stroke-width:0;stroke:none;fill:none"/><path  d="M 12 230
L 657 230" style="stroke-width:0;stroke:none;fill:none"/><path  d="M 12 187
L 657 187" style="stroke-width:0;stroke:none;fill:none"/><path  d="M 12 144
L 657 144" style="stroke-width:0;stroke:none;fill:none"/><path  d="M 12 101
L 657 101" style="stroke-width:0;stroke:none;fill:none"/><path  d="M 12 58
L 657 58" style="stroke-width:0;stroke:none;fill:none"/><path  d="M 11 551
L 11 16" style="stroke-width:1;stroke:rgba(51,51,51,1.0);fill:none"/><path  d="M 11 -9223372036854775257
L 6 -9223372036854775257" style="stroke-width:1;stroke:rgba(51,51,51,1.0);fill:none"/><text x="-25" y="-9223372036854775251" style="stroke-width:0;stroke:none;fill:rgba(51,51,51,1.0);font-size:12.8px;font-family:'Roboto Medium',sans-serif">0.00</text><path  d="M 11 -9223372036854775257
L 6 -9223372036854775257" style="stroke-width:1;stroke:rgba(51,51,51,1.0);fill:none"/><text x="-25" y="-9223372036854775251" style="stroke-width:0;stroke:none;fill:rgba(51,51,51,1.0);font-size:12.8px;font-family:'Roboto Medium',sans-serif">0.00</text><path  d="M 11 -9223372036854775257
L 6 -9223372036854775257" style="stroke-width:1;stroke:rgba(51,51,51,1.0);fill:none"/><text x="-25" y="-9223372036854775251" style="stroke-width:0;stroke:none;fill:rgba(51,51,51,1.0);font-size:12.8px;font-family:'Roboto Medium',sans-serif">0.00</text><path  d="M 11 -9223372036854775257
L 6 -9223372036854775257" style="stroke-width:1;stroke:rgba(51,51,51,1.0);fill:none"/><text x="-25" y="-9223372036854775251" style="stroke-width:0;stroke:none;fill:rgba(51,51,51,1.0);font-size:12.8px;font-family:'Roboto Medium',sans-serif">0.00</text><path  d="M 11 -9223372036854775257
L 6 -9223372036854775257" style="stroke-width:1;stroke:rgba(51,51,51,1.0);fill:none"/><text x="-25" y="-9223372036854775251" style="stroke-width:0;stroke:none;fill:rgba(51,51,51,1.0);font-size:12.8px;font-family:'Roboto Medium',sans-serif">0.00</text><path  d="M 11 -9223372036854775257
L 6 -9223372036854775257" style="stroke-width:1;stroke:rgba(51,51,51,1.0);fill:none"/><text x="-25" y="-9223372036854775251" style="stroke-width:0;stroke:none;fill:rgba(51,51,51,1.0);font-size:12.8px;font-family:'Roboto Medium',sans-serif">0.00</text><path  d="M 11 -9223372036854775257
L 6 -9223372036854775257" style="stroke-width:1;stroke:rgba(51,51,51,1.0);fill:none"/><text x="-25" y="-9223372036854775251" style="stroke-width:0;stroke:none;fill:rgba(51,51,51,1.0);font-size:12.8px;font-family:'Roboto Medium',sans-serif">0.00</text><path  d="M 11 -9223372036854775257
L 6 -9223372036854775257" style="stroke-width:1;stroke:rgba(51,51,51,1.0);fill:none"/><text x="-25" y="-9223372036854775251" style="stroke-width:0;stroke:none;fill:rgba(51,51,51,1.0);font-size:12.8px;font-family:'Roboto Medium',sans-serif">0.00</text><path  d="M 11 -9223372036854775257
L 6 -9223372036854775257" style="stroke-width:1;stroke:rgba(51,51,51,1.0);fill:none"/><text x="-25" y="-9223372036854775251" style="stroke-width:0;stroke:none;fill:rgba(51,51,51,1.0);font-size:12.8px;font-family:'Roboto Medium',sans-serif">0.00</text><path  d="M 11 -9223372036854775257
L 6 -9223372036854775257" style="stroke-width:1;stroke:rgba(51,51,51,1.0);fill:none"/><text x="-25" y="-9223372036854775251" style="stroke-width:0;stroke:none;fill:rgba(51,51,51,1.0);font-size:12.8px;font-family:'Roboto Medium',sans-serif">0.00</text><path  d="M 11 -9223372036854775257
L 6 -9223372036854775257" style="stroke-width:1;stroke:rgba(51,51,51,1.0);fill:none"/><text x="-25" y="-9223372036854775251" style="stroke-width:0;stroke:none;fill:rgba(51,51,51,1.0);font-size:12.8px;font-family:'Roboto Medium',sans-serif">0.00</text><path  d="M 11 -9223372036854775257
L 6 -9223372036854775257" style="stroke-width:1;stroke:rgba(51,51,51,1.0);fill:none"/><text x="-25" y="-9223372036854775251" style="stroke-width:0;stroke:none;fill:rgba(51,51,51,1.0);font-size:12.8px;font-family:'Roboto Medium',sans-serif">0.00</text><path  d="M 11 -9223372036854775257
L 6 -9223372036854775257" style="stroke-width:1;stroke:rgba(51,51,51,1.0);fill:none"/><text x="-25" y="-9223372036854775251" style="stroke-width:0;stroke:none;fill:rgba(51,51,51,1.0);font-size:12.8px;font-family:'Roboto Medium',sans-serif">0.00</text><path  d="M 11 -9223372036854775257
L 6 -9223372036854775257" style="stroke-width:1;stroke:rgba(51,51,51,1.0);fill:none"/><text x="-25" y="-9223372036854775251" style="stroke-width:0;stroke:none;fill:rgba(51,51,51,1.0);font-size:12.8px;font-family:'Roboto Medium',sans-serif">0.00</text><path  d="M 11 -9223372036854775257
L 6 -9223372036854775257" style="stroke-width:1;stroke:rgba(51,51,51,1.0);fill:none"/><text x="-25" y="-9223372036854775251" style="stroke-width:0;stroke:none;fill:rgba(51,51,51,1.0);font-size:12.8px;font-family:'Roboto Medium',sans-serif">0.00</text><path  d="M 12 -9223372036854775257
L 657 -9223372036854775257" style="stroke-width:0;stroke:none;fill:none"/><path  d="M 12 -9223372036854775257
L 657 -9223372036854775257" style="stroke-width:0;stroke:none;fill:none"/><path  d="M 12 -9223372036854775257
L 657 -9223372036854775257" style="stroke-width:0;stroke:none;fill:none"/><path  d="M 12 -9223372036854775257
L 657 -9223372036854775257" style="stroke-width:0;stroke:none;fill:none"/><path  d="M 12 -9223372036854775257
L 657 -9223372036854775257" style="stroke-width:0;stroke:none;fill:none"/><path  d="M 12 -9223372036854775257
L 657 -9223372036854775257" style="stroke-width:0;stroke:none;fill:none"/><path  d="M 12 -9223372036854775257
L 657 -9223372036854775257" style="stroke-width:0;stroke:none;fill:none"/><path  d="M 12 -9223372036854775257
L 657 -9223372036854775257" style="stroke-width:0;stroke:none;fill:none"/><path  d="M 12 -9223372036854775257
L 657 -9223372036854775257" style="stroke-width:0;stroke:none;fill:none"/><path  d="M 12 -9223372036854775257
L 657 -9223372036854775257" style="stroke-width:0;stroke:none;fill:none"/><path  d="M 12 -9223372036854775257
L 657 -9223372036854775257" style="stroke-width:0;stroke:none;fill:none"/><path  d="M 12 -9223372036854775257
L 657 -9223372036854775257" style="stroke-width:0;stroke:none;fill:none"/><path  d="M 12 -9223372036854775257
L 657 -9223372036854775257" style="stroke-width:0;stroke:none;fill:none"/><path  d="M 12 -9223372036854775257
L 657 -9223372036854775257" style="stroke-width:0;stroke:none;fill:none"/><circle cx="618" cy="163" r="5" style="stroke-width:1;stroke:rgba(41,204,0,1.0);fill:rgba(41,204,0,1.0)"/><path  d="" style="stroke-width:1;stroke:rgba(41,204,0,1.0);fill:rgba(41,204,0,1.0)"/><circle cx="618" cy="386" r="5" style="stroke-width:1;stroke:rgba(76,129,0,1.0);fill:rgba(76,129,0,1.0)"/><path  d="" style="stroke-width:1;stroke:rgba(76,129,0,1.0);fill:rgba(76,129,0,1.0)"/><circle cx="618" cy="16" r="5" style="stroke-width:1;stroke:rgba(7,243,0,1.0);fill:rgba(7,243,0,1.0)"/><path  d="" style="stroke-width:1;stroke:rgba(7,243,0,1.0);fill:rgba(7,243,0,1.0)"/><circle cx="618" cy="82" r="5" style="stroke-width:1;stroke:rgba(23,229,0,1.0);fill:rgba(23,229,0,1.0)"/><path  d="" style="stroke-width:1;stroke:rgba(23,229,0,1.0);fill:rgba(23,229,0,1.0)"/><circle cx="618" cy="121" r="5" style="stroke-width:1;stroke:rgba(32,217,0,1.0);fill:rgba(32,217,0,1.0)"/><path  d="" style="stroke-width:1;stroke:rgba(32,217,0,1.0);fill:rgba(32,217,0,1.0)"/><path  d="M 618 163
L 628 152
L 734 152
L 734 174
L 628 174
L 618 163
Z" style="stroke-width:1;stroke:rgba(63,127,255,1.0);fill:rgba(255,255,255,1.0)"/><text x="633" y="169" style="stroke-width:0;stroke:none;fill:rgba(51,51,51,1.0);font-size:12.8px;font-family:'Roboto Medium',sans-serif">madkins/replattr</text><path  d="M 618 386
L 628 375
L 730 375
L 730 397
L 628 397
L 618 386
Z" style="stroke-width:1;stroke:rgba(63,127,255,1.0);fill:rgba(255,255,255,1.0)"/><text x="633" y="392" style="stroke-width:0;stroke:none;fill:rgba(51,51,51,1.0);font-size:12.8px;font-family:'Roboto Medium',sans-serif">madkins/sloggy</text><path  d="M 618 16
L 628 5
L 706 5
L 706 27
L 628 27
L 618 16
Z" style="stroke-width:1;stroke:rgba(63,127,255,1.0);fill:rgba(255,255,255,1.0)"/><text x="633" y="22" style="stroke-width:0;stroke:none;fill:rgba(51,51,51,1.0);font-size:12.8px;font-family:'Roboto Medium',sans-serif">phuslu/slog</text><path  d="M 618 82
L 628 71
L 746 71
L 746 93
L 628 93
L 618 82
Z" style="stroke-width:1;stroke:rgba(63,127,255,1.0);fill:rgba(255,255,255,1.0)"/><text x="633" y="88" style="stroke-width:0;stroke:none;fill:rgba(51,51,51,1.0);font-size:12.8px;font-family:'Roboto Medium',sans-serif">slog/JSONHandler</text><path  d="M 618 121
L 628 110
L 721 110
L 721 132
L 628 132
L 618 121
Z" style="stroke-width:1;stroke:rgba(63,127,255,1.0);fill:rgba(255,255,255,1.0)"/><text x="633" y="127" style="stroke-width:0;stroke:none;fill:rgba(51,51,51,1.0);font-size:12.8px;font-family:'Roboto Medium',sans-serif">madkins/flash</text></svg>